%TF.GenerationSoftware,KiCad,Pcbnew,9.0.6*%
%TF.CreationDate,2026-05-04T22:58:46-07:00*%
%TF.ProjectId,Tilt_Table_PCB_Rev2,54696c74-5f54-4616-926c-655f5043425f,rev?*%
%TF.SameCoordinates,Original*%
%TF.FileFunction,Copper,L4,Bot*%
%TF.FilePolarity,Positive*%
%FSLAX46Y46*%
G04 Gerber Fmt 4.6, Leading zero omitted, Abs format (unit mm)*
G04 Created by KiCad (PCBNEW 9.0.6) date 2026-05-04 22:58:46*
%MOMM*%
%LPD*%
G01*
G04 APERTURE LIST*
G04 Aperture macros list*
%AMRoundRect*
0 Rectangle with rounded corners*
0 $1 Rounding radius*
0 $2 $3 $4 $5 $6 $7 $8 $9 X,Y pos of 4 corners*
0 Add a 4 corners polygon primitive as box body*
4,1,4,$2,$3,$4,$5,$6,$7,$8,$9,$2,$3,0*
0 Add four circle primitives for the rounded corners*
1,1,$1+$1,$2,$3*
1,1,$1+$1,$4,$5*
1,1,$1+$1,$6,$7*
1,1,$1+$1,$8,$9*
0 Add four rect primitives between the rounded corners*
20,1,$1+$1,$2,$3,$4,$5,0*
20,1,$1+$1,$4,$5,$6,$7,0*
20,1,$1+$1,$6,$7,$8,$9,0*
20,1,$1+$1,$8,$9,$2,$3,0*%
G04 Aperture macros list end*
%TA.AperFunction,ComponentPad*%
%ADD10R,1.700000X1.700000*%
%TD*%
%TA.AperFunction,ComponentPad*%
%ADD11C,1.700000*%
%TD*%
%TA.AperFunction,ComponentPad*%
%ADD12O,1.100000X1.700000*%
%TD*%
%TA.AperFunction,HeatsinkPad*%
%ADD13O,1.550000X0.890000*%
%TD*%
%TA.AperFunction,HeatsinkPad*%
%ADD14O,0.950000X1.250000*%
%TD*%
%TA.AperFunction,SMDPad,CuDef*%
%ADD15RoundRect,0.200000X-0.200000X-0.275000X0.200000X-0.275000X0.200000X0.275000X-0.200000X0.275000X0*%
%TD*%
%TA.AperFunction,SMDPad,CuDef*%
%ADD16RoundRect,0.200000X0.200000X0.275000X-0.200000X0.275000X-0.200000X-0.275000X0.200000X-0.275000X0*%
%TD*%
%TA.AperFunction,SMDPad,CuDef*%
%ADD17RoundRect,0.225000X-0.250000X0.225000X-0.250000X-0.225000X0.250000X-0.225000X0.250000X0.225000X0*%
%TD*%
%TA.AperFunction,SMDPad,CuDef*%
%ADD18RoundRect,0.200000X-0.275000X0.200000X-0.275000X-0.200000X0.275000X-0.200000X0.275000X0.200000X0*%
%TD*%
%TA.AperFunction,SMDPad,CuDef*%
%ADD19RoundRect,0.225000X0.225000X0.250000X-0.225000X0.250000X-0.225000X-0.250000X0.225000X-0.250000X0*%
%TD*%
%TA.AperFunction,SMDPad,CuDef*%
%ADD20RoundRect,0.225000X0.250000X-0.225000X0.250000X0.225000X-0.250000X0.225000X-0.250000X-0.225000X0*%
%TD*%
%TA.AperFunction,ViaPad*%
%ADD21C,0.700000*%
%TD*%
%TA.AperFunction,Conductor*%
%ADD22C,0.250000*%
%TD*%
G04 APERTURE END LIST*
D10*
%TO.P,J5,1,Pin_1*%
%TO.N,+3.3V*%
X139220000Y-81900000D03*
D11*
%TO.P,J5,2,Pin_2*%
%TO.N,GND*%
X141760000Y-81900000D03*
%TO.P,J5,3,Pin_3*%
%TO.N,/MCU/PB3{slash}4{slash}5{slash}6*%
X144300000Y-81900000D03*
%TO.P,J5,4,Pin_4*%
%TO.N,/MCU/PA8*%
X146840000Y-81900000D03*
%TO.P,J5,5,Pin_5*%
%TO.N,/MCU/PA7*%
X149380000Y-81900000D03*
%TO.P,J5,6,Pin_6*%
%TO.N,/MCU/PC15*%
X151920000Y-81900000D03*
%TO.P,J5,7,Pin_7*%
%TO.N,/MCU/UART_RX*%
X154460000Y-81900000D03*
%TO.P,J5,8,Pin_8*%
%TO.N,/MCU/UART_TX*%
X157000000Y-81900000D03*
%TD*%
D10*
%TO.P,J6,1,Pin_1*%
%TO.N,+3.3V*%
X156860000Y-73912500D03*
D11*
%TO.P,J6,2,Pin_2*%
%TO.N,/MCU/SWCLK*%
X159400000Y-73912500D03*
%TO.P,J6,3,Pin_3*%
%TO.N,unconnected-(J6-Pin_3-Pad3)*%
X161940000Y-73912500D03*
%TD*%
D12*
%TO.P,J1,SH1,SHIELD1*%
%TO.N,GND*%
X150220000Y-27650000D03*
%TO.P,J1,SH2,SHIELD2*%
X141580000Y-27650000D03*
%TO.P,J1,SH3,SHIELD3*%
X150220000Y-31450000D03*
%TO.P,J1,SH4,SHIELD4*%
X141580000Y-31450000D03*
%TD*%
D10*
%TO.P,J11,1,Pin_1*%
%TO.N,/MCU/Tilt_Xri*%
X154570000Y-56350000D03*
D11*
%TO.P,J11,2,Pin_2*%
%TO.N,/MCU/Tilt_Xle*%
X157110000Y-56350000D03*
%TO.P,J11,3,Pin_3*%
%TO.N,/MCU/Tilt_Ydown*%
X159650000Y-56350000D03*
%TO.P,J11,4,Pin_4*%
%TO.N,/MCU/Tilt_Yup*%
X162190000Y-56350000D03*
%TD*%
D10*
%TO.P,J10,1,Pin_1*%
%TO.N,/MCU/SERVO_X*%
X129340000Y-62750000D03*
D11*
%TO.P,J10,2,Pin_2*%
%TO.N,+6V*%
X126800000Y-62750000D03*
%TO.P,J10,3,Pin_3*%
%TO.N,GND*%
X124260000Y-62750000D03*
%TD*%
D13*
%TO.P,J8,6,Shield*%
%TO.N,unconnected-(J8-Shield-Pad6)_2*%
X121750000Y-68550000D03*
D14*
%TO.N,unconnected-(J8-Shield-Pad6)_1*%
X124450000Y-69550000D03*
%TO.N,unconnected-(J8-Shield-Pad6)_4*%
X124450000Y-74550000D03*
D13*
%TO.N,unconnected-(J8-Shield-Pad6)*%
X121750000Y-75550000D03*
%TD*%
D10*
%TO.P,J12,1,Pin_1*%
%TO.N,/MCU/NRST*%
X130600000Y-81240000D03*
D11*
%TO.P,J12,2,Pin_2*%
%TO.N,/MCU/SWCLK*%
X130600000Y-78700000D03*
%TO.P,J12,3,Pin_3*%
%TO.N,/MCU/SWDIO*%
X130600000Y-76160000D03*
%TD*%
D10*
%TO.P,J3,1,Pin_1*%
%TO.N,VBUS_OUT*%
X124600000Y-35700000D03*
D11*
%TO.P,J3,2,Pin_2*%
%TO.N,GND*%
X124600000Y-38240000D03*
%TD*%
D10*
%TO.P,J9,1,Pin_1*%
%TO.N,/MCU/SERVO_Y*%
X140640000Y-62850000D03*
D11*
%TO.P,J9,2,Pin_2*%
%TO.N,+6V*%
X138100000Y-62850000D03*
%TO.P,J9,3,Pin_3*%
%TO.N,GND*%
X135560000Y-62850000D03*
%TD*%
D10*
%TO.P,J4,1,Pin_1*%
%TO.N,Net-(J4-Pin_1)*%
X156400000Y-48625000D03*
D11*
%TO.P,J4,2,Pin_2*%
%TO.N,SERVO_EN*%
X156400000Y-51165000D03*
%TD*%
D10*
%TO.P,J2,1,Pin_1*%
%TO.N,PDC_3.3V*%
X163400000Y-49990000D03*
D11*
%TO.P,J2,2,Pin_2*%
%TO.N,GND*%
X163400000Y-47450000D03*
%TO.P,J2,3,Pin_3*%
%TO.N,/Power/SWD_IO_INT*%
X163400000Y-44910000D03*
%TO.P,J2,4,Pin_4*%
%TO.N,/Power/SWD_CLK*%
X163400000Y-42370000D03*
%TO.P,J2,5,Pin_5*%
%TO.N,/Power/FLIP*%
X163400000Y-39830000D03*
%TO.P,J2,6,Pin_6*%
%TO.N,/Power/HPI_SDA*%
X163400000Y-37290000D03*
%TO.P,J2,7,Pin_7*%
%TO.N,/Power/HPI_SCL*%
X163400000Y-34750000D03*
%TD*%
D15*
%TO.P,R4,1*%
%TO.N,/Power/ISNK_COARSE*%
X150575000Y-48750000D03*
%TO.P,R4,2*%
%TO.N,GND*%
X152225000Y-48750000D03*
%TD*%
D16*
%TO.P,R3,1*%
%TO.N,PDC_3.3V*%
X152250000Y-47000000D03*
%TO.P,R3,2*%
%TO.N,/Power/ISNK_COARSE*%
X150600000Y-47000000D03*
%TD*%
%TO.P,R21,1*%
%TO.N,/Power Conversion/VSENSE*%
X136700000Y-43500000D03*
%TO.P,R21,2*%
%TO.N,GND*%
X135050000Y-43500000D03*
%TD*%
D17*
%TO.P,C2,1*%
%TO.N,/Power/PDC_VCCD*%
X142100000Y-42725000D03*
%TO.P,C2,2*%
%TO.N,GND*%
X142100000Y-44275000D03*
%TD*%
D15*
%TO.P,R2,1*%
%TO.N,/Power/VBUS_MAX*%
X150675000Y-37500000D03*
%TO.P,R2,2*%
%TO.N,GND*%
X152325000Y-37500000D03*
%TD*%
D16*
%TO.P,R5,1*%
%TO.N,PDC_3.3V*%
X152325000Y-39300000D03*
%TO.P,R5,2*%
%TO.N,/Power/VBUS_MIN*%
X150675000Y-39300000D03*
%TD*%
D18*
%TO.P,R19,1*%
%TO.N,Net-(C12-Pad2)*%
X135000000Y-51300000D03*
%TO.P,R19,2*%
%TO.N,GND*%
X135000000Y-52950000D03*
%TD*%
D15*
%TO.P,R10,1*%
%TO.N,PDC_3.3V*%
X159275000Y-37300000D03*
%TO.P,R10,2*%
%TO.N,/Power/HPI_SDA*%
X160925000Y-37300000D03*
%TD*%
D16*
%TO.P,R7,1*%
%TO.N,PDC_3.3V*%
X152300000Y-43550000D03*
%TO.P,R7,2*%
%TO.N,/Power/ISNK_FINE*%
X150650000Y-43550000D03*
%TD*%
D15*
%TO.P,R11,1*%
%TO.N,PDC_3.3V*%
X159275000Y-39850000D03*
%TO.P,R11,2*%
%TO.N,/Power/FLIP*%
X160925000Y-39850000D03*
%TD*%
D19*
%TO.P,C13,1*%
%TO.N,/Power Conversion/BOOT*%
X141425000Y-52700000D03*
%TO.P,C13,2*%
%TO.N,/Power Conversion/PH*%
X139875000Y-52700000D03*
%TD*%
D20*
%TO.P,C4,1*%
%TO.N,PDC_3.3V*%
X142050000Y-40875000D03*
%TO.P,C4,2*%
%TO.N,GND*%
X142050000Y-39325000D03*
%TD*%
D17*
%TO.P,C12,1*%
%TO.N,/Power Conversion/COMP*%
X135000000Y-48025000D03*
%TO.P,C12,2*%
%TO.N,Net-(C12-Pad2)*%
X135000000Y-49575000D03*
%TD*%
D20*
%TO.P,C5,1*%
%TO.N,PDC_3.3V*%
X140250000Y-40875000D03*
%TO.P,C5,2*%
%TO.N,GND*%
X140250000Y-39325000D03*
%TD*%
D15*
%TO.P,R9,1*%
%TO.N,PDC_3.3V*%
X159300000Y-34750000D03*
%TO.P,R9,2*%
%TO.N,/Power/HPI_SCL*%
X160950000Y-34750000D03*
%TD*%
%TO.P,R20,1*%
%TO.N,+6V*%
X135050000Y-45200000D03*
%TO.P,R20,2*%
%TO.N,/Power Conversion/VSENSE*%
X136700000Y-45200000D03*
%TD*%
%TO.P,R23,1*%
%TO.N,/MCU/SWCLK*%
X159375000Y-76512500D03*
%TO.P,R23,2*%
%TO.N,GND*%
X161025000Y-76512500D03*
%TD*%
D20*
%TO.P,C3,1*%
%TO.N,PDC_3.3V*%
X138450000Y-40900000D03*
%TO.P,C3,2*%
%TO.N,GND*%
X138450000Y-39350000D03*
%TD*%
D15*
%TO.P,R12,1*%
%TO.N,PDC_3.3V*%
X159350000Y-44420000D03*
%TO.P,R12,2*%
%TO.N,/Power/SWD_IO_INT*%
X161000000Y-44420000D03*
%TD*%
%TO.P,R8,1*%
%TO.N,/Power/ISNK_FINE*%
X150625000Y-45200000D03*
%TO.P,R8,2*%
%TO.N,GND*%
X152275000Y-45200000D03*
%TD*%
D16*
%TO.P,R1,1*%
%TO.N,PDC_3.3V*%
X152275000Y-35800000D03*
%TO.P,R1,2*%
%TO.N,/Power/VBUS_MAX*%
X150625000Y-35800000D03*
%TD*%
D15*
%TO.P,R6,1*%
%TO.N,/Power/VBUS_MIN*%
X150675000Y-41050000D03*
%TO.P,R6,2*%
%TO.N,GND*%
X152325000Y-41050000D03*
%TD*%
D17*
%TO.P,C10,1*%
%TO.N,/Power Conversion/COMP*%
X136800000Y-48025000D03*
%TO.P,C10,2*%
%TO.N,GND*%
X136800000Y-49575000D03*
%TD*%
D21*
%TO.N,GND*%
X154950000Y-27250000D03*
X162340000Y-63300000D03*
X127100000Y-40900000D03*
X146861808Y-39921170D03*
X125700000Y-73400000D03*
X143350000Y-26400000D03*
X144300000Y-71700000D03*
X124800000Y-40900000D03*
X143000000Y-46300000D03*
X143000000Y-47300000D03*
X143000000Y-48900000D03*
X141800000Y-48900000D03*
X148400000Y-27650000D03*
X143350000Y-38600000D03*
X136400000Y-69800000D03*
X138200000Y-48800000D03*
X144000000Y-55000000D03*
X138450000Y-38250000D03*
X141800000Y-47300000D03*
X141800000Y-46300000D03*
X142050000Y-38250000D03*
X148500000Y-51800000D03*
X146861808Y-41321170D03*
X129300000Y-67100000D03*
X153400000Y-37500000D03*
X157340000Y-63300000D03*
X143060085Y-40498686D03*
X150125000Y-29875000D03*
X153200000Y-41000000D03*
X148400000Y-26400000D03*
X161000000Y-77800000D03*
X153300000Y-48700000D03*
X144000000Y-56700000D03*
X141875000Y-29875000D03*
X147400000Y-71200000D03*
X143000000Y-56700000D03*
X147500000Y-51800000D03*
X153300000Y-45200000D03*
X148875000Y-29875000D03*
X148600000Y-45200000D03*
X143300000Y-43650003D03*
X141800000Y-49900000D03*
X145400000Y-41350000D03*
X123300000Y-73400000D03*
X136800000Y-50700000D03*
X153800000Y-70425000D03*
X145400000Y-39950000D03*
X140250000Y-38250000D03*
X128100000Y-39500000D03*
X133900000Y-43500000D03*
X136200000Y-52900000D03*
X143000000Y-55000000D03*
X157400000Y-40900000D03*
X143350000Y-27650000D03*
X143000000Y-49900000D03*
X143125000Y-29875000D03*
X151800000Y-30300000D03*
X149300000Y-61075000D03*
X155200000Y-45100000D03*
%TO.N,VBUS_IN*%
X147325000Y-29975000D03*
X131100000Y-33100000D03*
X146325000Y-29975000D03*
X144450000Y-29975000D03*
X144380000Y-33100000D03*
X131100000Y-34300000D03*
X131600000Y-32100000D03*
X132100000Y-28500000D03*
X145450000Y-29975000D03*
X147400000Y-32900000D03*
X132000000Y-30600000D03*
X132800000Y-32100000D03*
%TO.N,/Power/PDC_VCCD*%
X143300000Y-42750000D03*
%TO.N,PDC_3.3V*%
X158200000Y-37300000D03*
X153400000Y-39300000D03*
X158200000Y-39800000D03*
X158300000Y-44400000D03*
X158200000Y-34700000D03*
X153400000Y-35800000D03*
X143000000Y-41500000D03*
X153300000Y-47000000D03*
X153400000Y-44000000D03*
%TO.N,+6V*%
X130300000Y-45200000D03*
%TO.N,/MCU/NRST*%
X143300000Y-71100000D03*
X132800000Y-80900000D03*
%TO.N,+3.3V*%
X135000000Y-67225000D03*
X147300000Y-61075000D03*
X136450000Y-67925000D03*
X132950000Y-67225000D03*
X143900000Y-73100000D03*
%TO.N,/Power/USB_CC2*%
X145700000Y-33100000D03*
X147075000Y-34150000D03*
%TO.N,/Power/SWD_IO_INT*%
X153600000Y-43100000D03*
%TO.N,/Power/HPI_SDA*%
X148500000Y-37700000D03*
%TO.N,/Power/HPI_SCL*%
X147600000Y-36500000D03*
%TO.N,/Power/SWD_CLK*%
X157900000Y-42900000D03*
X150000000Y-42300000D03*
%TO.N,/Power/FLIP*%
X153900000Y-38400000D03*
%TO.N,/MCU/SWCLK*%
X141500000Y-73400000D03*
%TO.N,/MCU/Tilt_Xle*%
X147200000Y-67900000D03*
%TO.N,/MCU/Tilt_Yup*%
X144400000Y-70200000D03*
%TO.N,/MCU/Tilt_Ydown*%
X147400000Y-69000000D03*
%TO.N,/Power/VBUS_FET_EN*%
X139200000Y-45100000D03*
X147100000Y-45100000D03*
%TO.N,/Power/VBUS_MAX*%
X145487757Y-43867179D03*
%TO.N,/Power/ISNK_COARSE*%
X149404986Y-44797507D03*
%TO.N,/Power/VBUS_MIN*%
X144600000Y-44400000D03*
%TO.N,/Power/ISNK_FINE*%
X149500000Y-43800000D03*
%TO.N,/MCU/SERVO_X*%
X138600000Y-68800000D03*
%TO.N,SERVO_EN*%
X141500000Y-69100000D03*
%TO.N,/MCU/Tilt_Xri*%
X145800000Y-67000000D03*
%TO.N,/Power Conversion/COMP*%
X138100000Y-47600000D03*
%TO.N,VBUS_OUT*%
X149125000Y-39560367D03*
X146600000Y-48100000D03*
X146600000Y-48900000D03*
X147400000Y-47500000D03*
X148400000Y-47500000D03*
X133300000Y-38300000D03*
%TO.N,/Power Conversion/PH*%
X139800000Y-51400000D03*
%TO.N,/Power Conversion/BOOT*%
X144900000Y-51500000D03*
%TO.N,/Power Conversion/VSENSE*%
X137700000Y-46200000D03*
%TO.N,Net-(J4-Pin_1)*%
X146375000Y-46920000D03*
X149400000Y-47600000D03*
%TD*%
D22*
%TO.N,GND*%
X161025000Y-76512500D02*
X161025000Y-77775000D01*
X152225000Y-48750000D02*
X153250000Y-48750000D01*
X135050000Y-43500000D02*
X133900000Y-43500000D01*
X152275000Y-45200000D02*
X153300000Y-45200000D01*
X152325000Y-41050000D02*
X153150000Y-41050000D01*
X136150000Y-52950000D02*
X136200000Y-52900000D01*
X153250000Y-48750000D02*
X153300000Y-48700000D01*
X142100000Y-44275000D02*
X142675003Y-44275000D01*
X135000000Y-52950000D02*
X136150000Y-52950000D01*
X142675003Y-44275000D02*
X143300000Y-43650003D01*
X142050000Y-39325000D02*
X142050000Y-38250000D01*
X161025000Y-77775000D02*
X161000000Y-77800000D01*
X152325000Y-37500000D02*
X153400000Y-37500000D01*
X153150000Y-41050000D02*
X153200000Y-41000000D01*
X136800000Y-49575000D02*
X136800000Y-50700000D01*
X138450000Y-39350000D02*
X138450000Y-38250000D01*
X140250000Y-39325000D02*
X140250000Y-38250000D01*
%TO.N,/Power/PDC_VCCD*%
X143300000Y-42750000D02*
X142125000Y-42750000D01*
X142125000Y-42750000D02*
X142100000Y-42725000D01*
%TO.N,PDC_3.3V*%
X138475000Y-40875000D02*
X138450000Y-40900000D01*
X158250000Y-39850000D02*
X158200000Y-39800000D01*
X158350000Y-34750000D02*
X159300000Y-34750000D01*
X143000000Y-41500000D02*
X142675000Y-41500000D01*
X152950000Y-43550000D02*
X153400000Y-44000000D01*
X158300000Y-34700000D02*
X158350000Y-34750000D01*
X142675000Y-41500000D02*
X142050000Y-40875000D01*
X152275000Y-35800000D02*
X153400000Y-35800000D01*
X152300000Y-43550000D02*
X152950000Y-43550000D01*
X158320000Y-44420000D02*
X158300000Y-44400000D01*
X159275000Y-39850000D02*
X158250000Y-39850000D01*
X152325000Y-39300000D02*
X153400000Y-39300000D01*
X159275000Y-37300000D02*
X158200000Y-37300000D01*
X158200000Y-34700000D02*
X158300000Y-34700000D01*
X159350000Y-44420000D02*
X158320000Y-44420000D01*
X142050000Y-40875000D02*
X138475000Y-40875000D01*
X152250000Y-47000000D02*
X153300000Y-47000000D01*
%TO.N,+6V*%
X135050000Y-45200000D02*
X130300000Y-45200000D01*
%TO.N,/MCU/NRST*%
X133000000Y-80900000D02*
X132800000Y-80900000D01*
X142800000Y-71100000D02*
X143300000Y-71100000D01*
X142800000Y-71100000D02*
X133000000Y-80900000D01*
%TO.N,/Power/USB_CC2*%
X145700000Y-33100000D02*
X145950000Y-33100000D01*
X147000000Y-34150000D02*
X147075000Y-34150000D01*
X145950000Y-33100000D02*
X147000000Y-34150000D01*
%TO.N,/Power/SWD_IO_INT*%
X160199000Y-43619000D02*
X154575009Y-43619000D01*
X161000000Y-44420000D02*
X160199000Y-43619000D01*
X154056009Y-43100000D02*
X153600000Y-43100000D01*
X162910000Y-44420000D02*
X163400000Y-44910000D01*
X161000000Y-44420000D02*
X162910000Y-44420000D01*
X154575009Y-43619000D02*
X154056009Y-43100000D01*
%TO.N,/Power/HPI_SDA*%
X154056009Y-35500000D02*
X153555009Y-34999000D01*
X160499418Y-37300000D02*
X158699418Y-35500000D01*
X160925000Y-37300000D02*
X163390000Y-37300000D01*
X150201582Y-34999000D02*
X148500000Y-36700582D01*
X148500000Y-36700582D02*
X148500000Y-37700000D01*
X158699418Y-35500000D02*
X154056009Y-35500000D01*
X163390000Y-37300000D02*
X163400000Y-37290000D01*
X160925000Y-37300000D02*
X160499418Y-37300000D01*
X153555009Y-34999000D02*
X150201582Y-34999000D01*
%TO.N,/Power/HPI_SCL*%
X160950000Y-34750000D02*
X163400000Y-34750000D01*
X160149000Y-33949000D02*
X150151000Y-33949000D01*
X160950000Y-34750000D02*
X160149000Y-33949000D01*
X150151000Y-33949000D02*
X147600000Y-36500000D01*
%TO.N,/Power/SWD_CLK*%
X157900000Y-42900000D02*
X157300000Y-42300000D01*
X157300000Y-42300000D02*
X150000000Y-42300000D01*
%TO.N,/Power/FLIP*%
X159475000Y-38400000D02*
X153900000Y-38400000D01*
X160925000Y-39850000D02*
X159475000Y-38400000D01*
X160925000Y-39850000D02*
X163380000Y-39850000D01*
X163380000Y-39850000D02*
X163400000Y-39830000D01*
%TO.N,/MCU/SWCLK*%
X142476000Y-72424000D02*
X157911500Y-72424000D01*
X159400000Y-76487500D02*
X159375000Y-76512500D01*
X141500000Y-73400000D02*
X142476000Y-72424000D01*
X157911500Y-72424000D02*
X159400000Y-73912500D01*
X159400000Y-73912500D02*
X159400000Y-76487500D01*
%TO.N,/MCU/Tilt_Xle*%
X147200000Y-67000000D02*
X157110000Y-57090000D01*
X157110000Y-57090000D02*
X157110000Y-56350000D01*
X147200000Y-67900000D02*
X147200000Y-67000000D01*
%TO.N,/MCU/Tilt_Yup*%
X144400000Y-70200000D02*
X144876000Y-69724000D01*
X162050000Y-56350000D02*
X162190000Y-56350000D01*
X148676000Y-69724000D02*
X162050000Y-56350000D01*
X144876000Y-69724000D02*
X148676000Y-69724000D01*
%TO.N,/MCU/Tilt_Ydown*%
X147400000Y-69000000D02*
X159650000Y-56750000D01*
X159650000Y-56750000D02*
X159650000Y-56350000D01*
%TO.N,/Power/VBUS_FET_EN*%
X139200000Y-45100000D02*
X147100000Y-45100000D01*
%TO.N,/Power/VBUS_MAX*%
X150625000Y-37450000D02*
X150675000Y-37500000D01*
X149800000Y-38375000D02*
X150675000Y-37500000D01*
X145487757Y-43867179D02*
X145488757Y-43866179D01*
X150625000Y-35800000D02*
X150625000Y-37450000D01*
X149800000Y-40256009D02*
X149800000Y-38375000D01*
X146189830Y-43866179D02*
X149800000Y-40256009D01*
X145488757Y-43866179D02*
X146189830Y-43866179D01*
%TO.N,/Power/ISNK_COARSE*%
X150575000Y-48750000D02*
X150575000Y-47025000D01*
X149404986Y-44797507D02*
X149404986Y-45804986D01*
X149404986Y-45804986D02*
X150600000Y-47000000D01*
X150575000Y-47025000D02*
X150600000Y-47000000D01*
%TO.N,/Power/VBUS_MIN*%
X150675000Y-41050000D02*
X150193991Y-41050000D01*
X144742179Y-44542179D02*
X144600000Y-44400000D01*
X150675000Y-39300000D02*
X150675000Y-41050000D01*
X150193991Y-41050000D02*
X146701812Y-44542179D01*
X146701812Y-44542179D02*
X144742179Y-44542179D01*
%TO.N,/Power/ISNK_FINE*%
X150650000Y-45175000D02*
X150625000Y-45200000D01*
X150650000Y-43550000D02*
X150650000Y-45175000D01*
X149750000Y-43550000D02*
X149500000Y-43800000D01*
X150650000Y-43550000D02*
X149750000Y-43550000D01*
%TO.N,/MCU/SERVO_X*%
X138600000Y-68800000D02*
X135543991Y-68800000D01*
X130140000Y-63396009D02*
X129986009Y-63396009D01*
X135543991Y-68800000D02*
X130140000Y-63396009D01*
X129986009Y-63396009D02*
X129340000Y-62750000D01*
%TO.N,SERVO_EN*%
X156135000Y-51165000D02*
X156400000Y-51165000D01*
X141500000Y-65800000D02*
X156135000Y-51165000D01*
X141500000Y-69100000D02*
X141500000Y-65800000D01*
%TO.N,/MCU/Tilt_Xri*%
X154570000Y-58230000D02*
X154570000Y-56350000D01*
X145800000Y-67000000D02*
X154570000Y-58230000D01*
%TO.N,/Power Conversion/COMP*%
X137675000Y-48025000D02*
X138100000Y-47600000D01*
X135000000Y-48025000D02*
X136800000Y-48025000D01*
X136800000Y-48025000D02*
X137675000Y-48025000D01*
%TO.N,VBUS_OUT*%
X146500000Y-37400000D02*
X148409616Y-39309616D01*
X135200000Y-37400000D02*
X146500000Y-37400000D01*
X148874249Y-39309616D02*
X149125000Y-39560367D01*
X148409616Y-39309616D02*
X148874249Y-39309616D01*
X134300000Y-38300000D02*
X135200000Y-37400000D01*
X133300000Y-38300000D02*
X134300000Y-38300000D01*
%TO.N,/Power Conversion/PH*%
X139875000Y-52700000D02*
X139875000Y-51475000D01*
X139875000Y-51475000D02*
X139800000Y-51400000D01*
%TO.N,/Power Conversion/BOOT*%
X141425000Y-52700000D02*
X143700000Y-52700000D01*
X143700000Y-52700000D02*
X144900000Y-51500000D01*
%TO.N,/Power Conversion/VSENSE*%
X136700000Y-45200000D02*
X137700000Y-46200000D01*
X136700000Y-43500000D02*
X136700000Y-45200000D01*
%TO.N,Net-(C12-Pad2)*%
X135000000Y-49575000D02*
X135000000Y-51300000D01*
%TO.N,Net-(J4-Pin_1)*%
X148680009Y-46824000D02*
X146471000Y-46824000D01*
X149400000Y-47600000D02*
X149400000Y-47543991D01*
X149400000Y-47543991D02*
X148680009Y-46824000D01*
X146471000Y-46824000D02*
X146375000Y-46920000D01*
%TD*%
M02*
