%TF.GenerationSoftware,KiCad,Pcbnew,9.0.6*%
%TF.CreationDate,2026-05-04T22:58:46-07:00*%
%TF.ProjectId,Tilt_Table_PCB_Rev2,54696c74-5f54-4616-926c-655f5043425f,rev?*%
%TF.SameCoordinates,Original*%
%TF.FileFunction,Legend,Bot*%
%TF.FilePolarity,Positive*%
%FSLAX46Y46*%
G04 Gerber Fmt 4.6, Leading zero omitted, Abs format (unit mm)*
G04 Created by KiCad (PCBNEW 9.0.6) date 2026-05-04 22:58:46*
%MOMM*%
%LPD*%
G01*
G04 APERTURE LIST*
G04 Aperture macros list*
%AMRoundRect*
0 Rectangle with rounded corners*
0 $1 Rounding radius*
0 $2 $3 $4 $5 $6 $7 $8 $9 X,Y pos of 4 corners*
0 Add a 4 corners polygon primitive as box body*
4,1,4,$2,$3,$4,$5,$6,$7,$8,$9,$2,$3,0*
0 Add four circle primitives for the rounded corners*
1,1,$1+$1,$2,$3*
1,1,$1+$1,$4,$5*
1,1,$1+$1,$6,$7*
1,1,$1+$1,$8,$9*
0 Add four rect primitives between the rounded corners*
20,1,$1+$1,$2,$3,$4,$5,0*
20,1,$1+$1,$4,$5,$6,$7,0*
20,1,$1+$1,$6,$7,$8,$9,0*
20,1,$1+$1,$8,$9,$2,$3,0*%
G04 Aperture macros list end*
%ADD10C,0.150000*%
%ADD11C,0.120000*%
%ADD12R,1.700000X1.700000*%
%ADD13C,1.700000*%
%ADD14O,1.252400X1.852400*%
%ADD15C,3.200000*%
%ADD16O,1.550000X0.890000*%
%ADD17O,0.950000X1.250000*%
%ADD18RoundRect,0.200000X-0.200000X-0.275000X0.200000X-0.275000X0.200000X0.275000X-0.200000X0.275000X0*%
%ADD19RoundRect,0.200000X0.200000X0.275000X-0.200000X0.275000X-0.200000X-0.275000X0.200000X-0.275000X0*%
%ADD20RoundRect,0.225000X-0.250000X0.225000X-0.250000X-0.225000X0.250000X-0.225000X0.250000X0.225000X0*%
%ADD21RoundRect,0.200000X-0.275000X0.200000X-0.275000X-0.200000X0.275000X-0.200000X0.275000X0.200000X0*%
%ADD22RoundRect,0.225000X0.225000X0.250000X-0.225000X0.250000X-0.225000X-0.250000X0.225000X-0.250000X0*%
%ADD23RoundRect,0.225000X0.250000X-0.225000X0.250000X0.225000X-0.250000X0.225000X-0.250000X-0.225000X0*%
G04 APERTURE END LIST*
D10*
X153945180Y-80066666D02*
X154421371Y-80399999D01*
X153945180Y-80638094D02*
X154945180Y-80638094D01*
X154945180Y-80638094D02*
X154945180Y-80257142D01*
X154945180Y-80257142D02*
X154897561Y-80161904D01*
X154897561Y-80161904D02*
X154849942Y-80114285D01*
X154849942Y-80114285D02*
X154754704Y-80066666D01*
X154754704Y-80066666D02*
X154611847Y-80066666D01*
X154611847Y-80066666D02*
X154516609Y-80114285D01*
X154516609Y-80114285D02*
X154468990Y-80161904D01*
X154468990Y-80161904D02*
X154421371Y-80257142D01*
X154421371Y-80257142D02*
X154421371Y-80638094D01*
X154945180Y-79733332D02*
X153945180Y-79066666D01*
X154945180Y-79066666D02*
X153945180Y-79733332D01*
X129263220Y-81669819D02*
X129263220Y-80669819D01*
X129263220Y-80669819D02*
X128691792Y-81669819D01*
X128691792Y-81669819D02*
X128691792Y-80669819D01*
X127644173Y-81669819D02*
X127977506Y-81193628D01*
X128215601Y-81669819D02*
X128215601Y-80669819D01*
X128215601Y-80669819D02*
X127834649Y-80669819D01*
X127834649Y-80669819D02*
X127739411Y-80717438D01*
X127739411Y-80717438D02*
X127691792Y-80765057D01*
X127691792Y-80765057D02*
X127644173Y-80860295D01*
X127644173Y-80860295D02*
X127644173Y-81003152D01*
X127644173Y-81003152D02*
X127691792Y-81098390D01*
X127691792Y-81098390D02*
X127739411Y-81146009D01*
X127739411Y-81146009D02*
X127834649Y-81193628D01*
X127834649Y-81193628D02*
X128215601Y-81193628D01*
X127263220Y-81622200D02*
X127120363Y-81669819D01*
X127120363Y-81669819D02*
X126882268Y-81669819D01*
X126882268Y-81669819D02*
X126787030Y-81622200D01*
X126787030Y-81622200D02*
X126739411Y-81574580D01*
X126739411Y-81574580D02*
X126691792Y-81479342D01*
X126691792Y-81479342D02*
X126691792Y-81384104D01*
X126691792Y-81384104D02*
X126739411Y-81288866D01*
X126739411Y-81288866D02*
X126787030Y-81241247D01*
X126787030Y-81241247D02*
X126882268Y-81193628D01*
X126882268Y-81193628D02*
X127072744Y-81146009D01*
X127072744Y-81146009D02*
X127167982Y-81098390D01*
X127167982Y-81098390D02*
X127215601Y-81050771D01*
X127215601Y-81050771D02*
X127263220Y-80955533D01*
X127263220Y-80955533D02*
X127263220Y-80860295D01*
X127263220Y-80860295D02*
X127215601Y-80765057D01*
X127215601Y-80765057D02*
X127167982Y-80717438D01*
X127167982Y-80717438D02*
X127072744Y-80669819D01*
X127072744Y-80669819D02*
X126834649Y-80669819D01*
X126834649Y-80669819D02*
X126691792Y-80717438D01*
X126406077Y-80669819D02*
X125834649Y-80669819D01*
X126120363Y-81669819D02*
X126120363Y-80669819D01*
X157745180Y-59623809D02*
X156745180Y-58957143D01*
X157745180Y-58957143D02*
X156745180Y-59623809D01*
X156745180Y-58433333D02*
X156792800Y-58528571D01*
X156792800Y-58528571D02*
X156888038Y-58576190D01*
X156888038Y-58576190D02*
X157745180Y-58576190D01*
X156792800Y-57671428D02*
X156745180Y-57766666D01*
X156745180Y-57766666D02*
X156745180Y-57957142D01*
X156745180Y-57957142D02*
X156792800Y-58052380D01*
X156792800Y-58052380D02*
X156888038Y-58099999D01*
X156888038Y-58099999D02*
X157268990Y-58099999D01*
X157268990Y-58099999D02*
X157364228Y-58052380D01*
X157364228Y-58052380D02*
X157411847Y-57957142D01*
X157411847Y-57957142D02*
X157411847Y-57766666D01*
X157411847Y-57766666D02*
X157364228Y-57671428D01*
X157364228Y-57671428D02*
X157268990Y-57623809D01*
X157268990Y-57623809D02*
X157173752Y-57623809D01*
X157173752Y-57623809D02*
X157078514Y-58099999D01*
X157445180Y-80661904D02*
X157445180Y-80090476D01*
X156445180Y-80376190D02*
X157445180Y-80376190D01*
X157445180Y-79852380D02*
X156445180Y-79185714D01*
X157445180Y-79185714D02*
X156445180Y-79852380D01*
X140277800Y-61410839D02*
X140230180Y-61267982D01*
X140230180Y-61267982D02*
X140230180Y-61029887D01*
X140230180Y-61029887D02*
X140277800Y-60934649D01*
X140277800Y-60934649D02*
X140325419Y-60887030D01*
X140325419Y-60887030D02*
X140420657Y-60839411D01*
X140420657Y-60839411D02*
X140515895Y-60839411D01*
X140515895Y-60839411D02*
X140611133Y-60887030D01*
X140611133Y-60887030D02*
X140658752Y-60934649D01*
X140658752Y-60934649D02*
X140706371Y-61029887D01*
X140706371Y-61029887D02*
X140753990Y-61220363D01*
X140753990Y-61220363D02*
X140801609Y-61315601D01*
X140801609Y-61315601D02*
X140849228Y-61363220D01*
X140849228Y-61363220D02*
X140944466Y-61410839D01*
X140944466Y-61410839D02*
X141039704Y-61410839D01*
X141039704Y-61410839D02*
X141134942Y-61363220D01*
X141134942Y-61363220D02*
X141182561Y-61315601D01*
X141182561Y-61315601D02*
X141230180Y-61220363D01*
X141230180Y-61220363D02*
X141230180Y-60982268D01*
X141230180Y-60982268D02*
X141182561Y-60839411D01*
X140753990Y-60410839D02*
X140753990Y-60077506D01*
X140230180Y-59934649D02*
X140230180Y-60410839D01*
X140230180Y-60410839D02*
X141230180Y-60410839D01*
X141230180Y-60410839D02*
X141230180Y-59934649D01*
X140230180Y-58934649D02*
X140706371Y-59267982D01*
X140230180Y-59506077D02*
X141230180Y-59506077D01*
X141230180Y-59506077D02*
X141230180Y-59125125D01*
X141230180Y-59125125D02*
X141182561Y-59029887D01*
X141182561Y-59029887D02*
X141134942Y-58982268D01*
X141134942Y-58982268D02*
X141039704Y-58934649D01*
X141039704Y-58934649D02*
X140896847Y-58934649D01*
X140896847Y-58934649D02*
X140801609Y-58982268D01*
X140801609Y-58982268D02*
X140753990Y-59029887D01*
X140753990Y-59029887D02*
X140706371Y-59125125D01*
X140706371Y-59125125D02*
X140706371Y-59506077D01*
X141230180Y-58648934D02*
X140230180Y-58315601D01*
X140230180Y-58315601D02*
X141230180Y-57982268D01*
X141230180Y-57458458D02*
X141230180Y-57267982D01*
X141230180Y-57267982D02*
X141182561Y-57172744D01*
X141182561Y-57172744D02*
X141087323Y-57077506D01*
X141087323Y-57077506D02*
X140896847Y-57029887D01*
X140896847Y-57029887D02*
X140563514Y-57029887D01*
X140563514Y-57029887D02*
X140373038Y-57077506D01*
X140373038Y-57077506D02*
X140277800Y-57172744D01*
X140277800Y-57172744D02*
X140230180Y-57267982D01*
X140230180Y-57267982D02*
X140230180Y-57458458D01*
X140230180Y-57458458D02*
X140277800Y-57553696D01*
X140277800Y-57553696D02*
X140373038Y-57648934D01*
X140373038Y-57648934D02*
X140563514Y-57696553D01*
X140563514Y-57696553D02*
X140896847Y-57696553D01*
X140896847Y-57696553D02*
X141087323Y-57648934D01*
X141087323Y-57648934D02*
X141182561Y-57553696D01*
X141182561Y-57553696D02*
X141230180Y-57458458D01*
X140134942Y-56839411D02*
X140134942Y-56077506D01*
X140706371Y-55648934D02*
X140230180Y-55648934D01*
X141230180Y-55982267D02*
X140706371Y-55648934D01*
X140706371Y-55648934D02*
X141230180Y-55315601D01*
X135982561Y-60839411D02*
X136030180Y-60934649D01*
X136030180Y-60934649D02*
X136030180Y-61077506D01*
X136030180Y-61077506D02*
X135982561Y-61220363D01*
X135982561Y-61220363D02*
X135887323Y-61315601D01*
X135887323Y-61315601D02*
X135792085Y-61363220D01*
X135792085Y-61363220D02*
X135601609Y-61410839D01*
X135601609Y-61410839D02*
X135458752Y-61410839D01*
X135458752Y-61410839D02*
X135268276Y-61363220D01*
X135268276Y-61363220D02*
X135173038Y-61315601D01*
X135173038Y-61315601D02*
X135077800Y-61220363D01*
X135077800Y-61220363D02*
X135030180Y-61077506D01*
X135030180Y-61077506D02*
X135030180Y-60982268D01*
X135030180Y-60982268D02*
X135077800Y-60839411D01*
X135077800Y-60839411D02*
X135125419Y-60791792D01*
X135125419Y-60791792D02*
X135458752Y-60791792D01*
X135458752Y-60791792D02*
X135458752Y-60982268D01*
X135030180Y-60363220D02*
X136030180Y-60363220D01*
X136030180Y-60363220D02*
X135030180Y-59791792D01*
X135030180Y-59791792D02*
X136030180Y-59791792D01*
X135030180Y-59315601D02*
X136030180Y-59315601D01*
X136030180Y-59315601D02*
X136030180Y-59077506D01*
X136030180Y-59077506D02*
X135982561Y-58934649D01*
X135982561Y-58934649D02*
X135887323Y-58839411D01*
X135887323Y-58839411D02*
X135792085Y-58791792D01*
X135792085Y-58791792D02*
X135601609Y-58744173D01*
X135601609Y-58744173D02*
X135458752Y-58744173D01*
X135458752Y-58744173D02*
X135268276Y-58791792D01*
X135268276Y-58791792D02*
X135173038Y-58839411D01*
X135173038Y-58839411D02*
X135077800Y-58934649D01*
X135077800Y-58934649D02*
X135030180Y-59077506D01*
X135030180Y-59077506D02*
X135030180Y-59315601D01*
X148845180Y-80666666D02*
X149845180Y-80666666D01*
X149845180Y-80666666D02*
X149845180Y-80285714D01*
X149845180Y-80285714D02*
X149797561Y-80190476D01*
X149797561Y-80190476D02*
X149749942Y-80142857D01*
X149749942Y-80142857D02*
X149654704Y-80095238D01*
X149654704Y-80095238D02*
X149511847Y-80095238D01*
X149511847Y-80095238D02*
X149416609Y-80142857D01*
X149416609Y-80142857D02*
X149368990Y-80190476D01*
X149368990Y-80190476D02*
X149321371Y-80285714D01*
X149321371Y-80285714D02*
X149321371Y-80666666D01*
X149130895Y-79714285D02*
X149130895Y-79238095D01*
X148845180Y-79809523D02*
X149845180Y-79476190D01*
X149845180Y-79476190D02*
X148845180Y-79142857D01*
X149845180Y-78904761D02*
X149845180Y-78238095D01*
X149845180Y-78238095D02*
X148845180Y-78666666D01*
X155145180Y-59580951D02*
X154145180Y-58914285D01*
X155145180Y-58914285D02*
X154145180Y-59580951D01*
X154145180Y-58533332D02*
X154811847Y-58533332D01*
X154621371Y-58533332D02*
X154716609Y-58485713D01*
X154716609Y-58485713D02*
X154764228Y-58438094D01*
X154764228Y-58438094D02*
X154811847Y-58342856D01*
X154811847Y-58342856D02*
X154811847Y-58247618D01*
X154145180Y-57914284D02*
X154811847Y-57914284D01*
X155145180Y-57914284D02*
X155097561Y-57961903D01*
X155097561Y-57961903D02*
X155049942Y-57914284D01*
X155049942Y-57914284D02*
X155097561Y-57866665D01*
X155097561Y-57866665D02*
X155145180Y-57914284D01*
X155145180Y-57914284D02*
X155049942Y-57914284D01*
X138011133Y-61263220D02*
X138011133Y-60501316D01*
X137630180Y-60882268D02*
X138392085Y-60882268D01*
X138630180Y-59596554D02*
X138630180Y-59787030D01*
X138630180Y-59787030D02*
X138582561Y-59882268D01*
X138582561Y-59882268D02*
X138534942Y-59929887D01*
X138534942Y-59929887D02*
X138392085Y-60025125D01*
X138392085Y-60025125D02*
X138201609Y-60072744D01*
X138201609Y-60072744D02*
X137820657Y-60072744D01*
X137820657Y-60072744D02*
X137725419Y-60025125D01*
X137725419Y-60025125D02*
X137677800Y-59977506D01*
X137677800Y-59977506D02*
X137630180Y-59882268D01*
X137630180Y-59882268D02*
X137630180Y-59691792D01*
X137630180Y-59691792D02*
X137677800Y-59596554D01*
X137677800Y-59596554D02*
X137725419Y-59548935D01*
X137725419Y-59548935D02*
X137820657Y-59501316D01*
X137820657Y-59501316D02*
X138058752Y-59501316D01*
X138058752Y-59501316D02*
X138153990Y-59548935D01*
X138153990Y-59548935D02*
X138201609Y-59596554D01*
X138201609Y-59596554D02*
X138249228Y-59691792D01*
X138249228Y-59691792D02*
X138249228Y-59882268D01*
X138249228Y-59882268D02*
X138201609Y-59977506D01*
X138201609Y-59977506D02*
X138153990Y-60025125D01*
X138153990Y-60025125D02*
X138058752Y-60072744D01*
X138630180Y-59215601D02*
X137630180Y-58882268D01*
X137630180Y-58882268D02*
X138630180Y-58548935D01*
X127939411Y-37817438D02*
X128034649Y-37769819D01*
X128034649Y-37769819D02*
X128177506Y-37769819D01*
X128177506Y-37769819D02*
X128320363Y-37817438D01*
X128320363Y-37817438D02*
X128415601Y-37912676D01*
X128415601Y-37912676D02*
X128463220Y-38007914D01*
X128463220Y-38007914D02*
X128510839Y-38198390D01*
X128510839Y-38198390D02*
X128510839Y-38341247D01*
X128510839Y-38341247D02*
X128463220Y-38531723D01*
X128463220Y-38531723D02*
X128415601Y-38626961D01*
X128415601Y-38626961D02*
X128320363Y-38722200D01*
X128320363Y-38722200D02*
X128177506Y-38769819D01*
X128177506Y-38769819D02*
X128082268Y-38769819D01*
X128082268Y-38769819D02*
X127939411Y-38722200D01*
X127939411Y-38722200D02*
X127891792Y-38674580D01*
X127891792Y-38674580D02*
X127891792Y-38341247D01*
X127891792Y-38341247D02*
X128082268Y-38341247D01*
X127463220Y-38769819D02*
X127463220Y-37769819D01*
X127463220Y-37769819D02*
X126891792Y-38769819D01*
X126891792Y-38769819D02*
X126891792Y-37769819D01*
X126415601Y-38769819D02*
X126415601Y-37769819D01*
X126415601Y-37769819D02*
X126177506Y-37769819D01*
X126177506Y-37769819D02*
X126034649Y-37817438D01*
X126034649Y-37817438D02*
X125939411Y-37912676D01*
X125939411Y-37912676D02*
X125891792Y-38007914D01*
X125891792Y-38007914D02*
X125844173Y-38198390D01*
X125844173Y-38198390D02*
X125844173Y-38341247D01*
X125844173Y-38341247D02*
X125891792Y-38531723D01*
X125891792Y-38531723D02*
X125939411Y-38626961D01*
X125939411Y-38626961D02*
X126034649Y-38722200D01*
X126034649Y-38722200D02*
X126177506Y-38769819D01*
X126177506Y-38769819D02*
X126415601Y-38769819D01*
X139745180Y-80676189D02*
X139745180Y-80057142D01*
X139745180Y-80057142D02*
X139364228Y-80390475D01*
X139364228Y-80390475D02*
X139364228Y-80247618D01*
X139364228Y-80247618D02*
X139316609Y-80152380D01*
X139316609Y-80152380D02*
X139268990Y-80104761D01*
X139268990Y-80104761D02*
X139173752Y-80057142D01*
X139173752Y-80057142D02*
X138935657Y-80057142D01*
X138935657Y-80057142D02*
X138840419Y-80104761D01*
X138840419Y-80104761D02*
X138792800Y-80152380D01*
X138792800Y-80152380D02*
X138745180Y-80247618D01*
X138745180Y-80247618D02*
X138745180Y-80533332D01*
X138745180Y-80533332D02*
X138792800Y-80628570D01*
X138792800Y-80628570D02*
X138840419Y-80676189D01*
X138840419Y-79628570D02*
X138792800Y-79580951D01*
X138792800Y-79580951D02*
X138745180Y-79628570D01*
X138745180Y-79628570D02*
X138792800Y-79676189D01*
X138792800Y-79676189D02*
X138840419Y-79628570D01*
X138840419Y-79628570D02*
X138745180Y-79628570D01*
X139745180Y-79247618D02*
X139745180Y-78628571D01*
X139745180Y-78628571D02*
X139364228Y-78961904D01*
X139364228Y-78961904D02*
X139364228Y-78819047D01*
X139364228Y-78819047D02*
X139316609Y-78723809D01*
X139316609Y-78723809D02*
X139268990Y-78676190D01*
X139268990Y-78676190D02*
X139173752Y-78628571D01*
X139173752Y-78628571D02*
X138935657Y-78628571D01*
X138935657Y-78628571D02*
X138840419Y-78676190D01*
X138840419Y-78676190D02*
X138792800Y-78723809D01*
X138792800Y-78723809D02*
X138745180Y-78819047D01*
X138745180Y-78819047D02*
X138745180Y-79104761D01*
X138745180Y-79104761D02*
X138792800Y-79199999D01*
X138792800Y-79199999D02*
X138840419Y-79247618D01*
X139745180Y-78342856D02*
X138745180Y-78009523D01*
X138745180Y-78009523D02*
X139745180Y-77676190D01*
X129310839Y-76522200D02*
X129167982Y-76569819D01*
X129167982Y-76569819D02*
X128929887Y-76569819D01*
X128929887Y-76569819D02*
X128834649Y-76522200D01*
X128834649Y-76522200D02*
X128787030Y-76474580D01*
X128787030Y-76474580D02*
X128739411Y-76379342D01*
X128739411Y-76379342D02*
X128739411Y-76284104D01*
X128739411Y-76284104D02*
X128787030Y-76188866D01*
X128787030Y-76188866D02*
X128834649Y-76141247D01*
X128834649Y-76141247D02*
X128929887Y-76093628D01*
X128929887Y-76093628D02*
X129120363Y-76046009D01*
X129120363Y-76046009D02*
X129215601Y-75998390D01*
X129215601Y-75998390D02*
X129263220Y-75950771D01*
X129263220Y-75950771D02*
X129310839Y-75855533D01*
X129310839Y-75855533D02*
X129310839Y-75760295D01*
X129310839Y-75760295D02*
X129263220Y-75665057D01*
X129263220Y-75665057D02*
X129215601Y-75617438D01*
X129215601Y-75617438D02*
X129120363Y-75569819D01*
X129120363Y-75569819D02*
X128882268Y-75569819D01*
X128882268Y-75569819D02*
X128739411Y-75617438D01*
X128406077Y-75569819D02*
X128167982Y-76569819D01*
X128167982Y-76569819D02*
X127977506Y-75855533D01*
X127977506Y-75855533D02*
X127787030Y-76569819D01*
X127787030Y-76569819D02*
X127548935Y-75569819D01*
X127167982Y-76569819D02*
X127167982Y-75569819D01*
X127167982Y-75569819D02*
X126929887Y-75569819D01*
X126929887Y-75569819D02*
X126787030Y-75617438D01*
X126787030Y-75617438D02*
X126691792Y-75712676D01*
X126691792Y-75712676D02*
X126644173Y-75807914D01*
X126644173Y-75807914D02*
X126596554Y-75998390D01*
X126596554Y-75998390D02*
X126596554Y-76141247D01*
X126596554Y-76141247D02*
X126644173Y-76331723D01*
X126644173Y-76331723D02*
X126691792Y-76426961D01*
X126691792Y-76426961D02*
X126787030Y-76522200D01*
X126787030Y-76522200D02*
X126929887Y-76569819D01*
X126929887Y-76569819D02*
X127167982Y-76569819D01*
X126167982Y-76569819D02*
X126167982Y-75569819D01*
X125501316Y-75569819D02*
X125310840Y-75569819D01*
X125310840Y-75569819D02*
X125215602Y-75617438D01*
X125215602Y-75617438D02*
X125120364Y-75712676D01*
X125120364Y-75712676D02*
X125072745Y-75903152D01*
X125072745Y-75903152D02*
X125072745Y-76236485D01*
X125072745Y-76236485D02*
X125120364Y-76426961D01*
X125120364Y-76426961D02*
X125215602Y-76522200D01*
X125215602Y-76522200D02*
X125310840Y-76569819D01*
X125310840Y-76569819D02*
X125501316Y-76569819D01*
X125501316Y-76569819D02*
X125596554Y-76522200D01*
X125596554Y-76522200D02*
X125691792Y-76426961D01*
X125691792Y-76426961D02*
X125739411Y-76236485D01*
X125739411Y-76236485D02*
X125739411Y-75903152D01*
X125739411Y-75903152D02*
X125691792Y-75712676D01*
X125691792Y-75712676D02*
X125596554Y-75617438D01*
X125596554Y-75617438D02*
X125501316Y-75569819D01*
X143745180Y-80733332D02*
X144745180Y-80733332D01*
X144745180Y-80733332D02*
X144745180Y-80352380D01*
X144745180Y-80352380D02*
X144697561Y-80257142D01*
X144697561Y-80257142D02*
X144649942Y-80209523D01*
X144649942Y-80209523D02*
X144554704Y-80161904D01*
X144554704Y-80161904D02*
X144411847Y-80161904D01*
X144411847Y-80161904D02*
X144316609Y-80209523D01*
X144316609Y-80209523D02*
X144268990Y-80257142D01*
X144268990Y-80257142D02*
X144221371Y-80352380D01*
X144221371Y-80352380D02*
X144221371Y-80733332D01*
X144268990Y-79399999D02*
X144221371Y-79257142D01*
X144221371Y-79257142D02*
X144173752Y-79209523D01*
X144173752Y-79209523D02*
X144078514Y-79161904D01*
X144078514Y-79161904D02*
X143935657Y-79161904D01*
X143935657Y-79161904D02*
X143840419Y-79209523D01*
X143840419Y-79209523D02*
X143792800Y-79257142D01*
X143792800Y-79257142D02*
X143745180Y-79352380D01*
X143745180Y-79352380D02*
X143745180Y-79733332D01*
X143745180Y-79733332D02*
X144745180Y-79733332D01*
X144745180Y-79733332D02*
X144745180Y-79399999D01*
X144745180Y-79399999D02*
X144697561Y-79304761D01*
X144697561Y-79304761D02*
X144649942Y-79257142D01*
X144649942Y-79257142D02*
X144554704Y-79209523D01*
X144554704Y-79209523D02*
X144459466Y-79209523D01*
X144459466Y-79209523D02*
X144364228Y-79257142D01*
X144364228Y-79257142D02*
X144316609Y-79304761D01*
X144316609Y-79304761D02*
X144268990Y-79399999D01*
X144268990Y-79399999D02*
X144268990Y-79733332D01*
X144745180Y-78828570D02*
X144745180Y-78209523D01*
X144745180Y-78209523D02*
X144364228Y-78542856D01*
X144364228Y-78542856D02*
X144364228Y-78399999D01*
X144364228Y-78399999D02*
X144316609Y-78304761D01*
X144316609Y-78304761D02*
X144268990Y-78257142D01*
X144268990Y-78257142D02*
X144173752Y-78209523D01*
X144173752Y-78209523D02*
X143935657Y-78209523D01*
X143935657Y-78209523D02*
X143840419Y-78257142D01*
X143840419Y-78257142D02*
X143792800Y-78304761D01*
X143792800Y-78304761D02*
X143745180Y-78399999D01*
X143745180Y-78399999D02*
X143745180Y-78685713D01*
X143745180Y-78685713D02*
X143792800Y-78780951D01*
X143792800Y-78780951D02*
X143840419Y-78828570D01*
X144126133Y-77780951D02*
X144126133Y-77019047D01*
X144745180Y-76114285D02*
X144745180Y-76304761D01*
X144745180Y-76304761D02*
X144697561Y-76399999D01*
X144697561Y-76399999D02*
X144649942Y-76447618D01*
X144649942Y-76447618D02*
X144507085Y-76542856D01*
X144507085Y-76542856D02*
X144316609Y-76590475D01*
X144316609Y-76590475D02*
X143935657Y-76590475D01*
X143935657Y-76590475D02*
X143840419Y-76542856D01*
X143840419Y-76542856D02*
X143792800Y-76495237D01*
X143792800Y-76495237D02*
X143745180Y-76399999D01*
X143745180Y-76399999D02*
X143745180Y-76209523D01*
X143745180Y-76209523D02*
X143792800Y-76114285D01*
X143792800Y-76114285D02*
X143840419Y-76066666D01*
X143840419Y-76066666D02*
X143935657Y-76019047D01*
X143935657Y-76019047D02*
X144173752Y-76019047D01*
X144173752Y-76019047D02*
X144268990Y-76066666D01*
X144268990Y-76066666D02*
X144316609Y-76114285D01*
X144316609Y-76114285D02*
X144364228Y-76209523D01*
X144364228Y-76209523D02*
X144364228Y-76399999D01*
X144364228Y-76399999D02*
X144316609Y-76495237D01*
X144316609Y-76495237D02*
X144268990Y-76542856D01*
X144268990Y-76542856D02*
X144173752Y-76590475D01*
X124682561Y-60639411D02*
X124730180Y-60734649D01*
X124730180Y-60734649D02*
X124730180Y-60877506D01*
X124730180Y-60877506D02*
X124682561Y-61020363D01*
X124682561Y-61020363D02*
X124587323Y-61115601D01*
X124587323Y-61115601D02*
X124492085Y-61163220D01*
X124492085Y-61163220D02*
X124301609Y-61210839D01*
X124301609Y-61210839D02*
X124158752Y-61210839D01*
X124158752Y-61210839D02*
X123968276Y-61163220D01*
X123968276Y-61163220D02*
X123873038Y-61115601D01*
X123873038Y-61115601D02*
X123777800Y-61020363D01*
X123777800Y-61020363D02*
X123730180Y-60877506D01*
X123730180Y-60877506D02*
X123730180Y-60782268D01*
X123730180Y-60782268D02*
X123777800Y-60639411D01*
X123777800Y-60639411D02*
X123825419Y-60591792D01*
X123825419Y-60591792D02*
X124158752Y-60591792D01*
X124158752Y-60591792D02*
X124158752Y-60782268D01*
X123730180Y-60163220D02*
X124730180Y-60163220D01*
X124730180Y-60163220D02*
X123730180Y-59591792D01*
X123730180Y-59591792D02*
X124730180Y-59591792D01*
X123730180Y-59115601D02*
X124730180Y-59115601D01*
X124730180Y-59115601D02*
X124730180Y-58877506D01*
X124730180Y-58877506D02*
X124682561Y-58734649D01*
X124682561Y-58734649D02*
X124587323Y-58639411D01*
X124587323Y-58639411D02*
X124492085Y-58591792D01*
X124492085Y-58591792D02*
X124301609Y-58544173D01*
X124301609Y-58544173D02*
X124158752Y-58544173D01*
X124158752Y-58544173D02*
X123968276Y-58591792D01*
X123968276Y-58591792D02*
X123873038Y-58639411D01*
X123873038Y-58639411D02*
X123777800Y-58734649D01*
X123777800Y-58734649D02*
X123730180Y-58877506D01*
X123730180Y-58877506D02*
X123730180Y-59115601D01*
X146345180Y-80666666D02*
X147345180Y-80666666D01*
X147345180Y-80666666D02*
X147345180Y-80285714D01*
X147345180Y-80285714D02*
X147297561Y-80190476D01*
X147297561Y-80190476D02*
X147249942Y-80142857D01*
X147249942Y-80142857D02*
X147154704Y-80095238D01*
X147154704Y-80095238D02*
X147011847Y-80095238D01*
X147011847Y-80095238D02*
X146916609Y-80142857D01*
X146916609Y-80142857D02*
X146868990Y-80190476D01*
X146868990Y-80190476D02*
X146821371Y-80285714D01*
X146821371Y-80285714D02*
X146821371Y-80666666D01*
X146630895Y-79714285D02*
X146630895Y-79238095D01*
X146345180Y-79809523D02*
X147345180Y-79476190D01*
X147345180Y-79476190D02*
X146345180Y-79142857D01*
X146916609Y-78666666D02*
X146964228Y-78761904D01*
X146964228Y-78761904D02*
X147011847Y-78809523D01*
X147011847Y-78809523D02*
X147107085Y-78857142D01*
X147107085Y-78857142D02*
X147154704Y-78857142D01*
X147154704Y-78857142D02*
X147249942Y-78809523D01*
X147249942Y-78809523D02*
X147297561Y-78761904D01*
X147297561Y-78761904D02*
X147345180Y-78666666D01*
X147345180Y-78666666D02*
X147345180Y-78476190D01*
X147345180Y-78476190D02*
X147297561Y-78380952D01*
X147297561Y-78380952D02*
X147249942Y-78333333D01*
X147249942Y-78333333D02*
X147154704Y-78285714D01*
X147154704Y-78285714D02*
X147107085Y-78285714D01*
X147107085Y-78285714D02*
X147011847Y-78333333D01*
X147011847Y-78333333D02*
X146964228Y-78380952D01*
X146964228Y-78380952D02*
X146916609Y-78476190D01*
X146916609Y-78476190D02*
X146916609Y-78666666D01*
X146916609Y-78666666D02*
X146868990Y-78761904D01*
X146868990Y-78761904D02*
X146821371Y-78809523D01*
X146821371Y-78809523D02*
X146726133Y-78857142D01*
X146726133Y-78857142D02*
X146535657Y-78857142D01*
X146535657Y-78857142D02*
X146440419Y-78809523D01*
X146440419Y-78809523D02*
X146392800Y-78761904D01*
X146392800Y-78761904D02*
X146345180Y-78666666D01*
X146345180Y-78666666D02*
X146345180Y-78476190D01*
X146345180Y-78476190D02*
X146392800Y-78380952D01*
X146392800Y-78380952D02*
X146440419Y-78333333D01*
X146440419Y-78333333D02*
X146535657Y-78285714D01*
X146535657Y-78285714D02*
X146726133Y-78285714D01*
X146726133Y-78285714D02*
X146821371Y-78333333D01*
X146821371Y-78333333D02*
X146868990Y-78380952D01*
X146868990Y-78380952D02*
X146916609Y-78476190D01*
X151345180Y-80714285D02*
X152345180Y-80714285D01*
X152345180Y-80714285D02*
X152345180Y-80333333D01*
X152345180Y-80333333D02*
X152297561Y-80238095D01*
X152297561Y-80238095D02*
X152249942Y-80190476D01*
X152249942Y-80190476D02*
X152154704Y-80142857D01*
X152154704Y-80142857D02*
X152011847Y-80142857D01*
X152011847Y-80142857D02*
X151916609Y-80190476D01*
X151916609Y-80190476D02*
X151868990Y-80238095D01*
X151868990Y-80238095D02*
X151821371Y-80333333D01*
X151821371Y-80333333D02*
X151821371Y-80714285D01*
X151440419Y-79142857D02*
X151392800Y-79190476D01*
X151392800Y-79190476D02*
X151345180Y-79333333D01*
X151345180Y-79333333D02*
X151345180Y-79428571D01*
X151345180Y-79428571D02*
X151392800Y-79571428D01*
X151392800Y-79571428D02*
X151488038Y-79666666D01*
X151488038Y-79666666D02*
X151583276Y-79714285D01*
X151583276Y-79714285D02*
X151773752Y-79761904D01*
X151773752Y-79761904D02*
X151916609Y-79761904D01*
X151916609Y-79761904D02*
X152107085Y-79714285D01*
X152107085Y-79714285D02*
X152202323Y-79666666D01*
X152202323Y-79666666D02*
X152297561Y-79571428D01*
X152297561Y-79571428D02*
X152345180Y-79428571D01*
X152345180Y-79428571D02*
X152345180Y-79333333D01*
X152345180Y-79333333D02*
X152297561Y-79190476D01*
X152297561Y-79190476D02*
X152249942Y-79142857D01*
X151345180Y-78190476D02*
X151345180Y-78761904D01*
X151345180Y-78476190D02*
X152345180Y-78476190D01*
X152345180Y-78476190D02*
X152202323Y-78571428D01*
X152202323Y-78571428D02*
X152107085Y-78666666D01*
X152107085Y-78666666D02*
X152059466Y-78761904D01*
X152345180Y-77285714D02*
X152345180Y-77761904D01*
X152345180Y-77761904D02*
X151868990Y-77809523D01*
X151868990Y-77809523D02*
X151916609Y-77761904D01*
X151916609Y-77761904D02*
X151964228Y-77666666D01*
X151964228Y-77666666D02*
X151964228Y-77428571D01*
X151964228Y-77428571D02*
X151916609Y-77333333D01*
X151916609Y-77333333D02*
X151868990Y-77285714D01*
X151868990Y-77285714D02*
X151773752Y-77238095D01*
X151773752Y-77238095D02*
X151535657Y-77238095D01*
X151535657Y-77238095D02*
X151440419Y-77285714D01*
X151440419Y-77285714D02*
X151392800Y-77333333D01*
X151392800Y-77333333D02*
X151345180Y-77428571D01*
X151345180Y-77428571D02*
X151345180Y-77666666D01*
X151345180Y-77666666D02*
X151392800Y-77761904D01*
X151392800Y-77761904D02*
X151440419Y-77809523D01*
X142197561Y-80161904D02*
X142245180Y-80257142D01*
X142245180Y-80257142D02*
X142245180Y-80399999D01*
X142245180Y-80399999D02*
X142197561Y-80542856D01*
X142197561Y-80542856D02*
X142102323Y-80638094D01*
X142102323Y-80638094D02*
X142007085Y-80685713D01*
X142007085Y-80685713D02*
X141816609Y-80733332D01*
X141816609Y-80733332D02*
X141673752Y-80733332D01*
X141673752Y-80733332D02*
X141483276Y-80685713D01*
X141483276Y-80685713D02*
X141388038Y-80638094D01*
X141388038Y-80638094D02*
X141292800Y-80542856D01*
X141292800Y-80542856D02*
X141245180Y-80399999D01*
X141245180Y-80399999D02*
X141245180Y-80304761D01*
X141245180Y-80304761D02*
X141292800Y-80161904D01*
X141292800Y-80161904D02*
X141340419Y-80114285D01*
X141340419Y-80114285D02*
X141673752Y-80114285D01*
X141673752Y-80114285D02*
X141673752Y-80304761D01*
X141245180Y-79685713D02*
X142245180Y-79685713D01*
X142245180Y-79685713D02*
X141245180Y-79114285D01*
X141245180Y-79114285D02*
X142245180Y-79114285D01*
X141245180Y-78638094D02*
X142245180Y-78638094D01*
X142245180Y-78638094D02*
X142245180Y-78399999D01*
X142245180Y-78399999D02*
X142197561Y-78257142D01*
X142197561Y-78257142D02*
X142102323Y-78161904D01*
X142102323Y-78161904D02*
X142007085Y-78114285D01*
X142007085Y-78114285D02*
X141816609Y-78066666D01*
X141816609Y-78066666D02*
X141673752Y-78066666D01*
X141673752Y-78066666D02*
X141483276Y-78114285D01*
X141483276Y-78114285D02*
X141388038Y-78161904D01*
X141388038Y-78161904D02*
X141292800Y-78257142D01*
X141292800Y-78257142D02*
X141245180Y-78399999D01*
X141245180Y-78399999D02*
X141245180Y-78638094D01*
X162780952Y-53854819D02*
X162209524Y-53854819D01*
X162495238Y-54854819D02*
X162495238Y-53854819D01*
X161733333Y-54854819D02*
X161828571Y-54807200D01*
X161828571Y-54807200D02*
X161876190Y-54759580D01*
X161876190Y-54759580D02*
X161923809Y-54664342D01*
X161923809Y-54664342D02*
X161923809Y-54378628D01*
X161923809Y-54378628D02*
X161876190Y-54283390D01*
X161876190Y-54283390D02*
X161828571Y-54235771D01*
X161828571Y-54235771D02*
X161733333Y-54188152D01*
X161733333Y-54188152D02*
X161590476Y-54188152D01*
X161590476Y-54188152D02*
X161495238Y-54235771D01*
X161495238Y-54235771D02*
X161447619Y-54283390D01*
X161447619Y-54283390D02*
X161400000Y-54378628D01*
X161400000Y-54378628D02*
X161400000Y-54664342D01*
X161400000Y-54664342D02*
X161447619Y-54759580D01*
X161447619Y-54759580D02*
X161495238Y-54807200D01*
X161495238Y-54807200D02*
X161590476Y-54854819D01*
X161590476Y-54854819D02*
X161733333Y-54854819D01*
X160542857Y-54188152D02*
X160542857Y-54854819D01*
X160971428Y-54188152D02*
X160971428Y-54711961D01*
X160971428Y-54711961D02*
X160923809Y-54807200D01*
X160923809Y-54807200D02*
X160828571Y-54854819D01*
X160828571Y-54854819D02*
X160685714Y-54854819D01*
X160685714Y-54854819D02*
X160590476Y-54807200D01*
X160590476Y-54807200D02*
X160542857Y-54759580D01*
X159638095Y-54807200D02*
X159733333Y-54854819D01*
X159733333Y-54854819D02*
X159923809Y-54854819D01*
X159923809Y-54854819D02*
X160019047Y-54807200D01*
X160019047Y-54807200D02*
X160066666Y-54759580D01*
X160066666Y-54759580D02*
X160114285Y-54664342D01*
X160114285Y-54664342D02*
X160114285Y-54378628D01*
X160114285Y-54378628D02*
X160066666Y-54283390D01*
X160066666Y-54283390D02*
X160019047Y-54235771D01*
X160019047Y-54235771D02*
X159923809Y-54188152D01*
X159923809Y-54188152D02*
X159733333Y-54188152D01*
X159733333Y-54188152D02*
X159638095Y-54235771D01*
X159209523Y-54854819D02*
X159209523Y-53854819D01*
X158780952Y-54854819D02*
X158780952Y-54331009D01*
X158780952Y-54331009D02*
X158828571Y-54235771D01*
X158828571Y-54235771D02*
X158923809Y-54188152D01*
X158923809Y-54188152D02*
X159066666Y-54188152D01*
X159066666Y-54188152D02*
X159161904Y-54235771D01*
X159161904Y-54235771D02*
X159209523Y-54283390D01*
X157542856Y-54854819D02*
X157542856Y-53854819D01*
X157542856Y-53854819D02*
X157161904Y-53854819D01*
X157161904Y-53854819D02*
X157066666Y-53902438D01*
X157066666Y-53902438D02*
X157019047Y-53950057D01*
X157019047Y-53950057D02*
X156971428Y-54045295D01*
X156971428Y-54045295D02*
X156971428Y-54188152D01*
X156971428Y-54188152D02*
X157019047Y-54283390D01*
X157019047Y-54283390D02*
X157066666Y-54331009D01*
X157066666Y-54331009D02*
X157161904Y-54378628D01*
X157161904Y-54378628D02*
X157542856Y-54378628D01*
X156399999Y-54854819D02*
X156495237Y-54807200D01*
X156495237Y-54807200D02*
X156542856Y-54711961D01*
X156542856Y-54711961D02*
X156542856Y-53854819D01*
X155590475Y-54854819D02*
X155590475Y-54331009D01*
X155590475Y-54331009D02*
X155638094Y-54235771D01*
X155638094Y-54235771D02*
X155733332Y-54188152D01*
X155733332Y-54188152D02*
X155923808Y-54188152D01*
X155923808Y-54188152D02*
X156019046Y-54235771D01*
X155590475Y-54807200D02*
X155685713Y-54854819D01*
X155685713Y-54854819D02*
X155923808Y-54854819D01*
X155923808Y-54854819D02*
X156019046Y-54807200D01*
X156019046Y-54807200D02*
X156066665Y-54711961D01*
X156066665Y-54711961D02*
X156066665Y-54616723D01*
X156066665Y-54616723D02*
X156019046Y-54521485D01*
X156019046Y-54521485D02*
X155923808Y-54473866D01*
X155923808Y-54473866D02*
X155685713Y-54473866D01*
X155685713Y-54473866D02*
X155590475Y-54426247D01*
X155257141Y-54188152D02*
X154876189Y-54188152D01*
X155114284Y-53854819D02*
X155114284Y-54711961D01*
X155114284Y-54711961D02*
X155066665Y-54807200D01*
X155066665Y-54807200D02*
X154971427Y-54854819D01*
X154971427Y-54854819D02*
X154876189Y-54854819D01*
X154161903Y-54807200D02*
X154257141Y-54854819D01*
X154257141Y-54854819D02*
X154447617Y-54854819D01*
X154447617Y-54854819D02*
X154542855Y-54807200D01*
X154542855Y-54807200D02*
X154590474Y-54711961D01*
X154590474Y-54711961D02*
X154590474Y-54331009D01*
X154590474Y-54331009D02*
X154542855Y-54235771D01*
X154542855Y-54235771D02*
X154447617Y-54188152D01*
X154447617Y-54188152D02*
X154257141Y-54188152D01*
X154257141Y-54188152D02*
X154161903Y-54235771D01*
X154161903Y-54235771D02*
X154114284Y-54331009D01*
X154114284Y-54331009D02*
X154114284Y-54426247D01*
X154114284Y-54426247D02*
X154590474Y-54521485D01*
X129563220Y-35888866D02*
X128801316Y-35888866D01*
X129182268Y-36269819D02*
X129182268Y-35507914D01*
X128372744Y-35365057D02*
X128325125Y-35317438D01*
X128325125Y-35317438D02*
X128229887Y-35269819D01*
X128229887Y-35269819D02*
X127991792Y-35269819D01*
X127991792Y-35269819D02*
X127896554Y-35317438D01*
X127896554Y-35317438D02*
X127848935Y-35365057D01*
X127848935Y-35365057D02*
X127801316Y-35460295D01*
X127801316Y-35460295D02*
X127801316Y-35555533D01*
X127801316Y-35555533D02*
X127848935Y-35698390D01*
X127848935Y-35698390D02*
X128420363Y-36269819D01*
X128420363Y-36269819D02*
X127801316Y-36269819D01*
X127182268Y-35269819D02*
X127087030Y-35269819D01*
X127087030Y-35269819D02*
X126991792Y-35317438D01*
X126991792Y-35317438D02*
X126944173Y-35365057D01*
X126944173Y-35365057D02*
X126896554Y-35460295D01*
X126896554Y-35460295D02*
X126848935Y-35650771D01*
X126848935Y-35650771D02*
X126848935Y-35888866D01*
X126848935Y-35888866D02*
X126896554Y-36079342D01*
X126896554Y-36079342D02*
X126944173Y-36174580D01*
X126944173Y-36174580D02*
X126991792Y-36222200D01*
X126991792Y-36222200D02*
X127087030Y-36269819D01*
X127087030Y-36269819D02*
X127182268Y-36269819D01*
X127182268Y-36269819D02*
X127277506Y-36222200D01*
X127277506Y-36222200D02*
X127325125Y-36174580D01*
X127325125Y-36174580D02*
X127372744Y-36079342D01*
X127372744Y-36079342D02*
X127420363Y-35888866D01*
X127420363Y-35888866D02*
X127420363Y-35650771D01*
X127420363Y-35650771D02*
X127372744Y-35460295D01*
X127372744Y-35460295D02*
X127325125Y-35365057D01*
X127325125Y-35365057D02*
X127277506Y-35317438D01*
X127277506Y-35317438D02*
X127182268Y-35269819D01*
X126563220Y-35269819D02*
X126229887Y-36269819D01*
X126229887Y-36269819D02*
X125896554Y-35269819D01*
X129310839Y-79122200D02*
X129167982Y-79169819D01*
X129167982Y-79169819D02*
X128929887Y-79169819D01*
X128929887Y-79169819D02*
X128834649Y-79122200D01*
X128834649Y-79122200D02*
X128787030Y-79074580D01*
X128787030Y-79074580D02*
X128739411Y-78979342D01*
X128739411Y-78979342D02*
X128739411Y-78884104D01*
X128739411Y-78884104D02*
X128787030Y-78788866D01*
X128787030Y-78788866D02*
X128834649Y-78741247D01*
X128834649Y-78741247D02*
X128929887Y-78693628D01*
X128929887Y-78693628D02*
X129120363Y-78646009D01*
X129120363Y-78646009D02*
X129215601Y-78598390D01*
X129215601Y-78598390D02*
X129263220Y-78550771D01*
X129263220Y-78550771D02*
X129310839Y-78455533D01*
X129310839Y-78455533D02*
X129310839Y-78360295D01*
X129310839Y-78360295D02*
X129263220Y-78265057D01*
X129263220Y-78265057D02*
X129215601Y-78217438D01*
X129215601Y-78217438D02*
X129120363Y-78169819D01*
X129120363Y-78169819D02*
X128882268Y-78169819D01*
X128882268Y-78169819D02*
X128739411Y-78217438D01*
X128406077Y-78169819D02*
X128167982Y-79169819D01*
X128167982Y-79169819D02*
X127977506Y-78455533D01*
X127977506Y-78455533D02*
X127787030Y-79169819D01*
X127787030Y-79169819D02*
X127548935Y-78169819D01*
X126596554Y-79074580D02*
X126644173Y-79122200D01*
X126644173Y-79122200D02*
X126787030Y-79169819D01*
X126787030Y-79169819D02*
X126882268Y-79169819D01*
X126882268Y-79169819D02*
X127025125Y-79122200D01*
X127025125Y-79122200D02*
X127120363Y-79026961D01*
X127120363Y-79026961D02*
X127167982Y-78931723D01*
X127167982Y-78931723D02*
X127215601Y-78741247D01*
X127215601Y-78741247D02*
X127215601Y-78598390D01*
X127215601Y-78598390D02*
X127167982Y-78407914D01*
X127167982Y-78407914D02*
X127120363Y-78312676D01*
X127120363Y-78312676D02*
X127025125Y-78217438D01*
X127025125Y-78217438D02*
X126882268Y-78169819D01*
X126882268Y-78169819D02*
X126787030Y-78169819D01*
X126787030Y-78169819D02*
X126644173Y-78217438D01*
X126644173Y-78217438D02*
X126596554Y-78265057D01*
X125691792Y-79169819D02*
X126167982Y-79169819D01*
X126167982Y-79169819D02*
X126167982Y-78169819D01*
X125358458Y-79169819D02*
X125358458Y-78169819D01*
X124787030Y-79169819D02*
X125215601Y-78598390D01*
X124787030Y-78169819D02*
X125358458Y-78741247D01*
X126711133Y-61063220D02*
X126711133Y-60301316D01*
X126330180Y-60682268D02*
X127092085Y-60682268D01*
X127330180Y-59396554D02*
X127330180Y-59587030D01*
X127330180Y-59587030D02*
X127282561Y-59682268D01*
X127282561Y-59682268D02*
X127234942Y-59729887D01*
X127234942Y-59729887D02*
X127092085Y-59825125D01*
X127092085Y-59825125D02*
X126901609Y-59872744D01*
X126901609Y-59872744D02*
X126520657Y-59872744D01*
X126520657Y-59872744D02*
X126425419Y-59825125D01*
X126425419Y-59825125D02*
X126377800Y-59777506D01*
X126377800Y-59777506D02*
X126330180Y-59682268D01*
X126330180Y-59682268D02*
X126330180Y-59491792D01*
X126330180Y-59491792D02*
X126377800Y-59396554D01*
X126377800Y-59396554D02*
X126425419Y-59348935D01*
X126425419Y-59348935D02*
X126520657Y-59301316D01*
X126520657Y-59301316D02*
X126758752Y-59301316D01*
X126758752Y-59301316D02*
X126853990Y-59348935D01*
X126853990Y-59348935D02*
X126901609Y-59396554D01*
X126901609Y-59396554D02*
X126949228Y-59491792D01*
X126949228Y-59491792D02*
X126949228Y-59682268D01*
X126949228Y-59682268D02*
X126901609Y-59777506D01*
X126901609Y-59777506D02*
X126853990Y-59825125D01*
X126853990Y-59825125D02*
X126758752Y-59872744D01*
X127330180Y-59015601D02*
X126330180Y-58682268D01*
X126330180Y-58682268D02*
X127330180Y-58348935D01*
X162321371Y-59604761D02*
X161845180Y-59604761D01*
X162845180Y-59938094D02*
X162321371Y-59604761D01*
X162321371Y-59604761D02*
X162845180Y-59271428D01*
X162511847Y-58509523D02*
X161845180Y-58509523D01*
X162511847Y-58938094D02*
X161988038Y-58938094D01*
X161988038Y-58938094D02*
X161892800Y-58890475D01*
X161892800Y-58890475D02*
X161845180Y-58795237D01*
X161845180Y-58795237D02*
X161845180Y-58652380D01*
X161845180Y-58652380D02*
X161892800Y-58557142D01*
X161892800Y-58557142D02*
X161940419Y-58509523D01*
X162511847Y-58033332D02*
X161511847Y-58033332D01*
X162464228Y-58033332D02*
X162511847Y-57938094D01*
X162511847Y-57938094D02*
X162511847Y-57747618D01*
X162511847Y-57747618D02*
X162464228Y-57652380D01*
X162464228Y-57652380D02*
X162416609Y-57604761D01*
X162416609Y-57604761D02*
X162321371Y-57557142D01*
X162321371Y-57557142D02*
X162035657Y-57557142D01*
X162035657Y-57557142D02*
X161940419Y-57604761D01*
X161940419Y-57604761D02*
X161892800Y-57652380D01*
X161892800Y-57652380D02*
X161845180Y-57747618D01*
X161845180Y-57747618D02*
X161845180Y-57938094D01*
X161845180Y-57938094D02*
X161892800Y-58033332D01*
X128977800Y-61210839D02*
X128930180Y-61067982D01*
X128930180Y-61067982D02*
X128930180Y-60829887D01*
X128930180Y-60829887D02*
X128977800Y-60734649D01*
X128977800Y-60734649D02*
X129025419Y-60687030D01*
X129025419Y-60687030D02*
X129120657Y-60639411D01*
X129120657Y-60639411D02*
X129215895Y-60639411D01*
X129215895Y-60639411D02*
X129311133Y-60687030D01*
X129311133Y-60687030D02*
X129358752Y-60734649D01*
X129358752Y-60734649D02*
X129406371Y-60829887D01*
X129406371Y-60829887D02*
X129453990Y-61020363D01*
X129453990Y-61020363D02*
X129501609Y-61115601D01*
X129501609Y-61115601D02*
X129549228Y-61163220D01*
X129549228Y-61163220D02*
X129644466Y-61210839D01*
X129644466Y-61210839D02*
X129739704Y-61210839D01*
X129739704Y-61210839D02*
X129834942Y-61163220D01*
X129834942Y-61163220D02*
X129882561Y-61115601D01*
X129882561Y-61115601D02*
X129930180Y-61020363D01*
X129930180Y-61020363D02*
X129930180Y-60782268D01*
X129930180Y-60782268D02*
X129882561Y-60639411D01*
X129453990Y-60210839D02*
X129453990Y-59877506D01*
X128930180Y-59734649D02*
X128930180Y-60210839D01*
X128930180Y-60210839D02*
X129930180Y-60210839D01*
X129930180Y-60210839D02*
X129930180Y-59734649D01*
X128930180Y-58734649D02*
X129406371Y-59067982D01*
X128930180Y-59306077D02*
X129930180Y-59306077D01*
X129930180Y-59306077D02*
X129930180Y-58925125D01*
X129930180Y-58925125D02*
X129882561Y-58829887D01*
X129882561Y-58829887D02*
X129834942Y-58782268D01*
X129834942Y-58782268D02*
X129739704Y-58734649D01*
X129739704Y-58734649D02*
X129596847Y-58734649D01*
X129596847Y-58734649D02*
X129501609Y-58782268D01*
X129501609Y-58782268D02*
X129453990Y-58829887D01*
X129453990Y-58829887D02*
X129406371Y-58925125D01*
X129406371Y-58925125D02*
X129406371Y-59306077D01*
X129930180Y-58448934D02*
X128930180Y-58115601D01*
X128930180Y-58115601D02*
X129930180Y-57782268D01*
X129930180Y-57258458D02*
X129930180Y-57067982D01*
X129930180Y-57067982D02*
X129882561Y-56972744D01*
X129882561Y-56972744D02*
X129787323Y-56877506D01*
X129787323Y-56877506D02*
X129596847Y-56829887D01*
X129596847Y-56829887D02*
X129263514Y-56829887D01*
X129263514Y-56829887D02*
X129073038Y-56877506D01*
X129073038Y-56877506D02*
X128977800Y-56972744D01*
X128977800Y-56972744D02*
X128930180Y-57067982D01*
X128930180Y-57067982D02*
X128930180Y-57258458D01*
X128930180Y-57258458D02*
X128977800Y-57353696D01*
X128977800Y-57353696D02*
X129073038Y-57448934D01*
X129073038Y-57448934D02*
X129263514Y-57496553D01*
X129263514Y-57496553D02*
X129596847Y-57496553D01*
X129596847Y-57496553D02*
X129787323Y-57448934D01*
X129787323Y-57448934D02*
X129882561Y-57353696D01*
X129882561Y-57353696D02*
X129930180Y-57258458D01*
X128834942Y-56639411D02*
X128834942Y-55877506D01*
X129930180Y-55734648D02*
X128930180Y-55067982D01*
X129930180Y-55067982D02*
X128930180Y-55734648D01*
X159721371Y-61580952D02*
X159245180Y-61580952D01*
X160245180Y-61914285D02*
X159721371Y-61580952D01*
X159721371Y-61580952D02*
X160245180Y-61247619D01*
X159245180Y-60485714D02*
X160245180Y-60485714D01*
X159292800Y-60485714D02*
X159245180Y-60580952D01*
X159245180Y-60580952D02*
X159245180Y-60771428D01*
X159245180Y-60771428D02*
X159292800Y-60866666D01*
X159292800Y-60866666D02*
X159340419Y-60914285D01*
X159340419Y-60914285D02*
X159435657Y-60961904D01*
X159435657Y-60961904D02*
X159721371Y-60961904D01*
X159721371Y-60961904D02*
X159816609Y-60914285D01*
X159816609Y-60914285D02*
X159864228Y-60866666D01*
X159864228Y-60866666D02*
X159911847Y-60771428D01*
X159911847Y-60771428D02*
X159911847Y-60580952D01*
X159911847Y-60580952D02*
X159864228Y-60485714D01*
X159245180Y-59866666D02*
X159292800Y-59961904D01*
X159292800Y-59961904D02*
X159340419Y-60009523D01*
X159340419Y-60009523D02*
X159435657Y-60057142D01*
X159435657Y-60057142D02*
X159721371Y-60057142D01*
X159721371Y-60057142D02*
X159816609Y-60009523D01*
X159816609Y-60009523D02*
X159864228Y-59961904D01*
X159864228Y-59961904D02*
X159911847Y-59866666D01*
X159911847Y-59866666D02*
X159911847Y-59723809D01*
X159911847Y-59723809D02*
X159864228Y-59628571D01*
X159864228Y-59628571D02*
X159816609Y-59580952D01*
X159816609Y-59580952D02*
X159721371Y-59533333D01*
X159721371Y-59533333D02*
X159435657Y-59533333D01*
X159435657Y-59533333D02*
X159340419Y-59580952D01*
X159340419Y-59580952D02*
X159292800Y-59628571D01*
X159292800Y-59628571D02*
X159245180Y-59723809D01*
X159245180Y-59723809D02*
X159245180Y-59866666D01*
X159911847Y-59199999D02*
X159245180Y-59009523D01*
X159245180Y-59009523D02*
X159721371Y-58819047D01*
X159721371Y-58819047D02*
X159245180Y-58628571D01*
X159245180Y-58628571D02*
X159911847Y-58438095D01*
X159911847Y-58057142D02*
X159245180Y-58057142D01*
X159816609Y-58057142D02*
X159864228Y-58009523D01*
X159864228Y-58009523D02*
X159911847Y-57914285D01*
X159911847Y-57914285D02*
X159911847Y-57771428D01*
X159911847Y-57771428D02*
X159864228Y-57676190D01*
X159864228Y-57676190D02*
X159768990Y-57628571D01*
X159768990Y-57628571D02*
X159245180Y-57628571D01*
X154116666Y-49304819D02*
X154449999Y-48828628D01*
X154688094Y-49304819D02*
X154688094Y-48304819D01*
X154688094Y-48304819D02*
X154307142Y-48304819D01*
X154307142Y-48304819D02*
X154211904Y-48352438D01*
X154211904Y-48352438D02*
X154164285Y-48400057D01*
X154164285Y-48400057D02*
X154116666Y-48495295D01*
X154116666Y-48495295D02*
X154116666Y-48638152D01*
X154116666Y-48638152D02*
X154164285Y-48733390D01*
X154164285Y-48733390D02*
X154211904Y-48781009D01*
X154211904Y-48781009D02*
X154307142Y-48828628D01*
X154307142Y-48828628D02*
X154688094Y-48828628D01*
X153259523Y-48638152D02*
X153259523Y-49304819D01*
X153497618Y-48257200D02*
X153735713Y-48971485D01*
X153735713Y-48971485D02*
X153116666Y-48971485D01*
X154191666Y-47454819D02*
X154524999Y-46978628D01*
X154763094Y-47454819D02*
X154763094Y-46454819D01*
X154763094Y-46454819D02*
X154382142Y-46454819D01*
X154382142Y-46454819D02*
X154286904Y-46502438D01*
X154286904Y-46502438D02*
X154239285Y-46550057D01*
X154239285Y-46550057D02*
X154191666Y-46645295D01*
X154191666Y-46645295D02*
X154191666Y-46788152D01*
X154191666Y-46788152D02*
X154239285Y-46883390D01*
X154239285Y-46883390D02*
X154286904Y-46931009D01*
X154286904Y-46931009D02*
X154382142Y-46978628D01*
X154382142Y-46978628D02*
X154763094Y-46978628D01*
X153858332Y-46454819D02*
X153239285Y-46454819D01*
X153239285Y-46454819D02*
X153572618Y-46835771D01*
X153572618Y-46835771D02*
X153429761Y-46835771D01*
X153429761Y-46835771D02*
X153334523Y-46883390D01*
X153334523Y-46883390D02*
X153286904Y-46931009D01*
X153286904Y-46931009D02*
X153239285Y-47026247D01*
X153239285Y-47026247D02*
X153239285Y-47264342D01*
X153239285Y-47264342D02*
X153286904Y-47359580D01*
X153286904Y-47359580D02*
X153334523Y-47407200D01*
X153334523Y-47407200D02*
X153429761Y-47454819D01*
X153429761Y-47454819D02*
X153715475Y-47454819D01*
X153715475Y-47454819D02*
X153810713Y-47407200D01*
X153810713Y-47407200D02*
X153858332Y-47359580D01*
X133492857Y-44004819D02*
X133826190Y-43528628D01*
X134064285Y-44004819D02*
X134064285Y-43004819D01*
X134064285Y-43004819D02*
X133683333Y-43004819D01*
X133683333Y-43004819D02*
X133588095Y-43052438D01*
X133588095Y-43052438D02*
X133540476Y-43100057D01*
X133540476Y-43100057D02*
X133492857Y-43195295D01*
X133492857Y-43195295D02*
X133492857Y-43338152D01*
X133492857Y-43338152D02*
X133540476Y-43433390D01*
X133540476Y-43433390D02*
X133588095Y-43481009D01*
X133588095Y-43481009D02*
X133683333Y-43528628D01*
X133683333Y-43528628D02*
X134064285Y-43528628D01*
X133111904Y-43100057D02*
X133064285Y-43052438D01*
X133064285Y-43052438D02*
X132969047Y-43004819D01*
X132969047Y-43004819D02*
X132730952Y-43004819D01*
X132730952Y-43004819D02*
X132635714Y-43052438D01*
X132635714Y-43052438D02*
X132588095Y-43100057D01*
X132588095Y-43100057D02*
X132540476Y-43195295D01*
X132540476Y-43195295D02*
X132540476Y-43290533D01*
X132540476Y-43290533D02*
X132588095Y-43433390D01*
X132588095Y-43433390D02*
X133159523Y-44004819D01*
X133159523Y-44004819D02*
X132540476Y-44004819D01*
X131588095Y-44004819D02*
X132159523Y-44004819D01*
X131873809Y-44004819D02*
X131873809Y-43004819D01*
X131873809Y-43004819D02*
X131969047Y-43147676D01*
X131969047Y-43147676D02*
X132064285Y-43242914D01*
X132064285Y-43242914D02*
X132159523Y-43290533D01*
X143959580Y-43383333D02*
X144007200Y-43335714D01*
X144007200Y-43335714D02*
X144054819Y-43192857D01*
X144054819Y-43192857D02*
X144054819Y-43097619D01*
X144054819Y-43097619D02*
X144007200Y-42954762D01*
X144007200Y-42954762D02*
X143911961Y-42859524D01*
X143911961Y-42859524D02*
X143816723Y-42811905D01*
X143816723Y-42811905D02*
X143626247Y-42764286D01*
X143626247Y-42764286D02*
X143483390Y-42764286D01*
X143483390Y-42764286D02*
X143292914Y-42811905D01*
X143292914Y-42811905D02*
X143197676Y-42859524D01*
X143197676Y-42859524D02*
X143102438Y-42954762D01*
X143102438Y-42954762D02*
X143054819Y-43097619D01*
X143054819Y-43097619D02*
X143054819Y-43192857D01*
X143054819Y-43192857D02*
X143102438Y-43335714D01*
X143102438Y-43335714D02*
X143150057Y-43383333D01*
X143150057Y-43764286D02*
X143102438Y-43811905D01*
X143102438Y-43811905D02*
X143054819Y-43907143D01*
X143054819Y-43907143D02*
X143054819Y-44145238D01*
X143054819Y-44145238D02*
X143102438Y-44240476D01*
X143102438Y-44240476D02*
X143150057Y-44288095D01*
X143150057Y-44288095D02*
X143245295Y-44335714D01*
X143245295Y-44335714D02*
X143340533Y-44335714D01*
X143340533Y-44335714D02*
X143483390Y-44288095D01*
X143483390Y-44288095D02*
X144054819Y-43716667D01*
X144054819Y-43716667D02*
X144054819Y-44335714D01*
X154241666Y-37904819D02*
X154574999Y-37428628D01*
X154813094Y-37904819D02*
X154813094Y-36904819D01*
X154813094Y-36904819D02*
X154432142Y-36904819D01*
X154432142Y-36904819D02*
X154336904Y-36952438D01*
X154336904Y-36952438D02*
X154289285Y-37000057D01*
X154289285Y-37000057D02*
X154241666Y-37095295D01*
X154241666Y-37095295D02*
X154241666Y-37238152D01*
X154241666Y-37238152D02*
X154289285Y-37333390D01*
X154289285Y-37333390D02*
X154336904Y-37381009D01*
X154336904Y-37381009D02*
X154432142Y-37428628D01*
X154432142Y-37428628D02*
X154813094Y-37428628D01*
X153860713Y-37000057D02*
X153813094Y-36952438D01*
X153813094Y-36952438D02*
X153717856Y-36904819D01*
X153717856Y-36904819D02*
X153479761Y-36904819D01*
X153479761Y-36904819D02*
X153384523Y-36952438D01*
X153384523Y-36952438D02*
X153336904Y-37000057D01*
X153336904Y-37000057D02*
X153289285Y-37095295D01*
X153289285Y-37095295D02*
X153289285Y-37190533D01*
X153289285Y-37190533D02*
X153336904Y-37333390D01*
X153336904Y-37333390D02*
X153908332Y-37904819D01*
X153908332Y-37904819D02*
X153289285Y-37904819D01*
X154166666Y-39804819D02*
X154499999Y-39328628D01*
X154738094Y-39804819D02*
X154738094Y-38804819D01*
X154738094Y-38804819D02*
X154357142Y-38804819D01*
X154357142Y-38804819D02*
X154261904Y-38852438D01*
X154261904Y-38852438D02*
X154214285Y-38900057D01*
X154214285Y-38900057D02*
X154166666Y-38995295D01*
X154166666Y-38995295D02*
X154166666Y-39138152D01*
X154166666Y-39138152D02*
X154214285Y-39233390D01*
X154214285Y-39233390D02*
X154261904Y-39281009D01*
X154261904Y-39281009D02*
X154357142Y-39328628D01*
X154357142Y-39328628D02*
X154738094Y-39328628D01*
X153261904Y-38804819D02*
X153738094Y-38804819D01*
X153738094Y-38804819D02*
X153785713Y-39281009D01*
X153785713Y-39281009D02*
X153738094Y-39233390D01*
X153738094Y-39233390D02*
X153642856Y-39185771D01*
X153642856Y-39185771D02*
X153404761Y-39185771D01*
X153404761Y-39185771D02*
X153309523Y-39233390D01*
X153309523Y-39233390D02*
X153261904Y-39281009D01*
X153261904Y-39281009D02*
X153214285Y-39376247D01*
X153214285Y-39376247D02*
X153214285Y-39614342D01*
X153214285Y-39614342D02*
X153261904Y-39709580D01*
X153261904Y-39709580D02*
X153309523Y-39757200D01*
X153309523Y-39757200D02*
X153404761Y-39804819D01*
X153404761Y-39804819D02*
X153642856Y-39804819D01*
X153642856Y-39804819D02*
X153738094Y-39757200D01*
X153738094Y-39757200D02*
X153785713Y-39709580D01*
X134024819Y-51482142D02*
X133548628Y-51148809D01*
X134024819Y-50910714D02*
X133024819Y-50910714D01*
X133024819Y-50910714D02*
X133024819Y-51291666D01*
X133024819Y-51291666D02*
X133072438Y-51386904D01*
X133072438Y-51386904D02*
X133120057Y-51434523D01*
X133120057Y-51434523D02*
X133215295Y-51482142D01*
X133215295Y-51482142D02*
X133358152Y-51482142D01*
X133358152Y-51482142D02*
X133453390Y-51434523D01*
X133453390Y-51434523D02*
X133501009Y-51386904D01*
X133501009Y-51386904D02*
X133548628Y-51291666D01*
X133548628Y-51291666D02*
X133548628Y-50910714D01*
X134024819Y-52434523D02*
X134024819Y-51863095D01*
X134024819Y-52148809D02*
X133024819Y-52148809D01*
X133024819Y-52148809D02*
X133167676Y-52053571D01*
X133167676Y-52053571D02*
X133262914Y-51958333D01*
X133262914Y-51958333D02*
X133310533Y-51863095D01*
X134024819Y-52910714D02*
X134024819Y-53101190D01*
X134024819Y-53101190D02*
X133977200Y-53196428D01*
X133977200Y-53196428D02*
X133929580Y-53244047D01*
X133929580Y-53244047D02*
X133786723Y-53339285D01*
X133786723Y-53339285D02*
X133596247Y-53386904D01*
X133596247Y-53386904D02*
X133215295Y-53386904D01*
X133215295Y-53386904D02*
X133120057Y-53339285D01*
X133120057Y-53339285D02*
X133072438Y-53291666D01*
X133072438Y-53291666D02*
X133024819Y-53196428D01*
X133024819Y-53196428D02*
X133024819Y-53005952D01*
X133024819Y-53005952D02*
X133072438Y-52910714D01*
X133072438Y-52910714D02*
X133120057Y-52863095D01*
X133120057Y-52863095D02*
X133215295Y-52815476D01*
X133215295Y-52815476D02*
X133453390Y-52815476D01*
X133453390Y-52815476D02*
X133548628Y-52863095D01*
X133548628Y-52863095D02*
X133596247Y-52910714D01*
X133596247Y-52910714D02*
X133643866Y-53005952D01*
X133643866Y-53005952D02*
X133643866Y-53196428D01*
X133643866Y-53196428D02*
X133596247Y-53291666D01*
X133596247Y-53291666D02*
X133548628Y-53339285D01*
X133548628Y-53339285D02*
X133453390Y-53386904D01*
X157592857Y-37754819D02*
X157926190Y-37278628D01*
X158164285Y-37754819D02*
X158164285Y-36754819D01*
X158164285Y-36754819D02*
X157783333Y-36754819D01*
X157783333Y-36754819D02*
X157688095Y-36802438D01*
X157688095Y-36802438D02*
X157640476Y-36850057D01*
X157640476Y-36850057D02*
X157592857Y-36945295D01*
X157592857Y-36945295D02*
X157592857Y-37088152D01*
X157592857Y-37088152D02*
X157640476Y-37183390D01*
X157640476Y-37183390D02*
X157688095Y-37231009D01*
X157688095Y-37231009D02*
X157783333Y-37278628D01*
X157783333Y-37278628D02*
X158164285Y-37278628D01*
X156640476Y-37754819D02*
X157211904Y-37754819D01*
X156926190Y-37754819D02*
X156926190Y-36754819D01*
X156926190Y-36754819D02*
X157021428Y-36897676D01*
X157021428Y-36897676D02*
X157116666Y-36992914D01*
X157116666Y-36992914D02*
X157211904Y-37040533D01*
X156021428Y-36754819D02*
X155926190Y-36754819D01*
X155926190Y-36754819D02*
X155830952Y-36802438D01*
X155830952Y-36802438D02*
X155783333Y-36850057D01*
X155783333Y-36850057D02*
X155735714Y-36945295D01*
X155735714Y-36945295D02*
X155688095Y-37135771D01*
X155688095Y-37135771D02*
X155688095Y-37373866D01*
X155688095Y-37373866D02*
X155735714Y-37564342D01*
X155735714Y-37564342D02*
X155783333Y-37659580D01*
X155783333Y-37659580D02*
X155830952Y-37707200D01*
X155830952Y-37707200D02*
X155926190Y-37754819D01*
X155926190Y-37754819D02*
X156021428Y-37754819D01*
X156021428Y-37754819D02*
X156116666Y-37707200D01*
X156116666Y-37707200D02*
X156164285Y-37659580D01*
X156164285Y-37659580D02*
X156211904Y-37564342D01*
X156211904Y-37564342D02*
X156259523Y-37373866D01*
X156259523Y-37373866D02*
X156259523Y-37135771D01*
X156259523Y-37135771D02*
X156211904Y-36945295D01*
X156211904Y-36945295D02*
X156164285Y-36850057D01*
X156164285Y-36850057D02*
X156116666Y-36802438D01*
X156116666Y-36802438D02*
X156021428Y-36754819D01*
X154216666Y-44104819D02*
X154549999Y-43628628D01*
X154788094Y-44104819D02*
X154788094Y-43104819D01*
X154788094Y-43104819D02*
X154407142Y-43104819D01*
X154407142Y-43104819D02*
X154311904Y-43152438D01*
X154311904Y-43152438D02*
X154264285Y-43200057D01*
X154264285Y-43200057D02*
X154216666Y-43295295D01*
X154216666Y-43295295D02*
X154216666Y-43438152D01*
X154216666Y-43438152D02*
X154264285Y-43533390D01*
X154264285Y-43533390D02*
X154311904Y-43581009D01*
X154311904Y-43581009D02*
X154407142Y-43628628D01*
X154407142Y-43628628D02*
X154788094Y-43628628D01*
X153883332Y-43104819D02*
X153216666Y-43104819D01*
X153216666Y-43104819D02*
X153645237Y-44104819D01*
X157692857Y-40454819D02*
X158026190Y-39978628D01*
X158264285Y-40454819D02*
X158264285Y-39454819D01*
X158264285Y-39454819D02*
X157883333Y-39454819D01*
X157883333Y-39454819D02*
X157788095Y-39502438D01*
X157788095Y-39502438D02*
X157740476Y-39550057D01*
X157740476Y-39550057D02*
X157692857Y-39645295D01*
X157692857Y-39645295D02*
X157692857Y-39788152D01*
X157692857Y-39788152D02*
X157740476Y-39883390D01*
X157740476Y-39883390D02*
X157788095Y-39931009D01*
X157788095Y-39931009D02*
X157883333Y-39978628D01*
X157883333Y-39978628D02*
X158264285Y-39978628D01*
X156740476Y-40454819D02*
X157311904Y-40454819D01*
X157026190Y-40454819D02*
X157026190Y-39454819D01*
X157026190Y-39454819D02*
X157121428Y-39597676D01*
X157121428Y-39597676D02*
X157216666Y-39692914D01*
X157216666Y-39692914D02*
X157311904Y-39740533D01*
X155788095Y-40454819D02*
X156359523Y-40454819D01*
X156073809Y-40454819D02*
X156073809Y-39454819D01*
X156073809Y-39454819D02*
X156169047Y-39597676D01*
X156169047Y-39597676D02*
X156264285Y-39692914D01*
X156264285Y-39692914D02*
X156359523Y-39740533D01*
X144442857Y-53059580D02*
X144490476Y-53107200D01*
X144490476Y-53107200D02*
X144633333Y-53154819D01*
X144633333Y-53154819D02*
X144728571Y-53154819D01*
X144728571Y-53154819D02*
X144871428Y-53107200D01*
X144871428Y-53107200D02*
X144966666Y-53011961D01*
X144966666Y-53011961D02*
X145014285Y-52916723D01*
X145014285Y-52916723D02*
X145061904Y-52726247D01*
X145061904Y-52726247D02*
X145061904Y-52583390D01*
X145061904Y-52583390D02*
X145014285Y-52392914D01*
X145014285Y-52392914D02*
X144966666Y-52297676D01*
X144966666Y-52297676D02*
X144871428Y-52202438D01*
X144871428Y-52202438D02*
X144728571Y-52154819D01*
X144728571Y-52154819D02*
X144633333Y-52154819D01*
X144633333Y-52154819D02*
X144490476Y-52202438D01*
X144490476Y-52202438D02*
X144442857Y-52250057D01*
X143490476Y-53154819D02*
X144061904Y-53154819D01*
X143776190Y-53154819D02*
X143776190Y-52154819D01*
X143776190Y-52154819D02*
X143871428Y-52297676D01*
X143871428Y-52297676D02*
X143966666Y-52392914D01*
X143966666Y-52392914D02*
X144061904Y-52440533D01*
X143157142Y-52154819D02*
X142538095Y-52154819D01*
X142538095Y-52154819D02*
X142871428Y-52535771D01*
X142871428Y-52535771D02*
X142728571Y-52535771D01*
X142728571Y-52535771D02*
X142633333Y-52583390D01*
X142633333Y-52583390D02*
X142585714Y-52631009D01*
X142585714Y-52631009D02*
X142538095Y-52726247D01*
X142538095Y-52726247D02*
X142538095Y-52964342D01*
X142538095Y-52964342D02*
X142585714Y-53059580D01*
X142585714Y-53059580D02*
X142633333Y-53107200D01*
X142633333Y-53107200D02*
X142728571Y-53154819D01*
X142728571Y-53154819D02*
X143014285Y-53154819D01*
X143014285Y-53154819D02*
X143109523Y-53107200D01*
X143109523Y-53107200D02*
X143157142Y-53059580D01*
X142409580Y-37383333D02*
X142457200Y-37335714D01*
X142457200Y-37335714D02*
X142504819Y-37192857D01*
X142504819Y-37192857D02*
X142504819Y-37097619D01*
X142504819Y-37097619D02*
X142457200Y-36954762D01*
X142457200Y-36954762D02*
X142361961Y-36859524D01*
X142361961Y-36859524D02*
X142266723Y-36811905D01*
X142266723Y-36811905D02*
X142076247Y-36764286D01*
X142076247Y-36764286D02*
X141933390Y-36764286D01*
X141933390Y-36764286D02*
X141742914Y-36811905D01*
X141742914Y-36811905D02*
X141647676Y-36859524D01*
X141647676Y-36859524D02*
X141552438Y-36954762D01*
X141552438Y-36954762D02*
X141504819Y-37097619D01*
X141504819Y-37097619D02*
X141504819Y-37192857D01*
X141504819Y-37192857D02*
X141552438Y-37335714D01*
X141552438Y-37335714D02*
X141600057Y-37383333D01*
X141838152Y-38240476D02*
X142504819Y-38240476D01*
X141457200Y-38002381D02*
X142171485Y-37764286D01*
X142171485Y-37764286D02*
X142171485Y-38383333D01*
X133929580Y-48157142D02*
X133977200Y-48109523D01*
X133977200Y-48109523D02*
X134024819Y-47966666D01*
X134024819Y-47966666D02*
X134024819Y-47871428D01*
X134024819Y-47871428D02*
X133977200Y-47728571D01*
X133977200Y-47728571D02*
X133881961Y-47633333D01*
X133881961Y-47633333D02*
X133786723Y-47585714D01*
X133786723Y-47585714D02*
X133596247Y-47538095D01*
X133596247Y-47538095D02*
X133453390Y-47538095D01*
X133453390Y-47538095D02*
X133262914Y-47585714D01*
X133262914Y-47585714D02*
X133167676Y-47633333D01*
X133167676Y-47633333D02*
X133072438Y-47728571D01*
X133072438Y-47728571D02*
X133024819Y-47871428D01*
X133024819Y-47871428D02*
X133024819Y-47966666D01*
X133024819Y-47966666D02*
X133072438Y-48109523D01*
X133072438Y-48109523D02*
X133120057Y-48157142D01*
X134024819Y-49109523D02*
X134024819Y-48538095D01*
X134024819Y-48823809D02*
X133024819Y-48823809D01*
X133024819Y-48823809D02*
X133167676Y-48728571D01*
X133167676Y-48728571D02*
X133262914Y-48633333D01*
X133262914Y-48633333D02*
X133310533Y-48538095D01*
X133120057Y-49490476D02*
X133072438Y-49538095D01*
X133072438Y-49538095D02*
X133024819Y-49633333D01*
X133024819Y-49633333D02*
X133024819Y-49871428D01*
X133024819Y-49871428D02*
X133072438Y-49966666D01*
X133072438Y-49966666D02*
X133120057Y-50014285D01*
X133120057Y-50014285D02*
X133215295Y-50061904D01*
X133215295Y-50061904D02*
X133310533Y-50061904D01*
X133310533Y-50061904D02*
X133453390Y-50014285D01*
X133453390Y-50014285D02*
X134024819Y-49442857D01*
X134024819Y-49442857D02*
X134024819Y-50061904D01*
X140569580Y-37433333D02*
X140617200Y-37385714D01*
X140617200Y-37385714D02*
X140664819Y-37242857D01*
X140664819Y-37242857D02*
X140664819Y-37147619D01*
X140664819Y-37147619D02*
X140617200Y-37004762D01*
X140617200Y-37004762D02*
X140521961Y-36909524D01*
X140521961Y-36909524D02*
X140426723Y-36861905D01*
X140426723Y-36861905D02*
X140236247Y-36814286D01*
X140236247Y-36814286D02*
X140093390Y-36814286D01*
X140093390Y-36814286D02*
X139902914Y-36861905D01*
X139902914Y-36861905D02*
X139807676Y-36909524D01*
X139807676Y-36909524D02*
X139712438Y-37004762D01*
X139712438Y-37004762D02*
X139664819Y-37147619D01*
X139664819Y-37147619D02*
X139664819Y-37242857D01*
X139664819Y-37242857D02*
X139712438Y-37385714D01*
X139712438Y-37385714D02*
X139760057Y-37433333D01*
X139664819Y-38338095D02*
X139664819Y-37861905D01*
X139664819Y-37861905D02*
X140141009Y-37814286D01*
X140141009Y-37814286D02*
X140093390Y-37861905D01*
X140093390Y-37861905D02*
X140045771Y-37957143D01*
X140045771Y-37957143D02*
X140045771Y-38195238D01*
X140045771Y-38195238D02*
X140093390Y-38290476D01*
X140093390Y-38290476D02*
X140141009Y-38338095D01*
X140141009Y-38338095D02*
X140236247Y-38385714D01*
X140236247Y-38385714D02*
X140474342Y-38385714D01*
X140474342Y-38385714D02*
X140569580Y-38338095D01*
X140569580Y-38338095D02*
X140617200Y-38290476D01*
X140617200Y-38290476D02*
X140664819Y-38195238D01*
X140664819Y-38195238D02*
X140664819Y-37957143D01*
X140664819Y-37957143D02*
X140617200Y-37861905D01*
X140617200Y-37861905D02*
X140569580Y-37814286D01*
X157666666Y-35204819D02*
X157999999Y-34728628D01*
X158238094Y-35204819D02*
X158238094Y-34204819D01*
X158238094Y-34204819D02*
X157857142Y-34204819D01*
X157857142Y-34204819D02*
X157761904Y-34252438D01*
X157761904Y-34252438D02*
X157714285Y-34300057D01*
X157714285Y-34300057D02*
X157666666Y-34395295D01*
X157666666Y-34395295D02*
X157666666Y-34538152D01*
X157666666Y-34538152D02*
X157714285Y-34633390D01*
X157714285Y-34633390D02*
X157761904Y-34681009D01*
X157761904Y-34681009D02*
X157857142Y-34728628D01*
X157857142Y-34728628D02*
X158238094Y-34728628D01*
X157190475Y-35204819D02*
X156999999Y-35204819D01*
X156999999Y-35204819D02*
X156904761Y-35157200D01*
X156904761Y-35157200D02*
X156857142Y-35109580D01*
X156857142Y-35109580D02*
X156761904Y-34966723D01*
X156761904Y-34966723D02*
X156714285Y-34776247D01*
X156714285Y-34776247D02*
X156714285Y-34395295D01*
X156714285Y-34395295D02*
X156761904Y-34300057D01*
X156761904Y-34300057D02*
X156809523Y-34252438D01*
X156809523Y-34252438D02*
X156904761Y-34204819D01*
X156904761Y-34204819D02*
X157095237Y-34204819D01*
X157095237Y-34204819D02*
X157190475Y-34252438D01*
X157190475Y-34252438D02*
X157238094Y-34300057D01*
X157238094Y-34300057D02*
X157285713Y-34395295D01*
X157285713Y-34395295D02*
X157285713Y-34633390D01*
X157285713Y-34633390D02*
X157238094Y-34728628D01*
X157238094Y-34728628D02*
X157190475Y-34776247D01*
X157190475Y-34776247D02*
X157095237Y-34823866D01*
X157095237Y-34823866D02*
X156904761Y-34823866D01*
X156904761Y-34823866D02*
X156809523Y-34776247D01*
X156809523Y-34776247D02*
X156761904Y-34728628D01*
X156761904Y-34728628D02*
X156714285Y-34633390D01*
X133492857Y-45654819D02*
X133826190Y-45178628D01*
X134064285Y-45654819D02*
X134064285Y-44654819D01*
X134064285Y-44654819D02*
X133683333Y-44654819D01*
X133683333Y-44654819D02*
X133588095Y-44702438D01*
X133588095Y-44702438D02*
X133540476Y-44750057D01*
X133540476Y-44750057D02*
X133492857Y-44845295D01*
X133492857Y-44845295D02*
X133492857Y-44988152D01*
X133492857Y-44988152D02*
X133540476Y-45083390D01*
X133540476Y-45083390D02*
X133588095Y-45131009D01*
X133588095Y-45131009D02*
X133683333Y-45178628D01*
X133683333Y-45178628D02*
X134064285Y-45178628D01*
X133111904Y-44750057D02*
X133064285Y-44702438D01*
X133064285Y-44702438D02*
X132969047Y-44654819D01*
X132969047Y-44654819D02*
X132730952Y-44654819D01*
X132730952Y-44654819D02*
X132635714Y-44702438D01*
X132635714Y-44702438D02*
X132588095Y-44750057D01*
X132588095Y-44750057D02*
X132540476Y-44845295D01*
X132540476Y-44845295D02*
X132540476Y-44940533D01*
X132540476Y-44940533D02*
X132588095Y-45083390D01*
X132588095Y-45083390D02*
X133159523Y-45654819D01*
X133159523Y-45654819D02*
X132540476Y-45654819D01*
X131921428Y-44654819D02*
X131826190Y-44654819D01*
X131826190Y-44654819D02*
X131730952Y-44702438D01*
X131730952Y-44702438D02*
X131683333Y-44750057D01*
X131683333Y-44750057D02*
X131635714Y-44845295D01*
X131635714Y-44845295D02*
X131588095Y-45035771D01*
X131588095Y-45035771D02*
X131588095Y-45273866D01*
X131588095Y-45273866D02*
X131635714Y-45464342D01*
X131635714Y-45464342D02*
X131683333Y-45559580D01*
X131683333Y-45559580D02*
X131730952Y-45607200D01*
X131730952Y-45607200D02*
X131826190Y-45654819D01*
X131826190Y-45654819D02*
X131921428Y-45654819D01*
X131921428Y-45654819D02*
X132016666Y-45607200D01*
X132016666Y-45607200D02*
X132064285Y-45559580D01*
X132064285Y-45559580D02*
X132111904Y-45464342D01*
X132111904Y-45464342D02*
X132159523Y-45273866D01*
X132159523Y-45273866D02*
X132159523Y-45035771D01*
X132159523Y-45035771D02*
X132111904Y-44845295D01*
X132111904Y-44845295D02*
X132064285Y-44750057D01*
X132064285Y-44750057D02*
X132016666Y-44702438D01*
X132016666Y-44702438D02*
X131921428Y-44654819D01*
X163942857Y-77054819D02*
X164276190Y-76578628D01*
X164514285Y-77054819D02*
X164514285Y-76054819D01*
X164514285Y-76054819D02*
X164133333Y-76054819D01*
X164133333Y-76054819D02*
X164038095Y-76102438D01*
X164038095Y-76102438D02*
X163990476Y-76150057D01*
X163990476Y-76150057D02*
X163942857Y-76245295D01*
X163942857Y-76245295D02*
X163942857Y-76388152D01*
X163942857Y-76388152D02*
X163990476Y-76483390D01*
X163990476Y-76483390D02*
X164038095Y-76531009D01*
X164038095Y-76531009D02*
X164133333Y-76578628D01*
X164133333Y-76578628D02*
X164514285Y-76578628D01*
X163561904Y-76150057D02*
X163514285Y-76102438D01*
X163514285Y-76102438D02*
X163419047Y-76054819D01*
X163419047Y-76054819D02*
X163180952Y-76054819D01*
X163180952Y-76054819D02*
X163085714Y-76102438D01*
X163085714Y-76102438D02*
X163038095Y-76150057D01*
X163038095Y-76150057D02*
X162990476Y-76245295D01*
X162990476Y-76245295D02*
X162990476Y-76340533D01*
X162990476Y-76340533D02*
X163038095Y-76483390D01*
X163038095Y-76483390D02*
X163609523Y-77054819D01*
X163609523Y-77054819D02*
X162990476Y-77054819D01*
X162657142Y-76054819D02*
X162038095Y-76054819D01*
X162038095Y-76054819D02*
X162371428Y-76435771D01*
X162371428Y-76435771D02*
X162228571Y-76435771D01*
X162228571Y-76435771D02*
X162133333Y-76483390D01*
X162133333Y-76483390D02*
X162085714Y-76531009D01*
X162085714Y-76531009D02*
X162038095Y-76626247D01*
X162038095Y-76626247D02*
X162038095Y-76864342D01*
X162038095Y-76864342D02*
X162085714Y-76959580D01*
X162085714Y-76959580D02*
X162133333Y-77007200D01*
X162133333Y-77007200D02*
X162228571Y-77054819D01*
X162228571Y-77054819D02*
X162514285Y-77054819D01*
X162514285Y-77054819D02*
X162609523Y-77007200D01*
X162609523Y-77007200D02*
X162657142Y-76959580D01*
X138809580Y-37433333D02*
X138857200Y-37385714D01*
X138857200Y-37385714D02*
X138904819Y-37242857D01*
X138904819Y-37242857D02*
X138904819Y-37147619D01*
X138904819Y-37147619D02*
X138857200Y-37004762D01*
X138857200Y-37004762D02*
X138761961Y-36909524D01*
X138761961Y-36909524D02*
X138666723Y-36861905D01*
X138666723Y-36861905D02*
X138476247Y-36814286D01*
X138476247Y-36814286D02*
X138333390Y-36814286D01*
X138333390Y-36814286D02*
X138142914Y-36861905D01*
X138142914Y-36861905D02*
X138047676Y-36909524D01*
X138047676Y-36909524D02*
X137952438Y-37004762D01*
X137952438Y-37004762D02*
X137904819Y-37147619D01*
X137904819Y-37147619D02*
X137904819Y-37242857D01*
X137904819Y-37242857D02*
X137952438Y-37385714D01*
X137952438Y-37385714D02*
X138000057Y-37433333D01*
X137904819Y-37766667D02*
X137904819Y-38385714D01*
X137904819Y-38385714D02*
X138285771Y-38052381D01*
X138285771Y-38052381D02*
X138285771Y-38195238D01*
X138285771Y-38195238D02*
X138333390Y-38290476D01*
X138333390Y-38290476D02*
X138381009Y-38338095D01*
X138381009Y-38338095D02*
X138476247Y-38385714D01*
X138476247Y-38385714D02*
X138714342Y-38385714D01*
X138714342Y-38385714D02*
X138809580Y-38338095D01*
X138809580Y-38338095D02*
X138857200Y-38290476D01*
X138857200Y-38290476D02*
X138904819Y-38195238D01*
X138904819Y-38195238D02*
X138904819Y-37909524D01*
X138904819Y-37909524D02*
X138857200Y-37814286D01*
X138857200Y-37814286D02*
X138809580Y-37766667D01*
X160842857Y-46654819D02*
X161176190Y-46178628D01*
X161414285Y-46654819D02*
X161414285Y-45654819D01*
X161414285Y-45654819D02*
X161033333Y-45654819D01*
X161033333Y-45654819D02*
X160938095Y-45702438D01*
X160938095Y-45702438D02*
X160890476Y-45750057D01*
X160890476Y-45750057D02*
X160842857Y-45845295D01*
X160842857Y-45845295D02*
X160842857Y-45988152D01*
X160842857Y-45988152D02*
X160890476Y-46083390D01*
X160890476Y-46083390D02*
X160938095Y-46131009D01*
X160938095Y-46131009D02*
X161033333Y-46178628D01*
X161033333Y-46178628D02*
X161414285Y-46178628D01*
X159890476Y-46654819D02*
X160461904Y-46654819D01*
X160176190Y-46654819D02*
X160176190Y-45654819D01*
X160176190Y-45654819D02*
X160271428Y-45797676D01*
X160271428Y-45797676D02*
X160366666Y-45892914D01*
X160366666Y-45892914D02*
X160461904Y-45940533D01*
X159509523Y-45750057D02*
X159461904Y-45702438D01*
X159461904Y-45702438D02*
X159366666Y-45654819D01*
X159366666Y-45654819D02*
X159128571Y-45654819D01*
X159128571Y-45654819D02*
X159033333Y-45702438D01*
X159033333Y-45702438D02*
X158985714Y-45750057D01*
X158985714Y-45750057D02*
X158938095Y-45845295D01*
X158938095Y-45845295D02*
X158938095Y-45940533D01*
X158938095Y-45940533D02*
X158985714Y-46083390D01*
X158985714Y-46083390D02*
X159557142Y-46654819D01*
X159557142Y-46654819D02*
X158938095Y-46654819D01*
X154116666Y-45754819D02*
X154449999Y-45278628D01*
X154688094Y-45754819D02*
X154688094Y-44754819D01*
X154688094Y-44754819D02*
X154307142Y-44754819D01*
X154307142Y-44754819D02*
X154211904Y-44802438D01*
X154211904Y-44802438D02*
X154164285Y-44850057D01*
X154164285Y-44850057D02*
X154116666Y-44945295D01*
X154116666Y-44945295D02*
X154116666Y-45088152D01*
X154116666Y-45088152D02*
X154164285Y-45183390D01*
X154164285Y-45183390D02*
X154211904Y-45231009D01*
X154211904Y-45231009D02*
X154307142Y-45278628D01*
X154307142Y-45278628D02*
X154688094Y-45278628D01*
X153545237Y-45183390D02*
X153640475Y-45135771D01*
X153640475Y-45135771D02*
X153688094Y-45088152D01*
X153688094Y-45088152D02*
X153735713Y-44992914D01*
X153735713Y-44992914D02*
X153735713Y-44945295D01*
X153735713Y-44945295D02*
X153688094Y-44850057D01*
X153688094Y-44850057D02*
X153640475Y-44802438D01*
X153640475Y-44802438D02*
X153545237Y-44754819D01*
X153545237Y-44754819D02*
X153354761Y-44754819D01*
X153354761Y-44754819D02*
X153259523Y-44802438D01*
X153259523Y-44802438D02*
X153211904Y-44850057D01*
X153211904Y-44850057D02*
X153164285Y-44945295D01*
X153164285Y-44945295D02*
X153164285Y-44992914D01*
X153164285Y-44992914D02*
X153211904Y-45088152D01*
X153211904Y-45088152D02*
X153259523Y-45135771D01*
X153259523Y-45135771D02*
X153354761Y-45183390D01*
X153354761Y-45183390D02*
X153545237Y-45183390D01*
X153545237Y-45183390D02*
X153640475Y-45231009D01*
X153640475Y-45231009D02*
X153688094Y-45278628D01*
X153688094Y-45278628D02*
X153735713Y-45373866D01*
X153735713Y-45373866D02*
X153735713Y-45564342D01*
X153735713Y-45564342D02*
X153688094Y-45659580D01*
X153688094Y-45659580D02*
X153640475Y-45707200D01*
X153640475Y-45707200D02*
X153545237Y-45754819D01*
X153545237Y-45754819D02*
X153354761Y-45754819D01*
X153354761Y-45754819D02*
X153259523Y-45707200D01*
X153259523Y-45707200D02*
X153211904Y-45659580D01*
X153211904Y-45659580D02*
X153164285Y-45564342D01*
X153164285Y-45564342D02*
X153164285Y-45373866D01*
X153164285Y-45373866D02*
X153211904Y-45278628D01*
X153211904Y-45278628D02*
X153259523Y-45231009D01*
X153259523Y-45231009D02*
X153354761Y-45183390D01*
X154191666Y-36254819D02*
X154524999Y-35778628D01*
X154763094Y-36254819D02*
X154763094Y-35254819D01*
X154763094Y-35254819D02*
X154382142Y-35254819D01*
X154382142Y-35254819D02*
X154286904Y-35302438D01*
X154286904Y-35302438D02*
X154239285Y-35350057D01*
X154239285Y-35350057D02*
X154191666Y-35445295D01*
X154191666Y-35445295D02*
X154191666Y-35588152D01*
X154191666Y-35588152D02*
X154239285Y-35683390D01*
X154239285Y-35683390D02*
X154286904Y-35731009D01*
X154286904Y-35731009D02*
X154382142Y-35778628D01*
X154382142Y-35778628D02*
X154763094Y-35778628D01*
X153239285Y-36254819D02*
X153810713Y-36254819D01*
X153524999Y-36254819D02*
X153524999Y-35254819D01*
X153524999Y-35254819D02*
X153620237Y-35397676D01*
X153620237Y-35397676D02*
X153715475Y-35492914D01*
X153715475Y-35492914D02*
X153810713Y-35540533D01*
X154166666Y-41554819D02*
X154499999Y-41078628D01*
X154738094Y-41554819D02*
X154738094Y-40554819D01*
X154738094Y-40554819D02*
X154357142Y-40554819D01*
X154357142Y-40554819D02*
X154261904Y-40602438D01*
X154261904Y-40602438D02*
X154214285Y-40650057D01*
X154214285Y-40650057D02*
X154166666Y-40745295D01*
X154166666Y-40745295D02*
X154166666Y-40888152D01*
X154166666Y-40888152D02*
X154214285Y-40983390D01*
X154214285Y-40983390D02*
X154261904Y-41031009D01*
X154261904Y-41031009D02*
X154357142Y-41078628D01*
X154357142Y-41078628D02*
X154738094Y-41078628D01*
X153309523Y-40554819D02*
X153499999Y-40554819D01*
X153499999Y-40554819D02*
X153595237Y-40602438D01*
X153595237Y-40602438D02*
X153642856Y-40650057D01*
X153642856Y-40650057D02*
X153738094Y-40792914D01*
X153738094Y-40792914D02*
X153785713Y-40983390D01*
X153785713Y-40983390D02*
X153785713Y-41364342D01*
X153785713Y-41364342D02*
X153738094Y-41459580D01*
X153738094Y-41459580D02*
X153690475Y-41507200D01*
X153690475Y-41507200D02*
X153595237Y-41554819D01*
X153595237Y-41554819D02*
X153404761Y-41554819D01*
X153404761Y-41554819D02*
X153309523Y-41507200D01*
X153309523Y-41507200D02*
X153261904Y-41459580D01*
X153261904Y-41459580D02*
X153214285Y-41364342D01*
X153214285Y-41364342D02*
X153214285Y-41126247D01*
X153214285Y-41126247D02*
X153261904Y-41031009D01*
X153261904Y-41031009D02*
X153309523Y-40983390D01*
X153309523Y-40983390D02*
X153404761Y-40935771D01*
X153404761Y-40935771D02*
X153595237Y-40935771D01*
X153595237Y-40935771D02*
X153690475Y-40983390D01*
X153690475Y-40983390D02*
X153738094Y-41031009D01*
X153738094Y-41031009D02*
X153785713Y-41126247D01*
X138709580Y-48057142D02*
X138757200Y-48009523D01*
X138757200Y-48009523D02*
X138804819Y-47866666D01*
X138804819Y-47866666D02*
X138804819Y-47771428D01*
X138804819Y-47771428D02*
X138757200Y-47628571D01*
X138757200Y-47628571D02*
X138661961Y-47533333D01*
X138661961Y-47533333D02*
X138566723Y-47485714D01*
X138566723Y-47485714D02*
X138376247Y-47438095D01*
X138376247Y-47438095D02*
X138233390Y-47438095D01*
X138233390Y-47438095D02*
X138042914Y-47485714D01*
X138042914Y-47485714D02*
X137947676Y-47533333D01*
X137947676Y-47533333D02*
X137852438Y-47628571D01*
X137852438Y-47628571D02*
X137804819Y-47771428D01*
X137804819Y-47771428D02*
X137804819Y-47866666D01*
X137804819Y-47866666D02*
X137852438Y-48009523D01*
X137852438Y-48009523D02*
X137900057Y-48057142D01*
X138804819Y-49009523D02*
X138804819Y-48438095D01*
X138804819Y-48723809D02*
X137804819Y-48723809D01*
X137804819Y-48723809D02*
X137947676Y-48628571D01*
X137947676Y-48628571D02*
X138042914Y-48533333D01*
X138042914Y-48533333D02*
X138090533Y-48438095D01*
X137804819Y-49628571D02*
X137804819Y-49723809D01*
X137804819Y-49723809D02*
X137852438Y-49819047D01*
X137852438Y-49819047D02*
X137900057Y-49866666D01*
X137900057Y-49866666D02*
X137995295Y-49914285D01*
X137995295Y-49914285D02*
X138185771Y-49961904D01*
X138185771Y-49961904D02*
X138423866Y-49961904D01*
X138423866Y-49961904D02*
X138614342Y-49914285D01*
X138614342Y-49914285D02*
X138709580Y-49866666D01*
X138709580Y-49866666D02*
X138757200Y-49819047D01*
X138757200Y-49819047D02*
X138804819Y-49723809D01*
X138804819Y-49723809D02*
X138804819Y-49628571D01*
X138804819Y-49628571D02*
X138757200Y-49533333D01*
X138757200Y-49533333D02*
X138709580Y-49485714D01*
X138709580Y-49485714D02*
X138614342Y-49438095D01*
X138614342Y-49438095D02*
X138423866Y-49390476D01*
X138423866Y-49390476D02*
X138185771Y-49390476D01*
X138185771Y-49390476D02*
X137995295Y-49438095D01*
X137995295Y-49438095D02*
X137900057Y-49485714D01*
X137900057Y-49485714D02*
X137852438Y-49533333D01*
X137852438Y-49533333D02*
X137804819Y-49628571D01*
D11*
%TO.C,R4*%
X151162742Y-48227500D02*
X151637258Y-48227500D01*
X151162742Y-49272500D02*
X151637258Y-49272500D01*
%TO.C,R3*%
X151662258Y-46477500D02*
X151187742Y-46477500D01*
X151662258Y-47522500D02*
X151187742Y-47522500D01*
%TO.C,R21*%
X136112258Y-42977500D02*
X135637742Y-42977500D01*
X136112258Y-44022500D02*
X135637742Y-44022500D01*
%TO.C,C2*%
X141590000Y-43359420D02*
X141590000Y-43640580D01*
X142610000Y-43359420D02*
X142610000Y-43640580D01*
%TO.C,R2*%
X151262742Y-36977500D02*
X151737258Y-36977500D01*
X151262742Y-38022500D02*
X151737258Y-38022500D01*
%TO.C,R5*%
X151737258Y-38777500D02*
X151262742Y-38777500D01*
X151737258Y-39822500D02*
X151262742Y-39822500D01*
%TO.C,R19*%
X134477500Y-51887742D02*
X134477500Y-52362258D01*
X135522500Y-51887742D02*
X135522500Y-52362258D01*
%TO.C,R10*%
X159862742Y-36777500D02*
X160337258Y-36777500D01*
X159862742Y-37822500D02*
X160337258Y-37822500D01*
%TO.C,R7*%
X151712258Y-43027500D02*
X151237742Y-43027500D01*
X151712258Y-44072500D02*
X151237742Y-44072500D01*
%TO.C,R11*%
X159862742Y-39327500D02*
X160337258Y-39327500D01*
X159862742Y-40372500D02*
X160337258Y-40372500D01*
%TO.C,C13*%
X140790580Y-52190000D02*
X140509420Y-52190000D01*
X140790580Y-53210000D02*
X140509420Y-53210000D01*
%TO.C,C4*%
X141540000Y-40240580D02*
X141540000Y-39959420D01*
X142560000Y-40240580D02*
X142560000Y-39959420D01*
%TO.C,C12*%
X134490000Y-48659420D02*
X134490000Y-48940580D01*
X135510000Y-48659420D02*
X135510000Y-48940580D01*
%TO.C,C5*%
X139740000Y-40240580D02*
X139740000Y-39959420D01*
X140760000Y-40240580D02*
X140760000Y-39959420D01*
%TO.C,R9*%
X159887742Y-34227500D02*
X160362258Y-34227500D01*
X159887742Y-35272500D02*
X160362258Y-35272500D01*
%TO.C,R20*%
X135637742Y-44677500D02*
X136112258Y-44677500D01*
X135637742Y-45722500D02*
X136112258Y-45722500D01*
%TO.C,R23*%
X159962742Y-75990000D02*
X160437258Y-75990000D01*
X159962742Y-77035000D02*
X160437258Y-77035000D01*
%TO.C,C3*%
X137940000Y-40265580D02*
X137940000Y-39984420D01*
X138960000Y-40265580D02*
X138960000Y-39984420D01*
%TO.C,R12*%
X159937742Y-43897500D02*
X160412258Y-43897500D01*
X159937742Y-44942500D02*
X160412258Y-44942500D01*
%TO.C,R8*%
X151212742Y-44677500D02*
X151687258Y-44677500D01*
X151212742Y-45722500D02*
X151687258Y-45722500D01*
%TO.C,R1*%
X151687258Y-35277500D02*
X151212742Y-35277500D01*
X151687258Y-36322500D02*
X151212742Y-36322500D01*
%TO.C,R6*%
X151262742Y-40527500D02*
X151737258Y-40527500D01*
X151262742Y-41572500D02*
X151737258Y-41572500D01*
%TO.C,C10*%
X136290000Y-48659420D02*
X136290000Y-48940580D01*
X137310000Y-48659420D02*
X137310000Y-48940580D01*
%TD*%
%LPC*%
D12*
%TO.C,J5*%
X139220000Y-81900000D03*
D13*
X141760000Y-81900000D03*
X144300000Y-81900000D03*
X146840000Y-81900000D03*
X149380000Y-81900000D03*
X151920000Y-81900000D03*
X154460000Y-81900000D03*
X157000000Y-81900000D03*
%TD*%
D12*
%TO.C,J6*%
X156860000Y-73912500D03*
D13*
X159400000Y-73912500D03*
X161940000Y-73912500D03*
%TD*%
D14*
%TO.C,J1*%
X150220000Y-27650000D03*
X141580000Y-27650000D03*
X150220000Y-31450000D03*
X141580000Y-31450000D03*
%TD*%
D12*
%TO.C,J11*%
X154570000Y-56350000D03*
D13*
X157110000Y-56350000D03*
X159650000Y-56350000D03*
X162190000Y-56350000D03*
%TD*%
D15*
%TO.C,H4*%
X163350000Y-81250000D03*
%TD*%
%TO.C,H2*%
X163350000Y-28750000D03*
%TD*%
D12*
%TO.C,J10*%
X129340000Y-62750000D03*
D13*
X126800000Y-62750000D03*
X124260000Y-62750000D03*
%TD*%
D16*
%TO.C,J8*%
X121750000Y-68550000D03*
D17*
X124450000Y-69550000D03*
X124450000Y-74550000D03*
D16*
X121750000Y-75550000D03*
%TD*%
D12*
%TO.C,J12*%
X130600000Y-81240000D03*
D13*
X130600000Y-78700000D03*
X130600000Y-76160000D03*
%TD*%
D15*
%TO.C,H1*%
X123900000Y-28700000D03*
%TD*%
%TO.C,H3*%
X123850000Y-81200000D03*
%TD*%
D12*
%TO.C,J3*%
X124600000Y-35700000D03*
D13*
X124600000Y-38240000D03*
%TD*%
D12*
%TO.C,J9*%
X140640000Y-62850000D03*
D13*
X138100000Y-62850000D03*
X135560000Y-62850000D03*
%TD*%
D12*
%TO.C,J4*%
X156400000Y-48625000D03*
D13*
X156400000Y-51165000D03*
%TD*%
D12*
%TO.C,J2*%
X163400000Y-49990000D03*
D13*
X163400000Y-47450000D03*
X163400000Y-44910000D03*
X163400000Y-42370000D03*
X163400000Y-39830000D03*
X163400000Y-37290000D03*
X163400000Y-34750000D03*
%TD*%
D18*
%TO.C,R4*%
X150575000Y-48750000D03*
X152225000Y-48750000D03*
%TD*%
D19*
%TO.C,R3*%
X152250000Y-47000000D03*
X150600000Y-47000000D03*
%TD*%
%TO.C,R21*%
X136700000Y-43500000D03*
X135050000Y-43500000D03*
%TD*%
D20*
%TO.C,C2*%
X142100000Y-42725000D03*
X142100000Y-44275000D03*
%TD*%
D18*
%TO.C,R2*%
X150675000Y-37500000D03*
X152325000Y-37500000D03*
%TD*%
D19*
%TO.C,R5*%
X152325000Y-39300000D03*
X150675000Y-39300000D03*
%TD*%
D21*
%TO.C,R19*%
X135000000Y-51300000D03*
X135000000Y-52950000D03*
%TD*%
D18*
%TO.C,R10*%
X159275000Y-37300000D03*
X160925000Y-37300000D03*
%TD*%
D19*
%TO.C,R7*%
X152300000Y-43550000D03*
X150650000Y-43550000D03*
%TD*%
D18*
%TO.C,R11*%
X159275000Y-39850000D03*
X160925000Y-39850000D03*
%TD*%
D22*
%TO.C,C13*%
X141425000Y-52700000D03*
X139875000Y-52700000D03*
%TD*%
D23*
%TO.C,C4*%
X142050000Y-40875000D03*
X142050000Y-39325000D03*
%TD*%
D20*
%TO.C,C12*%
X135000000Y-48025000D03*
X135000000Y-49575000D03*
%TD*%
D23*
%TO.C,C5*%
X140250000Y-40875000D03*
X140250000Y-39325000D03*
%TD*%
D18*
%TO.C,R9*%
X159300000Y-34750000D03*
X160950000Y-34750000D03*
%TD*%
%TO.C,R20*%
X135050000Y-45200000D03*
X136700000Y-45200000D03*
%TD*%
%TO.C,R23*%
X159375000Y-76512500D03*
X161025000Y-76512500D03*
%TD*%
D23*
%TO.C,C3*%
X138450000Y-40900000D03*
X138450000Y-39350000D03*
%TD*%
D18*
%TO.C,R12*%
X159350000Y-44420000D03*
X161000000Y-44420000D03*
%TD*%
%TO.C,R8*%
X150625000Y-45200000D03*
X152275000Y-45200000D03*
%TD*%
D19*
%TO.C,R1*%
X152275000Y-35800000D03*
X150625000Y-35800000D03*
%TD*%
D18*
%TO.C,R6*%
X150675000Y-41050000D03*
X152325000Y-41050000D03*
%TD*%
D20*
%TO.C,C10*%
X136800000Y-48025000D03*
X136800000Y-49575000D03*
%TD*%
%LPD*%
M02*
