%TF.GenerationSoftware,KiCad,Pcbnew,9.0.6*%
%TF.CreationDate,2026-05-04T22:58:46-07:00*%
%TF.ProjectId,Tilt_Table_PCB_Rev2,54696c74-5f54-4616-926c-655f5043425f,rev?*%
%TF.SameCoordinates,Original*%
%TF.FileFunction,Paste,Top*%
%TF.FilePolarity,Positive*%
%FSLAX46Y46*%
G04 Gerber Fmt 4.6, Leading zero omitted, Abs format (unit mm)*
G04 Created by KiCad (PCBNEW 9.0.6) date 2026-05-04 22:58:46*
%MOMM*%
%LPD*%
G01*
G04 APERTURE LIST*
G04 Aperture macros list*
%AMRoundRect*
0 Rectangle with rounded corners*
0 $1 Rounding radius*
0 $2 $3 $4 $5 $6 $7 $8 $9 X,Y pos of 4 corners*
0 Add a 4 corners polygon primitive as box body*
4,1,4,$2,$3,$4,$5,$6,$7,$8,$9,$2,$3,0*
0 Add four circle primitives for the rounded corners*
1,1,$1+$1,$2,$3*
1,1,$1+$1,$4,$5*
1,1,$1+$1,$6,$7*
1,1,$1+$1,$8,$9*
0 Add four rect primitives between the rounded corners*
20,1,$1+$1,$2,$3,$4,$5,0*
20,1,$1+$1,$4,$5,$6,$7,0*
20,1,$1+$1,$6,$7,$8,$9,0*
20,1,$1+$1,$8,$9,$2,$3,0*%
G04 Aperture macros list end*
%ADD10C,0.010000*%
%ADD11RoundRect,0.250000X-0.525000X-0.400000X0.525000X-0.400000X0.525000X0.400000X-0.525000X0.400000X0*%
%ADD12RoundRect,0.200000X-0.200000X-0.275000X0.200000X-0.275000X0.200000X0.275000X-0.200000X0.275000X0*%
%ADD13RoundRect,0.225000X-0.250000X0.225000X-0.250000X-0.225000X0.250000X-0.225000X0.250000X0.225000X0*%
%ADD14RoundRect,0.250000X0.475000X-0.250000X0.475000X0.250000X-0.475000X0.250000X-0.475000X-0.250000X0*%
%ADD15RoundRect,0.225000X0.250000X-0.225000X0.250000X0.225000X-0.250000X0.225000X-0.250000X-0.225000X0*%
%ADD16RoundRect,0.250000X-0.475000X0.250000X-0.475000X-0.250000X0.475000X-0.250000X0.475000X0.250000X0*%
%ADD17RoundRect,0.075000X0.910000X0.225000X-0.910000X0.225000X-0.910000X-0.225000X0.910000X-0.225000X0*%
%ADD18R,0.700000X1.200000*%
%ADD19R,0.760000X1.200000*%
%ADD20R,0.800000X1.200000*%
%ADD21RoundRect,0.100000X0.637500X0.100000X-0.637500X0.100000X-0.637500X-0.100000X0.637500X-0.100000X0*%
%ADD22R,2.180000X3.120000*%
%ADD23RoundRect,0.250000X0.305000X-0.305000X0.305000X0.305000X-0.305000X0.305000X-0.305000X-0.305000X0*%
%ADD24RoundRect,0.062500X0.062500X-0.337500X0.062500X0.337500X-0.062500X0.337500X-0.062500X-0.337500X0*%
%ADD25RoundRect,0.062500X0.337500X-0.062500X0.337500X0.062500X-0.337500X0.062500X-0.337500X-0.062500X0*%
%ADD26RoundRect,0.218750X-0.256250X0.218750X-0.256250X-0.218750X0.256250X-0.218750X0.256250X0.218750X0*%
%ADD27RoundRect,0.200000X-0.275000X0.200000X-0.275000X-0.200000X0.275000X-0.200000X0.275000X0.200000X0*%
%ADD28RoundRect,0.200000X0.200000X0.275000X-0.200000X0.275000X-0.200000X-0.275000X0.200000X-0.275000X0*%
%ADD29RoundRect,0.218750X0.256250X-0.218750X0.256250X0.218750X-0.256250X0.218750X-0.256250X-0.218750X0*%
%ADD30O,1.550000X0.890000*%
%ADD31O,0.950000X1.250000*%
%ADD32RoundRect,0.100000X-0.575000X0.100000X-0.575000X-0.100000X0.575000X-0.100000X0.575000X0.100000X0*%
%ADD33RoundRect,0.250000X-0.525000X0.475000X-0.525000X-0.475000X0.525000X-0.475000X0.525000X0.475000X0*%
%ADD34RoundRect,0.250000X-0.525000X0.500000X-0.525000X-0.500000X0.525000X-0.500000X0.525000X0.500000X0*%
%ADD35RoundRect,0.150000X0.587500X0.150000X-0.587500X0.150000X-0.587500X-0.150000X0.587500X-0.150000X0*%
%ADD36RoundRect,0.200000X0.275000X-0.200000X0.275000X0.200000X-0.275000X0.200000X-0.275000X-0.200000X0*%
%ADD37RoundRect,0.218750X0.218750X0.256250X-0.218750X0.256250X-0.218750X-0.256250X0.218750X-0.256250X0*%
%ADD38RoundRect,0.015000X0.760000X0.285000X-0.760000X0.285000X-0.760000X-0.285000X0.760000X-0.285000X0*%
%ADD39R,2.900000X5.400000*%
%ADD40RoundRect,0.225000X-0.225000X-0.250000X0.225000X-0.250000X0.225000X0.250000X-0.225000X0.250000X0*%
%ADD41RoundRect,0.250000X-0.250000X-0.475000X0.250000X-0.475000X0.250000X0.475000X-0.250000X0.475000X0*%
%ADD42RoundRect,0.150000X-0.512500X-0.150000X0.512500X-0.150000X0.512500X0.150000X-0.512500X0.150000X0*%
G04 APERTURE END LIST*
D10*
%TO.C,U2*%
X143705000Y-49850000D02*
X140995000Y-49850000D01*
X140995000Y-46450000D01*
X143705000Y-46450000D01*
X143705000Y-49850000D01*
G36*
X143705000Y-49850000D02*
G01*
X140995000Y-49850000D01*
X140995000Y-46450000D01*
X143705000Y-46450000D01*
X143705000Y-49850000D01*
G37*
%TD*%
D11*
%TO.C,Reset*%
X155940000Y-63300000D03*
X163900000Y-63300000D03*
X155940000Y-67800000D03*
X163900000Y-67800000D03*
%TD*%
D12*
%TO.C,R13*%
X133325000Y-28450000D03*
X134975000Y-28450000D03*
%TD*%
D13*
%TO.C,C17*%
X153800000Y-67850000D03*
X153800000Y-69400000D03*
%TD*%
D14*
%TO.C,C14*%
X124800000Y-44000000D03*
X124800000Y-42100000D03*
%TD*%
D15*
%TO.C,C16*%
X128600000Y-69875000D03*
X128600000Y-68325000D03*
%TD*%
D16*
%TO.C,C8*%
X128100000Y-36450000D03*
X128100000Y-38350000D03*
%TD*%
D17*
%TO.C,Q1*%
X137800000Y-36910000D03*
X137800000Y-35640000D03*
X137800000Y-34370000D03*
X137800000Y-33100000D03*
X132850000Y-33100000D03*
X132850000Y-34370000D03*
X132850000Y-35640000D03*
X132850000Y-36910000D03*
%TD*%
D18*
%TO.C,J1*%
X146400000Y-31530000D03*
D19*
X144380000Y-31530000D03*
D20*
X143150000Y-31530000D03*
D18*
X145400000Y-31530000D03*
D19*
X147420000Y-31530000D03*
D20*
X148650000Y-31530000D03*
%TD*%
D14*
%TO.C,C1*%
X153400000Y-32262500D03*
X153400000Y-30362500D03*
%TD*%
D21*
%TO.C,U4*%
X145825000Y-74000000D03*
X145825000Y-73350000D03*
X145825000Y-72700000D03*
X145825000Y-72050000D03*
X145825000Y-71400000D03*
X145825000Y-70750000D03*
X145825000Y-70100000D03*
X145825000Y-69450000D03*
X145825000Y-68800000D03*
X145825000Y-68150000D03*
X140100000Y-68150000D03*
X140100000Y-68800000D03*
X140100000Y-69450000D03*
X140100000Y-70100000D03*
X140100000Y-70750000D03*
X140100000Y-71400000D03*
X140100000Y-72050000D03*
X140100000Y-72700000D03*
X140100000Y-73350000D03*
X140100000Y-74000000D03*
%TD*%
D22*
%TO.C,D3*%
X138915000Y-56050000D03*
X145885000Y-56050000D03*
%TD*%
D13*
%TO.C,C7*%
X133750000Y-39675000D03*
X133750000Y-41225000D03*
%TD*%
%TO.C,C18*%
X135200000Y-68275000D03*
X135200000Y-69825000D03*
%TD*%
D23*
%TO.C,U1*%
X145410000Y-41415000D03*
X146790000Y-41415000D03*
X145410000Y-40035000D03*
X146790000Y-40035000D03*
D24*
X144850000Y-42700000D03*
X145350000Y-42700000D03*
X145850000Y-42700000D03*
X146350000Y-42700000D03*
X146850000Y-42700000D03*
X147350000Y-42700000D03*
D25*
X148075000Y-41975000D03*
X148075000Y-41475000D03*
X148075000Y-40975000D03*
X148075000Y-40475000D03*
X148075000Y-39975000D03*
X148075000Y-39475000D03*
D24*
X147350000Y-38750000D03*
X146850000Y-38750000D03*
X146350000Y-38750000D03*
X145850000Y-38750000D03*
X145350000Y-38750000D03*
X144850000Y-38750000D03*
D25*
X144125000Y-39475000D03*
X144125000Y-39975000D03*
X144125000Y-40475000D03*
X144125000Y-40975000D03*
X144125000Y-41475000D03*
X144125000Y-41975000D03*
%TD*%
D26*
%TO.C,D1*%
X156150000Y-27225000D03*
X156150000Y-28800000D03*
%TD*%
D27*
%TO.C,R14*%
X135950000Y-39625000D03*
X135950000Y-41275000D03*
%TD*%
D14*
%TO.C,C19*%
X150675000Y-72425000D03*
X150675000Y-70525000D03*
%TD*%
D28*
%TO.C,R18*%
X156825000Y-37650000D03*
X155175000Y-37650000D03*
%TD*%
D29*
%TO.C,D4*%
X147300000Y-63787500D03*
X147300000Y-62212500D03*
%TD*%
D30*
%TO.C,J8*%
X121750000Y-68550000D03*
D31*
X124450000Y-69550000D03*
X124450000Y-74550000D03*
D30*
X121750000Y-75550000D03*
D32*
X124450000Y-70750000D03*
X124450000Y-71400000D03*
X124450000Y-72050000D03*
X124450000Y-72700000D03*
X124450000Y-73350000D03*
D33*
X121750000Y-69025000D03*
D34*
X121750000Y-71050000D03*
X121750000Y-73050000D03*
D33*
X121750000Y-75075000D03*
%TD*%
D12*
%TO.C,R15*%
X137025000Y-43500000D03*
X138675000Y-43500000D03*
%TD*%
D15*
%TO.C,C20*%
X148625000Y-72450000D03*
X148625000Y-70900000D03*
%TD*%
D35*
%TO.C,Q2*%
X156450000Y-41950000D03*
X156450000Y-40050000D03*
X154575000Y-41000000D03*
%TD*%
D36*
%TO.C,R16*%
X156150000Y-32337500D03*
X156150000Y-30687500D03*
%TD*%
D37*
%TO.C,D2*%
X156787500Y-35200000D03*
X155212500Y-35200000D03*
%TD*%
D38*
%TO.C,U2*%
X145050000Y-50055000D03*
X145050000Y-48785000D03*
X145050000Y-47515000D03*
X145050000Y-46245000D03*
X139650000Y-46245000D03*
X139650000Y-47515000D03*
X139650000Y-48785000D03*
X139650000Y-50055000D03*
%TD*%
D39*
%TO.C,L1*%
X133600000Y-52750000D03*
X123900000Y-52750000D03*
%TD*%
D28*
%TO.C,R17*%
X156825000Y-44100000D03*
X155175000Y-44100000D03*
%TD*%
D40*
%TO.C,C9*%
X147825000Y-46200000D03*
X149375000Y-46200000D03*
%TD*%
D41*
%TO.C,C6*%
X133250000Y-30650000D03*
X135150000Y-30650000D03*
%TD*%
D16*
%TO.C,C11*%
X148000000Y-48650000D03*
X148000000Y-50550000D03*
%TD*%
D36*
%TO.C,R22*%
X149300000Y-63825000D03*
X149300000Y-62175000D03*
%TD*%
D42*
%TO.C,U3*%
X130625000Y-68100000D03*
X130625000Y-69050000D03*
X130625000Y-70000000D03*
X132900000Y-70000000D03*
X132900000Y-68100000D03*
%TD*%
D14*
%TO.C,C15*%
X127100000Y-44000000D03*
X127100000Y-42100000D03*
%TD*%
M02*
