%TF.GenerationSoftware,KiCad,Pcbnew,9.0.6*%
%TF.CreationDate,2026-05-04T22:58:46-07:00*%
%TF.ProjectId,Tilt_Table_PCB_Rev2,54696c74-5f54-4616-926c-655f5043425f,rev?*%
%TF.SameCoordinates,Original*%
%TF.FileFunction,Soldermask,Top*%
%TF.FilePolarity,Negative*%
%FSLAX46Y46*%
G04 Gerber Fmt 4.6, Leading zero omitted, Abs format (unit mm)*
G04 Created by KiCad (PCBNEW 9.0.6) date 2026-05-04 22:58:46*
%MOMM*%
%LPD*%
G01*
G04 APERTURE LIST*
G04 Aperture macros list*
%AMRoundRect*
0 Rectangle with rounded corners*
0 $1 Rounding radius*
0 $2 $3 $4 $5 $6 $7 $8 $9 X,Y pos of 4 corners*
0 Add a 4 corners polygon primitive as box body*
4,1,4,$2,$3,$4,$5,$6,$7,$8,$9,$2,$3,0*
0 Add four circle primitives for the rounded corners*
1,1,$1+$1,$2,$3*
1,1,$1+$1,$4,$5*
1,1,$1+$1,$6,$7*
1,1,$1+$1,$8,$9*
0 Add four rect primitives between the rounded corners*
20,1,$1+$1,$2,$3,$4,$5,0*
20,1,$1+$1,$4,$5,$6,$7,0*
20,1,$1+$1,$6,$7,$8,$9,0*
20,1,$1+$1,$8,$9,$2,$3,0*%
G04 Aperture macros list end*
%ADD10C,0.010000*%
%ADD11R,1.700000X1.700000*%
%ADD12C,1.700000*%
%ADD13RoundRect,0.250000X-0.525000X-0.400000X0.525000X-0.400000X0.525000X0.400000X-0.525000X0.400000X0*%
%ADD14RoundRect,0.200000X-0.200000X-0.275000X0.200000X-0.275000X0.200000X0.275000X-0.200000X0.275000X0*%
%ADD15RoundRect,0.225000X-0.250000X0.225000X-0.250000X-0.225000X0.250000X-0.225000X0.250000X0.225000X0*%
%ADD16RoundRect,0.250000X0.475000X-0.250000X0.475000X0.250000X-0.475000X0.250000X-0.475000X-0.250000X0*%
%ADD17RoundRect,0.225000X0.250000X-0.225000X0.250000X0.225000X-0.250000X0.225000X-0.250000X-0.225000X0*%
%ADD18RoundRect,0.250000X-0.475000X0.250000X-0.475000X-0.250000X0.475000X-0.250000X0.475000X0.250000X0*%
%ADD19RoundRect,0.100500X0.986500X0.301500X-0.986500X0.301500X-0.986500X-0.301500X0.986500X-0.301500X0*%
%ADD20O,1.252400X1.852400*%
%ADD21RoundRect,0.100000X0.637500X0.100000X-0.637500X0.100000X-0.637500X-0.100000X0.637500X-0.100000X0*%
%ADD22RoundRect,0.102000X-1.090000X-1.560000X1.090000X-1.560000X1.090000X1.560000X-1.090000X1.560000X0*%
%ADD23C,3.200000*%
%ADD24RoundRect,0.062500X0.062500X-0.337500X0.062500X0.337500X-0.062500X0.337500X-0.062500X-0.337500X0*%
%ADD25RoundRect,0.062500X0.337500X-0.062500X0.337500X0.062500X-0.337500X0.062500X-0.337500X-0.062500X0*%
%ADD26R,2.750000X2.750000*%
%ADD27RoundRect,0.218750X-0.256250X0.218750X-0.256250X-0.218750X0.256250X-0.218750X0.256250X0.218750X0*%
%ADD28RoundRect,0.200000X-0.275000X0.200000X-0.275000X-0.200000X0.275000X-0.200000X0.275000X0.200000X0*%
%ADD29RoundRect,0.200000X0.200000X0.275000X-0.200000X0.275000X-0.200000X-0.275000X0.200000X-0.275000X0*%
%ADD30RoundRect,0.218750X0.256250X-0.218750X0.256250X0.218750X-0.256250X0.218750X-0.256250X-0.218750X0*%
%ADD31RoundRect,0.100000X-0.575000X0.100000X-0.575000X-0.100000X0.575000X-0.100000X0.575000X0.100000X0*%
%ADD32O,1.550000X0.890000*%
%ADD33RoundRect,0.250000X-0.525000X0.475000X-0.525000X-0.475000X0.525000X-0.475000X0.525000X0.475000X0*%
%ADD34O,0.950000X1.250000*%
%ADD35RoundRect,0.250000X-0.525000X0.500000X-0.525000X-0.500000X0.525000X-0.500000X0.525000X0.500000X0*%
%ADD36RoundRect,0.150000X0.587500X0.150000X-0.587500X0.150000X-0.587500X-0.150000X0.587500X-0.150000X0*%
%ADD37RoundRect,0.200000X0.275000X-0.200000X0.275000X0.200000X-0.275000X0.200000X-0.275000X-0.200000X0*%
%ADD38RoundRect,0.218750X0.218750X0.256250X-0.218750X0.256250X-0.218750X-0.256250X0.218750X-0.256250X0*%
%ADD39RoundRect,0.102000X1.450000X2.700000X-1.450000X2.700000X-1.450000X-2.700000X1.450000X-2.700000X0*%
%ADD40RoundRect,0.225000X-0.225000X-0.250000X0.225000X-0.250000X0.225000X0.250000X-0.225000X0.250000X0*%
%ADD41RoundRect,0.250000X-0.250000X-0.475000X0.250000X-0.475000X0.250000X0.475000X-0.250000X0.475000X0*%
%ADD42RoundRect,0.150000X-0.512500X-0.150000X0.512500X-0.150000X0.512500X0.150000X-0.512500X0.150000X0*%
G04 APERTURE END LIST*
D10*
%TO.C,J1*%
X143613500Y-32193500D02*
X142686500Y-32193500D01*
X142686500Y-30866500D01*
X143613500Y-30866500D01*
X143613500Y-32193500D01*
G36*
X143613500Y-32193500D02*
G01*
X142686500Y-32193500D01*
X142686500Y-30866500D01*
X143613500Y-30866500D01*
X143613500Y-32193500D01*
G37*
X144823500Y-32193500D02*
X143936500Y-32193500D01*
X143936500Y-30866500D01*
X144823500Y-30866500D01*
X144823500Y-32193500D01*
G36*
X144823500Y-32193500D02*
G01*
X143936500Y-32193500D01*
X143936500Y-30866500D01*
X144823500Y-30866500D01*
X144823500Y-32193500D01*
G37*
X145813500Y-32193500D02*
X144986500Y-32193500D01*
X144986500Y-30866500D01*
X145813500Y-30866500D01*
X145813500Y-32193500D01*
G36*
X145813500Y-32193500D02*
G01*
X144986500Y-32193500D01*
X144986500Y-30866500D01*
X145813500Y-30866500D01*
X145813500Y-32193500D01*
G37*
X146813500Y-32193500D02*
X145986500Y-32193500D01*
X145986500Y-30866500D01*
X146813500Y-30866500D01*
X146813500Y-32193500D01*
G36*
X146813500Y-32193500D02*
G01*
X145986500Y-32193500D01*
X145986500Y-30866500D01*
X146813500Y-30866500D01*
X146813500Y-32193500D01*
G37*
X147863500Y-32193500D02*
X146976500Y-32193500D01*
X146976500Y-30866500D01*
X147863500Y-30866500D01*
X147863500Y-32193500D01*
G36*
X147863500Y-32193500D02*
G01*
X146976500Y-32193500D01*
X146976500Y-30866500D01*
X147863500Y-30866500D01*
X147863500Y-32193500D01*
G37*
X149113500Y-32193500D02*
X148186500Y-32193500D01*
X148186500Y-30866500D01*
X149113500Y-30866500D01*
X149113500Y-32193500D01*
G36*
X149113500Y-32193500D02*
G01*
X148186500Y-32193500D01*
X148186500Y-30866500D01*
X149113500Y-30866500D01*
X149113500Y-32193500D01*
G37*
%TO.C,U2*%
X143705000Y-49850000D02*
X140995000Y-49850000D01*
X140995000Y-46450000D01*
X143705000Y-46450000D01*
X143705000Y-49850000D01*
G36*
X143705000Y-49850000D02*
G01*
X140995000Y-49850000D01*
X140995000Y-46450000D01*
X143705000Y-46450000D01*
X143705000Y-49850000D01*
G37*
X140453000Y-45876000D02*
X140455000Y-45876000D01*
X140458000Y-45877000D01*
X140460000Y-45877000D01*
X140463000Y-45878000D01*
X140465000Y-45879000D01*
X140468000Y-45880000D01*
X140470000Y-45882000D01*
X140472000Y-45883000D01*
X140474000Y-45885000D01*
X140476000Y-45886000D01*
X140478000Y-45888000D01*
X140480000Y-45890000D01*
X140482000Y-45892000D01*
X140484000Y-45894000D01*
X140485000Y-45896000D01*
X140487000Y-45898000D01*
X140488000Y-45900000D01*
X140490000Y-45902000D01*
X140491000Y-45905000D01*
X140492000Y-45907000D01*
X140493000Y-45910000D01*
X140493000Y-45912000D01*
X140494000Y-45915000D01*
X140494000Y-45917000D01*
X140495000Y-45920000D01*
X140495000Y-45922000D01*
X140495000Y-45925000D01*
X140495000Y-46565000D01*
X140495000Y-46568000D01*
X140495000Y-46570000D01*
X140494000Y-46573000D01*
X140494000Y-46575000D01*
X140493000Y-46578000D01*
X140493000Y-46580000D01*
X140492000Y-46583000D01*
X140491000Y-46585000D01*
X140490000Y-46588000D01*
X140488000Y-46590000D01*
X140487000Y-46592000D01*
X140485000Y-46594000D01*
X140484000Y-46596000D01*
X140482000Y-46598000D01*
X140480000Y-46600000D01*
X140478000Y-46602000D01*
X140476000Y-46604000D01*
X140474000Y-46605000D01*
X140472000Y-46607000D01*
X140470000Y-46608000D01*
X140468000Y-46610000D01*
X140465000Y-46611000D01*
X140463000Y-46612000D01*
X140460000Y-46613000D01*
X140458000Y-46613000D01*
X140455000Y-46614000D01*
X140453000Y-46614000D01*
X140450000Y-46615000D01*
X140448000Y-46615000D01*
X140445000Y-46615000D01*
X138855000Y-46615000D01*
X138852000Y-46615000D01*
X138850000Y-46615000D01*
X138847000Y-46614000D01*
X138845000Y-46614000D01*
X138842000Y-46613000D01*
X138840000Y-46613000D01*
X138837000Y-46612000D01*
X138835000Y-46611000D01*
X138832000Y-46610000D01*
X138830000Y-46608000D01*
X138828000Y-46607000D01*
X138826000Y-46605000D01*
X138824000Y-46604000D01*
X138822000Y-46602000D01*
X138820000Y-46600000D01*
X138818000Y-46598000D01*
X138816000Y-46596000D01*
X138815000Y-46594000D01*
X138813000Y-46592000D01*
X138812000Y-46590000D01*
X138810000Y-46588000D01*
X138809000Y-46585000D01*
X138808000Y-46583000D01*
X138807000Y-46580000D01*
X138807000Y-46578000D01*
X138806000Y-46575000D01*
X138806000Y-46573000D01*
X138805000Y-46570000D01*
X138805000Y-46568000D01*
X138805000Y-46565000D01*
X138805000Y-45925000D01*
X138805000Y-45922000D01*
X138805000Y-45920000D01*
X138806000Y-45917000D01*
X138806000Y-45915000D01*
X138807000Y-45912000D01*
X138807000Y-45910000D01*
X138808000Y-45907000D01*
X138809000Y-45905000D01*
X138810000Y-45902000D01*
X138812000Y-45900000D01*
X138813000Y-45898000D01*
X138815000Y-45896000D01*
X138816000Y-45894000D01*
X138818000Y-45892000D01*
X138820000Y-45890000D01*
X138822000Y-45888000D01*
X138824000Y-45886000D01*
X138826000Y-45885000D01*
X138828000Y-45883000D01*
X138830000Y-45882000D01*
X138832000Y-45880000D01*
X138835000Y-45879000D01*
X138837000Y-45878000D01*
X138840000Y-45877000D01*
X138842000Y-45877000D01*
X138845000Y-45876000D01*
X138847000Y-45876000D01*
X138850000Y-45875000D01*
X138852000Y-45875000D01*
X138855000Y-45875000D01*
X140445000Y-45875000D01*
X140448000Y-45875000D01*
X140450000Y-45875000D01*
X140453000Y-45876000D01*
G36*
X140453000Y-45876000D02*
G01*
X140455000Y-45876000D01*
X140458000Y-45877000D01*
X140460000Y-45877000D01*
X140463000Y-45878000D01*
X140465000Y-45879000D01*
X140468000Y-45880000D01*
X140470000Y-45882000D01*
X140472000Y-45883000D01*
X140474000Y-45885000D01*
X140476000Y-45886000D01*
X140478000Y-45888000D01*
X140480000Y-45890000D01*
X140482000Y-45892000D01*
X140484000Y-45894000D01*
X140485000Y-45896000D01*
X140487000Y-45898000D01*
X140488000Y-45900000D01*
X140490000Y-45902000D01*
X140491000Y-45905000D01*
X140492000Y-45907000D01*
X140493000Y-45910000D01*
X140493000Y-45912000D01*
X140494000Y-45915000D01*
X140494000Y-45917000D01*
X140495000Y-45920000D01*
X140495000Y-45922000D01*
X140495000Y-45925000D01*
X140495000Y-46565000D01*
X140495000Y-46568000D01*
X140495000Y-46570000D01*
X140494000Y-46573000D01*
X140494000Y-46575000D01*
X140493000Y-46578000D01*
X140493000Y-46580000D01*
X140492000Y-46583000D01*
X140491000Y-46585000D01*
X140490000Y-46588000D01*
X140488000Y-46590000D01*
X140487000Y-46592000D01*
X140485000Y-46594000D01*
X140484000Y-46596000D01*
X140482000Y-46598000D01*
X140480000Y-46600000D01*
X140478000Y-46602000D01*
X140476000Y-46604000D01*
X140474000Y-46605000D01*
X140472000Y-46607000D01*
X140470000Y-46608000D01*
X140468000Y-46610000D01*
X140465000Y-46611000D01*
X140463000Y-46612000D01*
X140460000Y-46613000D01*
X140458000Y-46613000D01*
X140455000Y-46614000D01*
X140453000Y-46614000D01*
X140450000Y-46615000D01*
X140448000Y-46615000D01*
X140445000Y-46615000D01*
X138855000Y-46615000D01*
X138852000Y-46615000D01*
X138850000Y-46615000D01*
X138847000Y-46614000D01*
X138845000Y-46614000D01*
X138842000Y-46613000D01*
X138840000Y-46613000D01*
X138837000Y-46612000D01*
X138835000Y-46611000D01*
X138832000Y-46610000D01*
X138830000Y-46608000D01*
X138828000Y-46607000D01*
X138826000Y-46605000D01*
X138824000Y-46604000D01*
X138822000Y-46602000D01*
X138820000Y-46600000D01*
X138818000Y-46598000D01*
X138816000Y-46596000D01*
X138815000Y-46594000D01*
X138813000Y-46592000D01*
X138812000Y-46590000D01*
X138810000Y-46588000D01*
X138809000Y-46585000D01*
X138808000Y-46583000D01*
X138807000Y-46580000D01*
X138807000Y-46578000D01*
X138806000Y-46575000D01*
X138806000Y-46573000D01*
X138805000Y-46570000D01*
X138805000Y-46568000D01*
X138805000Y-46565000D01*
X138805000Y-45925000D01*
X138805000Y-45922000D01*
X138805000Y-45920000D01*
X138806000Y-45917000D01*
X138806000Y-45915000D01*
X138807000Y-45912000D01*
X138807000Y-45910000D01*
X138808000Y-45907000D01*
X138809000Y-45905000D01*
X138810000Y-45902000D01*
X138812000Y-45900000D01*
X138813000Y-45898000D01*
X138815000Y-45896000D01*
X138816000Y-45894000D01*
X138818000Y-45892000D01*
X138820000Y-45890000D01*
X138822000Y-45888000D01*
X138824000Y-45886000D01*
X138826000Y-45885000D01*
X138828000Y-45883000D01*
X138830000Y-45882000D01*
X138832000Y-45880000D01*
X138835000Y-45879000D01*
X138837000Y-45878000D01*
X138840000Y-45877000D01*
X138842000Y-45877000D01*
X138845000Y-45876000D01*
X138847000Y-45876000D01*
X138850000Y-45875000D01*
X138852000Y-45875000D01*
X138855000Y-45875000D01*
X140445000Y-45875000D01*
X140448000Y-45875000D01*
X140450000Y-45875000D01*
X140453000Y-45876000D01*
G37*
X140453000Y-47146000D02*
X140455000Y-47146000D01*
X140458000Y-47147000D01*
X140460000Y-47147000D01*
X140463000Y-47148000D01*
X140465000Y-47149000D01*
X140468000Y-47150000D01*
X140470000Y-47152000D01*
X140472000Y-47153000D01*
X140474000Y-47155000D01*
X140476000Y-47156000D01*
X140478000Y-47158000D01*
X140480000Y-47160000D01*
X140482000Y-47162000D01*
X140484000Y-47164000D01*
X140485000Y-47166000D01*
X140487000Y-47168000D01*
X140488000Y-47170000D01*
X140490000Y-47172000D01*
X140491000Y-47175000D01*
X140492000Y-47177000D01*
X140493000Y-47180000D01*
X140493000Y-47182000D01*
X140494000Y-47185000D01*
X140494000Y-47187000D01*
X140495000Y-47190000D01*
X140495000Y-47192000D01*
X140495000Y-47195000D01*
X140495000Y-47835000D01*
X140495000Y-47838000D01*
X140495000Y-47840000D01*
X140494000Y-47843000D01*
X140494000Y-47845000D01*
X140493000Y-47848000D01*
X140493000Y-47850000D01*
X140492000Y-47853000D01*
X140491000Y-47855000D01*
X140490000Y-47858000D01*
X140488000Y-47860000D01*
X140487000Y-47862000D01*
X140485000Y-47864000D01*
X140484000Y-47866000D01*
X140482000Y-47868000D01*
X140480000Y-47870000D01*
X140478000Y-47872000D01*
X140476000Y-47874000D01*
X140474000Y-47875000D01*
X140472000Y-47877000D01*
X140470000Y-47878000D01*
X140468000Y-47880000D01*
X140465000Y-47881000D01*
X140463000Y-47882000D01*
X140460000Y-47883000D01*
X140458000Y-47883000D01*
X140455000Y-47884000D01*
X140453000Y-47884000D01*
X140450000Y-47885000D01*
X140448000Y-47885000D01*
X140445000Y-47885000D01*
X138855000Y-47885000D01*
X138852000Y-47885000D01*
X138850000Y-47885000D01*
X138847000Y-47884000D01*
X138845000Y-47884000D01*
X138842000Y-47883000D01*
X138840000Y-47883000D01*
X138837000Y-47882000D01*
X138835000Y-47881000D01*
X138832000Y-47880000D01*
X138830000Y-47878000D01*
X138828000Y-47877000D01*
X138826000Y-47875000D01*
X138824000Y-47874000D01*
X138822000Y-47872000D01*
X138820000Y-47870000D01*
X138818000Y-47868000D01*
X138816000Y-47866000D01*
X138815000Y-47864000D01*
X138813000Y-47862000D01*
X138812000Y-47860000D01*
X138810000Y-47858000D01*
X138809000Y-47855000D01*
X138808000Y-47853000D01*
X138807000Y-47850000D01*
X138807000Y-47848000D01*
X138806000Y-47845000D01*
X138806000Y-47843000D01*
X138805000Y-47840000D01*
X138805000Y-47838000D01*
X138805000Y-47835000D01*
X138805000Y-47195000D01*
X138805000Y-47192000D01*
X138805000Y-47190000D01*
X138806000Y-47187000D01*
X138806000Y-47185000D01*
X138807000Y-47182000D01*
X138807000Y-47180000D01*
X138808000Y-47177000D01*
X138809000Y-47175000D01*
X138810000Y-47172000D01*
X138812000Y-47170000D01*
X138813000Y-47168000D01*
X138815000Y-47166000D01*
X138816000Y-47164000D01*
X138818000Y-47162000D01*
X138820000Y-47160000D01*
X138822000Y-47158000D01*
X138824000Y-47156000D01*
X138826000Y-47155000D01*
X138828000Y-47153000D01*
X138830000Y-47152000D01*
X138832000Y-47150000D01*
X138835000Y-47149000D01*
X138837000Y-47148000D01*
X138840000Y-47147000D01*
X138842000Y-47147000D01*
X138845000Y-47146000D01*
X138847000Y-47146000D01*
X138850000Y-47145000D01*
X138852000Y-47145000D01*
X138855000Y-47145000D01*
X140445000Y-47145000D01*
X140448000Y-47145000D01*
X140450000Y-47145000D01*
X140453000Y-47146000D01*
G36*
X140453000Y-47146000D02*
G01*
X140455000Y-47146000D01*
X140458000Y-47147000D01*
X140460000Y-47147000D01*
X140463000Y-47148000D01*
X140465000Y-47149000D01*
X140468000Y-47150000D01*
X140470000Y-47152000D01*
X140472000Y-47153000D01*
X140474000Y-47155000D01*
X140476000Y-47156000D01*
X140478000Y-47158000D01*
X140480000Y-47160000D01*
X140482000Y-47162000D01*
X140484000Y-47164000D01*
X140485000Y-47166000D01*
X140487000Y-47168000D01*
X140488000Y-47170000D01*
X140490000Y-47172000D01*
X140491000Y-47175000D01*
X140492000Y-47177000D01*
X140493000Y-47180000D01*
X140493000Y-47182000D01*
X140494000Y-47185000D01*
X140494000Y-47187000D01*
X140495000Y-47190000D01*
X140495000Y-47192000D01*
X140495000Y-47195000D01*
X140495000Y-47835000D01*
X140495000Y-47838000D01*
X140495000Y-47840000D01*
X140494000Y-47843000D01*
X140494000Y-47845000D01*
X140493000Y-47848000D01*
X140493000Y-47850000D01*
X140492000Y-47853000D01*
X140491000Y-47855000D01*
X140490000Y-47858000D01*
X140488000Y-47860000D01*
X140487000Y-47862000D01*
X140485000Y-47864000D01*
X140484000Y-47866000D01*
X140482000Y-47868000D01*
X140480000Y-47870000D01*
X140478000Y-47872000D01*
X140476000Y-47874000D01*
X140474000Y-47875000D01*
X140472000Y-47877000D01*
X140470000Y-47878000D01*
X140468000Y-47880000D01*
X140465000Y-47881000D01*
X140463000Y-47882000D01*
X140460000Y-47883000D01*
X140458000Y-47883000D01*
X140455000Y-47884000D01*
X140453000Y-47884000D01*
X140450000Y-47885000D01*
X140448000Y-47885000D01*
X140445000Y-47885000D01*
X138855000Y-47885000D01*
X138852000Y-47885000D01*
X138850000Y-47885000D01*
X138847000Y-47884000D01*
X138845000Y-47884000D01*
X138842000Y-47883000D01*
X138840000Y-47883000D01*
X138837000Y-47882000D01*
X138835000Y-47881000D01*
X138832000Y-47880000D01*
X138830000Y-47878000D01*
X138828000Y-47877000D01*
X138826000Y-47875000D01*
X138824000Y-47874000D01*
X138822000Y-47872000D01*
X138820000Y-47870000D01*
X138818000Y-47868000D01*
X138816000Y-47866000D01*
X138815000Y-47864000D01*
X138813000Y-47862000D01*
X138812000Y-47860000D01*
X138810000Y-47858000D01*
X138809000Y-47855000D01*
X138808000Y-47853000D01*
X138807000Y-47850000D01*
X138807000Y-47848000D01*
X138806000Y-47845000D01*
X138806000Y-47843000D01*
X138805000Y-47840000D01*
X138805000Y-47838000D01*
X138805000Y-47835000D01*
X138805000Y-47195000D01*
X138805000Y-47192000D01*
X138805000Y-47190000D01*
X138806000Y-47187000D01*
X138806000Y-47185000D01*
X138807000Y-47182000D01*
X138807000Y-47180000D01*
X138808000Y-47177000D01*
X138809000Y-47175000D01*
X138810000Y-47172000D01*
X138812000Y-47170000D01*
X138813000Y-47168000D01*
X138815000Y-47166000D01*
X138816000Y-47164000D01*
X138818000Y-47162000D01*
X138820000Y-47160000D01*
X138822000Y-47158000D01*
X138824000Y-47156000D01*
X138826000Y-47155000D01*
X138828000Y-47153000D01*
X138830000Y-47152000D01*
X138832000Y-47150000D01*
X138835000Y-47149000D01*
X138837000Y-47148000D01*
X138840000Y-47147000D01*
X138842000Y-47147000D01*
X138845000Y-47146000D01*
X138847000Y-47146000D01*
X138850000Y-47145000D01*
X138852000Y-47145000D01*
X138855000Y-47145000D01*
X140445000Y-47145000D01*
X140448000Y-47145000D01*
X140450000Y-47145000D01*
X140453000Y-47146000D01*
G37*
X140453000Y-48416000D02*
X140455000Y-48416000D01*
X140458000Y-48417000D01*
X140460000Y-48417000D01*
X140463000Y-48418000D01*
X140465000Y-48419000D01*
X140468000Y-48420000D01*
X140470000Y-48422000D01*
X140472000Y-48423000D01*
X140474000Y-48425000D01*
X140476000Y-48426000D01*
X140478000Y-48428000D01*
X140480000Y-48430000D01*
X140482000Y-48432000D01*
X140484000Y-48434000D01*
X140485000Y-48436000D01*
X140487000Y-48438000D01*
X140488000Y-48440000D01*
X140490000Y-48442000D01*
X140491000Y-48445000D01*
X140492000Y-48447000D01*
X140493000Y-48450000D01*
X140493000Y-48452000D01*
X140494000Y-48455000D01*
X140494000Y-48457000D01*
X140495000Y-48460000D01*
X140495000Y-48462000D01*
X140495000Y-48465000D01*
X140495000Y-49105000D01*
X140495000Y-49108000D01*
X140495000Y-49110000D01*
X140494000Y-49113000D01*
X140494000Y-49115000D01*
X140493000Y-49118000D01*
X140493000Y-49120000D01*
X140492000Y-49123000D01*
X140491000Y-49125000D01*
X140490000Y-49128000D01*
X140488000Y-49130000D01*
X140487000Y-49132000D01*
X140485000Y-49134000D01*
X140484000Y-49136000D01*
X140482000Y-49138000D01*
X140480000Y-49140000D01*
X140478000Y-49142000D01*
X140476000Y-49144000D01*
X140474000Y-49145000D01*
X140472000Y-49147000D01*
X140470000Y-49148000D01*
X140468000Y-49150000D01*
X140465000Y-49151000D01*
X140463000Y-49152000D01*
X140460000Y-49153000D01*
X140458000Y-49153000D01*
X140455000Y-49154000D01*
X140453000Y-49154000D01*
X140450000Y-49155000D01*
X140448000Y-49155000D01*
X140445000Y-49155000D01*
X138855000Y-49155000D01*
X138852000Y-49155000D01*
X138850000Y-49155000D01*
X138847000Y-49154000D01*
X138845000Y-49154000D01*
X138842000Y-49153000D01*
X138840000Y-49153000D01*
X138837000Y-49152000D01*
X138835000Y-49151000D01*
X138832000Y-49150000D01*
X138830000Y-49148000D01*
X138828000Y-49147000D01*
X138826000Y-49145000D01*
X138824000Y-49144000D01*
X138822000Y-49142000D01*
X138820000Y-49140000D01*
X138818000Y-49138000D01*
X138816000Y-49136000D01*
X138815000Y-49134000D01*
X138813000Y-49132000D01*
X138812000Y-49130000D01*
X138810000Y-49128000D01*
X138809000Y-49125000D01*
X138808000Y-49123000D01*
X138807000Y-49120000D01*
X138807000Y-49118000D01*
X138806000Y-49115000D01*
X138806000Y-49113000D01*
X138805000Y-49110000D01*
X138805000Y-49108000D01*
X138805000Y-49105000D01*
X138805000Y-48465000D01*
X138805000Y-48462000D01*
X138805000Y-48460000D01*
X138806000Y-48457000D01*
X138806000Y-48455000D01*
X138807000Y-48452000D01*
X138807000Y-48450000D01*
X138808000Y-48447000D01*
X138809000Y-48445000D01*
X138810000Y-48442000D01*
X138812000Y-48440000D01*
X138813000Y-48438000D01*
X138815000Y-48436000D01*
X138816000Y-48434000D01*
X138818000Y-48432000D01*
X138820000Y-48430000D01*
X138822000Y-48428000D01*
X138824000Y-48426000D01*
X138826000Y-48425000D01*
X138828000Y-48423000D01*
X138830000Y-48422000D01*
X138832000Y-48420000D01*
X138835000Y-48419000D01*
X138837000Y-48418000D01*
X138840000Y-48417000D01*
X138842000Y-48417000D01*
X138845000Y-48416000D01*
X138847000Y-48416000D01*
X138850000Y-48415000D01*
X138852000Y-48415000D01*
X138855000Y-48415000D01*
X140445000Y-48415000D01*
X140448000Y-48415000D01*
X140450000Y-48415000D01*
X140453000Y-48416000D01*
G36*
X140453000Y-48416000D02*
G01*
X140455000Y-48416000D01*
X140458000Y-48417000D01*
X140460000Y-48417000D01*
X140463000Y-48418000D01*
X140465000Y-48419000D01*
X140468000Y-48420000D01*
X140470000Y-48422000D01*
X140472000Y-48423000D01*
X140474000Y-48425000D01*
X140476000Y-48426000D01*
X140478000Y-48428000D01*
X140480000Y-48430000D01*
X140482000Y-48432000D01*
X140484000Y-48434000D01*
X140485000Y-48436000D01*
X140487000Y-48438000D01*
X140488000Y-48440000D01*
X140490000Y-48442000D01*
X140491000Y-48445000D01*
X140492000Y-48447000D01*
X140493000Y-48450000D01*
X140493000Y-48452000D01*
X140494000Y-48455000D01*
X140494000Y-48457000D01*
X140495000Y-48460000D01*
X140495000Y-48462000D01*
X140495000Y-48465000D01*
X140495000Y-49105000D01*
X140495000Y-49108000D01*
X140495000Y-49110000D01*
X140494000Y-49113000D01*
X140494000Y-49115000D01*
X140493000Y-49118000D01*
X140493000Y-49120000D01*
X140492000Y-49123000D01*
X140491000Y-49125000D01*
X140490000Y-49128000D01*
X140488000Y-49130000D01*
X140487000Y-49132000D01*
X140485000Y-49134000D01*
X140484000Y-49136000D01*
X140482000Y-49138000D01*
X140480000Y-49140000D01*
X140478000Y-49142000D01*
X140476000Y-49144000D01*
X140474000Y-49145000D01*
X140472000Y-49147000D01*
X140470000Y-49148000D01*
X140468000Y-49150000D01*
X140465000Y-49151000D01*
X140463000Y-49152000D01*
X140460000Y-49153000D01*
X140458000Y-49153000D01*
X140455000Y-49154000D01*
X140453000Y-49154000D01*
X140450000Y-49155000D01*
X140448000Y-49155000D01*
X140445000Y-49155000D01*
X138855000Y-49155000D01*
X138852000Y-49155000D01*
X138850000Y-49155000D01*
X138847000Y-49154000D01*
X138845000Y-49154000D01*
X138842000Y-49153000D01*
X138840000Y-49153000D01*
X138837000Y-49152000D01*
X138835000Y-49151000D01*
X138832000Y-49150000D01*
X138830000Y-49148000D01*
X138828000Y-49147000D01*
X138826000Y-49145000D01*
X138824000Y-49144000D01*
X138822000Y-49142000D01*
X138820000Y-49140000D01*
X138818000Y-49138000D01*
X138816000Y-49136000D01*
X138815000Y-49134000D01*
X138813000Y-49132000D01*
X138812000Y-49130000D01*
X138810000Y-49128000D01*
X138809000Y-49125000D01*
X138808000Y-49123000D01*
X138807000Y-49120000D01*
X138807000Y-49118000D01*
X138806000Y-49115000D01*
X138806000Y-49113000D01*
X138805000Y-49110000D01*
X138805000Y-49108000D01*
X138805000Y-49105000D01*
X138805000Y-48465000D01*
X138805000Y-48462000D01*
X138805000Y-48460000D01*
X138806000Y-48457000D01*
X138806000Y-48455000D01*
X138807000Y-48452000D01*
X138807000Y-48450000D01*
X138808000Y-48447000D01*
X138809000Y-48445000D01*
X138810000Y-48442000D01*
X138812000Y-48440000D01*
X138813000Y-48438000D01*
X138815000Y-48436000D01*
X138816000Y-48434000D01*
X138818000Y-48432000D01*
X138820000Y-48430000D01*
X138822000Y-48428000D01*
X138824000Y-48426000D01*
X138826000Y-48425000D01*
X138828000Y-48423000D01*
X138830000Y-48422000D01*
X138832000Y-48420000D01*
X138835000Y-48419000D01*
X138837000Y-48418000D01*
X138840000Y-48417000D01*
X138842000Y-48417000D01*
X138845000Y-48416000D01*
X138847000Y-48416000D01*
X138850000Y-48415000D01*
X138852000Y-48415000D01*
X138855000Y-48415000D01*
X140445000Y-48415000D01*
X140448000Y-48415000D01*
X140450000Y-48415000D01*
X140453000Y-48416000D01*
G37*
X140453000Y-49686000D02*
X140455000Y-49686000D01*
X140458000Y-49687000D01*
X140460000Y-49687000D01*
X140463000Y-49688000D01*
X140465000Y-49689000D01*
X140468000Y-49690000D01*
X140470000Y-49692000D01*
X140472000Y-49693000D01*
X140474000Y-49695000D01*
X140476000Y-49696000D01*
X140478000Y-49698000D01*
X140480000Y-49700000D01*
X140482000Y-49702000D01*
X140484000Y-49704000D01*
X140485000Y-49706000D01*
X140487000Y-49708000D01*
X140488000Y-49710000D01*
X140490000Y-49712000D01*
X140491000Y-49715000D01*
X140492000Y-49717000D01*
X140493000Y-49720000D01*
X140493000Y-49722000D01*
X140494000Y-49725000D01*
X140494000Y-49727000D01*
X140495000Y-49730000D01*
X140495000Y-49732000D01*
X140495000Y-49735000D01*
X140495000Y-50375000D01*
X140495000Y-50378000D01*
X140495000Y-50380000D01*
X140494000Y-50383000D01*
X140494000Y-50385000D01*
X140493000Y-50388000D01*
X140493000Y-50390000D01*
X140492000Y-50393000D01*
X140491000Y-50395000D01*
X140490000Y-50398000D01*
X140488000Y-50400000D01*
X140487000Y-50402000D01*
X140485000Y-50404000D01*
X140484000Y-50406000D01*
X140482000Y-50408000D01*
X140480000Y-50410000D01*
X140478000Y-50412000D01*
X140476000Y-50414000D01*
X140474000Y-50415000D01*
X140472000Y-50417000D01*
X140470000Y-50418000D01*
X140468000Y-50420000D01*
X140465000Y-50421000D01*
X140463000Y-50422000D01*
X140460000Y-50423000D01*
X140458000Y-50423000D01*
X140455000Y-50424000D01*
X140453000Y-50424000D01*
X140450000Y-50425000D01*
X140448000Y-50425000D01*
X140445000Y-50425000D01*
X138855000Y-50425000D01*
X138852000Y-50425000D01*
X138850000Y-50425000D01*
X138847000Y-50424000D01*
X138845000Y-50424000D01*
X138842000Y-50423000D01*
X138840000Y-50423000D01*
X138837000Y-50422000D01*
X138835000Y-50421000D01*
X138832000Y-50420000D01*
X138830000Y-50418000D01*
X138828000Y-50417000D01*
X138826000Y-50415000D01*
X138824000Y-50414000D01*
X138822000Y-50412000D01*
X138820000Y-50410000D01*
X138818000Y-50408000D01*
X138816000Y-50406000D01*
X138815000Y-50404000D01*
X138813000Y-50402000D01*
X138812000Y-50400000D01*
X138810000Y-50398000D01*
X138809000Y-50395000D01*
X138808000Y-50393000D01*
X138807000Y-50390000D01*
X138807000Y-50388000D01*
X138806000Y-50385000D01*
X138806000Y-50383000D01*
X138805000Y-50380000D01*
X138805000Y-50378000D01*
X138805000Y-50375000D01*
X138805000Y-49735000D01*
X138805000Y-49732000D01*
X138805000Y-49730000D01*
X138806000Y-49727000D01*
X138806000Y-49725000D01*
X138807000Y-49722000D01*
X138807000Y-49720000D01*
X138808000Y-49717000D01*
X138809000Y-49715000D01*
X138810000Y-49712000D01*
X138812000Y-49710000D01*
X138813000Y-49708000D01*
X138815000Y-49706000D01*
X138816000Y-49704000D01*
X138818000Y-49702000D01*
X138820000Y-49700000D01*
X138822000Y-49698000D01*
X138824000Y-49696000D01*
X138826000Y-49695000D01*
X138828000Y-49693000D01*
X138830000Y-49692000D01*
X138832000Y-49690000D01*
X138835000Y-49689000D01*
X138837000Y-49688000D01*
X138840000Y-49687000D01*
X138842000Y-49687000D01*
X138845000Y-49686000D01*
X138847000Y-49686000D01*
X138850000Y-49685000D01*
X138852000Y-49685000D01*
X138855000Y-49685000D01*
X140445000Y-49685000D01*
X140448000Y-49685000D01*
X140450000Y-49685000D01*
X140453000Y-49686000D01*
G36*
X140453000Y-49686000D02*
G01*
X140455000Y-49686000D01*
X140458000Y-49687000D01*
X140460000Y-49687000D01*
X140463000Y-49688000D01*
X140465000Y-49689000D01*
X140468000Y-49690000D01*
X140470000Y-49692000D01*
X140472000Y-49693000D01*
X140474000Y-49695000D01*
X140476000Y-49696000D01*
X140478000Y-49698000D01*
X140480000Y-49700000D01*
X140482000Y-49702000D01*
X140484000Y-49704000D01*
X140485000Y-49706000D01*
X140487000Y-49708000D01*
X140488000Y-49710000D01*
X140490000Y-49712000D01*
X140491000Y-49715000D01*
X140492000Y-49717000D01*
X140493000Y-49720000D01*
X140493000Y-49722000D01*
X140494000Y-49725000D01*
X140494000Y-49727000D01*
X140495000Y-49730000D01*
X140495000Y-49732000D01*
X140495000Y-49735000D01*
X140495000Y-50375000D01*
X140495000Y-50378000D01*
X140495000Y-50380000D01*
X140494000Y-50383000D01*
X140494000Y-50385000D01*
X140493000Y-50388000D01*
X140493000Y-50390000D01*
X140492000Y-50393000D01*
X140491000Y-50395000D01*
X140490000Y-50398000D01*
X140488000Y-50400000D01*
X140487000Y-50402000D01*
X140485000Y-50404000D01*
X140484000Y-50406000D01*
X140482000Y-50408000D01*
X140480000Y-50410000D01*
X140478000Y-50412000D01*
X140476000Y-50414000D01*
X140474000Y-50415000D01*
X140472000Y-50417000D01*
X140470000Y-50418000D01*
X140468000Y-50420000D01*
X140465000Y-50421000D01*
X140463000Y-50422000D01*
X140460000Y-50423000D01*
X140458000Y-50423000D01*
X140455000Y-50424000D01*
X140453000Y-50424000D01*
X140450000Y-50425000D01*
X140448000Y-50425000D01*
X140445000Y-50425000D01*
X138855000Y-50425000D01*
X138852000Y-50425000D01*
X138850000Y-50425000D01*
X138847000Y-50424000D01*
X138845000Y-50424000D01*
X138842000Y-50423000D01*
X138840000Y-50423000D01*
X138837000Y-50422000D01*
X138835000Y-50421000D01*
X138832000Y-50420000D01*
X138830000Y-50418000D01*
X138828000Y-50417000D01*
X138826000Y-50415000D01*
X138824000Y-50414000D01*
X138822000Y-50412000D01*
X138820000Y-50410000D01*
X138818000Y-50408000D01*
X138816000Y-50406000D01*
X138815000Y-50404000D01*
X138813000Y-50402000D01*
X138812000Y-50400000D01*
X138810000Y-50398000D01*
X138809000Y-50395000D01*
X138808000Y-50393000D01*
X138807000Y-50390000D01*
X138807000Y-50388000D01*
X138806000Y-50385000D01*
X138806000Y-50383000D01*
X138805000Y-50380000D01*
X138805000Y-50378000D01*
X138805000Y-50375000D01*
X138805000Y-49735000D01*
X138805000Y-49732000D01*
X138805000Y-49730000D01*
X138806000Y-49727000D01*
X138806000Y-49725000D01*
X138807000Y-49722000D01*
X138807000Y-49720000D01*
X138808000Y-49717000D01*
X138809000Y-49715000D01*
X138810000Y-49712000D01*
X138812000Y-49710000D01*
X138813000Y-49708000D01*
X138815000Y-49706000D01*
X138816000Y-49704000D01*
X138818000Y-49702000D01*
X138820000Y-49700000D01*
X138822000Y-49698000D01*
X138824000Y-49696000D01*
X138826000Y-49695000D01*
X138828000Y-49693000D01*
X138830000Y-49692000D01*
X138832000Y-49690000D01*
X138835000Y-49689000D01*
X138837000Y-49688000D01*
X138840000Y-49687000D01*
X138842000Y-49687000D01*
X138845000Y-49686000D01*
X138847000Y-49686000D01*
X138850000Y-49685000D01*
X138852000Y-49685000D01*
X138855000Y-49685000D01*
X140445000Y-49685000D01*
X140448000Y-49685000D01*
X140450000Y-49685000D01*
X140453000Y-49686000D01*
G37*
X145853000Y-45876000D02*
X145855000Y-45876000D01*
X145858000Y-45877000D01*
X145860000Y-45877000D01*
X145863000Y-45878000D01*
X145865000Y-45879000D01*
X145868000Y-45880000D01*
X145870000Y-45882000D01*
X145872000Y-45883000D01*
X145874000Y-45885000D01*
X145876000Y-45886000D01*
X145878000Y-45888000D01*
X145880000Y-45890000D01*
X145882000Y-45892000D01*
X145884000Y-45894000D01*
X145885000Y-45896000D01*
X145887000Y-45898000D01*
X145888000Y-45900000D01*
X145890000Y-45902000D01*
X145891000Y-45905000D01*
X145892000Y-45907000D01*
X145893000Y-45910000D01*
X145893000Y-45912000D01*
X145894000Y-45915000D01*
X145894000Y-45917000D01*
X145895000Y-45920000D01*
X145895000Y-45922000D01*
X145895000Y-45925000D01*
X145895000Y-46565000D01*
X145895000Y-46568000D01*
X145895000Y-46570000D01*
X145894000Y-46573000D01*
X145894000Y-46575000D01*
X145893000Y-46578000D01*
X145893000Y-46580000D01*
X145892000Y-46583000D01*
X145891000Y-46585000D01*
X145890000Y-46588000D01*
X145888000Y-46590000D01*
X145887000Y-46592000D01*
X145885000Y-46594000D01*
X145884000Y-46596000D01*
X145882000Y-46598000D01*
X145880000Y-46600000D01*
X145878000Y-46602000D01*
X145876000Y-46604000D01*
X145874000Y-46605000D01*
X145872000Y-46607000D01*
X145870000Y-46608000D01*
X145868000Y-46610000D01*
X145865000Y-46611000D01*
X145863000Y-46612000D01*
X145860000Y-46613000D01*
X145858000Y-46613000D01*
X145855000Y-46614000D01*
X145853000Y-46614000D01*
X145850000Y-46615000D01*
X145848000Y-46615000D01*
X145845000Y-46615000D01*
X144255000Y-46615000D01*
X144252000Y-46615000D01*
X144250000Y-46615000D01*
X144247000Y-46614000D01*
X144245000Y-46614000D01*
X144242000Y-46613000D01*
X144240000Y-46613000D01*
X144237000Y-46612000D01*
X144235000Y-46611000D01*
X144232000Y-46610000D01*
X144230000Y-46608000D01*
X144228000Y-46607000D01*
X144226000Y-46605000D01*
X144224000Y-46604000D01*
X144222000Y-46602000D01*
X144220000Y-46600000D01*
X144218000Y-46598000D01*
X144216000Y-46596000D01*
X144215000Y-46594000D01*
X144213000Y-46592000D01*
X144212000Y-46590000D01*
X144210000Y-46588000D01*
X144209000Y-46585000D01*
X144208000Y-46583000D01*
X144207000Y-46580000D01*
X144207000Y-46578000D01*
X144206000Y-46575000D01*
X144206000Y-46573000D01*
X144205000Y-46570000D01*
X144205000Y-46568000D01*
X144205000Y-46565000D01*
X144205000Y-45925000D01*
X144205000Y-45922000D01*
X144205000Y-45920000D01*
X144206000Y-45917000D01*
X144206000Y-45915000D01*
X144207000Y-45912000D01*
X144207000Y-45910000D01*
X144208000Y-45907000D01*
X144209000Y-45905000D01*
X144210000Y-45902000D01*
X144212000Y-45900000D01*
X144213000Y-45898000D01*
X144215000Y-45896000D01*
X144216000Y-45894000D01*
X144218000Y-45892000D01*
X144220000Y-45890000D01*
X144222000Y-45888000D01*
X144224000Y-45886000D01*
X144226000Y-45885000D01*
X144228000Y-45883000D01*
X144230000Y-45882000D01*
X144232000Y-45880000D01*
X144235000Y-45879000D01*
X144237000Y-45878000D01*
X144240000Y-45877000D01*
X144242000Y-45877000D01*
X144245000Y-45876000D01*
X144247000Y-45876000D01*
X144250000Y-45875000D01*
X144252000Y-45875000D01*
X144255000Y-45875000D01*
X145845000Y-45875000D01*
X145848000Y-45875000D01*
X145850000Y-45875000D01*
X145853000Y-45876000D01*
G36*
X145853000Y-45876000D02*
G01*
X145855000Y-45876000D01*
X145858000Y-45877000D01*
X145860000Y-45877000D01*
X145863000Y-45878000D01*
X145865000Y-45879000D01*
X145868000Y-45880000D01*
X145870000Y-45882000D01*
X145872000Y-45883000D01*
X145874000Y-45885000D01*
X145876000Y-45886000D01*
X145878000Y-45888000D01*
X145880000Y-45890000D01*
X145882000Y-45892000D01*
X145884000Y-45894000D01*
X145885000Y-45896000D01*
X145887000Y-45898000D01*
X145888000Y-45900000D01*
X145890000Y-45902000D01*
X145891000Y-45905000D01*
X145892000Y-45907000D01*
X145893000Y-45910000D01*
X145893000Y-45912000D01*
X145894000Y-45915000D01*
X145894000Y-45917000D01*
X145895000Y-45920000D01*
X145895000Y-45922000D01*
X145895000Y-45925000D01*
X145895000Y-46565000D01*
X145895000Y-46568000D01*
X145895000Y-46570000D01*
X145894000Y-46573000D01*
X145894000Y-46575000D01*
X145893000Y-46578000D01*
X145893000Y-46580000D01*
X145892000Y-46583000D01*
X145891000Y-46585000D01*
X145890000Y-46588000D01*
X145888000Y-46590000D01*
X145887000Y-46592000D01*
X145885000Y-46594000D01*
X145884000Y-46596000D01*
X145882000Y-46598000D01*
X145880000Y-46600000D01*
X145878000Y-46602000D01*
X145876000Y-46604000D01*
X145874000Y-46605000D01*
X145872000Y-46607000D01*
X145870000Y-46608000D01*
X145868000Y-46610000D01*
X145865000Y-46611000D01*
X145863000Y-46612000D01*
X145860000Y-46613000D01*
X145858000Y-46613000D01*
X145855000Y-46614000D01*
X145853000Y-46614000D01*
X145850000Y-46615000D01*
X145848000Y-46615000D01*
X145845000Y-46615000D01*
X144255000Y-46615000D01*
X144252000Y-46615000D01*
X144250000Y-46615000D01*
X144247000Y-46614000D01*
X144245000Y-46614000D01*
X144242000Y-46613000D01*
X144240000Y-46613000D01*
X144237000Y-46612000D01*
X144235000Y-46611000D01*
X144232000Y-46610000D01*
X144230000Y-46608000D01*
X144228000Y-46607000D01*
X144226000Y-46605000D01*
X144224000Y-46604000D01*
X144222000Y-46602000D01*
X144220000Y-46600000D01*
X144218000Y-46598000D01*
X144216000Y-46596000D01*
X144215000Y-46594000D01*
X144213000Y-46592000D01*
X144212000Y-46590000D01*
X144210000Y-46588000D01*
X144209000Y-46585000D01*
X144208000Y-46583000D01*
X144207000Y-46580000D01*
X144207000Y-46578000D01*
X144206000Y-46575000D01*
X144206000Y-46573000D01*
X144205000Y-46570000D01*
X144205000Y-46568000D01*
X144205000Y-46565000D01*
X144205000Y-45925000D01*
X144205000Y-45922000D01*
X144205000Y-45920000D01*
X144206000Y-45917000D01*
X144206000Y-45915000D01*
X144207000Y-45912000D01*
X144207000Y-45910000D01*
X144208000Y-45907000D01*
X144209000Y-45905000D01*
X144210000Y-45902000D01*
X144212000Y-45900000D01*
X144213000Y-45898000D01*
X144215000Y-45896000D01*
X144216000Y-45894000D01*
X144218000Y-45892000D01*
X144220000Y-45890000D01*
X144222000Y-45888000D01*
X144224000Y-45886000D01*
X144226000Y-45885000D01*
X144228000Y-45883000D01*
X144230000Y-45882000D01*
X144232000Y-45880000D01*
X144235000Y-45879000D01*
X144237000Y-45878000D01*
X144240000Y-45877000D01*
X144242000Y-45877000D01*
X144245000Y-45876000D01*
X144247000Y-45876000D01*
X144250000Y-45875000D01*
X144252000Y-45875000D01*
X144255000Y-45875000D01*
X145845000Y-45875000D01*
X145848000Y-45875000D01*
X145850000Y-45875000D01*
X145853000Y-45876000D01*
G37*
X145853000Y-47146000D02*
X145855000Y-47146000D01*
X145858000Y-47147000D01*
X145860000Y-47147000D01*
X145863000Y-47148000D01*
X145865000Y-47149000D01*
X145868000Y-47150000D01*
X145870000Y-47152000D01*
X145872000Y-47153000D01*
X145874000Y-47155000D01*
X145876000Y-47156000D01*
X145878000Y-47158000D01*
X145880000Y-47160000D01*
X145882000Y-47162000D01*
X145884000Y-47164000D01*
X145885000Y-47166000D01*
X145887000Y-47168000D01*
X145888000Y-47170000D01*
X145890000Y-47172000D01*
X145891000Y-47175000D01*
X145892000Y-47177000D01*
X145893000Y-47180000D01*
X145893000Y-47182000D01*
X145894000Y-47185000D01*
X145894000Y-47187000D01*
X145895000Y-47190000D01*
X145895000Y-47192000D01*
X145895000Y-47195000D01*
X145895000Y-47835000D01*
X145895000Y-47838000D01*
X145895000Y-47840000D01*
X145894000Y-47843000D01*
X145894000Y-47845000D01*
X145893000Y-47848000D01*
X145893000Y-47850000D01*
X145892000Y-47853000D01*
X145891000Y-47855000D01*
X145890000Y-47858000D01*
X145888000Y-47860000D01*
X145887000Y-47862000D01*
X145885000Y-47864000D01*
X145884000Y-47866000D01*
X145882000Y-47868000D01*
X145880000Y-47870000D01*
X145878000Y-47872000D01*
X145876000Y-47874000D01*
X145874000Y-47875000D01*
X145872000Y-47877000D01*
X145870000Y-47878000D01*
X145868000Y-47880000D01*
X145865000Y-47881000D01*
X145863000Y-47882000D01*
X145860000Y-47883000D01*
X145858000Y-47883000D01*
X145855000Y-47884000D01*
X145853000Y-47884000D01*
X145850000Y-47885000D01*
X145848000Y-47885000D01*
X145845000Y-47885000D01*
X144255000Y-47885000D01*
X144252000Y-47885000D01*
X144250000Y-47885000D01*
X144247000Y-47884000D01*
X144245000Y-47884000D01*
X144242000Y-47883000D01*
X144240000Y-47883000D01*
X144237000Y-47882000D01*
X144235000Y-47881000D01*
X144232000Y-47880000D01*
X144230000Y-47878000D01*
X144228000Y-47877000D01*
X144226000Y-47875000D01*
X144224000Y-47874000D01*
X144222000Y-47872000D01*
X144220000Y-47870000D01*
X144218000Y-47868000D01*
X144216000Y-47866000D01*
X144215000Y-47864000D01*
X144213000Y-47862000D01*
X144212000Y-47860000D01*
X144210000Y-47858000D01*
X144209000Y-47855000D01*
X144208000Y-47853000D01*
X144207000Y-47850000D01*
X144207000Y-47848000D01*
X144206000Y-47845000D01*
X144206000Y-47843000D01*
X144205000Y-47840000D01*
X144205000Y-47838000D01*
X144205000Y-47835000D01*
X144205000Y-47195000D01*
X144205000Y-47192000D01*
X144205000Y-47190000D01*
X144206000Y-47187000D01*
X144206000Y-47185000D01*
X144207000Y-47182000D01*
X144207000Y-47180000D01*
X144208000Y-47177000D01*
X144209000Y-47175000D01*
X144210000Y-47172000D01*
X144212000Y-47170000D01*
X144213000Y-47168000D01*
X144215000Y-47166000D01*
X144216000Y-47164000D01*
X144218000Y-47162000D01*
X144220000Y-47160000D01*
X144222000Y-47158000D01*
X144224000Y-47156000D01*
X144226000Y-47155000D01*
X144228000Y-47153000D01*
X144230000Y-47152000D01*
X144232000Y-47150000D01*
X144235000Y-47149000D01*
X144237000Y-47148000D01*
X144240000Y-47147000D01*
X144242000Y-47147000D01*
X144245000Y-47146000D01*
X144247000Y-47146000D01*
X144250000Y-47145000D01*
X144252000Y-47145000D01*
X144255000Y-47145000D01*
X145845000Y-47145000D01*
X145848000Y-47145000D01*
X145850000Y-47145000D01*
X145853000Y-47146000D01*
G36*
X145853000Y-47146000D02*
G01*
X145855000Y-47146000D01*
X145858000Y-47147000D01*
X145860000Y-47147000D01*
X145863000Y-47148000D01*
X145865000Y-47149000D01*
X145868000Y-47150000D01*
X145870000Y-47152000D01*
X145872000Y-47153000D01*
X145874000Y-47155000D01*
X145876000Y-47156000D01*
X145878000Y-47158000D01*
X145880000Y-47160000D01*
X145882000Y-47162000D01*
X145884000Y-47164000D01*
X145885000Y-47166000D01*
X145887000Y-47168000D01*
X145888000Y-47170000D01*
X145890000Y-47172000D01*
X145891000Y-47175000D01*
X145892000Y-47177000D01*
X145893000Y-47180000D01*
X145893000Y-47182000D01*
X145894000Y-47185000D01*
X145894000Y-47187000D01*
X145895000Y-47190000D01*
X145895000Y-47192000D01*
X145895000Y-47195000D01*
X145895000Y-47835000D01*
X145895000Y-47838000D01*
X145895000Y-47840000D01*
X145894000Y-47843000D01*
X145894000Y-47845000D01*
X145893000Y-47848000D01*
X145893000Y-47850000D01*
X145892000Y-47853000D01*
X145891000Y-47855000D01*
X145890000Y-47858000D01*
X145888000Y-47860000D01*
X145887000Y-47862000D01*
X145885000Y-47864000D01*
X145884000Y-47866000D01*
X145882000Y-47868000D01*
X145880000Y-47870000D01*
X145878000Y-47872000D01*
X145876000Y-47874000D01*
X145874000Y-47875000D01*
X145872000Y-47877000D01*
X145870000Y-47878000D01*
X145868000Y-47880000D01*
X145865000Y-47881000D01*
X145863000Y-47882000D01*
X145860000Y-47883000D01*
X145858000Y-47883000D01*
X145855000Y-47884000D01*
X145853000Y-47884000D01*
X145850000Y-47885000D01*
X145848000Y-47885000D01*
X145845000Y-47885000D01*
X144255000Y-47885000D01*
X144252000Y-47885000D01*
X144250000Y-47885000D01*
X144247000Y-47884000D01*
X144245000Y-47884000D01*
X144242000Y-47883000D01*
X144240000Y-47883000D01*
X144237000Y-47882000D01*
X144235000Y-47881000D01*
X144232000Y-47880000D01*
X144230000Y-47878000D01*
X144228000Y-47877000D01*
X144226000Y-47875000D01*
X144224000Y-47874000D01*
X144222000Y-47872000D01*
X144220000Y-47870000D01*
X144218000Y-47868000D01*
X144216000Y-47866000D01*
X144215000Y-47864000D01*
X144213000Y-47862000D01*
X144212000Y-47860000D01*
X144210000Y-47858000D01*
X144209000Y-47855000D01*
X144208000Y-47853000D01*
X144207000Y-47850000D01*
X144207000Y-47848000D01*
X144206000Y-47845000D01*
X144206000Y-47843000D01*
X144205000Y-47840000D01*
X144205000Y-47838000D01*
X144205000Y-47835000D01*
X144205000Y-47195000D01*
X144205000Y-47192000D01*
X144205000Y-47190000D01*
X144206000Y-47187000D01*
X144206000Y-47185000D01*
X144207000Y-47182000D01*
X144207000Y-47180000D01*
X144208000Y-47177000D01*
X144209000Y-47175000D01*
X144210000Y-47172000D01*
X144212000Y-47170000D01*
X144213000Y-47168000D01*
X144215000Y-47166000D01*
X144216000Y-47164000D01*
X144218000Y-47162000D01*
X144220000Y-47160000D01*
X144222000Y-47158000D01*
X144224000Y-47156000D01*
X144226000Y-47155000D01*
X144228000Y-47153000D01*
X144230000Y-47152000D01*
X144232000Y-47150000D01*
X144235000Y-47149000D01*
X144237000Y-47148000D01*
X144240000Y-47147000D01*
X144242000Y-47147000D01*
X144245000Y-47146000D01*
X144247000Y-47146000D01*
X144250000Y-47145000D01*
X144252000Y-47145000D01*
X144255000Y-47145000D01*
X145845000Y-47145000D01*
X145848000Y-47145000D01*
X145850000Y-47145000D01*
X145853000Y-47146000D01*
G37*
X145853000Y-48416000D02*
X145855000Y-48416000D01*
X145858000Y-48417000D01*
X145860000Y-48417000D01*
X145863000Y-48418000D01*
X145865000Y-48419000D01*
X145868000Y-48420000D01*
X145870000Y-48422000D01*
X145872000Y-48423000D01*
X145874000Y-48425000D01*
X145876000Y-48426000D01*
X145878000Y-48428000D01*
X145880000Y-48430000D01*
X145882000Y-48432000D01*
X145884000Y-48434000D01*
X145885000Y-48436000D01*
X145887000Y-48438000D01*
X145888000Y-48440000D01*
X145890000Y-48442000D01*
X145891000Y-48445000D01*
X145892000Y-48447000D01*
X145893000Y-48450000D01*
X145893000Y-48452000D01*
X145894000Y-48455000D01*
X145894000Y-48457000D01*
X145895000Y-48460000D01*
X145895000Y-48462000D01*
X145895000Y-48465000D01*
X145895000Y-49105000D01*
X145895000Y-49108000D01*
X145895000Y-49110000D01*
X145894000Y-49113000D01*
X145894000Y-49115000D01*
X145893000Y-49118000D01*
X145893000Y-49120000D01*
X145892000Y-49123000D01*
X145891000Y-49125000D01*
X145890000Y-49128000D01*
X145888000Y-49130000D01*
X145887000Y-49132000D01*
X145885000Y-49134000D01*
X145884000Y-49136000D01*
X145882000Y-49138000D01*
X145880000Y-49140000D01*
X145878000Y-49142000D01*
X145876000Y-49144000D01*
X145874000Y-49145000D01*
X145872000Y-49147000D01*
X145870000Y-49148000D01*
X145868000Y-49150000D01*
X145865000Y-49151000D01*
X145863000Y-49152000D01*
X145860000Y-49153000D01*
X145858000Y-49153000D01*
X145855000Y-49154000D01*
X145853000Y-49154000D01*
X145850000Y-49155000D01*
X145848000Y-49155000D01*
X145845000Y-49155000D01*
X144255000Y-49155000D01*
X144252000Y-49155000D01*
X144250000Y-49155000D01*
X144247000Y-49154000D01*
X144245000Y-49154000D01*
X144242000Y-49153000D01*
X144240000Y-49153000D01*
X144237000Y-49152000D01*
X144235000Y-49151000D01*
X144232000Y-49150000D01*
X144230000Y-49148000D01*
X144228000Y-49147000D01*
X144226000Y-49145000D01*
X144224000Y-49144000D01*
X144222000Y-49142000D01*
X144220000Y-49140000D01*
X144218000Y-49138000D01*
X144216000Y-49136000D01*
X144215000Y-49134000D01*
X144213000Y-49132000D01*
X144212000Y-49130000D01*
X144210000Y-49128000D01*
X144209000Y-49125000D01*
X144208000Y-49123000D01*
X144207000Y-49120000D01*
X144207000Y-49118000D01*
X144206000Y-49115000D01*
X144206000Y-49113000D01*
X144205000Y-49110000D01*
X144205000Y-49108000D01*
X144205000Y-49105000D01*
X144205000Y-48465000D01*
X144205000Y-48462000D01*
X144205000Y-48460000D01*
X144206000Y-48457000D01*
X144206000Y-48455000D01*
X144207000Y-48452000D01*
X144207000Y-48450000D01*
X144208000Y-48447000D01*
X144209000Y-48445000D01*
X144210000Y-48442000D01*
X144212000Y-48440000D01*
X144213000Y-48438000D01*
X144215000Y-48436000D01*
X144216000Y-48434000D01*
X144218000Y-48432000D01*
X144220000Y-48430000D01*
X144222000Y-48428000D01*
X144224000Y-48426000D01*
X144226000Y-48425000D01*
X144228000Y-48423000D01*
X144230000Y-48422000D01*
X144232000Y-48420000D01*
X144235000Y-48419000D01*
X144237000Y-48418000D01*
X144240000Y-48417000D01*
X144242000Y-48417000D01*
X144245000Y-48416000D01*
X144247000Y-48416000D01*
X144250000Y-48415000D01*
X144252000Y-48415000D01*
X144255000Y-48415000D01*
X145845000Y-48415000D01*
X145848000Y-48415000D01*
X145850000Y-48415000D01*
X145853000Y-48416000D01*
G36*
X145853000Y-48416000D02*
G01*
X145855000Y-48416000D01*
X145858000Y-48417000D01*
X145860000Y-48417000D01*
X145863000Y-48418000D01*
X145865000Y-48419000D01*
X145868000Y-48420000D01*
X145870000Y-48422000D01*
X145872000Y-48423000D01*
X145874000Y-48425000D01*
X145876000Y-48426000D01*
X145878000Y-48428000D01*
X145880000Y-48430000D01*
X145882000Y-48432000D01*
X145884000Y-48434000D01*
X145885000Y-48436000D01*
X145887000Y-48438000D01*
X145888000Y-48440000D01*
X145890000Y-48442000D01*
X145891000Y-48445000D01*
X145892000Y-48447000D01*
X145893000Y-48450000D01*
X145893000Y-48452000D01*
X145894000Y-48455000D01*
X145894000Y-48457000D01*
X145895000Y-48460000D01*
X145895000Y-48462000D01*
X145895000Y-48465000D01*
X145895000Y-49105000D01*
X145895000Y-49108000D01*
X145895000Y-49110000D01*
X145894000Y-49113000D01*
X145894000Y-49115000D01*
X145893000Y-49118000D01*
X145893000Y-49120000D01*
X145892000Y-49123000D01*
X145891000Y-49125000D01*
X145890000Y-49128000D01*
X145888000Y-49130000D01*
X145887000Y-49132000D01*
X145885000Y-49134000D01*
X145884000Y-49136000D01*
X145882000Y-49138000D01*
X145880000Y-49140000D01*
X145878000Y-49142000D01*
X145876000Y-49144000D01*
X145874000Y-49145000D01*
X145872000Y-49147000D01*
X145870000Y-49148000D01*
X145868000Y-49150000D01*
X145865000Y-49151000D01*
X145863000Y-49152000D01*
X145860000Y-49153000D01*
X145858000Y-49153000D01*
X145855000Y-49154000D01*
X145853000Y-49154000D01*
X145850000Y-49155000D01*
X145848000Y-49155000D01*
X145845000Y-49155000D01*
X144255000Y-49155000D01*
X144252000Y-49155000D01*
X144250000Y-49155000D01*
X144247000Y-49154000D01*
X144245000Y-49154000D01*
X144242000Y-49153000D01*
X144240000Y-49153000D01*
X144237000Y-49152000D01*
X144235000Y-49151000D01*
X144232000Y-49150000D01*
X144230000Y-49148000D01*
X144228000Y-49147000D01*
X144226000Y-49145000D01*
X144224000Y-49144000D01*
X144222000Y-49142000D01*
X144220000Y-49140000D01*
X144218000Y-49138000D01*
X144216000Y-49136000D01*
X144215000Y-49134000D01*
X144213000Y-49132000D01*
X144212000Y-49130000D01*
X144210000Y-49128000D01*
X144209000Y-49125000D01*
X144208000Y-49123000D01*
X144207000Y-49120000D01*
X144207000Y-49118000D01*
X144206000Y-49115000D01*
X144206000Y-49113000D01*
X144205000Y-49110000D01*
X144205000Y-49108000D01*
X144205000Y-49105000D01*
X144205000Y-48465000D01*
X144205000Y-48462000D01*
X144205000Y-48460000D01*
X144206000Y-48457000D01*
X144206000Y-48455000D01*
X144207000Y-48452000D01*
X144207000Y-48450000D01*
X144208000Y-48447000D01*
X144209000Y-48445000D01*
X144210000Y-48442000D01*
X144212000Y-48440000D01*
X144213000Y-48438000D01*
X144215000Y-48436000D01*
X144216000Y-48434000D01*
X144218000Y-48432000D01*
X144220000Y-48430000D01*
X144222000Y-48428000D01*
X144224000Y-48426000D01*
X144226000Y-48425000D01*
X144228000Y-48423000D01*
X144230000Y-48422000D01*
X144232000Y-48420000D01*
X144235000Y-48419000D01*
X144237000Y-48418000D01*
X144240000Y-48417000D01*
X144242000Y-48417000D01*
X144245000Y-48416000D01*
X144247000Y-48416000D01*
X144250000Y-48415000D01*
X144252000Y-48415000D01*
X144255000Y-48415000D01*
X145845000Y-48415000D01*
X145848000Y-48415000D01*
X145850000Y-48415000D01*
X145853000Y-48416000D01*
G37*
X145853000Y-49686000D02*
X145855000Y-49686000D01*
X145858000Y-49687000D01*
X145860000Y-49687000D01*
X145863000Y-49688000D01*
X145865000Y-49689000D01*
X145868000Y-49690000D01*
X145870000Y-49692000D01*
X145872000Y-49693000D01*
X145874000Y-49695000D01*
X145876000Y-49696000D01*
X145878000Y-49698000D01*
X145880000Y-49700000D01*
X145882000Y-49702000D01*
X145884000Y-49704000D01*
X145885000Y-49706000D01*
X145887000Y-49708000D01*
X145888000Y-49710000D01*
X145890000Y-49712000D01*
X145891000Y-49715000D01*
X145892000Y-49717000D01*
X145893000Y-49720000D01*
X145893000Y-49722000D01*
X145894000Y-49725000D01*
X145894000Y-49727000D01*
X145895000Y-49730000D01*
X145895000Y-49732000D01*
X145895000Y-49735000D01*
X145895000Y-50375000D01*
X145895000Y-50378000D01*
X145895000Y-50380000D01*
X145894000Y-50383000D01*
X145894000Y-50385000D01*
X145893000Y-50388000D01*
X145893000Y-50390000D01*
X145892000Y-50393000D01*
X145891000Y-50395000D01*
X145890000Y-50398000D01*
X145888000Y-50400000D01*
X145887000Y-50402000D01*
X145885000Y-50404000D01*
X145884000Y-50406000D01*
X145882000Y-50408000D01*
X145880000Y-50410000D01*
X145878000Y-50412000D01*
X145876000Y-50414000D01*
X145874000Y-50415000D01*
X145872000Y-50417000D01*
X145870000Y-50418000D01*
X145868000Y-50420000D01*
X145865000Y-50421000D01*
X145863000Y-50422000D01*
X145860000Y-50423000D01*
X145858000Y-50423000D01*
X145855000Y-50424000D01*
X145853000Y-50424000D01*
X145850000Y-50425000D01*
X145848000Y-50425000D01*
X145845000Y-50425000D01*
X144255000Y-50425000D01*
X144252000Y-50425000D01*
X144250000Y-50425000D01*
X144247000Y-50424000D01*
X144245000Y-50424000D01*
X144242000Y-50423000D01*
X144240000Y-50423000D01*
X144237000Y-50422000D01*
X144235000Y-50421000D01*
X144232000Y-50420000D01*
X144230000Y-50418000D01*
X144228000Y-50417000D01*
X144226000Y-50415000D01*
X144224000Y-50414000D01*
X144222000Y-50412000D01*
X144220000Y-50410000D01*
X144218000Y-50408000D01*
X144216000Y-50406000D01*
X144215000Y-50404000D01*
X144213000Y-50402000D01*
X144212000Y-50400000D01*
X144210000Y-50398000D01*
X144209000Y-50395000D01*
X144208000Y-50393000D01*
X144207000Y-50390000D01*
X144207000Y-50388000D01*
X144206000Y-50385000D01*
X144206000Y-50383000D01*
X144205000Y-50380000D01*
X144205000Y-50378000D01*
X144205000Y-50375000D01*
X144205000Y-49735000D01*
X144205000Y-49732000D01*
X144205000Y-49730000D01*
X144206000Y-49727000D01*
X144206000Y-49725000D01*
X144207000Y-49722000D01*
X144207000Y-49720000D01*
X144208000Y-49717000D01*
X144209000Y-49715000D01*
X144210000Y-49712000D01*
X144212000Y-49710000D01*
X144213000Y-49708000D01*
X144215000Y-49706000D01*
X144216000Y-49704000D01*
X144218000Y-49702000D01*
X144220000Y-49700000D01*
X144222000Y-49698000D01*
X144224000Y-49696000D01*
X144226000Y-49695000D01*
X144228000Y-49693000D01*
X144230000Y-49692000D01*
X144232000Y-49690000D01*
X144235000Y-49689000D01*
X144237000Y-49688000D01*
X144240000Y-49687000D01*
X144242000Y-49687000D01*
X144245000Y-49686000D01*
X144247000Y-49686000D01*
X144250000Y-49685000D01*
X144252000Y-49685000D01*
X144255000Y-49685000D01*
X145845000Y-49685000D01*
X145848000Y-49685000D01*
X145850000Y-49685000D01*
X145853000Y-49686000D01*
G36*
X145853000Y-49686000D02*
G01*
X145855000Y-49686000D01*
X145858000Y-49687000D01*
X145860000Y-49687000D01*
X145863000Y-49688000D01*
X145865000Y-49689000D01*
X145868000Y-49690000D01*
X145870000Y-49692000D01*
X145872000Y-49693000D01*
X145874000Y-49695000D01*
X145876000Y-49696000D01*
X145878000Y-49698000D01*
X145880000Y-49700000D01*
X145882000Y-49702000D01*
X145884000Y-49704000D01*
X145885000Y-49706000D01*
X145887000Y-49708000D01*
X145888000Y-49710000D01*
X145890000Y-49712000D01*
X145891000Y-49715000D01*
X145892000Y-49717000D01*
X145893000Y-49720000D01*
X145893000Y-49722000D01*
X145894000Y-49725000D01*
X145894000Y-49727000D01*
X145895000Y-49730000D01*
X145895000Y-49732000D01*
X145895000Y-49735000D01*
X145895000Y-50375000D01*
X145895000Y-50378000D01*
X145895000Y-50380000D01*
X145894000Y-50383000D01*
X145894000Y-50385000D01*
X145893000Y-50388000D01*
X145893000Y-50390000D01*
X145892000Y-50393000D01*
X145891000Y-50395000D01*
X145890000Y-50398000D01*
X145888000Y-50400000D01*
X145887000Y-50402000D01*
X145885000Y-50404000D01*
X145884000Y-50406000D01*
X145882000Y-50408000D01*
X145880000Y-50410000D01*
X145878000Y-50412000D01*
X145876000Y-50414000D01*
X145874000Y-50415000D01*
X145872000Y-50417000D01*
X145870000Y-50418000D01*
X145868000Y-50420000D01*
X145865000Y-50421000D01*
X145863000Y-50422000D01*
X145860000Y-50423000D01*
X145858000Y-50423000D01*
X145855000Y-50424000D01*
X145853000Y-50424000D01*
X145850000Y-50425000D01*
X145848000Y-50425000D01*
X145845000Y-50425000D01*
X144255000Y-50425000D01*
X144252000Y-50425000D01*
X144250000Y-50425000D01*
X144247000Y-50424000D01*
X144245000Y-50424000D01*
X144242000Y-50423000D01*
X144240000Y-50423000D01*
X144237000Y-50422000D01*
X144235000Y-50421000D01*
X144232000Y-50420000D01*
X144230000Y-50418000D01*
X144228000Y-50417000D01*
X144226000Y-50415000D01*
X144224000Y-50414000D01*
X144222000Y-50412000D01*
X144220000Y-50410000D01*
X144218000Y-50408000D01*
X144216000Y-50406000D01*
X144215000Y-50404000D01*
X144213000Y-50402000D01*
X144212000Y-50400000D01*
X144210000Y-50398000D01*
X144209000Y-50395000D01*
X144208000Y-50393000D01*
X144207000Y-50390000D01*
X144207000Y-50388000D01*
X144206000Y-50385000D01*
X144206000Y-50383000D01*
X144205000Y-50380000D01*
X144205000Y-50378000D01*
X144205000Y-50375000D01*
X144205000Y-49735000D01*
X144205000Y-49732000D01*
X144205000Y-49730000D01*
X144206000Y-49727000D01*
X144206000Y-49725000D01*
X144207000Y-49722000D01*
X144207000Y-49720000D01*
X144208000Y-49717000D01*
X144209000Y-49715000D01*
X144210000Y-49712000D01*
X144212000Y-49710000D01*
X144213000Y-49708000D01*
X144215000Y-49706000D01*
X144216000Y-49704000D01*
X144218000Y-49702000D01*
X144220000Y-49700000D01*
X144222000Y-49698000D01*
X144224000Y-49696000D01*
X144226000Y-49695000D01*
X144228000Y-49693000D01*
X144230000Y-49692000D01*
X144232000Y-49690000D01*
X144235000Y-49689000D01*
X144237000Y-49688000D01*
X144240000Y-49687000D01*
X144242000Y-49687000D01*
X144245000Y-49686000D01*
X144247000Y-49686000D01*
X144250000Y-49685000D01*
X144252000Y-49685000D01*
X144255000Y-49685000D01*
X145845000Y-49685000D01*
X145848000Y-49685000D01*
X145850000Y-49685000D01*
X145853000Y-49686000D01*
G37*
%TD*%
D11*
%TO.C,J5*%
X139220000Y-81900000D03*
D12*
X141760000Y-81900000D03*
X144300000Y-81900000D03*
X146840000Y-81900000D03*
X149380000Y-81900000D03*
X151920000Y-81900000D03*
X154460000Y-81900000D03*
X157000000Y-81900000D03*
%TD*%
D11*
%TO.C,J6*%
X156860000Y-73912500D03*
D12*
X159400000Y-73912500D03*
X161940000Y-73912500D03*
%TD*%
D13*
%TO.C,Reset*%
X155940000Y-63300000D03*
X163900000Y-63300000D03*
X155940000Y-67800000D03*
X163900000Y-67800000D03*
%TD*%
D14*
%TO.C,R13*%
X133325000Y-28450000D03*
X134975000Y-28450000D03*
%TD*%
D15*
%TO.C,C17*%
X153800000Y-67850000D03*
X153800000Y-69400000D03*
%TD*%
D16*
%TO.C,C14*%
X124800000Y-44000000D03*
X124800000Y-42100000D03*
%TD*%
D17*
%TO.C,C16*%
X128600000Y-69875000D03*
X128600000Y-68325000D03*
%TD*%
D18*
%TO.C,C8*%
X128100000Y-36450000D03*
X128100000Y-38350000D03*
%TD*%
D19*
%TO.C,Q1*%
X137800000Y-36910000D03*
X137800000Y-35640000D03*
X137800000Y-34370000D03*
X137800000Y-33100000D03*
X132850000Y-33100000D03*
X132850000Y-34370000D03*
X132850000Y-35640000D03*
X132850000Y-36910000D03*
%TD*%
D20*
%TO.C,J1*%
X150220000Y-27650000D03*
X141580000Y-27650000D03*
X150220000Y-31450000D03*
X141580000Y-31450000D03*
%TD*%
D16*
%TO.C,C1*%
X153400000Y-32262500D03*
X153400000Y-30362500D03*
%TD*%
D21*
%TO.C,U4*%
X145825000Y-74000000D03*
X145825000Y-73350000D03*
X145825000Y-72700000D03*
X145825000Y-72050000D03*
X145825000Y-71400000D03*
X145825000Y-70750000D03*
X145825000Y-70100000D03*
X145825000Y-69450000D03*
X145825000Y-68800000D03*
X145825000Y-68150000D03*
X140100000Y-68150000D03*
X140100000Y-68800000D03*
X140100000Y-69450000D03*
X140100000Y-70100000D03*
X140100000Y-70750000D03*
X140100000Y-71400000D03*
X140100000Y-72050000D03*
X140100000Y-72700000D03*
X140100000Y-73350000D03*
X140100000Y-74000000D03*
%TD*%
D22*
%TO.C,D3*%
X138915000Y-56050000D03*
X145885000Y-56050000D03*
%TD*%
D11*
%TO.C,J11*%
X154570000Y-56350000D03*
D12*
X157110000Y-56350000D03*
X159650000Y-56350000D03*
X162190000Y-56350000D03*
%TD*%
D23*
%TO.C,H4*%
X163350000Y-81250000D03*
%TD*%
D15*
%TO.C,C7*%
X133750000Y-39675000D03*
X133750000Y-41225000D03*
%TD*%
%TO.C,C18*%
X135200000Y-68275000D03*
X135200000Y-69825000D03*
%TD*%
D24*
%TO.C,U1*%
X144850000Y-42700000D03*
X145350000Y-42700000D03*
X145850000Y-42700000D03*
X146350000Y-42700000D03*
X146850000Y-42700000D03*
X147350000Y-42700000D03*
D25*
X148075000Y-41975000D03*
X148075000Y-41475000D03*
X148075000Y-40975000D03*
X148075000Y-40475000D03*
X148075000Y-39975000D03*
X148075000Y-39475000D03*
D24*
X147350000Y-38750000D03*
X146850000Y-38750000D03*
X146350000Y-38750000D03*
X145850000Y-38750000D03*
X145350000Y-38750000D03*
X144850000Y-38750000D03*
D25*
X144125000Y-39475000D03*
X144125000Y-39975000D03*
X144125000Y-40475000D03*
X144125000Y-40975000D03*
X144125000Y-41475000D03*
X144125000Y-41975000D03*
D26*
X146100000Y-40725000D03*
%TD*%
D27*
%TO.C,D1*%
X156150000Y-27225000D03*
X156150000Y-28800000D03*
%TD*%
D28*
%TO.C,R14*%
X135950000Y-39625000D03*
X135950000Y-41275000D03*
%TD*%
D16*
%TO.C,C19*%
X150675000Y-72425000D03*
X150675000Y-70525000D03*
%TD*%
D29*
%TO.C,R18*%
X156825000Y-37650000D03*
X155175000Y-37650000D03*
%TD*%
D23*
%TO.C,H2*%
X163350000Y-28750000D03*
%TD*%
D30*
%TO.C,D4*%
X147300000Y-63787500D03*
X147300000Y-62212500D03*
%TD*%
D11*
%TO.C,J10*%
X129340000Y-62750000D03*
D12*
X126800000Y-62750000D03*
X124260000Y-62750000D03*
%TD*%
D31*
%TO.C,J8*%
X124450000Y-70750000D03*
X124450000Y-71400000D03*
X124450000Y-72050000D03*
X124450000Y-72700000D03*
X124450000Y-73350000D03*
D32*
X121750000Y-68550000D03*
D33*
X121750000Y-69025000D03*
D34*
X124450000Y-69550000D03*
D35*
X121750000Y-71050000D03*
X121750000Y-73050000D03*
D34*
X124450000Y-74550000D03*
D33*
X121750000Y-75075000D03*
D32*
X121750000Y-75550000D03*
%TD*%
D11*
%TO.C,J12*%
X130600000Y-81240000D03*
D12*
X130600000Y-78700000D03*
X130600000Y-76160000D03*
%TD*%
D14*
%TO.C,R15*%
X137025000Y-43500000D03*
X138675000Y-43500000D03*
%TD*%
D17*
%TO.C,C20*%
X148625000Y-72450000D03*
X148625000Y-70900000D03*
%TD*%
D23*
%TO.C,H1*%
X123900000Y-28700000D03*
%TD*%
D36*
%TO.C,Q2*%
X156450000Y-41950000D03*
X156450000Y-40050000D03*
X154575000Y-41000000D03*
%TD*%
D23*
%TO.C,H3*%
X123850000Y-81200000D03*
%TD*%
D37*
%TO.C,R16*%
X156150000Y-32337500D03*
X156150000Y-30687500D03*
%TD*%
D38*
%TO.C,D2*%
X156787500Y-35200000D03*
X155212500Y-35200000D03*
%TD*%
D11*
%TO.C,J3*%
X124600000Y-35700000D03*
D12*
X124600000Y-38240000D03*
%TD*%
D11*
%TO.C,J9*%
X140640000Y-62850000D03*
D12*
X138100000Y-62850000D03*
X135560000Y-62850000D03*
%TD*%
D39*
%TO.C,L1*%
X133600000Y-52750000D03*
X123900000Y-52750000D03*
%TD*%
D11*
%TO.C,J4*%
X156400000Y-48625000D03*
D12*
X156400000Y-51165000D03*
%TD*%
D29*
%TO.C,R17*%
X156825000Y-44100000D03*
X155175000Y-44100000D03*
%TD*%
D40*
%TO.C,C9*%
X147825000Y-46200000D03*
X149375000Y-46200000D03*
%TD*%
D41*
%TO.C,C6*%
X133250000Y-30650000D03*
X135150000Y-30650000D03*
%TD*%
D18*
%TO.C,C11*%
X148000000Y-48650000D03*
X148000000Y-50550000D03*
%TD*%
D11*
%TO.C,J2*%
X163400000Y-49990000D03*
D12*
X163400000Y-47450000D03*
X163400000Y-44910000D03*
X163400000Y-42370000D03*
X163400000Y-39830000D03*
X163400000Y-37290000D03*
X163400000Y-34750000D03*
%TD*%
D37*
%TO.C,R22*%
X149300000Y-63825000D03*
X149300000Y-62175000D03*
%TD*%
D42*
%TO.C,U3*%
X130625000Y-68100000D03*
X130625000Y-69050000D03*
X130625000Y-70000000D03*
X132900000Y-70000000D03*
X132900000Y-68100000D03*
%TD*%
D16*
%TO.C,C15*%
X127100000Y-44000000D03*
X127100000Y-42100000D03*
%TD*%
M02*
