%TF.GenerationSoftware,KiCad,Pcbnew,9.0.6*%
%TF.CreationDate,2026-05-04T22:58:46-07:00*%
%TF.ProjectId,Tilt_Table_PCB_Rev2,54696c74-5f54-4616-926c-655f5043425f,rev?*%
%TF.SameCoordinates,Original*%
%TF.FileFunction,Copper,L3,Inr*%
%TF.FilePolarity,Positive*%
%FSLAX46Y46*%
G04 Gerber Fmt 4.6, Leading zero omitted, Abs format (unit mm)*
G04 Created by KiCad (PCBNEW 9.0.6) date 2026-05-04 22:58:46*
%MOMM*%
%LPD*%
G01*
G04 APERTURE LIST*
%TA.AperFunction,ComponentPad*%
%ADD10R,1.700000X1.700000*%
%TD*%
%TA.AperFunction,ComponentPad*%
%ADD11C,1.700000*%
%TD*%
%TA.AperFunction,ComponentPad*%
%ADD12O,1.100000X1.700000*%
%TD*%
%TA.AperFunction,HeatsinkPad*%
%ADD13O,1.550000X0.890000*%
%TD*%
%TA.AperFunction,HeatsinkPad*%
%ADD14O,0.950000X1.250000*%
%TD*%
%TA.AperFunction,ViaPad*%
%ADD15C,0.700000*%
%TD*%
G04 APERTURE END LIST*
D10*
%TO.N,+3.3V*%
%TO.C,J5*%
X139220000Y-81900000D03*
D11*
%TO.N,GND*%
X141760000Y-81900000D03*
%TO.N,/MCU/PB3{slash}4{slash}5{slash}6*%
X144300000Y-81900000D03*
%TO.N,/MCU/PA8*%
X146840000Y-81900000D03*
%TO.N,/MCU/PA7*%
X149380000Y-81900000D03*
%TO.N,/MCU/PC15*%
X151920000Y-81900000D03*
%TO.N,/MCU/UART_RX*%
X154460000Y-81900000D03*
%TO.N,/MCU/UART_TX*%
X157000000Y-81900000D03*
%TD*%
D10*
%TO.N,+3.3V*%
%TO.C,J6*%
X156860000Y-73912500D03*
D11*
%TO.N,/MCU/SWCLK*%
X159400000Y-73912500D03*
%TO.N,unconnected-(J6-Pin_3-Pad3)*%
X161940000Y-73912500D03*
%TD*%
D12*
%TO.N,GND*%
%TO.C,J1*%
X150220000Y-27650000D03*
X141580000Y-27650000D03*
X150220000Y-31450000D03*
X141580000Y-31450000D03*
%TD*%
D10*
%TO.N,/MCU/Tilt_Xri*%
%TO.C,J11*%
X154570000Y-56350000D03*
D11*
%TO.N,/MCU/Tilt_Xle*%
X157110000Y-56350000D03*
%TO.N,/MCU/Tilt_Ydown*%
X159650000Y-56350000D03*
%TO.N,/MCU/Tilt_Yup*%
X162190000Y-56350000D03*
%TD*%
D10*
%TO.N,/MCU/SERVO_X*%
%TO.C,J10*%
X129340000Y-62750000D03*
D11*
%TO.N,+6V*%
X126800000Y-62750000D03*
%TO.N,GND*%
X124260000Y-62750000D03*
%TD*%
D13*
%TO.N,unconnected-(J8-Shield-Pad6)_2*%
%TO.C,J8*%
X121750000Y-68550000D03*
D14*
%TO.N,unconnected-(J8-Shield-Pad6)_1*%
X124450000Y-69550000D03*
%TO.N,unconnected-(J8-Shield-Pad6)_4*%
X124450000Y-74550000D03*
D13*
%TO.N,unconnected-(J8-Shield-Pad6)*%
X121750000Y-75550000D03*
%TD*%
D10*
%TO.N,/MCU/NRST*%
%TO.C,J12*%
X130600000Y-81240000D03*
D11*
%TO.N,/MCU/SWCLK*%
X130600000Y-78700000D03*
%TO.N,/MCU/SWDIO*%
X130600000Y-76160000D03*
%TD*%
D10*
%TO.N,VBUS_OUT*%
%TO.C,J3*%
X124600000Y-35700000D03*
D11*
%TO.N,GND*%
X124600000Y-38240000D03*
%TD*%
D10*
%TO.N,/MCU/SERVO_Y*%
%TO.C,J9*%
X140640000Y-62850000D03*
D11*
%TO.N,+6V*%
X138100000Y-62850000D03*
%TO.N,GND*%
X135560000Y-62850000D03*
%TD*%
D10*
%TO.N,Net-(J4-Pin_1)*%
%TO.C,J4*%
X156400000Y-48625000D03*
D11*
%TO.N,SERVO_EN*%
X156400000Y-51165000D03*
%TD*%
D10*
%TO.N,PDC_3.3V*%
%TO.C,J2*%
X163400000Y-49990000D03*
D11*
%TO.N,GND*%
X163400000Y-47450000D03*
%TO.N,/Power/SWD_IO_INT*%
X163400000Y-44910000D03*
%TO.N,/Power/SWD_CLK*%
X163400000Y-42370000D03*
%TO.N,/Power/FLIP*%
X163400000Y-39830000D03*
%TO.N,/Power/HPI_SDA*%
X163400000Y-37290000D03*
%TO.N,/Power/HPI_SCL*%
X163400000Y-34750000D03*
%TD*%
D15*
%TO.N,GND*%
X154950000Y-27250000D03*
X162340000Y-63300000D03*
X127100000Y-40900000D03*
X146861808Y-39921170D03*
X125700000Y-73400000D03*
X143350000Y-26400000D03*
X144300000Y-71700000D03*
X124800000Y-40900000D03*
X143000000Y-46300000D03*
X143000000Y-47300000D03*
X143000000Y-48900000D03*
X141800000Y-48900000D03*
X148400000Y-27650000D03*
X143350000Y-38600000D03*
X136400000Y-69800000D03*
X138200000Y-48800000D03*
X144000000Y-55000000D03*
X138450000Y-38250000D03*
X141800000Y-47300000D03*
X141800000Y-46300000D03*
X142050000Y-38250000D03*
X148500000Y-51800000D03*
X146861808Y-41321170D03*
X129300000Y-67100000D03*
X153400000Y-37500000D03*
X157340000Y-63300000D03*
X143060085Y-40498686D03*
X150125000Y-29875000D03*
X153200000Y-41000000D03*
X148400000Y-26400000D03*
X161000000Y-77800000D03*
X153300000Y-48700000D03*
X144000000Y-56700000D03*
X141875000Y-29875000D03*
X147400000Y-71200000D03*
X143000000Y-56700000D03*
X147500000Y-51800000D03*
X153300000Y-45200000D03*
X148875000Y-29875000D03*
X148600000Y-45200000D03*
X143300000Y-43650003D03*
X141800000Y-49900000D03*
X145400000Y-41350000D03*
X123300000Y-73400000D03*
X136800000Y-50700000D03*
X153800000Y-70425000D03*
X145400000Y-39950000D03*
X140250000Y-38250000D03*
X128100000Y-39500000D03*
X133900000Y-43500000D03*
X136200000Y-52900000D03*
X143000000Y-55000000D03*
X157400000Y-40900000D03*
X143350000Y-27650000D03*
X143000000Y-49900000D03*
X143125000Y-29875000D03*
X151800000Y-30300000D03*
X149300000Y-61075000D03*
X155200000Y-45100000D03*
%TO.N,VBUS_IN*%
X147325000Y-29975000D03*
X131100000Y-33100000D03*
X146325000Y-29975000D03*
X144450000Y-29975000D03*
X144380000Y-33100000D03*
X131100000Y-34300000D03*
X131600000Y-32100000D03*
X132100000Y-28500000D03*
X145450000Y-29975000D03*
X147400000Y-32900000D03*
X132000000Y-30600000D03*
X132800000Y-32100000D03*
%TO.N,/Power/PDC_VCCD*%
X143300000Y-42750000D03*
%TO.N,PDC_3.3V*%
X158200000Y-37300000D03*
X153400000Y-39300000D03*
X158200000Y-39800000D03*
X158300000Y-44400000D03*
X158200000Y-34700000D03*
X153400000Y-35800000D03*
X143000000Y-41500000D03*
X153300000Y-47000000D03*
X153400000Y-44000000D03*
%TO.N,+6V*%
X130300000Y-45200000D03*
%TO.N,/MCU/NRST*%
X143300000Y-71100000D03*
X132800000Y-80900000D03*
%TO.N,+3.3V*%
X135000000Y-67225000D03*
X147300000Y-61075000D03*
X136450000Y-67925000D03*
X132950000Y-67225000D03*
X143900000Y-73100000D03*
%TO.N,/Power/USB_CC2*%
X145700000Y-33100000D03*
X147075000Y-34150000D03*
%TO.N,/Power/SWD_IO_INT*%
X153600000Y-43100000D03*
%TO.N,/Power/HPI_SDA*%
X148500000Y-37700000D03*
%TO.N,/Power/HPI_SCL*%
X147600000Y-36500000D03*
%TO.N,/Power/SWD_CLK*%
X157900000Y-42900000D03*
X150000000Y-42300000D03*
%TO.N,/Power/FLIP*%
X153900000Y-38400000D03*
%TO.N,/MCU/SWCLK*%
X141500000Y-73400000D03*
%TO.N,/MCU/Tilt_Xle*%
X147200000Y-67900000D03*
%TO.N,/MCU/Tilt_Yup*%
X144400000Y-70200000D03*
%TO.N,/MCU/Tilt_Ydown*%
X147400000Y-69000000D03*
%TO.N,/Power/VBUS_FET_EN*%
X139200000Y-45100000D03*
X147100000Y-45100000D03*
%TO.N,/Power/VBUS_MAX*%
X145487757Y-43867179D03*
%TO.N,/Power/ISNK_COARSE*%
X149404986Y-44797507D03*
%TO.N,/Power/VBUS_MIN*%
X144600000Y-44400000D03*
%TO.N,/Power/ISNK_FINE*%
X149500000Y-43800000D03*
%TO.N,/MCU/SERVO_X*%
X138600000Y-68800000D03*
%TO.N,SERVO_EN*%
X141500000Y-69100000D03*
%TO.N,/MCU/Tilt_Xri*%
X145800000Y-67000000D03*
%TO.N,/Power Conversion/COMP*%
X138100000Y-47600000D03*
%TO.N,VBUS_OUT*%
X149125000Y-39560367D03*
X146600000Y-48100000D03*
X146600000Y-48900000D03*
X147400000Y-47500000D03*
X148400000Y-47500000D03*
X133300000Y-38300000D03*
%TO.N,/Power Conversion/PH*%
X139800000Y-51400000D03*
%TO.N,/Power Conversion/BOOT*%
X144900000Y-51500000D03*
%TO.N,/Power Conversion/VSENSE*%
X137700000Y-46200000D03*
%TO.N,Net-(J4-Pin_1)*%
X146375000Y-46920000D03*
X149400000Y-47600000D03*
%TD*%
%TA.AperFunction,Conductor*%
%TO.N,VBUS_OUT*%
G36*
X123193039Y-34719685D02*
G01*
X123238794Y-34772489D01*
X123250000Y-34824000D01*
X123250000Y-35450000D01*
X124166988Y-35450000D01*
X124134075Y-35507007D01*
X124100000Y-35634174D01*
X124100000Y-35765826D01*
X124134075Y-35892993D01*
X124166988Y-35950000D01*
X123250000Y-35950000D01*
X123250000Y-36597844D01*
X123256401Y-36657372D01*
X123256403Y-36657379D01*
X123306645Y-36792086D01*
X123306649Y-36792093D01*
X123392809Y-36907187D01*
X123392812Y-36907190D01*
X123507906Y-36993350D01*
X123507913Y-36993354D01*
X123642620Y-37043596D01*
X123642627Y-37043598D01*
X123702155Y-37049999D01*
X123702172Y-37050000D01*
X123994949Y-37050000D01*
X124061988Y-37069685D01*
X124107743Y-37122489D01*
X124117687Y-37191647D01*
X124088662Y-37255203D01*
X124051244Y-37284485D01*
X124023211Y-37298768D01*
X123943256Y-37356859D01*
X123883072Y-37400586D01*
X123883070Y-37400588D01*
X123883069Y-37400588D01*
X123760588Y-37523069D01*
X123760588Y-37523070D01*
X123760586Y-37523072D01*
X123716859Y-37583256D01*
X123658768Y-37663211D01*
X123580128Y-37817552D01*
X123526597Y-37982302D01*
X123522527Y-38008001D01*
X123499500Y-38153389D01*
X123499500Y-38326611D01*
X123506090Y-38368216D01*
X123525583Y-38491297D01*
X123526598Y-38497701D01*
X123580127Y-38662445D01*
X123658768Y-38816788D01*
X123760586Y-38956928D01*
X123883072Y-39079414D01*
X124023212Y-39181232D01*
X124177555Y-39259873D01*
X124342299Y-39313402D01*
X124513389Y-39340500D01*
X124513390Y-39340500D01*
X124686610Y-39340500D01*
X124686611Y-39340500D01*
X124857701Y-39313402D01*
X125022445Y-39259873D01*
X125176788Y-39181232D01*
X125316928Y-39079414D01*
X125439414Y-38956928D01*
X125541232Y-38816788D01*
X125619873Y-38662445D01*
X125673402Y-38497701D01*
X125700500Y-38326611D01*
X125700500Y-38170943D01*
X137849500Y-38170943D01*
X137849500Y-38329056D01*
X137890423Y-38481783D01*
X137890426Y-38481790D01*
X137969475Y-38618709D01*
X137969479Y-38618714D01*
X137969480Y-38618716D01*
X138081284Y-38730520D01*
X138081286Y-38730521D01*
X138081290Y-38730524D01*
X138218209Y-38809573D01*
X138218216Y-38809577D01*
X138370943Y-38850500D01*
X138370945Y-38850500D01*
X138529055Y-38850500D01*
X138529057Y-38850500D01*
X138681784Y-38809577D01*
X138818716Y-38730520D01*
X138930520Y-38618716D01*
X139009577Y-38481784D01*
X139050500Y-38329057D01*
X139050500Y-38170943D01*
X139009577Y-38018216D01*
X139003679Y-38008001D01*
X138930524Y-37881290D01*
X138930518Y-37881282D01*
X138818717Y-37769481D01*
X138818709Y-37769475D01*
X138681790Y-37690426D01*
X138681786Y-37690424D01*
X138681784Y-37690423D01*
X138529057Y-37649500D01*
X138370943Y-37649500D01*
X138218216Y-37690423D01*
X138218209Y-37690426D01*
X138081290Y-37769475D01*
X138081282Y-37769481D01*
X137969481Y-37881282D01*
X137969475Y-37881290D01*
X137890426Y-38018209D01*
X137890423Y-38018216D01*
X137849500Y-38170943D01*
X125700500Y-38170943D01*
X125700500Y-38153389D01*
X125673402Y-37982299D01*
X125619873Y-37817555D01*
X125541232Y-37663212D01*
X125439414Y-37523072D01*
X125316928Y-37400586D01*
X125176788Y-37298768D01*
X125148756Y-37284485D01*
X125097960Y-37236510D01*
X125081165Y-37168689D01*
X125103703Y-37102554D01*
X125158418Y-37059103D01*
X125205051Y-37050000D01*
X125497828Y-37050000D01*
X125497844Y-37049999D01*
X125557372Y-37043598D01*
X125557379Y-37043596D01*
X125692086Y-36993354D01*
X125692093Y-36993350D01*
X125807187Y-36907190D01*
X125807190Y-36907187D01*
X125893350Y-36792093D01*
X125893354Y-36792086D01*
X125943596Y-36657379D01*
X125943598Y-36657372D01*
X125949999Y-36597844D01*
X125950000Y-36597827D01*
X125950000Y-35950000D01*
X125033012Y-35950000D01*
X125065925Y-35892993D01*
X125100000Y-35765826D01*
X125100000Y-35634174D01*
X125065925Y-35507007D01*
X125033012Y-35450000D01*
X125950000Y-35450000D01*
X125950000Y-34824000D01*
X125969685Y-34756961D01*
X126022489Y-34711206D01*
X126074000Y-34700000D01*
X128876000Y-34700000D01*
X128943039Y-34719685D01*
X128988794Y-34772489D01*
X129000000Y-34824000D01*
X129000000Y-35300000D01*
X140876000Y-35300000D01*
X140943039Y-35319685D01*
X140988794Y-35372489D01*
X141000000Y-35424000D01*
X141000000Y-37885263D01*
X140980315Y-37952302D01*
X140927511Y-37998057D01*
X140858353Y-38008001D01*
X140794797Y-37978976D01*
X140768613Y-37947263D01*
X140730522Y-37881287D01*
X140730518Y-37881282D01*
X140618717Y-37769481D01*
X140618709Y-37769475D01*
X140481790Y-37690426D01*
X140481786Y-37690424D01*
X140481784Y-37690423D01*
X140329057Y-37649500D01*
X140170943Y-37649500D01*
X140018216Y-37690423D01*
X140018209Y-37690426D01*
X139881290Y-37769475D01*
X139881282Y-37769481D01*
X139769481Y-37881282D01*
X139769475Y-37881290D01*
X139690426Y-38018209D01*
X139690423Y-38018216D01*
X139649500Y-38170943D01*
X139649500Y-38329056D01*
X139690423Y-38481783D01*
X139690426Y-38481790D01*
X139769475Y-38618709D01*
X139769479Y-38618714D01*
X139769480Y-38618716D01*
X139881284Y-38730520D01*
X139881286Y-38730521D01*
X139881290Y-38730524D01*
X140018209Y-38809573D01*
X140018216Y-38809577D01*
X140170943Y-38850500D01*
X140170945Y-38850500D01*
X140329055Y-38850500D01*
X140329057Y-38850500D01*
X140481784Y-38809577D01*
X140618716Y-38730520D01*
X140730520Y-38618716D01*
X140768613Y-38552735D01*
X140819179Y-38504521D01*
X140887786Y-38491297D01*
X140952651Y-38517265D01*
X140993180Y-38574178D01*
X141000000Y-38614736D01*
X141000000Y-45000000D01*
X144519077Y-45000000D01*
X144520943Y-45000500D01*
X144679057Y-45000500D01*
X144680923Y-45000000D01*
X146375500Y-45000000D01*
X146442539Y-45019685D01*
X146488294Y-45072489D01*
X146499500Y-45124000D01*
X146499500Y-45179056D01*
X146540423Y-45331783D01*
X146540426Y-45331790D01*
X146619475Y-45468709D01*
X146619479Y-45468714D01*
X146619480Y-45468716D01*
X146731284Y-45580520D01*
X146731286Y-45580521D01*
X146731290Y-45580524D01*
X146835040Y-45640423D01*
X146868216Y-45659577D01*
X147020943Y-45700500D01*
X147020945Y-45700500D01*
X147179055Y-45700500D01*
X147179057Y-45700500D01*
X147331784Y-45659577D01*
X147468716Y-45580520D01*
X147580520Y-45468716D01*
X147659577Y-45331784D01*
X147700500Y-45179057D01*
X147700500Y-45124000D01*
X147703050Y-45115314D01*
X147701762Y-45106353D01*
X147712740Y-45082312D01*
X147720185Y-45056961D01*
X147727025Y-45051033D01*
X147730787Y-45042797D01*
X147753021Y-45028507D01*
X147772989Y-45011206D01*
X147783503Y-45008918D01*
X147789565Y-45005023D01*
X147824500Y-45000000D01*
X147875500Y-45000000D01*
X147942539Y-45019685D01*
X147988294Y-45072489D01*
X147999500Y-45124000D01*
X147999500Y-45279056D01*
X148040423Y-45431783D01*
X148040426Y-45431790D01*
X148119475Y-45568709D01*
X148119479Y-45568714D01*
X148119480Y-45568716D01*
X148231284Y-45680520D01*
X148231286Y-45680521D01*
X148231290Y-45680524D01*
X148298765Y-45719480D01*
X148368216Y-45759577D01*
X148520943Y-45800500D01*
X148520945Y-45800500D01*
X148676000Y-45800500D01*
X148743039Y-45820185D01*
X148788794Y-45872989D01*
X148800000Y-45924500D01*
X148800000Y-47519076D01*
X148799500Y-47520943D01*
X148799500Y-47679057D01*
X148800000Y-47680923D01*
X148800000Y-49276000D01*
X148780315Y-49343039D01*
X148727511Y-49388794D01*
X148676000Y-49400000D01*
X143619497Y-49400000D01*
X143552458Y-49380315D01*
X143506703Y-49327511D01*
X143496759Y-49258353D01*
X143512110Y-49214000D01*
X143538254Y-49168716D01*
X143559577Y-49131784D01*
X143600500Y-48979057D01*
X143600500Y-48820943D01*
X143559577Y-48668216D01*
X143484774Y-48538652D01*
X143480524Y-48531290D01*
X143480518Y-48531282D01*
X143368717Y-48419481D01*
X143368709Y-48419475D01*
X143231790Y-48340426D01*
X143231786Y-48340424D01*
X143231784Y-48340423D01*
X143079057Y-48299500D01*
X142920943Y-48299500D01*
X142768216Y-48340423D01*
X142768209Y-48340426D01*
X142631290Y-48419475D01*
X142631282Y-48419481D01*
X142513733Y-48537031D01*
X142511878Y-48535176D01*
X142465943Y-48568715D01*
X142396197Y-48572867D01*
X142335278Y-48538652D01*
X142302528Y-48476934D01*
X142300000Y-48452024D01*
X142300000Y-48300000D01*
X141880923Y-48300000D01*
X141879057Y-48299500D01*
X141720943Y-48299500D01*
X141719077Y-48300000D01*
X138568200Y-48300000D01*
X138506202Y-48283388D01*
X138493773Y-48276212D01*
X138445557Y-48225647D01*
X138432333Y-48157040D01*
X138458300Y-48092175D01*
X138468091Y-48081143D01*
X138468711Y-48080522D01*
X138468716Y-48080520D01*
X138580520Y-47968716D01*
X138659577Y-47831784D01*
X138700500Y-47679057D01*
X138700500Y-47520943D01*
X138659577Y-47368216D01*
X138613674Y-47288709D01*
X138580524Y-47231290D01*
X138580518Y-47231282D01*
X138468717Y-47119481D01*
X138468709Y-47119475D01*
X138331790Y-47040426D01*
X138331786Y-47040424D01*
X138331784Y-47040423D01*
X138179057Y-46999500D01*
X138020943Y-46999500D01*
X137868216Y-47040423D01*
X137868209Y-47040426D01*
X137731290Y-47119475D01*
X137731282Y-47119481D01*
X137619481Y-47231282D01*
X137619475Y-47231290D01*
X137540426Y-47368209D01*
X137540423Y-47368216D01*
X137499500Y-47520943D01*
X137499500Y-47679057D01*
X137526687Y-47780518D01*
X137540423Y-47831783D01*
X137540426Y-47831790D01*
X137619475Y-47968709D01*
X137619481Y-47968717D01*
X137737031Y-48086267D01*
X137735176Y-48088121D01*
X137768715Y-48134057D01*
X137772867Y-48203803D01*
X137738652Y-48264722D01*
X137676934Y-48297472D01*
X137652024Y-48300000D01*
X136424000Y-48300000D01*
X136356961Y-48280315D01*
X136311206Y-48227511D01*
X136300000Y-48176000D01*
X136300000Y-46120943D01*
X137099500Y-46120943D01*
X137099500Y-46279057D01*
X137126295Y-46379055D01*
X137140423Y-46431783D01*
X137140426Y-46431790D01*
X137219475Y-46568709D01*
X137219479Y-46568714D01*
X137219480Y-46568716D01*
X137331284Y-46680520D01*
X137331286Y-46680521D01*
X137331290Y-46680524D01*
X137463174Y-46756666D01*
X137468216Y-46759577D01*
X137620943Y-46800500D01*
X137620945Y-46800500D01*
X137779055Y-46800500D01*
X137779057Y-46800500D01*
X137931784Y-46759577D01*
X138068716Y-46680520D01*
X138180520Y-46568716D01*
X138259577Y-46431784D01*
X138300500Y-46279057D01*
X138300500Y-46220943D01*
X141199500Y-46220943D01*
X141199500Y-46379057D01*
X141215691Y-46439480D01*
X141240423Y-46531783D01*
X141240426Y-46531790D01*
X141319475Y-46668709D01*
X141319481Y-46668717D01*
X141363083Y-46712319D01*
X141396568Y-46773642D01*
X141391584Y-46843334D01*
X141363083Y-46887681D01*
X141319481Y-46931282D01*
X141319475Y-46931290D01*
X141240426Y-47068209D01*
X141240423Y-47068216D01*
X141199500Y-47220943D01*
X141199500Y-47379057D01*
X141237400Y-47520500D01*
X141240423Y-47531783D01*
X141240426Y-47531790D01*
X141319475Y-47668709D01*
X141319479Y-47668714D01*
X141319480Y-47668716D01*
X141431284Y-47780520D01*
X141431286Y-47780521D01*
X141431290Y-47780524D01*
X141520087Y-47831790D01*
X141568216Y-47859577D01*
X141720943Y-47900500D01*
X141720945Y-47900500D01*
X141879055Y-47900500D01*
X141879057Y-47900500D01*
X142031784Y-47859577D01*
X142168716Y-47780520D01*
X142280520Y-47668716D01*
X142292612Y-47647772D01*
X142343178Y-47599555D01*
X142411785Y-47586331D01*
X142476650Y-47612298D01*
X142507388Y-47647772D01*
X142519477Y-47668712D01*
X142519479Y-47668715D01*
X142519480Y-47668716D01*
X142631284Y-47780520D01*
X142631286Y-47780521D01*
X142631290Y-47780524D01*
X142720087Y-47831790D01*
X142768216Y-47859577D01*
X142920943Y-47900500D01*
X142920945Y-47900500D01*
X143079055Y-47900500D01*
X143079057Y-47900500D01*
X143231784Y-47859577D01*
X143368716Y-47780520D01*
X143480520Y-47668716D01*
X143559577Y-47531784D01*
X143600500Y-47379057D01*
X143600500Y-47220943D01*
X143559577Y-47068216D01*
X143519904Y-46999500D01*
X143480524Y-46931290D01*
X143480518Y-46931282D01*
X143436917Y-46887681D01*
X143411396Y-46840943D01*
X145774500Y-46840943D01*
X145774500Y-46999057D01*
X145806768Y-47119481D01*
X145815423Y-47151783D01*
X145815426Y-47151790D01*
X145894475Y-47288709D01*
X145894479Y-47288714D01*
X145894480Y-47288716D01*
X146006284Y-47400520D01*
X146006286Y-47400521D01*
X146006290Y-47400524D01*
X146143209Y-47479573D01*
X146143216Y-47479577D01*
X146295943Y-47520500D01*
X146295945Y-47520500D01*
X146454055Y-47520500D01*
X146454057Y-47520500D01*
X146606784Y-47479577D01*
X146743716Y-47400520D01*
X146855520Y-47288716D01*
X146934577Y-47151784D01*
X146975500Y-46999057D01*
X146975500Y-46840943D01*
X146934577Y-46688216D01*
X146865585Y-46568717D01*
X146855524Y-46551290D01*
X146855518Y-46551282D01*
X146743717Y-46439481D01*
X146743709Y-46439475D01*
X146606790Y-46360426D01*
X146606786Y-46360424D01*
X146606784Y-46360423D01*
X146454057Y-46319500D01*
X146295943Y-46319500D01*
X146143216Y-46360423D01*
X146143209Y-46360426D01*
X146006290Y-46439475D01*
X146006282Y-46439481D01*
X145894481Y-46551282D01*
X145894475Y-46551290D01*
X145815426Y-46688209D01*
X145815423Y-46688216D01*
X145774500Y-46840943D01*
X143411396Y-46840943D01*
X143403432Y-46826358D01*
X143408416Y-46756666D01*
X143436917Y-46712319D01*
X143480520Y-46668716D01*
X143559577Y-46531784D01*
X143600500Y-46379057D01*
X143600500Y-46220943D01*
X143559577Y-46068216D01*
X143520450Y-46000445D01*
X143480524Y-45931290D01*
X143480518Y-45931282D01*
X143368717Y-45819481D01*
X143368709Y-45819475D01*
X143231790Y-45740426D01*
X143231786Y-45740424D01*
X143231784Y-45740423D01*
X143079057Y-45699500D01*
X142920943Y-45699500D01*
X142768216Y-45740423D01*
X142768209Y-45740426D01*
X142631290Y-45819475D01*
X142631282Y-45819481D01*
X142519481Y-45931282D01*
X142519477Y-45931287D01*
X142507387Y-45952229D01*
X142456820Y-46000445D01*
X142388213Y-46013668D01*
X142323348Y-45987700D01*
X142292613Y-45952229D01*
X142280522Y-45931287D01*
X142280518Y-45931282D01*
X142168717Y-45819481D01*
X142168709Y-45819475D01*
X142031790Y-45740426D01*
X142031786Y-45740424D01*
X142031784Y-45740423D01*
X141879057Y-45699500D01*
X141720943Y-45699500D01*
X141568216Y-45740423D01*
X141568209Y-45740426D01*
X141431290Y-45819475D01*
X141431282Y-45819481D01*
X141319481Y-45931282D01*
X141319475Y-45931290D01*
X141240426Y-46068209D01*
X141240423Y-46068216D01*
X141199500Y-46220943D01*
X138300500Y-46220943D01*
X138300500Y-46120943D01*
X138259577Y-45968216D01*
X138238256Y-45931287D01*
X138180524Y-45831290D01*
X138180518Y-45831282D01*
X138068717Y-45719481D01*
X138068709Y-45719475D01*
X137931790Y-45640426D01*
X137931786Y-45640424D01*
X137931784Y-45640423D01*
X137779057Y-45599500D01*
X137620943Y-45599500D01*
X137468216Y-45640423D01*
X137468209Y-45640426D01*
X137331290Y-45719475D01*
X137331282Y-45719481D01*
X137219481Y-45831282D01*
X137219475Y-45831290D01*
X137140426Y-45968209D01*
X137140423Y-45968216D01*
X137099500Y-46120943D01*
X136300000Y-46120943D01*
X136300000Y-45020943D01*
X138599500Y-45020943D01*
X138599500Y-45179056D01*
X138640423Y-45331783D01*
X138640426Y-45331790D01*
X138719475Y-45468709D01*
X138719479Y-45468714D01*
X138719480Y-45468716D01*
X138831284Y-45580520D01*
X138831286Y-45580521D01*
X138831290Y-45580524D01*
X138935040Y-45640423D01*
X138968216Y-45659577D01*
X139120943Y-45700500D01*
X139120945Y-45700500D01*
X139279055Y-45700500D01*
X139279057Y-45700500D01*
X139431784Y-45659577D01*
X139568716Y-45580520D01*
X139680520Y-45468716D01*
X139759577Y-45331784D01*
X139800500Y-45179057D01*
X139800500Y-45020943D01*
X139759577Y-44868216D01*
X139759573Y-44868209D01*
X139680524Y-44731290D01*
X139680518Y-44731282D01*
X139568717Y-44619481D01*
X139568709Y-44619475D01*
X139431790Y-44540426D01*
X139431786Y-44540424D01*
X139431784Y-44540423D01*
X139279057Y-44499500D01*
X139120943Y-44499500D01*
X138968216Y-44540423D01*
X138968209Y-44540426D01*
X138831290Y-44619475D01*
X138831282Y-44619481D01*
X138719481Y-44731282D01*
X138719475Y-44731290D01*
X138640426Y-44868209D01*
X138640423Y-44868216D01*
X138599500Y-45020943D01*
X136300000Y-45020943D01*
X136300000Y-42000000D01*
X120724000Y-42000000D01*
X120656961Y-41980315D01*
X120611206Y-41927511D01*
X120600000Y-41876000D01*
X120600000Y-40820943D01*
X124199500Y-40820943D01*
X124199500Y-40979057D01*
X124236788Y-41118216D01*
X124240423Y-41131783D01*
X124240426Y-41131790D01*
X124319475Y-41268709D01*
X124319479Y-41268714D01*
X124319480Y-41268716D01*
X124431284Y-41380520D01*
X124431286Y-41380521D01*
X124431290Y-41380524D01*
X124501299Y-41420943D01*
X124568216Y-41459577D01*
X124720943Y-41500500D01*
X124720945Y-41500500D01*
X124879055Y-41500500D01*
X124879057Y-41500500D01*
X125031784Y-41459577D01*
X125168716Y-41380520D01*
X125280520Y-41268716D01*
X125359577Y-41131784D01*
X125400500Y-40979057D01*
X125400500Y-40820943D01*
X126499500Y-40820943D01*
X126499500Y-40979057D01*
X126536788Y-41118216D01*
X126540423Y-41131783D01*
X126540426Y-41131790D01*
X126619475Y-41268709D01*
X126619479Y-41268714D01*
X126619480Y-41268716D01*
X126731284Y-41380520D01*
X126731286Y-41380521D01*
X126731290Y-41380524D01*
X126801299Y-41420943D01*
X126868216Y-41459577D01*
X127020943Y-41500500D01*
X127020945Y-41500500D01*
X127179055Y-41500500D01*
X127179057Y-41500500D01*
X127331784Y-41459577D01*
X127468716Y-41380520D01*
X127580520Y-41268716D01*
X127659577Y-41131784D01*
X127700500Y-40979057D01*
X127700500Y-40820943D01*
X127659577Y-40668216D01*
X127607343Y-40577743D01*
X127580524Y-40531290D01*
X127580518Y-40531282D01*
X127468717Y-40419481D01*
X127468709Y-40419475D01*
X127331790Y-40340426D01*
X127331786Y-40340424D01*
X127331784Y-40340423D01*
X127179057Y-40299500D01*
X127020943Y-40299500D01*
X126868216Y-40340423D01*
X126868209Y-40340426D01*
X126731290Y-40419475D01*
X126731282Y-40419481D01*
X126619481Y-40531282D01*
X126619475Y-40531290D01*
X126540426Y-40668209D01*
X126540423Y-40668216D01*
X126499500Y-40820943D01*
X125400500Y-40820943D01*
X125359577Y-40668216D01*
X125307343Y-40577743D01*
X125280524Y-40531290D01*
X125280518Y-40531282D01*
X125168717Y-40419481D01*
X125168709Y-40419475D01*
X125031790Y-40340426D01*
X125031786Y-40340424D01*
X125031784Y-40340423D01*
X124879057Y-40299500D01*
X124720943Y-40299500D01*
X124568216Y-40340423D01*
X124568209Y-40340426D01*
X124431290Y-40419475D01*
X124431282Y-40419481D01*
X124319481Y-40531282D01*
X124319475Y-40531290D01*
X124240426Y-40668209D01*
X124240423Y-40668216D01*
X124199500Y-40820943D01*
X120600000Y-40820943D01*
X120600000Y-39420943D01*
X127499500Y-39420943D01*
X127499500Y-39579057D01*
X127536788Y-39718216D01*
X127540423Y-39731783D01*
X127540426Y-39731790D01*
X127619475Y-39868709D01*
X127619479Y-39868714D01*
X127619480Y-39868716D01*
X127731284Y-39980520D01*
X127731286Y-39980521D01*
X127731290Y-39980524D01*
X127796489Y-40018166D01*
X127868216Y-40059577D01*
X128020943Y-40100500D01*
X128020945Y-40100500D01*
X128179055Y-40100500D01*
X128179057Y-40100500D01*
X128331784Y-40059577D01*
X128468716Y-39980520D01*
X128580520Y-39868716D01*
X128659577Y-39731784D01*
X128700500Y-39579057D01*
X128700500Y-39420943D01*
X128659577Y-39268216D01*
X128620482Y-39200500D01*
X128580524Y-39131290D01*
X128580518Y-39131282D01*
X128468717Y-39019481D01*
X128468709Y-39019475D01*
X128331790Y-38940426D01*
X128331786Y-38940424D01*
X128331784Y-38940423D01*
X128179057Y-38899500D01*
X128020943Y-38899500D01*
X127868216Y-38940423D01*
X127868209Y-38940426D01*
X127731290Y-39019475D01*
X127731282Y-39019481D01*
X127619481Y-39131282D01*
X127619475Y-39131290D01*
X127540426Y-39268209D01*
X127540423Y-39268216D01*
X127499500Y-39420943D01*
X120600000Y-39420943D01*
X120600000Y-34824000D01*
X120619685Y-34756961D01*
X120672489Y-34711206D01*
X120724000Y-34700000D01*
X123126000Y-34700000D01*
X123193039Y-34719685D01*
G37*
%TD.AperFunction*%
%TD*%
%TA.AperFunction,Conductor*%
%TO.N,PDC_3.3V*%
G36*
X164441622Y-33319685D02*
G01*
X164487377Y-33372489D01*
X164498575Y-33425409D01*
X164492038Y-34000567D01*
X164471593Y-34067379D01*
X164418272Y-34112531D01*
X164349005Y-34121687D01*
X164285783Y-34091942D01*
X164267728Y-34072043D01*
X164264339Y-34067379D01*
X164239414Y-34033072D01*
X164116928Y-33910586D01*
X163976788Y-33808768D01*
X163822445Y-33730127D01*
X163657701Y-33676598D01*
X163657699Y-33676597D01*
X163657698Y-33676597D01*
X163526271Y-33655781D01*
X163486611Y-33649500D01*
X163313389Y-33649500D01*
X163273728Y-33655781D01*
X163142302Y-33676597D01*
X162977552Y-33730128D01*
X162823211Y-33808768D01*
X162743256Y-33866859D01*
X162683072Y-33910586D01*
X162683070Y-33910588D01*
X162683069Y-33910588D01*
X162560588Y-34033069D01*
X162560588Y-34033070D01*
X162560586Y-34033072D01*
X162532272Y-34072043D01*
X162458768Y-34173211D01*
X162380128Y-34327552D01*
X162326597Y-34492302D01*
X162299500Y-34663389D01*
X162299500Y-34836611D01*
X162326598Y-35007701D01*
X162380127Y-35172445D01*
X162458768Y-35326788D01*
X162560586Y-35466928D01*
X162683072Y-35589414D01*
X162823212Y-35691232D01*
X162977555Y-35769873D01*
X163142299Y-35823402D01*
X163313389Y-35850500D01*
X163313390Y-35850500D01*
X163486610Y-35850500D01*
X163486611Y-35850500D01*
X163657701Y-35823402D01*
X163822445Y-35769873D01*
X163976788Y-35691232D01*
X164116928Y-35589414D01*
X164239414Y-35466928D01*
X164250393Y-35451816D01*
X164305719Y-35409152D01*
X164375332Y-35403171D01*
X164437128Y-35435775D01*
X164471487Y-35496613D01*
X164474702Y-35526111D01*
X164463619Y-36501451D01*
X164443174Y-36568262D01*
X164389854Y-36613414D01*
X164320586Y-36622571D01*
X164257365Y-36592826D01*
X164242703Y-36576669D01*
X164242578Y-36576777D01*
X164239411Y-36573069D01*
X164116930Y-36450588D01*
X164116928Y-36450586D01*
X163976788Y-36348768D01*
X163822445Y-36270127D01*
X163657701Y-36216598D01*
X163657699Y-36216597D01*
X163657698Y-36216597D01*
X163526271Y-36195781D01*
X163486611Y-36189500D01*
X163313389Y-36189500D01*
X163273728Y-36195781D01*
X163142302Y-36216597D01*
X162977552Y-36270128D01*
X162823211Y-36348768D01*
X162743256Y-36406859D01*
X162683072Y-36450586D01*
X162683070Y-36450588D01*
X162683069Y-36450588D01*
X162560588Y-36573069D01*
X162560588Y-36573070D01*
X162560586Y-36573072D01*
X162546234Y-36592826D01*
X162458768Y-36713211D01*
X162380128Y-36867552D01*
X162326597Y-37032302D01*
X162310920Y-37131284D01*
X162299500Y-37203389D01*
X162299500Y-37376611D01*
X162326598Y-37547701D01*
X162380127Y-37712445D01*
X162458768Y-37866788D01*
X162560586Y-38006928D01*
X162683072Y-38129414D01*
X162823212Y-38231232D01*
X162977555Y-38309873D01*
X163142299Y-38363402D01*
X163313389Y-38390500D01*
X163313390Y-38390500D01*
X163486610Y-38390500D01*
X163486611Y-38390500D01*
X163657701Y-38363402D01*
X163822445Y-38309873D01*
X163976788Y-38231232D01*
X164116928Y-38129414D01*
X164233765Y-38012576D01*
X164295084Y-37979094D01*
X164364776Y-37984078D01*
X164420710Y-38025949D01*
X164445127Y-38091413D01*
X164445435Y-38101669D01*
X164435103Y-39010816D01*
X164414658Y-39077628D01*
X164361337Y-39122779D01*
X164292070Y-39131936D01*
X164228849Y-39102191D01*
X164223430Y-39097088D01*
X164116930Y-38990588D01*
X164116928Y-38990586D01*
X163976788Y-38888768D01*
X163822445Y-38810127D01*
X163657701Y-38756598D01*
X163657699Y-38756597D01*
X163657698Y-38756597D01*
X163526271Y-38735781D01*
X163486611Y-38729500D01*
X163313389Y-38729500D01*
X163273728Y-38735781D01*
X163142302Y-38756597D01*
X162977552Y-38810128D01*
X162823211Y-38888768D01*
X162743256Y-38946859D01*
X162683072Y-38990586D01*
X162683070Y-38990588D01*
X162683069Y-38990588D01*
X162560588Y-39113069D01*
X162560588Y-39113070D01*
X162560586Y-39113072D01*
X162516859Y-39173256D01*
X162458768Y-39253211D01*
X162380128Y-39407552D01*
X162326597Y-39572302D01*
X162299500Y-39743389D01*
X162299500Y-39916610D01*
X162326597Y-40087697D01*
X162380128Y-40252447D01*
X162424954Y-40340423D01*
X162458768Y-40406788D01*
X162560586Y-40546928D01*
X162683072Y-40669414D01*
X162823212Y-40771232D01*
X162977555Y-40849873D01*
X163142299Y-40903402D01*
X163313389Y-40930500D01*
X163313390Y-40930500D01*
X163486610Y-40930500D01*
X163486611Y-40930500D01*
X163657701Y-40903402D01*
X163822445Y-40849873D01*
X163976788Y-40771232D01*
X164116928Y-40669414D01*
X164204569Y-40581772D01*
X164265888Y-40548290D01*
X164335580Y-40553274D01*
X164391514Y-40595145D01*
X164415931Y-40660609D01*
X164416239Y-40670865D01*
X164406564Y-41522277D01*
X164386119Y-41589088D01*
X164332798Y-41634240D01*
X164263531Y-41643397D01*
X164200310Y-41613652D01*
X164194891Y-41608549D01*
X164116930Y-41530588D01*
X164116928Y-41530586D01*
X163976788Y-41428768D01*
X163822445Y-41350127D01*
X163657701Y-41296598D01*
X163657699Y-41296597D01*
X163657698Y-41296597D01*
X163526271Y-41275781D01*
X163486611Y-41269500D01*
X163313389Y-41269500D01*
X163273728Y-41275781D01*
X163142302Y-41296597D01*
X162977552Y-41350128D01*
X162823211Y-41428768D01*
X162780807Y-41459577D01*
X162683072Y-41530586D01*
X162683070Y-41530588D01*
X162683069Y-41530588D01*
X162560588Y-41653069D01*
X162560588Y-41653070D01*
X162560586Y-41653072D01*
X162516859Y-41713256D01*
X162458768Y-41793211D01*
X162380128Y-41947552D01*
X162326597Y-42112302D01*
X162299500Y-42283389D01*
X162299500Y-42456610D01*
X162312774Y-42540423D01*
X162326598Y-42627701D01*
X162380127Y-42792445D01*
X162458768Y-42946788D01*
X162560586Y-43086928D01*
X162683072Y-43209414D01*
X162823212Y-43311232D01*
X162977555Y-43389873D01*
X163142299Y-43443402D01*
X163313389Y-43470500D01*
X163313390Y-43470500D01*
X163486610Y-43470500D01*
X163486611Y-43470500D01*
X163657701Y-43443402D01*
X163822445Y-43389873D01*
X163976788Y-43311232D01*
X164116928Y-43209414D01*
X164175374Y-43150967D01*
X164236693Y-43117485D01*
X164306385Y-43122469D01*
X164362319Y-43164340D01*
X164386736Y-43229804D01*
X164387044Y-43240060D01*
X164378024Y-44033737D01*
X164357579Y-44100549D01*
X164304258Y-44145700D01*
X164234991Y-44154857D01*
X164171770Y-44125112D01*
X164166351Y-44120009D01*
X164116930Y-44070588D01*
X164116928Y-44070586D01*
X163976788Y-43968768D01*
X163822445Y-43890127D01*
X163657701Y-43836598D01*
X163657699Y-43836597D01*
X163657698Y-43836597D01*
X163526271Y-43815781D01*
X163486611Y-43809500D01*
X163313389Y-43809500D01*
X163273728Y-43815781D01*
X163142302Y-43836597D01*
X162977552Y-43890128D01*
X162823211Y-43968768D01*
X162743256Y-44026859D01*
X162683072Y-44070586D01*
X162683070Y-44070588D01*
X162683069Y-44070588D01*
X162560588Y-44193069D01*
X162560588Y-44193070D01*
X162560586Y-44193072D01*
X162516859Y-44253256D01*
X162458768Y-44333211D01*
X162380128Y-44487552D01*
X162326597Y-44652302D01*
X162299500Y-44823389D01*
X162299500Y-44996610D01*
X162319192Y-45120945D01*
X162326598Y-45167701D01*
X162380127Y-45332445D01*
X162458768Y-45486788D01*
X162560586Y-45626928D01*
X162683072Y-45749414D01*
X162823212Y-45851232D01*
X162977555Y-45929873D01*
X163142299Y-45983402D01*
X163313389Y-46010500D01*
X163313390Y-46010500D01*
X163486610Y-46010500D01*
X163486611Y-46010500D01*
X163657701Y-45983402D01*
X163822445Y-45929873D01*
X163976788Y-45851232D01*
X164116928Y-45749414D01*
X164146176Y-45720165D01*
X164207495Y-45686682D01*
X164277187Y-45691666D01*
X164333121Y-45733536D01*
X164357539Y-45799000D01*
X164357847Y-45809257D01*
X164349485Y-46545198D01*
X164329040Y-46612009D01*
X164275720Y-46657161D01*
X164206453Y-46666318D01*
X164143231Y-46636573D01*
X164137812Y-46631470D01*
X164116930Y-46610588D01*
X164116928Y-46610586D01*
X163976788Y-46508768D01*
X163822445Y-46430127D01*
X163657701Y-46376598D01*
X163657699Y-46376597D01*
X163657698Y-46376597D01*
X163526271Y-46355781D01*
X163486611Y-46349500D01*
X163313389Y-46349500D01*
X163273728Y-46355781D01*
X163142302Y-46376597D01*
X162977552Y-46430128D01*
X162823211Y-46508768D01*
X162743256Y-46566859D01*
X162683072Y-46610586D01*
X162683070Y-46610588D01*
X162683069Y-46610588D01*
X162560588Y-46733069D01*
X162560588Y-46733070D01*
X162560586Y-46733072D01*
X162516859Y-46793256D01*
X162458768Y-46873211D01*
X162380128Y-47027552D01*
X162326597Y-47192302D01*
X162299500Y-47363389D01*
X162299500Y-47536611D01*
X162299884Y-47539033D01*
X162321776Y-47677260D01*
X162326598Y-47707701D01*
X162380127Y-47872445D01*
X162458768Y-48026788D01*
X162560586Y-48166928D01*
X162683072Y-48289414D01*
X162823212Y-48391232D01*
X162977555Y-48469873D01*
X163142299Y-48523402D01*
X163313389Y-48550500D01*
X163313390Y-48550500D01*
X163486610Y-48550500D01*
X163486611Y-48550500D01*
X163657701Y-48523402D01*
X163822445Y-48469873D01*
X163976788Y-48391232D01*
X164116928Y-48289414D01*
X164116971Y-48289370D01*
X164116990Y-48289360D01*
X164120632Y-48286250D01*
X164121284Y-48287014D01*
X164178286Y-48255880D01*
X164247978Y-48260854D01*
X164303917Y-48302717D01*
X164328344Y-48368178D01*
X164328653Y-48378451D01*
X164324802Y-48717409D01*
X164304357Y-48784220D01*
X164251037Y-48829372D01*
X164200810Y-48840000D01*
X163550000Y-48840000D01*
X163550000Y-49512554D01*
X163465826Y-49490000D01*
X163334174Y-49490000D01*
X163250000Y-49512554D01*
X163250000Y-48840000D01*
X162505214Y-48840000D01*
X162505191Y-48840002D01*
X162480130Y-48842908D01*
X162480126Y-48842909D01*
X162377525Y-48888211D01*
X162377520Y-48888214D01*
X162298214Y-48967520D01*
X162298211Y-48967525D01*
X162252910Y-49070122D01*
X162252910Y-49070124D01*
X162250000Y-49095205D01*
X162250000Y-49840000D01*
X162922555Y-49840000D01*
X162900000Y-49924174D01*
X162900000Y-50055826D01*
X162922555Y-50140000D01*
X162250000Y-50140000D01*
X162250000Y-50758534D01*
X162230315Y-50825573D01*
X162177511Y-50871328D01*
X162125004Y-50882530D01*
X157542491Y-50845722D01*
X157475612Y-50825500D01*
X157430283Y-50772330D01*
X157425556Y-50760043D01*
X157419875Y-50742559D01*
X157341231Y-50588211D01*
X157239414Y-50448072D01*
X157116928Y-50325586D01*
X156976788Y-50223768D01*
X156822445Y-50145127D01*
X156657701Y-50091598D01*
X156657699Y-50091597D01*
X156657698Y-50091597D01*
X156526271Y-50070781D01*
X156486611Y-50064500D01*
X156313389Y-50064500D01*
X156273728Y-50070781D01*
X156142302Y-50091597D01*
X155977552Y-50145128D01*
X155823211Y-50223768D01*
X155743256Y-50281859D01*
X155683072Y-50325586D01*
X155683070Y-50325588D01*
X155683069Y-50325588D01*
X155560588Y-50448069D01*
X155560588Y-50448070D01*
X155560586Y-50448072D01*
X155516859Y-50508256D01*
X155458768Y-50588211D01*
X155380126Y-50742556D01*
X155378266Y-50747048D01*
X155377093Y-50746562D01*
X155340945Y-50799411D01*
X155276582Y-50826599D01*
X155261470Y-50827401D01*
X151923004Y-50800586D01*
X151856125Y-50780364D01*
X151810796Y-50727194D01*
X151800000Y-50676590D01*
X151800000Y-48620943D01*
X152699500Y-48620943D01*
X152699500Y-48779057D01*
X152728749Y-48888214D01*
X152740423Y-48931783D01*
X152740426Y-48931790D01*
X152819475Y-49068709D01*
X152819479Y-49068714D01*
X152819480Y-49068716D01*
X152931284Y-49180520D01*
X152931286Y-49180521D01*
X152931290Y-49180524D01*
X153068209Y-49259573D01*
X153068216Y-49259577D01*
X153220943Y-49300500D01*
X153220945Y-49300500D01*
X153379055Y-49300500D01*
X153379057Y-49300500D01*
X153531784Y-49259577D01*
X153668716Y-49180520D01*
X153780520Y-49068716D01*
X153859577Y-48931784D01*
X153900500Y-48779057D01*
X153900500Y-48620943D01*
X153859577Y-48468216D01*
X153801821Y-48368178D01*
X153780524Y-48331290D01*
X153780518Y-48331282D01*
X153668717Y-48219481D01*
X153668709Y-48219475D01*
X153531790Y-48140426D01*
X153531786Y-48140424D01*
X153531784Y-48140423D01*
X153379057Y-48099500D01*
X153220943Y-48099500D01*
X153068216Y-48140423D01*
X153068209Y-48140426D01*
X152931290Y-48219475D01*
X152931282Y-48219481D01*
X152819481Y-48331282D01*
X152819475Y-48331290D01*
X152740426Y-48468209D01*
X152740423Y-48468216D01*
X152699500Y-48620943D01*
X151800000Y-48620943D01*
X151800000Y-47750321D01*
X155299500Y-47750321D01*
X155299500Y-49499678D01*
X155314032Y-49572735D01*
X155314033Y-49572739D01*
X155314034Y-49572740D01*
X155369399Y-49655601D01*
X155410395Y-49682993D01*
X155452260Y-49710966D01*
X155452264Y-49710967D01*
X155525321Y-49725499D01*
X155525324Y-49725500D01*
X155525326Y-49725500D01*
X157274676Y-49725500D01*
X157274677Y-49725499D01*
X157347740Y-49710966D01*
X157430601Y-49655601D01*
X157485966Y-49572740D01*
X157500500Y-49499674D01*
X157500500Y-47750326D01*
X157500500Y-47750323D01*
X157500499Y-47750321D01*
X157485967Y-47677264D01*
X157485966Y-47677260D01*
X157430601Y-47594399D01*
X157347740Y-47539034D01*
X157347739Y-47539033D01*
X157347735Y-47539032D01*
X157274677Y-47524500D01*
X157274674Y-47524500D01*
X155525326Y-47524500D01*
X155525323Y-47524500D01*
X155452264Y-47539032D01*
X155452260Y-47539033D01*
X155369399Y-47594399D01*
X155314033Y-47677260D01*
X155314032Y-47677264D01*
X155299500Y-47750321D01*
X151800000Y-47750321D01*
X151800000Y-45120943D01*
X152699500Y-45120943D01*
X152699500Y-45279057D01*
X152713806Y-45332445D01*
X152740423Y-45431783D01*
X152740426Y-45431790D01*
X152819475Y-45568709D01*
X152819479Y-45568714D01*
X152819480Y-45568716D01*
X152931284Y-45680520D01*
X152931286Y-45680521D01*
X152931290Y-45680524D01*
X153023111Y-45733536D01*
X153068216Y-45759577D01*
X153220943Y-45800500D01*
X153220945Y-45800500D01*
X153379055Y-45800500D01*
X153379057Y-45800500D01*
X153531784Y-45759577D01*
X153668716Y-45680520D01*
X153780520Y-45568716D01*
X153859577Y-45431784D01*
X153900500Y-45279057D01*
X153900500Y-45120943D01*
X153873705Y-45020943D01*
X154599500Y-45020943D01*
X154599500Y-45179057D01*
X154626295Y-45279055D01*
X154640423Y-45331783D01*
X154640426Y-45331790D01*
X154719475Y-45468709D01*
X154719479Y-45468714D01*
X154719480Y-45468716D01*
X154831284Y-45580520D01*
X154831286Y-45580521D01*
X154831290Y-45580524D01*
X154911667Y-45626929D01*
X154968216Y-45659577D01*
X155120943Y-45700500D01*
X155120945Y-45700500D01*
X155279055Y-45700500D01*
X155279057Y-45700500D01*
X155431784Y-45659577D01*
X155568716Y-45580520D01*
X155680520Y-45468716D01*
X155759577Y-45331784D01*
X155800500Y-45179057D01*
X155800500Y-45020943D01*
X155759577Y-44868216D01*
X155738258Y-44831290D01*
X155680524Y-44731290D01*
X155680518Y-44731282D01*
X155568717Y-44619481D01*
X155568709Y-44619475D01*
X155431790Y-44540426D01*
X155431786Y-44540424D01*
X155431784Y-44540423D01*
X155279057Y-44499500D01*
X155120943Y-44499500D01*
X154968216Y-44540423D01*
X154968209Y-44540426D01*
X154831290Y-44619475D01*
X154831282Y-44619481D01*
X154719481Y-44731282D01*
X154719475Y-44731290D01*
X154640426Y-44868209D01*
X154640423Y-44868216D01*
X154599500Y-45020943D01*
X153873705Y-45020943D01*
X153859577Y-44968216D01*
X153801843Y-44868216D01*
X153780524Y-44831290D01*
X153780518Y-44831282D01*
X153668717Y-44719481D01*
X153668709Y-44719475D01*
X153531790Y-44640426D01*
X153531786Y-44640424D01*
X153531784Y-44640423D01*
X153379057Y-44599500D01*
X153220943Y-44599500D01*
X153068216Y-44640423D01*
X153068209Y-44640426D01*
X152931290Y-44719475D01*
X152931282Y-44719481D01*
X152819481Y-44831282D01*
X152819475Y-44831290D01*
X152740426Y-44968209D01*
X152740423Y-44968216D01*
X152699500Y-45120943D01*
X151800000Y-45120943D01*
X151800000Y-43020943D01*
X152999500Y-43020943D01*
X152999500Y-43179057D01*
X153023525Y-43268717D01*
X153040423Y-43331783D01*
X153040426Y-43331790D01*
X153119475Y-43468709D01*
X153119479Y-43468714D01*
X153119480Y-43468716D01*
X153231284Y-43580520D01*
X153231286Y-43580521D01*
X153231290Y-43580524D01*
X153368209Y-43659573D01*
X153368216Y-43659577D01*
X153520943Y-43700500D01*
X153520945Y-43700500D01*
X153679055Y-43700500D01*
X153679057Y-43700500D01*
X153831784Y-43659577D01*
X153968716Y-43580520D01*
X154080520Y-43468716D01*
X154159577Y-43331784D01*
X154200500Y-43179057D01*
X154200500Y-43020943D01*
X154159577Y-42868216D01*
X154132285Y-42820945D01*
X154132284Y-42820943D01*
X157299500Y-42820943D01*
X157299500Y-42979057D01*
X157328405Y-43086930D01*
X157340423Y-43131783D01*
X157340426Y-43131790D01*
X157419475Y-43268709D01*
X157419479Y-43268714D01*
X157419480Y-43268716D01*
X157531284Y-43380520D01*
X157531286Y-43380521D01*
X157531290Y-43380524D01*
X157640200Y-43443402D01*
X157668216Y-43459577D01*
X157820943Y-43500500D01*
X157820945Y-43500500D01*
X157979055Y-43500500D01*
X157979057Y-43500500D01*
X158131784Y-43459577D01*
X158268716Y-43380520D01*
X158380520Y-43268716D01*
X158459577Y-43131784D01*
X158500500Y-42979057D01*
X158500500Y-42820943D01*
X158459577Y-42668216D01*
X158431437Y-42619475D01*
X158380524Y-42531290D01*
X158380518Y-42531282D01*
X158268717Y-42419481D01*
X158268709Y-42419475D01*
X158131790Y-42340426D01*
X158131786Y-42340424D01*
X158131784Y-42340423D01*
X157979057Y-42299500D01*
X157820943Y-42299500D01*
X157668216Y-42340423D01*
X157668209Y-42340426D01*
X157531290Y-42419475D01*
X157531282Y-42419481D01*
X157419481Y-42531282D01*
X157419475Y-42531290D01*
X157340426Y-42668209D01*
X157340423Y-42668216D01*
X157299500Y-42820943D01*
X154132284Y-42820943D01*
X154080522Y-42731287D01*
X154080518Y-42731282D01*
X153968717Y-42619481D01*
X153968709Y-42619475D01*
X153831790Y-42540426D01*
X153831786Y-42540424D01*
X153831784Y-42540423D01*
X153679057Y-42499500D01*
X153520943Y-42499500D01*
X153368216Y-42540423D01*
X153368209Y-42540426D01*
X153231290Y-42619475D01*
X153231282Y-42619481D01*
X153119481Y-42731282D01*
X153119475Y-42731290D01*
X153040426Y-42868209D01*
X153040426Y-42868210D01*
X153040423Y-42868216D01*
X152999500Y-43020943D01*
X151800000Y-43020943D01*
X151800000Y-42395410D01*
X152750000Y-42400000D01*
X152750000Y-41399236D01*
X152831284Y-41480520D01*
X152831286Y-41480521D01*
X152831290Y-41480524D01*
X152918005Y-41530588D01*
X152968216Y-41559577D01*
X153120943Y-41600500D01*
X153120945Y-41600500D01*
X153279055Y-41600500D01*
X153279057Y-41600500D01*
X153431784Y-41559577D01*
X153568716Y-41480520D01*
X153680520Y-41368716D01*
X153759577Y-41231784D01*
X153800500Y-41079057D01*
X153800500Y-40920943D01*
X153773705Y-40820943D01*
X156799500Y-40820943D01*
X156799500Y-40979057D01*
X156826295Y-41079055D01*
X156840423Y-41131783D01*
X156840426Y-41131790D01*
X156919475Y-41268709D01*
X156919479Y-41268714D01*
X156919480Y-41268716D01*
X157031284Y-41380520D01*
X157031286Y-41380521D01*
X157031290Y-41380524D01*
X157168209Y-41459573D01*
X157168216Y-41459577D01*
X157320943Y-41500500D01*
X157320945Y-41500500D01*
X157479055Y-41500500D01*
X157479057Y-41500500D01*
X157631784Y-41459577D01*
X157768716Y-41380520D01*
X157880520Y-41268716D01*
X157959577Y-41131784D01*
X158000500Y-40979057D01*
X158000500Y-40820943D01*
X157959577Y-40668216D01*
X157938258Y-40631290D01*
X157880524Y-40531290D01*
X157880518Y-40531282D01*
X157768717Y-40419481D01*
X157768709Y-40419475D01*
X157631790Y-40340426D01*
X157631786Y-40340424D01*
X157631784Y-40340423D01*
X157479057Y-40299500D01*
X157320943Y-40299500D01*
X157168216Y-40340423D01*
X157168209Y-40340426D01*
X157031290Y-40419475D01*
X157031282Y-40419481D01*
X156919481Y-40531282D01*
X156919475Y-40531290D01*
X156840426Y-40668209D01*
X156840423Y-40668216D01*
X156799500Y-40820943D01*
X153773705Y-40820943D01*
X153759577Y-40768216D01*
X153703372Y-40670865D01*
X153680524Y-40631290D01*
X153680518Y-40631282D01*
X153568717Y-40519481D01*
X153568709Y-40519475D01*
X153431790Y-40440426D01*
X153431786Y-40440424D01*
X153431784Y-40440423D01*
X153279057Y-40399500D01*
X153120943Y-40399500D01*
X152968216Y-40440423D01*
X152968209Y-40440426D01*
X152831290Y-40519475D01*
X152831282Y-40519481D01*
X152750000Y-40600763D01*
X152750000Y-38350000D01*
X151812500Y-38350000D01*
X151822598Y-37420943D01*
X152799500Y-37420943D01*
X152799500Y-37579057D01*
X152838063Y-37722974D01*
X152840423Y-37731783D01*
X152840426Y-37731790D01*
X152919475Y-37868709D01*
X152919479Y-37868714D01*
X152919480Y-37868716D01*
X153031284Y-37980520D01*
X153031286Y-37980521D01*
X153031290Y-37980524D01*
X153119221Y-38031290D01*
X153168216Y-38059577D01*
X153236273Y-38077812D01*
X153295933Y-38114177D01*
X153326462Y-38177024D01*
X153323954Y-38229680D01*
X153299500Y-38320943D01*
X153299500Y-38479056D01*
X153340423Y-38631783D01*
X153340426Y-38631790D01*
X153419475Y-38768709D01*
X153419479Y-38768714D01*
X153419480Y-38768716D01*
X153531284Y-38880520D01*
X153531286Y-38880521D01*
X153531290Y-38880524D01*
X153668209Y-38959573D01*
X153668216Y-38959577D01*
X153820943Y-39000500D01*
X153820945Y-39000500D01*
X153979055Y-39000500D01*
X153979057Y-39000500D01*
X154131784Y-38959577D01*
X154268716Y-38880520D01*
X154380520Y-38768716D01*
X154459577Y-38631784D01*
X154500500Y-38479057D01*
X154500500Y-38320943D01*
X154459577Y-38168216D01*
X154428378Y-38114177D01*
X154380524Y-38031290D01*
X154380518Y-38031282D01*
X154268717Y-37919481D01*
X154268709Y-37919475D01*
X154131790Y-37840426D01*
X154131785Y-37840423D01*
X154063726Y-37822187D01*
X154004066Y-37785821D01*
X153973537Y-37722974D01*
X153976045Y-37670321D01*
X154000500Y-37579057D01*
X154000500Y-37420943D01*
X153959577Y-37268216D01*
X153959573Y-37268209D01*
X153880524Y-37131290D01*
X153880518Y-37131282D01*
X153768717Y-37019481D01*
X153768709Y-37019475D01*
X153631790Y-36940426D01*
X153631786Y-36940424D01*
X153631784Y-36940423D01*
X153479057Y-36899500D01*
X153320943Y-36899500D01*
X153168216Y-36940423D01*
X153168209Y-36940426D01*
X153031290Y-37019475D01*
X153031282Y-37019481D01*
X152919481Y-37131282D01*
X152919475Y-37131290D01*
X152840426Y-37268209D01*
X152840423Y-37268216D01*
X152799500Y-37420943D01*
X151822598Y-37420943D01*
X151850000Y-34900000D01*
X151850000Y-33424000D01*
X151869685Y-33356961D01*
X151922489Y-33311206D01*
X151974000Y-33300000D01*
X164374583Y-33300000D01*
X164441622Y-33319685D01*
G37*
%TD.AperFunction*%
%TD*%
%TA.AperFunction,Conductor*%
%TO.N,/Power Conversion/PH*%
G36*
X140443039Y-49619685D02*
G01*
X140488794Y-49672489D01*
X140500000Y-49724000D01*
X140500000Y-57676000D01*
X140480315Y-57743039D01*
X140427511Y-57788794D01*
X140376000Y-57800000D01*
X132024000Y-57800000D01*
X131956961Y-57780315D01*
X131911206Y-57727511D01*
X131900000Y-57676000D01*
X131900000Y-52820943D01*
X135599500Y-52820943D01*
X135599500Y-52979056D01*
X135640423Y-53131783D01*
X135640426Y-53131790D01*
X135719475Y-53268709D01*
X135719479Y-53268714D01*
X135719480Y-53268716D01*
X135831284Y-53380520D01*
X135831286Y-53380521D01*
X135831290Y-53380524D01*
X135968209Y-53459573D01*
X135968216Y-53459577D01*
X136120943Y-53500500D01*
X136120945Y-53500500D01*
X136279055Y-53500500D01*
X136279057Y-53500500D01*
X136431784Y-53459577D01*
X136568716Y-53380520D01*
X136680520Y-53268716D01*
X136759577Y-53131784D01*
X136800500Y-52979057D01*
X136800500Y-52820943D01*
X136759577Y-52668216D01*
X136759573Y-52668209D01*
X136680524Y-52531290D01*
X136680518Y-52531282D01*
X136568717Y-52419481D01*
X136568709Y-52419475D01*
X136431790Y-52340426D01*
X136431786Y-52340424D01*
X136431784Y-52340423D01*
X136279057Y-52299500D01*
X136120943Y-52299500D01*
X135968216Y-52340423D01*
X135968209Y-52340426D01*
X135831290Y-52419475D01*
X135831282Y-52419481D01*
X135719481Y-52531282D01*
X135719475Y-52531290D01*
X135640426Y-52668209D01*
X135640423Y-52668216D01*
X135599500Y-52820943D01*
X131900000Y-52820943D01*
X131900000Y-50620943D01*
X136199500Y-50620943D01*
X136199500Y-50779056D01*
X136240423Y-50931783D01*
X136240426Y-50931790D01*
X136319475Y-51068709D01*
X136319479Y-51068714D01*
X136319480Y-51068716D01*
X136431284Y-51180520D01*
X136431286Y-51180521D01*
X136431290Y-51180524D01*
X136568209Y-51259573D01*
X136568216Y-51259577D01*
X136720943Y-51300500D01*
X136720945Y-51300500D01*
X136879055Y-51300500D01*
X136879057Y-51300500D01*
X137031784Y-51259577D01*
X137168716Y-51180520D01*
X137280520Y-51068716D01*
X137359577Y-50931784D01*
X137400500Y-50779057D01*
X137400500Y-50620943D01*
X137359577Y-50468216D01*
X137359573Y-50468209D01*
X137280524Y-50331290D01*
X137280518Y-50331282D01*
X137168717Y-50219481D01*
X137168709Y-50219475D01*
X137031790Y-50140426D01*
X137031786Y-50140424D01*
X137031784Y-50140423D01*
X136879057Y-50099500D01*
X136720943Y-50099500D01*
X136568216Y-50140423D01*
X136568209Y-50140426D01*
X136431290Y-50219475D01*
X136431282Y-50219481D01*
X136319481Y-50331282D01*
X136319475Y-50331290D01*
X136240426Y-50468209D01*
X136240423Y-50468216D01*
X136199500Y-50620943D01*
X131900000Y-50620943D01*
X131900000Y-49724000D01*
X131919685Y-49656961D01*
X131972489Y-49611206D01*
X132024000Y-49600000D01*
X140376000Y-49600000D01*
X140443039Y-49619685D01*
G37*
%TD.AperFunction*%
%TD*%
%TA.AperFunction,Conductor*%
%TO.N,+3.3V*%
G36*
X166643039Y-60019685D02*
G01*
X166688794Y-60072489D01*
X166700000Y-60124000D01*
X166700000Y-82025412D01*
X166696283Y-82055545D01*
X166689525Y-82082521D01*
X166685994Y-82094162D01*
X166652513Y-82187735D01*
X166568429Y-82422736D01*
X166566142Y-82429127D01*
X166561485Y-82440370D01*
X166409366Y-82762000D01*
X166403629Y-82772732D01*
X166220729Y-83077881D01*
X166213969Y-83087999D01*
X166002028Y-83373769D01*
X165994308Y-83383175D01*
X165755388Y-83646783D01*
X165746783Y-83655388D01*
X165483175Y-83894308D01*
X165473769Y-83902028D01*
X165187999Y-84113969D01*
X165177881Y-84120729D01*
X164872732Y-84303629D01*
X164862000Y-84309366D01*
X164540370Y-84461485D01*
X164529134Y-84466139D01*
X164405442Y-84510397D01*
X164194162Y-84585994D01*
X164182518Y-84589526D01*
X163837402Y-84675973D01*
X163825467Y-84678347D01*
X163473542Y-84730550D01*
X163461432Y-84731743D01*
X163123927Y-84748324D01*
X163103031Y-84749351D01*
X163096949Y-84749500D01*
X143621742Y-84749500D01*
X123567242Y-84705616D01*
X123549318Y-84704274D01*
X123374532Y-84678347D01*
X123362597Y-84675973D01*
X123017481Y-84589526D01*
X123005837Y-84585994D01*
X122670858Y-84466136D01*
X122659629Y-84461485D01*
X122337999Y-84309366D01*
X122327272Y-84303631D01*
X122022118Y-84120729D01*
X122012000Y-84113969D01*
X121726230Y-83902028D01*
X121716824Y-83894308D01*
X121522650Y-83718319D01*
X121453209Y-83655381D01*
X121444618Y-83646790D01*
X121205691Y-83383175D01*
X121197971Y-83373768D01*
X121024402Y-83139736D01*
X121000278Y-83074164D01*
X121000000Y-83065870D01*
X121000000Y-81078711D01*
X121999500Y-81078711D01*
X121999500Y-81321288D01*
X122031161Y-81561785D01*
X122093947Y-81796104D01*
X122172858Y-81986611D01*
X122186776Y-82020212D01*
X122308064Y-82230289D01*
X122308066Y-82230292D01*
X122308067Y-82230293D01*
X122455733Y-82422736D01*
X122455739Y-82422743D01*
X122627256Y-82594260D01*
X122627263Y-82594266D01*
X122692417Y-82644260D01*
X122819711Y-82741936D01*
X123029788Y-82863224D01*
X123253900Y-82956054D01*
X123488211Y-83018838D01*
X123668586Y-83042584D01*
X123728711Y-83050500D01*
X123728712Y-83050500D01*
X123971289Y-83050500D01*
X124019388Y-83044167D01*
X124211789Y-83018838D01*
X124446100Y-82956054D01*
X124670212Y-82863224D01*
X124880289Y-82741936D01*
X125072738Y-82594265D01*
X125244265Y-82422738D01*
X125391936Y-82230289D01*
X125513224Y-82020212D01*
X125606054Y-81796100D01*
X125668838Y-81561789D01*
X125700500Y-81321288D01*
X125700500Y-81078712D01*
X125668838Y-80838211D01*
X125606054Y-80603900D01*
X125513226Y-80379794D01*
X125513226Y-80379793D01*
X125513224Y-80379788D01*
X125504871Y-80365321D01*
X129499500Y-80365321D01*
X129499500Y-82114678D01*
X129514032Y-82187735D01*
X129514033Y-82187739D01*
X129532405Y-82215235D01*
X129569399Y-82270601D01*
X129613547Y-82300099D01*
X129652260Y-82325966D01*
X129652264Y-82325967D01*
X129725321Y-82340499D01*
X129725324Y-82340500D01*
X129725326Y-82340500D01*
X131474676Y-82340500D01*
X131474677Y-82340499D01*
X131547740Y-82325966D01*
X131630601Y-82270601D01*
X131685966Y-82187740D01*
X131700500Y-82114674D01*
X131700500Y-80820943D01*
X132199500Y-80820943D01*
X132199500Y-80979057D01*
X132226203Y-81078712D01*
X132240423Y-81131783D01*
X132240426Y-81131790D01*
X132319475Y-81268709D01*
X132319479Y-81268714D01*
X132319480Y-81268716D01*
X132431284Y-81380520D01*
X132431286Y-81380521D01*
X132431290Y-81380524D01*
X132568209Y-81459573D01*
X132568216Y-81459577D01*
X132720943Y-81500500D01*
X132720945Y-81500500D01*
X132879055Y-81500500D01*
X132879057Y-81500500D01*
X133031784Y-81459577D01*
X133168716Y-81380520D01*
X133280520Y-81268716D01*
X133359577Y-81131784D01*
X133394311Y-81002155D01*
X137870000Y-81002155D01*
X137870000Y-81650000D01*
X138786988Y-81650000D01*
X138754075Y-81707007D01*
X138720000Y-81834174D01*
X138720000Y-81965826D01*
X138754075Y-82092993D01*
X138786988Y-82150000D01*
X137870000Y-82150000D01*
X137870000Y-82797844D01*
X137876401Y-82857372D01*
X137876403Y-82857379D01*
X137926645Y-82992086D01*
X137926649Y-82992093D01*
X138012809Y-83107187D01*
X138012812Y-83107190D01*
X138127906Y-83193350D01*
X138127913Y-83193354D01*
X138262620Y-83243596D01*
X138262627Y-83243598D01*
X138322155Y-83249999D01*
X138322172Y-83250000D01*
X138970000Y-83250000D01*
X138970000Y-82333012D01*
X139027007Y-82365925D01*
X139154174Y-82400000D01*
X139285826Y-82400000D01*
X139412993Y-82365925D01*
X139470000Y-82333012D01*
X139470000Y-83250000D01*
X140117828Y-83250000D01*
X140117844Y-83249999D01*
X140177372Y-83243598D01*
X140177379Y-83243596D01*
X140312086Y-83193354D01*
X140312093Y-83193350D01*
X140427187Y-83107190D01*
X140427190Y-83107187D01*
X140513350Y-82992093D01*
X140513354Y-82992086D01*
X140563596Y-82857379D01*
X140563598Y-82857372D01*
X140569999Y-82797844D01*
X140570000Y-82797827D01*
X140570000Y-82505050D01*
X140589685Y-82438011D01*
X140642489Y-82392256D01*
X140711647Y-82382312D01*
X140775203Y-82411337D01*
X140804485Y-82448756D01*
X140818766Y-82476786D01*
X140849357Y-82518890D01*
X140920586Y-82616928D01*
X141043072Y-82739414D01*
X141183212Y-82841232D01*
X141337555Y-82919873D01*
X141502299Y-82973402D01*
X141673389Y-83000500D01*
X141673390Y-83000500D01*
X141846610Y-83000500D01*
X141846611Y-83000500D01*
X142017701Y-82973402D01*
X142182445Y-82919873D01*
X142336788Y-82841232D01*
X142476928Y-82739414D01*
X142599414Y-82616928D01*
X142701232Y-82476788D01*
X142779873Y-82322445D01*
X142833402Y-82157701D01*
X142860500Y-81986611D01*
X142860500Y-81813389D01*
X143199500Y-81813389D01*
X143199500Y-81986611D01*
X143207677Y-82038239D01*
X143219783Y-82114676D01*
X143226598Y-82157701D01*
X143280127Y-82322445D01*
X143358768Y-82476788D01*
X143460586Y-82616928D01*
X143583072Y-82739414D01*
X143723212Y-82841232D01*
X143877555Y-82919873D01*
X144042299Y-82973402D01*
X144213389Y-83000500D01*
X144213390Y-83000500D01*
X144386610Y-83000500D01*
X144386611Y-83000500D01*
X144557701Y-82973402D01*
X144722445Y-82919873D01*
X144876788Y-82841232D01*
X145016928Y-82739414D01*
X145139414Y-82616928D01*
X145241232Y-82476788D01*
X145319873Y-82322445D01*
X145373402Y-82157701D01*
X145400500Y-81986611D01*
X145400500Y-81813389D01*
X145739500Y-81813389D01*
X145739500Y-81986611D01*
X145747677Y-82038239D01*
X145759783Y-82114676D01*
X145766598Y-82157701D01*
X145820127Y-82322445D01*
X145898768Y-82476788D01*
X146000586Y-82616928D01*
X146123072Y-82739414D01*
X146263212Y-82841232D01*
X146417555Y-82919873D01*
X146582299Y-82973402D01*
X146753389Y-83000500D01*
X146753390Y-83000500D01*
X146926610Y-83000500D01*
X146926611Y-83000500D01*
X147097701Y-82973402D01*
X147262445Y-82919873D01*
X147416788Y-82841232D01*
X147556928Y-82739414D01*
X147679414Y-82616928D01*
X147781232Y-82476788D01*
X147859873Y-82322445D01*
X147913402Y-82157701D01*
X147940500Y-81986611D01*
X147940500Y-81813389D01*
X148279500Y-81813389D01*
X148279500Y-81986611D01*
X148287677Y-82038239D01*
X148299783Y-82114676D01*
X148306598Y-82157701D01*
X148360127Y-82322445D01*
X148438768Y-82476788D01*
X148540586Y-82616928D01*
X148663072Y-82739414D01*
X148803212Y-82841232D01*
X148957555Y-82919873D01*
X149122299Y-82973402D01*
X149293389Y-83000500D01*
X149293390Y-83000500D01*
X149466610Y-83000500D01*
X149466611Y-83000500D01*
X149637701Y-82973402D01*
X149802445Y-82919873D01*
X149956788Y-82841232D01*
X150096928Y-82739414D01*
X150219414Y-82616928D01*
X150321232Y-82476788D01*
X150399873Y-82322445D01*
X150453402Y-82157701D01*
X150480500Y-81986611D01*
X150480500Y-81813389D01*
X150819500Y-81813389D01*
X150819500Y-81986611D01*
X150827677Y-82038239D01*
X150839783Y-82114676D01*
X150846598Y-82157701D01*
X150900127Y-82322445D01*
X150978768Y-82476788D01*
X151080586Y-82616928D01*
X151203072Y-82739414D01*
X151343212Y-82841232D01*
X151497555Y-82919873D01*
X151662299Y-82973402D01*
X151833389Y-83000500D01*
X151833390Y-83000500D01*
X152006610Y-83000500D01*
X152006611Y-83000500D01*
X152177701Y-82973402D01*
X152342445Y-82919873D01*
X152496788Y-82841232D01*
X152636928Y-82739414D01*
X152759414Y-82616928D01*
X152861232Y-82476788D01*
X152939873Y-82322445D01*
X152993402Y-82157701D01*
X153020500Y-81986611D01*
X153020500Y-81813389D01*
X153359500Y-81813389D01*
X153359500Y-81986611D01*
X153367677Y-82038239D01*
X153379783Y-82114676D01*
X153386598Y-82157701D01*
X153440127Y-82322445D01*
X153518768Y-82476788D01*
X153620586Y-82616928D01*
X153743072Y-82739414D01*
X153883212Y-82841232D01*
X154037555Y-82919873D01*
X154202299Y-82973402D01*
X154373389Y-83000500D01*
X154373390Y-83000500D01*
X154546610Y-83000500D01*
X154546611Y-83000500D01*
X154717701Y-82973402D01*
X154882445Y-82919873D01*
X155036788Y-82841232D01*
X155176928Y-82739414D01*
X155299414Y-82616928D01*
X155401232Y-82476788D01*
X155479873Y-82322445D01*
X155533402Y-82157701D01*
X155560500Y-81986611D01*
X155560500Y-81813389D01*
X155899500Y-81813389D01*
X155899500Y-81986611D01*
X155907677Y-82038239D01*
X155919783Y-82114676D01*
X155926598Y-82157701D01*
X155980127Y-82322445D01*
X156058768Y-82476788D01*
X156160586Y-82616928D01*
X156283072Y-82739414D01*
X156423212Y-82841232D01*
X156577555Y-82919873D01*
X156742299Y-82973402D01*
X156913389Y-83000500D01*
X156913390Y-83000500D01*
X157086610Y-83000500D01*
X157086611Y-83000500D01*
X157257701Y-82973402D01*
X157422445Y-82919873D01*
X157576788Y-82841232D01*
X157716928Y-82739414D01*
X157839414Y-82616928D01*
X157941232Y-82476788D01*
X158019873Y-82322445D01*
X158073402Y-82157701D01*
X158100500Y-81986611D01*
X158100500Y-81813389D01*
X158073402Y-81642299D01*
X158019873Y-81477555D01*
X157941232Y-81323212D01*
X157839414Y-81183072D01*
X157785053Y-81128711D01*
X161499500Y-81128711D01*
X161499500Y-81371288D01*
X161531161Y-81611785D01*
X161593947Y-81846104D01*
X161686773Y-82070205D01*
X161686777Y-82070214D01*
X161708974Y-82108661D01*
X161808064Y-82280289D01*
X161808066Y-82280292D01*
X161808067Y-82280293D01*
X161955733Y-82472736D01*
X161955739Y-82472743D01*
X162127256Y-82644260D01*
X162127262Y-82644265D01*
X162319711Y-82791936D01*
X162529788Y-82913224D01*
X162753900Y-83006054D01*
X162988211Y-83068838D01*
X163133756Y-83087999D01*
X163228711Y-83100500D01*
X163228712Y-83100500D01*
X163471289Y-83100500D01*
X163519388Y-83094167D01*
X163711789Y-83068838D01*
X163946100Y-83006054D01*
X164170212Y-82913224D01*
X164380289Y-82791936D01*
X164572738Y-82644265D01*
X164744265Y-82472738D01*
X164891936Y-82280289D01*
X165013224Y-82070212D01*
X165106054Y-81846100D01*
X165168838Y-81611789D01*
X165200500Y-81371288D01*
X165200500Y-81128712D01*
X165193917Y-81078712D01*
X165180798Y-80979056D01*
X165168838Y-80888211D01*
X165106054Y-80653900D01*
X165013224Y-80429788D01*
X164891936Y-80219711D01*
X164744265Y-80027262D01*
X164744260Y-80027256D01*
X164572743Y-79855739D01*
X164572736Y-79855733D01*
X164380293Y-79708067D01*
X164380292Y-79708066D01*
X164380289Y-79708064D01*
X164170212Y-79586776D01*
X164170205Y-79586773D01*
X163946104Y-79493947D01*
X163711785Y-79431161D01*
X163471289Y-79399500D01*
X163471288Y-79399500D01*
X163228712Y-79399500D01*
X163228711Y-79399500D01*
X162988214Y-79431161D01*
X162753895Y-79493947D01*
X162529794Y-79586773D01*
X162529785Y-79586777D01*
X162319706Y-79708067D01*
X162127263Y-79855733D01*
X162127256Y-79855739D01*
X161955739Y-80027256D01*
X161955733Y-80027263D01*
X161808067Y-80219706D01*
X161686777Y-80429785D01*
X161686773Y-80429794D01*
X161593947Y-80653895D01*
X161531161Y-80888214D01*
X161499500Y-81128711D01*
X157785053Y-81128711D01*
X157716928Y-81060586D01*
X157576788Y-80958768D01*
X157422445Y-80880127D01*
X157257701Y-80826598D01*
X157257699Y-80826597D01*
X157257698Y-80826597D01*
X157122258Y-80805146D01*
X157086611Y-80799500D01*
X156913389Y-80799500D01*
X156877742Y-80805146D01*
X156742302Y-80826597D01*
X156577552Y-80880128D01*
X156423211Y-80958768D01*
X156343256Y-81016859D01*
X156283072Y-81060586D01*
X156283070Y-81060588D01*
X156283069Y-81060588D01*
X156160588Y-81183069D01*
X156160588Y-81183070D01*
X156160586Y-81183072D01*
X156150076Y-81197538D01*
X156058768Y-81323211D01*
X155980128Y-81477552D01*
X155926597Y-81642302D01*
X155925378Y-81650000D01*
X155899500Y-81813389D01*
X155560500Y-81813389D01*
X155533402Y-81642299D01*
X155479873Y-81477555D01*
X155401232Y-81323212D01*
X155299414Y-81183072D01*
X155176928Y-81060586D01*
X155036788Y-80958768D01*
X154882445Y-80880127D01*
X154717701Y-80826598D01*
X154717699Y-80826597D01*
X154717698Y-80826597D01*
X154582258Y-80805146D01*
X154546611Y-80799500D01*
X154373389Y-80799500D01*
X154337742Y-80805146D01*
X154202302Y-80826597D01*
X154037552Y-80880128D01*
X153883211Y-80958768D01*
X153803256Y-81016859D01*
X153743072Y-81060586D01*
X153743070Y-81060588D01*
X153743069Y-81060588D01*
X153620588Y-81183069D01*
X153620588Y-81183070D01*
X153620586Y-81183072D01*
X153610076Y-81197538D01*
X153518768Y-81323211D01*
X153440128Y-81477552D01*
X153386597Y-81642302D01*
X153385378Y-81650000D01*
X153359500Y-81813389D01*
X153020500Y-81813389D01*
X152993402Y-81642299D01*
X152939873Y-81477555D01*
X152861232Y-81323212D01*
X152759414Y-81183072D01*
X152636928Y-81060586D01*
X152496788Y-80958768D01*
X152342445Y-80880127D01*
X152177701Y-80826598D01*
X152177699Y-80826597D01*
X152177698Y-80826597D01*
X152042258Y-80805146D01*
X152006611Y-80799500D01*
X151833389Y-80799500D01*
X151797742Y-80805146D01*
X151662302Y-80826597D01*
X151497552Y-80880128D01*
X151343211Y-80958768D01*
X151263256Y-81016859D01*
X151203072Y-81060586D01*
X151203070Y-81060588D01*
X151203069Y-81060588D01*
X151080588Y-81183069D01*
X151080588Y-81183070D01*
X151080586Y-81183072D01*
X151070076Y-81197538D01*
X150978768Y-81323211D01*
X150900128Y-81477552D01*
X150846597Y-81642302D01*
X150845378Y-81650000D01*
X150819500Y-81813389D01*
X150480500Y-81813389D01*
X150453402Y-81642299D01*
X150399873Y-81477555D01*
X150321232Y-81323212D01*
X150219414Y-81183072D01*
X150096928Y-81060586D01*
X149956788Y-80958768D01*
X149802445Y-80880127D01*
X149637701Y-80826598D01*
X149637699Y-80826597D01*
X149637698Y-80826597D01*
X149502258Y-80805146D01*
X149466611Y-80799500D01*
X149293389Y-80799500D01*
X149257742Y-80805146D01*
X149122302Y-80826597D01*
X148957552Y-80880128D01*
X148803211Y-80958768D01*
X148723256Y-81016859D01*
X148663072Y-81060586D01*
X148663070Y-81060588D01*
X148663069Y-81060588D01*
X148540588Y-81183069D01*
X148540588Y-81183070D01*
X148540586Y-81183072D01*
X148530076Y-81197538D01*
X148438768Y-81323211D01*
X148360128Y-81477552D01*
X148306597Y-81642302D01*
X148305378Y-81650000D01*
X148279500Y-81813389D01*
X147940500Y-81813389D01*
X147913402Y-81642299D01*
X147859873Y-81477555D01*
X147781232Y-81323212D01*
X147679414Y-81183072D01*
X147556928Y-81060586D01*
X147416788Y-80958768D01*
X147262445Y-80880127D01*
X147097701Y-80826598D01*
X147097699Y-80826597D01*
X147097698Y-80826597D01*
X146962258Y-80805146D01*
X146926611Y-80799500D01*
X146753389Y-80799500D01*
X146717742Y-80805146D01*
X146582302Y-80826597D01*
X146417552Y-80880128D01*
X146263211Y-80958768D01*
X146183256Y-81016859D01*
X146123072Y-81060586D01*
X146123070Y-81060588D01*
X146123069Y-81060588D01*
X146000588Y-81183069D01*
X146000588Y-81183070D01*
X146000586Y-81183072D01*
X145990076Y-81197538D01*
X145898768Y-81323211D01*
X145820128Y-81477552D01*
X145766597Y-81642302D01*
X145765378Y-81650000D01*
X145739500Y-81813389D01*
X145400500Y-81813389D01*
X145373402Y-81642299D01*
X145319873Y-81477555D01*
X145241232Y-81323212D01*
X145139414Y-81183072D01*
X145016928Y-81060586D01*
X144876788Y-80958768D01*
X144722445Y-80880127D01*
X144557701Y-80826598D01*
X144557699Y-80826597D01*
X144557698Y-80826597D01*
X144422258Y-80805146D01*
X144386611Y-80799500D01*
X144213389Y-80799500D01*
X144177742Y-80805146D01*
X144042302Y-80826597D01*
X143877552Y-80880128D01*
X143723211Y-80958768D01*
X143643256Y-81016859D01*
X143583072Y-81060586D01*
X143583070Y-81060588D01*
X143583069Y-81060588D01*
X143460588Y-81183069D01*
X143460588Y-81183070D01*
X143460586Y-81183072D01*
X143450076Y-81197538D01*
X143358768Y-81323211D01*
X143280128Y-81477552D01*
X143226597Y-81642302D01*
X143225378Y-81650000D01*
X143199500Y-81813389D01*
X142860500Y-81813389D01*
X142833402Y-81642299D01*
X142779873Y-81477555D01*
X142701232Y-81323212D01*
X142599414Y-81183072D01*
X142476928Y-81060586D01*
X142336788Y-80958768D01*
X142182445Y-80880127D01*
X142017701Y-80826598D01*
X142017699Y-80826597D01*
X142017698Y-80826597D01*
X141882258Y-80805146D01*
X141846611Y-80799500D01*
X141673389Y-80799500D01*
X141637742Y-80805146D01*
X141502302Y-80826597D01*
X141337552Y-80880128D01*
X141183211Y-80958768D01*
X141103256Y-81016859D01*
X141043072Y-81060586D01*
X141043070Y-81060588D01*
X141043069Y-81060588D01*
X140920588Y-81183069D01*
X140920588Y-81183070D01*
X140920586Y-81183072D01*
X140910076Y-81197538D01*
X140818768Y-81323211D01*
X140804485Y-81351244D01*
X140756510Y-81402040D01*
X140688689Y-81418835D01*
X140622554Y-81396297D01*
X140579103Y-81341582D01*
X140570000Y-81294949D01*
X140570000Y-81002172D01*
X140569999Y-81002155D01*
X140563598Y-80942627D01*
X140563596Y-80942620D01*
X140513354Y-80807913D01*
X140513350Y-80807906D01*
X140427190Y-80692812D01*
X140427187Y-80692809D01*
X140312093Y-80606649D01*
X140312086Y-80606645D01*
X140177379Y-80556403D01*
X140177372Y-80556401D01*
X140117844Y-80550000D01*
X139470000Y-80550000D01*
X139470000Y-81466988D01*
X139412993Y-81434075D01*
X139285826Y-81400000D01*
X139154174Y-81400000D01*
X139027007Y-81434075D01*
X138970000Y-81466988D01*
X138970000Y-80550000D01*
X138322155Y-80550000D01*
X138262627Y-80556401D01*
X138262620Y-80556403D01*
X138127913Y-80606645D01*
X138127906Y-80606649D01*
X138012812Y-80692809D01*
X138012809Y-80692812D01*
X137926649Y-80807906D01*
X137926645Y-80807913D01*
X137876403Y-80942620D01*
X137876401Y-80942627D01*
X137870000Y-81002155D01*
X133394311Y-81002155D01*
X133400500Y-80979057D01*
X133400500Y-80820943D01*
X133359577Y-80668216D01*
X133324032Y-80606649D01*
X133280524Y-80531290D01*
X133280518Y-80531282D01*
X133168717Y-80419481D01*
X133168709Y-80419475D01*
X133031790Y-80340426D01*
X133031786Y-80340424D01*
X133031784Y-80340423D01*
X132879057Y-80299500D01*
X132720943Y-80299500D01*
X132568216Y-80340423D01*
X132568209Y-80340426D01*
X132431290Y-80419475D01*
X132431282Y-80419481D01*
X132319481Y-80531282D01*
X132319475Y-80531290D01*
X132240426Y-80668209D01*
X132240423Y-80668216D01*
X132199500Y-80820943D01*
X131700500Y-80820943D01*
X131700500Y-80365326D01*
X131700500Y-80365323D01*
X131700499Y-80365321D01*
X131685967Y-80292264D01*
X131685966Y-80292260D01*
X131630601Y-80209399D01*
X131547740Y-80154034D01*
X131547739Y-80154033D01*
X131547735Y-80154032D01*
X131474677Y-80139500D01*
X131474674Y-80139500D01*
X129725326Y-80139500D01*
X129725323Y-80139500D01*
X129652264Y-80154032D01*
X129652260Y-80154033D01*
X129569399Y-80209399D01*
X129514033Y-80292260D01*
X129514032Y-80292264D01*
X129499500Y-80365321D01*
X125504871Y-80365321D01*
X125391936Y-80169711D01*
X125244265Y-79977262D01*
X125244260Y-79977256D01*
X125072743Y-79805739D01*
X125072736Y-79805733D01*
X124880293Y-79658067D01*
X124880292Y-79658066D01*
X124880289Y-79658064D01*
X124670212Y-79536776D01*
X124670205Y-79536773D01*
X124446104Y-79443947D01*
X124211785Y-79381161D01*
X123971289Y-79349500D01*
X123971288Y-79349500D01*
X123728712Y-79349500D01*
X123728711Y-79349500D01*
X123488214Y-79381161D01*
X123253895Y-79443947D01*
X123029794Y-79536773D01*
X123029785Y-79536777D01*
X122819706Y-79658067D01*
X122627263Y-79805733D01*
X122627256Y-79805739D01*
X122455739Y-79977256D01*
X122455733Y-79977263D01*
X122308067Y-80169706D01*
X122186777Y-80379785D01*
X122186773Y-80379794D01*
X122093947Y-80603895D01*
X122031161Y-80838214D01*
X121999500Y-81078711D01*
X121000000Y-81078711D01*
X121000000Y-78613389D01*
X129499500Y-78613389D01*
X129499500Y-78786611D01*
X129526598Y-78957701D01*
X129580127Y-79122445D01*
X129658768Y-79276788D01*
X129760586Y-79416928D01*
X129883072Y-79539414D01*
X130023212Y-79641232D01*
X130177555Y-79719873D01*
X130342299Y-79773402D01*
X130513389Y-79800500D01*
X130513390Y-79800500D01*
X130686610Y-79800500D01*
X130686611Y-79800500D01*
X130857701Y-79773402D01*
X131022445Y-79719873D01*
X131176788Y-79641232D01*
X131316928Y-79539414D01*
X131439414Y-79416928D01*
X131541232Y-79276788D01*
X131619873Y-79122445D01*
X131673402Y-78957701D01*
X131700500Y-78786611D01*
X131700500Y-78613389D01*
X131673402Y-78442299D01*
X131619873Y-78277555D01*
X131541232Y-78123212D01*
X131439414Y-77983072D01*
X131316928Y-77860586D01*
X131176788Y-77758768D01*
X131102552Y-77720943D01*
X160399500Y-77720943D01*
X160399500Y-77879056D01*
X160440423Y-78031783D01*
X160440426Y-78031790D01*
X160519475Y-78168709D01*
X160519479Y-78168714D01*
X160519480Y-78168716D01*
X160631284Y-78280520D01*
X160631286Y-78280521D01*
X160631290Y-78280524D01*
X160768209Y-78359573D01*
X160768216Y-78359577D01*
X160920943Y-78400500D01*
X160920945Y-78400500D01*
X161079055Y-78400500D01*
X161079057Y-78400500D01*
X161231784Y-78359577D01*
X161368716Y-78280520D01*
X161480520Y-78168716D01*
X161559577Y-78031784D01*
X161600500Y-77879057D01*
X161600500Y-77720943D01*
X161559577Y-77568216D01*
X161559573Y-77568209D01*
X161480524Y-77431290D01*
X161480518Y-77431282D01*
X161368717Y-77319481D01*
X161368709Y-77319475D01*
X161231790Y-77240426D01*
X161231786Y-77240424D01*
X161231784Y-77240423D01*
X161079057Y-77199500D01*
X160920943Y-77199500D01*
X160768216Y-77240423D01*
X160768209Y-77240426D01*
X160631290Y-77319475D01*
X160631282Y-77319481D01*
X160519481Y-77431282D01*
X160519475Y-77431290D01*
X160440426Y-77568209D01*
X160440423Y-77568216D01*
X160399500Y-77720943D01*
X131102552Y-77720943D01*
X131022445Y-77680127D01*
X130857701Y-77626598D01*
X130857699Y-77626597D01*
X130857698Y-77626597D01*
X130726271Y-77605781D01*
X130686611Y-77599500D01*
X130513389Y-77599500D01*
X130473728Y-77605781D01*
X130342302Y-77626597D01*
X130177552Y-77680128D01*
X130023211Y-77758768D01*
X129948384Y-77813134D01*
X129883072Y-77860586D01*
X129883070Y-77860588D01*
X129883069Y-77860588D01*
X129760588Y-77983069D01*
X129760588Y-77983070D01*
X129760586Y-77983072D01*
X129725195Y-78031783D01*
X129658768Y-78123211D01*
X129580128Y-78277552D01*
X129526597Y-78442302D01*
X129499500Y-78613389D01*
X121000000Y-78613389D01*
X121000000Y-76314413D01*
X121019685Y-76247374D01*
X121072489Y-76201619D01*
X121141647Y-76191675D01*
X121171452Y-76199852D01*
X121217125Y-76218770D01*
X121217130Y-76218772D01*
X121217134Y-76218772D01*
X121217135Y-76218773D01*
X121351496Y-76245500D01*
X121351499Y-76245500D01*
X122148503Y-76245500D01*
X122238898Y-76227518D01*
X122282870Y-76218772D01*
X122409443Y-76166344D01*
X122523355Y-76090230D01*
X122540196Y-76073389D01*
X129499500Y-76073389D01*
X129499500Y-76246611D01*
X129526598Y-76417701D01*
X129580127Y-76582445D01*
X129658768Y-76736788D01*
X129760586Y-76876928D01*
X129883072Y-76999414D01*
X130023212Y-77101232D01*
X130177555Y-77179873D01*
X130342299Y-77233402D01*
X130513389Y-77260500D01*
X130513390Y-77260500D01*
X130686610Y-77260500D01*
X130686611Y-77260500D01*
X130857701Y-77233402D01*
X131022445Y-77179873D01*
X131176788Y-77101232D01*
X131316928Y-76999414D01*
X131439414Y-76876928D01*
X131541232Y-76736788D01*
X131619873Y-76582445D01*
X131673402Y-76417701D01*
X131700500Y-76246611D01*
X131700500Y-76073389D01*
X131673402Y-75902299D01*
X131619873Y-75737555D01*
X131541232Y-75583212D01*
X131439414Y-75443072D01*
X131316928Y-75320586D01*
X131176788Y-75218768D01*
X131022445Y-75140127D01*
X130857701Y-75086598D01*
X130857699Y-75086597D01*
X130857698Y-75086597D01*
X130726271Y-75065781D01*
X130686611Y-75059500D01*
X130513389Y-75059500D01*
X130473728Y-75065781D01*
X130342302Y-75086597D01*
X130177552Y-75140128D01*
X130023211Y-75218768D01*
X129963020Y-75262500D01*
X129883072Y-75320586D01*
X129883070Y-75320588D01*
X129883069Y-75320588D01*
X129760588Y-75443069D01*
X129760588Y-75443070D01*
X129760586Y-75443072D01*
X129732669Y-75481496D01*
X129658768Y-75583211D01*
X129580128Y-75737552D01*
X129526597Y-75902302D01*
X129512177Y-75993351D01*
X129499500Y-76073389D01*
X122540196Y-76073389D01*
X122620230Y-75993355D01*
X122696344Y-75879443D01*
X122748772Y-75752870D01*
X122775500Y-75618501D01*
X122775500Y-75481499D01*
X122775500Y-75481496D01*
X122748773Y-75347135D01*
X122748772Y-75347134D01*
X122748772Y-75347130D01*
X122714145Y-75263532D01*
X122696347Y-75220563D01*
X122696340Y-75220550D01*
X122620230Y-75106645D01*
X122620227Y-75106641D01*
X122523358Y-75009772D01*
X122523354Y-75009769D01*
X122409449Y-74933659D01*
X122409436Y-74933652D01*
X122282874Y-74881229D01*
X122282864Y-74881226D01*
X122148503Y-74854500D01*
X122148501Y-74854500D01*
X121351499Y-74854500D01*
X121351497Y-74854500D01*
X121217135Y-74881226D01*
X121217126Y-74881229D01*
X121171450Y-74900148D01*
X121101981Y-74907615D01*
X121039502Y-74876339D01*
X121003851Y-74816250D01*
X121000000Y-74785586D01*
X121000000Y-73320943D01*
X122699500Y-73320943D01*
X122699500Y-73479057D01*
X122733379Y-73605493D01*
X122740423Y-73631783D01*
X122740426Y-73631790D01*
X122819475Y-73768709D01*
X122819479Y-73768714D01*
X122819480Y-73768716D01*
X122931284Y-73880520D01*
X122931286Y-73880521D01*
X122931290Y-73880524D01*
X123068209Y-73959573D01*
X123068216Y-73959577D01*
X123220943Y-74000500D01*
X123220945Y-74000500D01*
X123379055Y-74000500D01*
X123379057Y-74000500D01*
X123531784Y-73959577D01*
X123629926Y-73902914D01*
X123697826Y-73886442D01*
X123763853Y-73909295D01*
X123807044Y-73964216D01*
X123813685Y-74033769D01*
X123806487Y-74057754D01*
X123752382Y-74188375D01*
X123752379Y-74188385D01*
X123724500Y-74328542D01*
X123724500Y-74328545D01*
X123724500Y-74771455D01*
X123724500Y-74771457D01*
X123724499Y-74771457D01*
X123752379Y-74911614D01*
X123752381Y-74911620D01*
X123807069Y-75043650D01*
X123807074Y-75043659D01*
X123886467Y-75162478D01*
X123886470Y-75162482D01*
X123987517Y-75263529D01*
X123987521Y-75263532D01*
X124106340Y-75342925D01*
X124106346Y-75342928D01*
X124106347Y-75342929D01*
X124238380Y-75397619D01*
X124238384Y-75397619D01*
X124238385Y-75397620D01*
X124378542Y-75425500D01*
X124378545Y-75425500D01*
X124521457Y-75425500D01*
X124615751Y-75406742D01*
X124661620Y-75397619D01*
X124793653Y-75342929D01*
X124912479Y-75263532D01*
X125013532Y-75162479D01*
X125092929Y-75043653D01*
X125147619Y-74911620D01*
X125166590Y-74816250D01*
X125175500Y-74771457D01*
X125175500Y-74328542D01*
X125147620Y-74188385D01*
X125147619Y-74188384D01*
X125147619Y-74188380D01*
X125092929Y-74056347D01*
X125092928Y-74056346D01*
X125092925Y-74056340D01*
X125013532Y-73937521D01*
X125013529Y-73937517D01*
X124912482Y-73836470D01*
X124912478Y-73836467D01*
X124793659Y-73757074D01*
X124793650Y-73757069D01*
X124661620Y-73702381D01*
X124661614Y-73702379D01*
X124521457Y-73674500D01*
X124521455Y-73674500D01*
X124378545Y-73674500D01*
X124378543Y-73674500D01*
X124238385Y-73702379D01*
X124238379Y-73702381D01*
X124106349Y-73757069D01*
X124106342Y-73757073D01*
X124029005Y-73808748D01*
X123962327Y-73829625D01*
X123894947Y-73811140D01*
X123848258Y-73759161D01*
X123837082Y-73690191D01*
X123852729Y-73643644D01*
X123859577Y-73631784D01*
X123900500Y-73479057D01*
X123900500Y-73320943D01*
X125099500Y-73320943D01*
X125099500Y-73479057D01*
X125133379Y-73605493D01*
X125140423Y-73631783D01*
X125140426Y-73631790D01*
X125219475Y-73768709D01*
X125219479Y-73768714D01*
X125219480Y-73768716D01*
X125331284Y-73880520D01*
X125331286Y-73880521D01*
X125331290Y-73880524D01*
X125468209Y-73959573D01*
X125468216Y-73959577D01*
X125620943Y-74000500D01*
X125620945Y-74000500D01*
X125779055Y-74000500D01*
X125779057Y-74000500D01*
X125931784Y-73959577D01*
X126068716Y-73880520D01*
X126180520Y-73768716D01*
X126259577Y-73631784D01*
X126300500Y-73479057D01*
X126300500Y-73320943D01*
X140899500Y-73320943D01*
X140899500Y-73479057D01*
X140933379Y-73605493D01*
X140940423Y-73631783D01*
X140940426Y-73631790D01*
X141019475Y-73768709D01*
X141019479Y-73768714D01*
X141019480Y-73768716D01*
X141131284Y-73880520D01*
X141131286Y-73880521D01*
X141131290Y-73880524D01*
X141268209Y-73959573D01*
X141268216Y-73959577D01*
X141420943Y-74000500D01*
X141420945Y-74000500D01*
X141579054Y-74000500D01*
X141579057Y-74000500D01*
X141731784Y-73959577D01*
X141868716Y-73880520D01*
X141980520Y-73768716D01*
X142059577Y-73631784D01*
X142100500Y-73479057D01*
X142100500Y-73320943D01*
X142059577Y-73168216D01*
X141980520Y-73031284D01*
X141963891Y-73014655D01*
X155510000Y-73014655D01*
X155510000Y-73662500D01*
X156426988Y-73662500D01*
X156394075Y-73719507D01*
X156360000Y-73846674D01*
X156360000Y-73978326D01*
X156394075Y-74105493D01*
X156426988Y-74162500D01*
X155510000Y-74162500D01*
X155510000Y-74810344D01*
X155516401Y-74869872D01*
X155516403Y-74869879D01*
X155566645Y-75004586D01*
X155566649Y-75004593D01*
X155652809Y-75119687D01*
X155652812Y-75119690D01*
X155767906Y-75205850D01*
X155767913Y-75205854D01*
X155902620Y-75256096D01*
X155902627Y-75256098D01*
X155962155Y-75262499D01*
X155962172Y-75262500D01*
X156610000Y-75262500D01*
X156610000Y-74345512D01*
X156667007Y-74378425D01*
X156794174Y-74412500D01*
X156925826Y-74412500D01*
X157052993Y-74378425D01*
X157110000Y-74345512D01*
X157110000Y-75262500D01*
X157757828Y-75262500D01*
X157757844Y-75262499D01*
X157817372Y-75256098D01*
X157817379Y-75256096D01*
X157952086Y-75205854D01*
X157952093Y-75205850D01*
X158067187Y-75119690D01*
X158067190Y-75119687D01*
X158153350Y-75004593D01*
X158153354Y-75004586D01*
X158203596Y-74869879D01*
X158203598Y-74869872D01*
X158209999Y-74810344D01*
X158210000Y-74810327D01*
X158210000Y-74517550D01*
X158229685Y-74450511D01*
X158282489Y-74404756D01*
X158351647Y-74394812D01*
X158415203Y-74423837D01*
X158444485Y-74461256D01*
X158458766Y-74489286D01*
X158489357Y-74531390D01*
X158560586Y-74629428D01*
X158683072Y-74751914D01*
X158823212Y-74853732D01*
X158977555Y-74932373D01*
X159142299Y-74985902D01*
X159313389Y-75013000D01*
X159313390Y-75013000D01*
X159486610Y-75013000D01*
X159486611Y-75013000D01*
X159657701Y-74985902D01*
X159822445Y-74932373D01*
X159976788Y-74853732D01*
X160116928Y-74751914D01*
X160239414Y-74629428D01*
X160341232Y-74489288D01*
X160419873Y-74334945D01*
X160473402Y-74170201D01*
X160500500Y-73999111D01*
X160500500Y-73825889D01*
X160839500Y-73825889D01*
X160839500Y-73999111D01*
X160866598Y-74170201D01*
X160920127Y-74334945D01*
X160998768Y-74489288D01*
X161100586Y-74629428D01*
X161223072Y-74751914D01*
X161363212Y-74853732D01*
X161517555Y-74932373D01*
X161682299Y-74985902D01*
X161853389Y-75013000D01*
X161853390Y-75013000D01*
X162026610Y-75013000D01*
X162026611Y-75013000D01*
X162197701Y-74985902D01*
X162362445Y-74932373D01*
X162516788Y-74853732D01*
X162656928Y-74751914D01*
X162779414Y-74629428D01*
X162881232Y-74489288D01*
X162959873Y-74334945D01*
X163013402Y-74170201D01*
X163040500Y-73999111D01*
X163040500Y-73825889D01*
X163013402Y-73654799D01*
X162959873Y-73490055D01*
X162881232Y-73335712D01*
X162779414Y-73195572D01*
X162656928Y-73073086D01*
X162516788Y-72971268D01*
X162362445Y-72892627D01*
X162197701Y-72839098D01*
X162197699Y-72839097D01*
X162197698Y-72839097D01*
X162066271Y-72818281D01*
X162026611Y-72812000D01*
X161853389Y-72812000D01*
X161813728Y-72818281D01*
X161682302Y-72839097D01*
X161517552Y-72892628D01*
X161363211Y-72971268D01*
X161283256Y-73029359D01*
X161223072Y-73073086D01*
X161223070Y-73073088D01*
X161223069Y-73073088D01*
X161100588Y-73195569D01*
X161100588Y-73195570D01*
X161100586Y-73195572D01*
X161056859Y-73255756D01*
X160998768Y-73335711D01*
X160920128Y-73490052D01*
X160866597Y-73654802D01*
X160848556Y-73768709D01*
X160839500Y-73825889D01*
X160500500Y-73825889D01*
X160473402Y-73654799D01*
X160419873Y-73490055D01*
X160341232Y-73335712D01*
X160239414Y-73195572D01*
X160116928Y-73073086D01*
X159976788Y-72971268D01*
X159822445Y-72892627D01*
X159657701Y-72839098D01*
X159657699Y-72839097D01*
X159657698Y-72839097D01*
X159526271Y-72818281D01*
X159486611Y-72812000D01*
X159313389Y-72812000D01*
X159273728Y-72818281D01*
X159142302Y-72839097D01*
X158977552Y-72892628D01*
X158823211Y-72971268D01*
X158743256Y-73029359D01*
X158683072Y-73073086D01*
X158683070Y-73073088D01*
X158683069Y-73073088D01*
X158560588Y-73195569D01*
X158560588Y-73195570D01*
X158560586Y-73195572D01*
X158516859Y-73255756D01*
X158458768Y-73335711D01*
X158444485Y-73363744D01*
X158396510Y-73414540D01*
X158328689Y-73431335D01*
X158262554Y-73408797D01*
X158219103Y-73354082D01*
X158210000Y-73307449D01*
X158210000Y-73014672D01*
X158209999Y-73014655D01*
X158203598Y-72955127D01*
X158203596Y-72955120D01*
X158153354Y-72820413D01*
X158153350Y-72820406D01*
X158067190Y-72705312D01*
X158067187Y-72705309D01*
X157952093Y-72619149D01*
X157952086Y-72619145D01*
X157817379Y-72568903D01*
X157817372Y-72568901D01*
X157757844Y-72562500D01*
X157110000Y-72562500D01*
X157110000Y-73479488D01*
X157052993Y-73446575D01*
X156925826Y-73412500D01*
X156794174Y-73412500D01*
X156667007Y-73446575D01*
X156610000Y-73479488D01*
X156610000Y-72562500D01*
X155962155Y-72562500D01*
X155902627Y-72568901D01*
X155902620Y-72568903D01*
X155767913Y-72619145D01*
X155767906Y-72619149D01*
X155652812Y-72705309D01*
X155652809Y-72705312D01*
X155566649Y-72820406D01*
X155566645Y-72820413D01*
X155516403Y-72955120D01*
X155516401Y-72955127D01*
X155510000Y-73014655D01*
X141963891Y-73014655D01*
X141868716Y-72919480D01*
X141868714Y-72919479D01*
X141868709Y-72919475D01*
X141731790Y-72840426D01*
X141731786Y-72840424D01*
X141731784Y-72840423D01*
X141579057Y-72799500D01*
X141420943Y-72799500D01*
X141268216Y-72840423D01*
X141268209Y-72840426D01*
X141131290Y-72919475D01*
X141131282Y-72919481D01*
X141019481Y-73031282D01*
X141019475Y-73031290D01*
X140940426Y-73168209D01*
X140940423Y-73168216D01*
X140899500Y-73320943D01*
X126300500Y-73320943D01*
X126259577Y-73168216D01*
X126259573Y-73168209D01*
X126180524Y-73031290D01*
X126180518Y-73031282D01*
X126068717Y-72919481D01*
X126068709Y-72919475D01*
X125931790Y-72840426D01*
X125931786Y-72840424D01*
X125931784Y-72840423D01*
X125779057Y-72799500D01*
X125620943Y-72799500D01*
X125468216Y-72840423D01*
X125468209Y-72840426D01*
X125331290Y-72919475D01*
X125331282Y-72919481D01*
X125219481Y-73031282D01*
X125219475Y-73031290D01*
X125140426Y-73168209D01*
X125140423Y-73168216D01*
X125099500Y-73320943D01*
X123900500Y-73320943D01*
X123859577Y-73168216D01*
X123859573Y-73168209D01*
X123780524Y-73031290D01*
X123780518Y-73031282D01*
X123668717Y-72919481D01*
X123668709Y-72919475D01*
X123531790Y-72840426D01*
X123531786Y-72840424D01*
X123531784Y-72840423D01*
X123379057Y-72799500D01*
X123220943Y-72799500D01*
X123068216Y-72840423D01*
X123068209Y-72840426D01*
X122931290Y-72919475D01*
X122931282Y-72919481D01*
X122819481Y-73031282D01*
X122819475Y-73031290D01*
X122740426Y-73168209D01*
X122740423Y-73168216D01*
X122699500Y-73320943D01*
X121000000Y-73320943D01*
X121000000Y-71020943D01*
X142699500Y-71020943D01*
X142699500Y-71179057D01*
X142740289Y-71331282D01*
X142740423Y-71331783D01*
X142740426Y-71331790D01*
X142819475Y-71468709D01*
X142819479Y-71468714D01*
X142819480Y-71468716D01*
X142931284Y-71580520D01*
X142931286Y-71580521D01*
X142931290Y-71580524D01*
X143064572Y-71657473D01*
X143068216Y-71659577D01*
X143220943Y-71700500D01*
X143220945Y-71700500D01*
X143379055Y-71700500D01*
X143379057Y-71700500D01*
X143531784Y-71659577D01*
X143531785Y-71659576D01*
X143539635Y-71657473D01*
X143540262Y-71659813D01*
X143597500Y-71653652D01*
X143659984Y-71684919D01*
X143695644Y-71745003D01*
X143699500Y-71775685D01*
X143699500Y-71779057D01*
X143705246Y-71800499D01*
X143740423Y-71931783D01*
X143740426Y-71931790D01*
X143819475Y-72068709D01*
X143819479Y-72068714D01*
X143819480Y-72068716D01*
X143931284Y-72180520D01*
X143931286Y-72180521D01*
X143931290Y-72180524D01*
X144068209Y-72259573D01*
X144068216Y-72259577D01*
X144220943Y-72300500D01*
X144220945Y-72300500D01*
X144379055Y-72300500D01*
X144379057Y-72300500D01*
X144531784Y-72259577D01*
X144668716Y-72180520D01*
X144780520Y-72068716D01*
X144859577Y-71931784D01*
X144900500Y-71779057D01*
X144900500Y-71620943D01*
X144859577Y-71468216D01*
X144838543Y-71431783D01*
X144780524Y-71331290D01*
X144780518Y-71331282D01*
X144668717Y-71219481D01*
X144668716Y-71219480D01*
X144531784Y-71140423D01*
X144459084Y-71120943D01*
X146799500Y-71120943D01*
X146799500Y-71279056D01*
X146840423Y-71431783D01*
X146840426Y-71431790D01*
X146919475Y-71568709D01*
X146919479Y-71568714D01*
X146919480Y-71568716D01*
X147031284Y-71680520D01*
X147031286Y-71680521D01*
X147031290Y-71680524D01*
X147142973Y-71745003D01*
X147168216Y-71759577D01*
X147320943Y-71800500D01*
X147320945Y-71800500D01*
X147479055Y-71800500D01*
X147479057Y-71800500D01*
X147631784Y-71759577D01*
X147768716Y-71680520D01*
X147880520Y-71568716D01*
X147959577Y-71431784D01*
X148000500Y-71279057D01*
X148000500Y-71120943D01*
X147959577Y-70968216D01*
X147901843Y-70868216D01*
X147880524Y-70831290D01*
X147880518Y-70831282D01*
X147768717Y-70719481D01*
X147768709Y-70719475D01*
X147631790Y-70640426D01*
X147631786Y-70640424D01*
X147631784Y-70640423D01*
X147479057Y-70599500D01*
X147320943Y-70599500D01*
X147168216Y-70640423D01*
X147168209Y-70640426D01*
X147031290Y-70719475D01*
X147031282Y-70719481D01*
X146919481Y-70831282D01*
X146919475Y-70831290D01*
X146840426Y-70968209D01*
X146840423Y-70968216D01*
X146799500Y-71120943D01*
X144459084Y-71120943D01*
X144379057Y-71099500D01*
X144220943Y-71099500D01*
X144068216Y-71140423D01*
X144068214Y-71140423D01*
X144060365Y-71142527D01*
X144059739Y-71140190D01*
X144002472Y-71146342D01*
X143939996Y-71115061D01*
X143904349Y-71054969D01*
X143900500Y-71024314D01*
X143900500Y-71020945D01*
X143900500Y-71020943D01*
X143859577Y-70868216D01*
X143859573Y-70868209D01*
X143839560Y-70833544D01*
X143823087Y-70765644D01*
X143845940Y-70699617D01*
X143900861Y-70656427D01*
X143970415Y-70649786D01*
X144023591Y-70677200D01*
X144024839Y-70675574D01*
X144031281Y-70680517D01*
X144031284Y-70680520D01*
X144031287Y-70680521D01*
X144031290Y-70680524D01*
X144119221Y-70731290D01*
X144168216Y-70759577D01*
X144320943Y-70800500D01*
X144320945Y-70800500D01*
X144479055Y-70800500D01*
X144479057Y-70800500D01*
X144631784Y-70759577D01*
X144768716Y-70680520D01*
X144880520Y-70568716D01*
X144959577Y-70431784D01*
X144982578Y-70345943D01*
X153199500Y-70345943D01*
X153199500Y-70504057D01*
X153240328Y-70656427D01*
X153240423Y-70656783D01*
X153240426Y-70656790D01*
X153319475Y-70793709D01*
X153319479Y-70793714D01*
X153319480Y-70793716D01*
X153431284Y-70905520D01*
X153431286Y-70905521D01*
X153431290Y-70905524D01*
X153568209Y-70984573D01*
X153568216Y-70984577D01*
X153720943Y-71025500D01*
X153720945Y-71025500D01*
X153879055Y-71025500D01*
X153879057Y-71025500D01*
X154031784Y-70984577D01*
X154168716Y-70905520D01*
X154280520Y-70793716D01*
X154359577Y-70656784D01*
X154400500Y-70504057D01*
X154400500Y-70345943D01*
X154359577Y-70193216D01*
X154317851Y-70120943D01*
X154280524Y-70056290D01*
X154280518Y-70056282D01*
X154168717Y-69944481D01*
X154168709Y-69944475D01*
X154031790Y-69865426D01*
X154031786Y-69865424D01*
X154031784Y-69865423D01*
X153879057Y-69824500D01*
X153720943Y-69824500D01*
X153568216Y-69865423D01*
X153568209Y-69865426D01*
X153431290Y-69944475D01*
X153431282Y-69944481D01*
X153319481Y-70056282D01*
X153319475Y-70056290D01*
X153240426Y-70193209D01*
X153240423Y-70193216D01*
X153199500Y-70345943D01*
X144982578Y-70345943D01*
X145000500Y-70279057D01*
X145000500Y-70120943D01*
X144959577Y-69968216D01*
X144908101Y-69879056D01*
X144880524Y-69831290D01*
X144880518Y-69831282D01*
X144768717Y-69719481D01*
X144768709Y-69719475D01*
X144631790Y-69640426D01*
X144631786Y-69640424D01*
X144631784Y-69640423D01*
X144479057Y-69599500D01*
X144320943Y-69599500D01*
X144168216Y-69640423D01*
X144168209Y-69640426D01*
X144031290Y-69719475D01*
X144031282Y-69719481D01*
X143919481Y-69831282D01*
X143919475Y-69831290D01*
X143840426Y-69968209D01*
X143840423Y-69968216D01*
X143799500Y-70120943D01*
X143799500Y-70279057D01*
X143832041Y-70400500D01*
X143840423Y-70431783D01*
X143840423Y-70431784D01*
X143860440Y-70466455D01*
X143876911Y-70534356D01*
X143854059Y-70600382D01*
X143799137Y-70643572D01*
X143729583Y-70650213D01*
X143676409Y-70622799D01*
X143675161Y-70624426D01*
X143668709Y-70619475D01*
X143531790Y-70540426D01*
X143531786Y-70540424D01*
X143531784Y-70540423D01*
X143379057Y-70499500D01*
X143220943Y-70499500D01*
X143068216Y-70540423D01*
X143068209Y-70540426D01*
X142931290Y-70619475D01*
X142931282Y-70619481D01*
X142819481Y-70731282D01*
X142819475Y-70731290D01*
X142740426Y-70868209D01*
X142740423Y-70868216D01*
X142699500Y-71020943D01*
X121000000Y-71020943D01*
X121000000Y-69771457D01*
X123724499Y-69771457D01*
X123752379Y-69911614D01*
X123752381Y-69911620D01*
X123807069Y-70043650D01*
X123807074Y-70043659D01*
X123886467Y-70162478D01*
X123886470Y-70162482D01*
X123987517Y-70263529D01*
X123987521Y-70263532D01*
X124106340Y-70342925D01*
X124106346Y-70342928D01*
X124106347Y-70342929D01*
X124238380Y-70397619D01*
X124238384Y-70397619D01*
X124238385Y-70397620D01*
X124378542Y-70425500D01*
X124378545Y-70425500D01*
X124521457Y-70425500D01*
X124647141Y-70400499D01*
X124661620Y-70397619D01*
X124793653Y-70342929D01*
X124912479Y-70263532D01*
X125013532Y-70162479D01*
X125092929Y-70043653D01*
X125147619Y-69911620D01*
X125163599Y-69831284D01*
X125175500Y-69771457D01*
X125175500Y-69720943D01*
X135799500Y-69720943D01*
X135799500Y-69879057D01*
X135817031Y-69944481D01*
X135840423Y-70031783D01*
X135840426Y-70031790D01*
X135919475Y-70168709D01*
X135919479Y-70168714D01*
X135919480Y-70168716D01*
X136031284Y-70280520D01*
X136031286Y-70280521D01*
X136031290Y-70280524D01*
X136139382Y-70342930D01*
X136168216Y-70359577D01*
X136320943Y-70400500D01*
X136320945Y-70400500D01*
X136479055Y-70400500D01*
X136479057Y-70400500D01*
X136631784Y-70359577D01*
X136768716Y-70280520D01*
X136880520Y-70168716D01*
X136959577Y-70031784D01*
X137000500Y-69879057D01*
X137000500Y-69720943D01*
X136959577Y-69568216D01*
X136954587Y-69559573D01*
X136880524Y-69431290D01*
X136880518Y-69431282D01*
X136768717Y-69319481D01*
X136768709Y-69319475D01*
X136631790Y-69240426D01*
X136631786Y-69240424D01*
X136631784Y-69240423D01*
X136479057Y-69199500D01*
X136320943Y-69199500D01*
X136168216Y-69240423D01*
X136168209Y-69240426D01*
X136031290Y-69319475D01*
X136031282Y-69319481D01*
X135919481Y-69431282D01*
X135919475Y-69431290D01*
X135840426Y-69568209D01*
X135840423Y-69568216D01*
X135799500Y-69720943D01*
X125175500Y-69720943D01*
X125175500Y-69328542D01*
X125147620Y-69188385D01*
X125147619Y-69188384D01*
X125147619Y-69188380D01*
X125092929Y-69056347D01*
X125092928Y-69056346D01*
X125092925Y-69056340D01*
X125013532Y-68937521D01*
X125013529Y-68937517D01*
X124912482Y-68836470D01*
X124912474Y-68836464D01*
X124881774Y-68815951D01*
X124881724Y-68815918D01*
X124793659Y-68757074D01*
X124793650Y-68757069D01*
X124706433Y-68720943D01*
X137999500Y-68720943D01*
X137999500Y-68879057D01*
X138026742Y-68980723D01*
X138040423Y-69031783D01*
X138040426Y-69031790D01*
X138119475Y-69168709D01*
X138119479Y-69168714D01*
X138119480Y-69168716D01*
X138231284Y-69280520D01*
X138231286Y-69280521D01*
X138231290Y-69280524D01*
X138320087Y-69331790D01*
X138368216Y-69359577D01*
X138520943Y-69400500D01*
X138520945Y-69400500D01*
X138679055Y-69400500D01*
X138679057Y-69400500D01*
X138831784Y-69359577D01*
X138968716Y-69280520D01*
X139080520Y-69168716D01*
X139159577Y-69031784D01*
X139162482Y-69020943D01*
X140899500Y-69020943D01*
X140899500Y-69179057D01*
X140939555Y-69328542D01*
X140940423Y-69331783D01*
X140940426Y-69331790D01*
X141019475Y-69468709D01*
X141019479Y-69468714D01*
X141019480Y-69468716D01*
X141131284Y-69580520D01*
X141131286Y-69580521D01*
X141131290Y-69580524D01*
X141235040Y-69640423D01*
X141268216Y-69659577D01*
X141420943Y-69700500D01*
X141420945Y-69700500D01*
X141579055Y-69700500D01*
X141579057Y-69700500D01*
X141731784Y-69659577D01*
X141868716Y-69580520D01*
X141980520Y-69468716D01*
X142059577Y-69331784D01*
X142100500Y-69179057D01*
X142100500Y-69020943D01*
X142059577Y-68868216D01*
X142041249Y-68836470D01*
X141980524Y-68731290D01*
X141980518Y-68731282D01*
X141868717Y-68619481D01*
X141868709Y-68619475D01*
X141731790Y-68540426D01*
X141731786Y-68540424D01*
X141731784Y-68540423D01*
X141579057Y-68499500D01*
X141420943Y-68499500D01*
X141268216Y-68540423D01*
X141268209Y-68540426D01*
X141131290Y-68619475D01*
X141131282Y-68619481D01*
X141019481Y-68731282D01*
X141019475Y-68731290D01*
X140940426Y-68868209D01*
X140940423Y-68868216D01*
X140899500Y-69020943D01*
X139162482Y-69020943D01*
X139200500Y-68879057D01*
X139200500Y-68720943D01*
X139159577Y-68568216D01*
X139114481Y-68490107D01*
X139080524Y-68431290D01*
X139080518Y-68431282D01*
X138968717Y-68319481D01*
X138968709Y-68319475D01*
X138831790Y-68240426D01*
X138831786Y-68240424D01*
X138831784Y-68240423D01*
X138679057Y-68199500D01*
X138520943Y-68199500D01*
X138368216Y-68240423D01*
X138368209Y-68240426D01*
X138231290Y-68319475D01*
X138231282Y-68319481D01*
X138119481Y-68431282D01*
X138119475Y-68431290D01*
X138040426Y-68568209D01*
X138040423Y-68568216D01*
X137999500Y-68720943D01*
X124706433Y-68720943D01*
X124661620Y-68702381D01*
X124661614Y-68702379D01*
X124521457Y-68674500D01*
X124521455Y-68674500D01*
X124378545Y-68674500D01*
X124378543Y-68674500D01*
X124238385Y-68702379D01*
X124238379Y-68702381D01*
X124106349Y-68757069D01*
X124106340Y-68757074D01*
X123987521Y-68836467D01*
X123987517Y-68836470D01*
X123886470Y-68937517D01*
X123886467Y-68937521D01*
X123807074Y-69056340D01*
X123807069Y-69056349D01*
X123752381Y-69188379D01*
X123752379Y-69188385D01*
X123724500Y-69328542D01*
X123724500Y-69328545D01*
X123724500Y-69771455D01*
X123724500Y-69771457D01*
X123724499Y-69771457D01*
X121000000Y-69771457D01*
X121000000Y-69314413D01*
X121019685Y-69247374D01*
X121072489Y-69201619D01*
X121141647Y-69191675D01*
X121171452Y-69199852D01*
X121190863Y-69207892D01*
X121217130Y-69218772D01*
X121217134Y-69218772D01*
X121217135Y-69218773D01*
X121351496Y-69245500D01*
X121351499Y-69245500D01*
X122148503Y-69245500D01*
X122238898Y-69227518D01*
X122282870Y-69218772D01*
X122293446Y-69214391D01*
X122309138Y-69207892D01*
X122409436Y-69166347D01*
X122409436Y-69166346D01*
X122409443Y-69166344D01*
X122523355Y-69090230D01*
X122620230Y-68993355D01*
X122696344Y-68879443D01*
X122748772Y-68752870D01*
X122772957Y-68631285D01*
X122775500Y-68618503D01*
X122775500Y-68481496D01*
X122748773Y-68347135D01*
X122748772Y-68347134D01*
X122748772Y-68347130D01*
X122748770Y-68347125D01*
X122696347Y-68220563D01*
X122696340Y-68220550D01*
X122620230Y-68106645D01*
X122620227Y-68106641D01*
X122523358Y-68009772D01*
X122523354Y-68009769D01*
X122409449Y-67933659D01*
X122409436Y-67933652D01*
X122282874Y-67881229D01*
X122282864Y-67881226D01*
X122148503Y-67854500D01*
X122148501Y-67854500D01*
X121351499Y-67854500D01*
X121351497Y-67854500D01*
X121217135Y-67881226D01*
X121217126Y-67881229D01*
X121171450Y-67900148D01*
X121101981Y-67907615D01*
X121039502Y-67876339D01*
X121006635Y-67820943D01*
X146599500Y-67820943D01*
X146599500Y-67979057D01*
X146607730Y-68009769D01*
X146640423Y-68131783D01*
X146640426Y-68131790D01*
X146719475Y-68268709D01*
X146719477Y-68268711D01*
X146719480Y-68268716D01*
X146831284Y-68380520D01*
X146831285Y-68380521D01*
X146831287Y-68380522D01*
X146906226Y-68423788D01*
X146954442Y-68474355D01*
X146967665Y-68542962D01*
X146941697Y-68607827D01*
X146931910Y-68618854D01*
X146919479Y-68631285D01*
X146919475Y-68631290D01*
X146840426Y-68768209D01*
X146840423Y-68768216D01*
X146799500Y-68920943D01*
X146799500Y-69079057D01*
X146836937Y-69218772D01*
X146840423Y-69231783D01*
X146840426Y-69231790D01*
X146919475Y-69368709D01*
X146919479Y-69368714D01*
X146919480Y-69368716D01*
X147031284Y-69480520D01*
X147031286Y-69480521D01*
X147031290Y-69480524D01*
X147168209Y-69559573D01*
X147168216Y-69559577D01*
X147320943Y-69600500D01*
X147320945Y-69600500D01*
X147479055Y-69600500D01*
X147479057Y-69600500D01*
X147631784Y-69559577D01*
X147768716Y-69480520D01*
X147880520Y-69368716D01*
X147959577Y-69231784D01*
X148000500Y-69079057D01*
X148000500Y-68920943D01*
X147959577Y-68768216D01*
X147953144Y-68757074D01*
X147880524Y-68631290D01*
X147880521Y-68631286D01*
X147880520Y-68631284D01*
X147768716Y-68519480D01*
X147768715Y-68519479D01*
X147768712Y-68519477D01*
X147693773Y-68476211D01*
X147645557Y-68425644D01*
X147632335Y-68357037D01*
X147658303Y-68292172D01*
X147668078Y-68281157D01*
X147680520Y-68268716D01*
X147759577Y-68131784D01*
X147800500Y-67979057D01*
X147800500Y-67820943D01*
X147759577Y-67668216D01*
X147720481Y-67600499D01*
X147680524Y-67531290D01*
X147680518Y-67531282D01*
X147568717Y-67419481D01*
X147568709Y-67419475D01*
X147431790Y-67340426D01*
X147431786Y-67340424D01*
X147431784Y-67340423D01*
X147279057Y-67299500D01*
X147120943Y-67299500D01*
X146968216Y-67340423D01*
X146968209Y-67340426D01*
X146831290Y-67419475D01*
X146831282Y-67419481D01*
X146719481Y-67531282D01*
X146719475Y-67531290D01*
X146640426Y-67668209D01*
X146640423Y-67668216D01*
X146599500Y-67820943D01*
X121006635Y-67820943D01*
X121003851Y-67816250D01*
X121000000Y-67785586D01*
X121000000Y-67020943D01*
X128699500Y-67020943D01*
X128699500Y-67179056D01*
X128740423Y-67331783D01*
X128740426Y-67331790D01*
X128819475Y-67468709D01*
X128819479Y-67468714D01*
X128819480Y-67468716D01*
X128931284Y-67580520D01*
X128931286Y-67580521D01*
X128931290Y-67580524D01*
X129068209Y-67659573D01*
X129068216Y-67659577D01*
X129220943Y-67700500D01*
X129220945Y-67700500D01*
X129379055Y-67700500D01*
X129379057Y-67700500D01*
X129531784Y-67659577D01*
X129668716Y-67580520D01*
X129780520Y-67468716D01*
X129859577Y-67331784D01*
X129900500Y-67179057D01*
X129900500Y-67020943D01*
X129873705Y-66920943D01*
X145199500Y-66920943D01*
X145199500Y-67079057D01*
X145226295Y-67179055D01*
X145240423Y-67231783D01*
X145240426Y-67231790D01*
X145319475Y-67368709D01*
X145319479Y-67368714D01*
X145319480Y-67368716D01*
X145431284Y-67480520D01*
X145431286Y-67480521D01*
X145431290Y-67480524D01*
X145519221Y-67531290D01*
X145568216Y-67559577D01*
X145720943Y-67600500D01*
X145720945Y-67600500D01*
X145879055Y-67600500D01*
X145879057Y-67600500D01*
X146031784Y-67559577D01*
X146168716Y-67480520D01*
X146280520Y-67368716D01*
X146359577Y-67231784D01*
X146400500Y-67079057D01*
X146400500Y-66920943D01*
X146359577Y-66768216D01*
X146338258Y-66731290D01*
X146280524Y-66631290D01*
X146280518Y-66631282D01*
X146168717Y-66519481D01*
X146168709Y-66519475D01*
X146031790Y-66440426D01*
X146031786Y-66440424D01*
X146031784Y-66440423D01*
X145879057Y-66399500D01*
X145720943Y-66399500D01*
X145568216Y-66440423D01*
X145568209Y-66440426D01*
X145431290Y-66519475D01*
X145431282Y-66519481D01*
X145319481Y-66631282D01*
X145319475Y-66631290D01*
X145240426Y-66768209D01*
X145240423Y-66768216D01*
X145199500Y-66920943D01*
X129873705Y-66920943D01*
X129859577Y-66868216D01*
X129801843Y-66768216D01*
X129780524Y-66731290D01*
X129780518Y-66731282D01*
X129668717Y-66619481D01*
X129668709Y-66619475D01*
X129531790Y-66540426D01*
X129531786Y-66540424D01*
X129531784Y-66540423D01*
X129379057Y-66499500D01*
X129220943Y-66499500D01*
X129068216Y-66540423D01*
X129068209Y-66540426D01*
X128931290Y-66619475D01*
X128931282Y-66619481D01*
X128819481Y-66731282D01*
X128819475Y-66731290D01*
X128740426Y-66868209D01*
X128740423Y-66868216D01*
X128699500Y-67020943D01*
X121000000Y-67020943D01*
X121000000Y-66223499D01*
X121019685Y-66156460D01*
X121072489Y-66110705D01*
X121123497Y-66099500D01*
X145700000Y-66000000D01*
X145700000Y-63220943D01*
X156739500Y-63220943D01*
X156739500Y-63379057D01*
X156752290Y-63426788D01*
X156780423Y-63531783D01*
X156780426Y-63531790D01*
X156859475Y-63668709D01*
X156859479Y-63668714D01*
X156859480Y-63668716D01*
X156971284Y-63780520D01*
X156971286Y-63780521D01*
X156971290Y-63780524D01*
X157045558Y-63823402D01*
X157108216Y-63859577D01*
X157260943Y-63900500D01*
X157260945Y-63900500D01*
X157419055Y-63900500D01*
X157419057Y-63900500D01*
X157571784Y-63859577D01*
X157708716Y-63780520D01*
X157820520Y-63668716D01*
X157899577Y-63531784D01*
X157940500Y-63379057D01*
X157940500Y-63220943D01*
X161739500Y-63220943D01*
X161739500Y-63379057D01*
X161752290Y-63426788D01*
X161780423Y-63531783D01*
X161780426Y-63531790D01*
X161859475Y-63668709D01*
X161859479Y-63668714D01*
X161859480Y-63668716D01*
X161971284Y-63780520D01*
X161971286Y-63780521D01*
X161971290Y-63780524D01*
X162045558Y-63823402D01*
X162108216Y-63859577D01*
X162260943Y-63900500D01*
X162260945Y-63900500D01*
X162419055Y-63900500D01*
X162419057Y-63900500D01*
X162571784Y-63859577D01*
X162708716Y-63780520D01*
X162820520Y-63668716D01*
X162899577Y-63531784D01*
X162940500Y-63379057D01*
X162940500Y-63220943D01*
X162899577Y-63068216D01*
X162823596Y-62936611D01*
X162820524Y-62931290D01*
X162820518Y-62931282D01*
X162708717Y-62819481D01*
X162708709Y-62819475D01*
X162571790Y-62740426D01*
X162571786Y-62740424D01*
X162571784Y-62740423D01*
X162419057Y-62699500D01*
X162260943Y-62699500D01*
X162108216Y-62740423D01*
X162108209Y-62740426D01*
X161971290Y-62819475D01*
X161971282Y-62819481D01*
X161859481Y-62931282D01*
X161859475Y-62931290D01*
X161780426Y-63068209D01*
X161780423Y-63068216D01*
X161739500Y-63220943D01*
X157940500Y-63220943D01*
X157899577Y-63068216D01*
X157823596Y-62936611D01*
X157820524Y-62931290D01*
X157820518Y-62931282D01*
X157708717Y-62819481D01*
X157708709Y-62819475D01*
X157571790Y-62740426D01*
X157571786Y-62740424D01*
X157571784Y-62740423D01*
X157419057Y-62699500D01*
X157260943Y-62699500D01*
X157108216Y-62740423D01*
X157108209Y-62740426D01*
X156971290Y-62819475D01*
X156971282Y-62819481D01*
X156859481Y-62931282D01*
X156859475Y-62931290D01*
X156780426Y-63068209D01*
X156780423Y-63068216D01*
X156739500Y-63220943D01*
X145700000Y-63220943D01*
X145700000Y-60995943D01*
X148699500Y-60995943D01*
X148699500Y-61154056D01*
X148740423Y-61306783D01*
X148740426Y-61306790D01*
X148819475Y-61443709D01*
X148819479Y-61443714D01*
X148819480Y-61443716D01*
X148931284Y-61555520D01*
X148931286Y-61555521D01*
X148931290Y-61555524D01*
X149068209Y-61634573D01*
X149068216Y-61634577D01*
X149220943Y-61675500D01*
X149220945Y-61675500D01*
X149379055Y-61675500D01*
X149379057Y-61675500D01*
X149531784Y-61634577D01*
X149668716Y-61555520D01*
X149780520Y-61443716D01*
X149859577Y-61306784D01*
X149900500Y-61154057D01*
X149900500Y-60995943D01*
X149859577Y-60843216D01*
X149859573Y-60843209D01*
X149780524Y-60706290D01*
X149780518Y-60706282D01*
X149668717Y-60594481D01*
X149668709Y-60594475D01*
X149531790Y-60515426D01*
X149531786Y-60515424D01*
X149531784Y-60515423D01*
X149379057Y-60474500D01*
X149220943Y-60474500D01*
X149068216Y-60515423D01*
X149068209Y-60515426D01*
X148931290Y-60594475D01*
X148931282Y-60594481D01*
X148819481Y-60706282D01*
X148819475Y-60706290D01*
X148740426Y-60843209D01*
X148740423Y-60843216D01*
X148699500Y-60995943D01*
X145700000Y-60995943D01*
X145700000Y-60124000D01*
X145719685Y-60056961D01*
X145772489Y-60011206D01*
X145824000Y-60000000D01*
X166576000Y-60000000D01*
X166643039Y-60019685D01*
G37*
%TD.AperFunction*%
%TD*%
%TA.AperFunction,Conductor*%
%TO.N,VBUS_IN*%
G36*
X149240202Y-25270185D02*
G01*
X149285957Y-25322989D01*
X149297156Y-25375778D01*
X149257777Y-29195561D01*
X149237403Y-29262394D01*
X149184130Y-29307602D01*
X149114873Y-29316832D01*
X149101691Y-29314058D01*
X149019414Y-29292012D01*
X148954057Y-29274500D01*
X148795943Y-29274500D01*
X148643216Y-29315423D01*
X148643209Y-29315426D01*
X148506290Y-29394475D01*
X148506282Y-29394481D01*
X148394481Y-29506282D01*
X148394475Y-29506290D01*
X148315426Y-29643209D01*
X148315423Y-29643216D01*
X148274500Y-29795943D01*
X148274500Y-29954056D01*
X148315423Y-30106783D01*
X148315426Y-30106790D01*
X148394475Y-30243709D01*
X148394479Y-30243714D01*
X148394480Y-30243716D01*
X148506284Y-30355520D01*
X148506286Y-30355521D01*
X148506290Y-30355524D01*
X148587149Y-30402207D01*
X148643216Y-30434577D01*
X148795943Y-30475500D01*
X148795945Y-30475500D01*
X148954054Y-30475500D01*
X148954057Y-30475500D01*
X149087619Y-30439712D01*
X149157466Y-30441375D01*
X149215329Y-30480537D01*
X149242833Y-30544766D01*
X149243703Y-30560765D01*
X149201265Y-34677278D01*
X149180891Y-34744111D01*
X149127618Y-34789319D01*
X149077272Y-34800000D01*
X147573598Y-34800000D01*
X147506559Y-34780315D01*
X147460804Y-34727511D01*
X147450860Y-34658353D01*
X147479885Y-34594797D01*
X147485917Y-34588319D01*
X147555520Y-34518716D01*
X147634577Y-34381784D01*
X147675500Y-34229057D01*
X147675500Y-34070943D01*
X147634577Y-33918216D01*
X147634573Y-33918209D01*
X147555524Y-33781290D01*
X147555518Y-33781282D01*
X147443717Y-33669481D01*
X147443709Y-33669475D01*
X147306790Y-33590426D01*
X147306786Y-33590424D01*
X147306784Y-33590423D01*
X147154057Y-33549500D01*
X146995943Y-33549500D01*
X146843216Y-33590423D01*
X146843209Y-33590426D01*
X146706290Y-33669475D01*
X146706282Y-33669481D01*
X146594481Y-33781282D01*
X146594475Y-33781290D01*
X146515426Y-33918209D01*
X146515423Y-33918216D01*
X146474500Y-34070943D01*
X146474500Y-34229056D01*
X146515423Y-34381783D01*
X146515426Y-34381790D01*
X146594475Y-34518709D01*
X146594481Y-34518717D01*
X146664083Y-34588319D01*
X146697568Y-34649642D01*
X146692584Y-34719334D01*
X146650712Y-34775267D01*
X146585248Y-34799684D01*
X146576402Y-34800000D01*
X130674000Y-34800000D01*
X130606961Y-34780315D01*
X130561206Y-34727511D01*
X130550000Y-34676000D01*
X130550000Y-33020943D01*
X145099500Y-33020943D01*
X145099500Y-33179056D01*
X145140423Y-33331783D01*
X145140426Y-33331790D01*
X145219475Y-33468709D01*
X145219479Y-33468714D01*
X145219480Y-33468716D01*
X145331284Y-33580520D01*
X145331286Y-33580521D01*
X145331290Y-33580524D01*
X145468209Y-33659573D01*
X145468216Y-33659577D01*
X145620943Y-33700500D01*
X145620945Y-33700500D01*
X145779055Y-33700500D01*
X145779057Y-33700500D01*
X145931784Y-33659577D01*
X146068716Y-33580520D01*
X146180520Y-33468716D01*
X146259577Y-33331784D01*
X146300500Y-33179057D01*
X146300500Y-33020943D01*
X146259577Y-32868216D01*
X146259573Y-32868209D01*
X146180524Y-32731290D01*
X146180518Y-32731282D01*
X146068717Y-32619481D01*
X146068709Y-32619475D01*
X145931790Y-32540426D01*
X145931786Y-32540424D01*
X145931784Y-32540423D01*
X145779057Y-32499500D01*
X145620943Y-32499500D01*
X145468216Y-32540423D01*
X145468209Y-32540426D01*
X145331290Y-32619475D01*
X145331282Y-32619481D01*
X145219481Y-32731282D01*
X145219475Y-32731290D01*
X145140426Y-32868209D01*
X145140423Y-32868216D01*
X145099500Y-33020943D01*
X130550000Y-33020943D01*
X130550000Y-31071153D01*
X140779500Y-31071153D01*
X140779500Y-31828846D01*
X140810261Y-31983489D01*
X140810264Y-31983501D01*
X140870602Y-32129172D01*
X140870609Y-32129185D01*
X140958210Y-32260288D01*
X140958213Y-32260292D01*
X141069707Y-32371786D01*
X141069711Y-32371789D01*
X141200814Y-32459390D01*
X141200827Y-32459397D01*
X141297646Y-32499500D01*
X141346503Y-32519737D01*
X141501153Y-32550499D01*
X141501156Y-32550500D01*
X141501158Y-32550500D01*
X141658844Y-32550500D01*
X141658845Y-32550499D01*
X141813497Y-32519737D01*
X141959179Y-32459394D01*
X142090289Y-32371789D01*
X142201789Y-32260289D01*
X142289394Y-32129179D01*
X142349737Y-31983497D01*
X142380500Y-31828842D01*
X142380500Y-31071158D01*
X142380500Y-31071155D01*
X142380499Y-31071153D01*
X142349738Y-30916510D01*
X142349737Y-30916503D01*
X142349735Y-30916498D01*
X142289397Y-30770827D01*
X142289390Y-30770814D01*
X142201789Y-30639711D01*
X142201786Y-30639707D01*
X142151234Y-30589155D01*
X142117749Y-30527832D01*
X142122733Y-30458140D01*
X142164605Y-30402207D01*
X142176908Y-30394091D01*
X142243716Y-30355520D01*
X142355520Y-30243716D01*
X142392613Y-30179467D01*
X142443179Y-30131253D01*
X142511786Y-30118029D01*
X142576651Y-30143997D01*
X142607385Y-30179466D01*
X142644480Y-30243716D01*
X142756284Y-30355520D01*
X142756286Y-30355521D01*
X142756290Y-30355524D01*
X142837149Y-30402207D01*
X142893216Y-30434577D01*
X143045943Y-30475500D01*
X143045945Y-30475500D01*
X143204055Y-30475500D01*
X143204057Y-30475500D01*
X143356784Y-30434577D01*
X143493716Y-30355520D01*
X143605520Y-30243716D01*
X143684577Y-30106784D01*
X143725500Y-29954057D01*
X143725500Y-29795943D01*
X143684577Y-29643216D01*
X143642613Y-29570531D01*
X143605524Y-29506290D01*
X143605518Y-29506282D01*
X143493717Y-29394481D01*
X143493709Y-29394475D01*
X143356790Y-29315426D01*
X143356786Y-29315424D01*
X143356784Y-29315423D01*
X143204057Y-29274500D01*
X143045943Y-29274500D01*
X142893216Y-29315423D01*
X142893209Y-29315426D01*
X142756290Y-29394475D01*
X142756282Y-29394481D01*
X142644481Y-29506282D01*
X142644477Y-29506287D01*
X142607387Y-29570531D01*
X142556821Y-29618746D01*
X142488214Y-29631970D01*
X142423349Y-29606002D01*
X142392613Y-29570531D01*
X142355522Y-29506287D01*
X142355518Y-29506282D01*
X142243717Y-29394481D01*
X142243709Y-29394475D01*
X142106790Y-29315426D01*
X142106786Y-29315424D01*
X142106784Y-29315423D01*
X141954057Y-29274500D01*
X141795943Y-29274500D01*
X141643216Y-29315423D01*
X141643209Y-29315426D01*
X141506290Y-29394475D01*
X141506282Y-29394481D01*
X141394481Y-29506282D01*
X141394475Y-29506290D01*
X141315426Y-29643209D01*
X141315423Y-29643216D01*
X141274500Y-29795943D01*
X141274500Y-29954056D01*
X141315423Y-30106783D01*
X141315423Y-30106784D01*
X141378144Y-30215422D01*
X141394615Y-30283322D01*
X141371763Y-30349349D01*
X141318209Y-30391982D01*
X141200824Y-30440604D01*
X141200814Y-30440609D01*
X141069711Y-30528210D01*
X141069707Y-30528213D01*
X140958213Y-30639707D01*
X140958210Y-30639711D01*
X140870609Y-30770814D01*
X140870602Y-30770827D01*
X140810264Y-30916498D01*
X140810261Y-30916510D01*
X140779500Y-31071153D01*
X130550000Y-31071153D01*
X130550000Y-27271153D01*
X140779500Y-27271153D01*
X140779500Y-28028846D01*
X140810261Y-28183489D01*
X140810264Y-28183501D01*
X140870602Y-28329172D01*
X140870609Y-28329185D01*
X140958210Y-28460288D01*
X140958213Y-28460292D01*
X141069707Y-28571786D01*
X141069711Y-28571789D01*
X141200814Y-28659390D01*
X141200827Y-28659397D01*
X141346498Y-28719735D01*
X141346503Y-28719737D01*
X141501153Y-28750499D01*
X141501156Y-28750500D01*
X141501158Y-28750500D01*
X141658844Y-28750500D01*
X141658845Y-28750499D01*
X141813497Y-28719737D01*
X141959179Y-28659394D01*
X142090289Y-28571789D01*
X142201789Y-28460289D01*
X142289394Y-28329179D01*
X142349737Y-28183497D01*
X142380500Y-28028842D01*
X142380500Y-27271158D01*
X142380500Y-27271155D01*
X142380499Y-27271153D01*
X142360275Y-27169480D01*
X142349737Y-27116503D01*
X142343585Y-27101651D01*
X142289397Y-26970827D01*
X142289390Y-26970814D01*
X142201789Y-26839711D01*
X142201786Y-26839707D01*
X142090292Y-26728213D01*
X142090288Y-26728210D01*
X141959185Y-26640609D01*
X141959172Y-26640602D01*
X141813501Y-26580264D01*
X141813489Y-26580261D01*
X141658845Y-26549500D01*
X141658842Y-26549500D01*
X141501158Y-26549500D01*
X141501155Y-26549500D01*
X141346510Y-26580261D01*
X141346498Y-26580264D01*
X141200827Y-26640602D01*
X141200814Y-26640609D01*
X141069711Y-26728210D01*
X141069707Y-26728213D01*
X140958213Y-26839707D01*
X140958210Y-26839711D01*
X140870609Y-26970814D01*
X140870602Y-26970827D01*
X140810264Y-27116498D01*
X140810261Y-27116510D01*
X140779500Y-27271153D01*
X130550000Y-27271153D01*
X130550000Y-26320943D01*
X142749500Y-26320943D01*
X142749500Y-26479057D01*
X142776619Y-26580264D01*
X142790423Y-26631783D01*
X142790426Y-26631790D01*
X142869475Y-26768709D01*
X142869479Y-26768714D01*
X142869480Y-26768716D01*
X142981284Y-26880520D01*
X142981285Y-26880521D01*
X142981287Y-26880522D01*
X143045531Y-26917613D01*
X143093746Y-26968179D01*
X143106970Y-27036786D01*
X143081002Y-27101651D01*
X143045531Y-27132387D01*
X142981287Y-27169477D01*
X142981282Y-27169481D01*
X142869481Y-27281282D01*
X142869475Y-27281290D01*
X142790426Y-27418209D01*
X142790423Y-27418216D01*
X142749500Y-27570943D01*
X142749500Y-27729056D01*
X142790423Y-27881783D01*
X142790426Y-27881790D01*
X142869475Y-28018709D01*
X142869479Y-28018714D01*
X142869480Y-28018716D01*
X142981284Y-28130520D01*
X142981286Y-28130521D01*
X142981290Y-28130524D01*
X143118209Y-28209573D01*
X143118216Y-28209577D01*
X143270943Y-28250500D01*
X143270945Y-28250500D01*
X143429055Y-28250500D01*
X143429057Y-28250500D01*
X143581784Y-28209577D01*
X143718716Y-28130520D01*
X143830520Y-28018716D01*
X143909577Y-27881784D01*
X143950500Y-27729057D01*
X143950500Y-27570943D01*
X143909577Y-27418216D01*
X143909573Y-27418209D01*
X143830524Y-27281290D01*
X143830518Y-27281282D01*
X143718715Y-27169479D01*
X143694125Y-27155282D01*
X143654467Y-27132386D01*
X143606253Y-27081821D01*
X143593029Y-27013214D01*
X143618997Y-26948349D01*
X143654468Y-26917613D01*
X143718716Y-26880520D01*
X143830520Y-26768716D01*
X143909577Y-26631784D01*
X143950500Y-26479057D01*
X143950500Y-26320943D01*
X147799500Y-26320943D01*
X147799500Y-26479057D01*
X147826619Y-26580264D01*
X147840423Y-26631783D01*
X147840426Y-26631790D01*
X147919475Y-26768709D01*
X147919479Y-26768714D01*
X147919480Y-26768716D01*
X148031284Y-26880520D01*
X148031285Y-26880521D01*
X148031287Y-26880522D01*
X148095531Y-26917613D01*
X148143746Y-26968179D01*
X148156970Y-27036786D01*
X148131002Y-27101651D01*
X148095531Y-27132387D01*
X148031287Y-27169477D01*
X148031282Y-27169481D01*
X147919481Y-27281282D01*
X147919475Y-27281290D01*
X147840426Y-27418209D01*
X147840423Y-27418216D01*
X147799500Y-27570943D01*
X147799500Y-27729056D01*
X147840423Y-27881783D01*
X147840426Y-27881790D01*
X147919475Y-28018709D01*
X147919479Y-28018714D01*
X147919480Y-28018716D01*
X148031284Y-28130520D01*
X148031286Y-28130521D01*
X148031290Y-28130524D01*
X148168209Y-28209573D01*
X148168216Y-28209577D01*
X148320943Y-28250500D01*
X148320945Y-28250500D01*
X148479055Y-28250500D01*
X148479057Y-28250500D01*
X148631784Y-28209577D01*
X148768716Y-28130520D01*
X148880520Y-28018716D01*
X148959577Y-27881784D01*
X149000500Y-27729057D01*
X149000500Y-27570943D01*
X148959577Y-27418216D01*
X148959573Y-27418209D01*
X148880524Y-27281290D01*
X148880518Y-27281282D01*
X148768715Y-27169479D01*
X148744125Y-27155282D01*
X148704467Y-27132386D01*
X148656253Y-27081821D01*
X148643029Y-27013214D01*
X148668997Y-26948349D01*
X148704468Y-26917613D01*
X148768716Y-26880520D01*
X148880520Y-26768716D01*
X148959577Y-26631784D01*
X149000500Y-26479057D01*
X149000500Y-26320943D01*
X148959577Y-26168216D01*
X148959573Y-26168209D01*
X148880524Y-26031290D01*
X148880518Y-26031282D01*
X148768717Y-25919481D01*
X148768709Y-25919475D01*
X148631790Y-25840426D01*
X148631786Y-25840424D01*
X148631784Y-25840423D01*
X148479057Y-25799500D01*
X148320943Y-25799500D01*
X148168216Y-25840423D01*
X148168209Y-25840426D01*
X148031290Y-25919475D01*
X148031282Y-25919481D01*
X147919481Y-26031282D01*
X147919475Y-26031290D01*
X147840426Y-26168209D01*
X147840423Y-26168216D01*
X147799500Y-26320943D01*
X143950500Y-26320943D01*
X143909577Y-26168216D01*
X143909573Y-26168209D01*
X143830524Y-26031290D01*
X143830518Y-26031282D01*
X143718717Y-25919481D01*
X143718709Y-25919475D01*
X143581790Y-25840426D01*
X143581786Y-25840424D01*
X143581784Y-25840423D01*
X143429057Y-25799500D01*
X143270943Y-25799500D01*
X143118216Y-25840423D01*
X143118209Y-25840426D01*
X142981290Y-25919475D01*
X142981282Y-25919481D01*
X142869481Y-26031282D01*
X142869475Y-26031290D01*
X142790426Y-26168209D01*
X142790423Y-26168216D01*
X142749500Y-26320943D01*
X130550000Y-26320943D01*
X130550000Y-25374500D01*
X130569685Y-25307461D01*
X130622489Y-25261706D01*
X130674000Y-25250500D01*
X149173163Y-25250500D01*
X149240202Y-25270185D01*
G37*
%TD.AperFunction*%
%TD*%
%TA.AperFunction,Conductor*%
%TO.N,+6V*%
G36*
X130943039Y-43519685D02*
G01*
X130988794Y-43572489D01*
X131000000Y-43624000D01*
X131000000Y-60000000D01*
X139876000Y-60000000D01*
X139943039Y-60019685D01*
X139988794Y-60072489D01*
X140000000Y-60124000D01*
X140000000Y-61625500D01*
X139980315Y-61692539D01*
X139927511Y-61738294D01*
X139876000Y-61749500D01*
X139765323Y-61749500D01*
X139692264Y-61764032D01*
X139692260Y-61764033D01*
X139609399Y-61819399D01*
X139554033Y-61902260D01*
X139554032Y-61902264D01*
X139539500Y-61975321D01*
X139539500Y-62185050D01*
X139519815Y-62252089D01*
X139467011Y-62297844D01*
X139397853Y-62307788D01*
X139334297Y-62278763D01*
X139305015Y-62241345D01*
X139254624Y-62142450D01*
X139215270Y-62088282D01*
X139215269Y-62088282D01*
X138582962Y-62720590D01*
X138565925Y-62657007D01*
X138500099Y-62542993D01*
X138407007Y-62449901D01*
X138292993Y-62384075D01*
X138229409Y-62367037D01*
X138861716Y-61734728D01*
X138807550Y-61695375D01*
X138618217Y-61598904D01*
X138416129Y-61533242D01*
X138206246Y-61500000D01*
X137993754Y-61500000D01*
X137783872Y-61533242D01*
X137783869Y-61533242D01*
X137581782Y-61598904D01*
X137392439Y-61695380D01*
X137338282Y-61734727D01*
X137338282Y-61734728D01*
X137970591Y-62367037D01*
X137907007Y-62384075D01*
X137792993Y-62449901D01*
X137699901Y-62542993D01*
X137634075Y-62657007D01*
X137617037Y-62720591D01*
X136984728Y-62088282D01*
X136984727Y-62088282D01*
X136945380Y-62142439D01*
X136848904Y-62331783D01*
X136816760Y-62430712D01*
X136777322Y-62488388D01*
X136712964Y-62515586D01*
X136644117Y-62503671D01*
X136592642Y-62456427D01*
X136580898Y-62430712D01*
X136579873Y-62427555D01*
X136501232Y-62273212D01*
X136399414Y-62133072D01*
X136276928Y-62010586D01*
X136136788Y-61908768D01*
X135982445Y-61830127D01*
X135817701Y-61776598D01*
X135817699Y-61776597D01*
X135817698Y-61776597D01*
X135686271Y-61755781D01*
X135646611Y-61749500D01*
X135473389Y-61749500D01*
X135433728Y-61755781D01*
X135302302Y-61776597D01*
X135137552Y-61830128D01*
X134983211Y-61908768D01*
X134903256Y-61966859D01*
X134843072Y-62010586D01*
X134843070Y-62010588D01*
X134843069Y-62010588D01*
X134720588Y-62133069D01*
X134720588Y-62133070D01*
X134720586Y-62133072D01*
X134682822Y-62185050D01*
X134618768Y-62273211D01*
X134540128Y-62427552D01*
X134486597Y-62592302D01*
X134459500Y-62763389D01*
X134459500Y-62936610D01*
X134470759Y-63007701D01*
X134486598Y-63107701D01*
X134540127Y-63272445D01*
X134618768Y-63426788D01*
X134720586Y-63566928D01*
X134843072Y-63689414D01*
X134983212Y-63791232D01*
X135137555Y-63869873D01*
X135302299Y-63923402D01*
X135473389Y-63950500D01*
X135473390Y-63950500D01*
X135646610Y-63950500D01*
X135646611Y-63950500D01*
X135817701Y-63923402D01*
X135982445Y-63869873D01*
X136136788Y-63791232D01*
X136276928Y-63689414D01*
X136399414Y-63566928D01*
X136501232Y-63426788D01*
X136579873Y-63272445D01*
X136580896Y-63269294D01*
X136581610Y-63268250D01*
X136581734Y-63267952D01*
X136581796Y-63267977D01*
X136620327Y-63211618D01*
X136684683Y-63184415D01*
X136753530Y-63196323D01*
X136805011Y-63243562D01*
X136816760Y-63269287D01*
X136848904Y-63368217D01*
X136945375Y-63557550D01*
X136984728Y-63611716D01*
X137617036Y-62979407D01*
X137634075Y-63042993D01*
X137699901Y-63157007D01*
X137792993Y-63250099D01*
X137907007Y-63315925D01*
X137970590Y-63332962D01*
X137338282Y-63965269D01*
X137338282Y-63965270D01*
X137392449Y-64004624D01*
X137581782Y-64101095D01*
X137783870Y-64166757D01*
X137993754Y-64200000D01*
X138206246Y-64200000D01*
X138416127Y-64166757D01*
X138416130Y-64166757D01*
X138618217Y-64101095D01*
X138807554Y-64004622D01*
X138861716Y-63965270D01*
X138861717Y-63965270D01*
X138229408Y-63332962D01*
X138292993Y-63315925D01*
X138407007Y-63250099D01*
X138500099Y-63157007D01*
X138565925Y-63042993D01*
X138582962Y-62979408D01*
X139215270Y-63611717D01*
X139215270Y-63611716D01*
X139254622Y-63557554D01*
X139305015Y-63458654D01*
X139352990Y-63407858D01*
X139420811Y-63391063D01*
X139486946Y-63413600D01*
X139530397Y-63468315D01*
X139539500Y-63514949D01*
X139539500Y-63724678D01*
X139554032Y-63797735D01*
X139554033Y-63797739D01*
X139572405Y-63825235D01*
X139609399Y-63880601D01*
X139692260Y-63935966D01*
X139692264Y-63935967D01*
X139765321Y-63950499D01*
X139765324Y-63950500D01*
X139876000Y-63950500D01*
X139943039Y-63970185D01*
X139988794Y-64022989D01*
X140000000Y-64074500D01*
X140000000Y-64876000D01*
X139980315Y-64943039D01*
X139927511Y-64988794D01*
X139876000Y-65000000D01*
X121124000Y-65000000D01*
X121056961Y-64980315D01*
X121011206Y-64927511D01*
X121000000Y-64876000D01*
X121000000Y-62663389D01*
X123159500Y-62663389D01*
X123159500Y-62836611D01*
X123186598Y-63007701D01*
X123240127Y-63172445D01*
X123318768Y-63326788D01*
X123420586Y-63466928D01*
X123543072Y-63589414D01*
X123683212Y-63691232D01*
X123837555Y-63769873D01*
X124002299Y-63823402D01*
X124173389Y-63850500D01*
X124173390Y-63850500D01*
X124346610Y-63850500D01*
X124346611Y-63850500D01*
X124517701Y-63823402D01*
X124682445Y-63769873D01*
X124836788Y-63691232D01*
X124976928Y-63589414D01*
X125099414Y-63466928D01*
X125201232Y-63326788D01*
X125279873Y-63172445D01*
X125280896Y-63169294D01*
X125281610Y-63168250D01*
X125281734Y-63167952D01*
X125281796Y-63167977D01*
X125320327Y-63111618D01*
X125384683Y-63084415D01*
X125453530Y-63096323D01*
X125505011Y-63143562D01*
X125516760Y-63169287D01*
X125548904Y-63268217D01*
X125645375Y-63457550D01*
X125684728Y-63511716D01*
X126317037Y-62879408D01*
X126334075Y-62942993D01*
X126399901Y-63057007D01*
X126492993Y-63150099D01*
X126607007Y-63215925D01*
X126670590Y-63232962D01*
X126038282Y-63865269D01*
X126038282Y-63865270D01*
X126092449Y-63904624D01*
X126281782Y-64001095D01*
X126483870Y-64066757D01*
X126693754Y-64100000D01*
X126906246Y-64100000D01*
X127116127Y-64066757D01*
X127116130Y-64066757D01*
X127318217Y-64001095D01*
X127507554Y-63904622D01*
X127561716Y-63865270D01*
X127561717Y-63865270D01*
X126929408Y-63232962D01*
X126992993Y-63215925D01*
X127107007Y-63150099D01*
X127200099Y-63057007D01*
X127265925Y-62942993D01*
X127282962Y-62879409D01*
X127915270Y-63511717D01*
X127915270Y-63511716D01*
X127954622Y-63457554D01*
X128005015Y-63358654D01*
X128052990Y-63307858D01*
X128120811Y-63291063D01*
X128186946Y-63313600D01*
X128230397Y-63368315D01*
X128239500Y-63414949D01*
X128239500Y-63624678D01*
X128254032Y-63697735D01*
X128254033Y-63697739D01*
X128272030Y-63724674D01*
X128309399Y-63780601D01*
X128392260Y-63835966D01*
X128392264Y-63835967D01*
X128465321Y-63850499D01*
X128465324Y-63850500D01*
X128465326Y-63850500D01*
X130214676Y-63850500D01*
X130214677Y-63850499D01*
X130287740Y-63835966D01*
X130370601Y-63780601D01*
X130425966Y-63697740D01*
X130440500Y-63624674D01*
X130440500Y-61875326D01*
X130440500Y-61875323D01*
X130440499Y-61875321D01*
X130425967Y-61802264D01*
X130425966Y-61802260D01*
X130408819Y-61776597D01*
X130370601Y-61719399D01*
X130287740Y-61664034D01*
X130287739Y-61664033D01*
X130287735Y-61664032D01*
X130214677Y-61649500D01*
X130214674Y-61649500D01*
X128465326Y-61649500D01*
X128465323Y-61649500D01*
X128392264Y-61664032D01*
X128392260Y-61664033D01*
X128309399Y-61719399D01*
X128254033Y-61802260D01*
X128254032Y-61802264D01*
X128239500Y-61875321D01*
X128239500Y-62085050D01*
X128219815Y-62152089D01*
X128167011Y-62197844D01*
X128097853Y-62207788D01*
X128034297Y-62178763D01*
X128005015Y-62141345D01*
X127954624Y-62042450D01*
X127915270Y-61988282D01*
X127915269Y-61988282D01*
X127282962Y-62620590D01*
X127265925Y-62557007D01*
X127200099Y-62442993D01*
X127107007Y-62349901D01*
X126992993Y-62284075D01*
X126929409Y-62267037D01*
X127561716Y-61634728D01*
X127507550Y-61595375D01*
X127318217Y-61498904D01*
X127116129Y-61433242D01*
X126906246Y-61400000D01*
X126693754Y-61400000D01*
X126483872Y-61433242D01*
X126483869Y-61433242D01*
X126281782Y-61498904D01*
X126092439Y-61595380D01*
X126038282Y-61634727D01*
X126038282Y-61634728D01*
X126670591Y-62267037D01*
X126607007Y-62284075D01*
X126492993Y-62349901D01*
X126399901Y-62442993D01*
X126334075Y-62557007D01*
X126317037Y-62620591D01*
X125684728Y-61988282D01*
X125684727Y-61988282D01*
X125645380Y-62042439D01*
X125548904Y-62231783D01*
X125516760Y-62330712D01*
X125477322Y-62388388D01*
X125412964Y-62415586D01*
X125344117Y-62403671D01*
X125292642Y-62356427D01*
X125280898Y-62330712D01*
X125279873Y-62327555D01*
X125201232Y-62173212D01*
X125099414Y-62033072D01*
X124976928Y-61910586D01*
X124836788Y-61808768D01*
X124682445Y-61730127D01*
X124517701Y-61676598D01*
X124517699Y-61676597D01*
X124517698Y-61676597D01*
X124386271Y-61655781D01*
X124346611Y-61649500D01*
X124173389Y-61649500D01*
X124133728Y-61655781D01*
X124002302Y-61676597D01*
X123837552Y-61730128D01*
X123683211Y-61808768D01*
X123603256Y-61866859D01*
X123543072Y-61910586D01*
X123543070Y-61910588D01*
X123543069Y-61910588D01*
X123420588Y-62033069D01*
X123420588Y-62033070D01*
X123420586Y-62033072D01*
X123376859Y-62093256D01*
X123318768Y-62173211D01*
X123240128Y-62327552D01*
X123186597Y-62492302D01*
X123170759Y-62592302D01*
X123159500Y-62663389D01*
X121000000Y-62663389D01*
X121000000Y-43624000D01*
X121019685Y-43556961D01*
X121072489Y-43511206D01*
X121124000Y-43500000D01*
X130876000Y-43500000D01*
X130943039Y-43519685D01*
G37*
%TD.AperFunction*%
%TD*%
%TA.AperFunction,Conductor*%
%TO.N,PDC_3.3V*%
G36*
X152750000Y-40600763D02*
G01*
X152719481Y-40631282D01*
X152719475Y-40631290D01*
X152640426Y-40768209D01*
X152640423Y-40768216D01*
X152599500Y-40920943D01*
X152599500Y-41079057D01*
X152604894Y-41099185D01*
X152640423Y-41231783D01*
X152640426Y-41231790D01*
X152719475Y-41368709D01*
X152719481Y-41368717D01*
X152750000Y-41399236D01*
X152750000Y-42400000D01*
X151800000Y-42395410D01*
X150723901Y-42390210D01*
X150656957Y-42370201D01*
X150611458Y-42317177D01*
X150600500Y-42266211D01*
X150600500Y-42220945D01*
X150600500Y-42220943D01*
X150559577Y-42068216D01*
X150559573Y-42068209D01*
X150480524Y-41931290D01*
X150480518Y-41931282D01*
X150368717Y-41819481D01*
X150368709Y-41819475D01*
X150231790Y-41740426D01*
X150231786Y-41740424D01*
X150231784Y-41740423D01*
X150079057Y-41699500D01*
X149920943Y-41699500D01*
X149768216Y-41740423D01*
X149768209Y-41740426D01*
X149631290Y-41819475D01*
X149631282Y-41819481D01*
X149519481Y-41931282D01*
X149519475Y-41931290D01*
X149440426Y-42068209D01*
X149440423Y-42068216D01*
X149399500Y-42220943D01*
X149399500Y-42259211D01*
X149379815Y-42326250D01*
X149327011Y-42372005D01*
X149274901Y-42383210D01*
X143806795Y-42356795D01*
X143739851Y-42336786D01*
X143719713Y-42320477D01*
X143668717Y-42269481D01*
X143668709Y-42269475D01*
X143531790Y-42190426D01*
X143531786Y-42190424D01*
X143531784Y-42190423D01*
X143379057Y-42149500D01*
X143220943Y-42149500D01*
X143068216Y-42190423D01*
X143068209Y-42190426D01*
X142931283Y-42269479D01*
X142885162Y-42315600D01*
X142823839Y-42349084D01*
X142796883Y-42351917D01*
X142523401Y-42350596D01*
X142456457Y-42330587D01*
X142410958Y-42277563D01*
X142400000Y-42226597D01*
X142400000Y-40987199D01*
X142419685Y-40920160D01*
X142472489Y-40874405D01*
X142541647Y-40864461D01*
X142605203Y-40893486D01*
X142611681Y-40899518D01*
X142691369Y-40979206D01*
X142691371Y-40979207D01*
X142691375Y-40979210D01*
X142705213Y-40987199D01*
X142828301Y-41058263D01*
X142981028Y-41099186D01*
X142981030Y-41099186D01*
X143139140Y-41099186D01*
X143139142Y-41099186D01*
X143291869Y-41058263D01*
X143428801Y-40979206D01*
X143540605Y-40867402D01*
X143619662Y-40730470D01*
X143660585Y-40577743D01*
X143660585Y-40419629D01*
X143619662Y-40266902D01*
X143570519Y-40181783D01*
X143540609Y-40129976D01*
X143540603Y-40129968D01*
X143428802Y-40018167D01*
X143428801Y-40018166D01*
X143291869Y-39939109D01*
X143139142Y-39898186D01*
X142981028Y-39898186D01*
X142828301Y-39939109D01*
X142828294Y-39939112D01*
X142691375Y-40018161D01*
X142691367Y-40018167D01*
X142611681Y-40097854D01*
X142550358Y-40131339D01*
X142480666Y-40126355D01*
X142424733Y-40084483D01*
X142400316Y-40019019D01*
X142400000Y-40010173D01*
X142400000Y-39870943D01*
X144799500Y-39870943D01*
X144799500Y-40029057D01*
X144834819Y-40160867D01*
X144840423Y-40181783D01*
X144840426Y-40181790D01*
X144919475Y-40318709D01*
X144919479Y-40318714D01*
X144919480Y-40318716D01*
X145031284Y-40430520D01*
X145031286Y-40430521D01*
X145031290Y-40430524D01*
X145154044Y-40501395D01*
X145168216Y-40509577D01*
X145245278Y-40530225D01*
X145304937Y-40566590D01*
X145335466Y-40629437D01*
X145327171Y-40698813D01*
X145282686Y-40752691D01*
X145245279Y-40769774D01*
X145212615Y-40778526D01*
X145168214Y-40790423D01*
X145168209Y-40790426D01*
X145031290Y-40869475D01*
X145031282Y-40869481D01*
X144919481Y-40981282D01*
X144919475Y-40981290D01*
X144840426Y-41118209D01*
X144840423Y-41118216D01*
X144799500Y-41270943D01*
X144799500Y-41429057D01*
X144813290Y-41480520D01*
X144840423Y-41581783D01*
X144840426Y-41581790D01*
X144919475Y-41718709D01*
X144919479Y-41718714D01*
X144919480Y-41718716D01*
X145031284Y-41830520D01*
X145031286Y-41830521D01*
X145031290Y-41830524D01*
X145168209Y-41909573D01*
X145168216Y-41909577D01*
X145320943Y-41950500D01*
X145320945Y-41950500D01*
X145479055Y-41950500D01*
X145479057Y-41950500D01*
X145631784Y-41909577D01*
X145768716Y-41830520D01*
X145880520Y-41718716D01*
X145959577Y-41581784D01*
X146000500Y-41429057D01*
X146000500Y-41270943D01*
X145959577Y-41118216D01*
X145936968Y-41079056D01*
X145880524Y-40981290D01*
X145880518Y-40981282D01*
X145768717Y-40869481D01*
X145768709Y-40869475D01*
X145631790Y-40790426D01*
X145631786Y-40790424D01*
X145631784Y-40790423D01*
X145554721Y-40769774D01*
X145495062Y-40733410D01*
X145464533Y-40670563D01*
X145472828Y-40601188D01*
X145517313Y-40547310D01*
X145554720Y-40530225D01*
X145631784Y-40509577D01*
X145768716Y-40430520D01*
X145880520Y-40318716D01*
X145959577Y-40181784D01*
X146000500Y-40029057D01*
X146000500Y-39870943D01*
X145992775Y-39842113D01*
X146261308Y-39842113D01*
X146261308Y-40000227D01*
X146296440Y-40131339D01*
X146302231Y-40152953D01*
X146302234Y-40152960D01*
X146381283Y-40289879D01*
X146381287Y-40289884D01*
X146381288Y-40289886D01*
X146493092Y-40401690D01*
X146493094Y-40401691D01*
X146493098Y-40401694D01*
X146543027Y-40430520D01*
X146630024Y-40480747D01*
X146707086Y-40501395D01*
X146766745Y-40537760D01*
X146797274Y-40600607D01*
X146788979Y-40669983D01*
X146744494Y-40723861D01*
X146707087Y-40740944D01*
X146675156Y-40749500D01*
X146630022Y-40761593D01*
X146630017Y-40761596D01*
X146493098Y-40840645D01*
X146493090Y-40840651D01*
X146381289Y-40952452D01*
X146381283Y-40952460D01*
X146302234Y-41089379D01*
X146302231Y-41089386D01*
X146261308Y-41242113D01*
X146261308Y-41400227D01*
X146282823Y-41480520D01*
X146302231Y-41552953D01*
X146302234Y-41552960D01*
X146381283Y-41689879D01*
X146381287Y-41689884D01*
X146381288Y-41689886D01*
X146493092Y-41801690D01*
X146493094Y-41801691D01*
X146493098Y-41801694D01*
X146543027Y-41830520D01*
X146630024Y-41880747D01*
X146782751Y-41921670D01*
X146782753Y-41921670D01*
X146940863Y-41921670D01*
X146940865Y-41921670D01*
X147093592Y-41880747D01*
X147230524Y-41801690D01*
X147342328Y-41689886D01*
X147421385Y-41552954D01*
X147462308Y-41400227D01*
X147462308Y-41242113D01*
X147421385Y-41089386D01*
X147362388Y-40987199D01*
X147342332Y-40952460D01*
X147342326Y-40952452D01*
X147230525Y-40840651D01*
X147230517Y-40840645D01*
X147093598Y-40761596D01*
X147093594Y-40761594D01*
X147093592Y-40761593D01*
X147016529Y-40740944D01*
X146956870Y-40704580D01*
X146926341Y-40641733D01*
X146934636Y-40572358D01*
X146979121Y-40518480D01*
X147016528Y-40501395D01*
X147093592Y-40480747D01*
X147230524Y-40401690D01*
X147342328Y-40289886D01*
X147421385Y-40152954D01*
X147462308Y-40000227D01*
X147462308Y-39842113D01*
X147421385Y-39689386D01*
X147392539Y-39639422D01*
X147342330Y-39552457D01*
X147342329Y-39552455D01*
X147271184Y-39481310D01*
X148524500Y-39481310D01*
X148524500Y-39639424D01*
X148545611Y-39718209D01*
X148565423Y-39792150D01*
X148565426Y-39792157D01*
X148644475Y-39929076D01*
X148644479Y-39929081D01*
X148644480Y-39929083D01*
X148756284Y-40040887D01*
X148756286Y-40040888D01*
X148756290Y-40040891D01*
X148893209Y-40119940D01*
X148893216Y-40119944D01*
X149045943Y-40160867D01*
X149045945Y-40160867D01*
X149204055Y-40160867D01*
X149204057Y-40160867D01*
X149356784Y-40119944D01*
X149493716Y-40040887D01*
X149605520Y-39929083D01*
X149684577Y-39792151D01*
X149725500Y-39639424D01*
X149725500Y-39481310D01*
X149684577Y-39328583D01*
X149684573Y-39328576D01*
X149605524Y-39191657D01*
X149605518Y-39191649D01*
X149493717Y-39079848D01*
X149493709Y-39079842D01*
X149356790Y-39000793D01*
X149356786Y-39000791D01*
X149356784Y-39000790D01*
X149204057Y-38959867D01*
X149045943Y-38959867D01*
X148893216Y-39000790D01*
X148893209Y-39000793D01*
X148756290Y-39079842D01*
X148756282Y-39079848D01*
X148644481Y-39191649D01*
X148644475Y-39191657D01*
X148565426Y-39328576D01*
X148565423Y-39328583D01*
X148524500Y-39481310D01*
X147271184Y-39481310D01*
X147230525Y-39440651D01*
X147230517Y-39440645D01*
X147093598Y-39361596D01*
X147093594Y-39361594D01*
X147093592Y-39361593D01*
X146940865Y-39320670D01*
X146782751Y-39320670D01*
X146630024Y-39361593D01*
X146630017Y-39361596D01*
X146493098Y-39440645D01*
X146493090Y-39440651D01*
X146381289Y-39552452D01*
X146381283Y-39552460D01*
X146302234Y-39689379D01*
X146302231Y-39689386D01*
X146261308Y-39842113D01*
X145992775Y-39842113D01*
X145959577Y-39718216D01*
X145914087Y-39639424D01*
X145880524Y-39581290D01*
X145880518Y-39581282D01*
X145768717Y-39469481D01*
X145768709Y-39469475D01*
X145631790Y-39390426D01*
X145631786Y-39390424D01*
X145631784Y-39390423D01*
X145479057Y-39349500D01*
X145320943Y-39349500D01*
X145168216Y-39390423D01*
X145168209Y-39390426D01*
X145031290Y-39469475D01*
X145031282Y-39469481D01*
X144919481Y-39581282D01*
X144919475Y-39581290D01*
X144840426Y-39718209D01*
X144840423Y-39718216D01*
X144799500Y-39870943D01*
X142400000Y-39870943D01*
X142400000Y-38800598D01*
X142408575Y-38771394D01*
X142414921Y-38741626D01*
X142418873Y-38736323D01*
X142419685Y-38733559D01*
X142435954Y-38713283D01*
X142436073Y-38713162D01*
X142530520Y-38618716D01*
X142531613Y-38616822D01*
X142538740Y-38609636D01*
X142562715Y-38596414D01*
X142584831Y-38580264D01*
X142592871Y-38579784D01*
X142599923Y-38575896D01*
X142627238Y-38577735D01*
X142654577Y-38576105D01*
X142661600Y-38580049D01*
X142669635Y-38580590D01*
X142691622Y-38596906D01*
X142715499Y-38610314D01*
X142719274Y-38617427D01*
X142725742Y-38622227D01*
X142735418Y-38647842D01*
X142748256Y-38672030D01*
X142749332Y-38678431D01*
X142790423Y-38831783D01*
X142790426Y-38831790D01*
X142869475Y-38968709D01*
X142869479Y-38968714D01*
X142869480Y-38968716D01*
X142981284Y-39080520D01*
X142981286Y-39080521D01*
X142981290Y-39080524D01*
X143118209Y-39159573D01*
X143118216Y-39159577D01*
X143270943Y-39200500D01*
X143270945Y-39200500D01*
X143429055Y-39200500D01*
X143429057Y-39200500D01*
X143581784Y-39159577D01*
X143718716Y-39080520D01*
X143830520Y-38968716D01*
X143909577Y-38831784D01*
X143950500Y-38679057D01*
X143950500Y-38520943D01*
X143950499Y-38520938D01*
X143946521Y-38506091D01*
X143948185Y-38436242D01*
X143987348Y-38378380D01*
X144051577Y-38350877D01*
X144066296Y-38350000D01*
X151812499Y-38350000D01*
X151812500Y-38350000D01*
X152750000Y-38350000D01*
X152750000Y-40600763D01*
G37*
%TD.AperFunction*%
%TD*%
M02*
