%TF.GenerationSoftware,KiCad,Pcbnew,9.0.6*%
%TF.CreationDate,2026-05-04T22:58:46-07:00*%
%TF.ProjectId,Tilt_Table_PCB_Rev2,54696c74-5f54-4616-926c-655f5043425f,rev?*%
%TF.SameCoordinates,Original*%
%TF.FileFunction,Soldermask,Bot*%
%TF.FilePolarity,Negative*%
%FSLAX46Y46*%
G04 Gerber Fmt 4.6, Leading zero omitted, Abs format (unit mm)*
G04 Created by KiCad (PCBNEW 9.0.6) date 2026-05-04 22:58:46*
%MOMM*%
%LPD*%
G01*
G04 APERTURE LIST*
G04 Aperture macros list*
%AMRoundRect*
0 Rectangle with rounded corners*
0 $1 Rounding radius*
0 $2 $3 $4 $5 $6 $7 $8 $9 X,Y pos of 4 corners*
0 Add a 4 corners polygon primitive as box body*
4,1,4,$2,$3,$4,$5,$6,$7,$8,$9,$2,$3,0*
0 Add four circle primitives for the rounded corners*
1,1,$1+$1,$2,$3*
1,1,$1+$1,$4,$5*
1,1,$1+$1,$6,$7*
1,1,$1+$1,$8,$9*
0 Add four rect primitives between the rounded corners*
20,1,$1+$1,$2,$3,$4,$5,0*
20,1,$1+$1,$4,$5,$6,$7,0*
20,1,$1+$1,$6,$7,$8,$9,0*
20,1,$1+$1,$8,$9,$2,$3,0*%
G04 Aperture macros list end*
%ADD10R,1.700000X1.700000*%
%ADD11C,1.700000*%
%ADD12O,1.252400X1.852400*%
%ADD13C,3.200000*%
%ADD14O,1.550000X0.890000*%
%ADD15O,0.950000X1.250000*%
%ADD16RoundRect,0.200000X-0.200000X-0.275000X0.200000X-0.275000X0.200000X0.275000X-0.200000X0.275000X0*%
%ADD17RoundRect,0.200000X0.200000X0.275000X-0.200000X0.275000X-0.200000X-0.275000X0.200000X-0.275000X0*%
%ADD18RoundRect,0.225000X-0.250000X0.225000X-0.250000X-0.225000X0.250000X-0.225000X0.250000X0.225000X0*%
%ADD19RoundRect,0.200000X-0.275000X0.200000X-0.275000X-0.200000X0.275000X-0.200000X0.275000X0.200000X0*%
%ADD20RoundRect,0.225000X0.225000X0.250000X-0.225000X0.250000X-0.225000X-0.250000X0.225000X-0.250000X0*%
%ADD21RoundRect,0.225000X0.250000X-0.225000X0.250000X0.225000X-0.250000X0.225000X-0.250000X-0.225000X0*%
G04 APERTURE END LIST*
D10*
%TO.C,J5*%
X139220000Y-81900000D03*
D11*
X141760000Y-81900000D03*
X144300000Y-81900000D03*
X146840000Y-81900000D03*
X149380000Y-81900000D03*
X151920000Y-81900000D03*
X154460000Y-81900000D03*
X157000000Y-81900000D03*
%TD*%
D10*
%TO.C,J6*%
X156860000Y-73912500D03*
D11*
X159400000Y-73912500D03*
X161940000Y-73912500D03*
%TD*%
D12*
%TO.C,J1*%
X150220000Y-27650000D03*
X141580000Y-27650000D03*
X150220000Y-31450000D03*
X141580000Y-31450000D03*
%TD*%
D10*
%TO.C,J11*%
X154570000Y-56350000D03*
D11*
X157110000Y-56350000D03*
X159650000Y-56350000D03*
X162190000Y-56350000D03*
%TD*%
D13*
%TO.C,H4*%
X163350000Y-81250000D03*
%TD*%
%TO.C,H2*%
X163350000Y-28750000D03*
%TD*%
D10*
%TO.C,J10*%
X129340000Y-62750000D03*
D11*
X126800000Y-62750000D03*
X124260000Y-62750000D03*
%TD*%
D14*
%TO.C,J8*%
X121750000Y-68550000D03*
D15*
X124450000Y-69550000D03*
X124450000Y-74550000D03*
D14*
X121750000Y-75550000D03*
%TD*%
D10*
%TO.C,J12*%
X130600000Y-81240000D03*
D11*
X130600000Y-78700000D03*
X130600000Y-76160000D03*
%TD*%
D13*
%TO.C,H1*%
X123900000Y-28700000D03*
%TD*%
%TO.C,H3*%
X123850000Y-81200000D03*
%TD*%
D10*
%TO.C,J3*%
X124600000Y-35700000D03*
D11*
X124600000Y-38240000D03*
%TD*%
D10*
%TO.C,J9*%
X140640000Y-62850000D03*
D11*
X138100000Y-62850000D03*
X135560000Y-62850000D03*
%TD*%
D10*
%TO.C,J4*%
X156400000Y-48625000D03*
D11*
X156400000Y-51165000D03*
%TD*%
D10*
%TO.C,J2*%
X163400000Y-49990000D03*
D11*
X163400000Y-47450000D03*
X163400000Y-44910000D03*
X163400000Y-42370000D03*
X163400000Y-39830000D03*
X163400000Y-37290000D03*
X163400000Y-34750000D03*
%TD*%
D16*
%TO.C,R4*%
X150575000Y-48750000D03*
X152225000Y-48750000D03*
%TD*%
D17*
%TO.C,R3*%
X152250000Y-47000000D03*
X150600000Y-47000000D03*
%TD*%
%TO.C,R21*%
X136700000Y-43500000D03*
X135050000Y-43500000D03*
%TD*%
D18*
%TO.C,C2*%
X142100000Y-42725000D03*
X142100000Y-44275000D03*
%TD*%
D16*
%TO.C,R2*%
X150675000Y-37500000D03*
X152325000Y-37500000D03*
%TD*%
D17*
%TO.C,R5*%
X152325000Y-39300000D03*
X150675000Y-39300000D03*
%TD*%
D19*
%TO.C,R19*%
X135000000Y-51300000D03*
X135000000Y-52950000D03*
%TD*%
D16*
%TO.C,R10*%
X159275000Y-37300000D03*
X160925000Y-37300000D03*
%TD*%
D17*
%TO.C,R7*%
X152300000Y-43550000D03*
X150650000Y-43550000D03*
%TD*%
D16*
%TO.C,R11*%
X159275000Y-39850000D03*
X160925000Y-39850000D03*
%TD*%
D20*
%TO.C,C13*%
X141425000Y-52700000D03*
X139875000Y-52700000D03*
%TD*%
D21*
%TO.C,C4*%
X142050000Y-40875000D03*
X142050000Y-39325000D03*
%TD*%
D18*
%TO.C,C12*%
X135000000Y-48025000D03*
X135000000Y-49575000D03*
%TD*%
D21*
%TO.C,C5*%
X140250000Y-40875000D03*
X140250000Y-39325000D03*
%TD*%
D16*
%TO.C,R9*%
X159300000Y-34750000D03*
X160950000Y-34750000D03*
%TD*%
%TO.C,R20*%
X135050000Y-45200000D03*
X136700000Y-45200000D03*
%TD*%
%TO.C,R23*%
X159375000Y-76512500D03*
X161025000Y-76512500D03*
%TD*%
D21*
%TO.C,C3*%
X138450000Y-40900000D03*
X138450000Y-39350000D03*
%TD*%
D16*
%TO.C,R12*%
X159350000Y-44420000D03*
X161000000Y-44420000D03*
%TD*%
%TO.C,R8*%
X150625000Y-45200000D03*
X152275000Y-45200000D03*
%TD*%
D17*
%TO.C,R1*%
X152275000Y-35800000D03*
X150625000Y-35800000D03*
%TD*%
D16*
%TO.C,R6*%
X150675000Y-41050000D03*
X152325000Y-41050000D03*
%TD*%
D18*
%TO.C,C10*%
X136800000Y-48025000D03*
X136800000Y-49575000D03*
%TD*%
M02*
