M48
METRIC
T1C0.300
T2C0.500
T3C0.550
T4C0.600
T5C1.000
T6C3.200
%
G90
G05
T1
X123.3Y-73.4
X124.8Y-40.9
X125.7Y-73.4
X127.1Y-40.9
X128.1Y-39.5
X129.3Y-67.1
X130.3Y-45.2
X131.1Y-33.1
X131.1Y-34.3
X131.6Y-32.1
X132.0Y-30.6
X132.1Y-28.5
X132.8Y-32.1
X132.8Y-80.9
X132.95Y-67.225
X133.3Y-38.3
X133.9Y-43.5
X135.0Y-67.225
X136.2Y-52.9
X136.4Y-69.8
X136.45Y-67.925
X136.8Y-50.7
X137.7Y-46.2
X138.1Y-47.6
X138.2Y-48.8
X138.45Y-38.25
X138.6Y-68.8
X139.2Y-45.1
X139.8Y-51.4
X140.25Y-38.25
X141.5Y-69.1
X141.5Y-73.4
X141.8Y-46.3
X141.8Y-47.3
X141.8Y-48.9
X141.8Y-49.9
X141.875Y-29.875
X142.05Y-38.25
X143.0Y-41.5
X143.0Y-46.3
X143.0Y-47.3
X143.0Y-48.9
X143.0Y-49.9
X143.0Y-55.0
X143.0Y-56.7
X143.06Y-40.499
X143.125Y-29.875
X143.3Y-42.75
X143.3Y-43.65
X143.3Y-71.1
X143.35Y-26.4
X143.35Y-27.65
X143.35Y-38.6
X143.9Y-73.1
X144.0Y-55.0
X144.0Y-56.7
X144.3Y-71.7
X144.38Y-33.1
X144.4Y-70.2
X144.45Y-29.975
X144.6Y-44.4
X144.9Y-51.5
X145.4Y-39.95
X145.4Y-41.35
X145.45Y-29.975
X145.488Y-43.867
X145.7Y-33.1
X145.8Y-67.0
X146.325Y-29.975
X146.375Y-46.92
X146.6Y-48.1
X146.6Y-48.9
X146.862Y-39.921
X146.862Y-41.321
X147.075Y-34.15
X147.1Y-45.1
X147.2Y-67.9
X147.3Y-61.075
X147.325Y-29.975
X147.4Y-32.9
X147.4Y-47.5
X147.4Y-69.0
X147.4Y-71.2
X147.5Y-51.8
X147.6Y-36.5
X148.4Y-26.4
X148.4Y-27.65
X148.4Y-47.5
X148.5Y-37.7
X148.5Y-51.8
X148.6Y-45.2
X148.875Y-29.875
X149.125Y-39.56
X149.3Y-61.075
X149.4Y-47.6
X149.405Y-44.798
X149.5Y-43.8
X150.0Y-42.3
X150.125Y-29.875
X151.8Y-30.3
X153.2Y-41.0
X153.3Y-45.2
X153.3Y-47.0
X153.3Y-48.7
X153.4Y-35.8
X153.4Y-37.5
X153.4Y-39.3
X153.4Y-44.0
X153.6Y-43.1
X153.8Y-70.425
X153.9Y-38.4
X154.95Y-27.25
X155.2Y-45.1
X157.34Y-63.3
X157.4Y-40.9
X157.9Y-42.9
X158.2Y-34.7
X158.2Y-37.3
X158.2Y-39.8
X158.3Y-44.4
X161.0Y-77.8
X162.34Y-63.3
T5
X124.26Y-62.75
X124.6Y-35.7
X124.6Y-38.24
X126.8Y-62.75
X129.34Y-62.75
X130.6Y-76.16
X130.6Y-78.7
X130.6Y-81.24
X135.56Y-62.85
X138.1Y-62.85
X139.22Y-81.9
X140.64Y-62.85
X141.76Y-81.9
X144.3Y-81.9
X146.84Y-81.9
X149.38Y-81.9
X151.92Y-81.9
X154.46Y-81.9
X154.57Y-56.35
X156.4Y-48.625
X156.4Y-51.165
X156.86Y-73.912
X157.0Y-81.9
X157.11Y-56.35
X159.4Y-73.912
X159.65Y-56.35
X161.94Y-73.912
X162.19Y-56.35
X163.4Y-34.75
X163.4Y-37.29
X163.4Y-39.83
X163.4Y-42.37
X163.4Y-44.91
X163.4Y-47.45
X163.4Y-49.99
T6
X123.85Y-81.2
X123.9Y-28.7
X163.35Y-28.75
X163.35Y-81.25
T2
X122.075Y-68.55G85X121.425Y-68.55
G05
X122.075Y-75.55G85X121.425Y-75.55
G05
T3
X124.45Y-69.4G85X124.45Y-69.7
G05
X124.45Y-74.4G85X124.45Y-74.7
G05
T4
X141.58Y-27.95G85X141.58Y-27.35
G05
X141.58Y-31.75G85X141.58Y-31.15
G05
X150.22Y-27.95G85X150.22Y-27.35
G05
X150.22Y-31.75G85X150.22Y-31.15
G05
M30
