%TF.GenerationSoftware,KiCad,Pcbnew,9.0.6*%
%TF.CreationDate,2026-05-04T22:58:46-07:00*%
%TF.ProjectId,Tilt_Table_PCB_Rev2,54696c74-5f54-4616-926c-655f5043425f,rev?*%
%TF.SameCoordinates,Original*%
%TF.FileFunction,Copper,L2,Inr*%
%TF.FilePolarity,Positive*%
%FSLAX46Y46*%
G04 Gerber Fmt 4.6, Leading zero omitted, Abs format (unit mm)*
G04 Created by KiCad (PCBNEW 9.0.6) date 2026-05-04 22:58:46*
%MOMM*%
%LPD*%
G01*
G04 APERTURE LIST*
%TA.AperFunction,ComponentPad*%
%ADD10R,1.700000X1.700000*%
%TD*%
%TA.AperFunction,ComponentPad*%
%ADD11C,1.700000*%
%TD*%
%TA.AperFunction,ComponentPad*%
%ADD12O,1.100000X1.700000*%
%TD*%
%TA.AperFunction,HeatsinkPad*%
%ADD13O,1.550000X0.890000*%
%TD*%
%TA.AperFunction,HeatsinkPad*%
%ADD14O,0.950000X1.250000*%
%TD*%
%TA.AperFunction,ViaPad*%
%ADD15C,0.700000*%
%TD*%
G04 APERTURE END LIST*
D10*
%TO.N,+3.3V*%
%TO.C,J5*%
X139220000Y-81900000D03*
D11*
%TO.N,GND*%
X141760000Y-81900000D03*
%TO.N,/MCU/PB3{slash}4{slash}5{slash}6*%
X144300000Y-81900000D03*
%TO.N,/MCU/PA8*%
X146840000Y-81900000D03*
%TO.N,/MCU/PA7*%
X149380000Y-81900000D03*
%TO.N,/MCU/PC15*%
X151920000Y-81900000D03*
%TO.N,/MCU/UART_RX*%
X154460000Y-81900000D03*
%TO.N,/MCU/UART_TX*%
X157000000Y-81900000D03*
%TD*%
D10*
%TO.N,+3.3V*%
%TO.C,J6*%
X156860000Y-73912500D03*
D11*
%TO.N,/MCU/SWCLK*%
X159400000Y-73912500D03*
%TO.N,unconnected-(J6-Pin_3-Pad3)*%
X161940000Y-73912500D03*
%TD*%
D12*
%TO.N,GND*%
%TO.C,J1*%
X150220000Y-27650000D03*
X141580000Y-27650000D03*
X150220000Y-31450000D03*
X141580000Y-31450000D03*
%TD*%
D10*
%TO.N,/MCU/Tilt_Xri*%
%TO.C,J11*%
X154570000Y-56350000D03*
D11*
%TO.N,/MCU/Tilt_Xle*%
X157110000Y-56350000D03*
%TO.N,/MCU/Tilt_Ydown*%
X159650000Y-56350000D03*
%TO.N,/MCU/Tilt_Yup*%
X162190000Y-56350000D03*
%TD*%
D10*
%TO.N,/MCU/SERVO_X*%
%TO.C,J10*%
X129340000Y-62750000D03*
D11*
%TO.N,+6V*%
X126800000Y-62750000D03*
%TO.N,GND*%
X124260000Y-62750000D03*
%TD*%
D13*
%TO.N,unconnected-(J8-Shield-Pad6)_2*%
%TO.C,J8*%
X121750000Y-68550000D03*
D14*
%TO.N,unconnected-(J8-Shield-Pad6)_1*%
X124450000Y-69550000D03*
%TO.N,unconnected-(J8-Shield-Pad6)_4*%
X124450000Y-74550000D03*
D13*
%TO.N,unconnected-(J8-Shield-Pad6)*%
X121750000Y-75550000D03*
%TD*%
D10*
%TO.N,/MCU/NRST*%
%TO.C,J12*%
X130600000Y-81240000D03*
D11*
%TO.N,/MCU/SWCLK*%
X130600000Y-78700000D03*
%TO.N,/MCU/SWDIO*%
X130600000Y-76160000D03*
%TD*%
D10*
%TO.N,VBUS_OUT*%
%TO.C,J3*%
X124600000Y-35700000D03*
D11*
%TO.N,GND*%
X124600000Y-38240000D03*
%TD*%
D10*
%TO.N,/MCU/SERVO_Y*%
%TO.C,J9*%
X140640000Y-62850000D03*
D11*
%TO.N,+6V*%
X138100000Y-62850000D03*
%TO.N,GND*%
X135560000Y-62850000D03*
%TD*%
D10*
%TO.N,Net-(J4-Pin_1)*%
%TO.C,J4*%
X156400000Y-48625000D03*
D11*
%TO.N,SERVO_EN*%
X156400000Y-51165000D03*
%TD*%
D10*
%TO.N,PDC_3.3V*%
%TO.C,J2*%
X163400000Y-49990000D03*
D11*
%TO.N,GND*%
X163400000Y-47450000D03*
%TO.N,/Power/SWD_IO_INT*%
X163400000Y-44910000D03*
%TO.N,/Power/SWD_CLK*%
X163400000Y-42370000D03*
%TO.N,/Power/FLIP*%
X163400000Y-39830000D03*
%TO.N,/Power/HPI_SDA*%
X163400000Y-37290000D03*
%TO.N,/Power/HPI_SCL*%
X163400000Y-34750000D03*
%TD*%
D15*
%TO.N,GND*%
X154950000Y-27250000D03*
X162340000Y-63300000D03*
X127100000Y-40900000D03*
X146861808Y-39921170D03*
X125700000Y-73400000D03*
X143350000Y-26400000D03*
X144300000Y-71700000D03*
X124800000Y-40900000D03*
X143000000Y-46300000D03*
X143000000Y-47300000D03*
X143000000Y-48900000D03*
X141800000Y-48900000D03*
X148400000Y-27650000D03*
X143350000Y-38600000D03*
X136400000Y-69800000D03*
X138200000Y-48800000D03*
X144000000Y-55000000D03*
X138450000Y-38250000D03*
X141800000Y-47300000D03*
X141800000Y-46300000D03*
X142050000Y-38250000D03*
X148500000Y-51800000D03*
X146861808Y-41321170D03*
X129300000Y-67100000D03*
X153400000Y-37500000D03*
X157340000Y-63300000D03*
X143060085Y-40498686D03*
X150125000Y-29875000D03*
X153200000Y-41000000D03*
X148400000Y-26400000D03*
X161000000Y-77800000D03*
X153300000Y-48700000D03*
X144000000Y-56700000D03*
X141875000Y-29875000D03*
X147400000Y-71200000D03*
X143000000Y-56700000D03*
X147500000Y-51800000D03*
X153300000Y-45200000D03*
X148875000Y-29875000D03*
X148600000Y-45200000D03*
X143300000Y-43650003D03*
X141800000Y-49900000D03*
X145400000Y-41350000D03*
X123300000Y-73400000D03*
X136800000Y-50700000D03*
X153800000Y-70425000D03*
X145400000Y-39950000D03*
X140250000Y-38250000D03*
X128100000Y-39500000D03*
X133900000Y-43500000D03*
X136200000Y-52900000D03*
X143000000Y-55000000D03*
X157400000Y-40900000D03*
X143350000Y-27650000D03*
X143000000Y-49900000D03*
X143125000Y-29875000D03*
X151800000Y-30300000D03*
X149300000Y-61075000D03*
X155200000Y-45100000D03*
%TO.N,VBUS_IN*%
X147325000Y-29975000D03*
X131100000Y-33100000D03*
X146325000Y-29975000D03*
X144450000Y-29975000D03*
X144380000Y-33100000D03*
X131100000Y-34300000D03*
X131600000Y-32100000D03*
X132100000Y-28500000D03*
X145450000Y-29975000D03*
X147400000Y-32900000D03*
X132000000Y-30600000D03*
X132800000Y-32100000D03*
%TO.N,/Power/PDC_VCCD*%
X143300000Y-42750000D03*
%TO.N,PDC_3.3V*%
X158200000Y-37300000D03*
X153400000Y-39300000D03*
X158200000Y-39800000D03*
X158300000Y-44400000D03*
X158200000Y-34700000D03*
X153400000Y-35800000D03*
X143000000Y-41500000D03*
X153300000Y-47000000D03*
X153400000Y-44000000D03*
%TO.N,+6V*%
X130300000Y-45200000D03*
%TO.N,/MCU/NRST*%
X143300000Y-71100000D03*
X132800000Y-80900000D03*
%TO.N,+3.3V*%
X135000000Y-67225000D03*
X147300000Y-61075000D03*
X136450000Y-67925000D03*
X132950000Y-67225000D03*
X143900000Y-73100000D03*
%TO.N,/Power/USB_CC2*%
X145700000Y-33100000D03*
X147075000Y-34150000D03*
%TO.N,/Power/SWD_IO_INT*%
X153600000Y-43100000D03*
%TO.N,/Power/HPI_SDA*%
X148500000Y-37700000D03*
%TO.N,/Power/HPI_SCL*%
X147600000Y-36500000D03*
%TO.N,/Power/SWD_CLK*%
X157900000Y-42900000D03*
X150000000Y-42300000D03*
%TO.N,/Power/FLIP*%
X153900000Y-38400000D03*
%TO.N,/MCU/SWCLK*%
X141500000Y-73400000D03*
%TO.N,/MCU/Tilt_Xle*%
X147200000Y-67900000D03*
%TO.N,/MCU/Tilt_Yup*%
X144400000Y-70200000D03*
%TO.N,/MCU/Tilt_Ydown*%
X147400000Y-69000000D03*
%TO.N,/Power/VBUS_FET_EN*%
X139200000Y-45100000D03*
X147100000Y-45100000D03*
%TO.N,/Power/VBUS_MAX*%
X145487757Y-43867179D03*
%TO.N,/Power/ISNK_COARSE*%
X149404986Y-44797507D03*
%TO.N,/Power/VBUS_MIN*%
X144600000Y-44400000D03*
%TO.N,/Power/ISNK_FINE*%
X149500000Y-43800000D03*
%TO.N,/MCU/SERVO_X*%
X138600000Y-68800000D03*
%TO.N,SERVO_EN*%
X141500000Y-69100000D03*
%TO.N,/MCU/Tilt_Xri*%
X145800000Y-67000000D03*
%TO.N,/Power Conversion/COMP*%
X138100000Y-47600000D03*
%TO.N,VBUS_OUT*%
X149125000Y-39560367D03*
X146600000Y-48100000D03*
X146600000Y-48900000D03*
X147400000Y-47500000D03*
X148400000Y-47500000D03*
X133300000Y-38300000D03*
%TO.N,/Power Conversion/PH*%
X139800000Y-51400000D03*
%TO.N,/Power Conversion/BOOT*%
X144900000Y-51500000D03*
%TO.N,/Power Conversion/VSENSE*%
X137700000Y-46200000D03*
%TO.N,Net-(J4-Pin_1)*%
X146375000Y-46920000D03*
X149400000Y-47600000D03*
%TD*%
%TA.AperFunction,Conductor*%
%TO.N,GND*%
G36*
X163103032Y-25250648D02*
G01*
X163461433Y-25268256D01*
X163473541Y-25269448D01*
X163825475Y-25321653D01*
X163837389Y-25324023D01*
X164182520Y-25410473D01*
X164194147Y-25414000D01*
X164529151Y-25533867D01*
X164540363Y-25538511D01*
X164862012Y-25690639D01*
X164872720Y-25696363D01*
X165177881Y-25879270D01*
X165187999Y-25886030D01*
X165473769Y-26097971D01*
X165483175Y-26105691D01*
X165746790Y-26344618D01*
X165755381Y-26353209D01*
X165919612Y-26534410D01*
X165994308Y-26616824D01*
X166002028Y-26626230D01*
X166213969Y-26912000D01*
X166220729Y-26922118D01*
X166226149Y-26931161D01*
X166333305Y-27109940D01*
X166403629Y-27227267D01*
X166409364Y-27237995D01*
X166441404Y-27305739D01*
X166561485Y-27559629D01*
X166566136Y-27570858D01*
X166683905Y-27900000D01*
X166685994Y-27905837D01*
X166689526Y-27917481D01*
X166775973Y-28262597D01*
X166778347Y-28274532D01*
X166830550Y-28626457D01*
X166831743Y-28638567D01*
X166849351Y-28996966D01*
X166849500Y-29003051D01*
X166849500Y-80996948D01*
X166849351Y-81003033D01*
X166831743Y-81361432D01*
X166830550Y-81373542D01*
X166778347Y-81725467D01*
X166775973Y-81737402D01*
X166689526Y-82082518D01*
X166685994Y-82094162D01*
X166652513Y-82187735D01*
X166568429Y-82422736D01*
X166566142Y-82429127D01*
X166561485Y-82440370D01*
X166409366Y-82762000D01*
X166403629Y-82772732D01*
X166220729Y-83077881D01*
X166213969Y-83087999D01*
X166002028Y-83373769D01*
X165994308Y-83383175D01*
X165755388Y-83646783D01*
X165746783Y-83655388D01*
X165483175Y-83894308D01*
X165473769Y-83902028D01*
X165187999Y-84113969D01*
X165177881Y-84120729D01*
X164872732Y-84303629D01*
X164862000Y-84309366D01*
X164540370Y-84461485D01*
X164529134Y-84466139D01*
X164405442Y-84510397D01*
X164194162Y-84585994D01*
X164182518Y-84589526D01*
X163837402Y-84675973D01*
X163825467Y-84678347D01*
X163473542Y-84730550D01*
X163461432Y-84731743D01*
X163123927Y-84748324D01*
X163103031Y-84749351D01*
X163096949Y-84749500D01*
X124103051Y-84749500D01*
X124096968Y-84749351D01*
X124074856Y-84748264D01*
X123738567Y-84731743D01*
X123726457Y-84730550D01*
X123374532Y-84678347D01*
X123362597Y-84675973D01*
X123017481Y-84589526D01*
X123005837Y-84585994D01*
X122670858Y-84466136D01*
X122659629Y-84461485D01*
X122337999Y-84309366D01*
X122327272Y-84303631D01*
X122022118Y-84120729D01*
X122012000Y-84113969D01*
X121726230Y-83902028D01*
X121716824Y-83894308D01*
X121522650Y-83718319D01*
X121453209Y-83655381D01*
X121444618Y-83646790D01*
X121205691Y-83383175D01*
X121197971Y-83373769D01*
X121032825Y-83151095D01*
X120986028Y-83087996D01*
X120979270Y-83077881D01*
X120973850Y-83068838D01*
X120796363Y-82772720D01*
X120790639Y-82762012D01*
X120638511Y-82440363D01*
X120633867Y-82429151D01*
X120514000Y-82094147D01*
X120510473Y-82082518D01*
X120494866Y-82020212D01*
X120424023Y-81737389D01*
X120421652Y-81725467D01*
X120409315Y-81642299D01*
X120369448Y-81373541D01*
X120368256Y-81361432D01*
X120354367Y-81078711D01*
X121999500Y-81078711D01*
X121999500Y-81321288D01*
X122031161Y-81561785D01*
X122093947Y-81796104D01*
X122172858Y-81986611D01*
X122186776Y-82020212D01*
X122308064Y-82230289D01*
X122308066Y-82230292D01*
X122308067Y-82230293D01*
X122455733Y-82422736D01*
X122455739Y-82422743D01*
X122627256Y-82594260D01*
X122627263Y-82594266D01*
X122692417Y-82644260D01*
X122819711Y-82741936D01*
X123029788Y-82863224D01*
X123253900Y-82956054D01*
X123488211Y-83018838D01*
X123668586Y-83042584D01*
X123728711Y-83050500D01*
X123728712Y-83050500D01*
X123971289Y-83050500D01*
X124019388Y-83044167D01*
X124211789Y-83018838D01*
X124446100Y-82956054D01*
X124670212Y-82863224D01*
X124880289Y-82741936D01*
X125072738Y-82594265D01*
X125244265Y-82422738D01*
X125391936Y-82230289D01*
X125513224Y-82020212D01*
X125606054Y-81796100D01*
X125668838Y-81561789D01*
X125700500Y-81321288D01*
X125700500Y-81078712D01*
X125668838Y-80838211D01*
X125606054Y-80603900D01*
X125513226Y-80379794D01*
X125513226Y-80379793D01*
X125513224Y-80379788D01*
X125504871Y-80365321D01*
X129499500Y-80365321D01*
X129499500Y-82114678D01*
X129514032Y-82187735D01*
X129514033Y-82187739D01*
X129532405Y-82215235D01*
X129569399Y-82270601D01*
X129646990Y-82322445D01*
X129652260Y-82325966D01*
X129652264Y-82325967D01*
X129725321Y-82340499D01*
X129725324Y-82340500D01*
X129725326Y-82340500D01*
X131474676Y-82340500D01*
X131474677Y-82340499D01*
X131547740Y-82325966D01*
X131630601Y-82270601D01*
X131685966Y-82187740D01*
X131700500Y-82114674D01*
X131700500Y-80820943D01*
X132199500Y-80820943D01*
X132199500Y-80979057D01*
X132226746Y-81080738D01*
X132240423Y-81131783D01*
X132240426Y-81131790D01*
X132319475Y-81268709D01*
X132319479Y-81268714D01*
X132319480Y-81268716D01*
X132431284Y-81380520D01*
X132431286Y-81380521D01*
X132431290Y-81380524D01*
X132568209Y-81459573D01*
X132568216Y-81459577D01*
X132720943Y-81500500D01*
X132720945Y-81500500D01*
X132879055Y-81500500D01*
X132879057Y-81500500D01*
X133031784Y-81459577D01*
X133168716Y-81380520D01*
X133280520Y-81268716D01*
X133359577Y-81131784D01*
X133388104Y-81025321D01*
X138119500Y-81025321D01*
X138119500Y-82774678D01*
X138134032Y-82847735D01*
X138134033Y-82847739D01*
X138144380Y-82863224D01*
X138189399Y-82930601D01*
X138272260Y-82985966D01*
X138272264Y-82985967D01*
X138345321Y-83000499D01*
X138345324Y-83000500D01*
X138345326Y-83000500D01*
X140094676Y-83000500D01*
X140094677Y-83000499D01*
X140167740Y-82985966D01*
X140250601Y-82930601D01*
X140305966Y-82847740D01*
X140320500Y-82774674D01*
X140320500Y-82564949D01*
X140340185Y-82497910D01*
X140392989Y-82452155D01*
X140462147Y-82442211D01*
X140525703Y-82471236D01*
X140554985Y-82508654D01*
X140605375Y-82607550D01*
X140644728Y-82661716D01*
X141277037Y-82029408D01*
X141294075Y-82092993D01*
X141359901Y-82207007D01*
X141452993Y-82300099D01*
X141567007Y-82365925D01*
X141630590Y-82382962D01*
X140998282Y-83015269D01*
X140998282Y-83015270D01*
X141052449Y-83054624D01*
X141241782Y-83151095D01*
X141443870Y-83216757D01*
X141653754Y-83250000D01*
X141866246Y-83250000D01*
X142076127Y-83216757D01*
X142076130Y-83216757D01*
X142278217Y-83151095D01*
X142467554Y-83054622D01*
X142521716Y-83015270D01*
X142521717Y-83015270D01*
X141889408Y-82382962D01*
X141952993Y-82365925D01*
X142067007Y-82300099D01*
X142160099Y-82207007D01*
X142225925Y-82092993D01*
X142242962Y-82029408D01*
X142875270Y-82661717D01*
X142875270Y-82661716D01*
X142914622Y-82607554D01*
X143011096Y-82418215D01*
X143043239Y-82319288D01*
X143082676Y-82261612D01*
X143147034Y-82234413D01*
X143215880Y-82246327D01*
X143267357Y-82293571D01*
X143279100Y-82319284D01*
X143280127Y-82322446D01*
X143289326Y-82340500D01*
X143358768Y-82476788D01*
X143460586Y-82616928D01*
X143583072Y-82739414D01*
X143723212Y-82841232D01*
X143877555Y-82919873D01*
X144042299Y-82973402D01*
X144213389Y-83000500D01*
X144213390Y-83000500D01*
X144386610Y-83000500D01*
X144386611Y-83000500D01*
X144557701Y-82973402D01*
X144722445Y-82919873D01*
X144876788Y-82841232D01*
X145016928Y-82739414D01*
X145139414Y-82616928D01*
X145241232Y-82476788D01*
X145319873Y-82322445D01*
X145373402Y-82157701D01*
X145400500Y-81986611D01*
X145400500Y-81813389D01*
X145739500Y-81813389D01*
X145739500Y-81986610D01*
X145759783Y-82114676D01*
X145766598Y-82157701D01*
X145820127Y-82322445D01*
X145898768Y-82476788D01*
X146000586Y-82616928D01*
X146123072Y-82739414D01*
X146263212Y-82841232D01*
X146417555Y-82919873D01*
X146582299Y-82973402D01*
X146753389Y-83000500D01*
X146753390Y-83000500D01*
X146926610Y-83000500D01*
X146926611Y-83000500D01*
X147097701Y-82973402D01*
X147262445Y-82919873D01*
X147416788Y-82841232D01*
X147556928Y-82739414D01*
X147679414Y-82616928D01*
X147781232Y-82476788D01*
X147859873Y-82322445D01*
X147913402Y-82157701D01*
X147940500Y-81986611D01*
X147940500Y-81813389D01*
X148279500Y-81813389D01*
X148279500Y-81986610D01*
X148299783Y-82114676D01*
X148306598Y-82157701D01*
X148360127Y-82322445D01*
X148438768Y-82476788D01*
X148540586Y-82616928D01*
X148663072Y-82739414D01*
X148803212Y-82841232D01*
X148957555Y-82919873D01*
X149122299Y-82973402D01*
X149293389Y-83000500D01*
X149293390Y-83000500D01*
X149466610Y-83000500D01*
X149466611Y-83000500D01*
X149637701Y-82973402D01*
X149802445Y-82919873D01*
X149956788Y-82841232D01*
X150096928Y-82739414D01*
X150219414Y-82616928D01*
X150321232Y-82476788D01*
X150399873Y-82322445D01*
X150453402Y-82157701D01*
X150480500Y-81986611D01*
X150480500Y-81813389D01*
X150819500Y-81813389D01*
X150819500Y-81986610D01*
X150839783Y-82114676D01*
X150846598Y-82157701D01*
X150900127Y-82322445D01*
X150978768Y-82476788D01*
X151080586Y-82616928D01*
X151203072Y-82739414D01*
X151343212Y-82841232D01*
X151497555Y-82919873D01*
X151662299Y-82973402D01*
X151833389Y-83000500D01*
X151833390Y-83000500D01*
X152006610Y-83000500D01*
X152006611Y-83000500D01*
X152177701Y-82973402D01*
X152342445Y-82919873D01*
X152496788Y-82841232D01*
X152636928Y-82739414D01*
X152759414Y-82616928D01*
X152861232Y-82476788D01*
X152939873Y-82322445D01*
X152993402Y-82157701D01*
X153020500Y-81986611D01*
X153020500Y-81813389D01*
X153359500Y-81813389D01*
X153359500Y-81986610D01*
X153379783Y-82114676D01*
X153386598Y-82157701D01*
X153440127Y-82322445D01*
X153518768Y-82476788D01*
X153620586Y-82616928D01*
X153743072Y-82739414D01*
X153883212Y-82841232D01*
X154037555Y-82919873D01*
X154202299Y-82973402D01*
X154373389Y-83000500D01*
X154373390Y-83000500D01*
X154546610Y-83000500D01*
X154546611Y-83000500D01*
X154717701Y-82973402D01*
X154882445Y-82919873D01*
X155036788Y-82841232D01*
X155176928Y-82739414D01*
X155299414Y-82616928D01*
X155401232Y-82476788D01*
X155479873Y-82322445D01*
X155533402Y-82157701D01*
X155560500Y-81986611D01*
X155560500Y-81813389D01*
X155899500Y-81813389D01*
X155899500Y-81986610D01*
X155919783Y-82114676D01*
X155926598Y-82157701D01*
X155980127Y-82322445D01*
X156058768Y-82476788D01*
X156160586Y-82616928D01*
X156283072Y-82739414D01*
X156423212Y-82841232D01*
X156577555Y-82919873D01*
X156742299Y-82973402D01*
X156913389Y-83000500D01*
X156913390Y-83000500D01*
X157086610Y-83000500D01*
X157086611Y-83000500D01*
X157257701Y-82973402D01*
X157422445Y-82919873D01*
X157576788Y-82841232D01*
X157716928Y-82739414D01*
X157839414Y-82616928D01*
X157941232Y-82476788D01*
X158019873Y-82322445D01*
X158073402Y-82157701D01*
X158100500Y-81986611D01*
X158100500Y-81813389D01*
X158073402Y-81642299D01*
X158019873Y-81477555D01*
X157941232Y-81323212D01*
X157839414Y-81183072D01*
X157785053Y-81128711D01*
X161499500Y-81128711D01*
X161499500Y-81371288D01*
X161531161Y-81611785D01*
X161593947Y-81846104D01*
X161686773Y-82070205D01*
X161686777Y-82070214D01*
X161708974Y-82108661D01*
X161808064Y-82280289D01*
X161808066Y-82280292D01*
X161808067Y-82280293D01*
X161955733Y-82472736D01*
X161955739Y-82472743D01*
X162127256Y-82644260D01*
X162127263Y-82644266D01*
X162150006Y-82661717D01*
X162319711Y-82791936D01*
X162529788Y-82913224D01*
X162753900Y-83006054D01*
X162988211Y-83068838D01*
X163133756Y-83087999D01*
X163228711Y-83100500D01*
X163228712Y-83100500D01*
X163471289Y-83100500D01*
X163519388Y-83094167D01*
X163711789Y-83068838D01*
X163946100Y-83006054D01*
X164170212Y-82913224D01*
X164380289Y-82791936D01*
X164572738Y-82644265D01*
X164744265Y-82472738D01*
X164891936Y-82280289D01*
X165013224Y-82070212D01*
X165106054Y-81846100D01*
X165168838Y-81611789D01*
X165200500Y-81371288D01*
X165200500Y-81128712D01*
X165193917Y-81078712D01*
X165186889Y-81025323D01*
X165168838Y-80888211D01*
X165106054Y-80653900D01*
X165013224Y-80429788D01*
X164891936Y-80219711D01*
X164744265Y-80027262D01*
X164744260Y-80027256D01*
X164572743Y-79855739D01*
X164572736Y-79855733D01*
X164380293Y-79708067D01*
X164380292Y-79708066D01*
X164380289Y-79708064D01*
X164170212Y-79586776D01*
X164170205Y-79586773D01*
X163946104Y-79493947D01*
X163711785Y-79431161D01*
X163471289Y-79399500D01*
X163471288Y-79399500D01*
X163228712Y-79399500D01*
X163228711Y-79399500D01*
X162988214Y-79431161D01*
X162753895Y-79493947D01*
X162529794Y-79586773D01*
X162529785Y-79586777D01*
X162319706Y-79708067D01*
X162127263Y-79855733D01*
X162127256Y-79855739D01*
X161955739Y-80027256D01*
X161955733Y-80027263D01*
X161808067Y-80219706D01*
X161686777Y-80429785D01*
X161686773Y-80429794D01*
X161593947Y-80653895D01*
X161531161Y-80888214D01*
X161499500Y-81128711D01*
X157785053Y-81128711D01*
X157716928Y-81060586D01*
X157576788Y-80958768D01*
X157422445Y-80880127D01*
X157257701Y-80826598D01*
X157257699Y-80826597D01*
X157257698Y-80826597D01*
X157126271Y-80805781D01*
X157086611Y-80799500D01*
X156913389Y-80799500D01*
X156873728Y-80805781D01*
X156742302Y-80826597D01*
X156577552Y-80880128D01*
X156423211Y-80958768D01*
X156343256Y-81016859D01*
X156283072Y-81060586D01*
X156283070Y-81060588D01*
X156283069Y-81060588D01*
X156160588Y-81183069D01*
X156160588Y-81183070D01*
X156160586Y-81183072D01*
X156150076Y-81197538D01*
X156058768Y-81323211D01*
X155980128Y-81477552D01*
X155926597Y-81642302D01*
X155899500Y-81813389D01*
X155560500Y-81813389D01*
X155533402Y-81642299D01*
X155479873Y-81477555D01*
X155401232Y-81323212D01*
X155299414Y-81183072D01*
X155176928Y-81060586D01*
X155036788Y-80958768D01*
X154882445Y-80880127D01*
X154717701Y-80826598D01*
X154717699Y-80826597D01*
X154717698Y-80826597D01*
X154586271Y-80805781D01*
X154546611Y-80799500D01*
X154373389Y-80799500D01*
X154333728Y-80805781D01*
X154202302Y-80826597D01*
X154037552Y-80880128D01*
X153883211Y-80958768D01*
X153803256Y-81016859D01*
X153743072Y-81060586D01*
X153743070Y-81060588D01*
X153743069Y-81060588D01*
X153620588Y-81183069D01*
X153620588Y-81183070D01*
X153620586Y-81183072D01*
X153610076Y-81197538D01*
X153518768Y-81323211D01*
X153440128Y-81477552D01*
X153386597Y-81642302D01*
X153359500Y-81813389D01*
X153020500Y-81813389D01*
X152993402Y-81642299D01*
X152939873Y-81477555D01*
X152861232Y-81323212D01*
X152759414Y-81183072D01*
X152636928Y-81060586D01*
X152496788Y-80958768D01*
X152342445Y-80880127D01*
X152177701Y-80826598D01*
X152177699Y-80826597D01*
X152177698Y-80826597D01*
X152046271Y-80805781D01*
X152006611Y-80799500D01*
X151833389Y-80799500D01*
X151793728Y-80805781D01*
X151662302Y-80826597D01*
X151497552Y-80880128D01*
X151343211Y-80958768D01*
X151263256Y-81016859D01*
X151203072Y-81060586D01*
X151203070Y-81060588D01*
X151203069Y-81060588D01*
X151080588Y-81183069D01*
X151080588Y-81183070D01*
X151080586Y-81183072D01*
X151070076Y-81197538D01*
X150978768Y-81323211D01*
X150900128Y-81477552D01*
X150846597Y-81642302D01*
X150819500Y-81813389D01*
X150480500Y-81813389D01*
X150453402Y-81642299D01*
X150399873Y-81477555D01*
X150321232Y-81323212D01*
X150219414Y-81183072D01*
X150096928Y-81060586D01*
X149956788Y-80958768D01*
X149802445Y-80880127D01*
X149637701Y-80826598D01*
X149637699Y-80826597D01*
X149637698Y-80826597D01*
X149506271Y-80805781D01*
X149466611Y-80799500D01*
X149293389Y-80799500D01*
X149253728Y-80805781D01*
X149122302Y-80826597D01*
X148957552Y-80880128D01*
X148803211Y-80958768D01*
X148723256Y-81016859D01*
X148663072Y-81060586D01*
X148663070Y-81060588D01*
X148663069Y-81060588D01*
X148540588Y-81183069D01*
X148540588Y-81183070D01*
X148540586Y-81183072D01*
X148530076Y-81197538D01*
X148438768Y-81323211D01*
X148360128Y-81477552D01*
X148306597Y-81642302D01*
X148279500Y-81813389D01*
X147940500Y-81813389D01*
X147913402Y-81642299D01*
X147859873Y-81477555D01*
X147781232Y-81323212D01*
X147679414Y-81183072D01*
X147556928Y-81060586D01*
X147416788Y-80958768D01*
X147262445Y-80880127D01*
X147097701Y-80826598D01*
X147097699Y-80826597D01*
X147097698Y-80826597D01*
X146966271Y-80805781D01*
X146926611Y-80799500D01*
X146753389Y-80799500D01*
X146713728Y-80805781D01*
X146582302Y-80826597D01*
X146417552Y-80880128D01*
X146263211Y-80958768D01*
X146183256Y-81016859D01*
X146123072Y-81060586D01*
X146123070Y-81060588D01*
X146123069Y-81060588D01*
X146000588Y-81183069D01*
X146000588Y-81183070D01*
X146000586Y-81183072D01*
X145990076Y-81197538D01*
X145898768Y-81323211D01*
X145820128Y-81477552D01*
X145766597Y-81642302D01*
X145739500Y-81813389D01*
X145400500Y-81813389D01*
X145373402Y-81642299D01*
X145319873Y-81477555D01*
X145241232Y-81323212D01*
X145139414Y-81183072D01*
X145016928Y-81060586D01*
X144876788Y-80958768D01*
X144722445Y-80880127D01*
X144557701Y-80826598D01*
X144557699Y-80826597D01*
X144557698Y-80826597D01*
X144426271Y-80805781D01*
X144386611Y-80799500D01*
X144213389Y-80799500D01*
X144173728Y-80805781D01*
X144042302Y-80826597D01*
X143877552Y-80880128D01*
X143723211Y-80958768D01*
X143643256Y-81016859D01*
X143583072Y-81060586D01*
X143583070Y-81060588D01*
X143583069Y-81060588D01*
X143460588Y-81183069D01*
X143460588Y-81183070D01*
X143460586Y-81183072D01*
X143450076Y-81197538D01*
X143358768Y-81323211D01*
X143280128Y-81477550D01*
X143279099Y-81480720D01*
X143278381Y-81481769D01*
X143278266Y-81482048D01*
X143278207Y-81482023D01*
X143239657Y-81538393D01*
X143175297Y-81565587D01*
X143106451Y-81553668D01*
X143054979Y-81506420D01*
X143043239Y-81480711D01*
X143011096Y-81381784D01*
X142914624Y-81192449D01*
X142875270Y-81138282D01*
X142875269Y-81138282D01*
X142242962Y-81770590D01*
X142225925Y-81707007D01*
X142160099Y-81592993D01*
X142067007Y-81499901D01*
X141952993Y-81434075D01*
X141889409Y-81417037D01*
X142521716Y-80784728D01*
X142467550Y-80745375D01*
X142278217Y-80648904D01*
X142076129Y-80583242D01*
X141866246Y-80550000D01*
X141653754Y-80550000D01*
X141443872Y-80583242D01*
X141443869Y-80583242D01*
X141241782Y-80648904D01*
X141052439Y-80745380D01*
X140998282Y-80784727D01*
X140998282Y-80784728D01*
X141630591Y-81417037D01*
X141567007Y-81434075D01*
X141452993Y-81499901D01*
X141359901Y-81592993D01*
X141294075Y-81707007D01*
X141277037Y-81770591D01*
X140644728Y-81138282D01*
X140644727Y-81138282D01*
X140605380Y-81192440D01*
X140605378Y-81192443D01*
X140554984Y-81291346D01*
X140507010Y-81342141D01*
X140439188Y-81358936D01*
X140373054Y-81336398D01*
X140329603Y-81281683D01*
X140320500Y-81235050D01*
X140320500Y-81025323D01*
X140320499Y-81025321D01*
X140305967Y-80952264D01*
X140305966Y-80952260D01*
X140250601Y-80869399D01*
X140186542Y-80826597D01*
X140167739Y-80814033D01*
X140167735Y-80814032D01*
X140094677Y-80799500D01*
X140094674Y-80799500D01*
X138345326Y-80799500D01*
X138345323Y-80799500D01*
X138272264Y-80814032D01*
X138272260Y-80814033D01*
X138189399Y-80869399D01*
X138134033Y-80952260D01*
X138134032Y-80952264D01*
X138119500Y-81025321D01*
X133388104Y-81025321D01*
X133400500Y-80979057D01*
X133400500Y-80820943D01*
X133359577Y-80668216D01*
X133348427Y-80648904D01*
X133280524Y-80531290D01*
X133280518Y-80531282D01*
X133168717Y-80419481D01*
X133168709Y-80419475D01*
X133031790Y-80340426D01*
X133031786Y-80340424D01*
X133031784Y-80340423D01*
X132879057Y-80299500D01*
X132720943Y-80299500D01*
X132568216Y-80340423D01*
X132568209Y-80340426D01*
X132431290Y-80419475D01*
X132431282Y-80419481D01*
X132319481Y-80531282D01*
X132319475Y-80531290D01*
X132240426Y-80668209D01*
X132240423Y-80668216D01*
X132199500Y-80820943D01*
X131700500Y-80820943D01*
X131700500Y-80365326D01*
X131700500Y-80365323D01*
X131700499Y-80365321D01*
X131685967Y-80292264D01*
X131685966Y-80292260D01*
X131630601Y-80209399D01*
X131547740Y-80154034D01*
X131547739Y-80154033D01*
X131547735Y-80154032D01*
X131474677Y-80139500D01*
X131474674Y-80139500D01*
X129725326Y-80139500D01*
X129725323Y-80139500D01*
X129652264Y-80154032D01*
X129652260Y-80154033D01*
X129569399Y-80209399D01*
X129514033Y-80292260D01*
X129514032Y-80292264D01*
X129499500Y-80365321D01*
X125504871Y-80365321D01*
X125391936Y-80169711D01*
X125244265Y-79977262D01*
X125244260Y-79977256D01*
X125072743Y-79805739D01*
X125072736Y-79805733D01*
X124880293Y-79658067D01*
X124880292Y-79658066D01*
X124880289Y-79658064D01*
X124670212Y-79536776D01*
X124670205Y-79536773D01*
X124446104Y-79443947D01*
X124211785Y-79381161D01*
X123971289Y-79349500D01*
X123971288Y-79349500D01*
X123728712Y-79349500D01*
X123728711Y-79349500D01*
X123488214Y-79381161D01*
X123253895Y-79443947D01*
X123029794Y-79536773D01*
X123029785Y-79536777D01*
X122819706Y-79658067D01*
X122627263Y-79805733D01*
X122627256Y-79805739D01*
X122455739Y-79977256D01*
X122455733Y-79977263D01*
X122308067Y-80169706D01*
X122186777Y-80379785D01*
X122186773Y-80379794D01*
X122093947Y-80603895D01*
X122031161Y-80838214D01*
X121999500Y-81078711D01*
X120354367Y-81078711D01*
X120350649Y-81003032D01*
X120350500Y-80996948D01*
X120350500Y-78613389D01*
X129499500Y-78613389D01*
X129499500Y-78786611D01*
X129526598Y-78957701D01*
X129580127Y-79122445D01*
X129658768Y-79276788D01*
X129760586Y-79416928D01*
X129883072Y-79539414D01*
X130023212Y-79641232D01*
X130177555Y-79719873D01*
X130342299Y-79773402D01*
X130513389Y-79800500D01*
X130513390Y-79800500D01*
X130686610Y-79800500D01*
X130686611Y-79800500D01*
X130857701Y-79773402D01*
X131022445Y-79719873D01*
X131176788Y-79641232D01*
X131316928Y-79539414D01*
X131439414Y-79416928D01*
X131541232Y-79276788D01*
X131619873Y-79122445D01*
X131673402Y-78957701D01*
X131700500Y-78786611D01*
X131700500Y-78613389D01*
X131673402Y-78442299D01*
X131619873Y-78277555D01*
X131541232Y-78123212D01*
X131439414Y-77983072D01*
X131316928Y-77860586D01*
X131176788Y-77758768D01*
X131022445Y-77680127D01*
X130857701Y-77626598D01*
X130857699Y-77626597D01*
X130857698Y-77626597D01*
X130726271Y-77605781D01*
X130686611Y-77599500D01*
X130513389Y-77599500D01*
X130473728Y-77605781D01*
X130342302Y-77626597D01*
X130177552Y-77680128D01*
X130023211Y-77758768D01*
X129943256Y-77816859D01*
X129883072Y-77860586D01*
X129883070Y-77860588D01*
X129883069Y-77860588D01*
X129760588Y-77983069D01*
X129760588Y-77983070D01*
X129760586Y-77983072D01*
X129716859Y-78043256D01*
X129658768Y-78123211D01*
X129580128Y-78277552D01*
X129526597Y-78442302D01*
X129499500Y-78613389D01*
X120350500Y-78613389D01*
X120350500Y-75618503D01*
X120724499Y-75618503D01*
X120751226Y-75752864D01*
X120751229Y-75752874D01*
X120803652Y-75879436D01*
X120803659Y-75879449D01*
X120879769Y-75993354D01*
X120879772Y-75993358D01*
X120976641Y-76090227D01*
X120976645Y-76090230D01*
X121090550Y-76166340D01*
X121090563Y-76166347D01*
X121217125Y-76218770D01*
X121217130Y-76218772D01*
X121217134Y-76218772D01*
X121217135Y-76218773D01*
X121351496Y-76245500D01*
X121351499Y-76245500D01*
X122148503Y-76245500D01*
X122238898Y-76227518D01*
X122282870Y-76218772D01*
X122409443Y-76166344D01*
X122523355Y-76090230D01*
X122540196Y-76073389D01*
X129499500Y-76073389D01*
X129499500Y-76246611D01*
X129526598Y-76417701D01*
X129580127Y-76582445D01*
X129658768Y-76736788D01*
X129760586Y-76876928D01*
X129883072Y-76999414D01*
X130023212Y-77101232D01*
X130177555Y-77179873D01*
X130342299Y-77233402D01*
X130513389Y-77260500D01*
X130513390Y-77260500D01*
X130686610Y-77260500D01*
X130686611Y-77260500D01*
X130857701Y-77233402D01*
X131022445Y-77179873D01*
X131176788Y-77101232D01*
X131316928Y-76999414D01*
X131439414Y-76876928D01*
X131541232Y-76736788D01*
X131619873Y-76582445D01*
X131673402Y-76417701D01*
X131700500Y-76246611D01*
X131700500Y-76073389D01*
X131673402Y-75902299D01*
X131619873Y-75737555D01*
X131541232Y-75583212D01*
X131439414Y-75443072D01*
X131316928Y-75320586D01*
X131176788Y-75218768D01*
X131022445Y-75140127D01*
X130857701Y-75086598D01*
X130857699Y-75086597D01*
X130857698Y-75086597D01*
X130726271Y-75065781D01*
X130686611Y-75059500D01*
X130513389Y-75059500D01*
X130473728Y-75065781D01*
X130342302Y-75086597D01*
X130177552Y-75140128D01*
X130023211Y-75218768D01*
X129961604Y-75263529D01*
X129883072Y-75320586D01*
X129883070Y-75320588D01*
X129883069Y-75320588D01*
X129760588Y-75443069D01*
X129760588Y-75443070D01*
X129760586Y-75443072D01*
X129732669Y-75481496D01*
X129658768Y-75583211D01*
X129580128Y-75737552D01*
X129526597Y-75902302D01*
X129512175Y-75993361D01*
X129499500Y-76073389D01*
X122540196Y-76073389D01*
X122620230Y-75993355D01*
X122696344Y-75879443D01*
X122748772Y-75752870D01*
X122775500Y-75618501D01*
X122775500Y-75481499D01*
X122775500Y-75481496D01*
X122748773Y-75347135D01*
X122748772Y-75347134D01*
X122748772Y-75347130D01*
X122714145Y-75263532D01*
X122696347Y-75220563D01*
X122696340Y-75220550D01*
X122620230Y-75106645D01*
X122620227Y-75106641D01*
X122523358Y-75009772D01*
X122523354Y-75009769D01*
X122409449Y-74933659D01*
X122409436Y-74933652D01*
X122282874Y-74881229D01*
X122282864Y-74881226D01*
X122148503Y-74854500D01*
X122148501Y-74854500D01*
X121351499Y-74854500D01*
X121351497Y-74854500D01*
X121217135Y-74881226D01*
X121217125Y-74881229D01*
X121090563Y-74933652D01*
X121090550Y-74933659D01*
X120976645Y-75009769D01*
X120976641Y-75009772D01*
X120879772Y-75106641D01*
X120879769Y-75106645D01*
X120803659Y-75220550D01*
X120803652Y-75220563D01*
X120751229Y-75347125D01*
X120751226Y-75347135D01*
X120724500Y-75481496D01*
X120724500Y-75481499D01*
X120724500Y-75618501D01*
X120724500Y-75618503D01*
X120724499Y-75618503D01*
X120350500Y-75618503D01*
X120350500Y-74771457D01*
X123724499Y-74771457D01*
X123752379Y-74911614D01*
X123752381Y-74911620D01*
X123807069Y-75043650D01*
X123807074Y-75043659D01*
X123886467Y-75162478D01*
X123886470Y-75162482D01*
X123987517Y-75263529D01*
X123987521Y-75263532D01*
X124106340Y-75342925D01*
X124106346Y-75342928D01*
X124106347Y-75342929D01*
X124238380Y-75397619D01*
X124238384Y-75397619D01*
X124238385Y-75397620D01*
X124378542Y-75425500D01*
X124378545Y-75425500D01*
X124521457Y-75425500D01*
X124615751Y-75406742D01*
X124661620Y-75397619D01*
X124793653Y-75342929D01*
X124912479Y-75263532D01*
X125013532Y-75162479D01*
X125092929Y-75043653D01*
X125147619Y-74911620D01*
X125157839Y-74860240D01*
X125175500Y-74771457D01*
X125175500Y-74328542D01*
X125147620Y-74188385D01*
X125147619Y-74188384D01*
X125147619Y-74188380D01*
X125092929Y-74056347D01*
X125092928Y-74056346D01*
X125092925Y-74056340D01*
X125013532Y-73937521D01*
X125013529Y-73937517D01*
X124912482Y-73836470D01*
X124912478Y-73836467D01*
X124793659Y-73757074D01*
X124793650Y-73757069D01*
X124661620Y-73702381D01*
X124661614Y-73702379D01*
X124521457Y-73674500D01*
X124521455Y-73674500D01*
X124378545Y-73674500D01*
X124378543Y-73674500D01*
X124238385Y-73702379D01*
X124238379Y-73702381D01*
X124106349Y-73757069D01*
X124106340Y-73757074D01*
X123987521Y-73836467D01*
X123987517Y-73836470D01*
X123886470Y-73937517D01*
X123886467Y-73937521D01*
X123807074Y-74056340D01*
X123807069Y-74056349D01*
X123752381Y-74188379D01*
X123752379Y-74188385D01*
X123724500Y-74328542D01*
X123724500Y-74328545D01*
X123724500Y-74771455D01*
X123724500Y-74771457D01*
X123724499Y-74771457D01*
X120350500Y-74771457D01*
X120350500Y-73320943D01*
X140899500Y-73320943D01*
X140899500Y-73479057D01*
X140926687Y-73580518D01*
X140940423Y-73631783D01*
X140940426Y-73631790D01*
X141019475Y-73768709D01*
X141019479Y-73768714D01*
X141019480Y-73768716D01*
X141131284Y-73880520D01*
X141131286Y-73880521D01*
X141131290Y-73880524D01*
X141268209Y-73959573D01*
X141268216Y-73959577D01*
X141420943Y-74000500D01*
X141420945Y-74000500D01*
X141579055Y-74000500D01*
X141579057Y-74000500D01*
X141731784Y-73959577D01*
X141868716Y-73880520D01*
X141980520Y-73768716D01*
X142059577Y-73631784D01*
X142100500Y-73479057D01*
X142100500Y-73320943D01*
X142059577Y-73168216D01*
X141980520Y-73031284D01*
X141970179Y-73020943D01*
X143299500Y-73020943D01*
X143299500Y-73179057D01*
X143303925Y-73195569D01*
X143340423Y-73331783D01*
X143340426Y-73331790D01*
X143419475Y-73468709D01*
X143419479Y-73468714D01*
X143419480Y-73468716D01*
X143531284Y-73580520D01*
X143531286Y-73580521D01*
X143531290Y-73580524D01*
X143620087Y-73631790D01*
X143668216Y-73659577D01*
X143820943Y-73700500D01*
X143820945Y-73700500D01*
X143979055Y-73700500D01*
X143979057Y-73700500D01*
X144131784Y-73659577D01*
X144268716Y-73580520D01*
X144380520Y-73468716D01*
X144459577Y-73331784D01*
X144500500Y-73179057D01*
X144500500Y-73037821D01*
X155759500Y-73037821D01*
X155759500Y-74787178D01*
X155774032Y-74860235D01*
X155774033Y-74860239D01*
X155774034Y-74860240D01*
X155829399Y-74943101D01*
X155912260Y-74998466D01*
X155912264Y-74998467D01*
X155985321Y-75012999D01*
X155985324Y-75013000D01*
X155985326Y-75013000D01*
X157734676Y-75013000D01*
X157734677Y-75012999D01*
X157807740Y-74998466D01*
X157890601Y-74943101D01*
X157945966Y-74860240D01*
X157960500Y-74787174D01*
X157960500Y-73825889D01*
X158299500Y-73825889D01*
X158299500Y-73999111D01*
X158326598Y-74170201D01*
X158380127Y-74334945D01*
X158458768Y-74489288D01*
X158560586Y-74629428D01*
X158683072Y-74751914D01*
X158823212Y-74853732D01*
X158977555Y-74932373D01*
X159142299Y-74985902D01*
X159313389Y-75013000D01*
X159313390Y-75013000D01*
X159486610Y-75013000D01*
X159486611Y-75013000D01*
X159657701Y-74985902D01*
X159822445Y-74932373D01*
X159976788Y-74853732D01*
X160116928Y-74751914D01*
X160239414Y-74629428D01*
X160341232Y-74489288D01*
X160419873Y-74334945D01*
X160473402Y-74170201D01*
X160500500Y-73999111D01*
X160500500Y-73825889D01*
X160839500Y-73825889D01*
X160839500Y-73999111D01*
X160866598Y-74170201D01*
X160920127Y-74334945D01*
X160998768Y-74489288D01*
X161100586Y-74629428D01*
X161223072Y-74751914D01*
X161363212Y-74853732D01*
X161517555Y-74932373D01*
X161682299Y-74985902D01*
X161853389Y-75013000D01*
X161853390Y-75013000D01*
X162026610Y-75013000D01*
X162026611Y-75013000D01*
X162197701Y-74985902D01*
X162362445Y-74932373D01*
X162516788Y-74853732D01*
X162656928Y-74751914D01*
X162779414Y-74629428D01*
X162881232Y-74489288D01*
X162959873Y-74334945D01*
X163013402Y-74170201D01*
X163040500Y-73999111D01*
X163040500Y-73825889D01*
X163013402Y-73654799D01*
X162959873Y-73490055D01*
X162881232Y-73335712D01*
X162779414Y-73195572D01*
X162656928Y-73073086D01*
X162516788Y-72971268D01*
X162362445Y-72892627D01*
X162197701Y-72839098D01*
X162197699Y-72839097D01*
X162197698Y-72839097D01*
X162066271Y-72818281D01*
X162026611Y-72812000D01*
X161853389Y-72812000D01*
X161813728Y-72818281D01*
X161682302Y-72839097D01*
X161517552Y-72892628D01*
X161363211Y-72971268D01*
X161294840Y-73020943D01*
X161223072Y-73073086D01*
X161223070Y-73073088D01*
X161223069Y-73073088D01*
X161100588Y-73195569D01*
X161100588Y-73195570D01*
X161100586Y-73195572D01*
X161056859Y-73255756D01*
X160998768Y-73335711D01*
X160920128Y-73490052D01*
X160866597Y-73654802D01*
X160850399Y-73757074D01*
X160839500Y-73825889D01*
X160500500Y-73825889D01*
X160473402Y-73654799D01*
X160419873Y-73490055D01*
X160341232Y-73335712D01*
X160239414Y-73195572D01*
X160116928Y-73073086D01*
X159976788Y-72971268D01*
X159822445Y-72892627D01*
X159657701Y-72839098D01*
X159657699Y-72839097D01*
X159657698Y-72839097D01*
X159526271Y-72818281D01*
X159486611Y-72812000D01*
X159313389Y-72812000D01*
X159273728Y-72818281D01*
X159142302Y-72839097D01*
X158977552Y-72892628D01*
X158823211Y-72971268D01*
X158754840Y-73020943D01*
X158683072Y-73073086D01*
X158683070Y-73073088D01*
X158683069Y-73073088D01*
X158560588Y-73195569D01*
X158560588Y-73195570D01*
X158560586Y-73195572D01*
X158516859Y-73255756D01*
X158458768Y-73335711D01*
X158380128Y-73490052D01*
X158326597Y-73654802D01*
X158310399Y-73757074D01*
X158299500Y-73825889D01*
X157960500Y-73825889D01*
X157960500Y-73037826D01*
X157960500Y-73037823D01*
X157960499Y-73037821D01*
X157945967Y-72964764D01*
X157945966Y-72964760D01*
X157915708Y-72919475D01*
X157890601Y-72881899D01*
X157807740Y-72826534D01*
X157807739Y-72826533D01*
X157807735Y-72826532D01*
X157734677Y-72812000D01*
X157734674Y-72812000D01*
X155985326Y-72812000D01*
X155985323Y-72812000D01*
X155912264Y-72826532D01*
X155912260Y-72826533D01*
X155829399Y-72881899D01*
X155774033Y-72964760D01*
X155774032Y-72964764D01*
X155759500Y-73037821D01*
X144500500Y-73037821D01*
X144500500Y-73020943D01*
X144459577Y-72868216D01*
X144419904Y-72799500D01*
X144380524Y-72731290D01*
X144380518Y-72731282D01*
X144268717Y-72619481D01*
X144268709Y-72619475D01*
X144131790Y-72540426D01*
X144131786Y-72540424D01*
X144131784Y-72540423D01*
X143979057Y-72499500D01*
X143820943Y-72499500D01*
X143668216Y-72540423D01*
X143668209Y-72540426D01*
X143531290Y-72619475D01*
X143531282Y-72619481D01*
X143419481Y-72731282D01*
X143419475Y-72731290D01*
X143340426Y-72868209D01*
X143340423Y-72868216D01*
X143299500Y-73020943D01*
X141970179Y-73020943D01*
X141868716Y-72919480D01*
X141868714Y-72919479D01*
X141868709Y-72919475D01*
X141731790Y-72840426D01*
X141731786Y-72840424D01*
X141731784Y-72840423D01*
X141579057Y-72799500D01*
X141420943Y-72799500D01*
X141268216Y-72840423D01*
X141268209Y-72840426D01*
X141131290Y-72919475D01*
X141131282Y-72919481D01*
X141019481Y-73031282D01*
X141019475Y-73031290D01*
X140940426Y-73168209D01*
X140940423Y-73168216D01*
X140899500Y-73320943D01*
X120350500Y-73320943D01*
X120350500Y-71020943D01*
X142699500Y-71020943D01*
X142699500Y-71179056D01*
X142740423Y-71331783D01*
X142740426Y-71331790D01*
X142819475Y-71468709D01*
X142819479Y-71468714D01*
X142819480Y-71468716D01*
X142931284Y-71580520D01*
X142931286Y-71580521D01*
X142931290Y-71580524D01*
X143068209Y-71659573D01*
X143068216Y-71659577D01*
X143220943Y-71700500D01*
X143220945Y-71700500D01*
X143379055Y-71700500D01*
X143379057Y-71700500D01*
X143531784Y-71659577D01*
X143668716Y-71580520D01*
X143780520Y-71468716D01*
X143859577Y-71331784D01*
X143900500Y-71179057D01*
X143900500Y-71020943D01*
X143859577Y-70868216D01*
X143859573Y-70868209D01*
X143839560Y-70833544D01*
X143823087Y-70765644D01*
X143845940Y-70699617D01*
X143900861Y-70656427D01*
X143970415Y-70649786D01*
X144023591Y-70677200D01*
X144024839Y-70675574D01*
X144031281Y-70680517D01*
X144031284Y-70680520D01*
X144031287Y-70680521D01*
X144031290Y-70680524D01*
X144119221Y-70731290D01*
X144168216Y-70759577D01*
X144320943Y-70800500D01*
X144320945Y-70800500D01*
X144479055Y-70800500D01*
X144479057Y-70800500D01*
X144631784Y-70759577D01*
X144768716Y-70680520D01*
X144880520Y-70568716D01*
X144959577Y-70431784D01*
X145000500Y-70279057D01*
X145000500Y-70120943D01*
X144959577Y-69968216D01*
X144926898Y-69911614D01*
X144880524Y-69831290D01*
X144880518Y-69831282D01*
X144768717Y-69719481D01*
X144768709Y-69719475D01*
X144631790Y-69640426D01*
X144631786Y-69640424D01*
X144631784Y-69640423D01*
X144479057Y-69599500D01*
X144320943Y-69599500D01*
X144168216Y-69640423D01*
X144168209Y-69640426D01*
X144031290Y-69719475D01*
X144031282Y-69719481D01*
X143919481Y-69831282D01*
X143919475Y-69831290D01*
X143840426Y-69968209D01*
X143840423Y-69968216D01*
X143799500Y-70120943D01*
X143799500Y-70279057D01*
X143831269Y-70397618D01*
X143840423Y-70431783D01*
X143840423Y-70431784D01*
X143860440Y-70466455D01*
X143876911Y-70534356D01*
X143854059Y-70600382D01*
X143799137Y-70643572D01*
X143729583Y-70650213D01*
X143676409Y-70622799D01*
X143675161Y-70624426D01*
X143668709Y-70619475D01*
X143531790Y-70540426D01*
X143531786Y-70540424D01*
X143531784Y-70540423D01*
X143379057Y-70499500D01*
X143220943Y-70499500D01*
X143068216Y-70540423D01*
X143068209Y-70540426D01*
X142931290Y-70619475D01*
X142931282Y-70619481D01*
X142819481Y-70731282D01*
X142819475Y-70731290D01*
X142740426Y-70868209D01*
X142740423Y-70868216D01*
X142699500Y-71020943D01*
X120350500Y-71020943D01*
X120350500Y-69771457D01*
X123724499Y-69771457D01*
X123752379Y-69911614D01*
X123752381Y-69911620D01*
X123807069Y-70043650D01*
X123807074Y-70043659D01*
X123886467Y-70162478D01*
X123886470Y-70162482D01*
X123987517Y-70263529D01*
X123987521Y-70263532D01*
X124106340Y-70342925D01*
X124106346Y-70342928D01*
X124106347Y-70342929D01*
X124238380Y-70397619D01*
X124238384Y-70397619D01*
X124238385Y-70397620D01*
X124378542Y-70425500D01*
X124378545Y-70425500D01*
X124521457Y-70425500D01*
X124615751Y-70406742D01*
X124661620Y-70397619D01*
X124793653Y-70342929D01*
X124912479Y-70263532D01*
X125013532Y-70162479D01*
X125092929Y-70043653D01*
X125147619Y-69911620D01*
X125163599Y-69831284D01*
X125175500Y-69771457D01*
X125175500Y-69328542D01*
X125147620Y-69188385D01*
X125147619Y-69188384D01*
X125147619Y-69188380D01*
X125092929Y-69056347D01*
X125092928Y-69056346D01*
X125092925Y-69056340D01*
X125013532Y-68937521D01*
X125013529Y-68937517D01*
X124912482Y-68836470D01*
X124912474Y-68836464D01*
X124881774Y-68815951D01*
X124881724Y-68815918D01*
X124793659Y-68757074D01*
X124793650Y-68757069D01*
X124706433Y-68720943D01*
X137999500Y-68720943D01*
X137999500Y-68879057D01*
X138026742Y-68980723D01*
X138040423Y-69031783D01*
X138040426Y-69031790D01*
X138119475Y-69168709D01*
X138119479Y-69168714D01*
X138119480Y-69168716D01*
X138231284Y-69280520D01*
X138231286Y-69280521D01*
X138231290Y-69280524D01*
X138320087Y-69331790D01*
X138368216Y-69359577D01*
X138520943Y-69400500D01*
X138520945Y-69400500D01*
X138679055Y-69400500D01*
X138679057Y-69400500D01*
X138831784Y-69359577D01*
X138968716Y-69280520D01*
X139080520Y-69168716D01*
X139159577Y-69031784D01*
X139162482Y-69020943D01*
X140899500Y-69020943D01*
X140899500Y-69179057D01*
X140939555Y-69328542D01*
X140940423Y-69331783D01*
X140940426Y-69331790D01*
X141019475Y-69468709D01*
X141019479Y-69468714D01*
X141019480Y-69468716D01*
X141131284Y-69580520D01*
X141131286Y-69580521D01*
X141131290Y-69580524D01*
X141235040Y-69640423D01*
X141268216Y-69659577D01*
X141420943Y-69700500D01*
X141420945Y-69700500D01*
X141579055Y-69700500D01*
X141579057Y-69700500D01*
X141731784Y-69659577D01*
X141868716Y-69580520D01*
X141980520Y-69468716D01*
X142059577Y-69331784D01*
X142100500Y-69179057D01*
X142100500Y-69020943D01*
X142059577Y-68868216D01*
X142041249Y-68836470D01*
X141980524Y-68731290D01*
X141980518Y-68731282D01*
X141868717Y-68619481D01*
X141868709Y-68619475D01*
X141731790Y-68540426D01*
X141731786Y-68540424D01*
X141731784Y-68540423D01*
X141579057Y-68499500D01*
X141420943Y-68499500D01*
X141268216Y-68540423D01*
X141268209Y-68540426D01*
X141131290Y-68619475D01*
X141131282Y-68619481D01*
X141019481Y-68731282D01*
X141019475Y-68731290D01*
X140940426Y-68868209D01*
X140940423Y-68868216D01*
X140899500Y-69020943D01*
X139162482Y-69020943D01*
X139200500Y-68879057D01*
X139200500Y-68720943D01*
X139159577Y-68568216D01*
X139114481Y-68490107D01*
X139080524Y-68431290D01*
X139080518Y-68431282D01*
X138968717Y-68319481D01*
X138968709Y-68319475D01*
X138831790Y-68240426D01*
X138831786Y-68240424D01*
X138831784Y-68240423D01*
X138679057Y-68199500D01*
X138520943Y-68199500D01*
X138368216Y-68240423D01*
X138368209Y-68240426D01*
X138231290Y-68319475D01*
X138231282Y-68319481D01*
X138119481Y-68431282D01*
X138119475Y-68431290D01*
X138040426Y-68568209D01*
X138040423Y-68568216D01*
X137999500Y-68720943D01*
X124706433Y-68720943D01*
X124661620Y-68702381D01*
X124661614Y-68702379D01*
X124521457Y-68674500D01*
X124521455Y-68674500D01*
X124378545Y-68674500D01*
X124378543Y-68674500D01*
X124238385Y-68702379D01*
X124238379Y-68702381D01*
X124106349Y-68757069D01*
X124106340Y-68757074D01*
X123987521Y-68836467D01*
X123987517Y-68836470D01*
X123886470Y-68937517D01*
X123886467Y-68937521D01*
X123807074Y-69056340D01*
X123807069Y-69056349D01*
X123752381Y-69188379D01*
X123752379Y-69188385D01*
X123724500Y-69328542D01*
X123724500Y-69328545D01*
X123724500Y-69771455D01*
X123724500Y-69771457D01*
X123724499Y-69771457D01*
X120350500Y-69771457D01*
X120350500Y-68618503D01*
X120724499Y-68618503D01*
X120751226Y-68752864D01*
X120751229Y-68752874D01*
X120803652Y-68879436D01*
X120803659Y-68879449D01*
X120879769Y-68993354D01*
X120879772Y-68993358D01*
X120976641Y-69090227D01*
X120976645Y-69090230D01*
X121090550Y-69166340D01*
X121090563Y-69166347D01*
X121190863Y-69207892D01*
X121217130Y-69218772D01*
X121217134Y-69218772D01*
X121217135Y-69218773D01*
X121351496Y-69245500D01*
X121351499Y-69245500D01*
X122148503Y-69245500D01*
X122238898Y-69227518D01*
X122282870Y-69218772D01*
X122293446Y-69214391D01*
X122309138Y-69207892D01*
X122409436Y-69166347D01*
X122409436Y-69166346D01*
X122409443Y-69166344D01*
X122523355Y-69090230D01*
X122620230Y-68993355D01*
X122696344Y-68879443D01*
X122748772Y-68752870D01*
X122772957Y-68631285D01*
X122775500Y-68618503D01*
X122775500Y-68481496D01*
X122748773Y-68347135D01*
X122748772Y-68347134D01*
X122748772Y-68347130D01*
X122748770Y-68347125D01*
X122696347Y-68220563D01*
X122696340Y-68220550D01*
X122620230Y-68106645D01*
X122620227Y-68106641D01*
X122523358Y-68009772D01*
X122523354Y-68009769D01*
X122409449Y-67933659D01*
X122409436Y-67933652D01*
X122282874Y-67881229D01*
X122282864Y-67881226D01*
X122148503Y-67854500D01*
X122148501Y-67854500D01*
X121351499Y-67854500D01*
X121351497Y-67854500D01*
X121217135Y-67881226D01*
X121217125Y-67881229D01*
X121090563Y-67933652D01*
X121090550Y-67933659D01*
X120976645Y-68009769D01*
X120976641Y-68009772D01*
X120879772Y-68106641D01*
X120879769Y-68106645D01*
X120803659Y-68220550D01*
X120803652Y-68220563D01*
X120751229Y-68347125D01*
X120751226Y-68347135D01*
X120724500Y-68481496D01*
X120724500Y-68481499D01*
X120724500Y-68618501D01*
X120724500Y-68618503D01*
X120724499Y-68618503D01*
X120350500Y-68618503D01*
X120350500Y-67845943D01*
X135849500Y-67845943D01*
X135849500Y-68004057D01*
X135883725Y-68131784D01*
X135890423Y-68156783D01*
X135890426Y-68156790D01*
X135969475Y-68293709D01*
X135969479Y-68293714D01*
X135969480Y-68293716D01*
X136081284Y-68405520D01*
X136081286Y-68405521D01*
X136081290Y-68405524D01*
X136212885Y-68481499D01*
X136218216Y-68484577D01*
X136370943Y-68525500D01*
X136370945Y-68525500D01*
X136529055Y-68525500D01*
X136529057Y-68525500D01*
X136681784Y-68484577D01*
X136818716Y-68405520D01*
X136930520Y-68293716D01*
X137009577Y-68156784D01*
X137050500Y-68004057D01*
X137050500Y-67845943D01*
X137043801Y-67820943D01*
X146599500Y-67820943D01*
X146599500Y-67979057D01*
X146607730Y-68009769D01*
X146640423Y-68131783D01*
X146640426Y-68131790D01*
X146719475Y-68268709D01*
X146719477Y-68268711D01*
X146719480Y-68268716D01*
X146831284Y-68380520D01*
X146831285Y-68380521D01*
X146831287Y-68380522D01*
X146906226Y-68423788D01*
X146954442Y-68474355D01*
X146967665Y-68542962D01*
X146941697Y-68607827D01*
X146931910Y-68618854D01*
X146919479Y-68631285D01*
X146919475Y-68631290D01*
X146840426Y-68768209D01*
X146840423Y-68768216D01*
X146799500Y-68920943D01*
X146799500Y-69079057D01*
X146836937Y-69218772D01*
X146840423Y-69231783D01*
X146840426Y-69231790D01*
X146919475Y-69368709D01*
X146919479Y-69368714D01*
X146919480Y-69368716D01*
X147031284Y-69480520D01*
X147031286Y-69480521D01*
X147031290Y-69480524D01*
X147168209Y-69559573D01*
X147168216Y-69559577D01*
X147320943Y-69600500D01*
X147320945Y-69600500D01*
X147479055Y-69600500D01*
X147479057Y-69600500D01*
X147631784Y-69559577D01*
X147768716Y-69480520D01*
X147880520Y-69368716D01*
X147959577Y-69231784D01*
X148000500Y-69079057D01*
X148000500Y-68920943D01*
X147959577Y-68768216D01*
X147953144Y-68757074D01*
X147880524Y-68631290D01*
X147880521Y-68631286D01*
X147880520Y-68631284D01*
X147768716Y-68519480D01*
X147768715Y-68519479D01*
X147768712Y-68519477D01*
X147693773Y-68476211D01*
X147645557Y-68425644D01*
X147632335Y-68357037D01*
X147658303Y-68292172D01*
X147668078Y-68281157D01*
X147680520Y-68268716D01*
X147759577Y-68131784D01*
X147800500Y-67979057D01*
X147800500Y-67820943D01*
X147759577Y-67668216D01*
X147720481Y-67600499D01*
X147680524Y-67531290D01*
X147680518Y-67531282D01*
X147568717Y-67419481D01*
X147568709Y-67419475D01*
X147431790Y-67340426D01*
X147431786Y-67340424D01*
X147431784Y-67340423D01*
X147279057Y-67299500D01*
X147120943Y-67299500D01*
X146968216Y-67340423D01*
X146968209Y-67340426D01*
X146831290Y-67419475D01*
X146831282Y-67419481D01*
X146719481Y-67531282D01*
X146719475Y-67531290D01*
X146640426Y-67668209D01*
X146640423Y-67668216D01*
X146599500Y-67820943D01*
X137043801Y-67820943D01*
X137009577Y-67693216D01*
X137009573Y-67693209D01*
X136930524Y-67556290D01*
X136930518Y-67556282D01*
X136818717Y-67444481D01*
X136818709Y-67444475D01*
X136681790Y-67365426D01*
X136681786Y-67365424D01*
X136681784Y-67365423D01*
X136529057Y-67324500D01*
X136370943Y-67324500D01*
X136218216Y-67365423D01*
X136218209Y-67365426D01*
X136081290Y-67444475D01*
X136081282Y-67444481D01*
X135969481Y-67556282D01*
X135969475Y-67556290D01*
X135890426Y-67693209D01*
X135890424Y-67693214D01*
X135890423Y-67693216D01*
X135849500Y-67845943D01*
X120350500Y-67845943D01*
X120350500Y-67145943D01*
X132349500Y-67145943D01*
X132349500Y-67304057D01*
X132387127Y-67444481D01*
X132390423Y-67456783D01*
X132390426Y-67456790D01*
X132469475Y-67593709D01*
X132469479Y-67593714D01*
X132469480Y-67593716D01*
X132581284Y-67705520D01*
X132581286Y-67705521D01*
X132581290Y-67705524D01*
X132718209Y-67784573D01*
X132718216Y-67784577D01*
X132870943Y-67825500D01*
X132870945Y-67825500D01*
X133029055Y-67825500D01*
X133029057Y-67825500D01*
X133181784Y-67784577D01*
X133318716Y-67705520D01*
X133430520Y-67593716D01*
X133509577Y-67456784D01*
X133550500Y-67304057D01*
X133550500Y-67145943D01*
X134399500Y-67145943D01*
X134399500Y-67304057D01*
X134437127Y-67444481D01*
X134440423Y-67456783D01*
X134440426Y-67456790D01*
X134519475Y-67593709D01*
X134519479Y-67593714D01*
X134519480Y-67593716D01*
X134631284Y-67705520D01*
X134631286Y-67705521D01*
X134631290Y-67705524D01*
X134768209Y-67784573D01*
X134768216Y-67784577D01*
X134920943Y-67825500D01*
X134920945Y-67825500D01*
X135079055Y-67825500D01*
X135079057Y-67825500D01*
X135231784Y-67784577D01*
X135368716Y-67705520D01*
X135480520Y-67593716D01*
X135559577Y-67456784D01*
X135600500Y-67304057D01*
X135600500Y-67145943D01*
X135559577Y-66993216D01*
X135517851Y-66920943D01*
X145199500Y-66920943D01*
X145199500Y-67079056D01*
X145240423Y-67231783D01*
X145240426Y-67231790D01*
X145319475Y-67368709D01*
X145319479Y-67368714D01*
X145319480Y-67368716D01*
X145431284Y-67480520D01*
X145431286Y-67480521D01*
X145431290Y-67480524D01*
X145519221Y-67531290D01*
X145568216Y-67559577D01*
X145720943Y-67600500D01*
X145720945Y-67600500D01*
X145879055Y-67600500D01*
X145879057Y-67600500D01*
X146031784Y-67559577D01*
X146168716Y-67480520D01*
X146280520Y-67368716D01*
X146359577Y-67231784D01*
X146400500Y-67079057D01*
X146400500Y-66920943D01*
X146359577Y-66768216D01*
X146300230Y-66665423D01*
X146280524Y-66631290D01*
X146280518Y-66631282D01*
X146168717Y-66519481D01*
X146168709Y-66519475D01*
X146031790Y-66440426D01*
X146031786Y-66440424D01*
X146031784Y-66440423D01*
X145879057Y-66399500D01*
X145720943Y-66399500D01*
X145568216Y-66440423D01*
X145568209Y-66440426D01*
X145431290Y-66519475D01*
X145431282Y-66519481D01*
X145319481Y-66631282D01*
X145319475Y-66631290D01*
X145240426Y-66768209D01*
X145240423Y-66768216D01*
X145199500Y-66920943D01*
X135517851Y-66920943D01*
X135480524Y-66856290D01*
X135480518Y-66856282D01*
X135368717Y-66744481D01*
X135368709Y-66744475D01*
X135231790Y-66665426D01*
X135231786Y-66665424D01*
X135231784Y-66665423D01*
X135079057Y-66624500D01*
X134920943Y-66624500D01*
X134768216Y-66665423D01*
X134768209Y-66665426D01*
X134631290Y-66744475D01*
X134631282Y-66744481D01*
X134519481Y-66856282D01*
X134519475Y-66856290D01*
X134440426Y-66993209D01*
X134440423Y-66993216D01*
X134399500Y-67145943D01*
X133550500Y-67145943D01*
X133509577Y-66993216D01*
X133467851Y-66920943D01*
X133430524Y-66856290D01*
X133430518Y-66856282D01*
X133318717Y-66744481D01*
X133318709Y-66744475D01*
X133181790Y-66665426D01*
X133181786Y-66665424D01*
X133181784Y-66665423D01*
X133029057Y-66624500D01*
X132870943Y-66624500D01*
X132718216Y-66665423D01*
X132718209Y-66665426D01*
X132581290Y-66744475D01*
X132581282Y-66744481D01*
X132469481Y-66856282D01*
X132469475Y-66856290D01*
X132390426Y-66993209D01*
X132390423Y-66993216D01*
X132349500Y-67145943D01*
X120350500Y-67145943D01*
X120350500Y-62643753D01*
X122910000Y-62643753D01*
X122910000Y-62856246D01*
X122943242Y-63066127D01*
X122943242Y-63066130D01*
X123008904Y-63268217D01*
X123105375Y-63457550D01*
X123144728Y-63511716D01*
X123777037Y-62879408D01*
X123794075Y-62942993D01*
X123859901Y-63057007D01*
X123952993Y-63150099D01*
X124067007Y-63215925D01*
X124130590Y-63232962D01*
X123498282Y-63865269D01*
X123498282Y-63865270D01*
X123552449Y-63904624D01*
X123741782Y-64001095D01*
X123943870Y-64066757D01*
X124153754Y-64100000D01*
X124366246Y-64100000D01*
X124576127Y-64066757D01*
X124576130Y-64066757D01*
X124778217Y-64001095D01*
X124967554Y-63904622D01*
X125021716Y-63865270D01*
X125021717Y-63865270D01*
X124389408Y-63232962D01*
X124452993Y-63215925D01*
X124567007Y-63150099D01*
X124660099Y-63057007D01*
X124725925Y-62942993D01*
X124742962Y-62879408D01*
X125375270Y-63511717D01*
X125375270Y-63511716D01*
X125414622Y-63457554D01*
X125511096Y-63268215D01*
X125543239Y-63169288D01*
X125582676Y-63111612D01*
X125647034Y-63084413D01*
X125715880Y-63096327D01*
X125767357Y-63143571D01*
X125779100Y-63169284D01*
X125780127Y-63172446D01*
X125831080Y-63272447D01*
X125858768Y-63326788D01*
X125960586Y-63466928D01*
X126083072Y-63589414D01*
X126223212Y-63691232D01*
X126377555Y-63769873D01*
X126542299Y-63823402D01*
X126713389Y-63850500D01*
X126713390Y-63850500D01*
X126886610Y-63850500D01*
X126886611Y-63850500D01*
X127057701Y-63823402D01*
X127222445Y-63769873D01*
X127376788Y-63691232D01*
X127516928Y-63589414D01*
X127639414Y-63466928D01*
X127741232Y-63326788D01*
X127819873Y-63172445D01*
X127873402Y-63007701D01*
X127900500Y-62836611D01*
X127900500Y-62663389D01*
X127873402Y-62492299D01*
X127819873Y-62327555D01*
X127741232Y-62173212D01*
X127639414Y-62033072D01*
X127516928Y-61910586D01*
X127468390Y-61875321D01*
X128239500Y-61875321D01*
X128239500Y-63624678D01*
X128254032Y-63697735D01*
X128254033Y-63697739D01*
X128254034Y-63697740D01*
X128309399Y-63780601D01*
X128392259Y-63835965D01*
X128392260Y-63835966D01*
X128392264Y-63835967D01*
X128465321Y-63850499D01*
X128465324Y-63850500D01*
X128465326Y-63850500D01*
X130214676Y-63850500D01*
X130214677Y-63850499D01*
X130287740Y-63835966D01*
X130370601Y-63780601D01*
X130425966Y-63697740D01*
X130440500Y-63624674D01*
X130440500Y-62743753D01*
X134210000Y-62743753D01*
X134210000Y-62956246D01*
X134243242Y-63166127D01*
X134243242Y-63166130D01*
X134308904Y-63368217D01*
X134405375Y-63557550D01*
X134444728Y-63611716D01*
X135077037Y-62979408D01*
X135094075Y-63042993D01*
X135159901Y-63157007D01*
X135252993Y-63250099D01*
X135367007Y-63315925D01*
X135430590Y-63332962D01*
X134798282Y-63965269D01*
X134798282Y-63965270D01*
X134852449Y-64004624D01*
X135041782Y-64101095D01*
X135243870Y-64166757D01*
X135453754Y-64200000D01*
X135666246Y-64200000D01*
X135876127Y-64166757D01*
X135876130Y-64166757D01*
X136078217Y-64101095D01*
X136267554Y-64004622D01*
X136321716Y-63965270D01*
X136321717Y-63965270D01*
X135689408Y-63332962D01*
X135752993Y-63315925D01*
X135867007Y-63250099D01*
X135960099Y-63157007D01*
X136025925Y-63042993D01*
X136042962Y-62979408D01*
X136675270Y-63611717D01*
X136675270Y-63611716D01*
X136714622Y-63557554D01*
X136811096Y-63368215D01*
X136843239Y-63269288D01*
X136882676Y-63211612D01*
X136947034Y-63184413D01*
X137015880Y-63196327D01*
X137067357Y-63243571D01*
X137079100Y-63269284D01*
X137080127Y-63272446D01*
X137080128Y-63272447D01*
X137158768Y-63426788D01*
X137260586Y-63566928D01*
X137383072Y-63689414D01*
X137523212Y-63791232D01*
X137677555Y-63869873D01*
X137842299Y-63923402D01*
X138013389Y-63950500D01*
X138013390Y-63950500D01*
X138186610Y-63950500D01*
X138186611Y-63950500D01*
X138357701Y-63923402D01*
X138522445Y-63869873D01*
X138676788Y-63791232D01*
X138816928Y-63689414D01*
X138939414Y-63566928D01*
X139041232Y-63426788D01*
X139119873Y-63272445D01*
X139173402Y-63107701D01*
X139200500Y-62936611D01*
X139200500Y-62763389D01*
X139173402Y-62592299D01*
X139119873Y-62427555D01*
X139041232Y-62273212D01*
X138939414Y-62133072D01*
X138816928Y-62010586D01*
X138768390Y-61975321D01*
X139539500Y-61975321D01*
X139539500Y-63724678D01*
X139554032Y-63797735D01*
X139554033Y-63797739D01*
X139572405Y-63825235D01*
X139609399Y-63880601D01*
X139692260Y-63935966D01*
X139692264Y-63935967D01*
X139765321Y-63950499D01*
X139765324Y-63950500D01*
X139765326Y-63950500D01*
X141514676Y-63950500D01*
X141514677Y-63950499D01*
X141587740Y-63935966D01*
X141670601Y-63880601D01*
X141725966Y-63797740D01*
X141740500Y-63724674D01*
X141740500Y-61975326D01*
X141740500Y-61975323D01*
X141740499Y-61975321D01*
X141725967Y-61902264D01*
X141725966Y-61902260D01*
X141670601Y-61819399D01*
X141587740Y-61764034D01*
X141587739Y-61764033D01*
X141587735Y-61764032D01*
X141514677Y-61749500D01*
X141514674Y-61749500D01*
X139765326Y-61749500D01*
X139765323Y-61749500D01*
X139692264Y-61764032D01*
X139692260Y-61764033D01*
X139609399Y-61819399D01*
X139554033Y-61902260D01*
X139554032Y-61902264D01*
X139539500Y-61975321D01*
X138768390Y-61975321D01*
X138676788Y-61908768D01*
X138522445Y-61830127D01*
X138357701Y-61776598D01*
X138357699Y-61776597D01*
X138357698Y-61776597D01*
X138226271Y-61755781D01*
X138186611Y-61749500D01*
X138013389Y-61749500D01*
X137973728Y-61755781D01*
X137842302Y-61776597D01*
X137677552Y-61830128D01*
X137523211Y-61908768D01*
X137443256Y-61966859D01*
X137383072Y-62010586D01*
X137383070Y-62010588D01*
X137383069Y-62010588D01*
X137260588Y-62133069D01*
X137260588Y-62133070D01*
X137260586Y-62133072D01*
X137216859Y-62193256D01*
X137158768Y-62273211D01*
X137080128Y-62427550D01*
X137079099Y-62430720D01*
X137078381Y-62431769D01*
X137078266Y-62432048D01*
X137078207Y-62432023D01*
X137039657Y-62488393D01*
X136975297Y-62515587D01*
X136906451Y-62503668D01*
X136854979Y-62456420D01*
X136843239Y-62430711D01*
X136811096Y-62331784D01*
X136714624Y-62142449D01*
X136675270Y-62088282D01*
X136675269Y-62088282D01*
X136042962Y-62720590D01*
X136025925Y-62657007D01*
X135960099Y-62542993D01*
X135867007Y-62449901D01*
X135752993Y-62384075D01*
X135689409Y-62367037D01*
X136321716Y-61734728D01*
X136267550Y-61695375D01*
X136078217Y-61598904D01*
X135876129Y-61533242D01*
X135666246Y-61500000D01*
X135453754Y-61500000D01*
X135243872Y-61533242D01*
X135243869Y-61533242D01*
X135041782Y-61598904D01*
X134852439Y-61695380D01*
X134798282Y-61734727D01*
X134798282Y-61734728D01*
X135430591Y-62367037D01*
X135367007Y-62384075D01*
X135252993Y-62449901D01*
X135159901Y-62542993D01*
X135094075Y-62657007D01*
X135077037Y-62720591D01*
X134444728Y-62088282D01*
X134444727Y-62088282D01*
X134405380Y-62142439D01*
X134308904Y-62331782D01*
X134243242Y-62533869D01*
X134243242Y-62533872D01*
X134210000Y-62743753D01*
X130440500Y-62743753D01*
X130440500Y-61875326D01*
X130440500Y-61875323D01*
X130426746Y-61806179D01*
X130426745Y-61806177D01*
X130425966Y-61802260D01*
X130370601Y-61719399D01*
X130306542Y-61676597D01*
X130287739Y-61664033D01*
X130287735Y-61664032D01*
X130214677Y-61649500D01*
X130214674Y-61649500D01*
X128465326Y-61649500D01*
X128465323Y-61649500D01*
X128392264Y-61664032D01*
X128392260Y-61664033D01*
X128309399Y-61719399D01*
X128254033Y-61802260D01*
X128254032Y-61802264D01*
X128239500Y-61875321D01*
X127468390Y-61875321D01*
X127376788Y-61808768D01*
X127222445Y-61730127D01*
X127057701Y-61676598D01*
X127057699Y-61676597D01*
X127057698Y-61676597D01*
X126926271Y-61655781D01*
X126886611Y-61649500D01*
X126713389Y-61649500D01*
X126673728Y-61655781D01*
X126542302Y-61676597D01*
X126377552Y-61730128D01*
X126223211Y-61808768D01*
X126143256Y-61866859D01*
X126083072Y-61910586D01*
X126083070Y-61910588D01*
X126083069Y-61910588D01*
X125960588Y-62033069D01*
X125960588Y-62033070D01*
X125960586Y-62033072D01*
X125916859Y-62093256D01*
X125858768Y-62173211D01*
X125780128Y-62327550D01*
X125779099Y-62330720D01*
X125778381Y-62331769D01*
X125778266Y-62332048D01*
X125778207Y-62332023D01*
X125739657Y-62388393D01*
X125675297Y-62415587D01*
X125606451Y-62403668D01*
X125554979Y-62356420D01*
X125543239Y-62330711D01*
X125511096Y-62231784D01*
X125414624Y-62042449D01*
X125375270Y-61988282D01*
X125375269Y-61988282D01*
X124742962Y-62620590D01*
X124725925Y-62557007D01*
X124660099Y-62442993D01*
X124567007Y-62349901D01*
X124452993Y-62284075D01*
X124389409Y-62267037D01*
X125021716Y-61634728D01*
X124967550Y-61595375D01*
X124778217Y-61498904D01*
X124576129Y-61433242D01*
X124366246Y-61400000D01*
X124153754Y-61400000D01*
X123943872Y-61433242D01*
X123943869Y-61433242D01*
X123741782Y-61498904D01*
X123552439Y-61595380D01*
X123498282Y-61634727D01*
X123498282Y-61634728D01*
X124130591Y-62267037D01*
X124067007Y-62284075D01*
X123952993Y-62349901D01*
X123859901Y-62442993D01*
X123794075Y-62557007D01*
X123777037Y-62620591D01*
X123144728Y-61988282D01*
X123144727Y-61988282D01*
X123105380Y-62042439D01*
X123008904Y-62231782D01*
X122943242Y-62433869D01*
X122943242Y-62433872D01*
X122910000Y-62643753D01*
X120350500Y-62643753D01*
X120350500Y-60995943D01*
X146699500Y-60995943D01*
X146699500Y-61154056D01*
X146740423Y-61306783D01*
X146740426Y-61306790D01*
X146819475Y-61443709D01*
X146819479Y-61443714D01*
X146819480Y-61443716D01*
X146931284Y-61555520D01*
X146931286Y-61555521D01*
X146931290Y-61555524D01*
X147000324Y-61595380D01*
X147068216Y-61634577D01*
X147220943Y-61675500D01*
X147220945Y-61675500D01*
X147379055Y-61675500D01*
X147379057Y-61675500D01*
X147531784Y-61634577D01*
X147668716Y-61555520D01*
X147780520Y-61443716D01*
X147859577Y-61306784D01*
X147900500Y-61154057D01*
X147900500Y-60995943D01*
X147859577Y-60843216D01*
X147859573Y-60843209D01*
X147780524Y-60706290D01*
X147780518Y-60706282D01*
X147668717Y-60594481D01*
X147668709Y-60594475D01*
X147531790Y-60515426D01*
X147531786Y-60515424D01*
X147531784Y-60515423D01*
X147379057Y-60474500D01*
X147220943Y-60474500D01*
X147068216Y-60515423D01*
X147068209Y-60515426D01*
X146931290Y-60594475D01*
X146931282Y-60594481D01*
X146819481Y-60706282D01*
X146819475Y-60706290D01*
X146740426Y-60843209D01*
X146740423Y-60843216D01*
X146699500Y-60995943D01*
X120350500Y-60995943D01*
X120350500Y-55475321D01*
X153469500Y-55475321D01*
X153469500Y-57224678D01*
X153484032Y-57297735D01*
X153484033Y-57297739D01*
X153484034Y-57297740D01*
X153539399Y-57380601D01*
X153622260Y-57435966D01*
X153622264Y-57435967D01*
X153695321Y-57450499D01*
X153695324Y-57450500D01*
X153695326Y-57450500D01*
X155444676Y-57450500D01*
X155444677Y-57450499D01*
X155517740Y-57435966D01*
X155600601Y-57380601D01*
X155655966Y-57297740D01*
X155670500Y-57224674D01*
X155670500Y-56263389D01*
X156009500Y-56263389D01*
X156009500Y-56436611D01*
X156036598Y-56607701D01*
X156090127Y-56772445D01*
X156168768Y-56926788D01*
X156270586Y-57066928D01*
X156393072Y-57189414D01*
X156533212Y-57291232D01*
X156687555Y-57369873D01*
X156852299Y-57423402D01*
X157023389Y-57450500D01*
X157023390Y-57450500D01*
X157196610Y-57450500D01*
X157196611Y-57450500D01*
X157367701Y-57423402D01*
X157532445Y-57369873D01*
X157686788Y-57291232D01*
X157826928Y-57189414D01*
X157949414Y-57066928D01*
X158051232Y-56926788D01*
X158129873Y-56772445D01*
X158183402Y-56607701D01*
X158210500Y-56436611D01*
X158210500Y-56263389D01*
X158549500Y-56263389D01*
X158549500Y-56436611D01*
X158576598Y-56607701D01*
X158630127Y-56772445D01*
X158708768Y-56926788D01*
X158810586Y-57066928D01*
X158933072Y-57189414D01*
X159073212Y-57291232D01*
X159227555Y-57369873D01*
X159392299Y-57423402D01*
X159563389Y-57450500D01*
X159563390Y-57450500D01*
X159736610Y-57450500D01*
X159736611Y-57450500D01*
X159907701Y-57423402D01*
X160072445Y-57369873D01*
X160226788Y-57291232D01*
X160366928Y-57189414D01*
X160489414Y-57066928D01*
X160591232Y-56926788D01*
X160669873Y-56772445D01*
X160723402Y-56607701D01*
X160750500Y-56436611D01*
X160750500Y-56263389D01*
X161089500Y-56263389D01*
X161089500Y-56436611D01*
X161116598Y-56607701D01*
X161170127Y-56772445D01*
X161248768Y-56926788D01*
X161350586Y-57066928D01*
X161473072Y-57189414D01*
X161613212Y-57291232D01*
X161767555Y-57369873D01*
X161932299Y-57423402D01*
X162103389Y-57450500D01*
X162103390Y-57450500D01*
X162276610Y-57450500D01*
X162276611Y-57450500D01*
X162447701Y-57423402D01*
X162612445Y-57369873D01*
X162766788Y-57291232D01*
X162906928Y-57189414D01*
X163029414Y-57066928D01*
X163131232Y-56926788D01*
X163209873Y-56772445D01*
X163263402Y-56607701D01*
X163290500Y-56436611D01*
X163290500Y-56263389D01*
X163263402Y-56092299D01*
X163209873Y-55927555D01*
X163131232Y-55773212D01*
X163029414Y-55633072D01*
X162906928Y-55510586D01*
X162766788Y-55408768D01*
X162612445Y-55330127D01*
X162447701Y-55276598D01*
X162447699Y-55276597D01*
X162447698Y-55276597D01*
X162316271Y-55255781D01*
X162276611Y-55249500D01*
X162103389Y-55249500D01*
X162063728Y-55255781D01*
X161932302Y-55276597D01*
X161767552Y-55330128D01*
X161613211Y-55408768D01*
X161533256Y-55466859D01*
X161473072Y-55510586D01*
X161473070Y-55510588D01*
X161473069Y-55510588D01*
X161350588Y-55633069D01*
X161350588Y-55633070D01*
X161350586Y-55633072D01*
X161306859Y-55693256D01*
X161248768Y-55773211D01*
X161170128Y-55927552D01*
X161116597Y-56092302D01*
X161089500Y-56263389D01*
X160750500Y-56263389D01*
X160723402Y-56092299D01*
X160669873Y-55927555D01*
X160591232Y-55773212D01*
X160489414Y-55633072D01*
X160366928Y-55510586D01*
X160226788Y-55408768D01*
X160072445Y-55330127D01*
X159907701Y-55276598D01*
X159907699Y-55276597D01*
X159907698Y-55276597D01*
X159776271Y-55255781D01*
X159736611Y-55249500D01*
X159563389Y-55249500D01*
X159523728Y-55255781D01*
X159392302Y-55276597D01*
X159227552Y-55330128D01*
X159073211Y-55408768D01*
X158993256Y-55466859D01*
X158933072Y-55510586D01*
X158933070Y-55510588D01*
X158933069Y-55510588D01*
X158810588Y-55633069D01*
X158810588Y-55633070D01*
X158810586Y-55633072D01*
X158766859Y-55693256D01*
X158708768Y-55773211D01*
X158630128Y-55927552D01*
X158576597Y-56092302D01*
X158549500Y-56263389D01*
X158210500Y-56263389D01*
X158183402Y-56092299D01*
X158129873Y-55927555D01*
X158051232Y-55773212D01*
X157949414Y-55633072D01*
X157826928Y-55510586D01*
X157686788Y-55408768D01*
X157532445Y-55330127D01*
X157367701Y-55276598D01*
X157367699Y-55276597D01*
X157367698Y-55276597D01*
X157236271Y-55255781D01*
X157196611Y-55249500D01*
X157023389Y-55249500D01*
X156983728Y-55255781D01*
X156852302Y-55276597D01*
X156687552Y-55330128D01*
X156533211Y-55408768D01*
X156453256Y-55466859D01*
X156393072Y-55510586D01*
X156393070Y-55510588D01*
X156393069Y-55510588D01*
X156270588Y-55633069D01*
X156270588Y-55633070D01*
X156270586Y-55633072D01*
X156226859Y-55693256D01*
X156168768Y-55773211D01*
X156090128Y-55927552D01*
X156036597Y-56092302D01*
X156009500Y-56263389D01*
X155670500Y-56263389D01*
X155670500Y-55475326D01*
X155670500Y-55475323D01*
X155670499Y-55475321D01*
X155655967Y-55402264D01*
X155655966Y-55402260D01*
X155600601Y-55319399D01*
X155517740Y-55264034D01*
X155517739Y-55264033D01*
X155517735Y-55264032D01*
X155444677Y-55249500D01*
X155444674Y-55249500D01*
X153695326Y-55249500D01*
X153695323Y-55249500D01*
X153622264Y-55264032D01*
X153622260Y-55264033D01*
X153539399Y-55319399D01*
X153484033Y-55402260D01*
X153484032Y-55402264D01*
X153469500Y-55475321D01*
X120350500Y-55475321D01*
X120350500Y-51320943D01*
X139199500Y-51320943D01*
X139199500Y-51479057D01*
X139228543Y-51587445D01*
X139240423Y-51631783D01*
X139240426Y-51631790D01*
X139319475Y-51768709D01*
X139319479Y-51768714D01*
X139319480Y-51768716D01*
X139431284Y-51880520D01*
X139431286Y-51880521D01*
X139431290Y-51880524D01*
X139568209Y-51959573D01*
X139568216Y-51959577D01*
X139720943Y-52000500D01*
X139720945Y-52000500D01*
X139879055Y-52000500D01*
X139879057Y-52000500D01*
X140031784Y-51959577D01*
X140168716Y-51880520D01*
X140280520Y-51768716D01*
X140359577Y-51631784D01*
X140400500Y-51479057D01*
X140400500Y-51420943D01*
X144299500Y-51420943D01*
X144299500Y-51579056D01*
X144340423Y-51731783D01*
X144340426Y-51731790D01*
X144419475Y-51868709D01*
X144419479Y-51868714D01*
X144419480Y-51868716D01*
X144531284Y-51980520D01*
X144531286Y-51980521D01*
X144531290Y-51980524D01*
X144668209Y-52059573D01*
X144668216Y-52059577D01*
X144820943Y-52100500D01*
X144820945Y-52100500D01*
X144979055Y-52100500D01*
X144979057Y-52100500D01*
X145131784Y-52059577D01*
X145268716Y-51980520D01*
X145380520Y-51868716D01*
X145459577Y-51731784D01*
X145500500Y-51579057D01*
X145500500Y-51420943D01*
X145459577Y-51268216D01*
X145382963Y-51135515D01*
X145380522Y-51131287D01*
X145380518Y-51131282D01*
X145327625Y-51078389D01*
X155299500Y-51078389D01*
X155299500Y-51251611D01*
X155302130Y-51268216D01*
X155326319Y-51420943D01*
X155326598Y-51422701D01*
X155380127Y-51587445D01*
X155458768Y-51741788D01*
X155560586Y-51881928D01*
X155683072Y-52004414D01*
X155823212Y-52106232D01*
X155977555Y-52184873D01*
X156142299Y-52238402D01*
X156313389Y-52265500D01*
X156313390Y-52265500D01*
X156486610Y-52265500D01*
X156486611Y-52265500D01*
X156657701Y-52238402D01*
X156822445Y-52184873D01*
X156976788Y-52106232D01*
X157116928Y-52004414D01*
X157239414Y-51881928D01*
X157341232Y-51741788D01*
X157419873Y-51587445D01*
X157473402Y-51422701D01*
X157500500Y-51251611D01*
X157500500Y-51078389D01*
X157473402Y-50907299D01*
X157419873Y-50742555D01*
X157341232Y-50588212D01*
X157239414Y-50448072D01*
X157116928Y-50325586D01*
X156976788Y-50223768D01*
X156822445Y-50145127D01*
X156657701Y-50091598D01*
X156657699Y-50091597D01*
X156657698Y-50091597D01*
X156526271Y-50070781D01*
X156486611Y-50064500D01*
X156313389Y-50064500D01*
X156273728Y-50070781D01*
X156142302Y-50091597D01*
X155977552Y-50145128D01*
X155823211Y-50223768D01*
X155743256Y-50281859D01*
X155683072Y-50325586D01*
X155683070Y-50325588D01*
X155683069Y-50325588D01*
X155560588Y-50448069D01*
X155560588Y-50448070D01*
X155560586Y-50448072D01*
X155516859Y-50508256D01*
X155458768Y-50588211D01*
X155380128Y-50742552D01*
X155326597Y-50907302D01*
X155321351Y-50940426D01*
X155299500Y-51078389D01*
X145327625Y-51078389D01*
X145268717Y-51019481D01*
X145268709Y-51019475D01*
X145131790Y-50940426D01*
X145131786Y-50940424D01*
X145131784Y-50940423D01*
X144979057Y-50899500D01*
X144820943Y-50899500D01*
X144668216Y-50940423D01*
X144668209Y-50940426D01*
X144531290Y-51019475D01*
X144531282Y-51019481D01*
X144419481Y-51131282D01*
X144419475Y-51131290D01*
X144340426Y-51268209D01*
X144340423Y-51268216D01*
X144299500Y-51420943D01*
X140400500Y-51420943D01*
X140400500Y-51320943D01*
X140359577Y-51168216D01*
X140359573Y-51168209D01*
X140280524Y-51031290D01*
X140280518Y-51031282D01*
X140168717Y-50919481D01*
X140168709Y-50919475D01*
X140031790Y-50840426D01*
X140031786Y-50840424D01*
X140031784Y-50840423D01*
X139879057Y-50799500D01*
X139720943Y-50799500D01*
X139568216Y-50840423D01*
X139568209Y-50840426D01*
X139431290Y-50919475D01*
X139431282Y-50919481D01*
X139319481Y-51031282D01*
X139319475Y-51031290D01*
X139240426Y-51168209D01*
X139240423Y-51168216D01*
X139199500Y-51320943D01*
X120350500Y-51320943D01*
X120350500Y-47520943D01*
X137499500Y-47520943D01*
X137499500Y-47679057D01*
X137522831Y-47766127D01*
X137540423Y-47831783D01*
X137540426Y-47831790D01*
X137619475Y-47968709D01*
X137619479Y-47968714D01*
X137619480Y-47968716D01*
X137731284Y-48080520D01*
X137731286Y-48080521D01*
X137731290Y-48080524D01*
X137821743Y-48132746D01*
X137868216Y-48159577D01*
X138020943Y-48200500D01*
X138020945Y-48200500D01*
X138179055Y-48200500D01*
X138179057Y-48200500D01*
X138331784Y-48159577D01*
X138468716Y-48080520D01*
X138580520Y-47968716D01*
X138659577Y-47831784D01*
X138700500Y-47679057D01*
X138700500Y-47520943D01*
X138659577Y-47368216D01*
X138659573Y-47368209D01*
X138580524Y-47231290D01*
X138580518Y-47231282D01*
X138468717Y-47119481D01*
X138468709Y-47119475D01*
X138331790Y-47040426D01*
X138331786Y-47040424D01*
X138331784Y-47040423D01*
X138179057Y-46999500D01*
X138020943Y-46999500D01*
X137868216Y-47040423D01*
X137868209Y-47040426D01*
X137731290Y-47119475D01*
X137731282Y-47119481D01*
X137619481Y-47231282D01*
X137619475Y-47231290D01*
X137540426Y-47368209D01*
X137540423Y-47368216D01*
X137499500Y-47520943D01*
X120350500Y-47520943D01*
X120350500Y-46840943D01*
X145774500Y-46840943D01*
X145774500Y-46999057D01*
X145814693Y-47149057D01*
X145815423Y-47151783D01*
X145815426Y-47151790D01*
X145894475Y-47288709D01*
X145894479Y-47288714D01*
X145894480Y-47288716D01*
X146006284Y-47400520D01*
X146143216Y-47479577D01*
X146143217Y-47479577D01*
X146147793Y-47482219D01*
X146196009Y-47532786D01*
X146209233Y-47601393D01*
X146183265Y-47666258D01*
X146173476Y-47677288D01*
X146119478Y-47731286D01*
X146119475Y-47731290D01*
X146040426Y-47868209D01*
X146040423Y-47868216D01*
X145999500Y-48020943D01*
X145999500Y-48179057D01*
X146005246Y-48200499D01*
X146040423Y-48331783D01*
X146040423Y-48331784D01*
X146101746Y-48438001D01*
X146118217Y-48505902D01*
X146101746Y-48561999D01*
X146040423Y-48668215D01*
X146040423Y-48668216D01*
X145999500Y-48820943D01*
X145999500Y-48979057D01*
X146036013Y-49115323D01*
X146040423Y-49131783D01*
X146040426Y-49131790D01*
X146119475Y-49268709D01*
X146119479Y-49268714D01*
X146119480Y-49268716D01*
X146231284Y-49380520D01*
X146231286Y-49380521D01*
X146231290Y-49380524D01*
X146368209Y-49459573D01*
X146368216Y-49459577D01*
X146520943Y-49500500D01*
X146520945Y-49500500D01*
X146679055Y-49500500D01*
X146679057Y-49500500D01*
X146831784Y-49459577D01*
X146968716Y-49380520D01*
X147080520Y-49268716D01*
X147159577Y-49131784D01*
X147200500Y-48979057D01*
X147200500Y-48820943D01*
X147159577Y-48668216D01*
X147159573Y-48668209D01*
X147098254Y-48561999D01*
X147081781Y-48494099D01*
X147098254Y-48438001D01*
X147135853Y-48372873D01*
X147159577Y-48331784D01*
X147196923Y-48192404D01*
X147233287Y-48132746D01*
X147296134Y-48102217D01*
X147316697Y-48100500D01*
X147479055Y-48100500D01*
X147479057Y-48100500D01*
X147631784Y-48059577D01*
X147768716Y-47980520D01*
X147812319Y-47936917D01*
X147873642Y-47903432D01*
X147943334Y-47908416D01*
X147987681Y-47936917D01*
X148031284Y-47980520D01*
X148031286Y-47980521D01*
X148031290Y-47980524D01*
X148101299Y-48020943D01*
X148168216Y-48059577D01*
X148320943Y-48100500D01*
X148320945Y-48100500D01*
X148479055Y-48100500D01*
X148479057Y-48100500D01*
X148631784Y-48059577D01*
X148698701Y-48020943D01*
X148768707Y-47980526D01*
X148768711Y-47980522D01*
X148768716Y-47980520D01*
X148768719Y-47980516D01*
X148774421Y-47976141D01*
X148839588Y-47950943D01*
X148908034Y-47964976D01*
X148937595Y-47986831D01*
X149031284Y-48080520D01*
X149031286Y-48080521D01*
X149031290Y-48080524D01*
X149121743Y-48132746D01*
X149168216Y-48159577D01*
X149320943Y-48200500D01*
X149320945Y-48200500D01*
X149479055Y-48200500D01*
X149479057Y-48200500D01*
X149631784Y-48159577D01*
X149768716Y-48080520D01*
X149880520Y-47968716D01*
X149959577Y-47831784D01*
X149981405Y-47750321D01*
X155299500Y-47750321D01*
X155299500Y-49499678D01*
X155314032Y-49572735D01*
X155314033Y-49572739D01*
X155314034Y-49572740D01*
X155369399Y-49655601D01*
X155452260Y-49710966D01*
X155452264Y-49710967D01*
X155525321Y-49725499D01*
X155525324Y-49725500D01*
X155525326Y-49725500D01*
X157274676Y-49725500D01*
X157274677Y-49725499D01*
X157347740Y-49710966D01*
X157430601Y-49655601D01*
X157485966Y-49572740D01*
X157500500Y-49499674D01*
X157500500Y-47750326D01*
X157500500Y-47750323D01*
X157500499Y-47750321D01*
X157485967Y-47677264D01*
X157485966Y-47677260D01*
X157447359Y-47619480D01*
X157430601Y-47594399D01*
X157347740Y-47539034D01*
X157347739Y-47539033D01*
X157347735Y-47539032D01*
X157274677Y-47524500D01*
X157274674Y-47524500D01*
X155525326Y-47524500D01*
X155525323Y-47524500D01*
X155452264Y-47539032D01*
X155452260Y-47539033D01*
X155369399Y-47594399D01*
X155314033Y-47677260D01*
X155314032Y-47677264D01*
X155299500Y-47750321D01*
X149981405Y-47750321D01*
X150000500Y-47679057D01*
X150000500Y-47520943D01*
X149959577Y-47368216D01*
X149959573Y-47368209D01*
X149880524Y-47231290D01*
X149880518Y-47231282D01*
X149768717Y-47119481D01*
X149768709Y-47119475D01*
X149631790Y-47040426D01*
X149631786Y-47040424D01*
X149631784Y-47040423D01*
X149479057Y-46999500D01*
X149320943Y-46999500D01*
X149168216Y-47040423D01*
X149168209Y-47040426D01*
X149031288Y-47119476D01*
X149025569Y-47123865D01*
X148960399Y-47149057D01*
X148891955Y-47135017D01*
X148862404Y-47113168D01*
X148768717Y-47019481D01*
X148768709Y-47019475D01*
X148631790Y-46940426D01*
X148631786Y-46940424D01*
X148631784Y-46940423D01*
X148559084Y-46920943D01*
X152699500Y-46920943D01*
X152699500Y-47079057D01*
X152740289Y-47231282D01*
X152740423Y-47231783D01*
X152740426Y-47231790D01*
X152819475Y-47368709D01*
X152819479Y-47368714D01*
X152819480Y-47368716D01*
X152931284Y-47480520D01*
X152931286Y-47480521D01*
X152931290Y-47480524D01*
X153032632Y-47539033D01*
X153068216Y-47559577D01*
X153220943Y-47600500D01*
X153220945Y-47600500D01*
X153379055Y-47600500D01*
X153379057Y-47600500D01*
X153531784Y-47559577D01*
X153668716Y-47480520D01*
X153780520Y-47368716D01*
X153794932Y-47343753D01*
X162050000Y-47343753D01*
X162050000Y-47556246D01*
X162083242Y-47766127D01*
X162083242Y-47766130D01*
X162148904Y-47968217D01*
X162245375Y-48157550D01*
X162284728Y-48211716D01*
X162917037Y-47579408D01*
X162934075Y-47642993D01*
X162999901Y-47757007D01*
X163092993Y-47850099D01*
X163207007Y-47915925D01*
X163270590Y-47932962D01*
X162638282Y-48565269D01*
X162638282Y-48565270D01*
X162692450Y-48604624D01*
X162791345Y-48655015D01*
X162842141Y-48702990D01*
X162858936Y-48770811D01*
X162836398Y-48836946D01*
X162781683Y-48880397D01*
X162735050Y-48889500D01*
X162525323Y-48889500D01*
X162452264Y-48904032D01*
X162452260Y-48904033D01*
X162369399Y-48959399D01*
X162314033Y-49042260D01*
X162314032Y-49042264D01*
X162299500Y-49115321D01*
X162299500Y-50864678D01*
X162314032Y-50937735D01*
X162314033Y-50937739D01*
X162332405Y-50965235D01*
X162369399Y-51020601D01*
X162452260Y-51075966D01*
X162452264Y-51075967D01*
X162525321Y-51090499D01*
X162525324Y-51090500D01*
X162525326Y-51090500D01*
X164274676Y-51090500D01*
X164274677Y-51090499D01*
X164347740Y-51075966D01*
X164430601Y-51020601D01*
X164485966Y-50937740D01*
X164500500Y-50864674D01*
X164500500Y-49115326D01*
X164500500Y-49115323D01*
X164500499Y-49115321D01*
X164485967Y-49042264D01*
X164485966Y-49042260D01*
X164430601Y-48959399D01*
X164347740Y-48904034D01*
X164347739Y-48904033D01*
X164347735Y-48904032D01*
X164274677Y-48889500D01*
X164274674Y-48889500D01*
X164064950Y-48889500D01*
X163997911Y-48869815D01*
X163952156Y-48817011D01*
X163942212Y-48747853D01*
X163971237Y-48684297D01*
X164008655Y-48655015D01*
X164107554Y-48604622D01*
X164161716Y-48565270D01*
X164161717Y-48565270D01*
X163529408Y-47932962D01*
X163592993Y-47915925D01*
X163707007Y-47850099D01*
X163800099Y-47757007D01*
X163865925Y-47642993D01*
X163882962Y-47579408D01*
X164515270Y-48211717D01*
X164515270Y-48211716D01*
X164554622Y-48157554D01*
X164651095Y-47968217D01*
X164716757Y-47766130D01*
X164716757Y-47766127D01*
X164750000Y-47556246D01*
X164750000Y-47343753D01*
X164716757Y-47133872D01*
X164716757Y-47133869D01*
X164651095Y-46931782D01*
X164554624Y-46742449D01*
X164515270Y-46688282D01*
X164515269Y-46688282D01*
X163882962Y-47320590D01*
X163865925Y-47257007D01*
X163800099Y-47142993D01*
X163707007Y-47049901D01*
X163592993Y-46984075D01*
X163529409Y-46967037D01*
X164161716Y-46334728D01*
X164107550Y-46295375D01*
X163918217Y-46198904D01*
X163819287Y-46166760D01*
X163761611Y-46127323D01*
X163734413Y-46062964D01*
X163746328Y-45994118D01*
X163793572Y-45942642D01*
X163819290Y-45930897D01*
X163822445Y-45929873D01*
X163976788Y-45851232D01*
X164116928Y-45749414D01*
X164239414Y-45626928D01*
X164341232Y-45486788D01*
X164419873Y-45332445D01*
X164473402Y-45167701D01*
X164500500Y-44996611D01*
X164500500Y-44823389D01*
X164473402Y-44652299D01*
X164419873Y-44487555D01*
X164341232Y-44333212D01*
X164239414Y-44193072D01*
X164116928Y-44070586D01*
X163976788Y-43968768D01*
X163822445Y-43890127D01*
X163657701Y-43836598D01*
X163657699Y-43836597D01*
X163657698Y-43836597D01*
X163526271Y-43815781D01*
X163486611Y-43809500D01*
X163313389Y-43809500D01*
X163273728Y-43815781D01*
X163142302Y-43836597D01*
X162977552Y-43890128D01*
X162823211Y-43968768D01*
X162743256Y-44026859D01*
X162683072Y-44070586D01*
X162683070Y-44070588D01*
X162683069Y-44070588D01*
X162560588Y-44193069D01*
X162560588Y-44193070D01*
X162560586Y-44193072D01*
X162518632Y-44250816D01*
X162458768Y-44333211D01*
X162380128Y-44487552D01*
X162326597Y-44652302D01*
X162299500Y-44823389D01*
X162299500Y-44996610D01*
X162326362Y-45166216D01*
X162326598Y-45167701D01*
X162380127Y-45332445D01*
X162458768Y-45486788D01*
X162560586Y-45626928D01*
X162683072Y-45749414D01*
X162823212Y-45851232D01*
X162977555Y-45929873D01*
X162980708Y-45930897D01*
X162981752Y-45931611D01*
X162982048Y-45931734D01*
X162982022Y-45931795D01*
X163038383Y-45970330D01*
X163065585Y-46034688D01*
X163053674Y-46103535D01*
X163006433Y-46155013D01*
X162980712Y-46166760D01*
X162881783Y-46198904D01*
X162692439Y-46295380D01*
X162638282Y-46334727D01*
X162638282Y-46334728D01*
X163270591Y-46967037D01*
X163207007Y-46984075D01*
X163092993Y-47049901D01*
X162999901Y-47142993D01*
X162934075Y-47257007D01*
X162917037Y-47320591D01*
X162284728Y-46688282D01*
X162284727Y-46688282D01*
X162245380Y-46742439D01*
X162148904Y-46931782D01*
X162083242Y-47133869D01*
X162083242Y-47133872D01*
X162050000Y-47343753D01*
X153794932Y-47343753D01*
X153826712Y-47288709D01*
X153833541Y-47276881D01*
X153842511Y-47261343D01*
X153859577Y-47231784D01*
X153900500Y-47079057D01*
X153900500Y-46920943D01*
X153859577Y-46768216D01*
X153813428Y-46688282D01*
X153780524Y-46631290D01*
X153780518Y-46631282D01*
X153668717Y-46519481D01*
X153668709Y-46519475D01*
X153531790Y-46440426D01*
X153531786Y-46440424D01*
X153531784Y-46440423D01*
X153379057Y-46399500D01*
X153220943Y-46399500D01*
X153068216Y-46440423D01*
X153068209Y-46440426D01*
X152931290Y-46519475D01*
X152931282Y-46519481D01*
X152819481Y-46631282D01*
X152819475Y-46631290D01*
X152740426Y-46768209D01*
X152740423Y-46768216D01*
X152699500Y-46920943D01*
X148559084Y-46920943D01*
X148479057Y-46899500D01*
X148320943Y-46899500D01*
X148168216Y-46940423D01*
X148168209Y-46940426D01*
X148031290Y-47019475D01*
X148031282Y-47019481D01*
X147987681Y-47063083D01*
X147926358Y-47096568D01*
X147856666Y-47091584D01*
X147812319Y-47063083D01*
X147768717Y-47019481D01*
X147768709Y-47019475D01*
X147631790Y-46940426D01*
X147631786Y-46940424D01*
X147631784Y-46940423D01*
X147479057Y-46899500D01*
X147320943Y-46899500D01*
X147168216Y-46940423D01*
X147168213Y-46940424D01*
X147161497Y-46944302D01*
X147093597Y-46960772D01*
X147027570Y-46937919D01*
X146984381Y-46882996D01*
X146977798Y-46848840D01*
X146976561Y-46849003D01*
X146975500Y-46840950D01*
X146975500Y-46840943D01*
X146934577Y-46688216D01*
X146901708Y-46631284D01*
X146855524Y-46551290D01*
X146855518Y-46551282D01*
X146743717Y-46439481D01*
X146743709Y-46439475D01*
X146606790Y-46360426D01*
X146606786Y-46360424D01*
X146606784Y-46360423D01*
X146454057Y-46319500D01*
X146295943Y-46319500D01*
X146143216Y-46360423D01*
X146143209Y-46360426D01*
X146006290Y-46439475D01*
X146006282Y-46439481D01*
X145894481Y-46551282D01*
X145894475Y-46551290D01*
X145815426Y-46688209D01*
X145815423Y-46688216D01*
X145774500Y-46840943D01*
X120350500Y-46840943D01*
X120350500Y-46120943D01*
X137099500Y-46120943D01*
X137099500Y-46279057D01*
X137103873Y-46295375D01*
X137140423Y-46431783D01*
X137140426Y-46431790D01*
X137219475Y-46568709D01*
X137219479Y-46568714D01*
X137219480Y-46568716D01*
X137331284Y-46680520D01*
X137331286Y-46680521D01*
X137331290Y-46680524D01*
X137438532Y-46742439D01*
X137468216Y-46759577D01*
X137620943Y-46800500D01*
X137620945Y-46800500D01*
X137779055Y-46800500D01*
X137779057Y-46800500D01*
X137931784Y-46759577D01*
X137990932Y-46725427D01*
X137990935Y-46725427D01*
X138068709Y-46680524D01*
X138068708Y-46680524D01*
X138068716Y-46680520D01*
X138180520Y-46568716D01*
X138259577Y-46431784D01*
X138300500Y-46279057D01*
X138300500Y-46120943D01*
X138259577Y-45968216D01*
X138238443Y-45931611D01*
X138180524Y-45831290D01*
X138180518Y-45831282D01*
X138068717Y-45719481D01*
X138068709Y-45719475D01*
X137931790Y-45640426D01*
X137931786Y-45640424D01*
X137931784Y-45640423D01*
X137779057Y-45599500D01*
X137620943Y-45599500D01*
X137468216Y-45640423D01*
X137468209Y-45640426D01*
X137331290Y-45719475D01*
X137331282Y-45719481D01*
X137219481Y-45831282D01*
X137219475Y-45831290D01*
X137140426Y-45968209D01*
X137140423Y-45968216D01*
X137099500Y-46120943D01*
X120350500Y-46120943D01*
X120350500Y-45120943D01*
X129699500Y-45120943D01*
X129699500Y-45279057D01*
X129731373Y-45398007D01*
X129740423Y-45431783D01*
X129740426Y-45431790D01*
X129819475Y-45568709D01*
X129819479Y-45568714D01*
X129819480Y-45568716D01*
X129931284Y-45680520D01*
X129931286Y-45680521D01*
X129931290Y-45680524D01*
X129998765Y-45719480D01*
X130068216Y-45759577D01*
X130220943Y-45800500D01*
X130220945Y-45800500D01*
X130379055Y-45800500D01*
X130379057Y-45800500D01*
X130531784Y-45759577D01*
X130668716Y-45680520D01*
X130780520Y-45568716D01*
X130859577Y-45431784D01*
X130900500Y-45279057D01*
X130900500Y-45120943D01*
X130873705Y-45020943D01*
X138599500Y-45020943D01*
X138599500Y-45179057D01*
X138626295Y-45279055D01*
X138640423Y-45331783D01*
X138640426Y-45331790D01*
X138719475Y-45468709D01*
X138719479Y-45468714D01*
X138719480Y-45468716D01*
X138831284Y-45580520D01*
X138831286Y-45580521D01*
X138831290Y-45580524D01*
X138911667Y-45626929D01*
X138968216Y-45659577D01*
X139120943Y-45700500D01*
X139120945Y-45700500D01*
X139279055Y-45700500D01*
X139279057Y-45700500D01*
X139431784Y-45659577D01*
X139568716Y-45580520D01*
X139680520Y-45468716D01*
X139759577Y-45331784D01*
X139800500Y-45179057D01*
X139800500Y-45020943D01*
X146499500Y-45020943D01*
X146499500Y-45179057D01*
X146526295Y-45279055D01*
X146540423Y-45331783D01*
X146540426Y-45331790D01*
X146619475Y-45468709D01*
X146619479Y-45468714D01*
X146619480Y-45468716D01*
X146731284Y-45580520D01*
X146731286Y-45580521D01*
X146731290Y-45580524D01*
X146811667Y-45626929D01*
X146868216Y-45659577D01*
X147020943Y-45700500D01*
X147020945Y-45700500D01*
X147179055Y-45700500D01*
X147179057Y-45700500D01*
X147331784Y-45659577D01*
X147468716Y-45580520D01*
X147580520Y-45468716D01*
X147659577Y-45331784D01*
X147700500Y-45179057D01*
X147700500Y-45020943D01*
X147659577Y-44868216D01*
X147595088Y-44756517D01*
X147580522Y-44731287D01*
X147580518Y-44731282D01*
X147567686Y-44718450D01*
X148804486Y-44718450D01*
X148804486Y-44876564D01*
X148837695Y-45000500D01*
X148845409Y-45029290D01*
X148845412Y-45029297D01*
X148924461Y-45166216D01*
X148924465Y-45166221D01*
X148924466Y-45166223D01*
X149036270Y-45278027D01*
X149036272Y-45278028D01*
X149036276Y-45278031D01*
X149130529Y-45332447D01*
X149173202Y-45357084D01*
X149325929Y-45398007D01*
X149325931Y-45398007D01*
X149484041Y-45398007D01*
X149484043Y-45398007D01*
X149636770Y-45357084D01*
X149773702Y-45278027D01*
X149885506Y-45166223D01*
X149964563Y-45029291D01*
X150005486Y-44876564D01*
X150005486Y-44718450D01*
X149964563Y-44565723D01*
X149949956Y-44540423D01*
X149885510Y-44428797D01*
X149885507Y-44428793D01*
X149885506Y-44428791D01*
X149885503Y-44428788D01*
X149880560Y-44422346D01*
X149883212Y-44420310D01*
X149857171Y-44372618D01*
X149862155Y-44302926D01*
X149890652Y-44258583D01*
X149980520Y-44168716D01*
X150059577Y-44031784D01*
X150089277Y-43920943D01*
X152799500Y-43920943D01*
X152799500Y-44079057D01*
X152830050Y-44193069D01*
X152840423Y-44231783D01*
X152840426Y-44231790D01*
X152919475Y-44368709D01*
X152919479Y-44368714D01*
X152919480Y-44368716D01*
X153031284Y-44480520D01*
X153031286Y-44480521D01*
X153031290Y-44480524D01*
X153135040Y-44540423D01*
X153168216Y-44559577D01*
X153320943Y-44600500D01*
X153320945Y-44600500D01*
X153479055Y-44600500D01*
X153479057Y-44600500D01*
X153631784Y-44559577D01*
X153768716Y-44480520D01*
X153880520Y-44368716D01*
X153908102Y-44320943D01*
X157699500Y-44320943D01*
X157699500Y-44479057D01*
X157737127Y-44619481D01*
X157740423Y-44631783D01*
X157740426Y-44631790D01*
X157819475Y-44768709D01*
X157819479Y-44768714D01*
X157819480Y-44768716D01*
X157931284Y-44880520D01*
X157931286Y-44880521D01*
X157931290Y-44880524D01*
X158068209Y-44959573D01*
X158068216Y-44959577D01*
X158220943Y-45000500D01*
X158220945Y-45000500D01*
X158379055Y-45000500D01*
X158379057Y-45000500D01*
X158531784Y-44959577D01*
X158668716Y-44880520D01*
X158780520Y-44768716D01*
X158859577Y-44631784D01*
X158900500Y-44479057D01*
X158900500Y-44320943D01*
X158859577Y-44168216D01*
X158808101Y-44079056D01*
X158780524Y-44031290D01*
X158780518Y-44031282D01*
X158668717Y-43919481D01*
X158668709Y-43919475D01*
X158531790Y-43840426D01*
X158531786Y-43840424D01*
X158531784Y-43840423D01*
X158379057Y-43799500D01*
X158220943Y-43799500D01*
X158068216Y-43840423D01*
X158068209Y-43840426D01*
X157931290Y-43919475D01*
X157931282Y-43919481D01*
X157819481Y-44031282D01*
X157819475Y-44031290D01*
X157740426Y-44168209D01*
X157740423Y-44168216D01*
X157699500Y-44320943D01*
X153908102Y-44320943D01*
X153959577Y-44231784D01*
X154000500Y-44079057D01*
X154000500Y-43920943D01*
X153959577Y-43768216D01*
X153941658Y-43737179D01*
X153925185Y-43669278D01*
X153948038Y-43603252D01*
X153963712Y-43587010D01*
X153962969Y-43586267D01*
X153981027Y-43568209D01*
X154080520Y-43468716D01*
X154159577Y-43331784D01*
X154200500Y-43179057D01*
X154200500Y-43020943D01*
X154159577Y-42868216D01*
X154154589Y-42859577D01*
X154132284Y-42820943D01*
X157299500Y-42820943D01*
X157299500Y-42979057D01*
X157336922Y-43118716D01*
X157340423Y-43131783D01*
X157340426Y-43131790D01*
X157419475Y-43268709D01*
X157419479Y-43268714D01*
X157419480Y-43268716D01*
X157531284Y-43380520D01*
X157531286Y-43380521D01*
X157531290Y-43380524D01*
X157619221Y-43431290D01*
X157668216Y-43459577D01*
X157820943Y-43500500D01*
X157820945Y-43500500D01*
X157979055Y-43500500D01*
X157979057Y-43500500D01*
X158131784Y-43459577D01*
X158268716Y-43380520D01*
X158380520Y-43268716D01*
X158459577Y-43131784D01*
X158500500Y-42979057D01*
X158500500Y-42820943D01*
X158459577Y-42668216D01*
X158431437Y-42619475D01*
X158380524Y-42531290D01*
X158380518Y-42531282D01*
X158268717Y-42419481D01*
X158268712Y-42419477D01*
X158210563Y-42385905D01*
X158210562Y-42385905D01*
X158131784Y-42340423D01*
X157979057Y-42299500D01*
X157820943Y-42299500D01*
X157668216Y-42340423D01*
X157668209Y-42340426D01*
X157531290Y-42419475D01*
X157531282Y-42419481D01*
X157419481Y-42531282D01*
X157419475Y-42531290D01*
X157340426Y-42668209D01*
X157340423Y-42668216D01*
X157299500Y-42820943D01*
X154132284Y-42820943D01*
X154080522Y-42731287D01*
X154080518Y-42731282D01*
X153968717Y-42619481D01*
X153968709Y-42619475D01*
X153831790Y-42540426D01*
X153831786Y-42540424D01*
X153831784Y-42540423D01*
X153679057Y-42499500D01*
X153520943Y-42499500D01*
X153368216Y-42540423D01*
X153368209Y-42540426D01*
X153231290Y-42619475D01*
X153231282Y-42619481D01*
X153119481Y-42731282D01*
X153119475Y-42731290D01*
X153040426Y-42868209D01*
X153040426Y-42868210D01*
X153040423Y-42868216D01*
X152999500Y-43020943D01*
X152999500Y-43179057D01*
X153037127Y-43319481D01*
X153040423Y-43331783D01*
X153040423Y-43331784D01*
X153058342Y-43362821D01*
X153074813Y-43430722D01*
X153051961Y-43496748D01*
X153036291Y-43512993D01*
X153037031Y-43513733D01*
X152919481Y-43631282D01*
X152919475Y-43631290D01*
X152840426Y-43768209D01*
X152840423Y-43768216D01*
X152799500Y-43920943D01*
X150089277Y-43920943D01*
X150100500Y-43879057D01*
X150100500Y-43720943D01*
X150059577Y-43568216D01*
X150028122Y-43513733D01*
X149980524Y-43431290D01*
X149980518Y-43431282D01*
X149868717Y-43319481D01*
X149868709Y-43319475D01*
X149731790Y-43240426D01*
X149731786Y-43240424D01*
X149731784Y-43240423D01*
X149579057Y-43199500D01*
X149420943Y-43199500D01*
X149268216Y-43240423D01*
X149268209Y-43240426D01*
X149131290Y-43319475D01*
X149131282Y-43319481D01*
X149019481Y-43431282D01*
X149019475Y-43431290D01*
X148940426Y-43568209D01*
X148940423Y-43568216D01*
X148899500Y-43720943D01*
X148899500Y-43879057D01*
X148940289Y-44031282D01*
X148940423Y-44031783D01*
X148940426Y-44031790D01*
X149019475Y-44168709D01*
X149024426Y-44175161D01*
X149021772Y-44177197D01*
X149047814Y-44224888D01*
X149042830Y-44294580D01*
X149014330Y-44338927D01*
X148924464Y-44428793D01*
X148924461Y-44428797D01*
X148845412Y-44565716D01*
X148845409Y-44565723D01*
X148804486Y-44718450D01*
X147567686Y-44718450D01*
X147468717Y-44619481D01*
X147468709Y-44619475D01*
X147331790Y-44540426D01*
X147331786Y-44540424D01*
X147331784Y-44540423D01*
X147179057Y-44499500D01*
X147020943Y-44499500D01*
X146868216Y-44540423D01*
X146868209Y-44540426D01*
X146731290Y-44619475D01*
X146731282Y-44619481D01*
X146619481Y-44731282D01*
X146619475Y-44731290D01*
X146540426Y-44868209D01*
X146540423Y-44868216D01*
X146499500Y-45020943D01*
X139800500Y-45020943D01*
X139759577Y-44868216D01*
X139738258Y-44831290D01*
X139680524Y-44731290D01*
X139680518Y-44731282D01*
X139568717Y-44619481D01*
X139568709Y-44619475D01*
X139431790Y-44540426D01*
X139431786Y-44540424D01*
X139431784Y-44540423D01*
X139279057Y-44499500D01*
X139120943Y-44499500D01*
X138968216Y-44540423D01*
X138968209Y-44540426D01*
X138831290Y-44619475D01*
X138831282Y-44619481D01*
X138719481Y-44731282D01*
X138719475Y-44731290D01*
X138640426Y-44868209D01*
X138640423Y-44868216D01*
X138599500Y-45020943D01*
X130873705Y-45020943D01*
X130859577Y-44968216D01*
X130854587Y-44959573D01*
X130780524Y-44831290D01*
X130780518Y-44831282D01*
X130668717Y-44719481D01*
X130668709Y-44719475D01*
X130531790Y-44640426D01*
X130531786Y-44640424D01*
X130531784Y-44640423D01*
X130379057Y-44599500D01*
X130220943Y-44599500D01*
X130068216Y-44640423D01*
X130068209Y-44640426D01*
X129931290Y-44719475D01*
X129931282Y-44719481D01*
X129819481Y-44831282D01*
X129819475Y-44831290D01*
X129740426Y-44968209D01*
X129740423Y-44968216D01*
X129699500Y-45120943D01*
X120350500Y-45120943D01*
X120350500Y-44320943D01*
X143999500Y-44320943D01*
X143999500Y-44479057D01*
X144037127Y-44619481D01*
X144040423Y-44631783D01*
X144040426Y-44631790D01*
X144119475Y-44768709D01*
X144119479Y-44768714D01*
X144119480Y-44768716D01*
X144231284Y-44880520D01*
X144231286Y-44880521D01*
X144231290Y-44880524D01*
X144368209Y-44959573D01*
X144368216Y-44959577D01*
X144520943Y-45000500D01*
X144520945Y-45000500D01*
X144679055Y-45000500D01*
X144679057Y-45000500D01*
X144831784Y-44959577D01*
X144968716Y-44880520D01*
X145080520Y-44768716D01*
X145159577Y-44631784D01*
X145185198Y-44536163D01*
X145221562Y-44476505D01*
X145284409Y-44445976D01*
X145337062Y-44448483D01*
X145408700Y-44467679D01*
X145408703Y-44467679D01*
X145566812Y-44467679D01*
X145566814Y-44467679D01*
X145719541Y-44426756D01*
X145856473Y-44347699D01*
X145968277Y-44235895D01*
X146047334Y-44098963D01*
X146088257Y-43946236D01*
X146088257Y-43788122D01*
X146047334Y-43635395D01*
X146044959Y-43631282D01*
X145968281Y-43498469D01*
X145968275Y-43498461D01*
X145856474Y-43386660D01*
X145856466Y-43386654D01*
X145719547Y-43307605D01*
X145719543Y-43307603D01*
X145719541Y-43307602D01*
X145566814Y-43266679D01*
X145408700Y-43266679D01*
X145255973Y-43307602D01*
X145255966Y-43307605D01*
X145119047Y-43386654D01*
X145119039Y-43386660D01*
X145007238Y-43498461D01*
X145007232Y-43498469D01*
X144928183Y-43635388D01*
X144928180Y-43635393D01*
X144902559Y-43731013D01*
X144866193Y-43790674D01*
X144803346Y-43821202D01*
X144750691Y-43818694D01*
X144716378Y-43809500D01*
X144679057Y-43799500D01*
X144520943Y-43799500D01*
X144368216Y-43840423D01*
X144368209Y-43840426D01*
X144231290Y-43919475D01*
X144231282Y-43919481D01*
X144119481Y-44031282D01*
X144119475Y-44031290D01*
X144040426Y-44168209D01*
X144040423Y-44168216D01*
X143999500Y-44320943D01*
X120350500Y-44320943D01*
X120350500Y-41420943D01*
X142399500Y-41420943D01*
X142399500Y-41579057D01*
X142419332Y-41653069D01*
X142440423Y-41731783D01*
X142440426Y-41731790D01*
X142519475Y-41868709D01*
X142519479Y-41868714D01*
X142519480Y-41868716D01*
X142631284Y-41980520D01*
X142631286Y-41980521D01*
X142631290Y-41980524D01*
X142768209Y-42059573D01*
X142768216Y-42059577D01*
X142854915Y-42082807D01*
X142914573Y-42119170D01*
X142945103Y-42182017D01*
X142936809Y-42251392D01*
X142910502Y-42290262D01*
X142819478Y-42381286D01*
X142819475Y-42381290D01*
X142740426Y-42518209D01*
X142740423Y-42518216D01*
X142699500Y-42670943D01*
X142699500Y-42829057D01*
X142739693Y-42979057D01*
X142740423Y-42981783D01*
X142740426Y-42981790D01*
X142819475Y-43118709D01*
X142819479Y-43118714D01*
X142819480Y-43118716D01*
X142931284Y-43230520D01*
X142931286Y-43230521D01*
X142931290Y-43230524D01*
X143064795Y-43307602D01*
X143068216Y-43309577D01*
X143220943Y-43350500D01*
X143220945Y-43350500D01*
X143379055Y-43350500D01*
X143379057Y-43350500D01*
X143531784Y-43309577D01*
X143668716Y-43230520D01*
X143780520Y-43118716D01*
X143859577Y-42981784D01*
X143900500Y-42829057D01*
X143900500Y-42670943D01*
X143859577Y-42518216D01*
X143859573Y-42518209D01*
X143780524Y-42381290D01*
X143780518Y-42381282D01*
X143668717Y-42269481D01*
X143668709Y-42269475D01*
X143584648Y-42220943D01*
X149399500Y-42220943D01*
X149399500Y-42379057D01*
X149440289Y-42531282D01*
X149440423Y-42531783D01*
X149440426Y-42531790D01*
X149519475Y-42668709D01*
X149519479Y-42668714D01*
X149519480Y-42668716D01*
X149631284Y-42780520D01*
X149631286Y-42780521D01*
X149631290Y-42780524D01*
X149715353Y-42829057D01*
X149768216Y-42859577D01*
X149920943Y-42900500D01*
X149920945Y-42900500D01*
X150079055Y-42900500D01*
X150079057Y-42900500D01*
X150231784Y-42859577D01*
X150368716Y-42780520D01*
X150480520Y-42668716D01*
X150559577Y-42531784D01*
X150600500Y-42379057D01*
X150600500Y-42283389D01*
X162299500Y-42283389D01*
X162299500Y-42456610D01*
X162312774Y-42540423D01*
X162326598Y-42627701D01*
X162380127Y-42792445D01*
X162458768Y-42946788D01*
X162560586Y-43086928D01*
X162683072Y-43209414D01*
X162823212Y-43311232D01*
X162977555Y-43389873D01*
X163142299Y-43443402D01*
X163313389Y-43470500D01*
X163313390Y-43470500D01*
X163486610Y-43470500D01*
X163486611Y-43470500D01*
X163657701Y-43443402D01*
X163822445Y-43389873D01*
X163976788Y-43311232D01*
X164116928Y-43209414D01*
X164239414Y-43086928D01*
X164341232Y-42946788D01*
X164419873Y-42792445D01*
X164473402Y-42627701D01*
X164500500Y-42456611D01*
X164500500Y-42283389D01*
X164473402Y-42112299D01*
X164419873Y-41947555D01*
X164341232Y-41793212D01*
X164239414Y-41653072D01*
X164116928Y-41530586D01*
X163976788Y-41428768D01*
X163822445Y-41350127D01*
X163657701Y-41296598D01*
X163657699Y-41296597D01*
X163657698Y-41296597D01*
X163526271Y-41275781D01*
X163486611Y-41269500D01*
X163313389Y-41269500D01*
X163273728Y-41275781D01*
X163142302Y-41296597D01*
X162977552Y-41350128D01*
X162823211Y-41428768D01*
X162743256Y-41486859D01*
X162683072Y-41530586D01*
X162683070Y-41530588D01*
X162683069Y-41530588D01*
X162560588Y-41653069D01*
X162560588Y-41653070D01*
X162560586Y-41653072D01*
X162526854Y-41699500D01*
X162458768Y-41793211D01*
X162380128Y-41947552D01*
X162326597Y-42112302D01*
X162299500Y-42283389D01*
X150600500Y-42283389D01*
X150600500Y-42220943D01*
X150559577Y-42068216D01*
X150519388Y-41998606D01*
X150480524Y-41931290D01*
X150480518Y-41931282D01*
X150368717Y-41819481D01*
X150368709Y-41819475D01*
X150231790Y-41740426D01*
X150231786Y-41740424D01*
X150231784Y-41740423D01*
X150079057Y-41699500D01*
X149920943Y-41699500D01*
X149768216Y-41740423D01*
X149768209Y-41740426D01*
X149631290Y-41819475D01*
X149631282Y-41819481D01*
X149519481Y-41931282D01*
X149519475Y-41931290D01*
X149440426Y-42068209D01*
X149440423Y-42068216D01*
X149399500Y-42220943D01*
X143584648Y-42220943D01*
X143531790Y-42190426D01*
X143531786Y-42190424D01*
X143531784Y-42190423D01*
X143445084Y-42167191D01*
X143385425Y-42130828D01*
X143354896Y-42067981D01*
X143363191Y-41998606D01*
X143389493Y-41959742D01*
X143480520Y-41868716D01*
X143559577Y-41731784D01*
X143600500Y-41579057D01*
X143600500Y-41420943D01*
X143559577Y-41268216D01*
X143559573Y-41268209D01*
X143480524Y-41131290D01*
X143480518Y-41131282D01*
X143368717Y-41019481D01*
X143368709Y-41019475D01*
X143231790Y-40940426D01*
X143231786Y-40940424D01*
X143231784Y-40940423D01*
X143079057Y-40899500D01*
X142920943Y-40899500D01*
X142768216Y-40940423D01*
X142768209Y-40940426D01*
X142631290Y-41019475D01*
X142631282Y-41019481D01*
X142519481Y-41131282D01*
X142519475Y-41131290D01*
X142440426Y-41268209D01*
X142440423Y-41268216D01*
X142399500Y-41420943D01*
X120350500Y-41420943D01*
X120350500Y-38133753D01*
X123250000Y-38133753D01*
X123250000Y-38346246D01*
X123283242Y-38556127D01*
X123283242Y-38556130D01*
X123348904Y-38758217D01*
X123445375Y-38947550D01*
X123484728Y-39001716D01*
X124117037Y-38369408D01*
X124134075Y-38432993D01*
X124199901Y-38547007D01*
X124292993Y-38640099D01*
X124407007Y-38705925D01*
X124470590Y-38722962D01*
X123838282Y-39355269D01*
X123838282Y-39355270D01*
X123892449Y-39394624D01*
X124081782Y-39491095D01*
X124283870Y-39556757D01*
X124493754Y-39590000D01*
X124706246Y-39590000D01*
X124916127Y-39556757D01*
X124916130Y-39556757D01*
X125118217Y-39491095D01*
X125137421Y-39481310D01*
X148524500Y-39481310D01*
X148524500Y-39639424D01*
X148562307Y-39780520D01*
X148565423Y-39792150D01*
X148565426Y-39792157D01*
X148644475Y-39929076D01*
X148644479Y-39929081D01*
X148644480Y-39929083D01*
X148756284Y-40040887D01*
X148756286Y-40040888D01*
X148756290Y-40040891D01*
X148837362Y-40087697D01*
X148893216Y-40119944D01*
X149045943Y-40160867D01*
X149045945Y-40160867D01*
X149204055Y-40160867D01*
X149204057Y-40160867D01*
X149356784Y-40119944D01*
X149493716Y-40040887D01*
X149605520Y-39929083D01*
X149684577Y-39792151D01*
X149725500Y-39639424D01*
X149725500Y-39481310D01*
X149684577Y-39328583D01*
X149622432Y-39220943D01*
X152799500Y-39220943D01*
X152799500Y-39379057D01*
X152829521Y-39491095D01*
X152840423Y-39531783D01*
X152840426Y-39531790D01*
X152919475Y-39668709D01*
X152919479Y-39668714D01*
X152919480Y-39668716D01*
X153031284Y-39780520D01*
X153031286Y-39780521D01*
X153031290Y-39780524D01*
X153168209Y-39859573D01*
X153168216Y-39859577D01*
X153320943Y-39900500D01*
X153320945Y-39900500D01*
X153479055Y-39900500D01*
X153479057Y-39900500D01*
X153631784Y-39859577D01*
X153768716Y-39780520D01*
X153828293Y-39720943D01*
X157599500Y-39720943D01*
X157599500Y-39879057D01*
X157612905Y-39929083D01*
X157640423Y-40031783D01*
X157640426Y-40031790D01*
X157719475Y-40168709D01*
X157719479Y-40168714D01*
X157719480Y-40168716D01*
X157831284Y-40280520D01*
X157831286Y-40280521D01*
X157831290Y-40280524D01*
X157968209Y-40359573D01*
X157968216Y-40359577D01*
X158120943Y-40400500D01*
X158120945Y-40400500D01*
X158279055Y-40400500D01*
X158279057Y-40400500D01*
X158431784Y-40359577D01*
X158568716Y-40280520D01*
X158680520Y-40168716D01*
X158759577Y-40031784D01*
X158800500Y-39879057D01*
X158800500Y-39743389D01*
X162299500Y-39743389D01*
X162299500Y-39916610D01*
X162317742Y-40031790D01*
X162326598Y-40087701D01*
X162380127Y-40252445D01*
X162458768Y-40406788D01*
X162560586Y-40546928D01*
X162683072Y-40669414D01*
X162823212Y-40771232D01*
X162977555Y-40849873D01*
X163142299Y-40903402D01*
X163313389Y-40930500D01*
X163313390Y-40930500D01*
X163486610Y-40930500D01*
X163486611Y-40930500D01*
X163657701Y-40903402D01*
X163822445Y-40849873D01*
X163976788Y-40771232D01*
X164116928Y-40669414D01*
X164239414Y-40546928D01*
X164341232Y-40406788D01*
X164419873Y-40252445D01*
X164473402Y-40087701D01*
X164500500Y-39916611D01*
X164500500Y-39743389D01*
X164473402Y-39572299D01*
X164419873Y-39407555D01*
X164341232Y-39253212D01*
X164239414Y-39113072D01*
X164116928Y-38990586D01*
X163976788Y-38888768D01*
X163822445Y-38810127D01*
X163657701Y-38756598D01*
X163657699Y-38756597D01*
X163657698Y-38756597D01*
X163526271Y-38735781D01*
X163486611Y-38729500D01*
X163313389Y-38729500D01*
X163273728Y-38735781D01*
X163142302Y-38756597D01*
X162977552Y-38810128D01*
X162823211Y-38888768D01*
X162743256Y-38946859D01*
X162683072Y-38990586D01*
X162683070Y-38990588D01*
X162683069Y-38990588D01*
X162560588Y-39113069D01*
X162560588Y-39113070D01*
X162560586Y-39113072D01*
X162548519Y-39129681D01*
X162458768Y-39253211D01*
X162380128Y-39407552D01*
X162326597Y-39572302D01*
X162299500Y-39743389D01*
X158800500Y-39743389D01*
X158800500Y-39720943D01*
X158759577Y-39568216D01*
X158715052Y-39491095D01*
X158680524Y-39431290D01*
X158680518Y-39431282D01*
X158568717Y-39319481D01*
X158568709Y-39319475D01*
X158431790Y-39240426D01*
X158431786Y-39240424D01*
X158431784Y-39240423D01*
X158279057Y-39199500D01*
X158120943Y-39199500D01*
X157968216Y-39240423D01*
X157968209Y-39240426D01*
X157831290Y-39319475D01*
X157831282Y-39319481D01*
X157719481Y-39431282D01*
X157719475Y-39431290D01*
X157640426Y-39568209D01*
X157640423Y-39568216D01*
X157599500Y-39720943D01*
X153828293Y-39720943D01*
X153880520Y-39668716D01*
X153884352Y-39662078D01*
X153890855Y-39650816D01*
X153936184Y-39572302D01*
X153959577Y-39531784D01*
X154000500Y-39379057D01*
X154000500Y-39220943D01*
X153976045Y-39129675D01*
X153977708Y-39059832D01*
X154016870Y-39001969D01*
X154063723Y-38977813D01*
X154131784Y-38959577D01*
X154268716Y-38880520D01*
X154380520Y-38768716D01*
X154459577Y-38631784D01*
X154500500Y-38479057D01*
X154500500Y-38320943D01*
X154459577Y-38168216D01*
X154402132Y-38068717D01*
X154380524Y-38031290D01*
X154380518Y-38031282D01*
X154268717Y-37919481D01*
X154268709Y-37919475D01*
X154131790Y-37840426D01*
X154131786Y-37840424D01*
X154131784Y-37840423D01*
X153979057Y-37799500D01*
X153820943Y-37799500D01*
X153668216Y-37840423D01*
X153668209Y-37840426D01*
X153531290Y-37919475D01*
X153531282Y-37919481D01*
X153419481Y-38031282D01*
X153419475Y-38031290D01*
X153340426Y-38168209D01*
X153340423Y-38168216D01*
X153299500Y-38320943D01*
X153299500Y-38479057D01*
X153323953Y-38570320D01*
X153322291Y-38640168D01*
X153283129Y-38698031D01*
X153236274Y-38722186D01*
X153168220Y-38740421D01*
X153168209Y-38740426D01*
X153031290Y-38819475D01*
X153031282Y-38819481D01*
X152919481Y-38931282D01*
X152919475Y-38931290D01*
X152840426Y-39068209D01*
X152840423Y-39068216D01*
X152799500Y-39220943D01*
X149622432Y-39220943D01*
X149605520Y-39191651D01*
X149493716Y-39079847D01*
X149493714Y-39079846D01*
X149493709Y-39079842D01*
X149356790Y-39000793D01*
X149356786Y-39000791D01*
X149356784Y-39000790D01*
X149204057Y-38959867D01*
X149045943Y-38959867D01*
X148893216Y-39000790D01*
X148893209Y-39000793D01*
X148756290Y-39079842D01*
X148756282Y-39079848D01*
X148644481Y-39191649D01*
X148644475Y-39191657D01*
X148565426Y-39328576D01*
X148565423Y-39328583D01*
X148524500Y-39481310D01*
X125137421Y-39481310D01*
X125307554Y-39394622D01*
X125337501Y-39372865D01*
X125361716Y-39355270D01*
X125361717Y-39355270D01*
X124729408Y-38722962D01*
X124792993Y-38705925D01*
X124907007Y-38640099D01*
X125000099Y-38547007D01*
X125065925Y-38432993D01*
X125082962Y-38369409D01*
X125715270Y-39001717D01*
X125715270Y-39001716D01*
X125754622Y-38947554D01*
X125851095Y-38758217D01*
X125916757Y-38556130D01*
X125916757Y-38556127D01*
X125950000Y-38346246D01*
X125950000Y-38220943D01*
X132699500Y-38220943D01*
X132699500Y-38379057D01*
X132726295Y-38479055D01*
X132740423Y-38531783D01*
X132740426Y-38531790D01*
X132819475Y-38668709D01*
X132819479Y-38668714D01*
X132819480Y-38668716D01*
X132931284Y-38780520D01*
X132931286Y-38780521D01*
X132931290Y-38780524D01*
X132998765Y-38819480D01*
X133068216Y-38859577D01*
X133220943Y-38900500D01*
X133220945Y-38900500D01*
X133379055Y-38900500D01*
X133379057Y-38900500D01*
X133531784Y-38859577D01*
X133668716Y-38780520D01*
X133780520Y-38668716D01*
X133859577Y-38531784D01*
X133900500Y-38379057D01*
X133900500Y-38220943D01*
X133859577Y-38068216D01*
X133838258Y-38031290D01*
X133780524Y-37931290D01*
X133780518Y-37931282D01*
X133668717Y-37819481D01*
X133668709Y-37819475D01*
X133531790Y-37740426D01*
X133531786Y-37740424D01*
X133531784Y-37740423D01*
X133379057Y-37699500D01*
X133220943Y-37699500D01*
X133068216Y-37740423D01*
X133068209Y-37740426D01*
X132931290Y-37819475D01*
X132931282Y-37819481D01*
X132819481Y-37931282D01*
X132819475Y-37931290D01*
X132740426Y-38068209D01*
X132740423Y-38068216D01*
X132699500Y-38220943D01*
X125950000Y-38220943D01*
X125950000Y-38133753D01*
X125916757Y-37923872D01*
X125916757Y-37923869D01*
X125851095Y-37721782D01*
X125799714Y-37620943D01*
X147899500Y-37620943D01*
X147899500Y-37779057D01*
X147940289Y-37931282D01*
X147940423Y-37931783D01*
X147940426Y-37931790D01*
X148019475Y-38068709D01*
X148019479Y-38068714D01*
X148019480Y-38068716D01*
X148131284Y-38180520D01*
X148131286Y-38180521D01*
X148131290Y-38180524D01*
X148234307Y-38240000D01*
X148268216Y-38259577D01*
X148420943Y-38300500D01*
X148420945Y-38300500D01*
X148579055Y-38300500D01*
X148579057Y-38300500D01*
X148731784Y-38259577D01*
X148868716Y-38180520D01*
X148980520Y-38068716D01*
X149059577Y-37931784D01*
X149100500Y-37779057D01*
X149100500Y-37620943D01*
X149059577Y-37468216D01*
X149008101Y-37379056D01*
X148980524Y-37331290D01*
X148980518Y-37331282D01*
X148870179Y-37220943D01*
X157599500Y-37220943D01*
X157599500Y-37379056D01*
X157640423Y-37531783D01*
X157640426Y-37531790D01*
X157719475Y-37668709D01*
X157719479Y-37668714D01*
X157719480Y-37668716D01*
X157831284Y-37780520D01*
X157831286Y-37780521D01*
X157831290Y-37780524D01*
X157898765Y-37819480D01*
X157968216Y-37859577D01*
X158120943Y-37900500D01*
X158120945Y-37900500D01*
X158279055Y-37900500D01*
X158279057Y-37900500D01*
X158431784Y-37859577D01*
X158568716Y-37780520D01*
X158680520Y-37668716D01*
X158759577Y-37531784D01*
X158800500Y-37379057D01*
X158800500Y-37220943D01*
X158795796Y-37203389D01*
X162299500Y-37203389D01*
X162299500Y-37376611D01*
X162307677Y-37428239D01*
X162324180Y-37532439D01*
X162326598Y-37547701D01*
X162380127Y-37712445D01*
X162458768Y-37866788D01*
X162560586Y-38006928D01*
X162683072Y-38129414D01*
X162823212Y-38231232D01*
X162977555Y-38309873D01*
X163142299Y-38363402D01*
X163313389Y-38390500D01*
X163313390Y-38390500D01*
X163486610Y-38390500D01*
X163486611Y-38390500D01*
X163657701Y-38363402D01*
X163822445Y-38309873D01*
X163976788Y-38231232D01*
X164116928Y-38129414D01*
X164239414Y-38006928D01*
X164341232Y-37866788D01*
X164419873Y-37712445D01*
X164473402Y-37547701D01*
X164500500Y-37376611D01*
X164500500Y-37203389D01*
X164473402Y-37032299D01*
X164419873Y-36867555D01*
X164341232Y-36713212D01*
X164239414Y-36573072D01*
X164116928Y-36450586D01*
X163976788Y-36348768D01*
X163822445Y-36270127D01*
X163657701Y-36216598D01*
X163657699Y-36216597D01*
X163657698Y-36216597D01*
X163526271Y-36195781D01*
X163486611Y-36189500D01*
X163313389Y-36189500D01*
X163273728Y-36195781D01*
X163142302Y-36216597D01*
X162977552Y-36270128D01*
X162823211Y-36348768D01*
X162752011Y-36400499D01*
X162683072Y-36450586D01*
X162683070Y-36450588D01*
X162683069Y-36450588D01*
X162560588Y-36573069D01*
X162560588Y-36573070D01*
X162560586Y-36573072D01*
X162556238Y-36579057D01*
X162458768Y-36713211D01*
X162380128Y-36867552D01*
X162326597Y-37032302D01*
X162309473Y-37140423D01*
X162299500Y-37203389D01*
X158795796Y-37203389D01*
X158759577Y-37068216D01*
X158738841Y-37032299D01*
X158680524Y-36931290D01*
X158680518Y-36931282D01*
X158568717Y-36819481D01*
X158568709Y-36819475D01*
X158431790Y-36740426D01*
X158431786Y-36740424D01*
X158431784Y-36740423D01*
X158279057Y-36699500D01*
X158120943Y-36699500D01*
X157968216Y-36740423D01*
X157968209Y-36740426D01*
X157831290Y-36819475D01*
X157831282Y-36819481D01*
X157719481Y-36931282D01*
X157719475Y-36931290D01*
X157640426Y-37068209D01*
X157640423Y-37068216D01*
X157599500Y-37220943D01*
X148870179Y-37220943D01*
X148868717Y-37219481D01*
X148868709Y-37219475D01*
X148731790Y-37140426D01*
X148731786Y-37140424D01*
X148731784Y-37140423D01*
X148579057Y-37099500D01*
X148420943Y-37099500D01*
X148268216Y-37140423D01*
X148268209Y-37140426D01*
X148131290Y-37219475D01*
X148131282Y-37219481D01*
X148019481Y-37331282D01*
X148019475Y-37331290D01*
X147940426Y-37468209D01*
X147940423Y-37468216D01*
X147899500Y-37620943D01*
X125799714Y-37620943D01*
X125754624Y-37532449D01*
X125715270Y-37478282D01*
X125715269Y-37478282D01*
X125082962Y-38110590D01*
X125065925Y-38047007D01*
X125000099Y-37932993D01*
X124907007Y-37839901D01*
X124792993Y-37774075D01*
X124729409Y-37757037D01*
X125361716Y-37124728D01*
X125307550Y-37085375D01*
X125208655Y-37034985D01*
X125157859Y-36987010D01*
X125141064Y-36919189D01*
X125163602Y-36853054D01*
X125218317Y-36809603D01*
X125264950Y-36800500D01*
X125474676Y-36800500D01*
X125474677Y-36800499D01*
X125547740Y-36785966D01*
X125630601Y-36730601D01*
X125685966Y-36647740D01*
X125700500Y-36574674D01*
X125700500Y-36420943D01*
X146999500Y-36420943D01*
X146999500Y-36579057D01*
X147035447Y-36713211D01*
X147040423Y-36731783D01*
X147040426Y-36731790D01*
X147119475Y-36868709D01*
X147119479Y-36868714D01*
X147119480Y-36868716D01*
X147231284Y-36980520D01*
X147231286Y-36980521D01*
X147231290Y-36980524D01*
X147320974Y-37032302D01*
X147368216Y-37059577D01*
X147520943Y-37100500D01*
X147520945Y-37100500D01*
X147679055Y-37100500D01*
X147679057Y-37100500D01*
X147831784Y-37059577D01*
X147968716Y-36980520D01*
X148080520Y-36868716D01*
X148159577Y-36731784D01*
X148200500Y-36579057D01*
X148200500Y-36420943D01*
X148159577Y-36268216D01*
X148102132Y-36168717D01*
X148080524Y-36131290D01*
X148080518Y-36131282D01*
X147968717Y-36019481D01*
X147968709Y-36019475D01*
X147831790Y-35940426D01*
X147831786Y-35940424D01*
X147831784Y-35940423D01*
X147679057Y-35899500D01*
X147520943Y-35899500D01*
X147368216Y-35940423D01*
X147368209Y-35940426D01*
X147231290Y-36019475D01*
X147231282Y-36019481D01*
X147119481Y-36131282D01*
X147119475Y-36131290D01*
X147040426Y-36268209D01*
X147040423Y-36268216D01*
X146999500Y-36420943D01*
X125700500Y-36420943D01*
X125700500Y-35720943D01*
X152799500Y-35720943D01*
X152799500Y-35879057D01*
X152837127Y-36019481D01*
X152840423Y-36031783D01*
X152840426Y-36031790D01*
X152919475Y-36168709D01*
X152919479Y-36168714D01*
X152919480Y-36168716D01*
X153031284Y-36280520D01*
X153031286Y-36280521D01*
X153031290Y-36280524D01*
X153149494Y-36348768D01*
X153168216Y-36359577D01*
X153320943Y-36400500D01*
X153320945Y-36400500D01*
X153479055Y-36400500D01*
X153479057Y-36400500D01*
X153631784Y-36359577D01*
X153768716Y-36280520D01*
X153880520Y-36168716D01*
X153959577Y-36031784D01*
X154000500Y-35879057D01*
X154000500Y-35720943D01*
X153959577Y-35568216D01*
X153901100Y-35466930D01*
X153880524Y-35431290D01*
X153880518Y-35431282D01*
X153768717Y-35319481D01*
X153768709Y-35319475D01*
X153631790Y-35240426D01*
X153631786Y-35240424D01*
X153631784Y-35240423D01*
X153479057Y-35199500D01*
X153320943Y-35199500D01*
X153168216Y-35240423D01*
X153168209Y-35240426D01*
X153031290Y-35319475D01*
X153031282Y-35319481D01*
X152919481Y-35431282D01*
X152919475Y-35431290D01*
X152840426Y-35568209D01*
X152840423Y-35568216D01*
X152799500Y-35720943D01*
X125700500Y-35720943D01*
X125700500Y-34825326D01*
X125700500Y-34825323D01*
X125700499Y-34825321D01*
X125685967Y-34752264D01*
X125685966Y-34752260D01*
X125684789Y-34750499D01*
X125630601Y-34669399D01*
X125575235Y-34632405D01*
X125547739Y-34614033D01*
X125547735Y-34614032D01*
X125474677Y-34599500D01*
X125474674Y-34599500D01*
X123725326Y-34599500D01*
X123725323Y-34599500D01*
X123652264Y-34614032D01*
X123652260Y-34614033D01*
X123569399Y-34669399D01*
X123514033Y-34752260D01*
X123514032Y-34752264D01*
X123499500Y-34825321D01*
X123499500Y-36574678D01*
X123514032Y-36647735D01*
X123514033Y-36647739D01*
X123514034Y-36647740D01*
X123569399Y-36730601D01*
X123652260Y-36785966D01*
X123652264Y-36785967D01*
X123725321Y-36800499D01*
X123725324Y-36800500D01*
X123935051Y-36800500D01*
X124002090Y-36820185D01*
X124047845Y-36872989D01*
X124057789Y-36942147D01*
X124028764Y-37005703D01*
X123991346Y-37034985D01*
X123892439Y-37085380D01*
X123838282Y-37124727D01*
X123838282Y-37124728D01*
X124470591Y-37757037D01*
X124407007Y-37774075D01*
X124292993Y-37839901D01*
X124199901Y-37932993D01*
X124134075Y-38047007D01*
X124117037Y-38110591D01*
X123484728Y-37478282D01*
X123484727Y-37478282D01*
X123445380Y-37532439D01*
X123348904Y-37721782D01*
X123283242Y-37923869D01*
X123283242Y-37923872D01*
X123250000Y-38133753D01*
X120350500Y-38133753D01*
X120350500Y-33020943D01*
X130499500Y-33020943D01*
X130499500Y-33179057D01*
X130527193Y-33282407D01*
X130540423Y-33331783D01*
X130540426Y-33331790D01*
X130619475Y-33468709D01*
X130619479Y-33468714D01*
X130619480Y-33468716D01*
X130731284Y-33580520D01*
X130731285Y-33580521D01*
X130731287Y-33580522D01*
X130752229Y-33592613D01*
X130800445Y-33643180D01*
X130813668Y-33711787D01*
X130787700Y-33776652D01*
X130752229Y-33807387D01*
X130731287Y-33819477D01*
X130731282Y-33819481D01*
X130619481Y-33931282D01*
X130619475Y-33931290D01*
X130540426Y-34068209D01*
X130540423Y-34068216D01*
X130499500Y-34220943D01*
X130499500Y-34379057D01*
X130538642Y-34525135D01*
X130540423Y-34531783D01*
X130540426Y-34531790D01*
X130619475Y-34668709D01*
X130619479Y-34668714D01*
X130619480Y-34668716D01*
X130731284Y-34780520D01*
X130731286Y-34780521D01*
X130731290Y-34780524D01*
X130828437Y-34836611D01*
X130868216Y-34859577D01*
X131020943Y-34900500D01*
X131020945Y-34900500D01*
X131179055Y-34900500D01*
X131179057Y-34900500D01*
X131331784Y-34859577D01*
X131468716Y-34780520D01*
X131580520Y-34668716D01*
X131659577Y-34531784D01*
X131700500Y-34379057D01*
X131700500Y-34220943D01*
X131660308Y-34070943D01*
X146474500Y-34070943D01*
X146474500Y-34229057D01*
X146514693Y-34379057D01*
X146515423Y-34381783D01*
X146515426Y-34381790D01*
X146594475Y-34518709D01*
X146594479Y-34518714D01*
X146594480Y-34518716D01*
X146706284Y-34630520D01*
X146706286Y-34630521D01*
X146706290Y-34630524D01*
X146773625Y-34669399D01*
X146843216Y-34709577D01*
X146995943Y-34750500D01*
X146995945Y-34750500D01*
X147154055Y-34750500D01*
X147154057Y-34750500D01*
X147306784Y-34709577D01*
X147443716Y-34630520D01*
X147453293Y-34620943D01*
X157599500Y-34620943D01*
X157599500Y-34779057D01*
X157632041Y-34900500D01*
X157640423Y-34931783D01*
X157640426Y-34931790D01*
X157719475Y-35068709D01*
X157719479Y-35068714D01*
X157719480Y-35068716D01*
X157831284Y-35180520D01*
X157831286Y-35180521D01*
X157831290Y-35180524D01*
X157935040Y-35240423D01*
X157968216Y-35259577D01*
X158120943Y-35300500D01*
X158120945Y-35300500D01*
X158279055Y-35300500D01*
X158279057Y-35300500D01*
X158431784Y-35259577D01*
X158568716Y-35180520D01*
X158680520Y-35068716D01*
X158759577Y-34931784D01*
X158800500Y-34779057D01*
X158800500Y-34663389D01*
X162299500Y-34663389D01*
X162299500Y-34836611D01*
X162326598Y-35007701D01*
X162380127Y-35172445D01*
X162458768Y-35326788D01*
X162560586Y-35466928D01*
X162683072Y-35589414D01*
X162823212Y-35691232D01*
X162977555Y-35769873D01*
X163142299Y-35823402D01*
X163313389Y-35850500D01*
X163313390Y-35850500D01*
X163486610Y-35850500D01*
X163486611Y-35850500D01*
X163657701Y-35823402D01*
X163822445Y-35769873D01*
X163976788Y-35691232D01*
X164116928Y-35589414D01*
X164239414Y-35466928D01*
X164341232Y-35326788D01*
X164419873Y-35172445D01*
X164473402Y-35007701D01*
X164500500Y-34836611D01*
X164500500Y-34663389D01*
X164473402Y-34492299D01*
X164419873Y-34327555D01*
X164341232Y-34173212D01*
X164239414Y-34033072D01*
X164116928Y-33910586D01*
X163976788Y-33808768D01*
X163822445Y-33730127D01*
X163657701Y-33676598D01*
X163657699Y-33676597D01*
X163657698Y-33676597D01*
X163526271Y-33655781D01*
X163486611Y-33649500D01*
X163313389Y-33649500D01*
X163273728Y-33655781D01*
X163142302Y-33676597D01*
X162977552Y-33730128D01*
X162823211Y-33808768D01*
X162743256Y-33866859D01*
X162683072Y-33910586D01*
X162683070Y-33910588D01*
X162683069Y-33910588D01*
X162560588Y-34033069D01*
X162560588Y-34033070D01*
X162560586Y-34033072D01*
X162533071Y-34070943D01*
X162458768Y-34173211D01*
X162380128Y-34327552D01*
X162326597Y-34492302D01*
X162321397Y-34525135D01*
X162299500Y-34663389D01*
X158800500Y-34663389D01*
X158800500Y-34620943D01*
X158759577Y-34468216D01*
X158759573Y-34468209D01*
X158680524Y-34331290D01*
X158680518Y-34331282D01*
X158568717Y-34219481D01*
X158568709Y-34219475D01*
X158431790Y-34140426D01*
X158431786Y-34140424D01*
X158431784Y-34140423D01*
X158279057Y-34099500D01*
X158120943Y-34099500D01*
X157968216Y-34140423D01*
X157968209Y-34140426D01*
X157831290Y-34219475D01*
X157831282Y-34219481D01*
X157719481Y-34331282D01*
X157719475Y-34331290D01*
X157640426Y-34468209D01*
X157640423Y-34468216D01*
X157599500Y-34620943D01*
X147453293Y-34620943D01*
X147555520Y-34518716D01*
X147634577Y-34381784D01*
X147675500Y-34229057D01*
X147675500Y-34070943D01*
X147634577Y-33918216D01*
X147577573Y-33819481D01*
X147555524Y-33781290D01*
X147555518Y-33781282D01*
X147469782Y-33695546D01*
X147436297Y-33634223D01*
X147441281Y-33564531D01*
X147483153Y-33508598D01*
X147525367Y-33488091D01*
X147631784Y-33459577D01*
X147768716Y-33380520D01*
X147880520Y-33268716D01*
X147959577Y-33131784D01*
X148000500Y-32979057D01*
X148000500Y-32820943D01*
X147959577Y-32668216D01*
X147931437Y-32619475D01*
X147880524Y-32531290D01*
X147880518Y-32531282D01*
X147768717Y-32419481D01*
X147768709Y-32419475D01*
X147631790Y-32340426D01*
X147631786Y-32340424D01*
X147631784Y-32340423D01*
X147479057Y-32299500D01*
X147320943Y-32299500D01*
X147168216Y-32340423D01*
X147168209Y-32340426D01*
X147031290Y-32419475D01*
X147031282Y-32419481D01*
X146919481Y-32531282D01*
X146919475Y-32531290D01*
X146840426Y-32668209D01*
X146840423Y-32668216D01*
X146799500Y-32820943D01*
X146799500Y-32979057D01*
X146810724Y-33020943D01*
X146840423Y-33131783D01*
X146840426Y-33131790D01*
X146919475Y-33268709D01*
X146919481Y-33268717D01*
X147005217Y-33354453D01*
X147038702Y-33415776D01*
X147033718Y-33485468D01*
X146991846Y-33541401D01*
X146949631Y-33561909D01*
X146939846Y-33564531D01*
X146843216Y-33590423D01*
X146843215Y-33590423D01*
X146843213Y-33590424D01*
X146843209Y-33590426D01*
X146706290Y-33669475D01*
X146706282Y-33669481D01*
X146594481Y-33781282D01*
X146594475Y-33781290D01*
X146515426Y-33918209D01*
X146515423Y-33918216D01*
X146474500Y-34070943D01*
X131660308Y-34070943D01*
X131659577Y-34068216D01*
X131639285Y-34033069D01*
X131580524Y-33931290D01*
X131580518Y-33931282D01*
X131468717Y-33819481D01*
X131468712Y-33819477D01*
X131447772Y-33807388D01*
X131399555Y-33756822D01*
X131386331Y-33688215D01*
X131412298Y-33623350D01*
X131447772Y-33592612D01*
X131468709Y-33580524D01*
X131468716Y-33580520D01*
X131580520Y-33468716D01*
X131659577Y-33331784D01*
X131700500Y-33179057D01*
X131700500Y-33020943D01*
X143779500Y-33020943D01*
X143779500Y-33179057D01*
X143807193Y-33282407D01*
X143820423Y-33331783D01*
X143820426Y-33331790D01*
X143899475Y-33468709D01*
X143899479Y-33468714D01*
X143899480Y-33468716D01*
X144011284Y-33580520D01*
X144011286Y-33580521D01*
X144011290Y-33580524D01*
X144085468Y-33623350D01*
X144148216Y-33659577D01*
X144300943Y-33700500D01*
X144300945Y-33700500D01*
X144459055Y-33700500D01*
X144459057Y-33700500D01*
X144611784Y-33659577D01*
X144748716Y-33580520D01*
X144860520Y-33468716D01*
X144932613Y-33343845D01*
X144983179Y-33295631D01*
X145051786Y-33282407D01*
X145116651Y-33308375D01*
X145147386Y-33343845D01*
X145219480Y-33468716D01*
X145331284Y-33580520D01*
X145331286Y-33580521D01*
X145331290Y-33580524D01*
X145405468Y-33623350D01*
X145468216Y-33659577D01*
X145620943Y-33700500D01*
X145620945Y-33700500D01*
X145779055Y-33700500D01*
X145779057Y-33700500D01*
X145931784Y-33659577D01*
X146068716Y-33580520D01*
X146180520Y-33468716D01*
X146259577Y-33331784D01*
X146300500Y-33179057D01*
X146300500Y-33020943D01*
X146259577Y-32868216D01*
X146259573Y-32868209D01*
X146180524Y-32731290D01*
X146180518Y-32731282D01*
X146068717Y-32619481D01*
X146068709Y-32619475D01*
X145931790Y-32540426D01*
X145931786Y-32540424D01*
X145931784Y-32540423D01*
X145779057Y-32499500D01*
X145620943Y-32499500D01*
X145468216Y-32540423D01*
X145468209Y-32540426D01*
X145331290Y-32619475D01*
X145331282Y-32619481D01*
X145219481Y-32731282D01*
X145219477Y-32731287D01*
X145147387Y-32856153D01*
X145096820Y-32904368D01*
X145028213Y-32917592D01*
X144963349Y-32891624D01*
X144932613Y-32856153D01*
X144860522Y-32731287D01*
X144860518Y-32731282D01*
X144748717Y-32619481D01*
X144748709Y-32619475D01*
X144611790Y-32540426D01*
X144611786Y-32540424D01*
X144611784Y-32540423D01*
X144459057Y-32499500D01*
X144300943Y-32499500D01*
X144148216Y-32540423D01*
X144148209Y-32540426D01*
X144011290Y-32619475D01*
X144011282Y-32619481D01*
X143899481Y-32731282D01*
X143899475Y-32731290D01*
X143820426Y-32868209D01*
X143820423Y-32868216D01*
X143779500Y-33020943D01*
X131700500Y-33020943D01*
X131659577Y-32868216D01*
X131651305Y-32853889D01*
X131647095Y-32838830D01*
X131647353Y-32818906D01*
X131642655Y-32799544D01*
X131647796Y-32784687D01*
X131648000Y-32768966D01*
X131658989Y-32752343D01*
X131665505Y-32733516D01*
X131677862Y-32723797D01*
X131686533Y-32710682D01*
X131704762Y-32702640D01*
X131720424Y-32690323D01*
X131734406Y-32685669D01*
X131831784Y-32659577D01*
X131968716Y-32580520D01*
X132080520Y-32468716D01*
X132092612Y-32447772D01*
X132143178Y-32399555D01*
X132211785Y-32386331D01*
X132276650Y-32412298D01*
X132307388Y-32447772D01*
X132319477Y-32468712D01*
X132319479Y-32468715D01*
X132319480Y-32468716D01*
X132431284Y-32580520D01*
X132431286Y-32580521D01*
X132431290Y-32580524D01*
X132498765Y-32619480D01*
X132568216Y-32659577D01*
X132720943Y-32700500D01*
X132720945Y-32700500D01*
X132879055Y-32700500D01*
X132879057Y-32700500D01*
X133031784Y-32659577D01*
X133168716Y-32580520D01*
X133280520Y-32468716D01*
X133359577Y-32331784D01*
X133400500Y-32179057D01*
X133400500Y-32020943D01*
X133359577Y-31868216D01*
X133320450Y-31800445D01*
X133280524Y-31731290D01*
X133280518Y-31731282D01*
X133168717Y-31619481D01*
X133168709Y-31619475D01*
X133031790Y-31540426D01*
X133031786Y-31540424D01*
X133031784Y-31540423D01*
X132879057Y-31499500D01*
X132720943Y-31499500D01*
X132568216Y-31540423D01*
X132568209Y-31540426D01*
X132431290Y-31619475D01*
X132431282Y-31619481D01*
X132319481Y-31731282D01*
X132319477Y-31731287D01*
X132307387Y-31752229D01*
X132256820Y-31800445D01*
X132188213Y-31813668D01*
X132123348Y-31787700D01*
X132092613Y-31752229D01*
X132080522Y-31731287D01*
X132080518Y-31731282D01*
X131968717Y-31619481D01*
X131968709Y-31619475D01*
X131831790Y-31540426D01*
X131831786Y-31540424D01*
X131831784Y-31540423D01*
X131679057Y-31499500D01*
X131520943Y-31499500D01*
X131368216Y-31540423D01*
X131368209Y-31540426D01*
X131231290Y-31619475D01*
X131231282Y-31619481D01*
X131119481Y-31731282D01*
X131119475Y-31731290D01*
X131040426Y-31868209D01*
X131040423Y-31868216D01*
X130999500Y-32020943D01*
X130999500Y-32179056D01*
X131040423Y-32331783D01*
X131040424Y-32331786D01*
X131040871Y-32332560D01*
X131041049Y-32333295D01*
X131043534Y-32339294D01*
X131042598Y-32339681D01*
X131057344Y-32400460D01*
X131034491Y-32466487D01*
X130979570Y-32509678D01*
X130965578Y-32514335D01*
X130868214Y-32540423D01*
X130868209Y-32540426D01*
X130731290Y-32619475D01*
X130731282Y-32619481D01*
X130619481Y-32731282D01*
X130619475Y-32731290D01*
X130540426Y-32868209D01*
X130540423Y-32868216D01*
X130499500Y-33020943D01*
X120350500Y-33020943D01*
X120350500Y-29003051D01*
X120350649Y-28996967D01*
X120368256Y-28638568D01*
X120369449Y-28626458D01*
X120376480Y-28579056D01*
X120376531Y-28578711D01*
X122049500Y-28578711D01*
X122049500Y-28821288D01*
X122081161Y-29061785D01*
X122143947Y-29296104D01*
X122164658Y-29346104D01*
X122236776Y-29520212D01*
X122358064Y-29730289D01*
X122358066Y-29730292D01*
X122358067Y-29730293D01*
X122505733Y-29922736D01*
X122505739Y-29922743D01*
X122677256Y-30094260D01*
X122677263Y-30094266D01*
X122722733Y-30129156D01*
X122869711Y-30241936D01*
X123079788Y-30363224D01*
X123303900Y-30456054D01*
X123538211Y-30518838D01*
X123718586Y-30542584D01*
X123778711Y-30550500D01*
X123778712Y-30550500D01*
X124021289Y-30550500D01*
X124069388Y-30544167D01*
X124245799Y-30520943D01*
X131399500Y-30520943D01*
X131399500Y-30679056D01*
X131440423Y-30831783D01*
X131440426Y-30831790D01*
X131519475Y-30968709D01*
X131519479Y-30968714D01*
X131519480Y-30968716D01*
X131631284Y-31080520D01*
X131631286Y-31080521D01*
X131631290Y-31080524D01*
X131683218Y-31110504D01*
X131768216Y-31159577D01*
X131920943Y-31200500D01*
X131920945Y-31200500D01*
X132079055Y-31200500D01*
X132079057Y-31200500D01*
X132231784Y-31159577D01*
X132368716Y-31080520D01*
X132402657Y-31046579D01*
X140530000Y-31046579D01*
X140530000Y-31200000D01*
X141280000Y-31200000D01*
X141280000Y-31700000D01*
X140530000Y-31700000D01*
X140530000Y-31853420D01*
X140570348Y-32056266D01*
X140570350Y-32056274D01*
X140649500Y-32247358D01*
X140649505Y-32247368D01*
X140764410Y-32419335D01*
X140764413Y-32419339D01*
X140910660Y-32565586D01*
X140910664Y-32565589D01*
X141082631Y-32680494D01*
X141082641Y-32680499D01*
X141273723Y-32759648D01*
X141273725Y-32759649D01*
X141330000Y-32770842D01*
X141330000Y-31916988D01*
X141339940Y-31934205D01*
X141395795Y-31990060D01*
X141464204Y-32029556D01*
X141540504Y-32050000D01*
X141619496Y-32050000D01*
X141695796Y-32029556D01*
X141764205Y-31990060D01*
X141820060Y-31934205D01*
X141830000Y-31916988D01*
X141830000Y-32770842D01*
X141886274Y-32759649D01*
X141886276Y-32759648D01*
X142077358Y-32680499D01*
X142077368Y-32680494D01*
X142249335Y-32565589D01*
X142249339Y-32565586D01*
X142395586Y-32419339D01*
X142395589Y-32419335D01*
X142510494Y-32247368D01*
X142510499Y-32247358D01*
X142589649Y-32056274D01*
X142589651Y-32056266D01*
X142629999Y-31853420D01*
X142630000Y-31853417D01*
X142630000Y-31700000D01*
X141880000Y-31700000D01*
X141880000Y-31200000D01*
X142630000Y-31200000D01*
X142630000Y-31046583D01*
X142629999Y-31046579D01*
X149170000Y-31046579D01*
X149170000Y-31200000D01*
X149920000Y-31200000D01*
X149920000Y-31700000D01*
X149170000Y-31700000D01*
X149170000Y-31853420D01*
X149210348Y-32056266D01*
X149210350Y-32056274D01*
X149289500Y-32247358D01*
X149289505Y-32247368D01*
X149404410Y-32419335D01*
X149404413Y-32419339D01*
X149550660Y-32565586D01*
X149550664Y-32565589D01*
X149722631Y-32680494D01*
X149722641Y-32680499D01*
X149913723Y-32759648D01*
X149913725Y-32759649D01*
X149970000Y-32770842D01*
X149970000Y-31916988D01*
X149979940Y-31934205D01*
X150035795Y-31990060D01*
X150104204Y-32029556D01*
X150180504Y-32050000D01*
X150259496Y-32050000D01*
X150335796Y-32029556D01*
X150404205Y-31990060D01*
X150460060Y-31934205D01*
X150470000Y-31916988D01*
X150470000Y-32770842D01*
X150526274Y-32759649D01*
X150526276Y-32759648D01*
X150717358Y-32680499D01*
X150717368Y-32680494D01*
X150889335Y-32565589D01*
X150889339Y-32565586D01*
X151035586Y-32419339D01*
X151035589Y-32419335D01*
X151150494Y-32247368D01*
X151150499Y-32247358D01*
X151229649Y-32056274D01*
X151229651Y-32056266D01*
X151269999Y-31853420D01*
X151270000Y-31853417D01*
X151270000Y-31700000D01*
X150520000Y-31700000D01*
X150520000Y-31200000D01*
X151270000Y-31200000D01*
X151270000Y-31046583D01*
X151269999Y-31046579D01*
X151229651Y-30843733D01*
X151229649Y-30843725D01*
X151150499Y-30652641D01*
X151150494Y-30652631D01*
X151035589Y-30480664D01*
X151035586Y-30480660D01*
X150889339Y-30334413D01*
X150889335Y-30334410D01*
X150717368Y-30219505D01*
X150717358Y-30219500D01*
X150526272Y-30140349D01*
X150526267Y-30140347D01*
X150470000Y-30129155D01*
X150470000Y-30983011D01*
X150460060Y-30965795D01*
X150404205Y-30909940D01*
X150335796Y-30870444D01*
X150259496Y-30850000D01*
X150180504Y-30850000D01*
X150104204Y-30870444D01*
X150035795Y-30909940D01*
X149979940Y-30965795D01*
X149970000Y-30983011D01*
X149970000Y-30129156D01*
X149969999Y-30129155D01*
X149913732Y-30140347D01*
X149913727Y-30140349D01*
X149722641Y-30219500D01*
X149722631Y-30219505D01*
X149550664Y-30334410D01*
X149550660Y-30334413D01*
X149404413Y-30480660D01*
X149404410Y-30480664D01*
X149289505Y-30652631D01*
X149289500Y-30652641D01*
X149210350Y-30843725D01*
X149210348Y-30843733D01*
X149170000Y-31046579D01*
X142629999Y-31046579D01*
X142589651Y-30843733D01*
X142589649Y-30843725D01*
X142510499Y-30652641D01*
X142510494Y-30652631D01*
X142395589Y-30480664D01*
X142395586Y-30480660D01*
X142249339Y-30334413D01*
X142249335Y-30334410D01*
X142077368Y-30219505D01*
X142077358Y-30219500D01*
X141886272Y-30140349D01*
X141886267Y-30140347D01*
X141830000Y-30129155D01*
X141830000Y-30983011D01*
X141820060Y-30965795D01*
X141764205Y-30909940D01*
X141695796Y-30870444D01*
X141619496Y-30850000D01*
X141540504Y-30850000D01*
X141464204Y-30870444D01*
X141395795Y-30909940D01*
X141339940Y-30965795D01*
X141330000Y-30983011D01*
X141330000Y-30129156D01*
X141329999Y-30129155D01*
X141273732Y-30140347D01*
X141273727Y-30140349D01*
X141082641Y-30219500D01*
X141082631Y-30219505D01*
X140910664Y-30334410D01*
X140910660Y-30334413D01*
X140764413Y-30480660D01*
X140764410Y-30480664D01*
X140649505Y-30652631D01*
X140649500Y-30652641D01*
X140570350Y-30843725D01*
X140570348Y-30843733D01*
X140530000Y-31046579D01*
X132402657Y-31046579D01*
X132480520Y-30968716D01*
X132559577Y-30831784D01*
X132600500Y-30679057D01*
X132600500Y-30520943D01*
X132559577Y-30368216D01*
X132486668Y-30241932D01*
X132480524Y-30231290D01*
X132480518Y-30231282D01*
X132368717Y-30119481D01*
X132368709Y-30119475D01*
X132231790Y-30040426D01*
X132231787Y-30040424D01*
X132231784Y-30040423D01*
X132109250Y-30007590D01*
X132097325Y-30004395D01*
X132079057Y-29999500D01*
X131920943Y-29999500D01*
X131768216Y-30040423D01*
X131768209Y-30040426D01*
X131631290Y-30119475D01*
X131631282Y-30119481D01*
X131519481Y-30231282D01*
X131519475Y-30231290D01*
X131440426Y-30368209D01*
X131440423Y-30368216D01*
X131399500Y-30520943D01*
X124245799Y-30520943D01*
X124261789Y-30518838D01*
X124496100Y-30456054D01*
X124599506Y-30413222D01*
X124635640Y-30398255D01*
X124663449Y-30386736D01*
X124720212Y-30363224D01*
X124930289Y-30241936D01*
X125122738Y-30094265D01*
X125294265Y-29922738D01*
X125314825Y-29895943D01*
X143849500Y-29895943D01*
X143849500Y-30054057D01*
X143873672Y-30144266D01*
X143890423Y-30206783D01*
X143890426Y-30206790D01*
X143969475Y-30343709D01*
X143969479Y-30343714D01*
X143969480Y-30343716D01*
X144081284Y-30455520D01*
X144081286Y-30455521D01*
X144081290Y-30455524D01*
X144168812Y-30506054D01*
X144218216Y-30534577D01*
X144370943Y-30575500D01*
X144370945Y-30575500D01*
X144529055Y-30575500D01*
X144529057Y-30575500D01*
X144681784Y-30534577D01*
X144818716Y-30455520D01*
X144862319Y-30411917D01*
X144923642Y-30378432D01*
X144993334Y-30383416D01*
X145037681Y-30411917D01*
X145081284Y-30455520D01*
X145081286Y-30455521D01*
X145081290Y-30455524D01*
X145168812Y-30506054D01*
X145218216Y-30534577D01*
X145370943Y-30575500D01*
X145370945Y-30575500D01*
X145529055Y-30575500D01*
X145529057Y-30575500D01*
X145681784Y-30534577D01*
X145818716Y-30455520D01*
X145818716Y-30455519D01*
X145825500Y-30451603D01*
X145893400Y-30435130D01*
X145949500Y-30451603D01*
X145956283Y-30455519D01*
X145956284Y-30455520D01*
X146093216Y-30534577D01*
X146245943Y-30575500D01*
X146245945Y-30575500D01*
X146404055Y-30575500D01*
X146404057Y-30575500D01*
X146556784Y-30534577D01*
X146693716Y-30455520D01*
X146737319Y-30411917D01*
X146798642Y-30378432D01*
X146868334Y-30383416D01*
X146912681Y-30411917D01*
X146956284Y-30455520D01*
X146956286Y-30455521D01*
X146956290Y-30455524D01*
X147043812Y-30506054D01*
X147093216Y-30534577D01*
X147245943Y-30575500D01*
X147245945Y-30575500D01*
X147404055Y-30575500D01*
X147404057Y-30575500D01*
X147556784Y-30534577D01*
X147693716Y-30455520D01*
X147805520Y-30343716D01*
X147884577Y-30206784D01*
X147925500Y-30054057D01*
X147925500Y-29895943D01*
X147884577Y-29743216D01*
X147825000Y-29640024D01*
X147805524Y-29606290D01*
X147805518Y-29606282D01*
X147693717Y-29494481D01*
X147693709Y-29494475D01*
X147556790Y-29415426D01*
X147556786Y-29415424D01*
X147556784Y-29415423D01*
X147404057Y-29374500D01*
X147245943Y-29374500D01*
X147093216Y-29415423D01*
X147093209Y-29415426D01*
X146956290Y-29494475D01*
X146956282Y-29494481D01*
X146912681Y-29538083D01*
X146851358Y-29571568D01*
X146781666Y-29566584D01*
X146737319Y-29538083D01*
X146693717Y-29494481D01*
X146693709Y-29494475D01*
X146556790Y-29415426D01*
X146556786Y-29415424D01*
X146556784Y-29415423D01*
X146404057Y-29374500D01*
X146245943Y-29374500D01*
X146093216Y-29415423D01*
X146093215Y-29415423D01*
X145949499Y-29498397D01*
X145881599Y-29514869D01*
X145825501Y-29498397D01*
X145681784Y-29415423D01*
X145529057Y-29374500D01*
X145370943Y-29374500D01*
X145218216Y-29415423D01*
X145218209Y-29415426D01*
X145081290Y-29494475D01*
X145081282Y-29494481D01*
X145037681Y-29538083D01*
X144976358Y-29571568D01*
X144906666Y-29566584D01*
X144862319Y-29538083D01*
X144818717Y-29494481D01*
X144818709Y-29494475D01*
X144681790Y-29415426D01*
X144681786Y-29415424D01*
X144681784Y-29415423D01*
X144529057Y-29374500D01*
X144370943Y-29374500D01*
X144218216Y-29415423D01*
X144218209Y-29415426D01*
X144081290Y-29494475D01*
X144081282Y-29494481D01*
X143969481Y-29606282D01*
X143969475Y-29606290D01*
X143890426Y-29743209D01*
X143890423Y-29743216D01*
X143849500Y-29895943D01*
X125314825Y-29895943D01*
X125441936Y-29730289D01*
X125563224Y-29520212D01*
X125656054Y-29296100D01*
X125718838Y-29061789D01*
X125750500Y-28821288D01*
X125750500Y-28578712D01*
X125729730Y-28420943D01*
X131499500Y-28420943D01*
X131499500Y-28579057D01*
X131510293Y-28619335D01*
X131540423Y-28731783D01*
X131540426Y-28731790D01*
X131619475Y-28868709D01*
X131619479Y-28868714D01*
X131619480Y-28868716D01*
X131731284Y-28980520D01*
X131731286Y-28980521D01*
X131731290Y-28980524D01*
X131770309Y-29003051D01*
X131868216Y-29059577D01*
X132020943Y-29100500D01*
X132020945Y-29100500D01*
X132179055Y-29100500D01*
X132179057Y-29100500D01*
X132331784Y-29059577D01*
X132468716Y-28980520D01*
X132580520Y-28868716D01*
X132659577Y-28731784D01*
X132700500Y-28579057D01*
X132700500Y-28420943D01*
X132659577Y-28268216D01*
X132614454Y-28190060D01*
X132580524Y-28131290D01*
X132580518Y-28131282D01*
X132468717Y-28019481D01*
X132468709Y-28019475D01*
X132358812Y-27956026D01*
X132358809Y-27956026D01*
X132331784Y-27940423D01*
X132292116Y-27929794D01*
X132179057Y-27899500D01*
X132020943Y-27899500D01*
X131868216Y-27940423D01*
X131868209Y-27940426D01*
X131731290Y-28019475D01*
X131731282Y-28019481D01*
X131619481Y-28131282D01*
X131619475Y-28131290D01*
X131540426Y-28268209D01*
X131540423Y-28268216D01*
X131499500Y-28420943D01*
X125729730Y-28420943D01*
X125718838Y-28338211D01*
X125656054Y-28103900D01*
X125563224Y-27879788D01*
X125441936Y-27669711D01*
X125294265Y-27477262D01*
X125294260Y-27477256D01*
X125122743Y-27305739D01*
X125122736Y-27305733D01*
X125045645Y-27246579D01*
X140530000Y-27246579D01*
X140530000Y-27400000D01*
X141280000Y-27400000D01*
X141280000Y-27900000D01*
X140530000Y-27900000D01*
X140530000Y-28053420D01*
X140570348Y-28256266D01*
X140570350Y-28256274D01*
X140649500Y-28447358D01*
X140649505Y-28447368D01*
X140764410Y-28619335D01*
X140764413Y-28619339D01*
X140910660Y-28765586D01*
X140910664Y-28765589D01*
X141082631Y-28880494D01*
X141082641Y-28880499D01*
X141273723Y-28959648D01*
X141273725Y-28959649D01*
X141330000Y-28970842D01*
X141330000Y-28116988D01*
X141339940Y-28134205D01*
X141395795Y-28190060D01*
X141464204Y-28229556D01*
X141540504Y-28250000D01*
X141619496Y-28250000D01*
X141695796Y-28229556D01*
X141764205Y-28190060D01*
X141820060Y-28134205D01*
X141830000Y-28116988D01*
X141830000Y-28970842D01*
X141886274Y-28959649D01*
X141886276Y-28959648D01*
X142077358Y-28880499D01*
X142077368Y-28880494D01*
X142249335Y-28765589D01*
X142249339Y-28765586D01*
X142395586Y-28619339D01*
X142395589Y-28619335D01*
X142510494Y-28447368D01*
X142510499Y-28447358D01*
X142589649Y-28256274D01*
X142589651Y-28256266D01*
X142629999Y-28053420D01*
X142630000Y-28053417D01*
X142630000Y-27900000D01*
X141880000Y-27900000D01*
X141880000Y-27400000D01*
X142630000Y-27400000D01*
X142630000Y-27246583D01*
X142629999Y-27246579D01*
X149170000Y-27246579D01*
X149170000Y-27400000D01*
X149920000Y-27400000D01*
X149920000Y-27900000D01*
X149170000Y-27900000D01*
X149170000Y-28053420D01*
X149210348Y-28256266D01*
X149210350Y-28256274D01*
X149289500Y-28447358D01*
X149289505Y-28447368D01*
X149404410Y-28619335D01*
X149404413Y-28619339D01*
X149550660Y-28765586D01*
X149550664Y-28765589D01*
X149722631Y-28880494D01*
X149722641Y-28880499D01*
X149913723Y-28959648D01*
X149913725Y-28959649D01*
X149970000Y-28970842D01*
X149970000Y-28116988D01*
X149979940Y-28134205D01*
X150035795Y-28190060D01*
X150104204Y-28229556D01*
X150180504Y-28250000D01*
X150259496Y-28250000D01*
X150335796Y-28229556D01*
X150404205Y-28190060D01*
X150460060Y-28134205D01*
X150470000Y-28116988D01*
X150470000Y-28970842D01*
X150526274Y-28959649D01*
X150526276Y-28959648D01*
X150717358Y-28880499D01*
X150717368Y-28880494D01*
X150889335Y-28765589D01*
X150889339Y-28765586D01*
X151026214Y-28628711D01*
X161499500Y-28628711D01*
X161499500Y-28871288D01*
X161531161Y-29111785D01*
X161593947Y-29346104D01*
X161655407Y-29494480D01*
X161686776Y-29570212D01*
X161808064Y-29780289D01*
X161808066Y-29780292D01*
X161808067Y-29780293D01*
X161955733Y-29972736D01*
X161955739Y-29972743D01*
X162127256Y-30144260D01*
X162127263Y-30144266D01*
X162208746Y-30206790D01*
X162319711Y-30291936D01*
X162529788Y-30413224D01*
X162753900Y-30506054D01*
X162988211Y-30568838D01*
X163168586Y-30592584D01*
X163228711Y-30600500D01*
X163228712Y-30600500D01*
X163471289Y-30600500D01*
X163519388Y-30594167D01*
X163711789Y-30568838D01*
X163946100Y-30506054D01*
X164170212Y-30413224D01*
X164380289Y-30291936D01*
X164572738Y-30144265D01*
X164744265Y-29972738D01*
X164891936Y-29780289D01*
X165013224Y-29570212D01*
X165106054Y-29346100D01*
X165168838Y-29111789D01*
X165200500Y-28871288D01*
X165200500Y-28628712D01*
X165193917Y-28578712D01*
X165176626Y-28447368D01*
X165168838Y-28388211D01*
X165106054Y-28153900D01*
X165013224Y-27929788D01*
X164891936Y-27719711D01*
X164744265Y-27527262D01*
X164744260Y-27527256D01*
X164572743Y-27355739D01*
X164572736Y-27355733D01*
X164380293Y-27208067D01*
X164380292Y-27208066D01*
X164380289Y-27208064D01*
X164170212Y-27086776D01*
X164081427Y-27050000D01*
X163946104Y-26993947D01*
X163711785Y-26931161D01*
X163471289Y-26899500D01*
X163471288Y-26899500D01*
X163228712Y-26899500D01*
X163228711Y-26899500D01*
X162988214Y-26931161D01*
X162753895Y-26993947D01*
X162529794Y-27086773D01*
X162529785Y-27086777D01*
X162319706Y-27208067D01*
X162127263Y-27355733D01*
X162127256Y-27355739D01*
X161955739Y-27527256D01*
X161955733Y-27527263D01*
X161808067Y-27719706D01*
X161686777Y-27929785D01*
X161686773Y-27929794D01*
X161593947Y-28153895D01*
X161531161Y-28388214D01*
X161499500Y-28628711D01*
X151026214Y-28628711D01*
X151035589Y-28619336D01*
X151078068Y-28555762D01*
X151150494Y-28447368D01*
X151150499Y-28447358D01*
X151229649Y-28256274D01*
X151229651Y-28256266D01*
X151269999Y-28053420D01*
X151270000Y-28053417D01*
X151270000Y-27900000D01*
X150520000Y-27900000D01*
X150520000Y-27400000D01*
X151270000Y-27400000D01*
X151270000Y-27246583D01*
X151269999Y-27246579D01*
X151229651Y-27043733D01*
X151229649Y-27043725D01*
X151150499Y-26852641D01*
X151150494Y-26852631D01*
X151035589Y-26680664D01*
X151035586Y-26680660D01*
X150889339Y-26534413D01*
X150889335Y-26534410D01*
X150717368Y-26419505D01*
X150717358Y-26419500D01*
X150526272Y-26340349D01*
X150526267Y-26340347D01*
X150470000Y-26329155D01*
X150470000Y-27183011D01*
X150460060Y-27165795D01*
X150404205Y-27109940D01*
X150335796Y-27070444D01*
X150259496Y-27050000D01*
X150180504Y-27050000D01*
X150104204Y-27070444D01*
X150035795Y-27109940D01*
X149979940Y-27165795D01*
X149970000Y-27183011D01*
X149970000Y-26329156D01*
X149969999Y-26329155D01*
X149913732Y-26340347D01*
X149913727Y-26340349D01*
X149722641Y-26419500D01*
X149722631Y-26419505D01*
X149550664Y-26534410D01*
X149550660Y-26534413D01*
X149404413Y-26680660D01*
X149404410Y-26680664D01*
X149289505Y-26852631D01*
X149289500Y-26852641D01*
X149210350Y-27043725D01*
X149210348Y-27043733D01*
X149170000Y-27246579D01*
X142629999Y-27246579D01*
X142589651Y-27043733D01*
X142589649Y-27043725D01*
X142510499Y-26852641D01*
X142510494Y-26852631D01*
X142395589Y-26680664D01*
X142395586Y-26680660D01*
X142249339Y-26534413D01*
X142249335Y-26534410D01*
X142077368Y-26419505D01*
X142077358Y-26419500D01*
X141886272Y-26340349D01*
X141886267Y-26340347D01*
X141830000Y-26329155D01*
X141830000Y-27183011D01*
X141820060Y-27165795D01*
X141764205Y-27109940D01*
X141695796Y-27070444D01*
X141619496Y-27050000D01*
X141540504Y-27050000D01*
X141464204Y-27070444D01*
X141395795Y-27109940D01*
X141339940Y-27165795D01*
X141330000Y-27183011D01*
X141330000Y-26329156D01*
X141329999Y-26329155D01*
X141273732Y-26340347D01*
X141273727Y-26340349D01*
X141082641Y-26419500D01*
X141082631Y-26419505D01*
X140910664Y-26534410D01*
X140910660Y-26534413D01*
X140764413Y-26680660D01*
X140764410Y-26680664D01*
X140649505Y-26852631D01*
X140649500Y-26852641D01*
X140570350Y-27043725D01*
X140570348Y-27043733D01*
X140530000Y-27246579D01*
X125045645Y-27246579D01*
X124930293Y-27158067D01*
X124930292Y-27158066D01*
X124930289Y-27158064D01*
X124720212Y-27036776D01*
X124720205Y-27036773D01*
X124496104Y-26943947D01*
X124261785Y-26881161D01*
X124021289Y-26849500D01*
X124021288Y-26849500D01*
X123778712Y-26849500D01*
X123778711Y-26849500D01*
X123538214Y-26881161D01*
X123303895Y-26943947D01*
X123079794Y-27036773D01*
X123079785Y-27036777D01*
X122869706Y-27158067D01*
X122677263Y-27305733D01*
X122677256Y-27305739D01*
X122505739Y-27477256D01*
X122505733Y-27477263D01*
X122358067Y-27669706D01*
X122236777Y-27879785D01*
X122236773Y-27879794D01*
X122143947Y-28103895D01*
X122081161Y-28338214D01*
X122049500Y-28578711D01*
X120376531Y-28578711D01*
X120421654Y-28274520D01*
X120424022Y-28262613D01*
X120510475Y-27917473D01*
X120513998Y-27905858D01*
X120633869Y-27570840D01*
X120638508Y-27559643D01*
X120790643Y-27237979D01*
X120796358Y-27227287D01*
X120979278Y-26922105D01*
X120986021Y-26912012D01*
X121197979Y-26626219D01*
X121205682Y-26616834D01*
X121444628Y-26353198D01*
X121453198Y-26344628D01*
X121716834Y-26105682D01*
X121726219Y-26097979D01*
X122012012Y-25886021D01*
X122022105Y-25879278D01*
X122327287Y-25696358D01*
X122337979Y-25690643D01*
X122659643Y-25538508D01*
X122670840Y-25533869D01*
X123005858Y-25413998D01*
X123017473Y-25410475D01*
X123362613Y-25324022D01*
X123374520Y-25321654D01*
X123726460Y-25269448D01*
X123738564Y-25268256D01*
X124096967Y-25250648D01*
X124103051Y-25250500D01*
X124144170Y-25250500D01*
X163055830Y-25250500D01*
X163096949Y-25250500D01*
X163103032Y-25250648D01*
G37*
%TD.AperFunction*%
%TD*%
M02*
