%TF.GenerationSoftware,KiCad,Pcbnew,9.0.6*%
%TF.CreationDate,2026-05-04T22:58:46-07:00*%
%TF.ProjectId,Tilt_Table_PCB_Rev2,54696c74-5f54-4616-926c-655f5043425f,rev?*%
%TF.SameCoordinates,Original*%
%TF.FileFunction,Copper,L1,Top*%
%TF.FilePolarity,Positive*%
%FSLAX46Y46*%
G04 Gerber Fmt 4.6, Leading zero omitted, Abs format (unit mm)*
G04 Created by KiCad (PCBNEW 9.0.6) date 2026-05-04 22:58:46*
%MOMM*%
%LPD*%
G01*
G04 APERTURE LIST*
G04 Aperture macros list*
%AMRoundRect*
0 Rectangle with rounded corners*
0 $1 Rounding radius*
0 $2 $3 $4 $5 $6 $7 $8 $9 X,Y pos of 4 corners*
0 Add a 4 corners polygon primitive as box body*
4,1,4,$2,$3,$4,$5,$6,$7,$8,$9,$2,$3,0*
0 Add four circle primitives for the rounded corners*
1,1,$1+$1,$2,$3*
1,1,$1+$1,$4,$5*
1,1,$1+$1,$6,$7*
1,1,$1+$1,$8,$9*
0 Add four rect primitives between the rounded corners*
20,1,$1+$1,$2,$3,$4,$5,0*
20,1,$1+$1,$4,$5,$6,$7,0*
20,1,$1+$1,$6,$7,$8,$9,0*
20,1,$1+$1,$8,$9,$2,$3,0*%
G04 Aperture macros list end*
%TA.AperFunction,ComponentPad*%
%ADD10R,1.700000X1.700000*%
%TD*%
%TA.AperFunction,ComponentPad*%
%ADD11C,1.700000*%
%TD*%
%TA.AperFunction,SMDPad,CuDef*%
%ADD12RoundRect,0.250000X-0.525000X-0.400000X0.525000X-0.400000X0.525000X0.400000X-0.525000X0.400000X0*%
%TD*%
%TA.AperFunction,SMDPad,CuDef*%
%ADD13RoundRect,0.200000X-0.200000X-0.275000X0.200000X-0.275000X0.200000X0.275000X-0.200000X0.275000X0*%
%TD*%
%TA.AperFunction,SMDPad,CuDef*%
%ADD14RoundRect,0.225000X-0.250000X0.225000X-0.250000X-0.225000X0.250000X-0.225000X0.250000X0.225000X0*%
%TD*%
%TA.AperFunction,SMDPad,CuDef*%
%ADD15RoundRect,0.250000X0.475000X-0.250000X0.475000X0.250000X-0.475000X0.250000X-0.475000X-0.250000X0*%
%TD*%
%TA.AperFunction,SMDPad,CuDef*%
%ADD16RoundRect,0.225000X0.250000X-0.225000X0.250000X0.225000X-0.250000X0.225000X-0.250000X-0.225000X0*%
%TD*%
%TA.AperFunction,SMDPad,CuDef*%
%ADD17RoundRect,0.250000X-0.475000X0.250000X-0.475000X-0.250000X0.475000X-0.250000X0.475000X0.250000X0*%
%TD*%
%TA.AperFunction,SMDPad,CuDef*%
%ADD18RoundRect,0.075000X0.910000X0.225000X-0.910000X0.225000X-0.910000X-0.225000X0.910000X-0.225000X0*%
%TD*%
%TA.AperFunction,SMDPad,CuDef*%
%ADD19R,0.700000X1.200000*%
%TD*%
%TA.AperFunction,SMDPad,CuDef*%
%ADD20R,0.760000X1.200000*%
%TD*%
%TA.AperFunction,SMDPad,CuDef*%
%ADD21R,0.800000X1.200000*%
%TD*%
%TA.AperFunction,ComponentPad*%
%ADD22O,1.100000X1.700000*%
%TD*%
%TA.AperFunction,SMDPad,CuDef*%
%ADD23RoundRect,0.100000X0.637500X0.100000X-0.637500X0.100000X-0.637500X-0.100000X0.637500X-0.100000X0*%
%TD*%
%TA.AperFunction,SMDPad,CuDef*%
%ADD24R,2.180000X3.120000*%
%TD*%
%TA.AperFunction,SMDPad,CuDef*%
%ADD25RoundRect,0.062500X0.062500X-0.337500X0.062500X0.337500X-0.062500X0.337500X-0.062500X-0.337500X0*%
%TD*%
%TA.AperFunction,SMDPad,CuDef*%
%ADD26RoundRect,0.062500X0.337500X-0.062500X0.337500X0.062500X-0.337500X0.062500X-0.337500X-0.062500X0*%
%TD*%
%TA.AperFunction,HeatsinkPad*%
%ADD27R,2.750000X2.750000*%
%TD*%
%TA.AperFunction,SMDPad,CuDef*%
%ADD28RoundRect,0.218750X-0.256250X0.218750X-0.256250X-0.218750X0.256250X-0.218750X0.256250X0.218750X0*%
%TD*%
%TA.AperFunction,SMDPad,CuDef*%
%ADD29RoundRect,0.200000X-0.275000X0.200000X-0.275000X-0.200000X0.275000X-0.200000X0.275000X0.200000X0*%
%TD*%
%TA.AperFunction,SMDPad,CuDef*%
%ADD30RoundRect,0.200000X0.200000X0.275000X-0.200000X0.275000X-0.200000X-0.275000X0.200000X-0.275000X0*%
%TD*%
%TA.AperFunction,SMDPad,CuDef*%
%ADD31RoundRect,0.218750X0.256250X-0.218750X0.256250X0.218750X-0.256250X0.218750X-0.256250X-0.218750X0*%
%TD*%
%TA.AperFunction,SMDPad,CuDef*%
%ADD32RoundRect,0.100000X-0.575000X0.100000X-0.575000X-0.100000X0.575000X-0.100000X0.575000X0.100000X0*%
%TD*%
%TA.AperFunction,HeatsinkPad*%
%ADD33O,1.550000X0.890000*%
%TD*%
%TA.AperFunction,SMDPad,CuDef*%
%ADD34RoundRect,0.250000X-0.525000X0.475000X-0.525000X-0.475000X0.525000X-0.475000X0.525000X0.475000X0*%
%TD*%
%TA.AperFunction,HeatsinkPad*%
%ADD35O,0.950000X1.250000*%
%TD*%
%TA.AperFunction,SMDPad,CuDef*%
%ADD36RoundRect,0.250000X-0.525000X0.500000X-0.525000X-0.500000X0.525000X-0.500000X0.525000X0.500000X0*%
%TD*%
%TA.AperFunction,SMDPad,CuDef*%
%ADD37RoundRect,0.150000X0.587500X0.150000X-0.587500X0.150000X-0.587500X-0.150000X0.587500X-0.150000X0*%
%TD*%
%TA.AperFunction,SMDPad,CuDef*%
%ADD38RoundRect,0.200000X0.275000X-0.200000X0.275000X0.200000X-0.275000X0.200000X-0.275000X-0.200000X0*%
%TD*%
%TA.AperFunction,SMDPad,CuDef*%
%ADD39RoundRect,0.218750X0.218750X0.256250X-0.218750X0.256250X-0.218750X-0.256250X0.218750X-0.256250X0*%
%TD*%
%TA.AperFunction,SMDPad,CuDef*%
%ADD40RoundRect,0.015000X0.760000X0.285000X-0.760000X0.285000X-0.760000X-0.285000X0.760000X-0.285000X0*%
%TD*%
%TA.AperFunction,SMDPad,CuDef*%
%ADD41R,2.950000X4.900000*%
%TD*%
%TA.AperFunction,SMDPad,CuDef*%
%ADD42R,2.900000X5.400000*%
%TD*%
%TA.AperFunction,SMDPad,CuDef*%
%ADD43RoundRect,0.225000X-0.225000X-0.250000X0.225000X-0.250000X0.225000X0.250000X-0.225000X0.250000X0*%
%TD*%
%TA.AperFunction,SMDPad,CuDef*%
%ADD44RoundRect,0.250000X-0.250000X-0.475000X0.250000X-0.475000X0.250000X0.475000X-0.250000X0.475000X0*%
%TD*%
%TA.AperFunction,SMDPad,CuDef*%
%ADD45RoundRect,0.150000X-0.512500X-0.150000X0.512500X-0.150000X0.512500X0.150000X-0.512500X0.150000X0*%
%TD*%
%TA.AperFunction,ViaPad*%
%ADD46C,0.700000*%
%TD*%
%TA.AperFunction,Conductor*%
%ADD47C,0.250000*%
%TD*%
%TA.AperFunction,Conductor*%
%ADD48C,0.500000*%
%TD*%
%TA.AperFunction,Conductor*%
%ADD49C,0.300000*%
%TD*%
%TA.AperFunction,Conductor*%
%ADD50C,0.200000*%
%TD*%
G04 APERTURE END LIST*
D10*
%TO.P,J5,1,Pin_1*%
%TO.N,+3.3V*%
X139220000Y-81900000D03*
D11*
%TO.P,J5,2,Pin_2*%
%TO.N,GND*%
X141760000Y-81900000D03*
%TO.P,J5,3,Pin_3*%
%TO.N,/MCU/PB3{slash}4{slash}5{slash}6*%
X144300000Y-81900000D03*
%TO.P,J5,4,Pin_4*%
%TO.N,/MCU/PA8*%
X146840000Y-81900000D03*
%TO.P,J5,5,Pin_5*%
%TO.N,/MCU/PA7*%
X149380000Y-81900000D03*
%TO.P,J5,6,Pin_6*%
%TO.N,/MCU/PC15*%
X151920000Y-81900000D03*
%TO.P,J5,7,Pin_7*%
%TO.N,/MCU/UART_RX*%
X154460000Y-81900000D03*
%TO.P,J5,8,Pin_8*%
%TO.N,/MCU/UART_TX*%
X157000000Y-81900000D03*
%TD*%
D10*
%TO.P,J6,1,Pin_1*%
%TO.N,+3.3V*%
X156860000Y-73912500D03*
D11*
%TO.P,J6,2,Pin_2*%
%TO.N,/MCU/SWCLK*%
X159400000Y-73912500D03*
%TO.P,J6,3,Pin_3*%
%TO.N,unconnected-(J6-Pin_3-Pad3)*%
X161940000Y-73912500D03*
%TD*%
D12*
%TO.P,Reset,1,1*%
%TO.N,GND*%
X155940000Y-63300000D03*
X163900000Y-63300000D03*
%TO.P,Reset,2,2*%
%TO.N,/MCU/NRST*%
X155940000Y-67800000D03*
X163900000Y-67800000D03*
%TD*%
D13*
%TO.P,R13,1*%
%TO.N,VBUS_IN*%
X133325000Y-28450000D03*
%TO.P,R13,2*%
%TO.N,/Power/VBUS_FET_EN_R*%
X134975000Y-28450000D03*
%TD*%
D14*
%TO.P,C17,1*%
%TO.N,/MCU/NRST*%
X153800000Y-67850000D03*
%TO.P,C17,2*%
%TO.N,GND*%
X153800000Y-69400000D03*
%TD*%
D15*
%TO.P,C14,1*%
%TO.N,+6V*%
X124800000Y-44000000D03*
%TO.P,C14,2*%
%TO.N,GND*%
X124800000Y-42100000D03*
%TD*%
D16*
%TO.P,C16,1*%
%TO.N,+5V*%
X128600000Y-69875000D03*
%TO.P,C16,2*%
%TO.N,GND*%
X128600000Y-68325000D03*
%TD*%
D17*
%TO.P,C8,1*%
%TO.N,VBUS_OUT*%
X128100000Y-36450000D03*
%TO.P,C8,2*%
%TO.N,GND*%
X128100000Y-38350000D03*
%TD*%
D18*
%TO.P,Q1,1,S*%
%TO.N,/Power/FET_SRC*%
X137800000Y-36910000D03*
%TO.P,Q1,2,G*%
%TO.N,/Power/VBUS_FET_G*%
X137800000Y-35640000D03*
%TO.P,Q1,3,S*%
%TO.N,/Power/FET_SRC*%
X137800000Y-34370000D03*
%TO.P,Q1,4,G*%
%TO.N,/Power/VBUS_FET_G*%
X137800000Y-33100000D03*
%TO.P,Q1,5,D*%
%TO.N,VBUS_IN*%
X132850000Y-33100000D03*
%TO.P,Q1,6,D*%
X132850000Y-34370000D03*
%TO.P,Q1,7,D*%
%TO.N,VBUS_OUT*%
X132850000Y-35640000D03*
%TO.P,Q1,8,D*%
X132850000Y-36910000D03*
%TD*%
D19*
%TO.P,J1,A5,CC1*%
%TO.N,/Power/USB_CC1*%
X146400000Y-31530000D03*
D20*
%TO.P,J1,A9,VBUS1*%
%TO.N,VBUS_IN*%
X144380000Y-31530000D03*
D21*
%TO.P,J1,A12,GND1*%
%TO.N,GND*%
X143150000Y-31530000D03*
D19*
%TO.P,J1,B5,CC2*%
%TO.N,/Power/USB_CC2*%
X145400000Y-31530000D03*
D20*
%TO.P,J1,B9,VBUS2*%
%TO.N,VBUS_IN*%
X147420000Y-31530000D03*
D21*
%TO.P,J1,B12,GND2*%
%TO.N,GND*%
X148650000Y-31530000D03*
D22*
%TO.P,J1,SH1,SHIELD1*%
X150220000Y-27650000D03*
%TO.P,J1,SH2,SHIELD2*%
X141580000Y-27650000D03*
%TO.P,J1,SH3,SHIELD3*%
X150220000Y-31450000D03*
%TO.P,J1,SH4,SHIELD4*%
X141580000Y-31450000D03*
%TD*%
D15*
%TO.P,C1,1*%
%TO.N,VBUS_IN*%
X153400000Y-32262500D03*
%TO.P,C1,2*%
%TO.N,GND*%
X153400000Y-30362500D03*
%TD*%
D23*
%TO.P,U4,1,PB7/PB8*%
%TO.N,/MCU/UART_RX*%
X145825000Y-74000000D03*
%TO.P,U4,2,PC14*%
%TO.N,/MCU/UART_TX*%
X145825000Y-73350000D03*
%TO.P,U4,3,PC15*%
%TO.N,/MCU/PC15*%
X145825000Y-72700000D03*
%TO.P,U4,4,VDD*%
%TO.N,+3.3V*%
X145825000Y-72050000D03*
%TO.P,U4,5,VSS*%
%TO.N,GND*%
X145825000Y-71400000D03*
%TO.P,U4,6,PF2*%
%TO.N,/MCU/NRST*%
X145825000Y-70750000D03*
%TO.P,U4,7,PA0*%
%TO.N,/MCU/Tilt_Yup*%
X145825000Y-70100000D03*
%TO.P,U4,8,PA1*%
%TO.N,/MCU/Tilt_Ydown*%
X145825000Y-69450000D03*
%TO.P,U4,9,PA2*%
%TO.N,/MCU/Tilt_Xle*%
X145825000Y-68800000D03*
%TO.P,U4,10,PA3*%
%TO.N,/MCU/Tilt_Xri*%
X145825000Y-68150000D03*
%TO.P,U4,11,PA4*%
%TO.N,/MCU/SERVO_Y*%
X140100000Y-68150000D03*
%TO.P,U4,12,PA5*%
%TO.N,/MCU/SERVO_X*%
X140100000Y-68800000D03*
%TO.P,U4,13,PA6*%
%TO.N,SERVO_EN*%
X140100000Y-69450000D03*
%TO.P,U4,14,PA7*%
%TO.N,/MCU/PA7*%
X140100000Y-70100000D03*
%TO.P,U4,15,PA8*%
%TO.N,/MCU/PA8*%
X140100000Y-70750000D03*
%TO.P,U4,16,PA11*%
%TO.N,/MCU/USB_D-*%
X140100000Y-71400000D03*
%TO.P,U4,17,PA12*%
%TO.N,/MCU/USB_D+*%
X140100000Y-72050000D03*
%TO.P,U4,18,PA13*%
%TO.N,/MCU/SWDIO*%
X140100000Y-72700000D03*
%TO.P,U4,19,PA14/PA15*%
%TO.N,/MCU/SWCLK*%
X140100000Y-73350000D03*
%TO.P,U4,20,PB3/PB4/PB5/PB6*%
%TO.N,/MCU/PB3{slash}4{slash}5{slash}6*%
X140100000Y-74000000D03*
%TD*%
D24*
%TO.P,D3,1,K*%
%TO.N,/Power Conversion/PH*%
X138915000Y-56050000D03*
%TO.P,D3,2,A*%
%TO.N,GND*%
X145885000Y-56050000D03*
%TD*%
D10*
%TO.P,J11,1,Pin_1*%
%TO.N,/MCU/Tilt_Xri*%
X154570000Y-56350000D03*
D11*
%TO.P,J11,2,Pin_2*%
%TO.N,/MCU/Tilt_Xle*%
X157110000Y-56350000D03*
%TO.P,J11,3,Pin_3*%
%TO.N,/MCU/Tilt_Ydown*%
X159650000Y-56350000D03*
%TO.P,J11,4,Pin_4*%
%TO.N,/MCU/Tilt_Yup*%
X162190000Y-56350000D03*
%TD*%
D14*
%TO.P,C7,1*%
%TO.N,VBUS_OUT*%
X133750000Y-39675000D03*
%TO.P,C7,2*%
%TO.N,/Power/VBUS_FET_EN_R*%
X133750000Y-41225000D03*
%TD*%
%TO.P,C18,1*%
%TO.N,+3.3V*%
X135200000Y-68275000D03*
%TO.P,C18,2*%
%TO.N,GND*%
X135200000Y-69825000D03*
%TD*%
D25*
%TO.P,U1,1,VBUS_MIN*%
%TO.N,/Power/VBUS_MIN*%
X144850000Y-42700000D03*
%TO.P,U1,2,VBUS_MAX*%
%TO.N,/Power/VBUS_MAX*%
X145350000Y-42700000D03*
%TO.P,U1,3,VBUS_FET_EN*%
%TO.N,/Power/VBUS_FET_EN*%
X145850000Y-42700000D03*
%TO.P,U1,4,SAFE_PWR_EN*%
%TO.N,unconnected-(U1-SAFE_PWR_EN-Pad4)*%
X146350000Y-42700000D03*
%TO.P,U1,5,ISNK_COARSE*%
%TO.N,/Power/ISNK_COARSE*%
X146850000Y-42700000D03*
%TO.P,U1,6,ISNK_FINE*%
%TO.N,/Power/ISNK_FINE*%
X147350000Y-42700000D03*
D26*
%TO.P,U1,7,~{HPI_INT}*%
%TO.N,/Power/SWD_IO_INT*%
X148075000Y-41975000D03*
%TO.P,U1,8,GPIO_1*%
%TO.N,/Power/SWD_CLK*%
X148075000Y-41475000D03*
%TO.P,U1,9,FAULT*%
%TO.N,/Power/FAULT*%
X148075000Y-40975000D03*
%TO.P,U1,10,FLIP*%
%TO.N,/Power/FLIP*%
X148075000Y-40475000D03*
%TO.P,U1,11,VDC_OUT*%
%TO.N,VBUS_OUT*%
X148075000Y-39975000D03*
%TO.P,U1,12,HPI_SDA*%
%TO.N,/Power/HPI_SDA*%
X148075000Y-39475000D03*
D25*
%TO.P,U1,13,HPI_SCL*%
%TO.N,/Power/HPI_SCL*%
X147350000Y-38750000D03*
%TO.P,U1,14,CC2*%
%TO.N,/Power/USB_CC2*%
X146850000Y-38750000D03*
%TO.P,U1,15,CC1*%
%TO.N,/Power/USB_CC1*%
X146350000Y-38750000D03*
%TO.P,U1,16,NC*%
%TO.N,unconnected-(U1-NC-Pad16)*%
X145850000Y-38750000D03*
%TO.P,U1,17,NC*%
%TO.N,unconnected-(U1-NC-Pad17)*%
X145350000Y-38750000D03*
%TO.P,U1,18,VBUS_IN*%
%TO.N,VBUS_IN*%
X144850000Y-38750000D03*
D26*
%TO.P,U1,19,GND*%
%TO.N,GND*%
X144125000Y-39475000D03*
%TO.P,U1,20,NC*%
%TO.N,unconnected-(U1-NC-Pad20)*%
X144125000Y-39975000D03*
%TO.P,U1,21,NC*%
%TO.N,unconnected-(U1-NC-Pad21)*%
X144125000Y-40475000D03*
%TO.P,U1,22,GND*%
%TO.N,GND*%
X144125000Y-40975000D03*
%TO.P,U1,23,VDDD*%
%TO.N,PDC_3.3V*%
X144125000Y-41475000D03*
%TO.P,U1,24,VCCD*%
%TO.N,/Power/PDC_VCCD*%
X144125000Y-41975000D03*
D27*
%TO.P,U1,25,GND*%
%TO.N,GND*%
X146100000Y-40725000D03*
%TD*%
D28*
%TO.P,D1,1,K*%
%TO.N,GND*%
X156150000Y-27225000D03*
%TO.P,D1,2,A*%
%TO.N,Net-(D1-A)*%
X156150000Y-28800000D03*
%TD*%
D29*
%TO.P,R14,1*%
%TO.N,/Power/VBUS_FET_G*%
X135950000Y-39625000D03*
%TO.P,R14,2*%
%TO.N,/Power/VBUS_FET_EN_R*%
X135950000Y-41275000D03*
%TD*%
D15*
%TO.P,C19,1*%
%TO.N,+3.3V*%
X150675000Y-72425000D03*
%TO.P,C19,2*%
%TO.N,GND*%
X150675000Y-70525000D03*
%TD*%
D30*
%TO.P,R18,1*%
%TO.N,Net-(D2-K)*%
X156825000Y-37650000D03*
%TO.P,R18,2*%
%TO.N,Net-(Q2-D)*%
X155175000Y-37650000D03*
%TD*%
D31*
%TO.P,D4,1,K*%
%TO.N,Net-(D4-K)*%
X147300000Y-63787500D03*
%TO.P,D4,2,A*%
%TO.N,+3.3V*%
X147300000Y-62212500D03*
%TD*%
D10*
%TO.P,J10,1,Pin_1*%
%TO.N,/MCU/SERVO_X*%
X129340000Y-62750000D03*
D11*
%TO.P,J10,2,Pin_2*%
%TO.N,+6V*%
X126800000Y-62750000D03*
%TO.P,J10,3,Pin_3*%
%TO.N,GND*%
X124260000Y-62750000D03*
%TD*%
D32*
%TO.P,J8,1,VBUS*%
%TO.N,+5V*%
X124450000Y-70750000D03*
%TO.P,J8,2,D-*%
%TO.N,/MCU/USB_D-*%
X124450000Y-71400000D03*
%TO.P,J8,3,D+*%
%TO.N,/MCU/USB_D+*%
X124450000Y-72050000D03*
%TO.P,J8,4,ID*%
%TO.N,unconnected-(J8-ID-Pad4)*%
X124450000Y-72700000D03*
%TO.P,J8,5,GND*%
%TO.N,GND*%
X124450000Y-73350000D03*
D33*
%TO.P,J8,6,Shield*%
%TO.N,unconnected-(J8-Shield-Pad6)_2*%
X121750000Y-68550000D03*
D34*
%TO.N,unconnected-(J8-Shield-Pad6)_5*%
X121750000Y-69025000D03*
D35*
%TO.N,unconnected-(J8-Shield-Pad6)_1*%
X124450000Y-69550000D03*
D36*
%TO.N,unconnected-(J8-Shield-Pad6)_3*%
X121750000Y-71050000D03*
%TO.N,unconnected-(J8-Shield-Pad6)_7*%
X121750000Y-73050000D03*
D35*
%TO.N,unconnected-(J8-Shield-Pad6)_4*%
X124450000Y-74550000D03*
D34*
%TO.N,unconnected-(J8-Shield-Pad6)_6*%
X121750000Y-75075000D03*
D33*
%TO.N,unconnected-(J8-Shield-Pad6)*%
X121750000Y-75550000D03*
%TD*%
D10*
%TO.P,J12,1,Pin_1*%
%TO.N,/MCU/NRST*%
X130600000Y-81240000D03*
D11*
%TO.P,J12,2,Pin_2*%
%TO.N,/MCU/SWCLK*%
X130600000Y-78700000D03*
%TO.P,J12,3,Pin_3*%
%TO.N,/MCU/SWDIO*%
X130600000Y-76160000D03*
%TD*%
D13*
%TO.P,R15,1*%
%TO.N,/Power/VBUS_FET_EN_R*%
X137025000Y-43500000D03*
%TO.P,R15,2*%
%TO.N,/Power/VBUS_FET_EN*%
X138675000Y-43500000D03*
%TD*%
D16*
%TO.P,C20,1*%
%TO.N,+3.3V*%
X148625000Y-72450000D03*
%TO.P,C20,2*%
%TO.N,GND*%
X148625000Y-70900000D03*
%TD*%
D37*
%TO.P,Q2,1,G*%
%TO.N,/Power/FAULT*%
X156450000Y-41950000D03*
%TO.P,Q2,2,S*%
%TO.N,GND*%
X156450000Y-40050000D03*
%TO.P,Q2,3,D*%
%TO.N,Net-(Q2-D)*%
X154575000Y-41000000D03*
%TD*%
D38*
%TO.P,R16,1*%
%TO.N,VBUS_IN*%
X156150000Y-32337500D03*
%TO.P,R16,2*%
%TO.N,Net-(D1-A)*%
X156150000Y-30687500D03*
%TD*%
D39*
%TO.P,D2,1,K*%
%TO.N,Net-(D2-K)*%
X156787500Y-35200000D03*
%TO.P,D2,2,A*%
%TO.N,VBUS_IN*%
X155212500Y-35200000D03*
%TD*%
D10*
%TO.P,J3,1,Pin_1*%
%TO.N,VBUS_OUT*%
X124600000Y-35700000D03*
D11*
%TO.P,J3,2,Pin_2*%
%TO.N,GND*%
X124600000Y-38240000D03*
%TD*%
D40*
%TO.P,U2,1,BOOT*%
%TO.N,/Power Conversion/BOOT*%
X145050000Y-50055000D03*
%TO.P,U2,2,VIN*%
%TO.N,VBUS_OUT*%
X145050000Y-48785000D03*
%TO.P,U2,3,EN*%
%TO.N,Net-(J4-Pin_1)*%
X145050000Y-47515000D03*
%TO.P,U2,4,SS*%
%TO.N,/Power Conversion/SS*%
X145050000Y-46245000D03*
%TO.P,U2,5,VSENSE*%
%TO.N,/Power Conversion/VSENSE*%
X139650000Y-46245000D03*
%TO.P,U2,6,COMP*%
%TO.N,/Power Conversion/COMP*%
X139650000Y-47515000D03*
%TO.P,U2,7,GND*%
%TO.N,GND*%
X139650000Y-48785000D03*
%TO.P,U2,8,PH*%
%TO.N,/Power Conversion/PH*%
X139650000Y-50055000D03*
D41*
%TO.P,U2,9,EXP*%
%TO.N,GND*%
X142350000Y-48150000D03*
%TD*%
D10*
%TO.P,J9,1,Pin_1*%
%TO.N,/MCU/SERVO_Y*%
X140640000Y-62850000D03*
D11*
%TO.P,J9,2,Pin_2*%
%TO.N,+6V*%
X138100000Y-62850000D03*
%TO.P,J9,3,Pin_3*%
%TO.N,GND*%
X135560000Y-62850000D03*
%TD*%
D42*
%TO.P,L1,1,1*%
%TO.N,/Power Conversion/PH*%
X133600000Y-52750000D03*
%TO.P,L1,2,2*%
%TO.N,+6V*%
X123900000Y-52750000D03*
%TD*%
D10*
%TO.P,J4,1,Pin_1*%
%TO.N,Net-(J4-Pin_1)*%
X156400000Y-48625000D03*
D11*
%TO.P,J4,2,Pin_2*%
%TO.N,SERVO_EN*%
X156400000Y-51165000D03*
%TD*%
D30*
%TO.P,R17,1*%
%TO.N,/Power/FAULT*%
X156825000Y-44100000D03*
%TO.P,R17,2*%
%TO.N,GND*%
X155175000Y-44100000D03*
%TD*%
D43*
%TO.P,C9,1*%
%TO.N,/Power Conversion/SS*%
X147825000Y-46200000D03*
%TO.P,C9,2*%
%TO.N,GND*%
X149375000Y-46200000D03*
%TD*%
D44*
%TO.P,C6,1*%
%TO.N,VBUS_IN*%
X133250000Y-30650000D03*
%TO.P,C6,2*%
%TO.N,/Power/VBUS_FET_EN_R*%
X135150000Y-30650000D03*
%TD*%
D17*
%TO.P,C11,1*%
%TO.N,VBUS_OUT*%
X148000000Y-48650000D03*
%TO.P,C11,2*%
%TO.N,GND*%
X148000000Y-50550000D03*
%TD*%
D10*
%TO.P,J2,1,Pin_1*%
%TO.N,PDC_3.3V*%
X163400000Y-49990000D03*
D11*
%TO.P,J2,2,Pin_2*%
%TO.N,GND*%
X163400000Y-47450000D03*
%TO.P,J2,3,Pin_3*%
%TO.N,/Power/SWD_IO_INT*%
X163400000Y-44910000D03*
%TO.P,J2,4,Pin_4*%
%TO.N,/Power/SWD_CLK*%
X163400000Y-42370000D03*
%TO.P,J2,5,Pin_5*%
%TO.N,/Power/FLIP*%
X163400000Y-39830000D03*
%TO.P,J2,6,Pin_6*%
%TO.N,/Power/HPI_SDA*%
X163400000Y-37290000D03*
%TO.P,J2,7,Pin_7*%
%TO.N,/Power/HPI_SCL*%
X163400000Y-34750000D03*
%TD*%
D38*
%TO.P,R22,1*%
%TO.N,Net-(D4-K)*%
X149300000Y-63825000D03*
%TO.P,R22,2*%
%TO.N,GND*%
X149300000Y-62175000D03*
%TD*%
D45*
%TO.P,U3,1,IN*%
%TO.N,+5V*%
X130625000Y-68100000D03*
%TO.P,U3,2,GND*%
%TO.N,GND*%
X130625000Y-69050000D03*
%TO.P,U3,3,EN*%
%TO.N,+5V*%
X130625000Y-70000000D03*
%TO.P,U3,4,NC*%
%TO.N,unconnected-(U3-NC-Pad4)*%
X132900000Y-70000000D03*
%TO.P,U3,5,OUT*%
%TO.N,+3.3V*%
X132900000Y-68100000D03*
%TD*%
D15*
%TO.P,C15,1*%
%TO.N,+6V*%
X127100000Y-44000000D03*
%TO.P,C15,2*%
%TO.N,GND*%
X127100000Y-42100000D03*
%TD*%
D46*
%TO.N,GND*%
X154950000Y-27250000D03*
X162340000Y-63300000D03*
X127100000Y-40900000D03*
X146861808Y-39921170D03*
X125700000Y-73400000D03*
X143350000Y-26400000D03*
X144300000Y-71700000D03*
X124800000Y-40900000D03*
X143000000Y-46300000D03*
X143000000Y-47300000D03*
X143000000Y-48900000D03*
X141800000Y-48900000D03*
X148400000Y-27650000D03*
X143350000Y-38600000D03*
X136400000Y-69800000D03*
X138200000Y-48800000D03*
X144000000Y-55000000D03*
X138450000Y-38250000D03*
X141800000Y-47300000D03*
X141800000Y-46300000D03*
X142050000Y-38250000D03*
X148500000Y-51800000D03*
X146861808Y-41321170D03*
X129300000Y-67100000D03*
X153400000Y-37500000D03*
X157340000Y-63300000D03*
X143060085Y-40498686D03*
X150125000Y-29875000D03*
X153200000Y-41000000D03*
X148400000Y-26400000D03*
X161000000Y-77800000D03*
X153300000Y-48700000D03*
X144000000Y-56700000D03*
X141875000Y-29875000D03*
X147400000Y-71200000D03*
X143000000Y-56700000D03*
X147500000Y-51800000D03*
X153300000Y-45200000D03*
X148875000Y-29875000D03*
X148600000Y-45200000D03*
X143300000Y-43650003D03*
X141800000Y-49900000D03*
X145400000Y-41350000D03*
X123300000Y-73400000D03*
X136800000Y-50700000D03*
X153800000Y-70425000D03*
X145400000Y-39950000D03*
X140250000Y-38250000D03*
X128100000Y-39500000D03*
X133900000Y-43500000D03*
X136200000Y-52900000D03*
X143000000Y-55000000D03*
X157400000Y-40900000D03*
X143350000Y-27650000D03*
X143000000Y-49900000D03*
X143125000Y-29875000D03*
X151800000Y-30300000D03*
X149300000Y-61075000D03*
X155200000Y-45100000D03*
%TO.N,VBUS_IN*%
X147325000Y-29975000D03*
X131100000Y-33100000D03*
X146325000Y-29975000D03*
X144450000Y-29975000D03*
X144380000Y-33100000D03*
X131100000Y-34300000D03*
X131600000Y-32100000D03*
X132100000Y-28500000D03*
X145450000Y-29975000D03*
X147400000Y-32900000D03*
X132000000Y-30600000D03*
X132800000Y-32100000D03*
%TO.N,/Power/PDC_VCCD*%
X143300000Y-42750000D03*
%TO.N,PDC_3.3V*%
X158200000Y-37300000D03*
X153400000Y-39300000D03*
X158200000Y-39800000D03*
X158300000Y-44400000D03*
X158200000Y-34700000D03*
X153400000Y-35800000D03*
X143000000Y-41500000D03*
X153300000Y-47000000D03*
X153400000Y-44000000D03*
%TO.N,+6V*%
X130300000Y-45200000D03*
%TO.N,/MCU/NRST*%
X143300000Y-71100000D03*
X132800000Y-80900000D03*
%TO.N,+3.3V*%
X135000000Y-67225000D03*
X147300000Y-61075000D03*
X136450000Y-67925000D03*
X132950000Y-67225000D03*
X143900000Y-73100000D03*
%TO.N,/Power/USB_CC2*%
X145700000Y-33100000D03*
X147075000Y-34150000D03*
%TO.N,/Power/SWD_IO_INT*%
X153600000Y-43100000D03*
%TO.N,/Power/HPI_SDA*%
X148500000Y-37700000D03*
%TO.N,/Power/HPI_SCL*%
X147600000Y-36500000D03*
%TO.N,/Power/SWD_CLK*%
X157900000Y-42900000D03*
X150000000Y-42300000D03*
%TO.N,/Power/FLIP*%
X153900000Y-38400000D03*
%TO.N,/MCU/SWCLK*%
X141500000Y-73400000D03*
%TO.N,/MCU/Tilt_Xle*%
X147200000Y-67900000D03*
%TO.N,/MCU/Tilt_Yup*%
X144400000Y-70200000D03*
%TO.N,/MCU/Tilt_Ydown*%
X147400000Y-69000000D03*
%TO.N,/Power/VBUS_FET_EN*%
X139200000Y-45100000D03*
X147100000Y-45100000D03*
%TO.N,/Power/VBUS_MAX*%
X145487757Y-43867179D03*
%TO.N,/Power/ISNK_COARSE*%
X149404986Y-44797507D03*
%TO.N,/Power/VBUS_MIN*%
X144600000Y-44400000D03*
%TO.N,/Power/ISNK_FINE*%
X149500000Y-43800000D03*
%TO.N,/MCU/SERVO_X*%
X138600000Y-68800000D03*
%TO.N,SERVO_EN*%
X141500000Y-69100000D03*
%TO.N,/MCU/Tilt_Xri*%
X145800000Y-67000000D03*
%TO.N,/Power Conversion/COMP*%
X138100000Y-47600000D03*
%TO.N,VBUS_OUT*%
X149125000Y-39560367D03*
X146600000Y-48100000D03*
X146600000Y-48900000D03*
X147400000Y-47500000D03*
X148400000Y-47500000D03*
X133300000Y-38300000D03*
%TO.N,/Power Conversion/PH*%
X139800000Y-51400000D03*
%TO.N,/Power Conversion/BOOT*%
X144900000Y-51500000D03*
%TO.N,/Power Conversion/VSENSE*%
X137700000Y-46200000D03*
%TO.N,Net-(J4-Pin_1)*%
X146375000Y-46920000D03*
X149400000Y-47600000D03*
%TD*%
D47*
%TO.N,GND*%
X144787501Y-71700000D02*
X144300000Y-71700000D01*
X149375000Y-46200000D02*
X149375000Y-45975000D01*
X149300000Y-62175000D02*
X149300000Y-61075000D01*
X154975000Y-27225000D02*
X154950000Y-27250000D01*
X153800000Y-69400000D02*
X153800000Y-70425000D01*
X129962501Y-69050000D02*
X129500000Y-68587499D01*
X139650000Y-48785000D02*
X138215000Y-48785000D01*
X128600000Y-67800000D02*
X129300000Y-67100000D01*
X143536399Y-40975000D02*
X143060085Y-40498686D01*
X128600000Y-68325000D02*
X128600000Y-67800000D01*
X155175000Y-45075000D02*
X155200000Y-45100000D01*
X163900000Y-63300000D02*
X162340000Y-63300000D01*
X147400000Y-71200000D02*
X148325000Y-71200000D01*
X156550000Y-40050000D02*
X157400000Y-40900000D01*
X155940000Y-63300000D02*
X157340000Y-63300000D01*
X125650000Y-73350000D02*
X125700000Y-73400000D01*
X124450000Y-73350000D02*
X125650000Y-73350000D01*
X130625000Y-69050000D02*
X129962501Y-69050000D01*
X148325000Y-71200000D02*
X148625000Y-70900000D01*
D48*
X128100000Y-38350000D02*
X128100000Y-39500000D01*
D47*
X138215000Y-48785000D02*
X138200000Y-48800000D01*
X127100000Y-42100000D02*
X127100000Y-40900000D01*
X135200000Y-69825000D02*
X136375000Y-69825000D01*
X144125000Y-40975000D02*
X143536399Y-40975000D01*
X153400000Y-30362500D02*
X151862500Y-30362500D01*
X155175000Y-44100000D02*
X155175000Y-45075000D01*
X150300000Y-70900000D02*
X150675000Y-70525000D01*
X151862500Y-30362500D02*
X151800000Y-30300000D01*
X129500000Y-67300000D02*
X129300000Y-67100000D01*
X156450000Y-40050000D02*
X156550000Y-40050000D01*
X145087501Y-71400000D02*
X144787501Y-71700000D01*
X145825000Y-71400000D02*
X145087501Y-71400000D01*
X148625000Y-70900000D02*
X150300000Y-70900000D01*
X124450000Y-73350000D02*
X123350000Y-73350000D01*
X136375000Y-69825000D02*
X136400000Y-69800000D01*
X149375000Y-45975000D02*
X148600000Y-45200000D01*
X145825000Y-71400000D02*
X147200000Y-71400000D01*
X123350000Y-73350000D02*
X123300000Y-73400000D01*
X144125000Y-39475000D02*
X144125000Y-39375000D01*
X156150000Y-27225000D02*
X154975000Y-27225000D01*
X124800000Y-42100000D02*
X124800000Y-40900000D01*
X129500000Y-68587499D02*
X129500000Y-67300000D01*
X144125000Y-39375000D02*
X143350000Y-38600000D01*
X147200000Y-71400000D02*
X147400000Y-71200000D01*
%TO.N,VBUS_IN*%
X147420000Y-31530000D02*
X147420000Y-32380000D01*
X144380000Y-38280000D02*
X144850000Y-38750000D01*
X152762500Y-32900000D02*
X147400000Y-32900000D01*
X147400000Y-32900000D02*
X147400000Y-32625000D01*
X153400000Y-32262500D02*
X155212500Y-34075000D01*
X156075000Y-32262500D02*
X156150000Y-32337500D01*
X144380000Y-31530000D02*
X144380000Y-38280000D01*
X153400000Y-32262500D02*
X152762500Y-32900000D01*
X132850000Y-34370000D02*
X133630000Y-34370000D01*
X147420000Y-32605000D02*
X147420000Y-31530000D01*
X153400000Y-32262500D02*
X156075000Y-32262500D01*
X155212500Y-34075000D02*
X155212500Y-35200000D01*
X147400000Y-32625000D02*
X147420000Y-32605000D01*
%TO.N,/Power/PDC_VCCD*%
X144125000Y-41975000D02*
X144075000Y-41975000D01*
X144075000Y-41975000D02*
X143300000Y-42750000D01*
%TO.N,PDC_3.3V*%
X143025000Y-41475000D02*
X143000000Y-41500000D01*
X144125000Y-41475000D02*
X143025000Y-41475000D01*
D49*
%TO.N,/Power/VBUS_FET_EN_R*%
X135900000Y-41225000D02*
X135950000Y-41275000D01*
X133750000Y-41225000D02*
X135900000Y-41225000D01*
X135124000Y-30676000D02*
X135124000Y-40449000D01*
X135950000Y-42425000D02*
X137025000Y-43500000D01*
X135950000Y-41275000D02*
X135950000Y-42425000D01*
X134975000Y-28450000D02*
X134975000Y-30475000D01*
X134975000Y-30475000D02*
X135150000Y-30650000D01*
X135124000Y-40449000D02*
X135950000Y-41275000D01*
X135150000Y-30650000D02*
X135124000Y-30676000D01*
D47*
%TO.N,/MCU/NRST*%
X155940000Y-67800000D02*
X163900000Y-67800000D01*
X143300000Y-71100000D02*
X143400000Y-71000000D01*
X130600000Y-81240000D02*
X132460000Y-81240000D01*
X144812190Y-70750000D02*
X145825000Y-70750000D01*
X143400000Y-71000000D02*
X144562190Y-71000000D01*
X144562190Y-71000000D02*
X144812190Y-70750000D01*
X149843991Y-67800000D02*
X155940000Y-67800000D01*
X145825000Y-70750000D02*
X146893991Y-70750000D01*
X146893991Y-70750000D02*
X149843991Y-67800000D01*
X132460000Y-81240000D02*
X132800000Y-80900000D01*
D49*
%TO.N,+3.3V*%
X135025000Y-68100000D02*
X135200000Y-68275000D01*
D47*
X150650000Y-72450000D02*
X150675000Y-72425000D01*
X148225000Y-72050000D02*
X148625000Y-72450000D01*
X144049691Y-73100000D02*
X143900000Y-73100000D01*
D49*
X132900000Y-68100000D02*
X133375000Y-68100000D01*
D47*
X148625000Y-72450000D02*
X150650000Y-72450000D01*
X145825000Y-72050000D02*
X148225000Y-72050000D01*
X145132274Y-72050000D02*
X144933274Y-72249000D01*
X147300000Y-62212500D02*
X147300000Y-61075000D01*
X144933274Y-72249000D02*
X144900691Y-72249000D01*
X145825000Y-72050000D02*
X145132274Y-72050000D01*
X145825000Y-72050000D02*
X145949000Y-72174000D01*
X144900691Y-72249000D02*
X144049691Y-73100000D01*
%TO.N,+5V*%
X124450000Y-70750000D02*
X127725000Y-70750000D01*
D49*
X131050178Y-68100000D02*
X130625000Y-68100000D01*
X131638500Y-68688322D02*
X131050178Y-68100000D01*
X130625000Y-70000000D02*
X131287499Y-70000000D01*
D47*
X130500000Y-69875000D02*
X130625000Y-70000000D01*
X127725000Y-70750000D02*
X128600000Y-69875000D01*
X128600000Y-69875000D02*
X130500000Y-69875000D01*
D49*
X131638500Y-69648999D02*
X131638500Y-68688322D01*
X131287499Y-70000000D02*
X131638500Y-69648999D01*
%TO.N,Net-(D4-K)*%
X149262500Y-63787500D02*
X149300000Y-63825000D01*
X147300000Y-63787500D02*
X149262500Y-63787500D01*
D47*
%TO.N,/Power/USB_CC1*%
X146400000Y-38700000D02*
X146350000Y-38750000D01*
X146400000Y-31530000D02*
X146400000Y-38700000D01*
%TO.N,/Power/USB_CC2*%
X145700000Y-32850000D02*
X145400000Y-32550000D01*
X146850000Y-38750000D02*
X146850000Y-34375000D01*
X146850000Y-34375000D02*
X147075000Y-34150000D01*
X145700000Y-33100000D02*
X145700000Y-32850000D01*
X145400000Y-32550000D02*
X145400000Y-31530000D01*
%TO.N,/Power/SWD_IO_INT*%
X149200000Y-43100000D02*
X148075000Y-41975000D01*
X153600000Y-43100000D02*
X149200000Y-43100000D01*
%TO.N,/Power/HPI_SDA*%
X148500000Y-37700000D02*
X148500000Y-39050000D01*
X148500000Y-39050000D02*
X148075000Y-39475000D01*
%TO.N,/Power/HPI_SCL*%
X147600000Y-36500000D02*
X147600000Y-38500000D01*
X147600000Y-38500000D02*
X147350000Y-38750000D01*
%TO.N,/Power/SWD_CLK*%
X162870000Y-42900000D02*
X157900000Y-42900000D01*
X163400000Y-42370000D02*
X162870000Y-42900000D01*
X149175000Y-41475000D02*
X148075000Y-41475000D01*
X150000000Y-42300000D02*
X149175000Y-41475000D01*
%TO.N,/Power/FLIP*%
X151900000Y-38400000D02*
X149825000Y-40475000D01*
X149825000Y-40475000D02*
X148075000Y-40475000D01*
X153900000Y-38400000D02*
X151900000Y-38400000D01*
%TO.N,/MCU/UART_TX*%
X154938534Y-80724000D02*
X154947116Y-80724000D01*
X147137810Y-73900000D02*
X148114534Y-73900000D01*
X145825000Y-73350000D02*
X146587810Y-73350000D01*
X155636000Y-81412884D02*
X155636000Y-81421466D01*
X146587810Y-73350000D02*
X147137810Y-73900000D01*
X154947116Y-80724000D02*
X155636000Y-81412884D01*
X156114534Y-81900000D02*
X157000000Y-81900000D01*
X155636000Y-81421466D02*
X156114534Y-81900000D01*
X148114534Y-73900000D02*
X154938534Y-80724000D01*
%TO.N,/MCU/UART_RX*%
X145825000Y-74000000D02*
X146600000Y-74000000D01*
X154460000Y-81860000D02*
X154460000Y-81900000D01*
X146600000Y-74000000D02*
X154460000Y-81860000D01*
%TO.N,/MCU/SWDIO*%
X130600000Y-76160000D02*
X134060000Y-72700000D01*
X134060000Y-72700000D02*
X140100000Y-72700000D01*
%TO.N,/MCU/SWCLK*%
X130600000Y-78700000D02*
X135950000Y-73350000D01*
X135950000Y-73350000D02*
X140100000Y-73350000D01*
X141450000Y-73350000D02*
X141500000Y-73400000D01*
X140100000Y-73350000D02*
X141450000Y-73350000D01*
%TO.N,/MCU/Tilt_Xle*%
X146562499Y-68800000D02*
X147200000Y-68162499D01*
X147200000Y-68162499D02*
X147200000Y-67900000D01*
X145825000Y-68800000D02*
X146562499Y-68800000D01*
%TO.N,/MCU/Tilt_Yup*%
X144500000Y-70100000D02*
X144400000Y-70200000D01*
X145825000Y-70100000D02*
X144500000Y-70100000D01*
%TO.N,/MCU/SERVO_Y*%
X140640000Y-67610000D02*
X140640000Y-62850000D01*
X140100000Y-68150000D02*
X140640000Y-67610000D01*
%TO.N,/MCU/Tilt_Ydown*%
X145825000Y-69450000D02*
X146950000Y-69450000D01*
X146950000Y-69450000D02*
X147400000Y-69000000D01*
%TO.N,/Power/VBUS_FET_G*%
X135950000Y-36505001D02*
X135950000Y-39625000D01*
X137000000Y-33100000D02*
X135950000Y-34150000D01*
X135950000Y-34150000D02*
X135950000Y-39625000D01*
X137800000Y-35640000D02*
X136815001Y-35640000D01*
X136815001Y-35640000D02*
X135950000Y-36505001D01*
X137800000Y-33100000D02*
X137000000Y-33100000D01*
%TO.N,/Power/FAULT*%
X152175000Y-40975000D02*
X148075000Y-40975000D01*
X156450000Y-41950000D02*
X153150000Y-41950000D01*
X153150000Y-41950000D02*
X152175000Y-40975000D01*
X156450000Y-41950000D02*
X156450000Y-43725000D01*
X156450000Y-43725000D02*
X156825000Y-44100000D01*
%TO.N,/Power/VBUS_FET_EN*%
X147100000Y-45100000D02*
X147000000Y-45000000D01*
X138675000Y-43500000D02*
X138675000Y-44575000D01*
X138675000Y-44575000D02*
X139200000Y-45100000D01*
X145899000Y-42749000D02*
X145850000Y-42700000D01*
X147000000Y-45000000D02*
X147000000Y-44301154D01*
X145899000Y-43200154D02*
X145899000Y-42749000D01*
X147000000Y-44301154D02*
X145899000Y-43200154D01*
%TO.N,/Power/VBUS_MAX*%
X145487757Y-43743507D02*
X145350000Y-43605750D01*
X145487757Y-43867179D02*
X145487757Y-43743507D01*
X145350000Y-43605750D02*
X145350000Y-42700000D01*
%TO.N,/Power/ISNK_COARSE*%
X148858479Y-44251000D02*
X149404986Y-44797507D01*
X146850000Y-42700000D02*
X146850000Y-43151154D01*
X147949846Y-44251000D02*
X148858479Y-44251000D01*
X146850000Y-43151154D02*
X147949846Y-44251000D01*
%TO.N,/Power/VBUS_MIN*%
X144600000Y-42950000D02*
X144850000Y-42700000D01*
X144600000Y-44400000D02*
X144600000Y-42950000D01*
%TO.N,/Power/ISNK_FINE*%
X149500000Y-43800000D02*
X148450000Y-43800000D01*
X148450000Y-43800000D02*
X147350000Y-42700000D01*
%TO.N,/MCU/SERVO_X*%
X140100000Y-68800000D02*
X138600000Y-68800000D01*
%TO.N,SERVO_EN*%
X140100000Y-69450000D02*
X141150000Y-69450000D01*
X141150000Y-69450000D02*
X141500000Y-69100000D01*
%TO.N,/MCU/Tilt_Xri*%
X145825000Y-68150000D02*
X145825000Y-67025000D01*
X145825000Y-67025000D02*
X145800000Y-67000000D01*
%TO.N,/MCU/PC15*%
X144761500Y-73026001D02*
X144761500Y-74741500D01*
X144761500Y-74741500D02*
X151920000Y-81900000D01*
X145087501Y-72700000D02*
X144761500Y-73026001D01*
X145825000Y-72700000D02*
X145087501Y-72700000D01*
%TO.N,/MCU/PA7*%
X149380000Y-81480000D02*
X149380000Y-81900000D01*
X143224000Y-72486501D02*
X143224000Y-75324000D01*
X143224000Y-75324000D02*
X149380000Y-81480000D01*
X140837499Y-70100000D02*
X143224000Y-72486501D01*
X140100000Y-70100000D02*
X140837499Y-70100000D01*
%TO.N,/MCU/PB3{slash}4{slash}5{slash}6*%
X144300000Y-78200000D02*
X144300000Y-81900000D01*
X140100000Y-74000000D02*
X144300000Y-78200000D01*
%TO.N,/MCU/PA8*%
X142500000Y-72412501D02*
X142500000Y-75500000D01*
X146840000Y-79840000D02*
X146840000Y-81900000D01*
X140837499Y-70750000D02*
X142500000Y-72412501D01*
X140100000Y-70750000D02*
X140837499Y-70750000D01*
X142500000Y-75500000D02*
X146840000Y-79840000D01*
%TO.N,/Power Conversion/SS*%
X147780000Y-46245000D02*
X147825000Y-46200000D01*
X145050000Y-46245000D02*
X147780000Y-46245000D01*
%TO.N,/Power Conversion/COMP*%
X139565000Y-47600000D02*
X139650000Y-47515000D01*
X138100000Y-47600000D02*
X139565000Y-47600000D01*
%TO.N,VBUS_OUT*%
X148710367Y-39975000D02*
X148075000Y-39975000D01*
X149125000Y-39560367D02*
X148710367Y-39975000D01*
%TO.N,/Power Conversion/BOOT*%
X144900000Y-51500000D02*
X144900000Y-50205000D01*
X144900000Y-50205000D02*
X145050000Y-50055000D01*
%TO.N,/Power Conversion/VSENSE*%
X139605000Y-46200000D02*
X139650000Y-46245000D01*
X137700000Y-46200000D02*
X139605000Y-46200000D01*
%TO.N,Net-(D1-A)*%
X156150000Y-28800000D02*
X156150000Y-30687500D01*
%TO.N,Net-(D2-K)*%
X156787500Y-37612500D02*
X156825000Y-37650000D01*
X156787500Y-35200000D02*
X156787500Y-37612500D01*
%TO.N,Net-(J4-Pin_1)*%
X149824000Y-48024000D02*
X149400000Y-47600000D01*
X155799000Y-48024000D02*
X149824000Y-48024000D01*
X145780000Y-47515000D02*
X146375000Y-46920000D01*
X145050000Y-47515000D02*
X145265000Y-47300000D01*
X145050000Y-47515000D02*
X145780000Y-47515000D01*
X156400000Y-48625000D02*
X155799000Y-48024000D01*
D50*
%TO.N,/MCU/USB_D-*%
X125560501Y-71498000D02*
X138895749Y-71498000D01*
X124450000Y-71400000D02*
X125462501Y-71400000D01*
X138895749Y-71498000D02*
X138993749Y-71400000D01*
X138993749Y-71400000D02*
X140100000Y-71400000D01*
X125462501Y-71400000D02*
X125560501Y-71498000D01*
%TO.N,/MCU/USB_D+*%
X138895749Y-71952000D02*
X138993749Y-72050000D01*
X125462501Y-72050000D02*
X125560501Y-71952000D01*
X125560501Y-71952000D02*
X138895749Y-71952000D01*
X124450000Y-72050000D02*
X125462501Y-72050000D01*
X138993749Y-72050000D02*
X140100000Y-72050000D01*
D47*
%TO.N,Net-(Q2-D)*%
X155175000Y-40400000D02*
X154575000Y-41000000D01*
X155175000Y-37650000D02*
X155175000Y-40400000D01*
%TD*%
%TA.AperFunction,Conductor*%
%TO.N,GND*%
G36*
X147143039Y-54319685D02*
G01*
X147188794Y-54372489D01*
X147200000Y-54424000D01*
X147200000Y-57676000D01*
X147180315Y-57743039D01*
X147127511Y-57788794D01*
X147076000Y-57800000D01*
X142524000Y-57800000D01*
X142456961Y-57780315D01*
X142411206Y-57727511D01*
X142400000Y-57676000D01*
X142400000Y-54424000D01*
X142419685Y-54356961D01*
X142472489Y-54311206D01*
X142524000Y-54300000D01*
X147076000Y-54300000D01*
X147143039Y-54319685D01*
G37*
%TD.AperFunction*%
%TD*%
%TA.AperFunction,Conductor*%
%TO.N,VBUS_OUT*%
G36*
X134243039Y-35319685D02*
G01*
X134288794Y-35372489D01*
X134300000Y-35424000D01*
X134300000Y-39976000D01*
X134280315Y-40043039D01*
X134227511Y-40088794D01*
X134176000Y-40100000D01*
X129524000Y-40100000D01*
X129456961Y-40080315D01*
X129411206Y-40027511D01*
X129400000Y-39976000D01*
X129400000Y-37100000D01*
X127224000Y-37100000D01*
X127156961Y-37080315D01*
X127111206Y-37027511D01*
X127100000Y-36976000D01*
X127100000Y-35424000D01*
X127119685Y-35356961D01*
X127172489Y-35311206D01*
X127224000Y-35300000D01*
X134176000Y-35300000D01*
X134243039Y-35319685D01*
G37*
%TD.AperFunction*%
%TD*%
%TA.AperFunction,Conductor*%
%TO.N,VBUS_OUT*%
G36*
X148847542Y-47119685D02*
G01*
X148893297Y-47172489D01*
X148903241Y-47241647D01*
X148887890Y-47286000D01*
X148840424Y-47368213D01*
X148840423Y-47368216D01*
X148799500Y-47520943D01*
X148799500Y-47679057D01*
X148838913Y-47826146D01*
X148840423Y-47831783D01*
X148840426Y-47831790D01*
X148919475Y-47968709D01*
X148919481Y-47968717D01*
X148963681Y-48012917D01*
X148997166Y-48074240D01*
X149000000Y-48100598D01*
X149000000Y-49176000D01*
X148980315Y-49243039D01*
X148927511Y-49288794D01*
X148876000Y-49300000D01*
X144324000Y-49300000D01*
X144256961Y-49280315D01*
X144211206Y-49227511D01*
X144200000Y-49176000D01*
X144200000Y-48324000D01*
X144219685Y-48256961D01*
X144272489Y-48211206D01*
X144324000Y-48200000D01*
X145900000Y-48200000D01*
X146513741Y-47524884D01*
X146573399Y-47488522D01*
X146606784Y-47479577D01*
X146743716Y-47400520D01*
X146855520Y-47288716D01*
X146888678Y-47231284D01*
X146928679Y-47162001D01*
X146979245Y-47113785D01*
X147036066Y-47100000D01*
X148780503Y-47100000D01*
X148847542Y-47119685D01*
G37*
%TD.AperFunction*%
%TD*%
%TA.AperFunction,Conductor*%
%TO.N,VBUS_IN*%
G36*
X134041536Y-26519685D02*
G01*
X134087291Y-26572489D01*
X134098488Y-26625494D01*
X134088202Y-27479144D01*
X134067711Y-27545941D01*
X134014360Y-27591057D01*
X133945086Y-27600166D01*
X133900061Y-27583767D01*
X133814395Y-27531980D01*
X133814396Y-27531980D01*
X133652105Y-27481409D01*
X133652106Y-27481409D01*
X133581572Y-27475000D01*
X133575000Y-27475000D01*
X133575000Y-29431000D01*
X133555315Y-29498039D01*
X133534078Y-29516440D01*
X133536319Y-29518681D01*
X133500000Y-29555000D01*
X133500000Y-31874999D01*
X133549972Y-31874999D01*
X133549986Y-31874998D01*
X133652697Y-31864505D01*
X133819119Y-31809358D01*
X133819130Y-31809353D01*
X133845852Y-31792871D01*
X133913244Y-31774430D01*
X133979907Y-31795352D01*
X134024677Y-31848994D01*
X134034940Y-31899903D01*
X134031435Y-32190873D01*
X134010944Y-32257670D01*
X133957593Y-32302786D01*
X133891259Y-32312318D01*
X133797700Y-32300001D01*
X133797683Y-32300000D01*
X133100000Y-32300000D01*
X133100000Y-34246000D01*
X133080315Y-34313039D01*
X133027511Y-34358794D01*
X132976000Y-34370000D01*
X132850000Y-34370000D01*
X132850000Y-34496000D01*
X132830315Y-34563039D01*
X132777511Y-34608794D01*
X132726000Y-34620000D01*
X131365000Y-34620000D01*
X131365000Y-34632697D01*
X131368571Y-34659814D01*
X131357806Y-34728849D01*
X131311426Y-34781105D01*
X131245632Y-34800000D01*
X130624000Y-34800000D01*
X130556961Y-34780315D01*
X130511206Y-34727511D01*
X130500000Y-34676000D01*
X130500000Y-33362697D01*
X131365000Y-33362697D01*
X131379800Y-33475104D01*
X131379801Y-33475108D01*
X131437736Y-33614979D01*
X131437738Y-33614981D01*
X131471909Y-33659514D01*
X131497103Y-33724683D01*
X131483064Y-33793128D01*
X131471909Y-33810486D01*
X131437738Y-33855018D01*
X131437736Y-33855020D01*
X131379801Y-33994891D01*
X131379800Y-33994895D01*
X131365000Y-34107302D01*
X131365000Y-34120000D01*
X132600000Y-34120000D01*
X132600000Y-33350000D01*
X131365000Y-33350000D01*
X131365000Y-33362697D01*
X130500000Y-33362697D01*
X130500000Y-32837302D01*
X131365000Y-32837302D01*
X131365000Y-32850000D01*
X132600000Y-32850000D01*
X132600000Y-32300000D01*
X131902302Y-32300000D01*
X131789895Y-32314800D01*
X131789891Y-32314801D01*
X131650021Y-32372736D01*
X131529905Y-32464905D01*
X131437736Y-32585021D01*
X131379801Y-32724891D01*
X131379800Y-32724895D01*
X131365000Y-32837302D01*
X130500000Y-32837302D01*
X130500000Y-31174986D01*
X132250001Y-31174986D01*
X132260494Y-31277697D01*
X132315641Y-31444119D01*
X132315643Y-31444124D01*
X132407684Y-31593345D01*
X132531654Y-31717315D01*
X132680875Y-31809356D01*
X132680880Y-31809358D01*
X132847302Y-31864505D01*
X132847309Y-31864506D01*
X132950019Y-31874999D01*
X132999999Y-31874998D01*
X133000000Y-31874998D01*
X133000000Y-30900000D01*
X132250001Y-30900000D01*
X132250001Y-31174986D01*
X130500000Y-31174986D01*
X130500000Y-30125013D01*
X132250000Y-30125013D01*
X132250000Y-30400000D01*
X133000000Y-30400000D01*
X133000000Y-29419000D01*
X133019685Y-29351961D01*
X133040921Y-29333559D01*
X133038681Y-29331319D01*
X133075000Y-29295000D01*
X133075000Y-28700000D01*
X132425001Y-28700000D01*
X132425001Y-28781582D01*
X132431408Y-28852102D01*
X132431409Y-28852107D01*
X132481981Y-29014396D01*
X132569927Y-29159877D01*
X132690121Y-29280071D01*
X132696026Y-29284697D01*
X132694011Y-29287268D01*
X132731261Y-29327926D01*
X132743115Y-29396783D01*
X132715861Y-29461118D01*
X132685033Y-29488078D01*
X132531659Y-29582680D01*
X132531655Y-29582683D01*
X132407684Y-29706654D01*
X132315643Y-29855875D01*
X132315641Y-29855880D01*
X132260494Y-30022302D01*
X132260493Y-30022309D01*
X132250000Y-30125013D01*
X130500000Y-30125013D01*
X130500000Y-28118427D01*
X132425000Y-28118427D01*
X132425000Y-28200000D01*
X133075000Y-28200000D01*
X133075000Y-27475000D01*
X133074999Y-27474999D01*
X133068436Y-27475000D01*
X133068417Y-27475001D01*
X132997897Y-27481408D01*
X132997892Y-27481409D01*
X132835603Y-27531981D01*
X132690122Y-27619927D01*
X132569927Y-27740122D01*
X132481980Y-27885604D01*
X132431409Y-28047893D01*
X132425000Y-28118427D01*
X130500000Y-28118427D01*
X130500000Y-26624000D01*
X130519685Y-26556961D01*
X130572489Y-26511206D01*
X130624000Y-26500000D01*
X133974497Y-26500000D01*
X134041536Y-26519685D01*
G37*
%TD.AperFunction*%
%TD*%
%TA.AperFunction,Conductor*%
%TO.N,GND*%
G36*
X148943039Y-49919685D02*
G01*
X148988794Y-49972489D01*
X149000000Y-50024000D01*
X149000000Y-52076000D01*
X148980315Y-52143039D01*
X148927511Y-52188794D01*
X148876000Y-52200000D01*
X147124000Y-52200000D01*
X147056961Y-52180315D01*
X147011206Y-52127511D01*
X147000000Y-52076000D01*
X147000000Y-50024000D01*
X147019685Y-49956961D01*
X147072489Y-49911206D01*
X147124000Y-49900000D01*
X148876000Y-49900000D01*
X148943039Y-49919685D01*
G37*
%TD.AperFunction*%
%TD*%
%TA.AperFunction,Conductor*%
%TO.N,+6V*%
G36*
X123525160Y-43519685D02*
G01*
X123570915Y-43572489D01*
X123581479Y-43636603D01*
X123575000Y-43700013D01*
X123575000Y-43750000D01*
X128324999Y-43750000D01*
X128324999Y-43700028D01*
X128324998Y-43700013D01*
X128318520Y-43636602D01*
X128331289Y-43567910D01*
X128379170Y-43517025D01*
X128441878Y-43500000D01*
X130876000Y-43500000D01*
X130943039Y-43519685D01*
X130988794Y-43572489D01*
X131000000Y-43624000D01*
X131000000Y-56776000D01*
X130980315Y-56843039D01*
X130927511Y-56888794D01*
X130876000Y-56900000D01*
X121124000Y-56900000D01*
X121056961Y-56880315D01*
X121011206Y-56827511D01*
X121000000Y-56776000D01*
X121000000Y-55497844D01*
X121950000Y-55497844D01*
X121956401Y-55557372D01*
X121956403Y-55557379D01*
X122006645Y-55692086D01*
X122006649Y-55692093D01*
X122092809Y-55807187D01*
X122092812Y-55807190D01*
X122207906Y-55893350D01*
X122207913Y-55893354D01*
X122342620Y-55943596D01*
X122342627Y-55943598D01*
X122402155Y-55949999D01*
X122402172Y-55950000D01*
X123650000Y-55950000D01*
X124150000Y-55950000D01*
X125397828Y-55950000D01*
X125397844Y-55949999D01*
X125457372Y-55943598D01*
X125457379Y-55943596D01*
X125592086Y-55893354D01*
X125592093Y-55893350D01*
X125707187Y-55807190D01*
X125707190Y-55807187D01*
X125793350Y-55692093D01*
X125793354Y-55692086D01*
X125843596Y-55557379D01*
X125843598Y-55557372D01*
X125849999Y-55497844D01*
X125850000Y-55497827D01*
X125850000Y-53000000D01*
X124150000Y-53000000D01*
X124150000Y-55950000D01*
X123650000Y-55950000D01*
X123650000Y-53000000D01*
X121950000Y-53000000D01*
X121950000Y-55497844D01*
X121000000Y-55497844D01*
X121000000Y-50002155D01*
X121950000Y-50002155D01*
X121950000Y-52500000D01*
X123650000Y-52500000D01*
X124150000Y-52500000D01*
X125850000Y-52500000D01*
X125850000Y-50002172D01*
X125849999Y-50002155D01*
X125843598Y-49942627D01*
X125843596Y-49942620D01*
X125793354Y-49807913D01*
X125793350Y-49807906D01*
X125707190Y-49692812D01*
X125707187Y-49692809D01*
X125592093Y-49606649D01*
X125592086Y-49606645D01*
X125457379Y-49556403D01*
X125457372Y-49556401D01*
X125397844Y-49550000D01*
X124150000Y-49550000D01*
X124150000Y-52500000D01*
X123650000Y-52500000D01*
X123650000Y-49550000D01*
X122402155Y-49550000D01*
X122342627Y-49556401D01*
X122342620Y-49556403D01*
X122207913Y-49606645D01*
X122207906Y-49606649D01*
X122092812Y-49692809D01*
X122092809Y-49692812D01*
X122006649Y-49807906D01*
X122006645Y-49807913D01*
X121956403Y-49942620D01*
X121956401Y-49942627D01*
X121950000Y-50002155D01*
X121000000Y-50002155D01*
X121000000Y-44299986D01*
X123575001Y-44299986D01*
X123585494Y-44402697D01*
X123640641Y-44569119D01*
X123640643Y-44569124D01*
X123732684Y-44718345D01*
X123856654Y-44842315D01*
X124005875Y-44934356D01*
X124005880Y-44934358D01*
X124172302Y-44989505D01*
X124172309Y-44989506D01*
X124275019Y-44999999D01*
X124549999Y-44999999D01*
X125050000Y-44999999D01*
X125324972Y-44999999D01*
X125324986Y-44999998D01*
X125427697Y-44989505D01*
X125594119Y-44934358D01*
X125594124Y-44934356D01*
X125743345Y-44842315D01*
X125862319Y-44723342D01*
X125923642Y-44689857D01*
X125993334Y-44694841D01*
X126037681Y-44723342D01*
X126156654Y-44842315D01*
X126305875Y-44934356D01*
X126305880Y-44934358D01*
X126472302Y-44989505D01*
X126472309Y-44989506D01*
X126575019Y-44999999D01*
X126849999Y-44999999D01*
X127350000Y-44999999D01*
X127624972Y-44999999D01*
X127624986Y-44999998D01*
X127727697Y-44989505D01*
X127894119Y-44934358D01*
X127894124Y-44934356D01*
X128043345Y-44842315D01*
X128167315Y-44718345D01*
X128259356Y-44569124D01*
X128259358Y-44569119D01*
X128314505Y-44402697D01*
X128314506Y-44402690D01*
X128324999Y-44299986D01*
X128325000Y-44299973D01*
X128325000Y-44250000D01*
X127350000Y-44250000D01*
X127350000Y-44999999D01*
X126849999Y-44999999D01*
X126850000Y-44999998D01*
X126850000Y-44250000D01*
X125050000Y-44250000D01*
X125050000Y-44999999D01*
X124549999Y-44999999D01*
X124550000Y-44999998D01*
X124550000Y-44250000D01*
X123575001Y-44250000D01*
X123575001Y-44299986D01*
X121000000Y-44299986D01*
X121000000Y-43624000D01*
X121019685Y-43556961D01*
X121072489Y-43511206D01*
X121124000Y-43500000D01*
X123458121Y-43500000D01*
X123525160Y-43519685D01*
G37*
%TD.AperFunction*%
%TD*%
%TA.AperFunction,Conductor*%
%TO.N,GND*%
G36*
X150819146Y-25270185D02*
G01*
X150864901Y-25322989D01*
X150876106Y-25374077D01*
X150879268Y-26300563D01*
X150859813Y-26367669D01*
X150807165Y-26413604D01*
X150738041Y-26423783D01*
X150707816Y-26415547D01*
X150526272Y-26340349D01*
X150526267Y-26340347D01*
X150470000Y-26329155D01*
X150470000Y-27183011D01*
X150460060Y-27165795D01*
X150404205Y-27109940D01*
X150335796Y-27070444D01*
X150259496Y-27050000D01*
X150180504Y-27050000D01*
X150104204Y-27070444D01*
X150035795Y-27109940D01*
X149979940Y-27165795D01*
X149970000Y-27183011D01*
X149970000Y-26329156D01*
X149969999Y-26329155D01*
X149913732Y-26340347D01*
X149913727Y-26340349D01*
X149722641Y-26419500D01*
X149722631Y-26419505D01*
X149550664Y-26534410D01*
X149550660Y-26534413D01*
X149404413Y-26680660D01*
X149404410Y-26680664D01*
X149289505Y-26852631D01*
X149289500Y-26852641D01*
X149210350Y-27043725D01*
X149210348Y-27043733D01*
X149170000Y-27246579D01*
X149170000Y-27400000D01*
X149920000Y-27400000D01*
X149920000Y-27900000D01*
X149170000Y-27900000D01*
X149170000Y-28053420D01*
X149210348Y-28256266D01*
X149210350Y-28256274D01*
X149289500Y-28447358D01*
X149289505Y-28447368D01*
X149404410Y-28619335D01*
X149404413Y-28619339D01*
X149550660Y-28765586D01*
X149550664Y-28765589D01*
X149722631Y-28880494D01*
X149722641Y-28880499D01*
X149913723Y-28959648D01*
X149913725Y-28959649D01*
X149970000Y-28970842D01*
X149970000Y-28116988D01*
X149979940Y-28134205D01*
X150035795Y-28190060D01*
X150104204Y-28229556D01*
X150180504Y-28250000D01*
X150259496Y-28250000D01*
X150335796Y-28229556D01*
X150404205Y-28190060D01*
X150460060Y-28134205D01*
X150470000Y-28116988D01*
X150470000Y-28970842D01*
X150526274Y-28959649D01*
X150526276Y-28959648D01*
X150717010Y-28880643D01*
X150786479Y-28873174D01*
X150848958Y-28904449D01*
X150884611Y-28964537D01*
X150888462Y-28994781D01*
X150892255Y-30105943D01*
X150872800Y-30173049D01*
X150820152Y-30218984D01*
X150751028Y-30229163D01*
X150720803Y-30220927D01*
X150526272Y-30140349D01*
X150526267Y-30140347D01*
X150470000Y-30129155D01*
X150470000Y-30983011D01*
X150460060Y-30965795D01*
X150404205Y-30909940D01*
X150335796Y-30870444D01*
X150259496Y-30850000D01*
X150180504Y-30850000D01*
X150104204Y-30870444D01*
X150035795Y-30909940D01*
X149979940Y-30965795D01*
X149970000Y-30983011D01*
X149970000Y-30129156D01*
X149969999Y-30129155D01*
X149913732Y-30140347D01*
X149913727Y-30140349D01*
X149722641Y-30219500D01*
X149722631Y-30219505D01*
X149550664Y-30334410D01*
X149425888Y-30459186D01*
X149364565Y-30492670D01*
X149294873Y-30487686D01*
X149157376Y-30436402D01*
X149157372Y-30436401D01*
X149097844Y-30430000D01*
X148900000Y-30430000D01*
X148900000Y-31280000D01*
X149040000Y-31280000D01*
X149058290Y-31261709D01*
X149059685Y-31256961D01*
X149112489Y-31211206D01*
X149164000Y-31200000D01*
X149920000Y-31200000D01*
X149920000Y-31700000D01*
X149680000Y-31700000D01*
X149661709Y-31718290D01*
X149660315Y-31723039D01*
X149607511Y-31768794D01*
X149556000Y-31780000D01*
X148774000Y-31780000D01*
X148706961Y-31760315D01*
X148661206Y-31707511D01*
X148650000Y-31656000D01*
X148650000Y-31530000D01*
X148524000Y-31530000D01*
X148456961Y-31510315D01*
X148411206Y-31457511D01*
X148400000Y-31406000D01*
X148400000Y-30467673D01*
X148269041Y-30423495D01*
X148256419Y-30414655D01*
X148241638Y-30410315D01*
X148228387Y-30395023D01*
X148211811Y-30383414D01*
X148205972Y-30369154D01*
X148195883Y-30357511D01*
X148189616Y-30329210D01*
X148185335Y-30318755D01*
X148186228Y-30313912D01*
X148184680Y-30306922D01*
X148175000Y-29000000D01*
X148174999Y-29000000D01*
X143625000Y-29000000D01*
X143625000Y-30306000D01*
X143605315Y-30373039D01*
X143552511Y-30418794D01*
X143501000Y-30430000D01*
X143400000Y-30430000D01*
X143400000Y-31406000D01*
X143380315Y-31473039D01*
X143327511Y-31518794D01*
X143276000Y-31530000D01*
X143150000Y-31530000D01*
X143150000Y-31656000D01*
X143130315Y-31723039D01*
X143077511Y-31768794D01*
X143026000Y-31780000D01*
X142244000Y-31780000D01*
X142176961Y-31760315D01*
X142155190Y-31735190D01*
X142120000Y-31700000D01*
X141880000Y-31700000D01*
X141880000Y-31200000D01*
X142636000Y-31200000D01*
X142703039Y-31219685D01*
X142724809Y-31244809D01*
X142760000Y-31280000D01*
X142900000Y-31280000D01*
X142900000Y-30430000D01*
X142702155Y-30430000D01*
X142642627Y-30436401D01*
X142642617Y-30436403D01*
X142505123Y-30487685D01*
X142435432Y-30492669D01*
X142374110Y-30459184D01*
X142249339Y-30334413D01*
X142249335Y-30334410D01*
X142077368Y-30219505D01*
X142077358Y-30219500D01*
X141886272Y-30140349D01*
X141886267Y-30140347D01*
X141830000Y-30129155D01*
X141830000Y-30983011D01*
X141820060Y-30965795D01*
X141764205Y-30909940D01*
X141695796Y-30870444D01*
X141619496Y-30850000D01*
X141540504Y-30850000D01*
X141464204Y-30870444D01*
X141395795Y-30909940D01*
X141339940Y-30965795D01*
X141330000Y-30983011D01*
X141330000Y-30129156D01*
X141329999Y-30129155D01*
X141273732Y-30140347D01*
X141273727Y-30140349D01*
X141096453Y-30213779D01*
X141026983Y-30221248D01*
X140964504Y-30189973D01*
X140928852Y-30129884D01*
X140925000Y-30099218D01*
X140925000Y-29000781D01*
X140944685Y-28933742D01*
X140997489Y-28887987D01*
X141066647Y-28878043D01*
X141096453Y-28886220D01*
X141273723Y-28959648D01*
X141273725Y-28959649D01*
X141330000Y-28970842D01*
X141330000Y-28116988D01*
X141339940Y-28134205D01*
X141395795Y-28190060D01*
X141464204Y-28229556D01*
X141540504Y-28250000D01*
X141619496Y-28250000D01*
X141695796Y-28229556D01*
X141764205Y-28190060D01*
X141820060Y-28134205D01*
X141830000Y-28116988D01*
X141830000Y-28970842D01*
X141886274Y-28959649D01*
X141886276Y-28959648D01*
X142077358Y-28880499D01*
X142077368Y-28880494D01*
X142249335Y-28765589D01*
X142249339Y-28765586D01*
X142395586Y-28619339D01*
X142395589Y-28619335D01*
X142510494Y-28447368D01*
X142510499Y-28447358D01*
X142589649Y-28256274D01*
X142589651Y-28256266D01*
X142629999Y-28053420D01*
X142630000Y-28053417D01*
X142630000Y-27900000D01*
X141880000Y-27900000D01*
X141880000Y-27400000D01*
X142630000Y-27400000D01*
X142630000Y-27246583D01*
X142629999Y-27246579D01*
X142589651Y-27043733D01*
X142589649Y-27043725D01*
X142510499Y-26852641D01*
X142510494Y-26852631D01*
X142395589Y-26680664D01*
X142395586Y-26680660D01*
X142249339Y-26534413D01*
X142249335Y-26534410D01*
X142077368Y-26419505D01*
X142077358Y-26419500D01*
X141886272Y-26340349D01*
X141886267Y-26340347D01*
X141830000Y-26329155D01*
X141830000Y-27183011D01*
X141820060Y-27165795D01*
X141764205Y-27109940D01*
X141695796Y-27070444D01*
X141619496Y-27050000D01*
X141540504Y-27050000D01*
X141464204Y-27070444D01*
X141395795Y-27109940D01*
X141339940Y-27165795D01*
X141330000Y-27183011D01*
X141330000Y-26329156D01*
X141329999Y-26329155D01*
X141273732Y-26340347D01*
X141273727Y-26340349D01*
X141096453Y-26413779D01*
X141026983Y-26421248D01*
X140964504Y-26389973D01*
X140928852Y-26329884D01*
X140925000Y-26299218D01*
X140925000Y-25374500D01*
X140944685Y-25307461D01*
X140997489Y-25261706D01*
X141049000Y-25250500D01*
X150752107Y-25250500D01*
X150819146Y-25270185D01*
G37*
%TD.AperFunction*%
%TD*%
%TA.AperFunction,Conductor*%
%TO.N,+3.3V*%
G36*
X136793039Y-66844685D02*
G01*
X136838794Y-66897489D01*
X136850000Y-66949000D01*
X136850000Y-68601000D01*
X136830315Y-68668039D01*
X136777511Y-68713794D01*
X136726000Y-68725000D01*
X136294263Y-68725000D01*
X136227224Y-68705315D01*
X136181469Y-68652511D01*
X136170905Y-68588397D01*
X136174999Y-68548322D01*
X136175000Y-68548309D01*
X136175000Y-68525000D01*
X134174634Y-68525000D01*
X134107595Y-68505315D01*
X134061840Y-68452511D01*
X134051896Y-68383353D01*
X134055557Y-68366406D01*
X134059600Y-68352488D01*
X134059795Y-68350001D01*
X134059795Y-68350000D01*
X133024000Y-68350000D01*
X132956961Y-68330315D01*
X132911206Y-68277511D01*
X132900000Y-68226000D01*
X132900000Y-68100000D01*
X132774000Y-68100000D01*
X132706961Y-68080315D01*
X132661206Y-68027511D01*
X132655587Y-68001682D01*
X134225000Y-68001682D01*
X134225000Y-68025000D01*
X134950000Y-68025000D01*
X135450000Y-68025000D01*
X136174999Y-68025000D01*
X136174999Y-68001692D01*
X136174998Y-68001677D01*
X136164855Y-67902392D01*
X136111547Y-67741518D01*
X136111542Y-67741507D01*
X136022575Y-67597271D01*
X136022572Y-67597267D01*
X135902732Y-67477427D01*
X135902728Y-67477424D01*
X135758492Y-67388457D01*
X135758481Y-67388452D01*
X135597606Y-67335144D01*
X135498322Y-67325000D01*
X135450000Y-67325000D01*
X135450000Y-68025000D01*
X134950000Y-68025000D01*
X134950000Y-67325000D01*
X134949999Y-67324999D01*
X134901693Y-67325000D01*
X134901675Y-67325001D01*
X134802392Y-67335144D01*
X134641518Y-67388452D01*
X134641507Y-67388457D01*
X134497271Y-67477424D01*
X134497267Y-67477427D01*
X134377427Y-67597267D01*
X134377424Y-67597271D01*
X134288457Y-67741507D01*
X134288451Y-67741522D01*
X134277325Y-67775095D01*
X134225726Y-67994573D01*
X134225000Y-68001682D01*
X132655587Y-68001682D01*
X132650000Y-67976000D01*
X132650000Y-67850000D01*
X133150000Y-67850000D01*
X134004954Y-67850000D01*
X134029719Y-67744660D01*
X134013781Y-67689802D01*
X133930185Y-67548447D01*
X133930178Y-67548438D01*
X133814061Y-67432321D01*
X133814052Y-67432314D01*
X133672696Y-67348717D01*
X133672693Y-67348716D01*
X133514995Y-67302900D01*
X133514989Y-67302899D01*
X133478149Y-67300000D01*
X133150000Y-67300000D01*
X133150000Y-67850000D01*
X132650000Y-67850000D01*
X132650000Y-67300000D01*
X132321845Y-67300000D01*
X132283726Y-67303000D01*
X132215349Y-67288634D01*
X132165594Y-67239582D01*
X132150000Y-67179382D01*
X132150000Y-66949000D01*
X132169685Y-66881961D01*
X132222489Y-66836206D01*
X132274000Y-66825000D01*
X136726000Y-66825000D01*
X136793039Y-66844685D01*
G37*
%TD.AperFunction*%
%TD*%
%TA.AperFunction,Conductor*%
%TO.N,VBUS_IN*%
G36*
X147743039Y-29394685D02*
G01*
X147788794Y-29447489D01*
X147800000Y-29499000D01*
X147800000Y-30306000D01*
X147780315Y-30373039D01*
X147727511Y-30418794D01*
X147676000Y-30430000D01*
X147670000Y-30430000D01*
X147670000Y-32630000D01*
X147676000Y-32630000D01*
X147743039Y-32649685D01*
X147788794Y-32702489D01*
X147800000Y-32754000D01*
X147800000Y-33376000D01*
X147780315Y-33443039D01*
X147727511Y-33488794D01*
X147676000Y-33500000D01*
X147149000Y-33500000D01*
X147081961Y-33480315D01*
X147036206Y-33427511D01*
X147025000Y-33376000D01*
X147025000Y-32754000D01*
X147044685Y-32686961D01*
X147097489Y-32641206D01*
X147149000Y-32630000D01*
X147170000Y-32630000D01*
X147170000Y-30430000D01*
X146992155Y-30430000D01*
X146932627Y-30436401D01*
X146932620Y-30436403D01*
X146797913Y-30486645D01*
X146797906Y-30486649D01*
X146682814Y-30572808D01*
X146682806Y-30572815D01*
X146680942Y-30575307D01*
X146678448Y-30577173D01*
X146676537Y-30579085D01*
X146676262Y-30578810D01*
X146625010Y-30617180D01*
X146581673Y-30625000D01*
X145218327Y-30625000D01*
X145151288Y-30605315D01*
X145119058Y-30575307D01*
X145117193Y-30572815D01*
X145117185Y-30572808D01*
X145002093Y-30486649D01*
X145002086Y-30486645D01*
X144867379Y-30436403D01*
X144867372Y-30436401D01*
X144807844Y-30430000D01*
X144630000Y-30430000D01*
X144630000Y-32630000D01*
X144651000Y-32630000D01*
X144718039Y-32649685D01*
X144763794Y-32702489D01*
X144775000Y-32754000D01*
X144775000Y-33376000D01*
X144755315Y-33443039D01*
X144702511Y-33488794D01*
X144651000Y-33500000D01*
X144124000Y-33500000D01*
X144056961Y-33480315D01*
X144011206Y-33427511D01*
X144000000Y-33376000D01*
X144000000Y-32754000D01*
X144019685Y-32686961D01*
X144072489Y-32641206D01*
X144124000Y-32630000D01*
X144130000Y-32630000D01*
X144130000Y-30430000D01*
X144124000Y-30430000D01*
X144056961Y-30410315D01*
X144011206Y-30357511D01*
X144000000Y-30306000D01*
X144000000Y-29499000D01*
X144019685Y-29431961D01*
X144072489Y-29386206D01*
X144124000Y-29375000D01*
X147676000Y-29375000D01*
X147743039Y-29394685D01*
G37*
%TD.AperFunction*%
%TD*%
%TA.AperFunction,Conductor*%
%TO.N,/Power/FET_SRC*%
G36*
X141343039Y-33919685D02*
G01*
X141388794Y-33972489D01*
X141400000Y-34024000D01*
X141400000Y-37176000D01*
X141380315Y-37243039D01*
X141327511Y-37288794D01*
X141276000Y-37300000D01*
X136924000Y-37300000D01*
X136856961Y-37280315D01*
X136811206Y-37227511D01*
X136800000Y-37176000D01*
X136800000Y-36524000D01*
X136819685Y-36456961D01*
X136872489Y-36411206D01*
X136924000Y-36400000D01*
X139200000Y-36400000D01*
X139200000Y-34800000D01*
X136924000Y-34800000D01*
X136856961Y-34780315D01*
X136811206Y-34727511D01*
X136800000Y-34676000D01*
X136800000Y-34024000D01*
X136819685Y-33956961D01*
X136872489Y-33911206D01*
X136924000Y-33900000D01*
X141276000Y-33900000D01*
X141343039Y-33919685D01*
G37*
%TD.AperFunction*%
%TD*%
%TA.AperFunction,Conductor*%
%TO.N,/Power Conversion/PH*%
G36*
X140443039Y-49619685D02*
G01*
X140488794Y-49672489D01*
X140500000Y-49724000D01*
X140500000Y-57676000D01*
X140480315Y-57743039D01*
X140427511Y-57788794D01*
X140376000Y-57800000D01*
X132024000Y-57800000D01*
X131956961Y-57780315D01*
X131911206Y-57727511D01*
X131900000Y-57676000D01*
X131900000Y-52820943D01*
X135599500Y-52820943D01*
X135599500Y-52979056D01*
X135640423Y-53131783D01*
X135640426Y-53131790D01*
X135719475Y-53268709D01*
X135719479Y-53268714D01*
X135719480Y-53268716D01*
X135831284Y-53380520D01*
X135831286Y-53380521D01*
X135831290Y-53380524D01*
X135968209Y-53459573D01*
X135968216Y-53459577D01*
X136120943Y-53500500D01*
X136120945Y-53500500D01*
X136279055Y-53500500D01*
X136279057Y-53500500D01*
X136431784Y-53459577D01*
X136568716Y-53380520D01*
X136680520Y-53268716D01*
X136759577Y-53131784D01*
X136800500Y-52979057D01*
X136800500Y-52820943D01*
X136759577Y-52668216D01*
X136759573Y-52668209D01*
X136680524Y-52531290D01*
X136680518Y-52531282D01*
X136568717Y-52419481D01*
X136568709Y-52419475D01*
X136431790Y-52340426D01*
X136431786Y-52340424D01*
X136431784Y-52340423D01*
X136279057Y-52299500D01*
X136120943Y-52299500D01*
X135968216Y-52340423D01*
X135968209Y-52340426D01*
X135831290Y-52419475D01*
X135831282Y-52419481D01*
X135719481Y-52531282D01*
X135719475Y-52531290D01*
X135640426Y-52668209D01*
X135640423Y-52668216D01*
X135599500Y-52820943D01*
X131900000Y-52820943D01*
X131900000Y-50620943D01*
X136199500Y-50620943D01*
X136199500Y-50779056D01*
X136240423Y-50931783D01*
X136240426Y-50931790D01*
X136319475Y-51068709D01*
X136319479Y-51068714D01*
X136319480Y-51068716D01*
X136431284Y-51180520D01*
X136431286Y-51180521D01*
X136431290Y-51180524D01*
X136568209Y-51259573D01*
X136568216Y-51259577D01*
X136720943Y-51300500D01*
X136720945Y-51300500D01*
X136879055Y-51300500D01*
X136879057Y-51300500D01*
X137031784Y-51259577D01*
X137168716Y-51180520D01*
X137280520Y-51068716D01*
X137359577Y-50931784D01*
X137400500Y-50779057D01*
X137400500Y-50620943D01*
X137359577Y-50468216D01*
X137359573Y-50468209D01*
X137280524Y-50331290D01*
X137280518Y-50331282D01*
X137168717Y-50219481D01*
X137168709Y-50219475D01*
X137031790Y-50140426D01*
X137031786Y-50140424D01*
X137031784Y-50140423D01*
X136879057Y-50099500D01*
X136720943Y-50099500D01*
X136568216Y-50140423D01*
X136568209Y-50140426D01*
X136431290Y-50219475D01*
X136431282Y-50219481D01*
X136319481Y-50331282D01*
X136319475Y-50331290D01*
X136240426Y-50468209D01*
X136240423Y-50468216D01*
X136199500Y-50620943D01*
X131900000Y-50620943D01*
X131900000Y-49724000D01*
X131919685Y-49656961D01*
X131972489Y-49611206D01*
X132024000Y-49600000D01*
X140376000Y-49600000D01*
X140443039Y-49619685D01*
G37*
%TD.AperFunction*%
%TD*%
M02*
