%TF.GenerationSoftware,KiCad,Pcbnew,9.0.6*%
%TF.CreationDate,2026-03-21T00:11:43-07:00*%
%TF.ProjectId,Tilt_Table_PCB,54696c74-5f54-4616-926c-655f5043422e,rev?*%
%TF.SameCoordinates,Original*%
%TF.FileFunction,Soldermask,Bot*%
%TF.FilePolarity,Negative*%
%FSLAX46Y46*%
G04 Gerber Fmt 4.6, Leading zero omitted, Abs format (unit mm)*
G04 Created by KiCad (PCBNEW 9.0.6) date 2026-03-21 00:11:43*
%MOMM*%
%LPD*%
G01*
G04 APERTURE LIST*
%ADD10R,1.700000X1.700000*%
%ADD11C,1.700000*%
%ADD12O,2.000000X0.975000*%
%ADD13O,0.950000X1.250000*%
%ADD14C,3.200000*%
%ADD15O,1.252400X1.852400*%
G04 APERTURE END LIST*
D10*
%TO.C,J5*%
X175322500Y-96610000D03*
D11*
X177862500Y-96610000D03*
X180402500Y-96610000D03*
%TD*%
D10*
%TO.C,J9*%
X152300000Y-69260000D03*
D11*
X152300000Y-71800000D03*
X152300000Y-74340000D03*
%TD*%
D12*
%TO.C,J6*%
X144650000Y-84537500D03*
D13*
X147350000Y-85550000D03*
X147350000Y-90550000D03*
D12*
X144650000Y-91562500D03*
%TD*%
D14*
%TO.C,H1*%
X148000000Y-30000000D03*
%TD*%
%TO.C,H2*%
X190000000Y-30000000D03*
%TD*%
D10*
%TO.C,J11*%
X191800000Y-72060000D03*
D11*
X191800000Y-69520000D03*
X191800000Y-66980000D03*
X191800000Y-64440000D03*
%TD*%
D10*
%TO.C,J7*%
X168490000Y-96800000D03*
D11*
X165950000Y-96800000D03*
X163410000Y-96800000D03*
X160870000Y-96800000D03*
X158330000Y-96800000D03*
%TD*%
D14*
%TO.C,H3*%
X148000000Y-99000000D03*
%TD*%
%TO.C,H4*%
X190000000Y-99000000D03*
%TD*%
D15*
%TO.C,J1*%
X167139000Y-28049287D03*
X158499000Y-28049287D03*
X167139000Y-31849287D03*
X158499000Y-31849287D03*
%TD*%
D10*
%TO.C,J3*%
X146200000Y-36050000D03*
D11*
X146200000Y-38590000D03*
%TD*%
D10*
%TO.C,J8*%
X188410000Y-59050000D03*
D11*
X185870000Y-59050000D03*
X183330000Y-59050000D03*
X180790000Y-59050000D03*
%TD*%
D10*
%TO.C,J10*%
X147200000Y-69300000D03*
D11*
X147200000Y-71840000D03*
X147200000Y-74380000D03*
%TD*%
D10*
%TO.C,J12*%
X146450000Y-47475000D03*
D11*
X146450000Y-50015000D03*
%TD*%
D10*
%TO.C,J2*%
X192350000Y-52030000D03*
D11*
X192350000Y-49490000D03*
X192350000Y-46950000D03*
X192350000Y-44410000D03*
X192350000Y-41870000D03*
X192350000Y-39330000D03*
X192350000Y-36790000D03*
%TD*%
M02*
