%TF.GenerationSoftware,KiCad,Pcbnew,9.0.6*%
%TF.CreationDate,2026-03-21T00:11:43-07:00*%
%TF.ProjectId,Tilt_Table_PCB,54696c74-5f54-4616-926c-655f5043422e,rev?*%
%TF.SameCoordinates,Original*%
%TF.FileFunction,Copper,L1,Top*%
%TF.FilePolarity,Positive*%
%FSLAX46Y46*%
G04 Gerber Fmt 4.6, Leading zero omitted, Abs format (unit mm)*
G04 Created by KiCad (PCBNEW 9.0.6) date 2026-03-21 00:11:43*
%MOMM*%
%LPD*%
G01*
G04 APERTURE LIST*
G04 Aperture macros list*
%AMRoundRect*
0 Rectangle with rounded corners*
0 $1 Rounding radius*
0 $2 $3 $4 $5 $6 $7 $8 $9 X,Y pos of 4 corners*
0 Add a 4 corners polygon primitive as box body*
4,1,4,$2,$3,$4,$5,$6,$7,$8,$9,$2,$3,0*
0 Add four circle primitives for the rounded corners*
1,1,$1+$1,$2,$3*
1,1,$1+$1,$4,$5*
1,1,$1+$1,$6,$7*
1,1,$1+$1,$8,$9*
0 Add four rect primitives between the rounded corners*
20,1,$1+$1,$2,$3,$4,$5,0*
20,1,$1+$1,$4,$5,$6,$7,0*
20,1,$1+$1,$6,$7,$8,$9,0*
20,1,$1+$1,$8,$9,$2,$3,0*%
G04 Aperture macros list end*
%TA.AperFunction,SMDPad,CuDef*%
%ADD10RoundRect,0.200000X-0.275000X0.200000X-0.275000X-0.200000X0.275000X-0.200000X0.275000X0.200000X0*%
%TD*%
%TA.AperFunction,ComponentPad*%
%ADD11R,1.700000X1.700000*%
%TD*%
%TA.AperFunction,ComponentPad*%
%ADD12C,1.700000*%
%TD*%
%TA.AperFunction,SMDPad,CuDef*%
%ADD13RoundRect,0.250000X-0.525000X-0.400000X0.525000X-0.400000X0.525000X0.400000X-0.525000X0.400000X0*%
%TD*%
%TA.AperFunction,SMDPad,CuDef*%
%ADD14RoundRect,0.100000X0.637500X0.100000X-0.637500X0.100000X-0.637500X-0.100000X0.637500X-0.100000X0*%
%TD*%
%TA.AperFunction,SMDPad,CuDef*%
%ADD15R,5.400000X2.900000*%
%TD*%
%TA.AperFunction,SMDPad,CuDef*%
%ADD16RoundRect,0.250000X0.250000X0.475000X-0.250000X0.475000X-0.250000X-0.475000X0.250000X-0.475000X0*%
%TD*%
%TA.AperFunction,SMDPad,CuDef*%
%ADD17RoundRect,0.225000X0.250000X-0.225000X0.250000X0.225000X-0.250000X0.225000X-0.250000X-0.225000X0*%
%TD*%
%TA.AperFunction,SMDPad,CuDef*%
%ADD18RoundRect,0.200000X0.200000X0.275000X-0.200000X0.275000X-0.200000X-0.275000X0.200000X-0.275000X0*%
%TD*%
%TA.AperFunction,SMDPad,CuDef*%
%ADD19R,3.120000X2.180000*%
%TD*%
%TA.AperFunction,SMDPad,CuDef*%
%ADD20RoundRect,0.225000X0.225000X0.250000X-0.225000X0.250000X-0.225000X-0.250000X0.225000X-0.250000X0*%
%TD*%
%TA.AperFunction,SMDPad,CuDef*%
%ADD21RoundRect,0.250000X-0.475000X0.250000X-0.475000X-0.250000X0.475000X-0.250000X0.475000X0.250000X0*%
%TD*%
%TA.AperFunction,SMDPad,CuDef*%
%ADD22RoundRect,0.150000X0.587500X0.150000X-0.587500X0.150000X-0.587500X-0.150000X0.587500X-0.150000X0*%
%TD*%
%TA.AperFunction,SMDPad,CuDef*%
%ADD23RoundRect,0.218750X-0.256250X0.218750X-0.256250X-0.218750X0.256250X-0.218750X0.256250X0.218750X0*%
%TD*%
%TA.AperFunction,SMDPad,CuDef*%
%ADD24RoundRect,0.200000X-0.200000X-0.275000X0.200000X-0.275000X0.200000X0.275000X-0.200000X0.275000X0*%
%TD*%
%TA.AperFunction,SMDPad,CuDef*%
%ADD25RoundRect,0.225000X-0.225000X-0.250000X0.225000X-0.250000X0.225000X0.250000X-0.225000X0.250000X0*%
%TD*%
%TA.AperFunction,SMDPad,CuDef*%
%ADD26RoundRect,0.200000X0.275000X-0.200000X0.275000X0.200000X-0.275000X0.200000X-0.275000X-0.200000X0*%
%TD*%
%TA.AperFunction,SMDPad,CuDef*%
%ADD27RoundRect,0.100000X-0.575000X0.100000X-0.575000X-0.100000X0.575000X-0.100000X0.575000X0.100000X0*%
%TD*%
%TA.AperFunction,HeatsinkPad*%
%ADD28O,2.000000X0.975000*%
%TD*%
%TA.AperFunction,SMDPad,CuDef*%
%ADD29RoundRect,0.250000X-0.750000X0.475000X-0.750000X-0.475000X0.750000X-0.475000X0.750000X0.475000X0*%
%TD*%
%TA.AperFunction,HeatsinkPad*%
%ADD30O,0.950000X1.250000*%
%TD*%
%TA.AperFunction,SMDPad,CuDef*%
%ADD31RoundRect,0.250000X-0.525000X0.500000X-0.525000X-0.500000X0.525000X-0.500000X0.525000X0.500000X0*%
%TD*%
%TA.AperFunction,SMDPad,CuDef*%
%ADD32RoundRect,0.225000X-0.250000X0.225000X-0.250000X-0.225000X0.250000X-0.225000X0.250000X0.225000X0*%
%TD*%
%TA.AperFunction,SMDPad,CuDef*%
%ADD33RoundRect,0.250000X-0.250000X-0.475000X0.250000X-0.475000X0.250000X0.475000X-0.250000X0.475000X0*%
%TD*%
%TA.AperFunction,SMDPad,CuDef*%
%ADD34R,0.700000X1.200000*%
%TD*%
%TA.AperFunction,SMDPad,CuDef*%
%ADD35R,0.760000X1.200000*%
%TD*%
%TA.AperFunction,SMDPad,CuDef*%
%ADD36R,0.800000X1.200000*%
%TD*%
%TA.AperFunction,ComponentPad*%
%ADD37O,1.100000X1.700000*%
%TD*%
%TA.AperFunction,SMDPad,CuDef*%
%ADD38RoundRect,0.015000X-0.285000X0.760000X-0.285000X-0.760000X0.285000X-0.760000X0.285000X0.760000X0*%
%TD*%
%TA.AperFunction,SMDPad,CuDef*%
%ADD39R,4.900000X2.950000*%
%TD*%
%TA.AperFunction,SMDPad,CuDef*%
%ADD40RoundRect,0.062500X0.337500X0.062500X-0.337500X0.062500X-0.337500X-0.062500X0.337500X-0.062500X0*%
%TD*%
%TA.AperFunction,SMDPad,CuDef*%
%ADD41RoundRect,0.062500X0.062500X0.337500X-0.062500X0.337500X-0.062500X-0.337500X0.062500X-0.337500X0*%
%TD*%
%TA.AperFunction,HeatsinkPad*%
%ADD42R,2.750000X2.750000*%
%TD*%
%TA.AperFunction,SMDPad,CuDef*%
%ADD43RoundRect,0.150000X-0.512500X-0.150000X0.512500X-0.150000X0.512500X0.150000X-0.512500X0.150000X0*%
%TD*%
%TA.AperFunction,SMDPad,CuDef*%
%ADD44RoundRect,0.218750X0.218750X0.256250X-0.218750X0.256250X-0.218750X-0.256250X0.218750X-0.256250X0*%
%TD*%
%TA.AperFunction,SMDPad,CuDef*%
%ADD45RoundRect,0.250000X0.475000X-0.250000X0.475000X0.250000X-0.475000X0.250000X-0.475000X-0.250000X0*%
%TD*%
%TA.AperFunction,SMDPad,CuDef*%
%ADD46RoundRect,0.075000X-0.910000X-0.225000X0.910000X-0.225000X0.910000X0.225000X-0.910000X0.225000X0*%
%TD*%
%TA.AperFunction,ViaPad*%
%ADD47C,0.700000*%
%TD*%
%TA.AperFunction,Conductor*%
%ADD48C,0.250000*%
%TD*%
%TA.AperFunction,Conductor*%
%ADD49C,0.200000*%
%TD*%
%TA.AperFunction,Conductor*%
%ADD50C,0.500000*%
%TD*%
%TA.AperFunction,Conductor*%
%ADD51C,0.300000*%
%TD*%
G04 APERTURE END LIST*
D10*
%TO.P,R4,1*%
%TO.N,VBUS_IN*%
X162750000Y-43525000D03*
%TO.P,R4,2*%
%TO.N,/Power/VBUS_FET_EN_R*%
X162750000Y-45175000D03*
%TD*%
D11*
%TO.P,J5,1,Pin_1*%
%TO.N,+3.3V*%
X175322500Y-96610000D03*
D12*
%TO.P,J5,2,Pin_2*%
%TO.N,/MCU/HDR_BOOT0*%
X177862500Y-96610000D03*
%TO.P,J5,3,Pin_3*%
%TO.N,GND*%
X180402500Y-96610000D03*
%TD*%
D13*
%TO.P,RST_BTN1,1,1*%
%TO.N,GND*%
X181972000Y-82784000D03*
X189932000Y-82784000D03*
%TO.P,RST_BTN1,2,2*%
%TO.N,/MCU/NRST*%
X181972000Y-87284000D03*
X189932000Y-87284000D03*
%TD*%
D14*
%TO.P,U4,1,PB8*%
%TO.N,/MCU/BOOT0*%
X172244000Y-89356000D03*
%TO.P,U4,2,PF0*%
%TO.N,/MCU/PF0*%
X172244000Y-88706000D03*
%TO.P,U4,3,PF1*%
%TO.N,/MCU/PF1*%
X172244000Y-88056000D03*
%TO.P,U4,4,NRST*%
%TO.N,/MCU/NRST*%
X172244000Y-87406000D03*
%TO.P,U4,5,VDDA*%
%TO.N,+3.3VA*%
X172244000Y-86756000D03*
%TO.P,U4,6,PA0*%
%TO.N,SERVO_EN*%
X172244000Y-86106000D03*
%TO.P,U4,7,PA1*%
%TO.N,/MCU/SERVO_X*%
X172244000Y-85456000D03*
%TO.P,U4,8,PA2*%
%TO.N,/MCU/UART_TX*%
X172244000Y-84806000D03*
%TO.P,U4,9,PA3*%
%TO.N,/MCU/UART_RX*%
X172244000Y-84156000D03*
%TO.P,U4,10,PA4*%
%TO.N,/MCU/SERVO_Y*%
X172244000Y-83506000D03*
%TO.P,U4,11,PA5*%
%TO.N,/MCU/Tilt_Yup*%
X166519000Y-83506000D03*
%TO.P,U4,12,PA6*%
%TO.N,/MCU/Tilt_Ydown*%
X166519000Y-84156000D03*
%TO.P,U4,13,PA7*%
%TO.N,/MCU/Tilt_Xle*%
X166519000Y-84806000D03*
%TO.P,U4,14,PB1*%
%TO.N,/MCU/Tilt_Xri*%
X166519000Y-85456000D03*
%TO.P,U4,15,VSSA*%
%TO.N,GND*%
X166519000Y-86106000D03*
%TO.P,U4,16,VDD*%
%TO.N,+3.3V*%
X166519000Y-86756000D03*
%TO.P,U4,17,PA9/PA11*%
%TO.N,/MCU/USB_D-*%
X166519000Y-87406000D03*
%TO.P,U4,18,PA10/PA12*%
%TO.N,/MCU/USB_D+*%
X166519000Y-88056000D03*
%TO.P,U4,19,PA13*%
%TO.N,/MCU/SWDIO*%
X166519000Y-88706000D03*
%TO.P,U4,20,PA14*%
%TO.N,/MCU/SWCLK*%
X166519000Y-89356000D03*
%TD*%
D15*
%TO.P,L1,1,1*%
%TO.N,/Power/PH*%
X162200000Y-56750000D03*
%TO.P,L1,2,2*%
%TO.N,+6V*%
X162200000Y-66450000D03*
%TD*%
D16*
%TO.P,C5,1*%
%TO.N,VBUS_IN*%
X160725000Y-34850000D03*
%TO.P,C5,2*%
%TO.N,GND*%
X158825000Y-34850000D03*
%TD*%
D17*
%TO.P,C23,1*%
%TO.N,+3.3VA*%
X176300000Y-86825000D03*
%TO.P,C23,2*%
%TO.N,GND*%
X176300000Y-85275000D03*
%TD*%
D18*
%TO.P,R3,1*%
%TO.N,/Power/VSENSE*%
X150675000Y-62850000D03*
%TO.P,R3,2*%
%TO.N,GND*%
X149025000Y-62850000D03*
%TD*%
D19*
%TO.P,D1,1,K*%
%TO.N,/Power/PH*%
X172400000Y-57015000D03*
%TO.P,D1,2,A*%
%TO.N,GND*%
X172400000Y-63985000D03*
%TD*%
D20*
%TO.P,C12,1*%
%TO.N,PDC_3.3V*%
X170743000Y-44784000D03*
%TO.P,C12,2*%
%TO.N,GND*%
X169193000Y-44784000D03*
%TD*%
D21*
%TO.P,C13,1*%
%TO.N,VBUS_IN*%
X164900000Y-43600000D03*
%TO.P,C13,2*%
%TO.N,/Power/VBUS_FET_EN_R*%
X164900000Y-45500000D03*
%TD*%
D22*
%TO.P,Q2,1,G*%
%TO.N,/Power/FAULT*%
X182137500Y-30700000D03*
%TO.P,Q2,2,S*%
%TO.N,GND*%
X182137500Y-28800000D03*
%TO.P,Q2,3,D*%
%TO.N,Net-(Q2-D)*%
X180262500Y-29750000D03*
%TD*%
D10*
%TO.P,R19,1*%
%TO.N,/Power/ISNK_FINE*%
X182250000Y-45425000D03*
%TO.P,R19,2*%
%TO.N,GND*%
X182250000Y-47075000D03*
%TD*%
D11*
%TO.P,J9,1,Pin_1*%
%TO.N,GND*%
X152300000Y-69260000D03*
D12*
%TO.P,J9,2,Pin_2*%
%TO.N,+6V*%
X152300000Y-71800000D03*
%TO.P,J9,3,Pin_3*%
%TO.N,/MCU/SERVO_Y*%
X152300000Y-74340000D03*
%TD*%
D23*
%TO.P,D2,1,K*%
%TO.N,Net-(D2-K)*%
X170650000Y-31550000D03*
%TO.P,D2,2,A*%
%TO.N,VBUS_IN*%
X170650000Y-33125000D03*
%TD*%
D17*
%TO.P,C19,1*%
%TO.N,+3.3V*%
X164501000Y-86425000D03*
%TO.P,C19,2*%
%TO.N,GND*%
X164501000Y-84875000D03*
%TD*%
D24*
%TO.P,R16,1*%
%TO.N,PDC_3.3V*%
X174225000Y-50300000D03*
%TO.P,R16,2*%
%TO.N,/Power/VBUS_MIN*%
X175875000Y-50300000D03*
%TD*%
D20*
%TO.P,C2,1*%
%TO.N,/Power/COMP*%
X154075000Y-55000000D03*
%TO.P,C2,2*%
%TO.N,GND*%
X152525000Y-55000000D03*
%TD*%
D25*
%TO.P,C6,1*%
%TO.N,/Power/PDC_VCCD*%
X172400000Y-43150000D03*
%TO.P,C6,2*%
%TO.N,GND*%
X173950000Y-43150000D03*
%TD*%
D20*
%TO.P,C10,1*%
%TO.N,PDC_3.3V*%
X170743000Y-43133000D03*
%TO.P,C10,2*%
%TO.N,GND*%
X169193000Y-43133000D03*
%TD*%
D10*
%TO.P,R13,1*%
%TO.N,/Power/ISNK_COARSE*%
X178900000Y-40875000D03*
%TO.P,R13,2*%
%TO.N,GND*%
X178900000Y-42525000D03*
%TD*%
D26*
%TO.P,R5,1*%
%TO.N,Net-(D2-K)*%
X170650000Y-30025000D03*
%TO.P,R5,2*%
%TO.N,GND*%
X170650000Y-28375000D03*
%TD*%
D10*
%TO.P,R2,1*%
%TO.N,/Power/PH*%
X152350000Y-61200000D03*
%TO.P,R2,2*%
%TO.N,/Power/VSENSE*%
X152350000Y-62850000D03*
%TD*%
D27*
%TO.P,J6,1,VBUS*%
%TO.N,+5V*%
X147350000Y-86750000D03*
%TO.P,J6,2,D-*%
%TO.N,/MCU/USB_D-*%
X147350000Y-87400000D03*
%TO.P,J6,3,D+*%
%TO.N,/MCU/USB_D+*%
X147350000Y-88050000D03*
%TO.P,J6,4,ID*%
%TO.N,unconnected-(J6-ID-Pad4)*%
X147350000Y-88700000D03*
%TO.P,J6,5,GND*%
%TO.N,GND*%
X147350000Y-89350000D03*
D28*
%TO.P,J6,6,Shield*%
%TO.N,unconnected-(J6-Shield-Pad6)_1*%
X144650000Y-84537500D03*
D29*
%TO.N,unconnected-(J6-Shield-Pad6)_7*%
X144650000Y-85025000D03*
D30*
%TO.N,unconnected-(J6-Shield-Pad6)_3*%
X147350000Y-85550000D03*
D31*
%TO.N,unconnected-(J6-Shield-Pad6)_5*%
X144650000Y-87050000D03*
%TO.N,unconnected-(J6-Shield-Pad6)*%
X144650000Y-89050000D03*
D30*
%TO.N,unconnected-(J6-Shield-Pad6)_6*%
X147350000Y-90550000D03*
D29*
%TO.N,unconnected-(J6-Shield-Pad6)_4*%
X144650000Y-91075000D03*
D28*
%TO.N,unconnected-(J6-Shield-Pad6)_2*%
X144650000Y-91562500D03*
%TD*%
D21*
%TO.P,C15,1*%
%TO.N,/Power/VBUS_OUT*%
X150200000Y-36150000D03*
%TO.P,C15,2*%
%TO.N,GND*%
X150200000Y-38050000D03*
%TD*%
D26*
%TO.P,R18,1*%
%TO.N,PDC_3.3V*%
X184100000Y-47075000D03*
%TO.P,R18,2*%
%TO.N,/Power/ISNK_FINE*%
X184100000Y-45425000D03*
%TD*%
D18*
%TO.P,R6,1*%
%TO.N,/Power/VBUS_FET_G*%
X152075000Y-41850000D03*
%TO.P,R6,2*%
%TO.N,/Power/VBUS_FET_EN_R*%
X150425000Y-41850000D03*
%TD*%
D32*
%TO.P,C7,1*%
%TO.N,/Power/BOOT*%
X158705000Y-49475000D03*
%TO.P,C7,2*%
%TO.N,/Power/PH*%
X158705000Y-51025000D03*
%TD*%
D11*
%TO.P,J11,1,Pin_1*%
%TO.N,/MCU/PF0*%
X191800000Y-72060000D03*
D12*
%TO.P,J11,2,Pin_2*%
%TO.N,/MCU/PF1*%
X191800000Y-69520000D03*
%TO.P,J11,3,Pin_3*%
%TO.N,/MCU/UART_TX*%
X191800000Y-66980000D03*
%TO.P,J11,4,Pin_4*%
%TO.N,/MCU/UART_RX*%
X191800000Y-64440000D03*
%TD*%
D17*
%TO.P,C21,1*%
%TO.N,+3.3V*%
X158881000Y-77517000D03*
%TO.P,C21,2*%
%TO.N,GND*%
X158881000Y-75967000D03*
%TD*%
D11*
%TO.P,J7,1,Pin_1*%
%TO.N,+3.3V*%
X168490000Y-96800000D03*
D12*
%TO.P,J7,2,Pin_2*%
%TO.N,GND*%
X165950000Y-96800000D03*
%TO.P,J7,3,Pin_3*%
%TO.N,/MCU/NRST*%
X163410000Y-96800000D03*
%TO.P,J7,4,Pin_4*%
%TO.N,/MCU/SWCLK*%
X160870000Y-96800000D03*
%TO.P,J7,5,Pin_5*%
%TO.N,/MCU/SWDIO*%
X158330000Y-96800000D03*
%TD*%
D33*
%TO.P,C9,1*%
%TO.N,+6V*%
X164500000Y-69700000D03*
%TO.P,C9,2*%
%TO.N,GND*%
X166400000Y-69700000D03*
%TD*%
D20*
%TO.P,C8,1*%
%TO.N,PDC_3.3V*%
X170743000Y-46435000D03*
%TO.P,C8,2*%
%TO.N,GND*%
X169193000Y-46435000D03*
%TD*%
D32*
%TO.P,C1,1*%
%TO.N,/Power/SS*%
X150900000Y-47500000D03*
%TO.P,C1,2*%
%TO.N,GND*%
X150900000Y-49050000D03*
%TD*%
D18*
%TO.P,R1,1*%
%TO.N,Net-(C4-Pad2)*%
X150975000Y-56800000D03*
%TO.P,R1,2*%
%TO.N,GND*%
X149325000Y-56800000D03*
%TD*%
D24*
%TO.P,R14,1*%
%TO.N,PDC_3.3V*%
X188025000Y-36850000D03*
%TO.P,R14,2*%
%TO.N,/Power/FLIP*%
X189675000Y-36850000D03*
%TD*%
D17*
%TO.P,C18,1*%
%TO.N,+5V*%
X153567000Y-81872000D03*
%TO.P,C18,2*%
%TO.N,GND*%
X153567000Y-80322000D03*
%TD*%
D24*
%TO.P,R20,1*%
%TO.N,PDC_3.3V*%
X188075000Y-41900000D03*
%TO.P,R20,2*%
%TO.N,/Power/HPI_SCL*%
X189725000Y-41900000D03*
%TD*%
D18*
%TO.P,R17,1*%
%TO.N,/Power/VBUS_MIN*%
X175875000Y-48500000D03*
%TO.P,R17,2*%
%TO.N,GND*%
X174225000Y-48500000D03*
%TD*%
D24*
%TO.P,R21,1*%
%TO.N,PDC_3.3V*%
X188100000Y-44150000D03*
%TO.P,R21,2*%
%TO.N,/Power/SWD_IO_INT*%
X189750000Y-44150000D03*
%TD*%
%TO.P,R9,1*%
%TO.N,Net-(D3-K)*%
X175425000Y-29700000D03*
%TO.P,R9,2*%
%TO.N,Net-(Q2-D)*%
X177075000Y-29700000D03*
%TD*%
D23*
%TO.P,D3,1,K*%
%TO.N,Net-(D3-K)*%
X175400000Y-31862500D03*
%TO.P,D3,2,A*%
%TO.N,VBUS_IN*%
X175400000Y-33437500D03*
%TD*%
D34*
%TO.P,J1,A5,CC1*%
%TO.N,/Power/USB_CC1*%
X163319000Y-31929287D03*
D35*
%TO.P,J1,A9,VBUS1*%
%TO.N,VBUS_IN*%
X161299000Y-31929287D03*
D36*
%TO.P,J1,A12,GND1*%
%TO.N,GND*%
X160069000Y-31929287D03*
D34*
%TO.P,J1,B5,CC2*%
%TO.N,/Power/USB_CC2*%
X162319000Y-31929287D03*
D35*
%TO.P,J1,B9,VBUS2*%
%TO.N,VBUS_IN*%
X164339000Y-31929287D03*
D36*
%TO.P,J1,B12,GND2*%
%TO.N,GND*%
X165569000Y-31929287D03*
D37*
%TO.P,J1,SH1,SHIELD1*%
X167139000Y-28049287D03*
%TO.P,J1,SH2,SHIELD2*%
X158499000Y-28049287D03*
%TO.P,J1,SH3,SHIELD3*%
X167139000Y-31849287D03*
%TO.P,J1,SH4,SHIELD4*%
X158499000Y-31849287D03*
%TD*%
D38*
%TO.P,U1,1,BOOT*%
%TO.N,/Power/BOOT*%
X156605000Y-47550000D03*
%TO.P,U1,2,VIN*%
%TO.N,/Power/VBUS_OUT*%
X155335000Y-47550000D03*
%TO.P,U1,3,EN*%
%TO.N,Net-(J12-Pin_1)*%
X154065000Y-47550000D03*
%TO.P,U1,4,SS*%
%TO.N,/Power/SS*%
X152795000Y-47550000D03*
%TO.P,U1,5,VSENSE*%
%TO.N,/Power/VSENSE*%
X152795000Y-52950000D03*
%TO.P,U1,6,COMP*%
%TO.N,/Power/COMP*%
X154065000Y-52950000D03*
%TO.P,U1,7,GND*%
%TO.N,GND*%
X155335000Y-52950000D03*
%TO.P,U1,8,PH*%
%TO.N,/Power/PH*%
X156605000Y-52950000D03*
D39*
%TO.P,U1,9,EXP*%
%TO.N,GND*%
X154700000Y-50250000D03*
%TD*%
D17*
%TO.P,C22,1*%
%TO.N,+3.3VA*%
X174522000Y-86825000D03*
%TO.P,C22,2*%
%TO.N,GND*%
X174522000Y-85275000D03*
%TD*%
D11*
%TO.P,J3,1,Pin_1*%
%TO.N,/Power/VBUS_OUT*%
X146200000Y-36050000D03*
D12*
%TO.P,J3,2,Pin_2*%
%TO.N,GND*%
X146200000Y-38590000D03*
%TD*%
D23*
%TO.P,D4,1,K*%
%TO.N,Net-(D4-K)*%
X161431000Y-75954500D03*
%TO.P,D4,2,A*%
%TO.N,+3.3V*%
X161431000Y-77529500D03*
%TD*%
D26*
%TO.P,R12,1*%
%TO.N,PDC_3.3V*%
X180700000Y-42525000D03*
%TO.P,R12,2*%
%TO.N,/Power/ISNK_COARSE*%
X180700000Y-40875000D03*
%TD*%
D20*
%TO.P,C4,1*%
%TO.N,/Power/COMP*%
X154075000Y-56800000D03*
%TO.P,C4,2*%
%TO.N,Net-(C4-Pad2)*%
X152525000Y-56800000D03*
%TD*%
D11*
%TO.P,J8,1,Pin_1*%
%TO.N,/MCU/Tilt_Xri*%
X188410000Y-59050000D03*
D12*
%TO.P,J8,2,Pin_2*%
%TO.N,/MCU/Tilt_Xle*%
X185870000Y-59050000D03*
%TO.P,J8,3,Pin_3*%
%TO.N,/MCU/Tilt_Ydown*%
X183330000Y-59050000D03*
%TO.P,J8,4,Pin_4*%
%TO.N,/MCU/Tilt_Yup*%
X180790000Y-59050000D03*
%TD*%
D17*
%TO.P,C20,1*%
%TO.N,+3.3V*%
X162850000Y-86425000D03*
%TO.P,C20,2*%
%TO.N,GND*%
X162850000Y-84875000D03*
%TD*%
D10*
%TO.P,R23,1*%
%TO.N,Net-(D4-K)*%
X163681000Y-75917000D03*
%TO.P,R23,2*%
%TO.N,GND*%
X163681000Y-77567000D03*
%TD*%
D18*
%TO.P,R11,1*%
%TO.N,/Power/VBUS_MAX*%
X179325000Y-48650000D03*
%TO.P,R11,2*%
%TO.N,GND*%
X177675000Y-48650000D03*
%TD*%
D25*
%TO.P,C14,1*%
%TO.N,/Power/VBUS_OUT*%
X161675000Y-49250000D03*
%TO.P,C14,2*%
%TO.N,/Power/VBUS_FET_EN_R*%
X163225000Y-49250000D03*
%TD*%
D18*
%TO.P,R22,1*%
%TO.N,/MCU/HDR_BOOT0*%
X175258500Y-92927000D03*
%TO.P,R22,2*%
%TO.N,/MCU/BOOT0*%
X173608500Y-92927000D03*
%TD*%
D40*
%TO.P,U2,1,VBUS_MIN*%
%TO.N,/Power/VBUS_MIN*%
X172074000Y-40757000D03*
%TO.P,U2,2,VBUS_MAX*%
%TO.N,/Power/VBUS_MAX*%
X172074000Y-40257000D03*
%TO.P,U2,3,VBUS_FET_EN*%
%TO.N,/Power/VBUS_FET_EN*%
X172074000Y-39757000D03*
%TO.P,U2,4,SAFE_PWR_EN*%
%TO.N,unconnected-(U2-SAFE_PWR_EN-Pad4)*%
X172074000Y-39257000D03*
%TO.P,U2,5,ISNK_COARSE*%
%TO.N,/Power/ISNK_COARSE*%
X172074000Y-38757000D03*
%TO.P,U2,6,ISNK_FINE*%
%TO.N,/Power/ISNK_FINE*%
X172074000Y-38257000D03*
D41*
%TO.P,U2,7,~{HPI_INT}*%
%TO.N,/Power/SWD_IO_INT*%
X171349000Y-37532000D03*
%TO.P,U2,8,GPIO_1*%
%TO.N,/Power/SWD_CLK*%
X170849000Y-37532000D03*
%TO.P,U2,9,FAULT*%
%TO.N,/Power/FAULT*%
X170349000Y-37532000D03*
%TO.P,U2,10,FLIP*%
%TO.N,/Power/FLIP*%
X169849000Y-37532000D03*
%TO.P,U2,11,VDC_OUT*%
%TO.N,/Power/VBUS_OUT*%
X169349000Y-37532000D03*
%TO.P,U2,12,HPI_SDA*%
%TO.N,/Power/HPI_SDA*%
X168849000Y-37532000D03*
D40*
%TO.P,U2,13,HPI_SCL*%
%TO.N,/Power/HPI_SCL*%
X168124000Y-38257000D03*
%TO.P,U2,14,CC2*%
%TO.N,/Power/USB_CC2*%
X168124000Y-38757000D03*
%TO.P,U2,15,CC1*%
%TO.N,/Power/USB_CC1*%
X168124000Y-39257000D03*
%TO.P,U2,16,NC*%
%TO.N,unconnected-(U2-NC-Pad16)*%
X168124000Y-39757000D03*
%TO.P,U2,17,NC*%
%TO.N,unconnected-(U2-NC-Pad17)*%
X168124000Y-40257000D03*
%TO.P,U2,18,VBUS_IN*%
%TO.N,VBUS_IN*%
X168124000Y-40757000D03*
D41*
%TO.P,U2,19,GND*%
%TO.N,GND*%
X168849000Y-41482000D03*
%TO.P,U2,20,NC*%
%TO.N,unconnected-(U2-NC-Pad20)*%
X169349000Y-41482000D03*
%TO.P,U2,21,NC*%
%TO.N,unconnected-(U2-NC-Pad21)*%
X169849000Y-41482000D03*
%TO.P,U2,22,GND*%
%TO.N,GND*%
X170349000Y-41482000D03*
%TO.P,U2,23,VDDD*%
%TO.N,PDC_3.3V*%
X170849000Y-41482000D03*
%TO.P,U2,24,VCCD*%
%TO.N,/Power/PDC_VCCD*%
X171349000Y-41482000D03*
D42*
%TO.P,U2,25,GND*%
%TO.N,GND*%
X170099000Y-39507000D03*
%TD*%
D24*
%TO.P,R7,1*%
%TO.N,/Power/VBUS_FET_EN_R*%
X165625000Y-50750000D03*
%TO.P,R7,2*%
%TO.N,/Power/VBUS_FET_EN*%
X167275000Y-50750000D03*
%TD*%
D11*
%TO.P,J10,1,Pin_1*%
%TO.N,GND*%
X147200000Y-69300000D03*
D12*
%TO.P,J10,2,Pin_2*%
%TO.N,+6V*%
X147200000Y-71840000D03*
%TO.P,J10,3,Pin_3*%
%TO.N,/MCU/SERVO_X*%
X147200000Y-74380000D03*
%TD*%
D43*
%TO.P,U3,1,IN*%
%TO.N,+5V*%
X156626000Y-79451000D03*
%TO.P,U3,2,GND*%
%TO.N,GND*%
X156626000Y-80401000D03*
%TO.P,U3,3,EN*%
%TO.N,+5V*%
X156626000Y-81351000D03*
%TO.P,U3,4,NC*%
%TO.N,unconnected-(U3-NC-Pad4)*%
X158901000Y-81351000D03*
%TO.P,U3,5,OUT*%
%TO.N,+3.3V*%
X158901000Y-79451000D03*
%TD*%
D11*
%TO.P,J12,1,Pin_1*%
%TO.N,Net-(J12-Pin_1)*%
X146450000Y-47475000D03*
D12*
%TO.P,J12,2,Pin_2*%
%TO.N,SERVO_EN*%
X146450000Y-50015000D03*
%TD*%
D44*
%TO.P,FB1,1*%
%TO.N,+3.3VA*%
X178650000Y-92800000D03*
%TO.P,FB1,2*%
%TO.N,+3.3V*%
X177075000Y-92800000D03*
%TD*%
D24*
%TO.P,R15,1*%
%TO.N,PDC_3.3V*%
X187925000Y-39500000D03*
%TO.P,R15,2*%
%TO.N,/Power/HPI_SDA*%
X189575000Y-39500000D03*
%TD*%
D17*
%TO.P,C16,1*%
%TO.N,/MCU/NRST*%
X192302000Y-85936000D03*
%TO.P,C16,2*%
%TO.N,GND*%
X192302000Y-84386000D03*
%TD*%
D33*
%TO.P,C11,1*%
%TO.N,+6V*%
X164500000Y-72113000D03*
%TO.P,C11,2*%
%TO.N,GND*%
X166400000Y-72113000D03*
%TD*%
D24*
%TO.P,R10,1*%
%TO.N,PDC_3.3V*%
X177675000Y-50300000D03*
%TO.P,R10,2*%
%TO.N,/Power/VBUS_MAX*%
X179325000Y-50300000D03*
%TD*%
D16*
%TO.P,C3,1*%
%TO.N,/Power/VBUS_OUT*%
X155500000Y-44600000D03*
%TO.P,C3,2*%
%TO.N,GND*%
X153600000Y-44600000D03*
%TD*%
D45*
%TO.P,C17,1*%
%TO.N,+3.3V*%
X160850000Y-86400000D03*
%TO.P,C17,2*%
%TO.N,GND*%
X160850000Y-84500000D03*
%TD*%
D10*
%TO.P,R8,1*%
%TO.N,/Power/FAULT*%
X182150000Y-32775000D03*
%TO.P,R8,2*%
%TO.N,GND*%
X182150000Y-34425000D03*
%TD*%
D11*
%TO.P,J2,1,Pin_1*%
%TO.N,PDC_3.3V*%
X192350000Y-52030000D03*
D12*
%TO.P,J2,2,Pin_2*%
%TO.N,GND*%
X192350000Y-49490000D03*
%TO.P,J2,3,Pin_3*%
%TO.N,/Power/SWD_CLK*%
X192350000Y-46950000D03*
%TO.P,J2,4,Pin_4*%
%TO.N,/Power/SWD_IO_INT*%
X192350000Y-44410000D03*
%TO.P,J2,5,Pin_5*%
%TO.N,/Power/HPI_SCL*%
X192350000Y-41870000D03*
%TO.P,J2,6,Pin_6*%
%TO.N,/Power/HPI_SDA*%
X192350000Y-39330000D03*
%TO.P,J2,7,Pin_7*%
%TO.N,/Power/FLIP*%
X192350000Y-36790000D03*
%TD*%
D46*
%TO.P,Q1,1,S*%
%TO.N,/Power/FET_SRC*%
X154875000Y-38045000D03*
%TO.P,Q1,2,G*%
%TO.N,/Power/VBUS_FET_G*%
X154875000Y-39315000D03*
%TO.P,Q1,3,S*%
%TO.N,/Power/FET_SRC*%
X154875000Y-40585000D03*
%TO.P,Q1,4,G*%
%TO.N,/Power/VBUS_FET_G*%
X154875000Y-41855000D03*
%TO.P,Q1,5,D*%
%TO.N,/Power/VBUS_OUT*%
X159825000Y-41855000D03*
%TO.P,Q1,6,D*%
X159825000Y-40585000D03*
%TO.P,Q1,7,D*%
%TO.N,VBUS_IN*%
X159825000Y-39315000D03*
%TO.P,Q1,8,D*%
X159825000Y-38045000D03*
%TD*%
D47*
%TO.N,GND*%
X154050000Y-50900000D03*
X173250000Y-66800000D03*
X164950000Y-28422287D03*
X164500000Y-83800000D03*
X167600000Y-69750000D03*
X150950000Y-50300000D03*
X179650000Y-43850000D03*
X170750000Y-38750000D03*
X188550000Y-82800000D03*
X169450000Y-38800000D03*
X181600000Y-48400000D03*
X183600000Y-82800000D03*
X176300000Y-84200000D03*
X157700000Y-75900000D03*
X173250000Y-65850000D03*
X155350000Y-49600000D03*
X166300000Y-29872287D03*
X163450000Y-27022287D03*
X151250000Y-55050000D03*
X152750000Y-50900000D03*
X159550000Y-29872287D03*
X149000000Y-61450000D03*
X155350000Y-54500000D03*
X162850000Y-83800000D03*
X155350000Y-80350000D03*
X161950000Y-27022287D03*
X183800000Y-28750000D03*
X168150000Y-86250000D03*
X148950000Y-89300000D03*
X152450000Y-44600000D03*
X173100000Y-48000000D03*
X168050000Y-43150000D03*
X168050000Y-42300000D03*
X177650000Y-47450000D03*
X160450000Y-28422287D03*
X175250000Y-84100000D03*
X167550000Y-72100000D03*
X160450000Y-27022287D03*
X149300000Y-55450000D03*
X156650000Y-50900000D03*
X169450000Y-40250000D03*
X163700000Y-78600000D03*
X156650000Y-49600000D03*
X168050000Y-46450000D03*
X154050000Y-49600000D03*
X173900000Y-41950000D03*
X161950000Y-28422287D03*
X171700000Y-66850000D03*
X171700000Y-65850000D03*
X152750000Y-49600000D03*
X183800000Y-34500000D03*
X170650000Y-27050000D03*
X157550000Y-34850000D03*
X155350000Y-50900000D03*
X168050000Y-44800000D03*
X153600000Y-79200000D03*
X170750000Y-40250000D03*
X164950000Y-27022287D03*
X160850000Y-83300000D03*
X163450000Y-28422287D03*
%TO.N,/Power/VBUS_OUT*%
X168900000Y-35500000D03*
X161700000Y-40650000D03*
%TO.N,/Power/VBUS_FET_EN_R*%
X157650000Y-43100000D03*
X161650000Y-46200000D03*
%TO.N,+3.3V*%
X157550000Y-86250000D03*
X168350000Y-94350000D03*
%TO.N,/Power/USB_CC2*%
X164200000Y-33800000D03*
X162450000Y-33800000D03*
%TO.N,/Power/SWD_IO_INT*%
X180400000Y-37450000D03*
X178500000Y-37550000D03*
%TO.N,/Power/HPI_SDA*%
X170700000Y-34850000D03*
X173950000Y-36050000D03*
%TO.N,/Power/HPI_SCL*%
X181300000Y-37000000D03*
X167400000Y-34250000D03*
%TO.N,/Power/FLIP*%
X172600000Y-35550000D03*
X169950000Y-35650000D03*
%TO.N,/MCU/PF0*%
X177700000Y-90250000D03*
X179500000Y-90300000D03*
%TO.N,/MCU/PF1*%
X176800000Y-88100000D03*
X178550000Y-87200000D03*
%TO.N,/MCU/SERVO_Y*%
X168600000Y-75600000D03*
X173750000Y-81350000D03*
%TO.N,/Power/VBUS_FET_EN*%
X175450000Y-39600000D03*
X172800000Y-50750000D03*
%TO.N,/MCU/SERVO_X*%
X168350000Y-87200000D03*
X147250000Y-82200000D03*
%TO.N,SERVO_EN*%
X158800000Y-94350000D03*
X162700000Y-94350000D03*
%TD*%
D48*
%TO.N,GND*%
X149325000Y-56800000D02*
X149325000Y-55475000D01*
D49*
X183725000Y-34425000D02*
X183800000Y-34500000D01*
D48*
X150900000Y-50250000D02*
X150950000Y-50300000D01*
X182250000Y-47075000D02*
X182250000Y-47750000D01*
X174522000Y-84828000D02*
X175250000Y-84100000D01*
X177675000Y-47475000D02*
X177650000Y-47450000D01*
X192302000Y-84386000D02*
X192286000Y-84386000D01*
X188566000Y-82784000D02*
X188550000Y-82800000D01*
X148900000Y-89350000D02*
X148950000Y-89300000D01*
X155401000Y-80401000D02*
X155350000Y-80350000D01*
X153600000Y-44600000D02*
X152450000Y-44600000D01*
X157767000Y-75967000D02*
X157700000Y-75900000D01*
D50*
X150200000Y-38050000D02*
X146740000Y-38050000D01*
D48*
X179650000Y-43850000D02*
X179350000Y-43850000D01*
X158825000Y-34850000D02*
X158825000Y-34725000D01*
X168849000Y-41482000D02*
X168849000Y-41501000D01*
X149025000Y-61475000D02*
X149000000Y-61450000D01*
X168006000Y-86106000D02*
X168150000Y-86250000D01*
X166519000Y-86106000D02*
X168006000Y-86106000D01*
X170349000Y-41482000D02*
X170349000Y-41977000D01*
X170650000Y-28375000D02*
X170650000Y-27050000D01*
X152525000Y-55000000D02*
X151300000Y-55000000D01*
X182137500Y-28800000D02*
X183750000Y-28800000D01*
D49*
X166400000Y-72113000D02*
X167537000Y-72113000D01*
D48*
X174225000Y-48500000D02*
X173600000Y-48500000D01*
X164501000Y-84875000D02*
X164501000Y-83801000D01*
X183750000Y-28800000D02*
X183800000Y-28750000D01*
X151300000Y-55000000D02*
X151250000Y-55050000D01*
X153567000Y-80322000D02*
X153567000Y-79233000D01*
D49*
X182150000Y-34425000D02*
X183725000Y-34425000D01*
D48*
X168066000Y-44784000D02*
X168050000Y-44800000D01*
D49*
X166400000Y-69700000D02*
X167550000Y-69700000D01*
D48*
X147350000Y-89350000D02*
X148900000Y-89350000D01*
X177675000Y-48650000D02*
X177675000Y-47475000D01*
X192286000Y-84386000D02*
X190684000Y-82784000D01*
X162850000Y-84875000D02*
X162850000Y-83800000D01*
X163681000Y-77567000D02*
X163681000Y-78581000D01*
X173950000Y-42000000D02*
X173900000Y-41950000D01*
X168849000Y-41501000D02*
X168050000Y-42300000D01*
D49*
X167550000Y-69700000D02*
X167600000Y-69750000D01*
D48*
X178900000Y-43400000D02*
X178900000Y-42525000D01*
X183584000Y-82784000D02*
X183600000Y-82800000D01*
X153567000Y-79233000D02*
X153600000Y-79200000D01*
X156626000Y-80401000D02*
X155401000Y-80401000D01*
X168067000Y-43133000D02*
X168050000Y-43150000D01*
X189932000Y-82784000D02*
X188566000Y-82784000D01*
X163681000Y-78581000D02*
X163700000Y-78600000D01*
X168065000Y-46435000D02*
X168050000Y-46450000D01*
X169193000Y-43133000D02*
X168067000Y-43133000D01*
X173600000Y-48500000D02*
X173100000Y-48000000D01*
D49*
X167537000Y-72113000D02*
X167550000Y-72100000D01*
D48*
X169193000Y-46435000D02*
X168065000Y-46435000D01*
X190684000Y-82784000D02*
X189932000Y-82784000D01*
X176300000Y-85275000D02*
X176300000Y-84200000D01*
X158881000Y-75967000D02*
X157767000Y-75967000D01*
D50*
X146740000Y-38050000D02*
X146200000Y-38590000D01*
D48*
X155335000Y-54485000D02*
X155350000Y-54500000D01*
X173950000Y-43150000D02*
X173950000Y-42000000D01*
X158825000Y-34850000D02*
X157550000Y-34850000D01*
X170349000Y-41977000D02*
X169193000Y-43133000D01*
X182250000Y-47750000D02*
X181600000Y-48400000D01*
X174522000Y-85275000D02*
X174522000Y-84828000D01*
X164501000Y-83801000D02*
X164500000Y-83800000D01*
X149325000Y-55475000D02*
X149300000Y-55450000D01*
X179350000Y-43850000D02*
X178900000Y-43400000D01*
X181972000Y-82784000D02*
X183584000Y-82784000D01*
X155335000Y-52950000D02*
X155335000Y-54485000D01*
X169193000Y-44784000D02*
X168066000Y-44784000D01*
X160850000Y-84500000D02*
X160850000Y-83300000D01*
X149025000Y-62850000D02*
X149025000Y-61475000D01*
X150900000Y-49050000D02*
X150900000Y-50250000D01*
%TO.N,/Power/VBUS_OUT*%
X161400000Y-49250000D02*
X161675000Y-49250000D01*
X159825000Y-47675000D02*
X161400000Y-49250000D01*
D50*
X146200000Y-36050000D02*
X150100000Y-36050000D01*
X150100000Y-36050000D02*
X150200000Y-36150000D01*
D48*
X168900000Y-35650000D02*
X169349000Y-36099000D01*
X161700000Y-40650000D02*
X159890000Y-40650000D01*
D50*
X157450000Y-39350000D02*
X158685000Y-40585000D01*
D48*
X159825000Y-41855000D02*
X159825000Y-47675000D01*
D50*
X150200000Y-36150000D02*
X155850000Y-36150000D01*
D48*
X169349000Y-36099000D02*
X169349000Y-37532000D01*
X159890000Y-40650000D02*
X159825000Y-40585000D01*
D50*
X157450000Y-37750000D02*
X157450000Y-39350000D01*
X158685000Y-40585000D02*
X159825000Y-40585000D01*
D48*
X168900000Y-35500000D02*
X168900000Y-35650000D01*
D50*
X155850000Y-36150000D02*
X157450000Y-37750000D01*
D48*
%TO.N,Net-(C4-Pad2)*%
X150975000Y-56800000D02*
X152525000Y-56800000D01*
D49*
%TO.N,VBUS_IN*%
X164900000Y-43600000D02*
X162825000Y-43600000D01*
X162825000Y-43600000D02*
X162750000Y-43525000D01*
D48*
X164909713Y-33350000D02*
X170425000Y-33350000D01*
X164339000Y-32779287D02*
X164909713Y-33350000D01*
X164339000Y-31929287D02*
X164339000Y-32779287D01*
D49*
X168124000Y-40757000D02*
X165281000Y-43600000D01*
D48*
X175262500Y-33300000D02*
X175400000Y-33437500D01*
X170425000Y-33350000D02*
X170650000Y-33125000D01*
X170650000Y-33125000D02*
X170825000Y-33300000D01*
D49*
X165281000Y-43600000D02*
X164900000Y-43600000D01*
D48*
X170825000Y-33300000D02*
X175262500Y-33300000D01*
%TO.N,/Power/PDC_VCCD*%
X172400000Y-42533000D02*
X171349000Y-41482000D01*
X172400000Y-43150000D02*
X172400000Y-42533000D01*
%TO.N,PDC_3.3V*%
X193526000Y-46250000D02*
X193526000Y-43922884D01*
X193526000Y-41126000D02*
X192906000Y-40506000D01*
X170849000Y-41482000D02*
X170849000Y-43027000D01*
X174612500Y-50687500D02*
X174225000Y-50300000D01*
X189809000Y-43234000D02*
X188475000Y-41900000D01*
X170743000Y-46818000D02*
X174225000Y-50300000D01*
X188100000Y-44150000D02*
X189724000Y-45774000D01*
X188931000Y-40506000D02*
X187925000Y-39500000D01*
X192837116Y-43234000D02*
X189809000Y-43234000D01*
X170743000Y-44784000D02*
X170743000Y-46435000D01*
X193050000Y-45774000D02*
X193526000Y-46250000D01*
X189724000Y-45774000D02*
X193050000Y-45774000D01*
X170743000Y-43133000D02*
X170743000Y-44784000D01*
X193526000Y-50854000D02*
X193526000Y-46250000D01*
X193526000Y-43922884D02*
X192837116Y-43234000D01*
X180700000Y-50550000D02*
X180700000Y-42525000D01*
X188475000Y-41900000D02*
X188075000Y-41900000D01*
X192906000Y-40506000D02*
X188931000Y-40506000D01*
X179900000Y-51350000D02*
X180700000Y-50550000D01*
X177675000Y-50300000D02*
X178725000Y-51350000D01*
X192350000Y-52030000D02*
X193526000Y-50854000D01*
X179405000Y-52030000D02*
X192350000Y-52030000D01*
X170743000Y-46435000D02*
X170743000Y-46818000D01*
X177675000Y-50300000D02*
X176675000Y-51300000D01*
X170849000Y-43027000D02*
X170743000Y-43133000D01*
X193526000Y-38654884D02*
X192837116Y-37966000D01*
X184100000Y-47150000D02*
X184100000Y-47075000D01*
X176675000Y-51300000D02*
X175225000Y-51300000D01*
X193526000Y-50854000D02*
X193526000Y-38654884D01*
X177675000Y-50300000D02*
X179405000Y-52030000D01*
X189141000Y-37966000D02*
X188025000Y-36850000D01*
X175225000Y-51300000D02*
X174612500Y-50687500D01*
X179900000Y-51350000D02*
X184100000Y-47150000D01*
X193526000Y-50854000D02*
X193526000Y-41126000D01*
X188100000Y-44250000D02*
X188100000Y-44150000D01*
X192837116Y-37966000D02*
X189141000Y-37966000D01*
X178725000Y-51350000D02*
X179900000Y-51350000D01*
%TO.N,/Power/VBUS_FET_EN_R*%
X165625000Y-46225000D02*
X165625000Y-50750000D01*
X163225000Y-49250000D02*
X164125000Y-49250000D01*
X162750000Y-45175000D02*
X162750000Y-45500000D01*
X162750000Y-45500000D02*
X165625000Y-48375000D01*
X157650000Y-43100000D02*
X151675000Y-43100000D01*
X162200000Y-46200000D02*
X165625000Y-49625000D01*
X165625000Y-49625000D02*
X165625000Y-50750000D01*
X161650000Y-46200000D02*
X162200000Y-46200000D01*
X161650000Y-46200000D02*
X161725000Y-46200000D01*
X163075000Y-45500000D02*
X162750000Y-45175000D01*
X165625000Y-48375000D02*
X165625000Y-50750000D01*
X164900000Y-45500000D02*
X165625000Y-46225000D01*
X164125000Y-49250000D02*
X165625000Y-50750000D01*
X151675000Y-43100000D02*
X150425000Y-41850000D01*
%TO.N,/MCU/NRST*%
X171506501Y-87406000D02*
X172244000Y-87406000D01*
X163410000Y-95502501D02*
X171506501Y-87406000D01*
X163410000Y-96800000D02*
X165310000Y-98700000D01*
X181972000Y-87284000D02*
X189932000Y-87284000D01*
X189932000Y-90668000D02*
X189932000Y-87284000D01*
X165310000Y-98700000D02*
X181900000Y-98700000D01*
X163410000Y-96800000D02*
X163410000Y-95502501D01*
X190954000Y-87284000D02*
X192302000Y-85936000D01*
X189932000Y-87284000D02*
X190954000Y-87284000D01*
X181900000Y-98700000D02*
X189932000Y-90668000D01*
%TO.N,+3.3V*%
X164501000Y-86425000D02*
X164832000Y-86756000D01*
X159889500Y-83913986D02*
X159799000Y-84004486D01*
X159799000Y-85349000D02*
X160850000Y-86400000D01*
X158881000Y-77517000D02*
X161418500Y-77517000D01*
X175322500Y-96610000D02*
X175322500Y-94552500D01*
X168350000Y-94350000D02*
X168490000Y-94490000D01*
X175322500Y-94552500D02*
X177075000Y-92800000D01*
X157550000Y-86250000D02*
X159889500Y-83910500D01*
X158901000Y-77537000D02*
X158881000Y-77517000D01*
X160850000Y-86400000D02*
X164476000Y-86400000D01*
X164832000Y-86756000D02*
X166519000Y-86756000D01*
X158901000Y-79451000D02*
X159889500Y-80439500D01*
X168350000Y-94350000D02*
X168350000Y-96660000D01*
X159889500Y-83910500D02*
X159889500Y-83913986D01*
X175132500Y-96800000D02*
X175322500Y-96610000D01*
X168350000Y-96660000D02*
X168490000Y-96800000D01*
X159799000Y-84004486D02*
X159799000Y-85349000D01*
X164501000Y-86425000D02*
X164275000Y-86425000D01*
X161418500Y-77517000D02*
X161431000Y-77529500D01*
X164275000Y-86425000D02*
X164250000Y-86400000D01*
X159889500Y-80439500D02*
X159889500Y-83910500D01*
X158901000Y-79451000D02*
X158901000Y-77537000D01*
X168490000Y-96800000D02*
X175132500Y-96800000D01*
X164476000Y-86400000D02*
X164501000Y-86425000D01*
D51*
%TO.N,+5V*%
X148689000Y-86750000D02*
X153567000Y-81872000D01*
D48*
X157614500Y-79777001D02*
X157288499Y-79451000D01*
X157015822Y-81351000D02*
X157614500Y-80752322D01*
X157288499Y-81351000D02*
X156626000Y-81351000D01*
D51*
X147350000Y-86750000D02*
X148689000Y-86750000D01*
D48*
X156626000Y-81351000D02*
X157015822Y-81351000D01*
D51*
X156105000Y-81872000D02*
X156626000Y-81351000D01*
X153567000Y-81872000D02*
X156105000Y-81872000D01*
D48*
X157288499Y-79451000D02*
X156626000Y-79451000D01*
X157614500Y-80752322D02*
X157614500Y-79777001D01*
%TO.N,+3.3VA*%
X178650000Y-92800000D02*
X178650000Y-88450000D01*
X172244000Y-86756000D02*
X176231000Y-86756000D01*
X178650000Y-88450000D02*
X177025000Y-86825000D01*
X176231000Y-86756000D02*
X176300000Y-86825000D01*
X177025000Y-86825000D02*
X176300000Y-86825000D01*
%TO.N,Net-(D3-K)*%
X175400000Y-31862500D02*
X175400000Y-29725000D01*
X175400000Y-29725000D02*
X175425000Y-29700000D01*
%TO.N,Net-(D4-K)*%
X163643500Y-75954500D02*
X163681000Y-75917000D01*
X161431000Y-75954500D02*
X163643500Y-75954500D01*
%TO.N,/Power/USB_CC1*%
X167157000Y-39257000D02*
X168124000Y-39257000D01*
X163319000Y-35419000D02*
X167157000Y-39257000D01*
X168081000Y-39300000D02*
X168124000Y-39257000D01*
X163319000Y-31929287D02*
X163319000Y-35419000D01*
%TO.N,/Power/USB_CC2*%
X162319000Y-31929287D02*
X162319000Y-33669000D01*
X168124000Y-38757000D02*
X167672846Y-38757000D01*
X162319000Y-33669000D02*
X162450000Y-33800000D01*
X164200000Y-35284154D02*
X164200000Y-33800000D01*
X167672846Y-38757000D02*
X164200000Y-35284154D01*
D49*
%TO.N,/Power/SWD_IO_INT*%
X178482000Y-37532000D02*
X178500000Y-37550000D01*
X189750000Y-44150000D02*
X192090000Y-44150000D01*
X180400000Y-37450000D02*
X186000000Y-43050000D01*
X188650000Y-43050000D02*
X189750000Y-44150000D01*
X171349000Y-37532000D02*
X178482000Y-37532000D01*
X192090000Y-44150000D02*
X192350000Y-44410000D01*
D48*
X192335000Y-44425000D02*
X192350000Y-44410000D01*
D49*
X186000000Y-43050000D02*
X188650000Y-43050000D01*
%TO.N,/Power/HPI_SDA*%
X186000000Y-36200000D02*
X174100000Y-36200000D01*
X168251000Y-34849000D02*
X170699000Y-34849000D01*
X192180000Y-39500000D02*
X192350000Y-39330000D01*
X189575000Y-39500000D02*
X192180000Y-39500000D01*
X170850000Y-34700000D02*
X170750000Y-34600000D01*
X167900000Y-35200000D02*
X168251000Y-34849000D01*
X189300000Y-39500000D02*
X189575000Y-39500000D01*
X167900000Y-36583000D02*
X168849000Y-37532000D01*
X186000000Y-36200000D02*
X189300000Y-39500000D01*
X170699000Y-34849000D02*
X170700000Y-34850000D01*
X174100000Y-36200000D02*
X173950000Y-36050000D01*
X167900000Y-35200000D02*
X167900000Y-36583000D01*
%TO.N,/Power/HPI_SCL*%
X192320000Y-41900000D02*
X192350000Y-41870000D01*
D48*
X167400000Y-37533000D02*
X167400000Y-34250000D01*
D49*
X189725000Y-41900000D02*
X192320000Y-41900000D01*
D48*
X168124000Y-38257000D02*
X167400000Y-37533000D01*
D49*
X185424000Y-41124000D02*
X188949000Y-41124000D01*
X181300000Y-37000000D02*
X185424000Y-41124000D01*
X188949000Y-41124000D02*
X189725000Y-41900000D01*
D48*
%TO.N,/Power/SWD_CLK*%
X170849000Y-37080846D02*
X170849000Y-37532000D01*
X178743810Y-36806000D02*
X171123846Y-36806000D01*
X192350000Y-46950000D02*
X188887810Y-46950000D01*
X171123846Y-36806000D02*
X170849000Y-37080846D01*
X188887810Y-46950000D02*
X178743810Y-36806000D01*
D49*
%TO.N,/Power/FLIP*%
X169849000Y-35751000D02*
X169950000Y-35650000D01*
X169849000Y-37532000D02*
X169849000Y-35751000D01*
X172850000Y-35300000D02*
X172600000Y-35550000D01*
X192290000Y-36850000D02*
X192350000Y-36790000D01*
X189675000Y-36850000D02*
X192290000Y-36850000D01*
X188125000Y-35300000D02*
X172850000Y-35300000D01*
X189675000Y-36850000D02*
X188125000Y-35300000D01*
D48*
%TO.N,/MCU/UART_TX*%
X191800000Y-66980000D02*
X191020000Y-66980000D01*
X191020000Y-66980000D02*
X173194000Y-84806000D01*
X173194000Y-84806000D02*
X172244000Y-84806000D01*
%TO.N,/MCU/PF0*%
X179500000Y-90300000D02*
X179535298Y-90300000D01*
X179535298Y-90300000D02*
X180500000Y-89335298D01*
X172244000Y-88706000D02*
X176156000Y-88706000D01*
X189897810Y-72060000D02*
X191800000Y-72060000D01*
X180500000Y-89335298D02*
X180500000Y-81457810D01*
X180500000Y-81457810D02*
X189897810Y-72060000D01*
X176156000Y-88706000D02*
X177700000Y-90250000D01*
%TO.N,/MCU/PF1*%
X179500000Y-81820000D02*
X191800000Y-69520000D01*
X176756000Y-88056000D02*
X176800000Y-88100000D01*
X172244000Y-88056000D02*
X176756000Y-88056000D01*
X179500000Y-81820000D02*
X179500000Y-86250000D01*
X179500000Y-86250000D02*
X178550000Y-87200000D01*
%TO.N,/MCU/UART_RX*%
X191312884Y-64927116D02*
X191800000Y-64440000D01*
X191800000Y-65316884D02*
X191800000Y-64440000D01*
X172960884Y-84156000D02*
X191800000Y-65316884D01*
X172244000Y-84156000D02*
X172994000Y-84156000D01*
X172244000Y-84156000D02*
X172960884Y-84156000D01*
%TO.N,/MCU/HDR_BOOT0*%
X177525454Y-91999000D02*
X177862500Y-92336046D01*
X176186500Y-91999000D02*
X177525454Y-91999000D01*
X175258500Y-92927000D02*
X176186500Y-91999000D01*
X177862500Y-92336046D02*
X177862500Y-96610000D01*
D49*
%TO.N,/MCU/USB_D-*%
X148460501Y-87498000D02*
X165323737Y-87498000D01*
X165323737Y-87498000D02*
X165329737Y-87504000D01*
X147350000Y-87400000D02*
X148362501Y-87400000D01*
X148362501Y-87400000D02*
X148460501Y-87498000D01*
X165981500Y-87406000D02*
X166519000Y-87406000D01*
X165329737Y-87504000D02*
X165883500Y-87504000D01*
X165883500Y-87504000D02*
X165981500Y-87406000D01*
%TO.N,/MCU/USB_D+*%
X148362501Y-88050000D02*
X148460501Y-87952000D01*
X147350000Y-88050000D02*
X148362501Y-88050000D01*
X165981500Y-88056000D02*
X166519000Y-88056000D01*
X165883500Y-87958000D02*
X165981500Y-88056000D01*
X165150000Y-87952000D02*
X165156000Y-87958000D01*
X148460501Y-87952000D02*
X165150000Y-87952000D01*
X165156000Y-87958000D02*
X165883500Y-87958000D01*
D48*
%TO.N,/MCU/SWDIO*%
X165781501Y-88706000D02*
X158330000Y-96157501D01*
X166519000Y-88706000D02*
X165781501Y-88706000D01*
X158330000Y-96157501D02*
X158330000Y-96800000D01*
%TO.N,/MCU/SWCLK*%
X166519000Y-89356000D02*
X160870000Y-95005000D01*
X160870000Y-95005000D02*
X160870000Y-96800000D01*
%TO.N,/MCU/Tilt_Xle*%
X167844000Y-84806000D02*
X185870000Y-66780000D01*
X185870000Y-66780000D02*
X185870000Y-59050000D01*
X166519000Y-84806000D02*
X167844000Y-84806000D01*
%TO.N,/MCU/Tilt_Yup*%
X166519000Y-83506000D02*
X166519000Y-79281000D01*
X180790000Y-65010000D02*
X180790000Y-59050000D01*
X166519000Y-79281000D02*
X180790000Y-65010000D01*
%TO.N,/MCU/SERVO_Y*%
X167340000Y-74340000D02*
X152300000Y-74340000D01*
X173750000Y-82000000D02*
X173750000Y-81350000D01*
X168600000Y-75600000D02*
X167340000Y-74340000D01*
X172244000Y-83506000D02*
X173750000Y-82000000D01*
%TO.N,/MCU/Tilt_Ydown*%
X166519000Y-84156000D02*
X167211726Y-84156000D01*
X167211726Y-84156000D02*
X182300000Y-69067726D01*
X182300000Y-60080000D02*
X183330000Y-59050000D01*
X182300000Y-69067726D02*
X182300000Y-60080000D01*
%TO.N,/Power/VBUS_FET_G*%
X153890001Y-39315000D02*
X152075000Y-41130001D01*
X152080000Y-41855000D02*
X152075000Y-41850000D01*
X152075000Y-41130001D02*
X152075000Y-41850000D01*
X154875000Y-39315000D02*
X153890001Y-39315000D01*
X154875000Y-41855000D02*
X152080000Y-41855000D01*
%TO.N,/Power/FET_SRC*%
X155859999Y-40585000D02*
X156186000Y-40258999D01*
X156186000Y-38921822D02*
X155309178Y-38045000D01*
X156186000Y-40258999D02*
X156186000Y-38921822D01*
X154875000Y-40585000D02*
X155859999Y-40585000D01*
X155309178Y-38045000D02*
X154875000Y-38045000D01*
%TO.N,/Power/FAULT*%
X180275000Y-34650000D02*
X182150000Y-32775000D01*
X170349000Y-36401000D02*
X172100000Y-34650000D01*
X182137500Y-32762500D02*
X182150000Y-32775000D01*
X172100000Y-34650000D02*
X180275000Y-34650000D01*
X182137500Y-30700000D02*
X182137500Y-32762500D01*
X170349000Y-37532000D02*
X170349000Y-36401000D01*
%TO.N,Net-(Q2-D)*%
X177075000Y-29700000D02*
X180212500Y-29700000D01*
X180212500Y-29700000D02*
X180262500Y-29750000D01*
%TO.N,/Power/VBUS_FET_EN*%
X172074000Y-39757000D02*
X175293000Y-39757000D01*
X175293000Y-39757000D02*
X175450000Y-39600000D01*
X172800000Y-50750000D02*
X167275000Y-50750000D01*
%TO.N,/Power/VBUS_MAX*%
X174644810Y-40257000D02*
X172074000Y-40257000D01*
X179325000Y-44937190D02*
X174644810Y-40257000D01*
X179325000Y-48650000D02*
X179325000Y-44937190D01*
X179325000Y-50300000D02*
X179325000Y-48650000D01*
%TO.N,/Power/ISNK_COARSE*%
X178900000Y-40875000D02*
X176782000Y-38757000D01*
X180700000Y-40875000D02*
X178900000Y-40875000D01*
X176782000Y-38757000D02*
X172074000Y-38757000D01*
%TO.N,/Power/VBUS_MIN*%
X176200000Y-42450000D02*
X174507000Y-40757000D01*
X174507000Y-40757000D02*
X172074000Y-40757000D01*
X176200000Y-48175000D02*
X176200000Y-42450000D01*
X175875000Y-50300000D02*
X175875000Y-48500000D01*
X175875000Y-48500000D02*
X176200000Y-48175000D01*
%TO.N,/Power/ISNK_FINE*%
X179557000Y-38257000D02*
X172074000Y-38257000D01*
X182250000Y-45425000D02*
X182250000Y-40950000D01*
X182250000Y-40950000D02*
X179557000Y-38257000D01*
X182250000Y-45425000D02*
X184100000Y-45425000D01*
%TO.N,/MCU/SERVO_X*%
X170094000Y-85456000D02*
X168350000Y-87200000D01*
X147250000Y-81650000D02*
X147200000Y-81600000D01*
X147200000Y-81600000D02*
X147200000Y-74380000D01*
X147250000Y-82200000D02*
X147250000Y-81650000D01*
X172244000Y-85456000D02*
X170094000Y-85456000D01*
%TO.N,SERVO_EN*%
X163262501Y-94350000D02*
X162700000Y-94350000D01*
X171506501Y-86106000D02*
X163262501Y-94350000D01*
X149867215Y-94350000D02*
X146100000Y-90582785D01*
X144650000Y-66300000D02*
X146450000Y-64500000D01*
X158800000Y-94350000D02*
X149867215Y-94350000D01*
X172244000Y-86106000D02*
X171506501Y-86106000D01*
X146100000Y-82750000D02*
X144650000Y-81300000D01*
X146100000Y-90582785D02*
X146100000Y-82750000D01*
X144650000Y-81300000D02*
X144650000Y-66300000D01*
X146450000Y-64500000D02*
X146450000Y-50015000D01*
%TO.N,/MCU/Tilt_Xri*%
X166519000Y-85456000D02*
X168144000Y-85456000D01*
X168144000Y-85456000D02*
X188410000Y-65190000D01*
X188410000Y-65190000D02*
X188410000Y-59050000D01*
%TO.N,/MCU/BOOT0*%
X173608500Y-90720500D02*
X172244000Y-89356000D01*
X173608500Y-92927000D02*
X173608500Y-90720500D01*
%TO.N,/Power/PH*%
X152350000Y-61200000D02*
X157750000Y-61200000D01*
X157750000Y-61200000D02*
X162200000Y-56750000D01*
%TO.N,/Power/COMP*%
X154075000Y-55000000D02*
X154075000Y-56800000D01*
X154065000Y-52950000D02*
X154065000Y-54990000D01*
X154065000Y-54990000D02*
X154075000Y-55000000D01*
%TO.N,/Power/SS*%
X150900000Y-47500000D02*
X152745000Y-47500000D01*
X152745000Y-47500000D02*
X152795000Y-47550000D01*
%TO.N,/Power/BOOT*%
X156605000Y-47550000D02*
X157705000Y-47550000D01*
X158705000Y-48550000D02*
X158705000Y-49475000D01*
X157705000Y-47550000D02*
X158705000Y-48550000D01*
%TO.N,/Power/VSENSE*%
X152795000Y-52950000D02*
X150914702Y-52950000D01*
X152350000Y-62850000D02*
X150675000Y-62850000D01*
X150100000Y-53764702D02*
X150100000Y-62275000D01*
X150100000Y-62275000D02*
X150675000Y-62850000D01*
X150914702Y-52950000D02*
X150100000Y-53764702D01*
%TO.N,Net-(D2-K)*%
X170650000Y-31862500D02*
X170650000Y-30025000D01*
%TO.N,unconnected-(J6-Shield-Pad6)_6*%
X147350000Y-90550000D02*
X147850000Y-90550000D01*
D49*
%TO.N,Net-(J12-Pin_1)*%
X154065000Y-46775000D02*
X154065000Y-47550000D01*
X146450000Y-47475000D02*
X147875000Y-46050000D01*
X147875000Y-46050000D02*
X153340000Y-46050000D01*
X153340000Y-46050000D02*
X154065000Y-46775000D01*
%TD*%
%TA.AperFunction,Conductor*%
%TO.N,/Power/PH*%
G36*
X165000000Y-58280111D02*
G01*
X164925707Y-58296937D01*
X164925444Y-58296920D01*
X164925213Y-58297048D01*
X164898318Y-58300000D01*
X159365561Y-58300000D01*
X159363642Y-58299436D01*
X165000000Y-58249557D01*
X165000000Y-58280111D01*
G37*
%TD.AperFunction*%
%TA.AperFunction,Conductor*%
G36*
X158335080Y-50553545D02*
G01*
X159415550Y-50598564D01*
X159478765Y-50619014D01*
X161729761Y-52106961D01*
X162400000Y-52550000D01*
X165000000Y-53250000D01*
X159316319Y-58285541D01*
X159298522Y-58280315D01*
X159263085Y-58245819D01*
X159226060Y-58191476D01*
X156221524Y-53781591D01*
X156200045Y-53715105D01*
X156200000Y-53711772D01*
X156200000Y-52174000D01*
X156219685Y-52106961D01*
X156272489Y-52061206D01*
X156324000Y-52050000D01*
X157600000Y-52050000D01*
X158216142Y-50628133D01*
X158260858Y-50574449D01*
X158327501Y-50553462D01*
X158335080Y-50553545D01*
G37*
%TD.AperFunction*%
%TD*%
%TA.AperFunction,Conductor*%
%TO.N,GND*%
G36*
X173993039Y-62819685D02*
G01*
X174038794Y-62872489D01*
X174050000Y-62924000D01*
X174050000Y-67326000D01*
X174030315Y-67393039D01*
X173977511Y-67438794D01*
X173926000Y-67450000D01*
X170874000Y-67450000D01*
X170806961Y-67430315D01*
X170761206Y-67377511D01*
X170750000Y-67326000D01*
X170750000Y-62924000D01*
X170769685Y-62856961D01*
X170822489Y-62811206D01*
X170874000Y-62800000D01*
X173926000Y-62800000D01*
X173993039Y-62819685D01*
G37*
%TD.AperFunction*%
%TD*%
%TA.AperFunction,Conductor*%
%TO.N,/Power/PH*%
G36*
X173990246Y-54188542D02*
G01*
X174054879Y-54215081D01*
X174094904Y-54272351D01*
X174101362Y-54310341D01*
X174148428Y-58122687D01*
X174129572Y-58189965D01*
X174077337Y-58236368D01*
X174022691Y-58248206D01*
X170599981Y-58199999D01*
X165000000Y-58249557D01*
X159363644Y-58299436D01*
X159358488Y-58297922D01*
X159351221Y-58299168D01*
X159325416Y-58288211D01*
X159316320Y-58285540D01*
X165000000Y-53250000D01*
X173990246Y-54188542D01*
G37*
%TD.AperFunction*%
%TD*%
%TA.AperFunction,Conductor*%
%TO.N,+6V*%
G36*
X164943039Y-64919685D02*
G01*
X164988794Y-64972489D01*
X165000000Y-65024000D01*
X165000000Y-72726000D01*
X164980315Y-72793039D01*
X164927511Y-72838794D01*
X164876000Y-72850000D01*
X158350000Y-72850000D01*
X145927061Y-72850000D01*
X145860022Y-72830315D01*
X145814267Y-72777511D01*
X145803098Y-72722977D01*
X145847081Y-70919661D01*
X145868394Y-70853121D01*
X145922298Y-70808667D01*
X145969684Y-70798691D01*
X155000000Y-70700000D01*
X159362785Y-64949055D01*
X159418986Y-64907543D01*
X159461575Y-64900000D01*
X164876000Y-64900000D01*
X164943039Y-64919685D01*
G37*
%TD.AperFunction*%
%TD*%
%TA.AperFunction,Conductor*%
%TO.N,/Power/VBUS_OUT*%
G36*
X160841039Y-40219685D02*
G01*
X160886794Y-40272489D01*
X160897984Y-40325984D01*
X160801952Y-46327984D01*
X160781198Y-46394700D01*
X160727668Y-46439604D01*
X160677968Y-46450000D01*
X155800000Y-46450000D01*
X155750000Y-46699999D01*
X155750000Y-48326000D01*
X155730315Y-48393039D01*
X155677511Y-48438794D01*
X155626000Y-48450000D01*
X155074000Y-48450000D01*
X155006961Y-48430315D01*
X154961206Y-48377511D01*
X154950000Y-48326000D01*
X154950000Y-43974000D01*
X154969685Y-43906961D01*
X155022489Y-43861206D01*
X155074000Y-43850000D01*
X158350001Y-43850000D01*
X158350000Y-43849999D01*
X158398325Y-40322302D01*
X158418926Y-40255538D01*
X158472351Y-40210511D01*
X158522313Y-40200000D01*
X160774000Y-40200000D01*
X160841039Y-40219685D01*
G37*
%TD.AperFunction*%
%TD*%
%TA.AperFunction,Conductor*%
%TO.N,GND*%
G36*
X167843039Y-25991972D02*
G01*
X167888794Y-26044776D01*
X167900000Y-26096287D01*
X167900000Y-32798287D01*
X167880315Y-32865326D01*
X167827511Y-32911081D01*
X167776000Y-32922287D01*
X165274000Y-32922287D01*
X165206961Y-32902602D01*
X165161206Y-32849798D01*
X165150000Y-32798287D01*
X165150000Y-29822287D01*
X160500000Y-29822287D01*
X160500000Y-32798287D01*
X160480315Y-32865326D01*
X160427511Y-32911081D01*
X160376000Y-32922287D01*
X157874000Y-32922287D01*
X157806961Y-32902602D01*
X157761206Y-32849798D01*
X157750000Y-32798287D01*
X157750000Y-26096287D01*
X157769685Y-26029248D01*
X157822489Y-25983493D01*
X157874000Y-25972287D01*
X167776000Y-25972287D01*
X167843039Y-25991972D01*
G37*
%TD.AperFunction*%
%TD*%
%TA.AperFunction,Conductor*%
%TO.N,VBUS_IN*%
G36*
X164743039Y-30097472D02*
G01*
X164788794Y-30150276D01*
X164800000Y-30201787D01*
X164800000Y-32526000D01*
X164780315Y-32593039D01*
X164727511Y-32638794D01*
X164676000Y-32650000D01*
X164043500Y-32650000D01*
X163976461Y-32630315D01*
X163930706Y-32577511D01*
X163919500Y-32526000D01*
X163919500Y-31304610D01*
X163902584Y-31219571D01*
X163904813Y-31219127D01*
X163900000Y-31194893D01*
X163900000Y-31000000D01*
X161750000Y-31000000D01*
X161750000Y-31168540D01*
X161735125Y-31219194D01*
X161737707Y-31220264D01*
X161733033Y-31231546D01*
X161718500Y-31304610D01*
X161718500Y-32553965D01*
X161733032Y-32627025D01*
X161737707Y-32638309D01*
X161734846Y-32639493D01*
X161749980Y-32687809D01*
X161750000Y-32690033D01*
X161750000Y-37150000D01*
X165600000Y-39450000D01*
X167476339Y-40453623D01*
X167517816Y-40494390D01*
X167519927Y-40492912D01*
X167526149Y-40501798D01*
X167526150Y-40501799D01*
X167604201Y-40579850D01*
X167704240Y-40626499D01*
X167749821Y-40632500D01*
X168349500Y-40632499D01*
X168358186Y-40635049D01*
X168367147Y-40633761D01*
X168391183Y-40644738D01*
X168416539Y-40652183D01*
X168422467Y-40659025D01*
X168430703Y-40662786D01*
X168444989Y-40685017D01*
X168462294Y-40704987D01*
X168464581Y-40715502D01*
X168468477Y-40721564D01*
X168473500Y-40756499D01*
X168473500Y-40776000D01*
X168453815Y-40843039D01*
X168401011Y-40888794D01*
X168349500Y-40900000D01*
X166019560Y-40900000D01*
X165981390Y-40893979D01*
X162600000Y-39800000D01*
X158724000Y-39800000D01*
X158656961Y-39780315D01*
X158611206Y-39727511D01*
X158600000Y-39676000D01*
X158600000Y-37110480D01*
X158619685Y-37043441D01*
X158647658Y-37012767D01*
X160200000Y-35800000D01*
X160200000Y-33740095D01*
X160219685Y-33673056D01*
X160223466Y-33667507D01*
X160850000Y-32800000D01*
X160850000Y-30201787D01*
X160869685Y-30134748D01*
X160922489Y-30088993D01*
X160974000Y-30077787D01*
X164676000Y-30077787D01*
X164743039Y-30097472D01*
G37*
%TD.AperFunction*%
%TD*%
M02*
