%TF.GenerationSoftware,KiCad,Pcbnew,9.0.6*%
%TF.CreationDate,2026-03-21T00:11:43-07:00*%
%TF.ProjectId,Tilt_Table_PCB,54696c74-5f54-4616-926c-655f5043422e,rev?*%
%TF.SameCoordinates,Original*%
%TF.FileFunction,Soldermask,Top*%
%TF.FilePolarity,Negative*%
%FSLAX46Y46*%
G04 Gerber Fmt 4.6, Leading zero omitted, Abs format (unit mm)*
G04 Created by KiCad (PCBNEW 9.0.6) date 2026-03-21 00:11:43*
%MOMM*%
%LPD*%
G01*
G04 APERTURE LIST*
G04 Aperture macros list*
%AMRoundRect*
0 Rectangle with rounded corners*
0 $1 Rounding radius*
0 $2 $3 $4 $5 $6 $7 $8 $9 X,Y pos of 4 corners*
0 Add a 4 corners polygon primitive as box body*
4,1,4,$2,$3,$4,$5,$6,$7,$8,$9,$2,$3,0*
0 Add four circle primitives for the rounded corners*
1,1,$1+$1,$2,$3*
1,1,$1+$1,$4,$5*
1,1,$1+$1,$6,$7*
1,1,$1+$1,$8,$9*
0 Add four rect primitives between the rounded corners*
20,1,$1+$1,$2,$3,$4,$5,0*
20,1,$1+$1,$4,$5,$6,$7,0*
20,1,$1+$1,$6,$7,$8,$9,0*
20,1,$1+$1,$8,$9,$2,$3,0*%
G04 Aperture macros list end*
%ADD10C,0.010000*%
%ADD11RoundRect,0.200000X-0.275000X0.200000X-0.275000X-0.200000X0.275000X-0.200000X0.275000X0.200000X0*%
%ADD12R,1.700000X1.700000*%
%ADD13C,1.700000*%
%ADD14RoundRect,0.250000X-0.525000X-0.400000X0.525000X-0.400000X0.525000X0.400000X-0.525000X0.400000X0*%
%ADD15RoundRect,0.100000X0.637500X0.100000X-0.637500X0.100000X-0.637500X-0.100000X0.637500X-0.100000X0*%
%ADD16RoundRect,0.102000X-2.700000X1.450000X-2.700000X-1.450000X2.700000X-1.450000X2.700000X1.450000X0*%
%ADD17RoundRect,0.250000X0.250000X0.475000X-0.250000X0.475000X-0.250000X-0.475000X0.250000X-0.475000X0*%
%ADD18RoundRect,0.225000X0.250000X-0.225000X0.250000X0.225000X-0.250000X0.225000X-0.250000X-0.225000X0*%
%ADD19RoundRect,0.200000X0.200000X0.275000X-0.200000X0.275000X-0.200000X-0.275000X0.200000X-0.275000X0*%
%ADD20RoundRect,0.102000X-1.560000X1.090000X-1.560000X-1.090000X1.560000X-1.090000X1.560000X1.090000X0*%
%ADD21RoundRect,0.225000X0.225000X0.250000X-0.225000X0.250000X-0.225000X-0.250000X0.225000X-0.250000X0*%
%ADD22RoundRect,0.250000X-0.475000X0.250000X-0.475000X-0.250000X0.475000X-0.250000X0.475000X0.250000X0*%
%ADD23RoundRect,0.150000X0.587500X0.150000X-0.587500X0.150000X-0.587500X-0.150000X0.587500X-0.150000X0*%
%ADD24RoundRect,0.218750X-0.256250X0.218750X-0.256250X-0.218750X0.256250X-0.218750X0.256250X0.218750X0*%
%ADD25RoundRect,0.200000X-0.200000X-0.275000X0.200000X-0.275000X0.200000X0.275000X-0.200000X0.275000X0*%
%ADD26RoundRect,0.225000X-0.225000X-0.250000X0.225000X-0.250000X0.225000X0.250000X-0.225000X0.250000X0*%
%ADD27RoundRect,0.200000X0.275000X-0.200000X0.275000X0.200000X-0.275000X0.200000X-0.275000X-0.200000X0*%
%ADD28RoundRect,0.100000X-0.575000X0.100000X-0.575000X-0.100000X0.575000X-0.100000X0.575000X0.100000X0*%
%ADD29O,2.000000X0.975000*%
%ADD30RoundRect,0.250000X-0.750000X0.475000X-0.750000X-0.475000X0.750000X-0.475000X0.750000X0.475000X0*%
%ADD31O,0.950000X1.250000*%
%ADD32RoundRect,0.250000X-0.525000X0.500000X-0.525000X-0.500000X0.525000X-0.500000X0.525000X0.500000X0*%
%ADD33C,3.200000*%
%ADD34RoundRect,0.225000X-0.250000X0.225000X-0.250000X-0.225000X0.250000X-0.225000X0.250000X0.225000X0*%
%ADD35RoundRect,0.250000X-0.250000X-0.475000X0.250000X-0.475000X0.250000X0.475000X-0.250000X0.475000X0*%
%ADD36O,1.252400X1.852400*%
%ADD37RoundRect,0.062500X0.337500X0.062500X-0.337500X0.062500X-0.337500X-0.062500X0.337500X-0.062500X0*%
%ADD38RoundRect,0.062500X0.062500X0.337500X-0.062500X0.337500X-0.062500X-0.337500X0.062500X-0.337500X0*%
%ADD39R,2.750000X2.750000*%
%ADD40RoundRect,0.150000X-0.512500X-0.150000X0.512500X-0.150000X0.512500X0.150000X-0.512500X0.150000X0*%
%ADD41RoundRect,0.218750X0.218750X0.256250X-0.218750X0.256250X-0.218750X-0.256250X0.218750X-0.256250X0*%
%ADD42RoundRect,0.250000X0.475000X-0.250000X0.475000X0.250000X-0.475000X0.250000X-0.475000X-0.250000X0*%
%ADD43RoundRect,0.100500X-0.986500X-0.301500X0.986500X-0.301500X0.986500X0.301500X-0.986500X0.301500X0*%
G04 APERTURE END LIST*
D10*
%TO.C,J1*%
X160532500Y-32592787D02*
X159605500Y-32592787D01*
X159605500Y-31265787D01*
X160532500Y-31265787D01*
X160532500Y-32592787D01*
G36*
X160532500Y-32592787D02*
G01*
X159605500Y-32592787D01*
X159605500Y-31265787D01*
X160532500Y-31265787D01*
X160532500Y-32592787D01*
G37*
X161742500Y-32592787D02*
X160855500Y-32592787D01*
X160855500Y-31265787D01*
X161742500Y-31265787D01*
X161742500Y-32592787D01*
G36*
X161742500Y-32592787D02*
G01*
X160855500Y-32592787D01*
X160855500Y-31265787D01*
X161742500Y-31265787D01*
X161742500Y-32592787D01*
G37*
X162732500Y-32592787D02*
X161905500Y-32592787D01*
X161905500Y-31265787D01*
X162732500Y-31265787D01*
X162732500Y-32592787D01*
G36*
X162732500Y-32592787D02*
G01*
X161905500Y-32592787D01*
X161905500Y-31265787D01*
X162732500Y-31265787D01*
X162732500Y-32592787D01*
G37*
X163732500Y-32592787D02*
X162905500Y-32592787D01*
X162905500Y-31265787D01*
X163732500Y-31265787D01*
X163732500Y-32592787D01*
G36*
X163732500Y-32592787D02*
G01*
X162905500Y-32592787D01*
X162905500Y-31265787D01*
X163732500Y-31265787D01*
X163732500Y-32592787D01*
G37*
X164782500Y-32592787D02*
X163895500Y-32592787D01*
X163895500Y-31265787D01*
X164782500Y-31265787D01*
X164782500Y-32592787D01*
G36*
X164782500Y-32592787D02*
G01*
X163895500Y-32592787D01*
X163895500Y-31265787D01*
X164782500Y-31265787D01*
X164782500Y-32592787D01*
G37*
X166032500Y-32592787D02*
X165105500Y-32592787D01*
X165105500Y-31265787D01*
X166032500Y-31265787D01*
X166032500Y-32592787D01*
G36*
X166032500Y-32592787D02*
G01*
X165105500Y-32592787D01*
X165105500Y-31265787D01*
X166032500Y-31265787D01*
X166032500Y-32592787D01*
G37*
%TO.C,U1*%
X156400000Y-51605000D02*
X153000000Y-51605000D01*
X153000000Y-48895000D01*
X156400000Y-48895000D01*
X156400000Y-51605000D01*
G36*
X156400000Y-51605000D02*
G01*
X153000000Y-51605000D01*
X153000000Y-48895000D01*
X156400000Y-48895000D01*
X156400000Y-51605000D01*
G37*
X153123000Y-46706000D02*
X153125000Y-46706000D01*
X153128000Y-46707000D01*
X153130000Y-46707000D01*
X153133000Y-46708000D01*
X153135000Y-46709000D01*
X153138000Y-46710000D01*
X153140000Y-46712000D01*
X153142000Y-46713000D01*
X153144000Y-46715000D01*
X153146000Y-46716000D01*
X153148000Y-46718000D01*
X153150000Y-46720000D01*
X153152000Y-46722000D01*
X153154000Y-46724000D01*
X153155000Y-46726000D01*
X153157000Y-46728000D01*
X153158000Y-46730000D01*
X153160000Y-46732000D01*
X153161000Y-46735000D01*
X153162000Y-46737000D01*
X153163000Y-46740000D01*
X153163000Y-46742000D01*
X153164000Y-46745000D01*
X153164000Y-46747000D01*
X153165000Y-46750000D01*
X153165000Y-46752000D01*
X153165000Y-46755000D01*
X153165000Y-48345000D01*
X153165000Y-48348000D01*
X153165000Y-48350000D01*
X153164000Y-48353000D01*
X153164000Y-48355000D01*
X153163000Y-48358000D01*
X153163000Y-48360000D01*
X153162000Y-48363000D01*
X153161000Y-48365000D01*
X153160000Y-48368000D01*
X153158000Y-48370000D01*
X153157000Y-48372000D01*
X153155000Y-48374000D01*
X153154000Y-48376000D01*
X153152000Y-48378000D01*
X153150000Y-48380000D01*
X153148000Y-48382000D01*
X153146000Y-48384000D01*
X153144000Y-48385000D01*
X153142000Y-48387000D01*
X153140000Y-48388000D01*
X153138000Y-48390000D01*
X153135000Y-48391000D01*
X153133000Y-48392000D01*
X153130000Y-48393000D01*
X153128000Y-48393000D01*
X153125000Y-48394000D01*
X153123000Y-48394000D01*
X153120000Y-48395000D01*
X153118000Y-48395000D01*
X153115000Y-48395000D01*
X152475000Y-48395000D01*
X152472000Y-48395000D01*
X152470000Y-48395000D01*
X152467000Y-48394000D01*
X152465000Y-48394000D01*
X152462000Y-48393000D01*
X152460000Y-48393000D01*
X152457000Y-48392000D01*
X152455000Y-48391000D01*
X152452000Y-48390000D01*
X152450000Y-48388000D01*
X152448000Y-48387000D01*
X152446000Y-48385000D01*
X152444000Y-48384000D01*
X152442000Y-48382000D01*
X152440000Y-48380000D01*
X152438000Y-48378000D01*
X152436000Y-48376000D01*
X152435000Y-48374000D01*
X152433000Y-48372000D01*
X152432000Y-48370000D01*
X152430000Y-48368000D01*
X152429000Y-48365000D01*
X152428000Y-48363000D01*
X152427000Y-48360000D01*
X152427000Y-48358000D01*
X152426000Y-48355000D01*
X152426000Y-48353000D01*
X152425000Y-48350000D01*
X152425000Y-48348000D01*
X152425000Y-48345000D01*
X152425000Y-46755000D01*
X152425000Y-46752000D01*
X152425000Y-46750000D01*
X152426000Y-46747000D01*
X152426000Y-46745000D01*
X152427000Y-46742000D01*
X152427000Y-46740000D01*
X152428000Y-46737000D01*
X152429000Y-46735000D01*
X152430000Y-46732000D01*
X152432000Y-46730000D01*
X152433000Y-46728000D01*
X152435000Y-46726000D01*
X152436000Y-46724000D01*
X152438000Y-46722000D01*
X152440000Y-46720000D01*
X152442000Y-46718000D01*
X152444000Y-46716000D01*
X152446000Y-46715000D01*
X152448000Y-46713000D01*
X152450000Y-46712000D01*
X152452000Y-46710000D01*
X152455000Y-46709000D01*
X152457000Y-46708000D01*
X152460000Y-46707000D01*
X152462000Y-46707000D01*
X152465000Y-46706000D01*
X152467000Y-46706000D01*
X152470000Y-46705000D01*
X152472000Y-46705000D01*
X152475000Y-46705000D01*
X153115000Y-46705000D01*
X153118000Y-46705000D01*
X153120000Y-46705000D01*
X153123000Y-46706000D01*
G36*
X153123000Y-46706000D02*
G01*
X153125000Y-46706000D01*
X153128000Y-46707000D01*
X153130000Y-46707000D01*
X153133000Y-46708000D01*
X153135000Y-46709000D01*
X153138000Y-46710000D01*
X153140000Y-46712000D01*
X153142000Y-46713000D01*
X153144000Y-46715000D01*
X153146000Y-46716000D01*
X153148000Y-46718000D01*
X153150000Y-46720000D01*
X153152000Y-46722000D01*
X153154000Y-46724000D01*
X153155000Y-46726000D01*
X153157000Y-46728000D01*
X153158000Y-46730000D01*
X153160000Y-46732000D01*
X153161000Y-46735000D01*
X153162000Y-46737000D01*
X153163000Y-46740000D01*
X153163000Y-46742000D01*
X153164000Y-46745000D01*
X153164000Y-46747000D01*
X153165000Y-46750000D01*
X153165000Y-46752000D01*
X153165000Y-46755000D01*
X153165000Y-48345000D01*
X153165000Y-48348000D01*
X153165000Y-48350000D01*
X153164000Y-48353000D01*
X153164000Y-48355000D01*
X153163000Y-48358000D01*
X153163000Y-48360000D01*
X153162000Y-48363000D01*
X153161000Y-48365000D01*
X153160000Y-48368000D01*
X153158000Y-48370000D01*
X153157000Y-48372000D01*
X153155000Y-48374000D01*
X153154000Y-48376000D01*
X153152000Y-48378000D01*
X153150000Y-48380000D01*
X153148000Y-48382000D01*
X153146000Y-48384000D01*
X153144000Y-48385000D01*
X153142000Y-48387000D01*
X153140000Y-48388000D01*
X153138000Y-48390000D01*
X153135000Y-48391000D01*
X153133000Y-48392000D01*
X153130000Y-48393000D01*
X153128000Y-48393000D01*
X153125000Y-48394000D01*
X153123000Y-48394000D01*
X153120000Y-48395000D01*
X153118000Y-48395000D01*
X153115000Y-48395000D01*
X152475000Y-48395000D01*
X152472000Y-48395000D01*
X152470000Y-48395000D01*
X152467000Y-48394000D01*
X152465000Y-48394000D01*
X152462000Y-48393000D01*
X152460000Y-48393000D01*
X152457000Y-48392000D01*
X152455000Y-48391000D01*
X152452000Y-48390000D01*
X152450000Y-48388000D01*
X152448000Y-48387000D01*
X152446000Y-48385000D01*
X152444000Y-48384000D01*
X152442000Y-48382000D01*
X152440000Y-48380000D01*
X152438000Y-48378000D01*
X152436000Y-48376000D01*
X152435000Y-48374000D01*
X152433000Y-48372000D01*
X152432000Y-48370000D01*
X152430000Y-48368000D01*
X152429000Y-48365000D01*
X152428000Y-48363000D01*
X152427000Y-48360000D01*
X152427000Y-48358000D01*
X152426000Y-48355000D01*
X152426000Y-48353000D01*
X152425000Y-48350000D01*
X152425000Y-48348000D01*
X152425000Y-48345000D01*
X152425000Y-46755000D01*
X152425000Y-46752000D01*
X152425000Y-46750000D01*
X152426000Y-46747000D01*
X152426000Y-46745000D01*
X152427000Y-46742000D01*
X152427000Y-46740000D01*
X152428000Y-46737000D01*
X152429000Y-46735000D01*
X152430000Y-46732000D01*
X152432000Y-46730000D01*
X152433000Y-46728000D01*
X152435000Y-46726000D01*
X152436000Y-46724000D01*
X152438000Y-46722000D01*
X152440000Y-46720000D01*
X152442000Y-46718000D01*
X152444000Y-46716000D01*
X152446000Y-46715000D01*
X152448000Y-46713000D01*
X152450000Y-46712000D01*
X152452000Y-46710000D01*
X152455000Y-46709000D01*
X152457000Y-46708000D01*
X152460000Y-46707000D01*
X152462000Y-46707000D01*
X152465000Y-46706000D01*
X152467000Y-46706000D01*
X152470000Y-46705000D01*
X152472000Y-46705000D01*
X152475000Y-46705000D01*
X153115000Y-46705000D01*
X153118000Y-46705000D01*
X153120000Y-46705000D01*
X153123000Y-46706000D01*
G37*
X153123000Y-52106000D02*
X153125000Y-52106000D01*
X153128000Y-52107000D01*
X153130000Y-52107000D01*
X153133000Y-52108000D01*
X153135000Y-52109000D01*
X153138000Y-52110000D01*
X153140000Y-52112000D01*
X153142000Y-52113000D01*
X153144000Y-52115000D01*
X153146000Y-52116000D01*
X153148000Y-52118000D01*
X153150000Y-52120000D01*
X153152000Y-52122000D01*
X153154000Y-52124000D01*
X153155000Y-52126000D01*
X153157000Y-52128000D01*
X153158000Y-52130000D01*
X153160000Y-52132000D01*
X153161000Y-52135000D01*
X153162000Y-52137000D01*
X153163000Y-52140000D01*
X153163000Y-52142000D01*
X153164000Y-52145000D01*
X153164000Y-52147000D01*
X153165000Y-52150000D01*
X153165000Y-52152000D01*
X153165000Y-52155000D01*
X153165000Y-53745000D01*
X153165000Y-53748000D01*
X153165000Y-53750000D01*
X153164000Y-53753000D01*
X153164000Y-53755000D01*
X153163000Y-53758000D01*
X153163000Y-53760000D01*
X153162000Y-53763000D01*
X153161000Y-53765000D01*
X153160000Y-53768000D01*
X153158000Y-53770000D01*
X153157000Y-53772000D01*
X153155000Y-53774000D01*
X153154000Y-53776000D01*
X153152000Y-53778000D01*
X153150000Y-53780000D01*
X153148000Y-53782000D01*
X153146000Y-53784000D01*
X153144000Y-53785000D01*
X153142000Y-53787000D01*
X153140000Y-53788000D01*
X153138000Y-53790000D01*
X153135000Y-53791000D01*
X153133000Y-53792000D01*
X153130000Y-53793000D01*
X153128000Y-53793000D01*
X153125000Y-53794000D01*
X153123000Y-53794000D01*
X153120000Y-53795000D01*
X153118000Y-53795000D01*
X153115000Y-53795000D01*
X152475000Y-53795000D01*
X152472000Y-53795000D01*
X152470000Y-53795000D01*
X152467000Y-53794000D01*
X152465000Y-53794000D01*
X152462000Y-53793000D01*
X152460000Y-53793000D01*
X152457000Y-53792000D01*
X152455000Y-53791000D01*
X152452000Y-53790000D01*
X152450000Y-53788000D01*
X152448000Y-53787000D01*
X152446000Y-53785000D01*
X152444000Y-53784000D01*
X152442000Y-53782000D01*
X152440000Y-53780000D01*
X152438000Y-53778000D01*
X152436000Y-53776000D01*
X152435000Y-53774000D01*
X152433000Y-53772000D01*
X152432000Y-53770000D01*
X152430000Y-53768000D01*
X152429000Y-53765000D01*
X152428000Y-53763000D01*
X152427000Y-53760000D01*
X152427000Y-53758000D01*
X152426000Y-53755000D01*
X152426000Y-53753000D01*
X152425000Y-53750000D01*
X152425000Y-53748000D01*
X152425000Y-53745000D01*
X152425000Y-52155000D01*
X152425000Y-52152000D01*
X152425000Y-52150000D01*
X152426000Y-52147000D01*
X152426000Y-52145000D01*
X152427000Y-52142000D01*
X152427000Y-52140000D01*
X152428000Y-52137000D01*
X152429000Y-52135000D01*
X152430000Y-52132000D01*
X152432000Y-52130000D01*
X152433000Y-52128000D01*
X152435000Y-52126000D01*
X152436000Y-52124000D01*
X152438000Y-52122000D01*
X152440000Y-52120000D01*
X152442000Y-52118000D01*
X152444000Y-52116000D01*
X152446000Y-52115000D01*
X152448000Y-52113000D01*
X152450000Y-52112000D01*
X152452000Y-52110000D01*
X152455000Y-52109000D01*
X152457000Y-52108000D01*
X152460000Y-52107000D01*
X152462000Y-52107000D01*
X152465000Y-52106000D01*
X152467000Y-52106000D01*
X152470000Y-52105000D01*
X152472000Y-52105000D01*
X152475000Y-52105000D01*
X153115000Y-52105000D01*
X153118000Y-52105000D01*
X153120000Y-52105000D01*
X153123000Y-52106000D01*
G36*
X153123000Y-52106000D02*
G01*
X153125000Y-52106000D01*
X153128000Y-52107000D01*
X153130000Y-52107000D01*
X153133000Y-52108000D01*
X153135000Y-52109000D01*
X153138000Y-52110000D01*
X153140000Y-52112000D01*
X153142000Y-52113000D01*
X153144000Y-52115000D01*
X153146000Y-52116000D01*
X153148000Y-52118000D01*
X153150000Y-52120000D01*
X153152000Y-52122000D01*
X153154000Y-52124000D01*
X153155000Y-52126000D01*
X153157000Y-52128000D01*
X153158000Y-52130000D01*
X153160000Y-52132000D01*
X153161000Y-52135000D01*
X153162000Y-52137000D01*
X153163000Y-52140000D01*
X153163000Y-52142000D01*
X153164000Y-52145000D01*
X153164000Y-52147000D01*
X153165000Y-52150000D01*
X153165000Y-52152000D01*
X153165000Y-52155000D01*
X153165000Y-53745000D01*
X153165000Y-53748000D01*
X153165000Y-53750000D01*
X153164000Y-53753000D01*
X153164000Y-53755000D01*
X153163000Y-53758000D01*
X153163000Y-53760000D01*
X153162000Y-53763000D01*
X153161000Y-53765000D01*
X153160000Y-53768000D01*
X153158000Y-53770000D01*
X153157000Y-53772000D01*
X153155000Y-53774000D01*
X153154000Y-53776000D01*
X153152000Y-53778000D01*
X153150000Y-53780000D01*
X153148000Y-53782000D01*
X153146000Y-53784000D01*
X153144000Y-53785000D01*
X153142000Y-53787000D01*
X153140000Y-53788000D01*
X153138000Y-53790000D01*
X153135000Y-53791000D01*
X153133000Y-53792000D01*
X153130000Y-53793000D01*
X153128000Y-53793000D01*
X153125000Y-53794000D01*
X153123000Y-53794000D01*
X153120000Y-53795000D01*
X153118000Y-53795000D01*
X153115000Y-53795000D01*
X152475000Y-53795000D01*
X152472000Y-53795000D01*
X152470000Y-53795000D01*
X152467000Y-53794000D01*
X152465000Y-53794000D01*
X152462000Y-53793000D01*
X152460000Y-53793000D01*
X152457000Y-53792000D01*
X152455000Y-53791000D01*
X152452000Y-53790000D01*
X152450000Y-53788000D01*
X152448000Y-53787000D01*
X152446000Y-53785000D01*
X152444000Y-53784000D01*
X152442000Y-53782000D01*
X152440000Y-53780000D01*
X152438000Y-53778000D01*
X152436000Y-53776000D01*
X152435000Y-53774000D01*
X152433000Y-53772000D01*
X152432000Y-53770000D01*
X152430000Y-53768000D01*
X152429000Y-53765000D01*
X152428000Y-53763000D01*
X152427000Y-53760000D01*
X152427000Y-53758000D01*
X152426000Y-53755000D01*
X152426000Y-53753000D01*
X152425000Y-53750000D01*
X152425000Y-53748000D01*
X152425000Y-53745000D01*
X152425000Y-52155000D01*
X152425000Y-52152000D01*
X152425000Y-52150000D01*
X152426000Y-52147000D01*
X152426000Y-52145000D01*
X152427000Y-52142000D01*
X152427000Y-52140000D01*
X152428000Y-52137000D01*
X152429000Y-52135000D01*
X152430000Y-52132000D01*
X152432000Y-52130000D01*
X152433000Y-52128000D01*
X152435000Y-52126000D01*
X152436000Y-52124000D01*
X152438000Y-52122000D01*
X152440000Y-52120000D01*
X152442000Y-52118000D01*
X152444000Y-52116000D01*
X152446000Y-52115000D01*
X152448000Y-52113000D01*
X152450000Y-52112000D01*
X152452000Y-52110000D01*
X152455000Y-52109000D01*
X152457000Y-52108000D01*
X152460000Y-52107000D01*
X152462000Y-52107000D01*
X152465000Y-52106000D01*
X152467000Y-52106000D01*
X152470000Y-52105000D01*
X152472000Y-52105000D01*
X152475000Y-52105000D01*
X153115000Y-52105000D01*
X153118000Y-52105000D01*
X153120000Y-52105000D01*
X153123000Y-52106000D01*
G37*
X154393000Y-46706000D02*
X154395000Y-46706000D01*
X154398000Y-46707000D01*
X154400000Y-46707000D01*
X154403000Y-46708000D01*
X154405000Y-46709000D01*
X154408000Y-46710000D01*
X154410000Y-46712000D01*
X154412000Y-46713000D01*
X154414000Y-46715000D01*
X154416000Y-46716000D01*
X154418000Y-46718000D01*
X154420000Y-46720000D01*
X154422000Y-46722000D01*
X154424000Y-46724000D01*
X154425000Y-46726000D01*
X154427000Y-46728000D01*
X154428000Y-46730000D01*
X154430000Y-46732000D01*
X154431000Y-46735000D01*
X154432000Y-46737000D01*
X154433000Y-46740000D01*
X154433000Y-46742000D01*
X154434000Y-46745000D01*
X154434000Y-46747000D01*
X154435000Y-46750000D01*
X154435000Y-46752000D01*
X154435000Y-46755000D01*
X154435000Y-48345000D01*
X154435000Y-48348000D01*
X154435000Y-48350000D01*
X154434000Y-48353000D01*
X154434000Y-48355000D01*
X154433000Y-48358000D01*
X154433000Y-48360000D01*
X154432000Y-48363000D01*
X154431000Y-48365000D01*
X154430000Y-48368000D01*
X154428000Y-48370000D01*
X154427000Y-48372000D01*
X154425000Y-48374000D01*
X154424000Y-48376000D01*
X154422000Y-48378000D01*
X154420000Y-48380000D01*
X154418000Y-48382000D01*
X154416000Y-48384000D01*
X154414000Y-48385000D01*
X154412000Y-48387000D01*
X154410000Y-48388000D01*
X154408000Y-48390000D01*
X154405000Y-48391000D01*
X154403000Y-48392000D01*
X154400000Y-48393000D01*
X154398000Y-48393000D01*
X154395000Y-48394000D01*
X154393000Y-48394000D01*
X154390000Y-48395000D01*
X154388000Y-48395000D01*
X154385000Y-48395000D01*
X153745000Y-48395000D01*
X153742000Y-48395000D01*
X153740000Y-48395000D01*
X153737000Y-48394000D01*
X153735000Y-48394000D01*
X153732000Y-48393000D01*
X153730000Y-48393000D01*
X153727000Y-48392000D01*
X153725000Y-48391000D01*
X153722000Y-48390000D01*
X153720000Y-48388000D01*
X153718000Y-48387000D01*
X153716000Y-48385000D01*
X153714000Y-48384000D01*
X153712000Y-48382000D01*
X153710000Y-48380000D01*
X153708000Y-48378000D01*
X153706000Y-48376000D01*
X153705000Y-48374000D01*
X153703000Y-48372000D01*
X153702000Y-48370000D01*
X153700000Y-48368000D01*
X153699000Y-48365000D01*
X153698000Y-48363000D01*
X153697000Y-48360000D01*
X153697000Y-48358000D01*
X153696000Y-48355000D01*
X153696000Y-48353000D01*
X153695000Y-48350000D01*
X153695000Y-48348000D01*
X153695000Y-48345000D01*
X153695000Y-46755000D01*
X153695000Y-46752000D01*
X153695000Y-46750000D01*
X153696000Y-46747000D01*
X153696000Y-46745000D01*
X153697000Y-46742000D01*
X153697000Y-46740000D01*
X153698000Y-46737000D01*
X153699000Y-46735000D01*
X153700000Y-46732000D01*
X153702000Y-46730000D01*
X153703000Y-46728000D01*
X153705000Y-46726000D01*
X153706000Y-46724000D01*
X153708000Y-46722000D01*
X153710000Y-46720000D01*
X153712000Y-46718000D01*
X153714000Y-46716000D01*
X153716000Y-46715000D01*
X153718000Y-46713000D01*
X153720000Y-46712000D01*
X153722000Y-46710000D01*
X153725000Y-46709000D01*
X153727000Y-46708000D01*
X153730000Y-46707000D01*
X153732000Y-46707000D01*
X153735000Y-46706000D01*
X153737000Y-46706000D01*
X153740000Y-46705000D01*
X153742000Y-46705000D01*
X153745000Y-46705000D01*
X154385000Y-46705000D01*
X154388000Y-46705000D01*
X154390000Y-46705000D01*
X154393000Y-46706000D01*
G36*
X154393000Y-46706000D02*
G01*
X154395000Y-46706000D01*
X154398000Y-46707000D01*
X154400000Y-46707000D01*
X154403000Y-46708000D01*
X154405000Y-46709000D01*
X154408000Y-46710000D01*
X154410000Y-46712000D01*
X154412000Y-46713000D01*
X154414000Y-46715000D01*
X154416000Y-46716000D01*
X154418000Y-46718000D01*
X154420000Y-46720000D01*
X154422000Y-46722000D01*
X154424000Y-46724000D01*
X154425000Y-46726000D01*
X154427000Y-46728000D01*
X154428000Y-46730000D01*
X154430000Y-46732000D01*
X154431000Y-46735000D01*
X154432000Y-46737000D01*
X154433000Y-46740000D01*
X154433000Y-46742000D01*
X154434000Y-46745000D01*
X154434000Y-46747000D01*
X154435000Y-46750000D01*
X154435000Y-46752000D01*
X154435000Y-46755000D01*
X154435000Y-48345000D01*
X154435000Y-48348000D01*
X154435000Y-48350000D01*
X154434000Y-48353000D01*
X154434000Y-48355000D01*
X154433000Y-48358000D01*
X154433000Y-48360000D01*
X154432000Y-48363000D01*
X154431000Y-48365000D01*
X154430000Y-48368000D01*
X154428000Y-48370000D01*
X154427000Y-48372000D01*
X154425000Y-48374000D01*
X154424000Y-48376000D01*
X154422000Y-48378000D01*
X154420000Y-48380000D01*
X154418000Y-48382000D01*
X154416000Y-48384000D01*
X154414000Y-48385000D01*
X154412000Y-48387000D01*
X154410000Y-48388000D01*
X154408000Y-48390000D01*
X154405000Y-48391000D01*
X154403000Y-48392000D01*
X154400000Y-48393000D01*
X154398000Y-48393000D01*
X154395000Y-48394000D01*
X154393000Y-48394000D01*
X154390000Y-48395000D01*
X154388000Y-48395000D01*
X154385000Y-48395000D01*
X153745000Y-48395000D01*
X153742000Y-48395000D01*
X153740000Y-48395000D01*
X153737000Y-48394000D01*
X153735000Y-48394000D01*
X153732000Y-48393000D01*
X153730000Y-48393000D01*
X153727000Y-48392000D01*
X153725000Y-48391000D01*
X153722000Y-48390000D01*
X153720000Y-48388000D01*
X153718000Y-48387000D01*
X153716000Y-48385000D01*
X153714000Y-48384000D01*
X153712000Y-48382000D01*
X153710000Y-48380000D01*
X153708000Y-48378000D01*
X153706000Y-48376000D01*
X153705000Y-48374000D01*
X153703000Y-48372000D01*
X153702000Y-48370000D01*
X153700000Y-48368000D01*
X153699000Y-48365000D01*
X153698000Y-48363000D01*
X153697000Y-48360000D01*
X153697000Y-48358000D01*
X153696000Y-48355000D01*
X153696000Y-48353000D01*
X153695000Y-48350000D01*
X153695000Y-48348000D01*
X153695000Y-48345000D01*
X153695000Y-46755000D01*
X153695000Y-46752000D01*
X153695000Y-46750000D01*
X153696000Y-46747000D01*
X153696000Y-46745000D01*
X153697000Y-46742000D01*
X153697000Y-46740000D01*
X153698000Y-46737000D01*
X153699000Y-46735000D01*
X153700000Y-46732000D01*
X153702000Y-46730000D01*
X153703000Y-46728000D01*
X153705000Y-46726000D01*
X153706000Y-46724000D01*
X153708000Y-46722000D01*
X153710000Y-46720000D01*
X153712000Y-46718000D01*
X153714000Y-46716000D01*
X153716000Y-46715000D01*
X153718000Y-46713000D01*
X153720000Y-46712000D01*
X153722000Y-46710000D01*
X153725000Y-46709000D01*
X153727000Y-46708000D01*
X153730000Y-46707000D01*
X153732000Y-46707000D01*
X153735000Y-46706000D01*
X153737000Y-46706000D01*
X153740000Y-46705000D01*
X153742000Y-46705000D01*
X153745000Y-46705000D01*
X154385000Y-46705000D01*
X154388000Y-46705000D01*
X154390000Y-46705000D01*
X154393000Y-46706000D01*
G37*
X154393000Y-52106000D02*
X154395000Y-52106000D01*
X154398000Y-52107000D01*
X154400000Y-52107000D01*
X154403000Y-52108000D01*
X154405000Y-52109000D01*
X154408000Y-52110000D01*
X154410000Y-52112000D01*
X154412000Y-52113000D01*
X154414000Y-52115000D01*
X154416000Y-52116000D01*
X154418000Y-52118000D01*
X154420000Y-52120000D01*
X154422000Y-52122000D01*
X154424000Y-52124000D01*
X154425000Y-52126000D01*
X154427000Y-52128000D01*
X154428000Y-52130000D01*
X154430000Y-52132000D01*
X154431000Y-52135000D01*
X154432000Y-52137000D01*
X154433000Y-52140000D01*
X154433000Y-52142000D01*
X154434000Y-52145000D01*
X154434000Y-52147000D01*
X154435000Y-52150000D01*
X154435000Y-52152000D01*
X154435000Y-52155000D01*
X154435000Y-53745000D01*
X154435000Y-53748000D01*
X154435000Y-53750000D01*
X154434000Y-53753000D01*
X154434000Y-53755000D01*
X154433000Y-53758000D01*
X154433000Y-53760000D01*
X154432000Y-53763000D01*
X154431000Y-53765000D01*
X154430000Y-53768000D01*
X154428000Y-53770000D01*
X154427000Y-53772000D01*
X154425000Y-53774000D01*
X154424000Y-53776000D01*
X154422000Y-53778000D01*
X154420000Y-53780000D01*
X154418000Y-53782000D01*
X154416000Y-53784000D01*
X154414000Y-53785000D01*
X154412000Y-53787000D01*
X154410000Y-53788000D01*
X154408000Y-53790000D01*
X154405000Y-53791000D01*
X154403000Y-53792000D01*
X154400000Y-53793000D01*
X154398000Y-53793000D01*
X154395000Y-53794000D01*
X154393000Y-53794000D01*
X154390000Y-53795000D01*
X154388000Y-53795000D01*
X154385000Y-53795000D01*
X153745000Y-53795000D01*
X153742000Y-53795000D01*
X153740000Y-53795000D01*
X153737000Y-53794000D01*
X153735000Y-53794000D01*
X153732000Y-53793000D01*
X153730000Y-53793000D01*
X153727000Y-53792000D01*
X153725000Y-53791000D01*
X153722000Y-53790000D01*
X153720000Y-53788000D01*
X153718000Y-53787000D01*
X153716000Y-53785000D01*
X153714000Y-53784000D01*
X153712000Y-53782000D01*
X153710000Y-53780000D01*
X153708000Y-53778000D01*
X153706000Y-53776000D01*
X153705000Y-53774000D01*
X153703000Y-53772000D01*
X153702000Y-53770000D01*
X153700000Y-53768000D01*
X153699000Y-53765000D01*
X153698000Y-53763000D01*
X153697000Y-53760000D01*
X153697000Y-53758000D01*
X153696000Y-53755000D01*
X153696000Y-53753000D01*
X153695000Y-53750000D01*
X153695000Y-53748000D01*
X153695000Y-53745000D01*
X153695000Y-52155000D01*
X153695000Y-52152000D01*
X153695000Y-52150000D01*
X153696000Y-52147000D01*
X153696000Y-52145000D01*
X153697000Y-52142000D01*
X153697000Y-52140000D01*
X153698000Y-52137000D01*
X153699000Y-52135000D01*
X153700000Y-52132000D01*
X153702000Y-52130000D01*
X153703000Y-52128000D01*
X153705000Y-52126000D01*
X153706000Y-52124000D01*
X153708000Y-52122000D01*
X153710000Y-52120000D01*
X153712000Y-52118000D01*
X153714000Y-52116000D01*
X153716000Y-52115000D01*
X153718000Y-52113000D01*
X153720000Y-52112000D01*
X153722000Y-52110000D01*
X153725000Y-52109000D01*
X153727000Y-52108000D01*
X153730000Y-52107000D01*
X153732000Y-52107000D01*
X153735000Y-52106000D01*
X153737000Y-52106000D01*
X153740000Y-52105000D01*
X153742000Y-52105000D01*
X153745000Y-52105000D01*
X154385000Y-52105000D01*
X154388000Y-52105000D01*
X154390000Y-52105000D01*
X154393000Y-52106000D01*
G36*
X154393000Y-52106000D02*
G01*
X154395000Y-52106000D01*
X154398000Y-52107000D01*
X154400000Y-52107000D01*
X154403000Y-52108000D01*
X154405000Y-52109000D01*
X154408000Y-52110000D01*
X154410000Y-52112000D01*
X154412000Y-52113000D01*
X154414000Y-52115000D01*
X154416000Y-52116000D01*
X154418000Y-52118000D01*
X154420000Y-52120000D01*
X154422000Y-52122000D01*
X154424000Y-52124000D01*
X154425000Y-52126000D01*
X154427000Y-52128000D01*
X154428000Y-52130000D01*
X154430000Y-52132000D01*
X154431000Y-52135000D01*
X154432000Y-52137000D01*
X154433000Y-52140000D01*
X154433000Y-52142000D01*
X154434000Y-52145000D01*
X154434000Y-52147000D01*
X154435000Y-52150000D01*
X154435000Y-52152000D01*
X154435000Y-52155000D01*
X154435000Y-53745000D01*
X154435000Y-53748000D01*
X154435000Y-53750000D01*
X154434000Y-53753000D01*
X154434000Y-53755000D01*
X154433000Y-53758000D01*
X154433000Y-53760000D01*
X154432000Y-53763000D01*
X154431000Y-53765000D01*
X154430000Y-53768000D01*
X154428000Y-53770000D01*
X154427000Y-53772000D01*
X154425000Y-53774000D01*
X154424000Y-53776000D01*
X154422000Y-53778000D01*
X154420000Y-53780000D01*
X154418000Y-53782000D01*
X154416000Y-53784000D01*
X154414000Y-53785000D01*
X154412000Y-53787000D01*
X154410000Y-53788000D01*
X154408000Y-53790000D01*
X154405000Y-53791000D01*
X154403000Y-53792000D01*
X154400000Y-53793000D01*
X154398000Y-53793000D01*
X154395000Y-53794000D01*
X154393000Y-53794000D01*
X154390000Y-53795000D01*
X154388000Y-53795000D01*
X154385000Y-53795000D01*
X153745000Y-53795000D01*
X153742000Y-53795000D01*
X153740000Y-53795000D01*
X153737000Y-53794000D01*
X153735000Y-53794000D01*
X153732000Y-53793000D01*
X153730000Y-53793000D01*
X153727000Y-53792000D01*
X153725000Y-53791000D01*
X153722000Y-53790000D01*
X153720000Y-53788000D01*
X153718000Y-53787000D01*
X153716000Y-53785000D01*
X153714000Y-53784000D01*
X153712000Y-53782000D01*
X153710000Y-53780000D01*
X153708000Y-53778000D01*
X153706000Y-53776000D01*
X153705000Y-53774000D01*
X153703000Y-53772000D01*
X153702000Y-53770000D01*
X153700000Y-53768000D01*
X153699000Y-53765000D01*
X153698000Y-53763000D01*
X153697000Y-53760000D01*
X153697000Y-53758000D01*
X153696000Y-53755000D01*
X153696000Y-53753000D01*
X153695000Y-53750000D01*
X153695000Y-53748000D01*
X153695000Y-53745000D01*
X153695000Y-52155000D01*
X153695000Y-52152000D01*
X153695000Y-52150000D01*
X153696000Y-52147000D01*
X153696000Y-52145000D01*
X153697000Y-52142000D01*
X153697000Y-52140000D01*
X153698000Y-52137000D01*
X153699000Y-52135000D01*
X153700000Y-52132000D01*
X153702000Y-52130000D01*
X153703000Y-52128000D01*
X153705000Y-52126000D01*
X153706000Y-52124000D01*
X153708000Y-52122000D01*
X153710000Y-52120000D01*
X153712000Y-52118000D01*
X153714000Y-52116000D01*
X153716000Y-52115000D01*
X153718000Y-52113000D01*
X153720000Y-52112000D01*
X153722000Y-52110000D01*
X153725000Y-52109000D01*
X153727000Y-52108000D01*
X153730000Y-52107000D01*
X153732000Y-52107000D01*
X153735000Y-52106000D01*
X153737000Y-52106000D01*
X153740000Y-52105000D01*
X153742000Y-52105000D01*
X153745000Y-52105000D01*
X154385000Y-52105000D01*
X154388000Y-52105000D01*
X154390000Y-52105000D01*
X154393000Y-52106000D01*
G37*
X155663000Y-46706000D02*
X155665000Y-46706000D01*
X155668000Y-46707000D01*
X155670000Y-46707000D01*
X155673000Y-46708000D01*
X155675000Y-46709000D01*
X155678000Y-46710000D01*
X155680000Y-46712000D01*
X155682000Y-46713000D01*
X155684000Y-46715000D01*
X155686000Y-46716000D01*
X155688000Y-46718000D01*
X155690000Y-46720000D01*
X155692000Y-46722000D01*
X155694000Y-46724000D01*
X155695000Y-46726000D01*
X155697000Y-46728000D01*
X155698000Y-46730000D01*
X155700000Y-46732000D01*
X155701000Y-46735000D01*
X155702000Y-46737000D01*
X155703000Y-46740000D01*
X155703000Y-46742000D01*
X155704000Y-46745000D01*
X155704000Y-46747000D01*
X155705000Y-46750000D01*
X155705000Y-46752000D01*
X155705000Y-46755000D01*
X155705000Y-48345000D01*
X155705000Y-48348000D01*
X155705000Y-48350000D01*
X155704000Y-48353000D01*
X155704000Y-48355000D01*
X155703000Y-48358000D01*
X155703000Y-48360000D01*
X155702000Y-48363000D01*
X155701000Y-48365000D01*
X155700000Y-48368000D01*
X155698000Y-48370000D01*
X155697000Y-48372000D01*
X155695000Y-48374000D01*
X155694000Y-48376000D01*
X155692000Y-48378000D01*
X155690000Y-48380000D01*
X155688000Y-48382000D01*
X155686000Y-48384000D01*
X155684000Y-48385000D01*
X155682000Y-48387000D01*
X155680000Y-48388000D01*
X155678000Y-48390000D01*
X155675000Y-48391000D01*
X155673000Y-48392000D01*
X155670000Y-48393000D01*
X155668000Y-48393000D01*
X155665000Y-48394000D01*
X155663000Y-48394000D01*
X155660000Y-48395000D01*
X155658000Y-48395000D01*
X155655000Y-48395000D01*
X155015000Y-48395000D01*
X155012000Y-48395000D01*
X155010000Y-48395000D01*
X155007000Y-48394000D01*
X155005000Y-48394000D01*
X155002000Y-48393000D01*
X155000000Y-48393000D01*
X154997000Y-48392000D01*
X154995000Y-48391000D01*
X154992000Y-48390000D01*
X154990000Y-48388000D01*
X154988000Y-48387000D01*
X154986000Y-48385000D01*
X154984000Y-48384000D01*
X154982000Y-48382000D01*
X154980000Y-48380000D01*
X154978000Y-48378000D01*
X154976000Y-48376000D01*
X154975000Y-48374000D01*
X154973000Y-48372000D01*
X154972000Y-48370000D01*
X154970000Y-48368000D01*
X154969000Y-48365000D01*
X154968000Y-48363000D01*
X154967000Y-48360000D01*
X154967000Y-48358000D01*
X154966000Y-48355000D01*
X154966000Y-48353000D01*
X154965000Y-48350000D01*
X154965000Y-48348000D01*
X154965000Y-48345000D01*
X154965000Y-46755000D01*
X154965000Y-46752000D01*
X154965000Y-46750000D01*
X154966000Y-46747000D01*
X154966000Y-46745000D01*
X154967000Y-46742000D01*
X154967000Y-46740000D01*
X154968000Y-46737000D01*
X154969000Y-46735000D01*
X154970000Y-46732000D01*
X154972000Y-46730000D01*
X154973000Y-46728000D01*
X154975000Y-46726000D01*
X154976000Y-46724000D01*
X154978000Y-46722000D01*
X154980000Y-46720000D01*
X154982000Y-46718000D01*
X154984000Y-46716000D01*
X154986000Y-46715000D01*
X154988000Y-46713000D01*
X154990000Y-46712000D01*
X154992000Y-46710000D01*
X154995000Y-46709000D01*
X154997000Y-46708000D01*
X155000000Y-46707000D01*
X155002000Y-46707000D01*
X155005000Y-46706000D01*
X155007000Y-46706000D01*
X155010000Y-46705000D01*
X155012000Y-46705000D01*
X155015000Y-46705000D01*
X155655000Y-46705000D01*
X155658000Y-46705000D01*
X155660000Y-46705000D01*
X155663000Y-46706000D01*
G36*
X155663000Y-46706000D02*
G01*
X155665000Y-46706000D01*
X155668000Y-46707000D01*
X155670000Y-46707000D01*
X155673000Y-46708000D01*
X155675000Y-46709000D01*
X155678000Y-46710000D01*
X155680000Y-46712000D01*
X155682000Y-46713000D01*
X155684000Y-46715000D01*
X155686000Y-46716000D01*
X155688000Y-46718000D01*
X155690000Y-46720000D01*
X155692000Y-46722000D01*
X155694000Y-46724000D01*
X155695000Y-46726000D01*
X155697000Y-46728000D01*
X155698000Y-46730000D01*
X155700000Y-46732000D01*
X155701000Y-46735000D01*
X155702000Y-46737000D01*
X155703000Y-46740000D01*
X155703000Y-46742000D01*
X155704000Y-46745000D01*
X155704000Y-46747000D01*
X155705000Y-46750000D01*
X155705000Y-46752000D01*
X155705000Y-46755000D01*
X155705000Y-48345000D01*
X155705000Y-48348000D01*
X155705000Y-48350000D01*
X155704000Y-48353000D01*
X155704000Y-48355000D01*
X155703000Y-48358000D01*
X155703000Y-48360000D01*
X155702000Y-48363000D01*
X155701000Y-48365000D01*
X155700000Y-48368000D01*
X155698000Y-48370000D01*
X155697000Y-48372000D01*
X155695000Y-48374000D01*
X155694000Y-48376000D01*
X155692000Y-48378000D01*
X155690000Y-48380000D01*
X155688000Y-48382000D01*
X155686000Y-48384000D01*
X155684000Y-48385000D01*
X155682000Y-48387000D01*
X155680000Y-48388000D01*
X155678000Y-48390000D01*
X155675000Y-48391000D01*
X155673000Y-48392000D01*
X155670000Y-48393000D01*
X155668000Y-48393000D01*
X155665000Y-48394000D01*
X155663000Y-48394000D01*
X155660000Y-48395000D01*
X155658000Y-48395000D01*
X155655000Y-48395000D01*
X155015000Y-48395000D01*
X155012000Y-48395000D01*
X155010000Y-48395000D01*
X155007000Y-48394000D01*
X155005000Y-48394000D01*
X155002000Y-48393000D01*
X155000000Y-48393000D01*
X154997000Y-48392000D01*
X154995000Y-48391000D01*
X154992000Y-48390000D01*
X154990000Y-48388000D01*
X154988000Y-48387000D01*
X154986000Y-48385000D01*
X154984000Y-48384000D01*
X154982000Y-48382000D01*
X154980000Y-48380000D01*
X154978000Y-48378000D01*
X154976000Y-48376000D01*
X154975000Y-48374000D01*
X154973000Y-48372000D01*
X154972000Y-48370000D01*
X154970000Y-48368000D01*
X154969000Y-48365000D01*
X154968000Y-48363000D01*
X154967000Y-48360000D01*
X154967000Y-48358000D01*
X154966000Y-48355000D01*
X154966000Y-48353000D01*
X154965000Y-48350000D01*
X154965000Y-48348000D01*
X154965000Y-48345000D01*
X154965000Y-46755000D01*
X154965000Y-46752000D01*
X154965000Y-46750000D01*
X154966000Y-46747000D01*
X154966000Y-46745000D01*
X154967000Y-46742000D01*
X154967000Y-46740000D01*
X154968000Y-46737000D01*
X154969000Y-46735000D01*
X154970000Y-46732000D01*
X154972000Y-46730000D01*
X154973000Y-46728000D01*
X154975000Y-46726000D01*
X154976000Y-46724000D01*
X154978000Y-46722000D01*
X154980000Y-46720000D01*
X154982000Y-46718000D01*
X154984000Y-46716000D01*
X154986000Y-46715000D01*
X154988000Y-46713000D01*
X154990000Y-46712000D01*
X154992000Y-46710000D01*
X154995000Y-46709000D01*
X154997000Y-46708000D01*
X155000000Y-46707000D01*
X155002000Y-46707000D01*
X155005000Y-46706000D01*
X155007000Y-46706000D01*
X155010000Y-46705000D01*
X155012000Y-46705000D01*
X155015000Y-46705000D01*
X155655000Y-46705000D01*
X155658000Y-46705000D01*
X155660000Y-46705000D01*
X155663000Y-46706000D01*
G37*
X155663000Y-52106000D02*
X155665000Y-52106000D01*
X155668000Y-52107000D01*
X155670000Y-52107000D01*
X155673000Y-52108000D01*
X155675000Y-52109000D01*
X155678000Y-52110000D01*
X155680000Y-52112000D01*
X155682000Y-52113000D01*
X155684000Y-52115000D01*
X155686000Y-52116000D01*
X155688000Y-52118000D01*
X155690000Y-52120000D01*
X155692000Y-52122000D01*
X155694000Y-52124000D01*
X155695000Y-52126000D01*
X155697000Y-52128000D01*
X155698000Y-52130000D01*
X155700000Y-52132000D01*
X155701000Y-52135000D01*
X155702000Y-52137000D01*
X155703000Y-52140000D01*
X155703000Y-52142000D01*
X155704000Y-52145000D01*
X155704000Y-52147000D01*
X155705000Y-52150000D01*
X155705000Y-52152000D01*
X155705000Y-52155000D01*
X155705000Y-53745000D01*
X155705000Y-53748000D01*
X155705000Y-53750000D01*
X155704000Y-53753000D01*
X155704000Y-53755000D01*
X155703000Y-53758000D01*
X155703000Y-53760000D01*
X155702000Y-53763000D01*
X155701000Y-53765000D01*
X155700000Y-53768000D01*
X155698000Y-53770000D01*
X155697000Y-53772000D01*
X155695000Y-53774000D01*
X155694000Y-53776000D01*
X155692000Y-53778000D01*
X155690000Y-53780000D01*
X155688000Y-53782000D01*
X155686000Y-53784000D01*
X155684000Y-53785000D01*
X155682000Y-53787000D01*
X155680000Y-53788000D01*
X155678000Y-53790000D01*
X155675000Y-53791000D01*
X155673000Y-53792000D01*
X155670000Y-53793000D01*
X155668000Y-53793000D01*
X155665000Y-53794000D01*
X155663000Y-53794000D01*
X155660000Y-53795000D01*
X155658000Y-53795000D01*
X155655000Y-53795000D01*
X155015000Y-53795000D01*
X155012000Y-53795000D01*
X155010000Y-53795000D01*
X155007000Y-53794000D01*
X155005000Y-53794000D01*
X155002000Y-53793000D01*
X155000000Y-53793000D01*
X154997000Y-53792000D01*
X154995000Y-53791000D01*
X154992000Y-53790000D01*
X154990000Y-53788000D01*
X154988000Y-53787000D01*
X154986000Y-53785000D01*
X154984000Y-53784000D01*
X154982000Y-53782000D01*
X154980000Y-53780000D01*
X154978000Y-53778000D01*
X154976000Y-53776000D01*
X154975000Y-53774000D01*
X154973000Y-53772000D01*
X154972000Y-53770000D01*
X154970000Y-53768000D01*
X154969000Y-53765000D01*
X154968000Y-53763000D01*
X154967000Y-53760000D01*
X154967000Y-53758000D01*
X154966000Y-53755000D01*
X154966000Y-53753000D01*
X154965000Y-53750000D01*
X154965000Y-53748000D01*
X154965000Y-53745000D01*
X154965000Y-52155000D01*
X154965000Y-52152000D01*
X154965000Y-52150000D01*
X154966000Y-52147000D01*
X154966000Y-52145000D01*
X154967000Y-52142000D01*
X154967000Y-52140000D01*
X154968000Y-52137000D01*
X154969000Y-52135000D01*
X154970000Y-52132000D01*
X154972000Y-52130000D01*
X154973000Y-52128000D01*
X154975000Y-52126000D01*
X154976000Y-52124000D01*
X154978000Y-52122000D01*
X154980000Y-52120000D01*
X154982000Y-52118000D01*
X154984000Y-52116000D01*
X154986000Y-52115000D01*
X154988000Y-52113000D01*
X154990000Y-52112000D01*
X154992000Y-52110000D01*
X154995000Y-52109000D01*
X154997000Y-52108000D01*
X155000000Y-52107000D01*
X155002000Y-52107000D01*
X155005000Y-52106000D01*
X155007000Y-52106000D01*
X155010000Y-52105000D01*
X155012000Y-52105000D01*
X155015000Y-52105000D01*
X155655000Y-52105000D01*
X155658000Y-52105000D01*
X155660000Y-52105000D01*
X155663000Y-52106000D01*
G36*
X155663000Y-52106000D02*
G01*
X155665000Y-52106000D01*
X155668000Y-52107000D01*
X155670000Y-52107000D01*
X155673000Y-52108000D01*
X155675000Y-52109000D01*
X155678000Y-52110000D01*
X155680000Y-52112000D01*
X155682000Y-52113000D01*
X155684000Y-52115000D01*
X155686000Y-52116000D01*
X155688000Y-52118000D01*
X155690000Y-52120000D01*
X155692000Y-52122000D01*
X155694000Y-52124000D01*
X155695000Y-52126000D01*
X155697000Y-52128000D01*
X155698000Y-52130000D01*
X155700000Y-52132000D01*
X155701000Y-52135000D01*
X155702000Y-52137000D01*
X155703000Y-52140000D01*
X155703000Y-52142000D01*
X155704000Y-52145000D01*
X155704000Y-52147000D01*
X155705000Y-52150000D01*
X155705000Y-52152000D01*
X155705000Y-52155000D01*
X155705000Y-53745000D01*
X155705000Y-53748000D01*
X155705000Y-53750000D01*
X155704000Y-53753000D01*
X155704000Y-53755000D01*
X155703000Y-53758000D01*
X155703000Y-53760000D01*
X155702000Y-53763000D01*
X155701000Y-53765000D01*
X155700000Y-53768000D01*
X155698000Y-53770000D01*
X155697000Y-53772000D01*
X155695000Y-53774000D01*
X155694000Y-53776000D01*
X155692000Y-53778000D01*
X155690000Y-53780000D01*
X155688000Y-53782000D01*
X155686000Y-53784000D01*
X155684000Y-53785000D01*
X155682000Y-53787000D01*
X155680000Y-53788000D01*
X155678000Y-53790000D01*
X155675000Y-53791000D01*
X155673000Y-53792000D01*
X155670000Y-53793000D01*
X155668000Y-53793000D01*
X155665000Y-53794000D01*
X155663000Y-53794000D01*
X155660000Y-53795000D01*
X155658000Y-53795000D01*
X155655000Y-53795000D01*
X155015000Y-53795000D01*
X155012000Y-53795000D01*
X155010000Y-53795000D01*
X155007000Y-53794000D01*
X155005000Y-53794000D01*
X155002000Y-53793000D01*
X155000000Y-53793000D01*
X154997000Y-53792000D01*
X154995000Y-53791000D01*
X154992000Y-53790000D01*
X154990000Y-53788000D01*
X154988000Y-53787000D01*
X154986000Y-53785000D01*
X154984000Y-53784000D01*
X154982000Y-53782000D01*
X154980000Y-53780000D01*
X154978000Y-53778000D01*
X154976000Y-53776000D01*
X154975000Y-53774000D01*
X154973000Y-53772000D01*
X154972000Y-53770000D01*
X154970000Y-53768000D01*
X154969000Y-53765000D01*
X154968000Y-53763000D01*
X154967000Y-53760000D01*
X154967000Y-53758000D01*
X154966000Y-53755000D01*
X154966000Y-53753000D01*
X154965000Y-53750000D01*
X154965000Y-53748000D01*
X154965000Y-53745000D01*
X154965000Y-52155000D01*
X154965000Y-52152000D01*
X154965000Y-52150000D01*
X154966000Y-52147000D01*
X154966000Y-52145000D01*
X154967000Y-52142000D01*
X154967000Y-52140000D01*
X154968000Y-52137000D01*
X154969000Y-52135000D01*
X154970000Y-52132000D01*
X154972000Y-52130000D01*
X154973000Y-52128000D01*
X154975000Y-52126000D01*
X154976000Y-52124000D01*
X154978000Y-52122000D01*
X154980000Y-52120000D01*
X154982000Y-52118000D01*
X154984000Y-52116000D01*
X154986000Y-52115000D01*
X154988000Y-52113000D01*
X154990000Y-52112000D01*
X154992000Y-52110000D01*
X154995000Y-52109000D01*
X154997000Y-52108000D01*
X155000000Y-52107000D01*
X155002000Y-52107000D01*
X155005000Y-52106000D01*
X155007000Y-52106000D01*
X155010000Y-52105000D01*
X155012000Y-52105000D01*
X155015000Y-52105000D01*
X155655000Y-52105000D01*
X155658000Y-52105000D01*
X155660000Y-52105000D01*
X155663000Y-52106000D01*
G37*
X156933000Y-46706000D02*
X156935000Y-46706000D01*
X156938000Y-46707000D01*
X156940000Y-46707000D01*
X156943000Y-46708000D01*
X156945000Y-46709000D01*
X156948000Y-46710000D01*
X156950000Y-46712000D01*
X156952000Y-46713000D01*
X156954000Y-46715000D01*
X156956000Y-46716000D01*
X156958000Y-46718000D01*
X156960000Y-46720000D01*
X156962000Y-46722000D01*
X156964000Y-46724000D01*
X156965000Y-46726000D01*
X156967000Y-46728000D01*
X156968000Y-46730000D01*
X156970000Y-46732000D01*
X156971000Y-46735000D01*
X156972000Y-46737000D01*
X156973000Y-46740000D01*
X156973000Y-46742000D01*
X156974000Y-46745000D01*
X156974000Y-46747000D01*
X156975000Y-46750000D01*
X156975000Y-46752000D01*
X156975000Y-46755000D01*
X156975000Y-48345000D01*
X156975000Y-48348000D01*
X156975000Y-48350000D01*
X156974000Y-48353000D01*
X156974000Y-48355000D01*
X156973000Y-48358000D01*
X156973000Y-48360000D01*
X156972000Y-48363000D01*
X156971000Y-48365000D01*
X156970000Y-48368000D01*
X156968000Y-48370000D01*
X156967000Y-48372000D01*
X156965000Y-48374000D01*
X156964000Y-48376000D01*
X156962000Y-48378000D01*
X156960000Y-48380000D01*
X156958000Y-48382000D01*
X156956000Y-48384000D01*
X156954000Y-48385000D01*
X156952000Y-48387000D01*
X156950000Y-48388000D01*
X156948000Y-48390000D01*
X156945000Y-48391000D01*
X156943000Y-48392000D01*
X156940000Y-48393000D01*
X156938000Y-48393000D01*
X156935000Y-48394000D01*
X156933000Y-48394000D01*
X156930000Y-48395000D01*
X156928000Y-48395000D01*
X156925000Y-48395000D01*
X156285000Y-48395000D01*
X156282000Y-48395000D01*
X156280000Y-48395000D01*
X156277000Y-48394000D01*
X156275000Y-48394000D01*
X156272000Y-48393000D01*
X156270000Y-48393000D01*
X156267000Y-48392000D01*
X156265000Y-48391000D01*
X156262000Y-48390000D01*
X156260000Y-48388000D01*
X156258000Y-48387000D01*
X156256000Y-48385000D01*
X156254000Y-48384000D01*
X156252000Y-48382000D01*
X156250000Y-48380000D01*
X156248000Y-48378000D01*
X156246000Y-48376000D01*
X156245000Y-48374000D01*
X156243000Y-48372000D01*
X156242000Y-48370000D01*
X156240000Y-48368000D01*
X156239000Y-48365000D01*
X156238000Y-48363000D01*
X156237000Y-48360000D01*
X156237000Y-48358000D01*
X156236000Y-48355000D01*
X156236000Y-48353000D01*
X156235000Y-48350000D01*
X156235000Y-48348000D01*
X156235000Y-48345000D01*
X156235000Y-46755000D01*
X156235000Y-46752000D01*
X156235000Y-46750000D01*
X156236000Y-46747000D01*
X156236000Y-46745000D01*
X156237000Y-46742000D01*
X156237000Y-46740000D01*
X156238000Y-46737000D01*
X156239000Y-46735000D01*
X156240000Y-46732000D01*
X156242000Y-46730000D01*
X156243000Y-46728000D01*
X156245000Y-46726000D01*
X156246000Y-46724000D01*
X156248000Y-46722000D01*
X156250000Y-46720000D01*
X156252000Y-46718000D01*
X156254000Y-46716000D01*
X156256000Y-46715000D01*
X156258000Y-46713000D01*
X156260000Y-46712000D01*
X156262000Y-46710000D01*
X156265000Y-46709000D01*
X156267000Y-46708000D01*
X156270000Y-46707000D01*
X156272000Y-46707000D01*
X156275000Y-46706000D01*
X156277000Y-46706000D01*
X156280000Y-46705000D01*
X156282000Y-46705000D01*
X156285000Y-46705000D01*
X156925000Y-46705000D01*
X156928000Y-46705000D01*
X156930000Y-46705000D01*
X156933000Y-46706000D01*
G36*
X156933000Y-46706000D02*
G01*
X156935000Y-46706000D01*
X156938000Y-46707000D01*
X156940000Y-46707000D01*
X156943000Y-46708000D01*
X156945000Y-46709000D01*
X156948000Y-46710000D01*
X156950000Y-46712000D01*
X156952000Y-46713000D01*
X156954000Y-46715000D01*
X156956000Y-46716000D01*
X156958000Y-46718000D01*
X156960000Y-46720000D01*
X156962000Y-46722000D01*
X156964000Y-46724000D01*
X156965000Y-46726000D01*
X156967000Y-46728000D01*
X156968000Y-46730000D01*
X156970000Y-46732000D01*
X156971000Y-46735000D01*
X156972000Y-46737000D01*
X156973000Y-46740000D01*
X156973000Y-46742000D01*
X156974000Y-46745000D01*
X156974000Y-46747000D01*
X156975000Y-46750000D01*
X156975000Y-46752000D01*
X156975000Y-46755000D01*
X156975000Y-48345000D01*
X156975000Y-48348000D01*
X156975000Y-48350000D01*
X156974000Y-48353000D01*
X156974000Y-48355000D01*
X156973000Y-48358000D01*
X156973000Y-48360000D01*
X156972000Y-48363000D01*
X156971000Y-48365000D01*
X156970000Y-48368000D01*
X156968000Y-48370000D01*
X156967000Y-48372000D01*
X156965000Y-48374000D01*
X156964000Y-48376000D01*
X156962000Y-48378000D01*
X156960000Y-48380000D01*
X156958000Y-48382000D01*
X156956000Y-48384000D01*
X156954000Y-48385000D01*
X156952000Y-48387000D01*
X156950000Y-48388000D01*
X156948000Y-48390000D01*
X156945000Y-48391000D01*
X156943000Y-48392000D01*
X156940000Y-48393000D01*
X156938000Y-48393000D01*
X156935000Y-48394000D01*
X156933000Y-48394000D01*
X156930000Y-48395000D01*
X156928000Y-48395000D01*
X156925000Y-48395000D01*
X156285000Y-48395000D01*
X156282000Y-48395000D01*
X156280000Y-48395000D01*
X156277000Y-48394000D01*
X156275000Y-48394000D01*
X156272000Y-48393000D01*
X156270000Y-48393000D01*
X156267000Y-48392000D01*
X156265000Y-48391000D01*
X156262000Y-48390000D01*
X156260000Y-48388000D01*
X156258000Y-48387000D01*
X156256000Y-48385000D01*
X156254000Y-48384000D01*
X156252000Y-48382000D01*
X156250000Y-48380000D01*
X156248000Y-48378000D01*
X156246000Y-48376000D01*
X156245000Y-48374000D01*
X156243000Y-48372000D01*
X156242000Y-48370000D01*
X156240000Y-48368000D01*
X156239000Y-48365000D01*
X156238000Y-48363000D01*
X156237000Y-48360000D01*
X156237000Y-48358000D01*
X156236000Y-48355000D01*
X156236000Y-48353000D01*
X156235000Y-48350000D01*
X156235000Y-48348000D01*
X156235000Y-48345000D01*
X156235000Y-46755000D01*
X156235000Y-46752000D01*
X156235000Y-46750000D01*
X156236000Y-46747000D01*
X156236000Y-46745000D01*
X156237000Y-46742000D01*
X156237000Y-46740000D01*
X156238000Y-46737000D01*
X156239000Y-46735000D01*
X156240000Y-46732000D01*
X156242000Y-46730000D01*
X156243000Y-46728000D01*
X156245000Y-46726000D01*
X156246000Y-46724000D01*
X156248000Y-46722000D01*
X156250000Y-46720000D01*
X156252000Y-46718000D01*
X156254000Y-46716000D01*
X156256000Y-46715000D01*
X156258000Y-46713000D01*
X156260000Y-46712000D01*
X156262000Y-46710000D01*
X156265000Y-46709000D01*
X156267000Y-46708000D01*
X156270000Y-46707000D01*
X156272000Y-46707000D01*
X156275000Y-46706000D01*
X156277000Y-46706000D01*
X156280000Y-46705000D01*
X156282000Y-46705000D01*
X156285000Y-46705000D01*
X156925000Y-46705000D01*
X156928000Y-46705000D01*
X156930000Y-46705000D01*
X156933000Y-46706000D01*
G37*
X156933000Y-52106000D02*
X156935000Y-52106000D01*
X156938000Y-52107000D01*
X156940000Y-52107000D01*
X156943000Y-52108000D01*
X156945000Y-52109000D01*
X156948000Y-52110000D01*
X156950000Y-52112000D01*
X156952000Y-52113000D01*
X156954000Y-52115000D01*
X156956000Y-52116000D01*
X156958000Y-52118000D01*
X156960000Y-52120000D01*
X156962000Y-52122000D01*
X156964000Y-52124000D01*
X156965000Y-52126000D01*
X156967000Y-52128000D01*
X156968000Y-52130000D01*
X156970000Y-52132000D01*
X156971000Y-52135000D01*
X156972000Y-52137000D01*
X156973000Y-52140000D01*
X156973000Y-52142000D01*
X156974000Y-52145000D01*
X156974000Y-52147000D01*
X156975000Y-52150000D01*
X156975000Y-52152000D01*
X156975000Y-52155000D01*
X156975000Y-53745000D01*
X156975000Y-53748000D01*
X156975000Y-53750000D01*
X156974000Y-53753000D01*
X156974000Y-53755000D01*
X156973000Y-53758000D01*
X156973000Y-53760000D01*
X156972000Y-53763000D01*
X156971000Y-53765000D01*
X156970000Y-53768000D01*
X156968000Y-53770000D01*
X156967000Y-53772000D01*
X156965000Y-53774000D01*
X156964000Y-53776000D01*
X156962000Y-53778000D01*
X156960000Y-53780000D01*
X156958000Y-53782000D01*
X156956000Y-53784000D01*
X156954000Y-53785000D01*
X156952000Y-53787000D01*
X156950000Y-53788000D01*
X156948000Y-53790000D01*
X156945000Y-53791000D01*
X156943000Y-53792000D01*
X156940000Y-53793000D01*
X156938000Y-53793000D01*
X156935000Y-53794000D01*
X156933000Y-53794000D01*
X156930000Y-53795000D01*
X156928000Y-53795000D01*
X156925000Y-53795000D01*
X156285000Y-53795000D01*
X156282000Y-53795000D01*
X156280000Y-53795000D01*
X156277000Y-53794000D01*
X156275000Y-53794000D01*
X156272000Y-53793000D01*
X156270000Y-53793000D01*
X156267000Y-53792000D01*
X156265000Y-53791000D01*
X156262000Y-53790000D01*
X156260000Y-53788000D01*
X156258000Y-53787000D01*
X156256000Y-53785000D01*
X156254000Y-53784000D01*
X156252000Y-53782000D01*
X156250000Y-53780000D01*
X156248000Y-53778000D01*
X156246000Y-53776000D01*
X156245000Y-53774000D01*
X156243000Y-53772000D01*
X156242000Y-53770000D01*
X156240000Y-53768000D01*
X156239000Y-53765000D01*
X156238000Y-53763000D01*
X156237000Y-53760000D01*
X156237000Y-53758000D01*
X156236000Y-53755000D01*
X156236000Y-53753000D01*
X156235000Y-53750000D01*
X156235000Y-53748000D01*
X156235000Y-53745000D01*
X156235000Y-52155000D01*
X156235000Y-52152000D01*
X156235000Y-52150000D01*
X156236000Y-52147000D01*
X156236000Y-52145000D01*
X156237000Y-52142000D01*
X156237000Y-52140000D01*
X156238000Y-52137000D01*
X156239000Y-52135000D01*
X156240000Y-52132000D01*
X156242000Y-52130000D01*
X156243000Y-52128000D01*
X156245000Y-52126000D01*
X156246000Y-52124000D01*
X156248000Y-52122000D01*
X156250000Y-52120000D01*
X156252000Y-52118000D01*
X156254000Y-52116000D01*
X156256000Y-52115000D01*
X156258000Y-52113000D01*
X156260000Y-52112000D01*
X156262000Y-52110000D01*
X156265000Y-52109000D01*
X156267000Y-52108000D01*
X156270000Y-52107000D01*
X156272000Y-52107000D01*
X156275000Y-52106000D01*
X156277000Y-52106000D01*
X156280000Y-52105000D01*
X156282000Y-52105000D01*
X156285000Y-52105000D01*
X156925000Y-52105000D01*
X156928000Y-52105000D01*
X156930000Y-52105000D01*
X156933000Y-52106000D01*
G36*
X156933000Y-52106000D02*
G01*
X156935000Y-52106000D01*
X156938000Y-52107000D01*
X156940000Y-52107000D01*
X156943000Y-52108000D01*
X156945000Y-52109000D01*
X156948000Y-52110000D01*
X156950000Y-52112000D01*
X156952000Y-52113000D01*
X156954000Y-52115000D01*
X156956000Y-52116000D01*
X156958000Y-52118000D01*
X156960000Y-52120000D01*
X156962000Y-52122000D01*
X156964000Y-52124000D01*
X156965000Y-52126000D01*
X156967000Y-52128000D01*
X156968000Y-52130000D01*
X156970000Y-52132000D01*
X156971000Y-52135000D01*
X156972000Y-52137000D01*
X156973000Y-52140000D01*
X156973000Y-52142000D01*
X156974000Y-52145000D01*
X156974000Y-52147000D01*
X156975000Y-52150000D01*
X156975000Y-52152000D01*
X156975000Y-52155000D01*
X156975000Y-53745000D01*
X156975000Y-53748000D01*
X156975000Y-53750000D01*
X156974000Y-53753000D01*
X156974000Y-53755000D01*
X156973000Y-53758000D01*
X156973000Y-53760000D01*
X156972000Y-53763000D01*
X156971000Y-53765000D01*
X156970000Y-53768000D01*
X156968000Y-53770000D01*
X156967000Y-53772000D01*
X156965000Y-53774000D01*
X156964000Y-53776000D01*
X156962000Y-53778000D01*
X156960000Y-53780000D01*
X156958000Y-53782000D01*
X156956000Y-53784000D01*
X156954000Y-53785000D01*
X156952000Y-53787000D01*
X156950000Y-53788000D01*
X156948000Y-53790000D01*
X156945000Y-53791000D01*
X156943000Y-53792000D01*
X156940000Y-53793000D01*
X156938000Y-53793000D01*
X156935000Y-53794000D01*
X156933000Y-53794000D01*
X156930000Y-53795000D01*
X156928000Y-53795000D01*
X156925000Y-53795000D01*
X156285000Y-53795000D01*
X156282000Y-53795000D01*
X156280000Y-53795000D01*
X156277000Y-53794000D01*
X156275000Y-53794000D01*
X156272000Y-53793000D01*
X156270000Y-53793000D01*
X156267000Y-53792000D01*
X156265000Y-53791000D01*
X156262000Y-53790000D01*
X156260000Y-53788000D01*
X156258000Y-53787000D01*
X156256000Y-53785000D01*
X156254000Y-53784000D01*
X156252000Y-53782000D01*
X156250000Y-53780000D01*
X156248000Y-53778000D01*
X156246000Y-53776000D01*
X156245000Y-53774000D01*
X156243000Y-53772000D01*
X156242000Y-53770000D01*
X156240000Y-53768000D01*
X156239000Y-53765000D01*
X156238000Y-53763000D01*
X156237000Y-53760000D01*
X156237000Y-53758000D01*
X156236000Y-53755000D01*
X156236000Y-53753000D01*
X156235000Y-53750000D01*
X156235000Y-53748000D01*
X156235000Y-53745000D01*
X156235000Y-52155000D01*
X156235000Y-52152000D01*
X156235000Y-52150000D01*
X156236000Y-52147000D01*
X156236000Y-52145000D01*
X156237000Y-52142000D01*
X156237000Y-52140000D01*
X156238000Y-52137000D01*
X156239000Y-52135000D01*
X156240000Y-52132000D01*
X156242000Y-52130000D01*
X156243000Y-52128000D01*
X156245000Y-52126000D01*
X156246000Y-52124000D01*
X156248000Y-52122000D01*
X156250000Y-52120000D01*
X156252000Y-52118000D01*
X156254000Y-52116000D01*
X156256000Y-52115000D01*
X156258000Y-52113000D01*
X156260000Y-52112000D01*
X156262000Y-52110000D01*
X156265000Y-52109000D01*
X156267000Y-52108000D01*
X156270000Y-52107000D01*
X156272000Y-52107000D01*
X156275000Y-52106000D01*
X156277000Y-52106000D01*
X156280000Y-52105000D01*
X156282000Y-52105000D01*
X156285000Y-52105000D01*
X156925000Y-52105000D01*
X156928000Y-52105000D01*
X156930000Y-52105000D01*
X156933000Y-52106000D01*
G37*
%TD*%
D11*
%TO.C,R4*%
X162750000Y-43525000D03*
X162750000Y-45175000D03*
%TD*%
D12*
%TO.C,J5*%
X175322500Y-96610000D03*
D13*
X177862500Y-96610000D03*
X180402500Y-96610000D03*
%TD*%
D14*
%TO.C,RST_BTN1*%
X181972000Y-82784000D03*
X189932000Y-82784000D03*
X181972000Y-87284000D03*
X189932000Y-87284000D03*
%TD*%
D15*
%TO.C,U4*%
X172244000Y-89356000D03*
X172244000Y-88706000D03*
X172244000Y-88056000D03*
X172244000Y-87406000D03*
X172244000Y-86756000D03*
X172244000Y-86106000D03*
X172244000Y-85456000D03*
X172244000Y-84806000D03*
X172244000Y-84156000D03*
X172244000Y-83506000D03*
X166519000Y-83506000D03*
X166519000Y-84156000D03*
X166519000Y-84806000D03*
X166519000Y-85456000D03*
X166519000Y-86106000D03*
X166519000Y-86756000D03*
X166519000Y-87406000D03*
X166519000Y-88056000D03*
X166519000Y-88706000D03*
X166519000Y-89356000D03*
%TD*%
D16*
%TO.C,L1*%
X162200000Y-56750000D03*
X162200000Y-66450000D03*
%TD*%
D17*
%TO.C,C5*%
X160725000Y-34850000D03*
X158825000Y-34850000D03*
%TD*%
D18*
%TO.C,C23*%
X176300000Y-86825000D03*
X176300000Y-85275000D03*
%TD*%
D19*
%TO.C,R3*%
X150675000Y-62850000D03*
X149025000Y-62850000D03*
%TD*%
D20*
%TO.C,D1*%
X172400000Y-57015000D03*
X172400000Y-63985000D03*
%TD*%
D21*
%TO.C,C12*%
X170743000Y-44784000D03*
X169193000Y-44784000D03*
%TD*%
D22*
%TO.C,C13*%
X164900000Y-43600000D03*
X164900000Y-45500000D03*
%TD*%
D23*
%TO.C,Q2*%
X182137500Y-30700000D03*
X182137500Y-28800000D03*
X180262500Y-29750000D03*
%TD*%
D11*
%TO.C,R19*%
X182250000Y-45425000D03*
X182250000Y-47075000D03*
%TD*%
D12*
%TO.C,J9*%
X152300000Y-69260000D03*
D13*
X152300000Y-71800000D03*
X152300000Y-74340000D03*
%TD*%
D24*
%TO.C,D2*%
X170650000Y-31550000D03*
X170650000Y-33125000D03*
%TD*%
D18*
%TO.C,C19*%
X164501000Y-86425000D03*
X164501000Y-84875000D03*
%TD*%
D25*
%TO.C,R16*%
X174225000Y-50300000D03*
X175875000Y-50300000D03*
%TD*%
D21*
%TO.C,C2*%
X154075000Y-55000000D03*
X152525000Y-55000000D03*
%TD*%
D26*
%TO.C,C6*%
X172400000Y-43150000D03*
X173950000Y-43150000D03*
%TD*%
D21*
%TO.C,C10*%
X170743000Y-43133000D03*
X169193000Y-43133000D03*
%TD*%
D11*
%TO.C,R13*%
X178900000Y-40875000D03*
X178900000Y-42525000D03*
%TD*%
D27*
%TO.C,R5*%
X170650000Y-30025000D03*
X170650000Y-28375000D03*
%TD*%
D11*
%TO.C,R2*%
X152350000Y-61200000D03*
X152350000Y-62850000D03*
%TD*%
D28*
%TO.C,J6*%
X147350000Y-86750000D03*
X147350000Y-87400000D03*
X147350000Y-88050000D03*
X147350000Y-88700000D03*
X147350000Y-89350000D03*
D29*
X144650000Y-84537500D03*
D30*
X144650000Y-85025000D03*
D31*
X147350000Y-85550000D03*
D32*
X144650000Y-87050000D03*
X144650000Y-89050000D03*
D31*
X147350000Y-90550000D03*
D30*
X144650000Y-91075000D03*
D29*
X144650000Y-91562500D03*
%TD*%
D22*
%TO.C,C15*%
X150200000Y-36150000D03*
X150200000Y-38050000D03*
%TD*%
D27*
%TO.C,R18*%
X184100000Y-47075000D03*
X184100000Y-45425000D03*
%TD*%
D33*
%TO.C,H1*%
X148000000Y-30000000D03*
%TD*%
D19*
%TO.C,R6*%
X152075000Y-41850000D03*
X150425000Y-41850000D03*
%TD*%
D34*
%TO.C,C7*%
X158705000Y-49475000D03*
X158705000Y-51025000D03*
%TD*%
D33*
%TO.C,H2*%
X190000000Y-30000000D03*
%TD*%
D12*
%TO.C,J11*%
X191800000Y-72060000D03*
D13*
X191800000Y-69520000D03*
X191800000Y-66980000D03*
X191800000Y-64440000D03*
%TD*%
D18*
%TO.C,C21*%
X158881000Y-77517000D03*
X158881000Y-75967000D03*
%TD*%
D12*
%TO.C,J7*%
X168490000Y-96800000D03*
D13*
X165950000Y-96800000D03*
X163410000Y-96800000D03*
X160870000Y-96800000D03*
X158330000Y-96800000D03*
%TD*%
D35*
%TO.C,C9*%
X164500000Y-69700000D03*
X166400000Y-69700000D03*
%TD*%
D21*
%TO.C,C8*%
X170743000Y-46435000D03*
X169193000Y-46435000D03*
%TD*%
D34*
%TO.C,C1*%
X150900000Y-47500000D03*
X150900000Y-49050000D03*
%TD*%
D19*
%TO.C,R1*%
X150975000Y-56800000D03*
X149325000Y-56800000D03*
%TD*%
D25*
%TO.C,R14*%
X188025000Y-36850000D03*
X189675000Y-36850000D03*
%TD*%
D33*
%TO.C,H3*%
X148000000Y-99000000D03*
%TD*%
D18*
%TO.C,C18*%
X153567000Y-81872000D03*
X153567000Y-80322000D03*
%TD*%
D25*
%TO.C,R20*%
X188075000Y-41900000D03*
X189725000Y-41900000D03*
%TD*%
D19*
%TO.C,R17*%
X175875000Y-48500000D03*
X174225000Y-48500000D03*
%TD*%
D33*
%TO.C,H4*%
X190000000Y-99000000D03*
%TD*%
D25*
%TO.C,R21*%
X188100000Y-44150000D03*
X189750000Y-44150000D03*
%TD*%
%TO.C,R9*%
X175425000Y-29700000D03*
X177075000Y-29700000D03*
%TD*%
D24*
%TO.C,D3*%
X175400000Y-31862500D03*
X175400000Y-33437500D03*
%TD*%
D36*
%TO.C,J1*%
X167139000Y-28049287D03*
X158499000Y-28049287D03*
X167139000Y-31849287D03*
X158499000Y-31849287D03*
%TD*%
D18*
%TO.C,C22*%
X174522000Y-86825000D03*
X174522000Y-85275000D03*
%TD*%
D12*
%TO.C,J3*%
X146200000Y-36050000D03*
D13*
X146200000Y-38590000D03*
%TD*%
D24*
%TO.C,D4*%
X161431000Y-75954500D03*
X161431000Y-77529500D03*
%TD*%
D27*
%TO.C,R12*%
X180700000Y-42525000D03*
X180700000Y-40875000D03*
%TD*%
D21*
%TO.C,C4*%
X154075000Y-56800000D03*
X152525000Y-56800000D03*
%TD*%
D12*
%TO.C,J8*%
X188410000Y-59050000D03*
D13*
X185870000Y-59050000D03*
X183330000Y-59050000D03*
X180790000Y-59050000D03*
%TD*%
D18*
%TO.C,C20*%
X162850000Y-86425000D03*
X162850000Y-84875000D03*
%TD*%
D11*
%TO.C,R23*%
X163681000Y-75917000D03*
X163681000Y-77567000D03*
%TD*%
D19*
%TO.C,R11*%
X179325000Y-48650000D03*
X177675000Y-48650000D03*
%TD*%
D26*
%TO.C,C14*%
X161675000Y-49250000D03*
X163225000Y-49250000D03*
%TD*%
D19*
%TO.C,R22*%
X175258500Y-92927000D03*
X173608500Y-92927000D03*
%TD*%
D37*
%TO.C,U2*%
X172074000Y-40757000D03*
X172074000Y-40257000D03*
X172074000Y-39757000D03*
X172074000Y-39257000D03*
X172074000Y-38757000D03*
X172074000Y-38257000D03*
D38*
X171349000Y-37532000D03*
X170849000Y-37532000D03*
X170349000Y-37532000D03*
X169849000Y-37532000D03*
X169349000Y-37532000D03*
X168849000Y-37532000D03*
D37*
X168124000Y-38257000D03*
X168124000Y-38757000D03*
X168124000Y-39257000D03*
X168124000Y-39757000D03*
X168124000Y-40257000D03*
X168124000Y-40757000D03*
D38*
X168849000Y-41482000D03*
X169349000Y-41482000D03*
X169849000Y-41482000D03*
X170349000Y-41482000D03*
X170849000Y-41482000D03*
X171349000Y-41482000D03*
D39*
X170099000Y-39507000D03*
%TD*%
D25*
%TO.C,R7*%
X165625000Y-50750000D03*
X167275000Y-50750000D03*
%TD*%
D12*
%TO.C,J10*%
X147200000Y-69300000D03*
D13*
X147200000Y-71840000D03*
X147200000Y-74380000D03*
%TD*%
D40*
%TO.C,U3*%
X156626000Y-79451000D03*
X156626000Y-80401000D03*
X156626000Y-81351000D03*
X158901000Y-81351000D03*
X158901000Y-79451000D03*
%TD*%
D12*
%TO.C,J12*%
X146450000Y-47475000D03*
D13*
X146450000Y-50015000D03*
%TD*%
D41*
%TO.C,FB1*%
X178650000Y-92800000D03*
X177075000Y-92800000D03*
%TD*%
D25*
%TO.C,R15*%
X187925000Y-39500000D03*
X189575000Y-39500000D03*
%TD*%
D18*
%TO.C,C16*%
X192302000Y-85936000D03*
X192302000Y-84386000D03*
%TD*%
D35*
%TO.C,C11*%
X164500000Y-72113000D03*
X166400000Y-72113000D03*
%TD*%
D25*
%TO.C,R10*%
X177675000Y-50300000D03*
X179325000Y-50300000D03*
%TD*%
D17*
%TO.C,C3*%
X155500000Y-44600000D03*
X153600000Y-44600000D03*
%TD*%
D42*
%TO.C,C17*%
X160850000Y-86400000D03*
X160850000Y-84500000D03*
%TD*%
D11*
%TO.C,R8*%
X182150000Y-32775000D03*
X182150000Y-34425000D03*
%TD*%
D12*
%TO.C,J2*%
X192350000Y-52030000D03*
D13*
X192350000Y-49490000D03*
X192350000Y-46950000D03*
X192350000Y-44410000D03*
X192350000Y-41870000D03*
X192350000Y-39330000D03*
X192350000Y-36790000D03*
%TD*%
D43*
%TO.C,Q1*%
X154875000Y-38045000D03*
X154875000Y-39315000D03*
X154875000Y-40585000D03*
X154875000Y-41855000D03*
X159825000Y-41855000D03*
X159825000Y-40585000D03*
X159825000Y-39315000D03*
X159825000Y-38045000D03*
%TD*%
M02*
