%TF.GenerationSoftware,KiCad,Pcbnew,9.0.6*%
%TF.CreationDate,2026-03-21T00:11:43-07:00*%
%TF.ProjectId,Tilt_Table_PCB,54696c74-5f54-4616-926c-655f5043422e,rev?*%
%TF.SameCoordinates,Original*%
%TF.FileFunction,Paste,Top*%
%TF.FilePolarity,Positive*%
%FSLAX46Y46*%
G04 Gerber Fmt 4.6, Leading zero omitted, Abs format (unit mm)*
G04 Created by KiCad (PCBNEW 9.0.6) date 2026-03-21 00:11:43*
%MOMM*%
%LPD*%
G01*
G04 APERTURE LIST*
G04 Aperture macros list*
%AMRoundRect*
0 Rectangle with rounded corners*
0 $1 Rounding radius*
0 $2 $3 $4 $5 $6 $7 $8 $9 X,Y pos of 4 corners*
0 Add a 4 corners polygon primitive as box body*
4,1,4,$2,$3,$4,$5,$6,$7,$8,$9,$2,$3,0*
0 Add four circle primitives for the rounded corners*
1,1,$1+$1,$2,$3*
1,1,$1+$1,$4,$5*
1,1,$1+$1,$6,$7*
1,1,$1+$1,$8,$9*
0 Add four rect primitives between the rounded corners*
20,1,$1+$1,$2,$3,$4,$5,0*
20,1,$1+$1,$4,$5,$6,$7,0*
20,1,$1+$1,$6,$7,$8,$9,0*
20,1,$1+$1,$8,$9,$2,$3,0*%
G04 Aperture macros list end*
%ADD10C,0.010000*%
%ADD11RoundRect,0.200000X-0.275000X0.200000X-0.275000X-0.200000X0.275000X-0.200000X0.275000X0.200000X0*%
%ADD12RoundRect,0.250000X-0.525000X-0.400000X0.525000X-0.400000X0.525000X0.400000X-0.525000X0.400000X0*%
%ADD13RoundRect,0.100000X0.637500X0.100000X-0.637500X0.100000X-0.637500X-0.100000X0.637500X-0.100000X0*%
%ADD14R,5.400000X2.900000*%
%ADD15RoundRect,0.250000X0.250000X0.475000X-0.250000X0.475000X-0.250000X-0.475000X0.250000X-0.475000X0*%
%ADD16RoundRect,0.225000X0.250000X-0.225000X0.250000X0.225000X-0.250000X0.225000X-0.250000X-0.225000X0*%
%ADD17RoundRect,0.200000X0.200000X0.275000X-0.200000X0.275000X-0.200000X-0.275000X0.200000X-0.275000X0*%
%ADD18R,3.120000X2.180000*%
%ADD19RoundRect,0.225000X0.225000X0.250000X-0.225000X0.250000X-0.225000X-0.250000X0.225000X-0.250000X0*%
%ADD20RoundRect,0.250000X-0.475000X0.250000X-0.475000X-0.250000X0.475000X-0.250000X0.475000X0.250000X0*%
%ADD21RoundRect,0.150000X0.587500X0.150000X-0.587500X0.150000X-0.587500X-0.150000X0.587500X-0.150000X0*%
%ADD22RoundRect,0.218750X-0.256250X0.218750X-0.256250X-0.218750X0.256250X-0.218750X0.256250X0.218750X0*%
%ADD23RoundRect,0.200000X-0.200000X-0.275000X0.200000X-0.275000X0.200000X0.275000X-0.200000X0.275000X0*%
%ADD24RoundRect,0.225000X-0.225000X-0.250000X0.225000X-0.250000X0.225000X0.250000X-0.225000X0.250000X0*%
%ADD25RoundRect,0.200000X0.275000X-0.200000X0.275000X0.200000X-0.275000X0.200000X-0.275000X-0.200000X0*%
%ADD26O,1.550000X0.890000*%
%ADD27O,0.950000X1.250000*%
%ADD28RoundRect,0.100000X-0.575000X0.100000X-0.575000X-0.100000X0.575000X-0.100000X0.575000X0.100000X0*%
%ADD29RoundRect,0.250000X-0.750000X0.475000X-0.750000X-0.475000X0.750000X-0.475000X0.750000X0.475000X0*%
%ADD30RoundRect,0.250000X-0.525000X0.500000X-0.525000X-0.500000X0.525000X-0.500000X0.525000X0.500000X0*%
%ADD31RoundRect,0.225000X-0.250000X0.225000X-0.250000X-0.225000X0.250000X-0.225000X0.250000X0.225000X0*%
%ADD32RoundRect,0.250000X-0.250000X-0.475000X0.250000X-0.475000X0.250000X0.475000X-0.250000X0.475000X0*%
%ADD33R,0.700000X1.200000*%
%ADD34R,0.760000X1.200000*%
%ADD35R,0.800000X1.200000*%
%ADD36RoundRect,0.015000X-0.285000X0.760000X-0.285000X-0.760000X0.285000X-0.760000X0.285000X0.760000X0*%
%ADD37RoundRect,0.250000X0.305000X0.305000X-0.305000X0.305000X-0.305000X-0.305000X0.305000X-0.305000X0*%
%ADD38RoundRect,0.062500X0.337500X0.062500X-0.337500X0.062500X-0.337500X-0.062500X0.337500X-0.062500X0*%
%ADD39RoundRect,0.062500X0.062500X0.337500X-0.062500X0.337500X-0.062500X-0.337500X0.062500X-0.337500X0*%
%ADD40RoundRect,0.150000X-0.512500X-0.150000X0.512500X-0.150000X0.512500X0.150000X-0.512500X0.150000X0*%
%ADD41RoundRect,0.218750X0.218750X0.256250X-0.218750X0.256250X-0.218750X-0.256250X0.218750X-0.256250X0*%
%ADD42RoundRect,0.250000X0.475000X-0.250000X0.475000X0.250000X-0.475000X0.250000X-0.475000X-0.250000X0*%
%ADD43RoundRect,0.075000X-0.910000X-0.225000X0.910000X-0.225000X0.910000X0.225000X-0.910000X0.225000X0*%
G04 APERTURE END LIST*
D10*
%TO.C,U1*%
X156400000Y-51605000D02*
X153000000Y-51605000D01*
X153000000Y-48895000D01*
X156400000Y-48895000D01*
X156400000Y-51605000D01*
G36*
X156400000Y-51605000D02*
G01*
X153000000Y-51605000D01*
X153000000Y-48895000D01*
X156400000Y-48895000D01*
X156400000Y-51605000D01*
G37*
%TD*%
D11*
%TO.C,R4*%
X162750000Y-43525000D03*
X162750000Y-45175000D03*
%TD*%
D12*
%TO.C,RST_BTN1*%
X181972000Y-82784000D03*
X189932000Y-82784000D03*
X181972000Y-87284000D03*
X189932000Y-87284000D03*
%TD*%
D13*
%TO.C,U4*%
X172244000Y-89356000D03*
X172244000Y-88706000D03*
X172244000Y-88056000D03*
X172244000Y-87406000D03*
X172244000Y-86756000D03*
X172244000Y-86106000D03*
X172244000Y-85456000D03*
X172244000Y-84806000D03*
X172244000Y-84156000D03*
X172244000Y-83506000D03*
X166519000Y-83506000D03*
X166519000Y-84156000D03*
X166519000Y-84806000D03*
X166519000Y-85456000D03*
X166519000Y-86106000D03*
X166519000Y-86756000D03*
X166519000Y-87406000D03*
X166519000Y-88056000D03*
X166519000Y-88706000D03*
X166519000Y-89356000D03*
%TD*%
D14*
%TO.C,L1*%
X162200000Y-56750000D03*
X162200000Y-66450000D03*
%TD*%
D15*
%TO.C,C5*%
X160725000Y-34850000D03*
X158825000Y-34850000D03*
%TD*%
D16*
%TO.C,C23*%
X176300000Y-86825000D03*
X176300000Y-85275000D03*
%TD*%
D17*
%TO.C,R3*%
X150675000Y-62850000D03*
X149025000Y-62850000D03*
%TD*%
D18*
%TO.C,D1*%
X172400000Y-57015000D03*
X172400000Y-63985000D03*
%TD*%
D19*
%TO.C,C12*%
X170743000Y-44784000D03*
X169193000Y-44784000D03*
%TD*%
D20*
%TO.C,C13*%
X164900000Y-43600000D03*
X164900000Y-45500000D03*
%TD*%
D21*
%TO.C,Q2*%
X182137500Y-30700000D03*
X182137500Y-28800000D03*
X180262500Y-29750000D03*
%TD*%
D11*
%TO.C,R19*%
X182250000Y-45425000D03*
X182250000Y-47075000D03*
%TD*%
D22*
%TO.C,D2*%
X170650000Y-31550000D03*
X170650000Y-33125000D03*
%TD*%
D16*
%TO.C,C19*%
X164501000Y-86425000D03*
X164501000Y-84875000D03*
%TD*%
D23*
%TO.C,R16*%
X174225000Y-50300000D03*
X175875000Y-50300000D03*
%TD*%
D19*
%TO.C,C2*%
X154075000Y-55000000D03*
X152525000Y-55000000D03*
%TD*%
D24*
%TO.C,C6*%
X172400000Y-43150000D03*
X173950000Y-43150000D03*
%TD*%
D19*
%TO.C,C10*%
X170743000Y-43133000D03*
X169193000Y-43133000D03*
%TD*%
D11*
%TO.C,R13*%
X178900000Y-40875000D03*
X178900000Y-42525000D03*
%TD*%
D25*
%TO.C,R5*%
X170650000Y-30025000D03*
X170650000Y-28375000D03*
%TD*%
D11*
%TO.C,R2*%
X152350000Y-61200000D03*
X152350000Y-62850000D03*
%TD*%
D26*
%TO.C,J6*%
X144650000Y-84550000D03*
D27*
X147350000Y-85550000D03*
X147350000Y-90550000D03*
D26*
X144650000Y-91550000D03*
D28*
X147350000Y-86750000D03*
X147350000Y-87400000D03*
X147350000Y-88050000D03*
X147350000Y-88700000D03*
X147350000Y-89350000D03*
D29*
X144650000Y-85025000D03*
D30*
X144650000Y-87050000D03*
X144650000Y-89050000D03*
D29*
X144650000Y-91075000D03*
%TD*%
D20*
%TO.C,C15*%
X150200000Y-36150000D03*
X150200000Y-38050000D03*
%TD*%
D25*
%TO.C,R18*%
X184100000Y-47075000D03*
X184100000Y-45425000D03*
%TD*%
D17*
%TO.C,R6*%
X152075000Y-41850000D03*
X150425000Y-41850000D03*
%TD*%
D31*
%TO.C,C7*%
X158705000Y-49475000D03*
X158705000Y-51025000D03*
%TD*%
D16*
%TO.C,C21*%
X158881000Y-77517000D03*
X158881000Y-75967000D03*
%TD*%
D32*
%TO.C,C9*%
X164500000Y-69700000D03*
X166400000Y-69700000D03*
%TD*%
D19*
%TO.C,C8*%
X170743000Y-46435000D03*
X169193000Y-46435000D03*
%TD*%
D31*
%TO.C,C1*%
X150900000Y-47500000D03*
X150900000Y-49050000D03*
%TD*%
D17*
%TO.C,R1*%
X150975000Y-56800000D03*
X149325000Y-56800000D03*
%TD*%
D23*
%TO.C,R14*%
X188025000Y-36850000D03*
X189675000Y-36850000D03*
%TD*%
D16*
%TO.C,C18*%
X153567000Y-81872000D03*
X153567000Y-80322000D03*
%TD*%
D23*
%TO.C,R20*%
X188075000Y-41900000D03*
X189725000Y-41900000D03*
%TD*%
D17*
%TO.C,R17*%
X175875000Y-48500000D03*
X174225000Y-48500000D03*
%TD*%
D23*
%TO.C,R21*%
X188100000Y-44150000D03*
X189750000Y-44150000D03*
%TD*%
%TO.C,R9*%
X175425000Y-29700000D03*
X177075000Y-29700000D03*
%TD*%
D22*
%TO.C,D3*%
X175400000Y-31862500D03*
X175400000Y-33437500D03*
%TD*%
D33*
%TO.C,J1*%
X163319000Y-31929287D03*
D34*
X161299000Y-31929287D03*
D35*
X160069000Y-31929287D03*
D33*
X162319000Y-31929287D03*
D34*
X164339000Y-31929287D03*
D35*
X165569000Y-31929287D03*
%TD*%
D36*
%TO.C,U1*%
X156605000Y-47550000D03*
X155335000Y-47550000D03*
X154065000Y-47550000D03*
X152795000Y-47550000D03*
X152795000Y-52950000D03*
X154065000Y-52950000D03*
X155335000Y-52950000D03*
X156605000Y-52950000D03*
%TD*%
D16*
%TO.C,C22*%
X174522000Y-86825000D03*
X174522000Y-85275000D03*
%TD*%
D22*
%TO.C,D4*%
X161431000Y-75954500D03*
X161431000Y-77529500D03*
%TD*%
D25*
%TO.C,R12*%
X180700000Y-42525000D03*
X180700000Y-40875000D03*
%TD*%
D19*
%TO.C,C4*%
X154075000Y-56800000D03*
X152525000Y-56800000D03*
%TD*%
D16*
%TO.C,C20*%
X162850000Y-86425000D03*
X162850000Y-84875000D03*
%TD*%
D11*
%TO.C,R23*%
X163681000Y-75917000D03*
X163681000Y-77567000D03*
%TD*%
D17*
%TO.C,R11*%
X179325000Y-48650000D03*
X177675000Y-48650000D03*
%TD*%
D24*
%TO.C,C14*%
X161675000Y-49250000D03*
X163225000Y-49250000D03*
%TD*%
D17*
%TO.C,R22*%
X175258500Y-92927000D03*
X173608500Y-92927000D03*
%TD*%
D37*
%TO.C,U2*%
X170789000Y-40197000D03*
X170789000Y-38817000D03*
X169409000Y-40197000D03*
X169409000Y-38817000D03*
D38*
X172074000Y-40757000D03*
X172074000Y-40257000D03*
X172074000Y-39757000D03*
X172074000Y-39257000D03*
X172074000Y-38757000D03*
X172074000Y-38257000D03*
D39*
X171349000Y-37532000D03*
X170849000Y-37532000D03*
X170349000Y-37532000D03*
X169849000Y-37532000D03*
X169349000Y-37532000D03*
X168849000Y-37532000D03*
D38*
X168124000Y-38257000D03*
X168124000Y-38757000D03*
X168124000Y-39257000D03*
X168124000Y-39757000D03*
X168124000Y-40257000D03*
X168124000Y-40757000D03*
D39*
X168849000Y-41482000D03*
X169349000Y-41482000D03*
X169849000Y-41482000D03*
X170349000Y-41482000D03*
X170849000Y-41482000D03*
X171349000Y-41482000D03*
%TD*%
D23*
%TO.C,R7*%
X165625000Y-50750000D03*
X167275000Y-50750000D03*
%TD*%
D40*
%TO.C,U3*%
X156626000Y-79451000D03*
X156626000Y-80401000D03*
X156626000Y-81351000D03*
X158901000Y-81351000D03*
X158901000Y-79451000D03*
%TD*%
D41*
%TO.C,FB1*%
X178650000Y-92800000D03*
X177075000Y-92800000D03*
%TD*%
D23*
%TO.C,R15*%
X187925000Y-39500000D03*
X189575000Y-39500000D03*
%TD*%
D16*
%TO.C,C16*%
X192302000Y-85936000D03*
X192302000Y-84386000D03*
%TD*%
D32*
%TO.C,C11*%
X164500000Y-72113000D03*
X166400000Y-72113000D03*
%TD*%
D23*
%TO.C,R10*%
X177675000Y-50300000D03*
X179325000Y-50300000D03*
%TD*%
D15*
%TO.C,C3*%
X155500000Y-44600000D03*
X153600000Y-44600000D03*
%TD*%
D42*
%TO.C,C17*%
X160850000Y-86400000D03*
X160850000Y-84500000D03*
%TD*%
D11*
%TO.C,R8*%
X182150000Y-32775000D03*
X182150000Y-34425000D03*
%TD*%
D43*
%TO.C,Q1*%
X154875000Y-38045000D03*
X154875000Y-39315000D03*
X154875000Y-40585000D03*
X154875000Y-41855000D03*
X159825000Y-41855000D03*
X159825000Y-40585000D03*
X159825000Y-39315000D03*
X159825000Y-38045000D03*
%TD*%
M02*
