M48
; DRILL file {KiCad 9.0.6} date 2026-03-21T00:12:06-0700
; FORMAT={-:-/ absolute / metric / decimal}
; #@! TF.CreationDate,2026-03-21T00:12:06-07:00
; #@! TF.GenerationSoftware,Kicad,Pcbnew,9.0.6
; #@! TF.FileFunction,Plated,1,2,PTH
FMAT,2
METRIC
; #@! TA.AperFunction,Plated,PTH,ViaDrill
T1C0.300
; #@! TA.AperFunction,Plated,PTH,ComponentDrill
T2C0.500
; #@! TA.AperFunction,Plated,PTH,ComponentDrill
T3C0.550
; #@! TA.AperFunction,Plated,PTH,ComponentDrill
T4C0.600
; #@! TA.AperFunction,Plated,PTH,ComponentDrill
T5C1.000
%
G90
G05
T1
X147.25Y-82.2
X148.95Y-89.3
X149.0Y-61.45
X149.3Y-55.45
X150.95Y-50.3
X151.25Y-55.05
X152.45Y-44.6
X152.75Y-49.6
X152.75Y-50.9
X153.6Y-79.2
X154.05Y-49.6
X154.05Y-50.9
X155.35Y-49.6
X155.35Y-50.9
X155.35Y-54.5
X155.35Y-80.35
X156.65Y-49.6
X156.65Y-50.9
X157.55Y-34.85
X157.55Y-86.25
X157.65Y-43.1
X157.7Y-75.9
X158.8Y-94.35
X159.55Y-29.872
X160.45Y-27.022
X160.45Y-28.422
X160.85Y-83.3
X161.65Y-46.2
X161.7Y-40.65
X161.95Y-27.022
X161.95Y-28.422
X162.45Y-33.8
X162.7Y-94.35
X162.85Y-83.8
X163.45Y-27.022
X163.45Y-28.422
X163.7Y-78.6
X164.2Y-33.8
X164.5Y-83.8
X164.95Y-27.022
X164.95Y-28.422
X166.3Y-29.872
X167.4Y-34.25
X167.55Y-72.1
X167.6Y-69.75
X168.05Y-42.3
X168.05Y-43.15
X168.05Y-44.8
X168.05Y-46.45
X168.15Y-86.25
X168.35Y-87.2
X168.35Y-94.35
X168.6Y-75.6
X168.9Y-35.5
X169.45Y-38.8
X169.45Y-40.25
X169.95Y-35.65
X170.65Y-27.05
X170.7Y-34.85
X170.75Y-38.75
X170.75Y-40.25
X171.7Y-65.85
X171.7Y-66.85
X172.6Y-35.55
X172.8Y-50.75
X173.1Y-48.0
X173.25Y-65.85
X173.25Y-66.8
X173.75Y-81.35
X173.9Y-41.95
X173.95Y-36.05
X175.25Y-84.1
X175.45Y-39.6
X176.3Y-84.2
X176.8Y-88.1
X177.65Y-47.45
X177.7Y-90.25
X178.5Y-37.55
X178.55Y-87.2
X179.5Y-90.3
X179.65Y-43.85
X180.4Y-37.45
X181.3Y-37.0
X181.6Y-48.4
X183.6Y-82.8
X183.8Y-28.75
X183.8Y-34.5
X188.55Y-82.8
T5
X146.2Y-36.05
X146.2Y-38.59
X146.45Y-47.475
X146.45Y-50.015
X147.2Y-69.3
X147.2Y-71.84
X147.2Y-74.38
X152.3Y-69.26
X152.3Y-71.8
X152.3Y-74.34
X158.33Y-96.8
X160.87Y-96.8
X163.41Y-96.8
X165.95Y-96.8
X168.49Y-96.8
X175.322Y-96.61
X177.862Y-96.61
X180.403Y-96.61
X180.79Y-59.05
X183.33Y-59.05
X185.87Y-59.05
X188.41Y-59.05
X191.8Y-64.44
X191.8Y-66.98
X191.8Y-69.52
X191.8Y-72.06
X192.35Y-36.79
X192.35Y-39.33
X192.35Y-41.87
X192.35Y-44.41
X192.35Y-46.95
X192.35Y-49.49
X192.35Y-52.03
T2
X144.975Y-84.55G85X144.325Y-84.55
G05
X144.975Y-91.55G85X144.325Y-91.55
G05
T3
X147.35Y-85.4G85X147.35Y-85.7
G05
X147.35Y-90.4G85X147.35Y-90.7
G05
T4
X158.499Y-28.349G85X158.499Y-27.749
G05
X158.499Y-32.149G85X158.499Y-31.549
G05
X167.139Y-28.349G85X167.139Y-27.749
G05
X167.139Y-32.149G85X167.139Y-31.549
G05
M30
