%TF.GenerationSoftware,KiCad,Pcbnew,9.0.6*%
%TF.CreationDate,2026-03-21T00:11:43-07:00*%
%TF.ProjectId,Tilt_Table_PCB,54696c74-5f54-4616-926c-655f5043422e,rev?*%
%TF.SameCoordinates,Original*%
%TF.FileFunction,Copper,L2,Bot*%
%TF.FilePolarity,Positive*%
%FSLAX46Y46*%
G04 Gerber Fmt 4.6, Leading zero omitted, Abs format (unit mm)*
G04 Created by KiCad (PCBNEW 9.0.6) date 2026-03-21 00:11:43*
%MOMM*%
%LPD*%
G01*
G04 APERTURE LIST*
%TA.AperFunction,ComponentPad*%
%ADD10R,1.700000X1.700000*%
%TD*%
%TA.AperFunction,ComponentPad*%
%ADD11C,1.700000*%
%TD*%
%TA.AperFunction,HeatsinkPad*%
%ADD12O,2.000000X0.975000*%
%TD*%
%TA.AperFunction,HeatsinkPad*%
%ADD13O,0.950000X1.250000*%
%TD*%
%TA.AperFunction,ComponentPad*%
%ADD14O,1.100000X1.700000*%
%TD*%
%TA.AperFunction,ViaPad*%
%ADD15C,0.700000*%
%TD*%
%TA.AperFunction,Conductor*%
%ADD16C,0.250000*%
%TD*%
%TA.AperFunction,Conductor*%
%ADD17C,0.200000*%
%TD*%
G04 APERTURE END LIST*
D10*
%TO.P,J5,1,Pin_1*%
%TO.N,+3.3V*%
X175322500Y-96610000D03*
D11*
%TO.P,J5,2,Pin_2*%
%TO.N,/MCU/HDR_BOOT0*%
X177862500Y-96610000D03*
%TO.P,J5,3,Pin_3*%
%TO.N,GND*%
X180402500Y-96610000D03*
%TD*%
D10*
%TO.P,J9,1,Pin_1*%
%TO.N,GND*%
X152300000Y-69260000D03*
D11*
%TO.P,J9,2,Pin_2*%
%TO.N,+6V*%
X152300000Y-71800000D03*
%TO.P,J9,3,Pin_3*%
%TO.N,/MCU/SERVO_Y*%
X152300000Y-74340000D03*
%TD*%
D12*
%TO.P,J6,6,Shield*%
%TO.N,unconnected-(J6-Shield-Pad6)_1*%
X144650000Y-84537500D03*
D13*
%TO.N,unconnected-(J6-Shield-Pad6)_3*%
X147350000Y-85550000D03*
%TO.N,unconnected-(J6-Shield-Pad6)_6*%
X147350000Y-90550000D03*
D12*
%TO.N,unconnected-(J6-Shield-Pad6)_2*%
X144650000Y-91562500D03*
%TD*%
D10*
%TO.P,J11,1,Pin_1*%
%TO.N,/MCU/PF0*%
X191800000Y-72060000D03*
D11*
%TO.P,J11,2,Pin_2*%
%TO.N,/MCU/PF1*%
X191800000Y-69520000D03*
%TO.P,J11,3,Pin_3*%
%TO.N,/MCU/UART_TX*%
X191800000Y-66980000D03*
%TO.P,J11,4,Pin_4*%
%TO.N,/MCU/UART_RX*%
X191800000Y-64440000D03*
%TD*%
D10*
%TO.P,J7,1,Pin_1*%
%TO.N,+3.3V*%
X168490000Y-96800000D03*
D11*
%TO.P,J7,2,Pin_2*%
%TO.N,GND*%
X165950000Y-96800000D03*
%TO.P,J7,3,Pin_3*%
%TO.N,/MCU/NRST*%
X163410000Y-96800000D03*
%TO.P,J7,4,Pin_4*%
%TO.N,/MCU/SWCLK*%
X160870000Y-96800000D03*
%TO.P,J7,5,Pin_5*%
%TO.N,/MCU/SWDIO*%
X158330000Y-96800000D03*
%TD*%
D14*
%TO.P,J1,SH1,SHIELD1*%
%TO.N,GND*%
X167139000Y-28049287D03*
%TO.P,J1,SH2,SHIELD2*%
X158499000Y-28049287D03*
%TO.P,J1,SH3,SHIELD3*%
X167139000Y-31849287D03*
%TO.P,J1,SH4,SHIELD4*%
X158499000Y-31849287D03*
%TD*%
D10*
%TO.P,J3,1,Pin_1*%
%TO.N,/Power/VBUS_OUT*%
X146200000Y-36050000D03*
D11*
%TO.P,J3,2,Pin_2*%
%TO.N,GND*%
X146200000Y-38590000D03*
%TD*%
D10*
%TO.P,J8,1,Pin_1*%
%TO.N,/MCU/Tilt_Xri*%
X188410000Y-59050000D03*
D11*
%TO.P,J8,2,Pin_2*%
%TO.N,/MCU/Tilt_Xle*%
X185870000Y-59050000D03*
%TO.P,J8,3,Pin_3*%
%TO.N,/MCU/Tilt_Ydown*%
X183330000Y-59050000D03*
%TO.P,J8,4,Pin_4*%
%TO.N,/MCU/Tilt_Yup*%
X180790000Y-59050000D03*
%TD*%
D10*
%TO.P,J10,1,Pin_1*%
%TO.N,GND*%
X147200000Y-69300000D03*
D11*
%TO.P,J10,2,Pin_2*%
%TO.N,+6V*%
X147200000Y-71840000D03*
%TO.P,J10,3,Pin_3*%
%TO.N,/MCU/SERVO_X*%
X147200000Y-74380000D03*
%TD*%
D10*
%TO.P,J12,1,Pin_1*%
%TO.N,Net-(J12-Pin_1)*%
X146450000Y-47475000D03*
D11*
%TO.P,J12,2,Pin_2*%
%TO.N,SERVO_EN*%
X146450000Y-50015000D03*
%TD*%
D10*
%TO.P,J2,1,Pin_1*%
%TO.N,PDC_3.3V*%
X192350000Y-52030000D03*
D11*
%TO.P,J2,2,Pin_2*%
%TO.N,GND*%
X192350000Y-49490000D03*
%TO.P,J2,3,Pin_3*%
%TO.N,/Power/SWD_CLK*%
X192350000Y-46950000D03*
%TO.P,J2,4,Pin_4*%
%TO.N,/Power/SWD_IO_INT*%
X192350000Y-44410000D03*
%TO.P,J2,5,Pin_5*%
%TO.N,/Power/HPI_SCL*%
X192350000Y-41870000D03*
%TO.P,J2,6,Pin_6*%
%TO.N,/Power/HPI_SDA*%
X192350000Y-39330000D03*
%TO.P,J2,7,Pin_7*%
%TO.N,/Power/FLIP*%
X192350000Y-36790000D03*
%TD*%
D15*
%TO.N,GND*%
X154050000Y-50900000D03*
X173250000Y-66800000D03*
X164950000Y-28422287D03*
X164500000Y-83800000D03*
X167600000Y-69750000D03*
X150950000Y-50300000D03*
X179650000Y-43850000D03*
X170750000Y-38750000D03*
X188550000Y-82800000D03*
X169450000Y-38800000D03*
X181600000Y-48400000D03*
X183600000Y-82800000D03*
X176300000Y-84200000D03*
X157700000Y-75900000D03*
X173250000Y-65850000D03*
X155350000Y-49600000D03*
X166300000Y-29872287D03*
X163450000Y-27022287D03*
X151250000Y-55050000D03*
X152750000Y-50900000D03*
X159550000Y-29872287D03*
X149000000Y-61450000D03*
X155350000Y-54500000D03*
X162850000Y-83800000D03*
X155350000Y-80350000D03*
X161950000Y-27022287D03*
X183800000Y-28750000D03*
X168150000Y-86250000D03*
X148950000Y-89300000D03*
X152450000Y-44600000D03*
X173100000Y-48000000D03*
X168050000Y-43150000D03*
X168050000Y-42300000D03*
X177650000Y-47450000D03*
X160450000Y-28422287D03*
X175250000Y-84100000D03*
X167550000Y-72100000D03*
X160450000Y-27022287D03*
X149300000Y-55450000D03*
X156650000Y-50900000D03*
X169450000Y-40250000D03*
X163700000Y-78600000D03*
X156650000Y-49600000D03*
X168050000Y-46450000D03*
X154050000Y-49600000D03*
X173900000Y-41950000D03*
X161950000Y-28422287D03*
X171700000Y-66850000D03*
X171700000Y-65850000D03*
X152750000Y-49600000D03*
X183800000Y-34500000D03*
X170650000Y-27050000D03*
X157550000Y-34850000D03*
X155350000Y-50900000D03*
X168050000Y-44800000D03*
X153600000Y-79200000D03*
X170750000Y-40250000D03*
X164950000Y-27022287D03*
X160850000Y-83300000D03*
X163450000Y-28422287D03*
%TO.N,/Power/VBUS_OUT*%
X168900000Y-35500000D03*
X161700000Y-40650000D03*
%TO.N,/Power/VBUS_FET_EN_R*%
X157650000Y-43100000D03*
X161650000Y-46200000D03*
%TO.N,+3.3V*%
X157550000Y-86250000D03*
X168350000Y-94350000D03*
%TO.N,/Power/USB_CC2*%
X164200000Y-33800000D03*
X162450000Y-33800000D03*
%TO.N,/Power/SWD_IO_INT*%
X180400000Y-37450000D03*
X178500000Y-37550000D03*
%TO.N,/Power/HPI_SDA*%
X170700000Y-34850000D03*
X173950000Y-36050000D03*
%TO.N,/Power/HPI_SCL*%
X181300000Y-37000000D03*
X167400000Y-34250000D03*
%TO.N,/Power/FLIP*%
X172600000Y-35550000D03*
X169950000Y-35650000D03*
%TO.N,/MCU/PF0*%
X177700000Y-90250000D03*
X179500000Y-90300000D03*
%TO.N,/MCU/PF1*%
X176800000Y-88100000D03*
X178550000Y-87200000D03*
%TO.N,/MCU/SERVO_Y*%
X168600000Y-75600000D03*
X173750000Y-81350000D03*
%TO.N,/Power/VBUS_FET_EN*%
X175450000Y-39600000D03*
X172800000Y-50750000D03*
%TO.N,/MCU/SERVO_X*%
X168350000Y-87200000D03*
X147250000Y-82200000D03*
%TO.N,SERVO_EN*%
X158800000Y-94350000D03*
X162700000Y-94350000D03*
%TD*%
D16*
%TO.N,/Power/VBUS_OUT*%
X168900000Y-35500000D02*
X168900000Y-36950000D01*
X168900000Y-36950000D02*
X165200000Y-40650000D01*
X165200000Y-40650000D02*
X161700000Y-40650000D01*
%TO.N,/Power/VBUS_FET_EN_R*%
X157650000Y-43100000D02*
X158550000Y-43100000D01*
X158550000Y-43100000D02*
X161650000Y-46200000D01*
%TO.N,+3.3V*%
X165650000Y-94350000D02*
X168350000Y-94350000D01*
X165650000Y-94350000D02*
X157550000Y-86250000D01*
%TO.N,/Power/USB_CC2*%
X164200000Y-33800000D02*
X162450000Y-33800000D01*
D17*
%TO.N,/Power/SWD_IO_INT*%
X180300000Y-37550000D02*
X180400000Y-37450000D01*
X178500000Y-37550000D02*
X180300000Y-37550000D01*
%TO.N,/Power/HPI_SDA*%
X170700000Y-34850000D02*
X173050000Y-34850000D01*
X170850000Y-34700000D02*
X170900000Y-34750000D01*
X173950000Y-35750000D02*
X173950000Y-36050000D01*
X173050000Y-34850000D02*
X173950000Y-35750000D01*
%TO.N,/Power/HPI_SCL*%
X167587500Y-34062500D02*
X167400000Y-34250000D01*
X178362500Y-34062500D02*
X167587500Y-34062500D01*
X181300000Y-37000000D02*
X178362500Y-34062500D01*
%TO.N,/Power/FLIP*%
X172500000Y-35650000D02*
X172600000Y-35550000D01*
X169950000Y-35650000D02*
X172500000Y-35650000D01*
D16*
%TO.N,/MCU/PF0*%
X179450000Y-90250000D02*
X179500000Y-90300000D01*
X177700000Y-90250000D02*
X179450000Y-90250000D01*
%TO.N,/MCU/PF1*%
X176800000Y-88100000D02*
X177650000Y-88100000D01*
X177650000Y-88100000D02*
X178550000Y-87200000D01*
%TO.N,/MCU/SERVO_Y*%
X173750000Y-81350000D02*
X168600000Y-76200000D01*
X168600000Y-76200000D02*
X168600000Y-75600000D01*
%TO.N,/Power/VBUS_FET_EN*%
X175550000Y-48000000D02*
X175550000Y-41582000D01*
X172800000Y-50750000D02*
X175550000Y-48000000D01*
X175550000Y-39700000D02*
X175450000Y-39600000D01*
X175550000Y-41582000D02*
X175550000Y-39700000D01*
%TO.N,/MCU/SERVO_X*%
X156216702Y-82200000D02*
X147250000Y-82200000D01*
X168350000Y-87200000D02*
X161216702Y-87200000D01*
X161216702Y-87200000D02*
X156216702Y-82200000D01*
%TO.N,SERVO_EN*%
X162700000Y-94350000D02*
X158800000Y-94350000D01*
%TO.N,unconnected-(J6-Shield-Pad6)_2*%
X145150000Y-91050000D02*
X144650000Y-91550000D01*
%TD*%
%TA.AperFunction,Conductor*%
%TO.N,GND*%
G36*
X194792539Y-25670185D02*
G01*
X194838294Y-25722989D01*
X194849500Y-25774500D01*
X194849500Y-103375500D01*
X194829815Y-103442539D01*
X194777011Y-103488294D01*
X194725500Y-103499500D01*
X143623307Y-103499500D01*
X143556268Y-103479815D01*
X143510513Y-103427011D01*
X143499308Y-103375896D01*
X143484958Y-98878711D01*
X146149500Y-98878711D01*
X146149500Y-99121288D01*
X146181161Y-99361785D01*
X146243947Y-99596104D01*
X146336773Y-99820205D01*
X146336776Y-99820212D01*
X146458064Y-100030289D01*
X146458066Y-100030292D01*
X146458067Y-100030293D01*
X146605733Y-100222736D01*
X146605739Y-100222743D01*
X146777256Y-100394260D01*
X146777262Y-100394265D01*
X146969711Y-100541936D01*
X147179788Y-100663224D01*
X147403900Y-100756054D01*
X147638211Y-100818838D01*
X147818586Y-100842584D01*
X147878711Y-100850500D01*
X147878712Y-100850500D01*
X148121289Y-100850500D01*
X148169388Y-100844167D01*
X148361789Y-100818838D01*
X148596100Y-100756054D01*
X148820212Y-100663224D01*
X149030289Y-100541936D01*
X149222738Y-100394265D01*
X149394265Y-100222738D01*
X149541936Y-100030289D01*
X149663224Y-99820212D01*
X149756054Y-99596100D01*
X149818838Y-99361789D01*
X149850500Y-99121288D01*
X149850500Y-98878712D01*
X149850500Y-98878711D01*
X188149500Y-98878711D01*
X188149500Y-99121288D01*
X188181161Y-99361785D01*
X188243947Y-99596104D01*
X188336773Y-99820205D01*
X188336776Y-99820212D01*
X188458064Y-100030289D01*
X188458066Y-100030292D01*
X188458067Y-100030293D01*
X188605733Y-100222736D01*
X188605739Y-100222743D01*
X188777256Y-100394260D01*
X188777262Y-100394265D01*
X188969711Y-100541936D01*
X189179788Y-100663224D01*
X189403900Y-100756054D01*
X189638211Y-100818838D01*
X189818586Y-100842584D01*
X189878711Y-100850500D01*
X189878712Y-100850500D01*
X190121289Y-100850500D01*
X190169388Y-100844167D01*
X190361789Y-100818838D01*
X190596100Y-100756054D01*
X190820212Y-100663224D01*
X191030289Y-100541936D01*
X191222738Y-100394265D01*
X191394265Y-100222738D01*
X191541936Y-100030289D01*
X191663224Y-99820212D01*
X191756054Y-99596100D01*
X191818838Y-99361789D01*
X191850500Y-99121288D01*
X191850500Y-98878712D01*
X191818838Y-98638211D01*
X191756054Y-98403900D01*
X191663224Y-98179788D01*
X191541936Y-97969711D01*
X191394265Y-97777262D01*
X191394260Y-97777256D01*
X191222743Y-97605739D01*
X191222736Y-97605733D01*
X191030293Y-97458067D01*
X191030292Y-97458066D01*
X191030289Y-97458064D01*
X190856727Y-97357858D01*
X190820214Y-97336777D01*
X190820205Y-97336773D01*
X190596104Y-97243947D01*
X190361785Y-97181161D01*
X190121289Y-97149500D01*
X190121288Y-97149500D01*
X189878712Y-97149500D01*
X189878711Y-97149500D01*
X189638214Y-97181161D01*
X189403895Y-97243947D01*
X189179794Y-97336773D01*
X189179785Y-97336777D01*
X189038558Y-97418315D01*
X188984699Y-97449411D01*
X188969706Y-97458067D01*
X188777263Y-97605733D01*
X188777256Y-97605739D01*
X188605739Y-97777256D01*
X188605733Y-97777263D01*
X188458067Y-97969706D01*
X188336777Y-98179785D01*
X188336773Y-98179794D01*
X188243947Y-98403895D01*
X188181161Y-98638214D01*
X188149500Y-98878711D01*
X149850500Y-98878711D01*
X149818838Y-98638211D01*
X149756054Y-98403900D01*
X149663224Y-98179788D01*
X149541936Y-97969711D01*
X149394265Y-97777262D01*
X149394260Y-97777256D01*
X149222743Y-97605739D01*
X149222736Y-97605733D01*
X149030293Y-97458067D01*
X149030292Y-97458066D01*
X149030289Y-97458064D01*
X148856727Y-97357858D01*
X148820214Y-97336777D01*
X148820205Y-97336773D01*
X148596104Y-97243947D01*
X148361785Y-97181161D01*
X148121289Y-97149500D01*
X148121288Y-97149500D01*
X147878712Y-97149500D01*
X147878711Y-97149500D01*
X147638214Y-97181161D01*
X147403895Y-97243947D01*
X147179794Y-97336773D01*
X147179785Y-97336777D01*
X147038558Y-97418315D01*
X146984699Y-97449411D01*
X146969706Y-97458067D01*
X146777263Y-97605733D01*
X146777256Y-97605739D01*
X146605739Y-97777256D01*
X146605733Y-97777263D01*
X146458067Y-97969706D01*
X146336777Y-98179785D01*
X146336773Y-98179794D01*
X146243947Y-98403895D01*
X146181161Y-98638214D01*
X146149500Y-98878711D01*
X143484958Y-98878711D01*
X143484946Y-98875049D01*
X143483443Y-98403895D01*
X143478049Y-96713389D01*
X157229500Y-96713389D01*
X157229500Y-96886610D01*
X157252097Y-97029287D01*
X157256598Y-97057701D01*
X157310127Y-97222445D01*
X157388768Y-97376788D01*
X157490586Y-97516928D01*
X157613072Y-97639414D01*
X157753212Y-97741232D01*
X157907555Y-97819873D01*
X158072299Y-97873402D01*
X158243389Y-97900500D01*
X158243390Y-97900500D01*
X158416610Y-97900500D01*
X158416611Y-97900500D01*
X158587701Y-97873402D01*
X158752445Y-97819873D01*
X158906788Y-97741232D01*
X159046928Y-97639414D01*
X159169414Y-97516928D01*
X159271232Y-97376788D01*
X159349873Y-97222445D01*
X159403402Y-97057701D01*
X159430500Y-96886611D01*
X159430500Y-96713389D01*
X159769500Y-96713389D01*
X159769500Y-96886610D01*
X159792097Y-97029287D01*
X159796598Y-97057701D01*
X159850127Y-97222445D01*
X159928768Y-97376788D01*
X160030586Y-97516928D01*
X160153072Y-97639414D01*
X160293212Y-97741232D01*
X160447555Y-97819873D01*
X160612299Y-97873402D01*
X160783389Y-97900500D01*
X160783390Y-97900500D01*
X160956610Y-97900500D01*
X160956611Y-97900500D01*
X161127701Y-97873402D01*
X161292445Y-97819873D01*
X161446788Y-97741232D01*
X161586928Y-97639414D01*
X161709414Y-97516928D01*
X161811232Y-97376788D01*
X161889873Y-97222445D01*
X161943402Y-97057701D01*
X161970500Y-96886611D01*
X161970500Y-96713389D01*
X162309500Y-96713389D01*
X162309500Y-96886610D01*
X162332097Y-97029287D01*
X162336598Y-97057701D01*
X162390127Y-97222445D01*
X162468768Y-97376788D01*
X162570586Y-97516928D01*
X162693072Y-97639414D01*
X162833212Y-97741232D01*
X162987555Y-97819873D01*
X163152299Y-97873402D01*
X163323389Y-97900500D01*
X163323390Y-97900500D01*
X163496610Y-97900500D01*
X163496611Y-97900500D01*
X163667701Y-97873402D01*
X163832445Y-97819873D01*
X163986788Y-97741232D01*
X164126928Y-97639414D01*
X164249414Y-97516928D01*
X164351232Y-97376788D01*
X164429873Y-97222445D01*
X164430896Y-97219294D01*
X164431610Y-97218250D01*
X164431734Y-97217952D01*
X164431796Y-97217977D01*
X164470327Y-97161618D01*
X164534683Y-97134415D01*
X164603530Y-97146323D01*
X164655011Y-97193562D01*
X164666760Y-97219287D01*
X164698904Y-97318217D01*
X164795375Y-97507550D01*
X164834728Y-97561716D01*
X165467036Y-96929407D01*
X165484075Y-96992993D01*
X165549901Y-97107007D01*
X165642993Y-97200099D01*
X165757007Y-97265925D01*
X165820590Y-97282962D01*
X165188282Y-97915269D01*
X165188282Y-97915270D01*
X165242449Y-97954624D01*
X165431782Y-98051095D01*
X165633870Y-98116757D01*
X165843754Y-98150000D01*
X166056246Y-98150000D01*
X166266127Y-98116757D01*
X166266130Y-98116757D01*
X166468217Y-98051095D01*
X166657554Y-97954622D01*
X166711716Y-97915270D01*
X166711717Y-97915270D01*
X166079408Y-97282962D01*
X166142993Y-97265925D01*
X166257007Y-97200099D01*
X166350099Y-97107007D01*
X166415925Y-96992993D01*
X166432962Y-96929408D01*
X167065270Y-97561717D01*
X167065270Y-97561716D01*
X167104622Y-97507554D01*
X167155015Y-97408654D01*
X167202990Y-97357858D01*
X167270811Y-97341063D01*
X167336946Y-97363600D01*
X167380397Y-97418315D01*
X167389500Y-97464949D01*
X167389500Y-97674678D01*
X167404032Y-97747735D01*
X167404033Y-97747739D01*
X167415314Y-97764622D01*
X167459399Y-97830601D01*
X167542260Y-97885966D01*
X167542264Y-97885967D01*
X167615321Y-97900499D01*
X167615324Y-97900500D01*
X167615326Y-97900500D01*
X169364676Y-97900500D01*
X169364677Y-97900499D01*
X169437740Y-97885966D01*
X169520601Y-97830601D01*
X169575966Y-97747740D01*
X169590500Y-97674674D01*
X169590500Y-95925326D01*
X169590500Y-95925323D01*
X169590499Y-95925321D01*
X169575967Y-95852264D01*
X169575966Y-95852260D01*
X169539794Y-95798124D01*
X169539793Y-95798123D01*
X169520601Y-95769399D01*
X169469599Y-95735321D01*
X174222000Y-95735321D01*
X174222000Y-97484678D01*
X174236532Y-97557735D01*
X174236533Y-97557739D01*
X174254905Y-97585235D01*
X174291899Y-97640601D01*
X174374760Y-97695966D01*
X174374764Y-97695967D01*
X174447821Y-97710499D01*
X174447824Y-97710500D01*
X174447826Y-97710500D01*
X176197176Y-97710500D01*
X176197177Y-97710499D01*
X176270240Y-97695966D01*
X176353101Y-97640601D01*
X176408466Y-97557740D01*
X176423000Y-97484674D01*
X176423000Y-96523389D01*
X176762000Y-96523389D01*
X176762000Y-96696611D01*
X176789098Y-96867701D01*
X176842627Y-97032445D01*
X176921268Y-97186788D01*
X177023086Y-97326928D01*
X177145572Y-97449414D01*
X177285712Y-97551232D01*
X177440055Y-97629873D01*
X177604799Y-97683402D01*
X177775889Y-97710500D01*
X177775890Y-97710500D01*
X177949110Y-97710500D01*
X177949111Y-97710500D01*
X178120201Y-97683402D01*
X178284945Y-97629873D01*
X178439288Y-97551232D01*
X178579428Y-97449414D01*
X178701914Y-97326928D01*
X178803732Y-97186788D01*
X178882373Y-97032445D01*
X178883396Y-97029294D01*
X178884110Y-97028250D01*
X178884234Y-97027952D01*
X178884296Y-97027977D01*
X178922827Y-96971618D01*
X178987183Y-96944415D01*
X179056030Y-96956323D01*
X179107511Y-97003562D01*
X179119260Y-97029287D01*
X179151404Y-97128217D01*
X179247875Y-97317550D01*
X179287228Y-97371716D01*
X179919537Y-96739408D01*
X179936575Y-96802993D01*
X180002401Y-96917007D01*
X180095493Y-97010099D01*
X180209507Y-97075925D01*
X180273090Y-97092962D01*
X179640782Y-97725269D01*
X179640782Y-97725270D01*
X179694949Y-97764624D01*
X179884282Y-97861095D01*
X180086370Y-97926757D01*
X180296254Y-97960000D01*
X180508746Y-97960000D01*
X180718627Y-97926757D01*
X180718630Y-97926757D01*
X180920717Y-97861095D01*
X181110054Y-97764622D01*
X181164216Y-97725270D01*
X181164217Y-97725270D01*
X180531908Y-97092962D01*
X180595493Y-97075925D01*
X180709507Y-97010099D01*
X180802599Y-96917007D01*
X180868425Y-96802993D01*
X180885462Y-96739408D01*
X181517770Y-97371717D01*
X181517770Y-97371716D01*
X181557122Y-97317554D01*
X181653595Y-97128217D01*
X181719257Y-96926130D01*
X181719257Y-96926127D01*
X181752500Y-96716246D01*
X181752500Y-96503753D01*
X181719257Y-96293872D01*
X181719257Y-96293869D01*
X181653595Y-96091782D01*
X181557124Y-95902449D01*
X181517770Y-95848282D01*
X181517769Y-95848282D01*
X180885462Y-96480590D01*
X180868425Y-96417007D01*
X180802599Y-96302993D01*
X180709507Y-96209901D01*
X180595493Y-96144075D01*
X180531909Y-96127037D01*
X181164216Y-95494728D01*
X181110050Y-95455375D01*
X180920717Y-95358904D01*
X180718629Y-95293242D01*
X180508746Y-95260000D01*
X180296254Y-95260000D01*
X180086372Y-95293242D01*
X180086369Y-95293242D01*
X179884282Y-95358904D01*
X179694939Y-95455380D01*
X179640782Y-95494727D01*
X179640782Y-95494728D01*
X180273091Y-96127037D01*
X180209507Y-96144075D01*
X180095493Y-96209901D01*
X180002401Y-96302993D01*
X179936575Y-96417007D01*
X179919537Y-96480591D01*
X179287228Y-95848282D01*
X179287227Y-95848282D01*
X179247880Y-95902439D01*
X179151404Y-96091783D01*
X179119260Y-96190712D01*
X179079822Y-96248388D01*
X179015464Y-96275586D01*
X178946617Y-96263671D01*
X178895142Y-96216427D01*
X178883398Y-96190712D01*
X178882373Y-96187555D01*
X178803732Y-96033212D01*
X178701914Y-95893072D01*
X178579428Y-95770586D01*
X178439288Y-95668768D01*
X178284945Y-95590127D01*
X178120201Y-95536598D01*
X178120199Y-95536597D01*
X178120198Y-95536597D01*
X177988771Y-95515781D01*
X177949111Y-95509500D01*
X177775889Y-95509500D01*
X177736228Y-95515781D01*
X177604802Y-95536597D01*
X177440052Y-95590128D01*
X177285711Y-95668768D01*
X177223410Y-95714033D01*
X177145572Y-95770586D01*
X177145570Y-95770588D01*
X177145569Y-95770588D01*
X177023088Y-95893069D01*
X177023088Y-95893070D01*
X177023086Y-95893072D01*
X176999656Y-95925321D01*
X176921268Y-96033211D01*
X176842628Y-96187552D01*
X176789097Y-96352302D01*
X176773042Y-96453671D01*
X176762000Y-96523389D01*
X176423000Y-96523389D01*
X176423000Y-95735326D01*
X176423000Y-95735323D01*
X176422999Y-95735321D01*
X176408467Y-95662264D01*
X176408466Y-95662260D01*
X176397184Y-95645375D01*
X176353101Y-95579399D01*
X176270240Y-95524034D01*
X176270239Y-95524033D01*
X176270235Y-95524032D01*
X176197177Y-95509500D01*
X176197174Y-95509500D01*
X174447826Y-95509500D01*
X174447823Y-95509500D01*
X174374764Y-95524032D01*
X174374760Y-95524033D01*
X174291899Y-95579399D01*
X174236533Y-95662260D01*
X174236532Y-95662264D01*
X174222000Y-95735321D01*
X169469599Y-95735321D01*
X169437739Y-95714033D01*
X169437735Y-95714032D01*
X169364677Y-95699500D01*
X169364674Y-95699500D01*
X167615326Y-95699500D01*
X167615323Y-95699500D01*
X167542264Y-95714032D01*
X167542260Y-95714033D01*
X167459399Y-95769399D01*
X167404033Y-95852260D01*
X167404032Y-95852264D01*
X167389500Y-95925321D01*
X167389500Y-96135050D01*
X167369815Y-96202089D01*
X167317011Y-96247844D01*
X167247853Y-96257788D01*
X167184297Y-96228763D01*
X167155015Y-96191345D01*
X167104624Y-96092450D01*
X167065270Y-96038282D01*
X167065269Y-96038282D01*
X166432962Y-96670590D01*
X166415925Y-96607007D01*
X166350099Y-96492993D01*
X166257007Y-96399901D01*
X166142993Y-96334075D01*
X166079409Y-96317037D01*
X166711716Y-95684728D01*
X166657550Y-95645375D01*
X166468217Y-95548904D01*
X166266129Y-95483242D01*
X166056246Y-95450000D01*
X165843754Y-95450000D01*
X165633872Y-95483242D01*
X165633869Y-95483242D01*
X165431782Y-95548904D01*
X165242439Y-95645380D01*
X165188282Y-95684727D01*
X165188282Y-95684728D01*
X165820591Y-96317037D01*
X165757007Y-96334075D01*
X165642993Y-96399901D01*
X165549901Y-96492993D01*
X165484075Y-96607007D01*
X165467037Y-96670591D01*
X164834728Y-96038282D01*
X164834727Y-96038282D01*
X164795380Y-96092439D01*
X164698904Y-96281783D01*
X164666760Y-96380712D01*
X164627322Y-96438388D01*
X164562964Y-96465586D01*
X164494117Y-96453671D01*
X164442642Y-96406427D01*
X164430898Y-96380712D01*
X164429873Y-96377555D01*
X164351232Y-96223212D01*
X164249414Y-96083072D01*
X164126928Y-95960586D01*
X163986788Y-95858768D01*
X163832445Y-95780127D01*
X163667701Y-95726598D01*
X163667699Y-95726597D01*
X163667698Y-95726597D01*
X163536271Y-95705781D01*
X163496611Y-95699500D01*
X163323389Y-95699500D01*
X163283728Y-95705781D01*
X163152302Y-95726597D01*
X162987552Y-95780128D01*
X162833211Y-95858768D01*
X162773104Y-95902439D01*
X162693072Y-95960586D01*
X162693070Y-95960588D01*
X162693069Y-95960588D01*
X162570588Y-96083069D01*
X162570588Y-96083070D01*
X162570586Y-96083072D01*
X162551022Y-96110000D01*
X162468768Y-96223211D01*
X162390128Y-96377552D01*
X162336597Y-96542302D01*
X162309500Y-96713389D01*
X161970500Y-96713389D01*
X161943402Y-96542299D01*
X161889873Y-96377555D01*
X161811232Y-96223212D01*
X161709414Y-96083072D01*
X161586928Y-95960586D01*
X161446788Y-95858768D01*
X161292445Y-95780127D01*
X161127701Y-95726598D01*
X161127699Y-95726597D01*
X161127698Y-95726597D01*
X160996271Y-95705781D01*
X160956611Y-95699500D01*
X160783389Y-95699500D01*
X160743728Y-95705781D01*
X160612302Y-95726597D01*
X160447552Y-95780128D01*
X160293211Y-95858768D01*
X160233104Y-95902439D01*
X160153072Y-95960586D01*
X160153070Y-95960588D01*
X160153069Y-95960588D01*
X160030588Y-96083069D01*
X160030588Y-96083070D01*
X160030586Y-96083072D01*
X160011022Y-96110000D01*
X159928768Y-96223211D01*
X159850128Y-96377552D01*
X159796597Y-96542302D01*
X159769500Y-96713389D01*
X159430500Y-96713389D01*
X159403402Y-96542299D01*
X159349873Y-96377555D01*
X159271232Y-96223212D01*
X159169414Y-96083072D01*
X159046928Y-95960586D01*
X158906788Y-95858768D01*
X158752445Y-95780127D01*
X158587701Y-95726598D01*
X158587699Y-95726597D01*
X158587698Y-95726597D01*
X158456271Y-95705781D01*
X158416611Y-95699500D01*
X158243389Y-95699500D01*
X158203728Y-95705781D01*
X158072302Y-95726597D01*
X157907552Y-95780128D01*
X157753211Y-95858768D01*
X157693104Y-95902439D01*
X157613072Y-95960586D01*
X157613070Y-95960588D01*
X157613069Y-95960588D01*
X157490588Y-96083069D01*
X157490588Y-96083070D01*
X157490586Y-96083072D01*
X157471022Y-96110000D01*
X157388768Y-96223211D01*
X157310128Y-96377552D01*
X157256597Y-96542302D01*
X157229500Y-96713389D01*
X143478049Y-96713389D01*
X143470255Y-94270943D01*
X158199500Y-94270943D01*
X158199500Y-94429056D01*
X158240423Y-94581783D01*
X158240426Y-94581790D01*
X158319475Y-94718709D01*
X158319479Y-94718714D01*
X158319480Y-94718716D01*
X158431284Y-94830520D01*
X158431286Y-94830521D01*
X158431290Y-94830524D01*
X158568209Y-94909573D01*
X158568216Y-94909577D01*
X158720943Y-94950500D01*
X158720945Y-94950500D01*
X158879055Y-94950500D01*
X158879057Y-94950500D01*
X159031784Y-94909577D01*
X159168716Y-94830520D01*
X159237417Y-94761819D01*
X159298740Y-94728334D01*
X159325098Y-94725500D01*
X162174902Y-94725500D01*
X162241941Y-94745185D01*
X162262583Y-94761819D01*
X162331284Y-94830520D01*
X162331286Y-94830521D01*
X162331290Y-94830524D01*
X162468209Y-94909573D01*
X162468216Y-94909577D01*
X162620943Y-94950500D01*
X162620945Y-94950500D01*
X162779055Y-94950500D01*
X162779057Y-94950500D01*
X162931784Y-94909577D01*
X163068716Y-94830520D01*
X163180520Y-94718716D01*
X163259577Y-94581784D01*
X163300500Y-94429057D01*
X163300500Y-94270943D01*
X163259577Y-94118216D01*
X163259573Y-94118209D01*
X163180524Y-93981290D01*
X163180518Y-93981282D01*
X163068717Y-93869481D01*
X163068709Y-93869475D01*
X162931790Y-93790426D01*
X162931786Y-93790424D01*
X162931784Y-93790423D01*
X162779057Y-93749500D01*
X162620943Y-93749500D01*
X162468216Y-93790423D01*
X162468209Y-93790426D01*
X162331290Y-93869475D01*
X162331282Y-93869481D01*
X162262583Y-93938181D01*
X162201260Y-93971666D01*
X162174902Y-93974500D01*
X159325098Y-93974500D01*
X159258059Y-93954815D01*
X159237417Y-93938181D01*
X159168717Y-93869481D01*
X159168709Y-93869475D01*
X159031790Y-93790426D01*
X159031786Y-93790424D01*
X159031784Y-93790423D01*
X158879057Y-93749500D01*
X158720943Y-93749500D01*
X158568216Y-93790423D01*
X158568209Y-93790426D01*
X158431290Y-93869475D01*
X158431282Y-93869481D01*
X158319481Y-93981282D01*
X158319475Y-93981290D01*
X158240426Y-94118209D01*
X158240423Y-94118216D01*
X158199500Y-94270943D01*
X143470255Y-94270943D01*
X143463747Y-92231463D01*
X143483217Y-92164363D01*
X143535875Y-92118440D01*
X143605001Y-92108275D01*
X143661511Y-92133067D01*
X143661986Y-92132357D01*
X143665990Y-92135032D01*
X143666415Y-92135219D01*
X143667050Y-92135740D01*
X143667052Y-92135742D01*
X143787926Y-92216507D01*
X143922233Y-92272139D01*
X144064808Y-92300499D01*
X144064811Y-92300500D01*
X144064813Y-92300500D01*
X145235189Y-92300500D01*
X145235190Y-92300499D01*
X145377767Y-92272139D01*
X145512074Y-92216507D01*
X145632948Y-92135742D01*
X145735742Y-92032948D01*
X145816507Y-91912074D01*
X145872139Y-91777767D01*
X145900500Y-91635187D01*
X145900500Y-91489813D01*
X145900500Y-91489810D01*
X145900499Y-91489808D01*
X145887707Y-91425500D01*
X145872139Y-91347233D01*
X145816507Y-91212926D01*
X145735742Y-91092052D01*
X145735740Y-91092049D01*
X145632951Y-90989260D01*
X145632947Y-90989257D01*
X145519535Y-90913477D01*
X145481039Y-90872375D01*
X145450477Y-90819440D01*
X145450473Y-90819435D01*
X145402495Y-90771457D01*
X146624499Y-90771457D01*
X146652379Y-90911614D01*
X146652381Y-90911620D01*
X146707069Y-91043650D01*
X146707074Y-91043659D01*
X146786467Y-91162478D01*
X146786470Y-91162482D01*
X146887517Y-91263529D01*
X146887521Y-91263532D01*
X147006340Y-91342925D01*
X147006349Y-91342930D01*
X147036258Y-91355318D01*
X147138380Y-91397619D01*
X147138384Y-91397619D01*
X147138385Y-91397620D01*
X147278542Y-91425500D01*
X147278545Y-91425500D01*
X147421457Y-91425500D01*
X147515751Y-91406742D01*
X147561620Y-91397619D01*
X147693653Y-91342929D01*
X147812479Y-91263532D01*
X147913532Y-91162479D01*
X147992929Y-91043653D01*
X148047619Y-90911620D01*
X148059307Y-90852861D01*
X148075500Y-90771457D01*
X148075500Y-90328542D01*
X148047620Y-90188385D01*
X148047619Y-90188384D01*
X148047619Y-90188380D01*
X147997845Y-90068216D01*
X147992930Y-90056349D01*
X147992925Y-90056340D01*
X147913532Y-89937521D01*
X147913529Y-89937517D01*
X147812482Y-89836470D01*
X147812478Y-89836467D01*
X147693659Y-89757074D01*
X147693650Y-89757069D01*
X147561620Y-89702381D01*
X147561614Y-89702379D01*
X147421457Y-89674500D01*
X147421455Y-89674500D01*
X147278545Y-89674500D01*
X147278543Y-89674500D01*
X147138385Y-89702379D01*
X147138379Y-89702381D01*
X147006349Y-89757069D01*
X147006340Y-89757074D01*
X146887521Y-89836467D01*
X146887517Y-89836470D01*
X146786470Y-89937517D01*
X146786467Y-89937521D01*
X146707074Y-90056340D01*
X146707069Y-90056349D01*
X146652381Y-90188379D01*
X146652379Y-90188385D01*
X146624500Y-90328542D01*
X146624500Y-90328545D01*
X146624500Y-90771455D01*
X146624500Y-90771457D01*
X146624499Y-90771457D01*
X145402495Y-90771457D01*
X145380564Y-90749526D01*
X145380559Y-90749522D01*
X145294939Y-90700090D01*
X145294938Y-90700089D01*
X145294937Y-90700089D01*
X145199436Y-90674500D01*
X145100564Y-90674500D01*
X145005063Y-90700089D01*
X145005060Y-90700090D01*
X144919440Y-90749522D01*
X144919435Y-90749526D01*
X144880781Y-90788181D01*
X144819458Y-90821666D01*
X144793100Y-90824500D01*
X144064810Y-90824500D01*
X143922240Y-90852859D01*
X143922232Y-90852861D01*
X143787927Y-90908492D01*
X143667049Y-90989259D01*
X143662342Y-90993123D01*
X143660588Y-90990986D01*
X143609525Y-91018692D01*
X143539847Y-91013522D01*
X143484025Y-90971501D01*
X143459783Y-90905972D01*
X143459492Y-90897879D01*
X143443134Y-85771457D01*
X146624499Y-85771457D01*
X146652379Y-85911614D01*
X146652381Y-85911620D01*
X146707069Y-86043650D01*
X146707074Y-86043659D01*
X146786467Y-86162478D01*
X146786470Y-86162482D01*
X146887517Y-86263529D01*
X146887521Y-86263532D01*
X147006340Y-86342925D01*
X147006346Y-86342928D01*
X147006347Y-86342929D01*
X147138380Y-86397619D01*
X147138384Y-86397619D01*
X147138385Y-86397620D01*
X147278542Y-86425500D01*
X147278545Y-86425500D01*
X147421457Y-86425500D01*
X147515751Y-86406742D01*
X147561620Y-86397619D01*
X147693653Y-86342929D01*
X147812479Y-86263532D01*
X147905068Y-86170943D01*
X156949500Y-86170943D01*
X156949500Y-86329057D01*
X156967872Y-86397620D01*
X156990423Y-86481783D01*
X156990426Y-86481790D01*
X157069475Y-86618709D01*
X157069479Y-86618714D01*
X157069480Y-86618716D01*
X157181284Y-86730520D01*
X157181286Y-86730521D01*
X157181290Y-86730524D01*
X157309968Y-86804815D01*
X157318216Y-86809577D01*
X157470943Y-86850500D01*
X157568101Y-86850500D01*
X157635140Y-86870185D01*
X157655782Y-86886819D01*
X165419432Y-94650471D01*
X165419433Y-94650472D01*
X165419435Y-94650473D01*
X165419437Y-94650475D01*
X165454088Y-94670480D01*
X165505062Y-94699910D01*
X165552811Y-94712705D01*
X165552812Y-94712705D01*
X165562903Y-94715408D01*
X165600564Y-94725500D01*
X165600565Y-94725500D01*
X167824902Y-94725500D01*
X167891941Y-94745185D01*
X167912583Y-94761819D01*
X167981284Y-94830520D01*
X167981286Y-94830521D01*
X167981290Y-94830524D01*
X168118209Y-94909573D01*
X168118216Y-94909577D01*
X168270943Y-94950500D01*
X168270945Y-94950500D01*
X168429055Y-94950500D01*
X168429057Y-94950500D01*
X168581784Y-94909577D01*
X168718716Y-94830520D01*
X168830520Y-94718716D01*
X168909577Y-94581784D01*
X168950500Y-94429057D01*
X168950500Y-94270943D01*
X168909577Y-94118216D01*
X168909573Y-94118209D01*
X168830524Y-93981290D01*
X168830518Y-93981282D01*
X168718717Y-93869481D01*
X168718709Y-93869475D01*
X168581790Y-93790426D01*
X168581786Y-93790424D01*
X168581784Y-93790423D01*
X168429057Y-93749500D01*
X168270943Y-93749500D01*
X168118216Y-93790423D01*
X168118209Y-93790426D01*
X167981290Y-93869475D01*
X167981282Y-93869481D01*
X167912583Y-93938181D01*
X167851260Y-93971666D01*
X167824902Y-93974500D01*
X165856900Y-93974500D01*
X165789861Y-93954815D01*
X165769219Y-93938181D01*
X162001981Y-90170943D01*
X177099500Y-90170943D01*
X177099500Y-90329057D01*
X177112898Y-90379057D01*
X177140423Y-90481783D01*
X177140426Y-90481790D01*
X177219475Y-90618709D01*
X177219479Y-90618714D01*
X177219480Y-90618716D01*
X177331284Y-90730520D01*
X177331286Y-90730521D01*
X177331290Y-90730524D01*
X177468209Y-90809573D01*
X177468216Y-90809577D01*
X177620943Y-90850500D01*
X177620945Y-90850500D01*
X177779055Y-90850500D01*
X177779057Y-90850500D01*
X177931784Y-90809577D01*
X178068716Y-90730520D01*
X178137417Y-90661819D01*
X178198740Y-90628334D01*
X178225098Y-90625500D01*
X178925170Y-90625500D01*
X178992209Y-90645185D01*
X179012679Y-90664022D01*
X179013733Y-90662969D01*
X179019480Y-90668716D01*
X179131284Y-90780520D01*
X179131286Y-90780521D01*
X179131290Y-90780524D01*
X179207460Y-90824500D01*
X179268216Y-90859577D01*
X179420943Y-90900500D01*
X179420945Y-90900500D01*
X179579055Y-90900500D01*
X179579057Y-90900500D01*
X179731784Y-90859577D01*
X179868716Y-90780520D01*
X179980520Y-90668716D01*
X180059577Y-90531784D01*
X180100500Y-90379057D01*
X180100500Y-90220943D01*
X180059577Y-90068216D01*
X180052726Y-90056349D01*
X179980524Y-89931290D01*
X179980518Y-89931282D01*
X179868717Y-89819481D01*
X179868709Y-89819475D01*
X179731790Y-89740426D01*
X179731786Y-89740424D01*
X179731784Y-89740423D01*
X179579057Y-89699500D01*
X179420943Y-89699500D01*
X179268216Y-89740423D01*
X179268209Y-89740426D01*
X179131290Y-89819475D01*
X179131282Y-89819481D01*
X179112583Y-89838181D01*
X179051260Y-89871666D01*
X179024902Y-89874500D01*
X178225098Y-89874500D01*
X178158059Y-89854815D01*
X178137417Y-89838181D01*
X178068717Y-89769481D01*
X178068709Y-89769475D01*
X177931790Y-89690426D01*
X177931786Y-89690424D01*
X177931784Y-89690423D01*
X177779057Y-89649500D01*
X177620943Y-89649500D01*
X177468216Y-89690423D01*
X177468209Y-89690426D01*
X177331290Y-89769475D01*
X177331282Y-89769481D01*
X177219481Y-89881282D01*
X177219475Y-89881290D01*
X177140426Y-90018209D01*
X177140423Y-90018216D01*
X177099500Y-90170943D01*
X162001981Y-90170943D01*
X159851981Y-88020943D01*
X176199500Y-88020943D01*
X176199500Y-88179056D01*
X176240423Y-88331783D01*
X176240426Y-88331790D01*
X176319475Y-88468709D01*
X176319479Y-88468714D01*
X176319480Y-88468716D01*
X176431284Y-88580520D01*
X176431286Y-88580521D01*
X176431290Y-88580524D01*
X176568209Y-88659573D01*
X176568216Y-88659577D01*
X176720943Y-88700500D01*
X176720945Y-88700500D01*
X176879055Y-88700500D01*
X176879057Y-88700500D01*
X177031784Y-88659577D01*
X177168716Y-88580520D01*
X177237417Y-88511819D01*
X177298740Y-88478334D01*
X177325098Y-88475500D01*
X177699435Y-88475500D01*
X177699436Y-88475500D01*
X177747186Y-88462705D01*
X177794938Y-88449910D01*
X177880562Y-88400475D01*
X177950475Y-88330562D01*
X178444218Y-87836819D01*
X178505541Y-87803334D01*
X178531899Y-87800500D01*
X178629055Y-87800500D01*
X178629057Y-87800500D01*
X178781784Y-87759577D01*
X178918716Y-87680520D01*
X179030520Y-87568716D01*
X179109577Y-87431784D01*
X179150500Y-87279057D01*
X179150500Y-87120943D01*
X179109577Y-86968216D01*
X179062583Y-86886819D01*
X179030524Y-86831290D01*
X179030518Y-86831282D01*
X178918717Y-86719481D01*
X178918709Y-86719475D01*
X178781790Y-86640426D01*
X178781786Y-86640424D01*
X178781784Y-86640423D01*
X178629057Y-86599500D01*
X178470943Y-86599500D01*
X178318216Y-86640423D01*
X178318209Y-86640426D01*
X178181290Y-86719475D01*
X178181282Y-86719481D01*
X178069481Y-86831282D01*
X178069475Y-86831290D01*
X177990426Y-86968209D01*
X177990423Y-86968216D01*
X177949500Y-87120943D01*
X177949500Y-87218101D01*
X177929815Y-87285140D01*
X177913181Y-87305782D01*
X177530782Y-87688181D01*
X177503854Y-87702884D01*
X177478036Y-87719477D01*
X177471835Y-87720368D01*
X177469459Y-87721666D01*
X177443101Y-87724500D01*
X177325098Y-87724500D01*
X177258059Y-87704815D01*
X177237417Y-87688181D01*
X177168717Y-87619481D01*
X177168709Y-87619475D01*
X177031790Y-87540426D01*
X177031786Y-87540424D01*
X177031784Y-87540423D01*
X176879057Y-87499500D01*
X176720943Y-87499500D01*
X176568216Y-87540423D01*
X176568209Y-87540426D01*
X176431290Y-87619475D01*
X176431282Y-87619481D01*
X176319481Y-87731282D01*
X176319475Y-87731290D01*
X176240426Y-87868209D01*
X176240423Y-87868216D01*
X176199500Y-88020943D01*
X159851981Y-88020943D01*
X158186819Y-86355781D01*
X158153334Y-86294458D01*
X158150500Y-86268100D01*
X158150500Y-86170945D01*
X158150500Y-86170943D01*
X158109577Y-86018216D01*
X158109573Y-86018209D01*
X158030524Y-85881290D01*
X158030518Y-85881282D01*
X157918717Y-85769481D01*
X157918709Y-85769475D01*
X157781790Y-85690426D01*
X157781786Y-85690424D01*
X157781784Y-85690423D01*
X157629057Y-85649500D01*
X157470943Y-85649500D01*
X157318216Y-85690423D01*
X157318209Y-85690426D01*
X157181290Y-85769475D01*
X157181282Y-85769481D01*
X157069481Y-85881282D01*
X157069475Y-85881290D01*
X156990426Y-86018209D01*
X156990423Y-86018216D01*
X156949500Y-86170943D01*
X147905068Y-86170943D01*
X147913532Y-86162479D01*
X147936257Y-86128468D01*
X147959339Y-86093925D01*
X147992925Y-86043659D01*
X147992925Y-86043658D01*
X147992929Y-86043653D01*
X148047619Y-85911620D01*
X148075500Y-85771455D01*
X148075500Y-85328545D01*
X148075500Y-85328542D01*
X148047620Y-85188385D01*
X148047619Y-85188384D01*
X148047619Y-85188380D01*
X147992929Y-85056347D01*
X147992928Y-85056346D01*
X147992925Y-85056340D01*
X147913532Y-84937521D01*
X147913529Y-84937517D01*
X147812482Y-84836470D01*
X147812478Y-84836467D01*
X147693659Y-84757074D01*
X147693650Y-84757069D01*
X147561620Y-84702381D01*
X147561614Y-84702379D01*
X147421457Y-84674500D01*
X147421455Y-84674500D01*
X147278545Y-84674500D01*
X147278543Y-84674500D01*
X147138385Y-84702379D01*
X147138379Y-84702381D01*
X147006349Y-84757069D01*
X147006340Y-84757074D01*
X146887521Y-84836467D01*
X146887517Y-84836470D01*
X146786470Y-84937517D01*
X146786467Y-84937521D01*
X146707074Y-85056340D01*
X146707069Y-85056349D01*
X146652381Y-85188379D01*
X146652379Y-85188385D01*
X146624500Y-85328542D01*
X146624500Y-85328545D01*
X146624500Y-85771455D01*
X146624500Y-85771457D01*
X146624499Y-85771457D01*
X143443134Y-85771457D01*
X143441262Y-85184707D01*
X143460732Y-85117608D01*
X143513390Y-85071685D01*
X143582516Y-85061520D01*
X143646164Y-85090342D01*
X143652942Y-85096633D01*
X143667049Y-85110740D01*
X143667052Y-85110742D01*
X143787926Y-85191507D01*
X143922233Y-85247139D01*
X144064808Y-85275499D01*
X144064811Y-85275500D01*
X144064813Y-85275500D01*
X145235189Y-85275500D01*
X145235190Y-85275499D01*
X145377767Y-85247139D01*
X145499011Y-85196917D01*
X145512070Y-85191509D01*
X145512071Y-85191508D01*
X145512074Y-85191507D01*
X145632948Y-85110742D01*
X145735742Y-85007948D01*
X145816507Y-84887074D01*
X145872139Y-84752767D01*
X145900500Y-84610187D01*
X145900500Y-84464813D01*
X145900500Y-84464810D01*
X145900499Y-84464808D01*
X145872140Y-84322240D01*
X145872139Y-84322233D01*
X145816507Y-84187926D01*
X145735742Y-84067052D01*
X145735740Y-84067049D01*
X145632950Y-83964259D01*
X145529589Y-83895196D01*
X145512074Y-83883493D01*
X145377767Y-83827861D01*
X145377759Y-83827859D01*
X145235190Y-83799500D01*
X145235187Y-83799500D01*
X144064813Y-83799500D01*
X144064810Y-83799500D01*
X143922240Y-83827859D01*
X143922232Y-83827861D01*
X143787927Y-83883492D01*
X143667049Y-83964259D01*
X143648825Y-83982483D01*
X143587501Y-84015967D01*
X143517810Y-84010981D01*
X143461877Y-83969108D01*
X143437462Y-83903643D01*
X143437147Y-83895220D01*
X143431486Y-82120943D01*
X146649500Y-82120943D01*
X146649500Y-82279056D01*
X146690423Y-82431783D01*
X146690426Y-82431790D01*
X146769475Y-82568709D01*
X146769479Y-82568714D01*
X146769480Y-82568716D01*
X146881284Y-82680520D01*
X146881286Y-82680521D01*
X146881290Y-82680524D01*
X147018209Y-82759573D01*
X147018216Y-82759577D01*
X147170943Y-82800500D01*
X147170945Y-82800500D01*
X147329055Y-82800500D01*
X147329057Y-82800500D01*
X147481784Y-82759577D01*
X147618716Y-82680520D01*
X147687417Y-82611819D01*
X147748740Y-82578334D01*
X147775098Y-82575500D01*
X156009803Y-82575500D01*
X156076842Y-82595185D01*
X156097483Y-82611818D01*
X160986139Y-87500475D01*
X161071765Y-87549911D01*
X161167266Y-87575500D01*
X161167267Y-87575500D01*
X167824902Y-87575500D01*
X167891941Y-87595185D01*
X167912583Y-87611819D01*
X167981284Y-87680520D01*
X167981286Y-87680521D01*
X167981290Y-87680524D01*
X168069221Y-87731290D01*
X168118216Y-87759577D01*
X168270943Y-87800500D01*
X168270945Y-87800500D01*
X168429055Y-87800500D01*
X168429057Y-87800500D01*
X168581784Y-87759577D01*
X168718716Y-87680520D01*
X168830520Y-87568716D01*
X168909577Y-87431784D01*
X168950500Y-87279057D01*
X168950500Y-87120943D01*
X168909577Y-86968216D01*
X168862583Y-86886819D01*
X168830524Y-86831290D01*
X168830518Y-86831282D01*
X168718717Y-86719481D01*
X168718709Y-86719475D01*
X168581790Y-86640426D01*
X168581786Y-86640424D01*
X168581784Y-86640423D01*
X168429057Y-86599500D01*
X168270943Y-86599500D01*
X168118216Y-86640423D01*
X168118209Y-86640426D01*
X167981290Y-86719475D01*
X167981282Y-86719481D01*
X167912583Y-86788181D01*
X167851260Y-86821666D01*
X167824902Y-86824500D01*
X161423602Y-86824500D01*
X161356563Y-86804815D01*
X161335921Y-86788181D01*
X156461524Y-81913785D01*
X156447265Y-81899526D01*
X156447264Y-81899525D01*
X156361640Y-81850090D01*
X156313888Y-81837295D01*
X156301801Y-81834056D01*
X156301797Y-81834054D01*
X156266138Y-81824500D01*
X156266137Y-81824500D01*
X147775098Y-81824500D01*
X147708059Y-81804815D01*
X147687417Y-81788181D01*
X147618717Y-81719481D01*
X147618709Y-81719475D01*
X147481790Y-81640426D01*
X147481786Y-81640424D01*
X147481784Y-81640423D01*
X147329057Y-81599500D01*
X147170943Y-81599500D01*
X147018216Y-81640423D01*
X147018209Y-81640426D01*
X146881290Y-81719475D01*
X146881282Y-81719481D01*
X146769481Y-81831282D01*
X146769475Y-81831290D01*
X146690426Y-81968209D01*
X146690423Y-81968216D01*
X146649500Y-82120943D01*
X143431486Y-82120943D01*
X143410427Y-75520943D01*
X167999500Y-75520943D01*
X167999500Y-75679056D01*
X168040423Y-75831783D01*
X168040426Y-75831790D01*
X168119475Y-75968709D01*
X168119481Y-75968717D01*
X168188181Y-76037417D01*
X168221666Y-76098740D01*
X168224500Y-76125098D01*
X168224500Y-76249435D01*
X168250090Y-76344938D01*
X168250091Y-76344939D01*
X168250091Y-76344940D01*
X168299526Y-76430563D01*
X173113181Y-81244218D01*
X173146666Y-81305541D01*
X173149500Y-81331899D01*
X173149500Y-81429056D01*
X173190423Y-81581783D01*
X173190426Y-81581790D01*
X173269475Y-81718709D01*
X173269479Y-81718714D01*
X173269480Y-81718716D01*
X173381284Y-81830520D01*
X173381286Y-81830521D01*
X173381290Y-81830524D01*
X173500805Y-81899525D01*
X173518216Y-81909577D01*
X173670943Y-81950500D01*
X173670945Y-81950500D01*
X173829055Y-81950500D01*
X173829057Y-81950500D01*
X173981784Y-81909577D01*
X174118716Y-81830520D01*
X174230520Y-81718716D01*
X174309577Y-81581784D01*
X174350500Y-81429057D01*
X174350500Y-81270943D01*
X174309577Y-81118216D01*
X174309573Y-81118209D01*
X174230524Y-80981290D01*
X174230518Y-80981282D01*
X174118717Y-80869481D01*
X174118709Y-80869475D01*
X173981790Y-80790426D01*
X173981786Y-80790424D01*
X173981784Y-80790423D01*
X173829057Y-80749500D01*
X173829056Y-80749500D01*
X173731900Y-80749500D01*
X173664861Y-80729815D01*
X173644219Y-80713181D01*
X169077817Y-76146780D01*
X169044332Y-76085457D01*
X169049316Y-76015765D01*
X169077823Y-75971412D01*
X169080520Y-75968716D01*
X169080522Y-75968711D01*
X169080524Y-75968710D01*
X169120048Y-75900250D01*
X169159577Y-75831784D01*
X169200500Y-75679057D01*
X169200500Y-75520943D01*
X169159577Y-75368216D01*
X169132451Y-75321232D01*
X169080524Y-75231290D01*
X169080518Y-75231282D01*
X168968717Y-75119481D01*
X168968709Y-75119475D01*
X168831790Y-75040426D01*
X168831786Y-75040424D01*
X168831784Y-75040423D01*
X168679057Y-74999500D01*
X168520943Y-74999500D01*
X168368216Y-75040423D01*
X168368209Y-75040426D01*
X168231290Y-75119475D01*
X168231282Y-75119481D01*
X168119481Y-75231282D01*
X168119475Y-75231290D01*
X168040426Y-75368209D01*
X168040423Y-75368216D01*
X167999500Y-75520943D01*
X143410427Y-75520943D01*
X143406510Y-74293389D01*
X146099500Y-74293389D01*
X146099500Y-74466610D01*
X146120262Y-74597701D01*
X146126598Y-74637701D01*
X146180127Y-74802445D01*
X146258768Y-74956788D01*
X146360586Y-75096928D01*
X146483072Y-75219414D01*
X146623212Y-75321232D01*
X146777555Y-75399873D01*
X146942299Y-75453402D01*
X147113389Y-75480500D01*
X147113390Y-75480500D01*
X147286610Y-75480500D01*
X147286611Y-75480500D01*
X147457701Y-75453402D01*
X147622445Y-75399873D01*
X147776788Y-75321232D01*
X147916928Y-75219414D01*
X148039414Y-75096928D01*
X148141232Y-74956788D01*
X148219873Y-74802445D01*
X148273402Y-74637701D01*
X148300500Y-74466611D01*
X148300500Y-74293389D01*
X148294165Y-74253389D01*
X151199500Y-74253389D01*
X151199500Y-74426611D01*
X151226598Y-74597701D01*
X151280127Y-74762445D01*
X151358768Y-74916788D01*
X151460586Y-75056928D01*
X151583072Y-75179414D01*
X151723212Y-75281232D01*
X151877555Y-75359873D01*
X152042299Y-75413402D01*
X152213389Y-75440500D01*
X152213390Y-75440500D01*
X152386610Y-75440500D01*
X152386611Y-75440500D01*
X152557701Y-75413402D01*
X152722445Y-75359873D01*
X152876788Y-75281232D01*
X153016928Y-75179414D01*
X153139414Y-75056928D01*
X153241232Y-74916788D01*
X153319873Y-74762445D01*
X153373402Y-74597701D01*
X153400500Y-74426611D01*
X153400500Y-74253389D01*
X153373402Y-74082299D01*
X153319873Y-73917555D01*
X153241232Y-73763212D01*
X153139414Y-73623072D01*
X153016928Y-73500586D01*
X152876788Y-73398768D01*
X152722445Y-73320127D01*
X152557701Y-73266598D01*
X152557699Y-73266597D01*
X152557698Y-73266597D01*
X152426271Y-73245781D01*
X152386611Y-73239500D01*
X152213389Y-73239500D01*
X152173728Y-73245781D01*
X152042302Y-73266597D01*
X151877552Y-73320128D01*
X151723211Y-73398768D01*
X151668157Y-73438768D01*
X151583072Y-73500586D01*
X151583070Y-73500588D01*
X151583069Y-73500588D01*
X151460588Y-73623069D01*
X151460588Y-73623070D01*
X151460586Y-73623072D01*
X151431526Y-73663070D01*
X151358768Y-73763211D01*
X151280128Y-73917552D01*
X151226597Y-74082302D01*
X151220262Y-74122301D01*
X151199500Y-74253389D01*
X148294165Y-74253389D01*
X148273402Y-74122299D01*
X148219873Y-73957555D01*
X148141232Y-73803212D01*
X148039414Y-73663072D01*
X147916928Y-73540586D01*
X147776788Y-73438768D01*
X147622445Y-73360127D01*
X147457701Y-73306598D01*
X147457699Y-73306597D01*
X147457698Y-73306597D01*
X147326271Y-73285781D01*
X147286611Y-73279500D01*
X147113389Y-73279500D01*
X147073728Y-73285781D01*
X146942302Y-73306597D01*
X146777552Y-73360128D01*
X146623211Y-73438768D01*
X146543256Y-73496859D01*
X146483072Y-73540586D01*
X146483070Y-73540588D01*
X146483069Y-73540588D01*
X146360588Y-73663069D01*
X146360588Y-73663070D01*
X146360586Y-73663072D01*
X146316859Y-73723256D01*
X146258768Y-73803211D01*
X146180128Y-73957552D01*
X146126597Y-74122302D01*
X146099500Y-74293389D01*
X143406510Y-74293389D01*
X143387712Y-68402155D01*
X145850000Y-68402155D01*
X145850000Y-69050000D01*
X146766988Y-69050000D01*
X146734075Y-69107007D01*
X146700000Y-69234174D01*
X146700000Y-69365826D01*
X146734075Y-69492993D01*
X146766988Y-69550000D01*
X145850000Y-69550000D01*
X145850000Y-70197844D01*
X145856401Y-70257372D01*
X145856403Y-70257379D01*
X145906645Y-70392086D01*
X145906649Y-70392093D01*
X145992809Y-70507187D01*
X145992812Y-70507190D01*
X146107906Y-70593350D01*
X146107913Y-70593354D01*
X146242620Y-70643596D01*
X146242627Y-70643598D01*
X146302155Y-70649999D01*
X146302172Y-70650000D01*
X146594949Y-70650000D01*
X146661988Y-70669685D01*
X146707743Y-70722489D01*
X146717687Y-70791647D01*
X146688662Y-70855203D01*
X146651244Y-70884485D01*
X146623211Y-70898768D01*
X146543256Y-70956859D01*
X146483072Y-71000586D01*
X146483070Y-71000588D01*
X146483069Y-71000588D01*
X146360588Y-71123069D01*
X146360588Y-71123070D01*
X146360586Y-71123072D01*
X146316859Y-71183256D01*
X146258768Y-71263211D01*
X146180128Y-71417552D01*
X146126597Y-71582302D01*
X146099500Y-71753389D01*
X146099500Y-71926610D01*
X146120262Y-72057701D01*
X146126598Y-72097701D01*
X146180127Y-72262445D01*
X146258768Y-72416788D01*
X146360586Y-72556928D01*
X146483072Y-72679414D01*
X146623212Y-72781232D01*
X146777555Y-72859873D01*
X146942299Y-72913402D01*
X147113389Y-72940500D01*
X147113390Y-72940500D01*
X147286610Y-72940500D01*
X147286611Y-72940500D01*
X147457701Y-72913402D01*
X147622445Y-72859873D01*
X147776788Y-72781232D01*
X147916928Y-72679414D01*
X148039414Y-72556928D01*
X148141232Y-72416788D01*
X148219873Y-72262445D01*
X148273402Y-72097701D01*
X148300500Y-71926611D01*
X148300500Y-71753389D01*
X148273402Y-71582299D01*
X148219873Y-71417555D01*
X148141232Y-71263212D01*
X148039414Y-71123072D01*
X147916928Y-71000586D01*
X147776788Y-70898768D01*
X147748756Y-70884485D01*
X147697960Y-70836510D01*
X147681165Y-70768689D01*
X147703703Y-70702554D01*
X147758418Y-70659103D01*
X147805051Y-70650000D01*
X148097828Y-70650000D01*
X148097844Y-70649999D01*
X148157372Y-70643598D01*
X148157379Y-70643596D01*
X148292086Y-70593354D01*
X148292093Y-70593350D01*
X148407187Y-70507190D01*
X148407190Y-70507187D01*
X148493350Y-70392093D01*
X148493354Y-70392086D01*
X148543596Y-70257379D01*
X148543598Y-70257372D01*
X148549999Y-70197844D01*
X148550000Y-70197827D01*
X148550000Y-69550000D01*
X147633012Y-69550000D01*
X147665925Y-69492993D01*
X147700000Y-69365826D01*
X147700000Y-69234174D01*
X147665925Y-69107007D01*
X147633012Y-69050000D01*
X148550000Y-69050000D01*
X148550000Y-68402172D01*
X148549999Y-68402158D01*
X148546768Y-68372108D01*
X148546768Y-68372107D01*
X148545698Y-68362155D01*
X150950000Y-68362155D01*
X150950000Y-69010000D01*
X151866988Y-69010000D01*
X151834075Y-69067007D01*
X151800000Y-69194174D01*
X151800000Y-69325826D01*
X151834075Y-69452993D01*
X151866988Y-69510000D01*
X150950000Y-69510000D01*
X150950000Y-70157844D01*
X150956401Y-70217372D01*
X150956403Y-70217379D01*
X151006645Y-70352086D01*
X151006649Y-70352093D01*
X151092809Y-70467187D01*
X151092812Y-70467190D01*
X151207906Y-70553350D01*
X151207913Y-70553354D01*
X151342620Y-70603596D01*
X151342627Y-70603598D01*
X151402155Y-70609999D01*
X151402172Y-70610000D01*
X151694949Y-70610000D01*
X151761988Y-70629685D01*
X151807743Y-70682489D01*
X151817687Y-70751647D01*
X151788662Y-70815203D01*
X151751244Y-70844485D01*
X151723211Y-70858768D01*
X151668157Y-70898768D01*
X151583072Y-70960586D01*
X151583070Y-70960588D01*
X151583069Y-70960588D01*
X151460588Y-71083069D01*
X151460588Y-71083070D01*
X151460586Y-71083072D01*
X151431526Y-71123070D01*
X151358768Y-71223211D01*
X151280128Y-71377552D01*
X151226597Y-71542302D01*
X151220262Y-71582302D01*
X151199500Y-71713389D01*
X151199500Y-71886611D01*
X151226598Y-72057701D01*
X151280127Y-72222445D01*
X151358768Y-72376788D01*
X151460586Y-72516928D01*
X151583072Y-72639414D01*
X151723212Y-72741232D01*
X151877555Y-72819873D01*
X152042299Y-72873402D01*
X152213389Y-72900500D01*
X152213390Y-72900500D01*
X152386610Y-72900500D01*
X152386611Y-72900500D01*
X152557701Y-72873402D01*
X152722445Y-72819873D01*
X152876788Y-72741232D01*
X153016928Y-72639414D01*
X153139414Y-72516928D01*
X153241232Y-72376788D01*
X153319873Y-72222445D01*
X153373402Y-72057701D01*
X153400500Y-71886611D01*
X153400500Y-71713389D01*
X153373402Y-71542299D01*
X153319873Y-71377555D01*
X153261613Y-71263212D01*
X153247510Y-71235532D01*
X153247509Y-71235531D01*
X153241231Y-71223211D01*
X153213706Y-71185326D01*
X153213702Y-71185321D01*
X190699500Y-71185321D01*
X190699500Y-72934678D01*
X190714032Y-73007735D01*
X190714033Y-73007739D01*
X190714034Y-73007740D01*
X190769399Y-73090601D01*
X190852260Y-73145966D01*
X190852264Y-73145967D01*
X190925321Y-73160499D01*
X190925324Y-73160500D01*
X190925326Y-73160500D01*
X192674676Y-73160500D01*
X192674677Y-73160499D01*
X192747740Y-73145966D01*
X192830601Y-73090601D01*
X192885966Y-73007740D01*
X192900500Y-72934674D01*
X192900500Y-71185326D01*
X192900500Y-71185323D01*
X192900499Y-71185321D01*
X192885967Y-71112264D01*
X192885966Y-71112260D01*
X192830601Y-71029399D01*
X192747740Y-70974034D01*
X192747739Y-70974033D01*
X192747735Y-70974032D01*
X192674677Y-70959500D01*
X192674674Y-70959500D01*
X190925326Y-70959500D01*
X190925323Y-70959500D01*
X190852264Y-70974032D01*
X190852260Y-70974033D01*
X190769399Y-71029399D01*
X190714033Y-71112260D01*
X190714032Y-71112264D01*
X190699500Y-71185321D01*
X153213702Y-71185321D01*
X153139414Y-71083072D01*
X153016928Y-70960586D01*
X152876788Y-70858768D01*
X152848756Y-70844485D01*
X152797960Y-70796510D01*
X152781165Y-70728689D01*
X152803703Y-70662554D01*
X152858418Y-70619103D01*
X152905051Y-70610000D01*
X153197828Y-70610000D01*
X153197844Y-70609999D01*
X153257372Y-70603598D01*
X153257379Y-70603596D01*
X153392086Y-70553354D01*
X153392093Y-70553350D01*
X153507187Y-70467190D01*
X153507190Y-70467187D01*
X153593350Y-70352093D01*
X153593354Y-70352086D01*
X153643596Y-70217379D01*
X153643598Y-70217372D01*
X153649999Y-70157844D01*
X153650000Y-70157827D01*
X153650000Y-69510000D01*
X152733012Y-69510000D01*
X152765925Y-69452993D01*
X152771178Y-69433389D01*
X190699500Y-69433389D01*
X190699500Y-69606611D01*
X190726598Y-69777701D01*
X190780127Y-69942445D01*
X190858768Y-70096788D01*
X190960586Y-70236928D01*
X191083072Y-70359414D01*
X191223212Y-70461232D01*
X191377555Y-70539873D01*
X191542299Y-70593402D01*
X191713389Y-70620500D01*
X191713390Y-70620500D01*
X191886610Y-70620500D01*
X191886611Y-70620500D01*
X192057701Y-70593402D01*
X192222445Y-70539873D01*
X192376788Y-70461232D01*
X192516928Y-70359414D01*
X192639414Y-70236928D01*
X192741232Y-70096788D01*
X192819873Y-69942445D01*
X192873402Y-69777701D01*
X192900500Y-69606611D01*
X192900500Y-69433389D01*
X192873402Y-69262299D01*
X192819873Y-69097555D01*
X192741232Y-68943212D01*
X192639414Y-68803072D01*
X192516928Y-68680586D01*
X192376788Y-68578768D01*
X192222445Y-68500127D01*
X192057701Y-68446598D01*
X192057699Y-68446597D01*
X192057698Y-68446597D01*
X191926271Y-68425781D01*
X191886611Y-68419500D01*
X191713389Y-68419500D01*
X191673728Y-68425781D01*
X191542302Y-68446597D01*
X191377552Y-68500128D01*
X191223211Y-68578768D01*
X191143256Y-68636859D01*
X191083072Y-68680586D01*
X191083070Y-68680588D01*
X191083069Y-68680588D01*
X190960588Y-68803069D01*
X190960588Y-68803070D01*
X190960586Y-68803072D01*
X190938061Y-68834075D01*
X190858768Y-68943211D01*
X190780128Y-69097552D01*
X190726597Y-69262302D01*
X190716536Y-69325826D01*
X190699500Y-69433389D01*
X152771178Y-69433389D01*
X152800000Y-69325826D01*
X152800000Y-69194174D01*
X152765925Y-69067007D01*
X152733012Y-69010000D01*
X153650000Y-69010000D01*
X153650000Y-68362172D01*
X153649999Y-68362155D01*
X153643598Y-68302627D01*
X153643596Y-68302620D01*
X153593354Y-68167913D01*
X153593350Y-68167906D01*
X153507190Y-68052812D01*
X153507187Y-68052809D01*
X153392093Y-67966649D01*
X153392086Y-67966645D01*
X153257379Y-67916403D01*
X153257372Y-67916401D01*
X153197844Y-67910000D01*
X152550000Y-67910000D01*
X152550000Y-68826988D01*
X152492993Y-68794075D01*
X152365826Y-68760000D01*
X152234174Y-68760000D01*
X152107007Y-68794075D01*
X152050000Y-68826988D01*
X152050000Y-67910000D01*
X151402155Y-67910000D01*
X151342627Y-67916401D01*
X151342620Y-67916403D01*
X151207913Y-67966645D01*
X151207906Y-67966649D01*
X151092812Y-68052809D01*
X151092809Y-68052812D01*
X151006649Y-68167906D01*
X151006645Y-68167913D01*
X150956403Y-68302620D01*
X150956401Y-68302627D01*
X150950000Y-68362155D01*
X148545698Y-68362155D01*
X148543598Y-68342626D01*
X148543596Y-68342620D01*
X148493354Y-68207913D01*
X148493350Y-68207906D01*
X148407190Y-68092812D01*
X148407187Y-68092809D01*
X148292093Y-68006649D01*
X148292086Y-68006645D01*
X148157379Y-67956403D01*
X148157372Y-67956401D01*
X148097844Y-67950000D01*
X147450000Y-67950000D01*
X147450000Y-68866988D01*
X147392993Y-68834075D01*
X147265826Y-68800000D01*
X147134174Y-68800000D01*
X147007007Y-68834075D01*
X146950000Y-68866988D01*
X146950000Y-67950000D01*
X146302155Y-67950000D01*
X146242627Y-67956401D01*
X146242620Y-67956403D01*
X146107913Y-68006645D01*
X146107906Y-68006649D01*
X145992812Y-68092809D01*
X145992809Y-68092812D01*
X145906649Y-68207906D01*
X145906645Y-68207913D01*
X145856403Y-68342620D01*
X145856401Y-68342627D01*
X145850000Y-68402155D01*
X143387712Y-68402155D01*
X143382898Y-66893389D01*
X190699500Y-66893389D01*
X190699500Y-67066611D01*
X190726598Y-67237701D01*
X190780127Y-67402445D01*
X190858768Y-67556788D01*
X190960586Y-67696928D01*
X191083072Y-67819414D01*
X191223212Y-67921232D01*
X191377555Y-67999873D01*
X191542299Y-68053402D01*
X191713389Y-68080500D01*
X191713390Y-68080500D01*
X191886610Y-68080500D01*
X191886611Y-68080500D01*
X192057701Y-68053402D01*
X192222445Y-67999873D01*
X192376788Y-67921232D01*
X192516928Y-67819414D01*
X192639414Y-67696928D01*
X192741232Y-67556788D01*
X192819873Y-67402445D01*
X192873402Y-67237701D01*
X192900500Y-67066611D01*
X192900500Y-66893389D01*
X192873402Y-66722299D01*
X192819873Y-66557555D01*
X192741232Y-66403212D01*
X192639414Y-66263072D01*
X192516928Y-66140586D01*
X192376788Y-66038768D01*
X192222445Y-65960127D01*
X192057701Y-65906598D01*
X192057699Y-65906597D01*
X192057698Y-65906597D01*
X191926271Y-65885781D01*
X191886611Y-65879500D01*
X191713389Y-65879500D01*
X191673728Y-65885781D01*
X191542302Y-65906597D01*
X191377552Y-65960128D01*
X191223211Y-66038768D01*
X191143256Y-66096859D01*
X191083072Y-66140586D01*
X191083070Y-66140588D01*
X191083069Y-66140588D01*
X190960588Y-66263069D01*
X190960588Y-66263070D01*
X190960586Y-66263072D01*
X190916859Y-66323256D01*
X190858768Y-66403211D01*
X190780128Y-66557552D01*
X190726597Y-66722302D01*
X190700209Y-66888913D01*
X190699500Y-66893389D01*
X143382898Y-66893389D01*
X143374793Y-64353389D01*
X190699500Y-64353389D01*
X190699500Y-64526611D01*
X190726598Y-64697701D01*
X190780127Y-64862445D01*
X190858768Y-65016788D01*
X190960586Y-65156928D01*
X191083072Y-65279414D01*
X191223212Y-65381232D01*
X191377555Y-65459873D01*
X191542299Y-65513402D01*
X191713389Y-65540500D01*
X191713390Y-65540500D01*
X191886610Y-65540500D01*
X191886611Y-65540500D01*
X192057701Y-65513402D01*
X192222445Y-65459873D01*
X192376788Y-65381232D01*
X192516928Y-65279414D01*
X192639414Y-65156928D01*
X192741232Y-65016788D01*
X192819873Y-64862445D01*
X192873402Y-64697701D01*
X192900500Y-64526611D01*
X192900500Y-64353389D01*
X192873402Y-64182299D01*
X192819873Y-64017555D01*
X192741232Y-63863212D01*
X192639414Y-63723072D01*
X192516928Y-63600586D01*
X192376788Y-63498768D01*
X192222445Y-63420127D01*
X192057701Y-63366598D01*
X192057699Y-63366597D01*
X192057698Y-63366597D01*
X191926271Y-63345781D01*
X191886611Y-63339500D01*
X191713389Y-63339500D01*
X191673728Y-63345781D01*
X191542302Y-63366597D01*
X191377552Y-63420128D01*
X191223211Y-63498768D01*
X191143256Y-63556859D01*
X191083072Y-63600586D01*
X191083070Y-63600588D01*
X191083069Y-63600588D01*
X190960588Y-63723069D01*
X190960588Y-63723070D01*
X190960586Y-63723072D01*
X190916859Y-63783256D01*
X190858768Y-63863211D01*
X190780128Y-64017552D01*
X190726597Y-64182302D01*
X190700209Y-64348913D01*
X190699500Y-64353389D01*
X143374793Y-64353389D01*
X143357595Y-58963389D01*
X179689500Y-58963389D01*
X179689500Y-59136611D01*
X179716598Y-59307701D01*
X179770127Y-59472445D01*
X179848768Y-59626788D01*
X179950586Y-59766928D01*
X180073072Y-59889414D01*
X180213212Y-59991232D01*
X180367555Y-60069873D01*
X180532299Y-60123402D01*
X180703389Y-60150500D01*
X180703390Y-60150500D01*
X180876610Y-60150500D01*
X180876611Y-60150500D01*
X181047701Y-60123402D01*
X181212445Y-60069873D01*
X181366788Y-59991232D01*
X181506928Y-59889414D01*
X181629414Y-59766928D01*
X181731232Y-59626788D01*
X181809873Y-59472445D01*
X181863402Y-59307701D01*
X181890500Y-59136611D01*
X181890500Y-58963389D01*
X182229500Y-58963389D01*
X182229500Y-59136611D01*
X182256598Y-59307701D01*
X182310127Y-59472445D01*
X182388768Y-59626788D01*
X182490586Y-59766928D01*
X182613072Y-59889414D01*
X182753212Y-59991232D01*
X182907555Y-60069873D01*
X183072299Y-60123402D01*
X183243389Y-60150500D01*
X183243390Y-60150500D01*
X183416610Y-60150500D01*
X183416611Y-60150500D01*
X183587701Y-60123402D01*
X183752445Y-60069873D01*
X183906788Y-59991232D01*
X184046928Y-59889414D01*
X184169414Y-59766928D01*
X184271232Y-59626788D01*
X184349873Y-59472445D01*
X184403402Y-59307701D01*
X184430500Y-59136611D01*
X184430500Y-58963389D01*
X184769500Y-58963389D01*
X184769500Y-59136611D01*
X184796598Y-59307701D01*
X184850127Y-59472445D01*
X184928768Y-59626788D01*
X185030586Y-59766928D01*
X185153072Y-59889414D01*
X185293212Y-59991232D01*
X185447555Y-60069873D01*
X185612299Y-60123402D01*
X185783389Y-60150500D01*
X185783390Y-60150500D01*
X185956610Y-60150500D01*
X185956611Y-60150500D01*
X186127701Y-60123402D01*
X186292445Y-60069873D01*
X186446788Y-59991232D01*
X186586928Y-59889414D01*
X186709414Y-59766928D01*
X186811232Y-59626788D01*
X186889873Y-59472445D01*
X186943402Y-59307701D01*
X186970500Y-59136611D01*
X186970500Y-58963389D01*
X186943402Y-58792299D01*
X186889873Y-58627555D01*
X186811232Y-58473212D01*
X186709414Y-58333072D01*
X186586928Y-58210586D01*
X186538390Y-58175321D01*
X187309500Y-58175321D01*
X187309500Y-59924678D01*
X187324032Y-59997735D01*
X187324033Y-59997739D01*
X187324034Y-59997740D01*
X187379399Y-60080601D01*
X187462260Y-60135966D01*
X187462264Y-60135967D01*
X187535321Y-60150499D01*
X187535324Y-60150500D01*
X187535326Y-60150500D01*
X189284676Y-60150500D01*
X189284677Y-60150499D01*
X189357740Y-60135966D01*
X189440601Y-60080601D01*
X189495966Y-59997740D01*
X189510500Y-59924674D01*
X189510500Y-58175326D01*
X189510500Y-58175323D01*
X189510499Y-58175321D01*
X189495967Y-58102264D01*
X189495966Y-58102260D01*
X189440601Y-58019399D01*
X189357740Y-57964034D01*
X189357739Y-57964033D01*
X189357735Y-57964032D01*
X189284677Y-57949500D01*
X189284674Y-57949500D01*
X187535326Y-57949500D01*
X187535323Y-57949500D01*
X187462264Y-57964032D01*
X187462260Y-57964033D01*
X187379399Y-58019399D01*
X187324033Y-58102260D01*
X187324032Y-58102264D01*
X187309500Y-58175321D01*
X186538390Y-58175321D01*
X186446788Y-58108768D01*
X186292445Y-58030127D01*
X186127701Y-57976598D01*
X186127699Y-57976597D01*
X186127698Y-57976597D01*
X185996271Y-57955781D01*
X185956611Y-57949500D01*
X185783389Y-57949500D01*
X185743728Y-57955781D01*
X185612302Y-57976597D01*
X185447552Y-58030128D01*
X185293211Y-58108768D01*
X185213256Y-58166859D01*
X185153072Y-58210586D01*
X185153070Y-58210588D01*
X185153069Y-58210588D01*
X185030588Y-58333069D01*
X185030588Y-58333070D01*
X185030586Y-58333072D01*
X184986859Y-58393256D01*
X184928768Y-58473211D01*
X184850128Y-58627552D01*
X184796597Y-58792302D01*
X184770209Y-58958913D01*
X184769500Y-58963389D01*
X184430500Y-58963389D01*
X184403402Y-58792299D01*
X184349873Y-58627555D01*
X184271232Y-58473212D01*
X184169414Y-58333072D01*
X184046928Y-58210586D01*
X183906788Y-58108768D01*
X183752445Y-58030127D01*
X183587701Y-57976598D01*
X183587699Y-57976597D01*
X183587698Y-57976597D01*
X183456271Y-57955781D01*
X183416611Y-57949500D01*
X183243389Y-57949500D01*
X183203728Y-57955781D01*
X183072302Y-57976597D01*
X182907552Y-58030128D01*
X182753211Y-58108768D01*
X182673256Y-58166859D01*
X182613072Y-58210586D01*
X182613070Y-58210588D01*
X182613069Y-58210588D01*
X182490588Y-58333069D01*
X182490588Y-58333070D01*
X182490586Y-58333072D01*
X182446859Y-58393256D01*
X182388768Y-58473211D01*
X182310128Y-58627552D01*
X182256597Y-58792302D01*
X182230209Y-58958913D01*
X182229500Y-58963389D01*
X181890500Y-58963389D01*
X181863402Y-58792299D01*
X181809873Y-58627555D01*
X181731232Y-58473212D01*
X181629414Y-58333072D01*
X181506928Y-58210586D01*
X181366788Y-58108768D01*
X181212445Y-58030127D01*
X181047701Y-57976598D01*
X181047699Y-57976597D01*
X181047698Y-57976597D01*
X180916271Y-57955781D01*
X180876611Y-57949500D01*
X180703389Y-57949500D01*
X180663728Y-57955781D01*
X180532302Y-57976597D01*
X180367552Y-58030128D01*
X180213211Y-58108768D01*
X180133256Y-58166859D01*
X180073072Y-58210586D01*
X180073070Y-58210588D01*
X180073069Y-58210588D01*
X179950588Y-58333069D01*
X179950588Y-58333070D01*
X179950586Y-58333072D01*
X179906859Y-58393256D01*
X179848768Y-58473211D01*
X179770128Y-58627552D01*
X179716597Y-58792302D01*
X179690209Y-58958913D01*
X179689500Y-58963389D01*
X143357595Y-58963389D01*
X143328766Y-49928389D01*
X145349500Y-49928389D01*
X145349500Y-50101610D01*
X145376087Y-50269480D01*
X145376598Y-50272701D01*
X145430127Y-50437445D01*
X145508768Y-50591788D01*
X145610586Y-50731928D01*
X145733072Y-50854414D01*
X145873212Y-50956232D01*
X146027555Y-51034873D01*
X146192299Y-51088402D01*
X146363389Y-51115500D01*
X146363390Y-51115500D01*
X146536610Y-51115500D01*
X146536611Y-51115500D01*
X146707701Y-51088402D01*
X146872445Y-51034873D01*
X147026788Y-50956232D01*
X147166928Y-50854414D01*
X147289414Y-50731928D01*
X147333722Y-50670943D01*
X172199500Y-50670943D01*
X172199500Y-50829057D01*
X172233577Y-50956232D01*
X172240423Y-50981783D01*
X172240426Y-50981790D01*
X172319475Y-51118709D01*
X172319479Y-51118714D01*
X172319480Y-51118716D01*
X172431284Y-51230520D01*
X172431286Y-51230521D01*
X172431290Y-51230524D01*
X172568209Y-51309573D01*
X172568216Y-51309577D01*
X172720943Y-51350500D01*
X172720945Y-51350500D01*
X172879055Y-51350500D01*
X172879057Y-51350500D01*
X173031784Y-51309577D01*
X173168716Y-51230520D01*
X173280520Y-51118716D01*
X173359577Y-50981784D01*
X173400500Y-50829057D01*
X173400500Y-50731899D01*
X173420185Y-50664860D01*
X173436819Y-50644218D01*
X174697284Y-49383753D01*
X191000000Y-49383753D01*
X191000000Y-49596246D01*
X191033242Y-49806127D01*
X191033242Y-49806130D01*
X191098904Y-50008217D01*
X191195375Y-50197550D01*
X191234728Y-50251716D01*
X191867036Y-49619407D01*
X191884075Y-49682993D01*
X191949901Y-49797007D01*
X192042993Y-49890099D01*
X192157007Y-49955925D01*
X192220590Y-49972962D01*
X191588282Y-50605269D01*
X191588282Y-50605270D01*
X191642450Y-50644624D01*
X191741345Y-50695015D01*
X191792141Y-50742990D01*
X191808936Y-50810811D01*
X191786398Y-50876946D01*
X191731683Y-50920397D01*
X191685050Y-50929500D01*
X191475323Y-50929500D01*
X191402264Y-50944032D01*
X191402260Y-50944033D01*
X191319399Y-50999399D01*
X191264033Y-51082260D01*
X191264032Y-51082264D01*
X191249500Y-51155321D01*
X191249500Y-52904678D01*
X191264032Y-52977735D01*
X191264033Y-52977739D01*
X191264034Y-52977740D01*
X191319399Y-53060601D01*
X191402260Y-53115966D01*
X191402264Y-53115967D01*
X191475321Y-53130499D01*
X191475324Y-53130500D01*
X191475326Y-53130500D01*
X193224676Y-53130500D01*
X193224677Y-53130499D01*
X193297740Y-53115966D01*
X193380601Y-53060601D01*
X193435966Y-52977740D01*
X193450500Y-52904674D01*
X193450500Y-51155326D01*
X193450500Y-51155323D01*
X193450499Y-51155321D01*
X193435967Y-51082264D01*
X193435966Y-51082260D01*
X193380601Y-50999399D01*
X193315996Y-50956232D01*
X193297739Y-50944033D01*
X193297735Y-50944032D01*
X193224677Y-50929500D01*
X193224674Y-50929500D01*
X193014950Y-50929500D01*
X192947911Y-50909815D01*
X192902156Y-50857011D01*
X192892212Y-50787853D01*
X192921237Y-50724297D01*
X192958655Y-50695015D01*
X193057554Y-50644622D01*
X193111716Y-50605270D01*
X193111717Y-50605270D01*
X192479408Y-49972962D01*
X192542993Y-49955925D01*
X192657007Y-49890099D01*
X192750099Y-49797007D01*
X192815925Y-49682993D01*
X192832962Y-49619408D01*
X193465270Y-50251717D01*
X193465270Y-50251716D01*
X193504622Y-50197554D01*
X193601095Y-50008217D01*
X193666757Y-49806130D01*
X193666757Y-49806127D01*
X193700000Y-49596246D01*
X193700000Y-49383753D01*
X193666757Y-49173872D01*
X193666757Y-49173869D01*
X193601095Y-48971782D01*
X193504624Y-48782449D01*
X193465270Y-48728282D01*
X193465269Y-48728282D01*
X192832962Y-49360590D01*
X192815925Y-49297007D01*
X192750099Y-49182993D01*
X192657007Y-49089901D01*
X192542993Y-49024075D01*
X192479409Y-49007037D01*
X193111716Y-48374728D01*
X193057550Y-48335375D01*
X192868217Y-48238904D01*
X192769287Y-48206760D01*
X192711611Y-48167323D01*
X192684413Y-48102964D01*
X192696328Y-48034118D01*
X192743572Y-47982642D01*
X192769290Y-47970897D01*
X192772445Y-47969873D01*
X192926788Y-47891232D01*
X193066928Y-47789414D01*
X193189414Y-47666928D01*
X193291232Y-47526788D01*
X193369873Y-47372445D01*
X193423402Y-47207701D01*
X193450500Y-47036611D01*
X193450500Y-46863389D01*
X193423402Y-46692299D01*
X193369873Y-46527555D01*
X193291232Y-46373212D01*
X193189414Y-46233072D01*
X193066928Y-46110586D01*
X192926788Y-46008768D01*
X192772445Y-45930127D01*
X192607701Y-45876598D01*
X192607699Y-45876597D01*
X192607698Y-45876597D01*
X192476271Y-45855781D01*
X192436611Y-45849500D01*
X192263389Y-45849500D01*
X192223728Y-45855781D01*
X192092302Y-45876597D01*
X191927552Y-45930128D01*
X191773211Y-46008768D01*
X191693256Y-46066859D01*
X191633072Y-46110586D01*
X191633070Y-46110588D01*
X191633069Y-46110588D01*
X191510588Y-46233069D01*
X191510588Y-46233070D01*
X191510586Y-46233072D01*
X191477177Y-46279055D01*
X191408768Y-46373211D01*
X191330128Y-46527552D01*
X191276597Y-46692302D01*
X191249500Y-46863389D01*
X191249500Y-47036611D01*
X191276598Y-47207701D01*
X191330127Y-47372445D01*
X191408768Y-47526788D01*
X191510586Y-47666928D01*
X191633072Y-47789414D01*
X191773212Y-47891232D01*
X191927555Y-47969873D01*
X191930708Y-47970897D01*
X191931752Y-47971611D01*
X191932048Y-47971734D01*
X191932022Y-47971795D01*
X191988383Y-48010330D01*
X192015585Y-48074688D01*
X192003674Y-48143535D01*
X191956433Y-48195013D01*
X191930712Y-48206760D01*
X191831783Y-48238904D01*
X191642439Y-48335380D01*
X191588282Y-48374727D01*
X191588282Y-48374728D01*
X192220591Y-49007037D01*
X192157007Y-49024075D01*
X192042993Y-49089901D01*
X191949901Y-49182993D01*
X191884075Y-49297007D01*
X191867037Y-49360591D01*
X191234728Y-48728282D01*
X191234727Y-48728282D01*
X191195380Y-48782439D01*
X191098904Y-48971782D01*
X191033242Y-49173869D01*
X191033242Y-49173872D01*
X191000000Y-49383753D01*
X174697284Y-49383753D01*
X174789837Y-49291200D01*
X175298598Y-48782439D01*
X175850474Y-48230563D01*
X175850475Y-48230562D01*
X175899910Y-48144938D01*
X175925500Y-48049435D01*
X175925500Y-44323389D01*
X191249500Y-44323389D01*
X191249500Y-44496611D01*
X191276598Y-44667701D01*
X191330127Y-44832445D01*
X191408768Y-44986788D01*
X191510586Y-45126928D01*
X191633072Y-45249414D01*
X191773212Y-45351232D01*
X191927555Y-45429873D01*
X192092299Y-45483402D01*
X192263389Y-45510500D01*
X192263390Y-45510500D01*
X192436610Y-45510500D01*
X192436611Y-45510500D01*
X192607701Y-45483402D01*
X192772445Y-45429873D01*
X192926788Y-45351232D01*
X193066928Y-45249414D01*
X193189414Y-45126928D01*
X193291232Y-44986788D01*
X193369873Y-44832445D01*
X193423402Y-44667701D01*
X193450500Y-44496611D01*
X193450500Y-44323389D01*
X193423402Y-44152299D01*
X193369873Y-43987555D01*
X193291232Y-43833212D01*
X193189414Y-43693072D01*
X193066928Y-43570586D01*
X192926788Y-43468768D01*
X192772445Y-43390127D01*
X192607701Y-43336598D01*
X192607699Y-43336597D01*
X192607698Y-43336597D01*
X192476271Y-43315781D01*
X192436611Y-43309500D01*
X192263389Y-43309500D01*
X192223728Y-43315781D01*
X192092302Y-43336597D01*
X191927552Y-43390128D01*
X191773211Y-43468768D01*
X191693256Y-43526859D01*
X191633072Y-43570586D01*
X191633070Y-43570588D01*
X191633069Y-43570588D01*
X191510588Y-43693069D01*
X191510588Y-43693070D01*
X191510586Y-43693072D01*
X191466859Y-43753256D01*
X191408768Y-43833211D01*
X191330128Y-43987552D01*
X191276597Y-44152302D01*
X191249500Y-44323389D01*
X175925500Y-44323389D01*
X175925500Y-41783389D01*
X191249500Y-41783389D01*
X191249500Y-41956611D01*
X191276598Y-42127701D01*
X191330127Y-42292445D01*
X191408768Y-42446788D01*
X191510586Y-42586928D01*
X191633072Y-42709414D01*
X191773212Y-42811232D01*
X191927555Y-42889873D01*
X192092299Y-42943402D01*
X192263389Y-42970500D01*
X192263390Y-42970500D01*
X192436610Y-42970500D01*
X192436611Y-42970500D01*
X192607701Y-42943402D01*
X192772445Y-42889873D01*
X192926788Y-42811232D01*
X193066928Y-42709414D01*
X193189414Y-42586928D01*
X193291232Y-42446788D01*
X193369873Y-42292445D01*
X193423402Y-42127701D01*
X193450500Y-41956611D01*
X193450500Y-41783389D01*
X193423402Y-41612299D01*
X193369873Y-41447555D01*
X193291232Y-41293212D01*
X193189414Y-41153072D01*
X193066928Y-41030586D01*
X192926788Y-40928768D01*
X192772445Y-40850127D01*
X192607701Y-40796598D01*
X192607699Y-40796597D01*
X192607698Y-40796597D01*
X192476271Y-40775781D01*
X192436611Y-40769500D01*
X192263389Y-40769500D01*
X192223728Y-40775781D01*
X192092302Y-40796597D01*
X191927552Y-40850128D01*
X191773211Y-40928768D01*
X191693256Y-40986859D01*
X191633072Y-41030586D01*
X191633070Y-41030588D01*
X191633069Y-41030588D01*
X191510588Y-41153069D01*
X191510588Y-41153070D01*
X191510586Y-41153072D01*
X191469533Y-41209576D01*
X191408768Y-41293211D01*
X191330128Y-41447552D01*
X191276597Y-41612302D01*
X191249500Y-41783389D01*
X175925500Y-41783389D01*
X175925500Y-41532565D01*
X175925500Y-40010636D01*
X175942113Y-39948636D01*
X175947099Y-39940000D01*
X176009577Y-39831784D01*
X176050500Y-39679057D01*
X176050500Y-39520943D01*
X176009577Y-39368216D01*
X175968778Y-39297550D01*
X175937509Y-39243389D01*
X191249500Y-39243389D01*
X191249500Y-39416610D01*
X191266024Y-39520943D01*
X191276598Y-39587701D01*
X191330127Y-39752445D01*
X191408768Y-39906788D01*
X191510586Y-40046928D01*
X191633072Y-40169414D01*
X191773212Y-40271232D01*
X191927555Y-40349873D01*
X192092299Y-40403402D01*
X192263389Y-40430500D01*
X192263390Y-40430500D01*
X192436610Y-40430500D01*
X192436611Y-40430500D01*
X192607701Y-40403402D01*
X192772445Y-40349873D01*
X192926788Y-40271232D01*
X193066928Y-40169414D01*
X193189414Y-40046928D01*
X193291232Y-39906788D01*
X193369873Y-39752445D01*
X193423402Y-39587701D01*
X193450500Y-39416611D01*
X193450500Y-39243389D01*
X193423402Y-39072299D01*
X193369873Y-38907555D01*
X193291232Y-38753212D01*
X193189414Y-38613072D01*
X193066928Y-38490586D01*
X192926788Y-38388768D01*
X192772445Y-38310127D01*
X192607701Y-38256598D01*
X192607699Y-38256597D01*
X192607698Y-38256597D01*
X192476271Y-38235781D01*
X192436611Y-38229500D01*
X192263389Y-38229500D01*
X192223728Y-38235781D01*
X192092302Y-38256597D01*
X191927552Y-38310128D01*
X191773211Y-38388768D01*
X191693256Y-38446859D01*
X191633072Y-38490586D01*
X191633070Y-38490588D01*
X191633069Y-38490588D01*
X191510588Y-38613069D01*
X191510588Y-38613070D01*
X191510586Y-38613072D01*
X191479523Y-38655826D01*
X191408768Y-38753211D01*
X191330128Y-38907552D01*
X191276597Y-39072302D01*
X191249500Y-39243389D01*
X175937509Y-39243389D01*
X175930522Y-39231287D01*
X175930518Y-39231282D01*
X175818717Y-39119481D01*
X175818709Y-39119475D01*
X175681790Y-39040426D01*
X175681786Y-39040424D01*
X175681784Y-39040423D01*
X175529057Y-38999500D01*
X175370943Y-38999500D01*
X175218216Y-39040423D01*
X175218209Y-39040426D01*
X175081290Y-39119475D01*
X175081282Y-39119481D01*
X174969481Y-39231282D01*
X174969475Y-39231290D01*
X174890426Y-39368209D01*
X174890423Y-39368216D01*
X174849500Y-39520943D01*
X174849500Y-39679057D01*
X174856524Y-39705269D01*
X174890423Y-39831783D01*
X174890426Y-39831790D01*
X174969475Y-39968709D01*
X174969479Y-39968714D01*
X174969480Y-39968716D01*
X175081284Y-40080520D01*
X175081285Y-40080521D01*
X175081287Y-40080522D01*
X175112498Y-40098541D01*
X175160715Y-40149107D01*
X175174500Y-40205929D01*
X175174500Y-47793101D01*
X175154815Y-47860140D01*
X175138181Y-47880782D01*
X172905782Y-50113181D01*
X172844459Y-50146666D01*
X172818101Y-50149500D01*
X172720943Y-50149500D01*
X172568216Y-50190423D01*
X172568209Y-50190426D01*
X172431290Y-50269475D01*
X172431282Y-50269481D01*
X172319481Y-50381282D01*
X172319475Y-50381290D01*
X172240426Y-50518209D01*
X172240423Y-50518216D01*
X172199500Y-50670943D01*
X147333722Y-50670943D01*
X147391232Y-50591788D01*
X147469873Y-50437445D01*
X147523402Y-50272701D01*
X147550500Y-50101611D01*
X147550500Y-49928389D01*
X147523402Y-49757299D01*
X147469873Y-49592555D01*
X147391232Y-49438212D01*
X147289414Y-49298072D01*
X147166928Y-49175586D01*
X147026788Y-49073768D01*
X146872445Y-48995127D01*
X146707701Y-48941598D01*
X146707699Y-48941597D01*
X146707698Y-48941597D01*
X146576271Y-48920781D01*
X146536611Y-48914500D01*
X146363389Y-48914500D01*
X146323728Y-48920781D01*
X146192302Y-48941597D01*
X146027552Y-48995128D01*
X145873211Y-49073768D01*
X145793256Y-49131859D01*
X145733072Y-49175586D01*
X145733070Y-49175588D01*
X145733069Y-49175588D01*
X145610588Y-49298069D01*
X145610588Y-49298070D01*
X145610586Y-49298072D01*
X145566859Y-49358256D01*
X145508768Y-49438211D01*
X145430128Y-49592552D01*
X145376597Y-49757302D01*
X145349500Y-49928389D01*
X143328766Y-49928389D01*
X143318147Y-46600321D01*
X145349500Y-46600321D01*
X145349500Y-48349678D01*
X145364032Y-48422735D01*
X145364033Y-48422739D01*
X145364034Y-48422740D01*
X145419399Y-48505601D01*
X145502260Y-48560966D01*
X145502264Y-48560967D01*
X145575321Y-48575499D01*
X145575324Y-48575500D01*
X145575326Y-48575500D01*
X147324676Y-48575500D01*
X147324677Y-48575499D01*
X147397740Y-48560966D01*
X147480601Y-48505601D01*
X147535966Y-48422740D01*
X147550500Y-48349674D01*
X147550500Y-46600326D01*
X147550500Y-46600323D01*
X147550499Y-46600321D01*
X147535967Y-46527264D01*
X147535966Y-46527260D01*
X147480601Y-46444399D01*
X147397740Y-46389034D01*
X147397739Y-46389033D01*
X147397735Y-46389032D01*
X147324677Y-46374500D01*
X147324674Y-46374500D01*
X145575326Y-46374500D01*
X145575323Y-46374500D01*
X145502264Y-46389032D01*
X145502260Y-46389033D01*
X145419399Y-46444399D01*
X145364033Y-46527260D01*
X145364032Y-46527264D01*
X145349500Y-46600321D01*
X143318147Y-46600321D01*
X143306726Y-43020943D01*
X157049500Y-43020943D01*
X157049500Y-43179056D01*
X157090423Y-43331783D01*
X157090426Y-43331790D01*
X157169475Y-43468709D01*
X157169479Y-43468714D01*
X157169480Y-43468716D01*
X157281284Y-43580520D01*
X157281286Y-43580521D01*
X157281290Y-43580524D01*
X157418209Y-43659573D01*
X157418216Y-43659577D01*
X157570943Y-43700500D01*
X157570945Y-43700500D01*
X157729055Y-43700500D01*
X157729057Y-43700500D01*
X157881784Y-43659577D01*
X158018716Y-43580520D01*
X158087417Y-43511819D01*
X158114344Y-43497115D01*
X158140163Y-43480523D01*
X158146363Y-43479631D01*
X158148740Y-43478334D01*
X158175098Y-43475500D01*
X158343101Y-43475500D01*
X158410140Y-43495185D01*
X158430782Y-43511819D01*
X161013181Y-46094218D01*
X161046666Y-46155541D01*
X161049500Y-46181899D01*
X161049500Y-46279057D01*
X161074729Y-46373211D01*
X161090423Y-46431783D01*
X161090426Y-46431790D01*
X161169475Y-46568709D01*
X161169479Y-46568714D01*
X161169480Y-46568716D01*
X161281284Y-46680520D01*
X161281286Y-46680521D01*
X161281290Y-46680524D01*
X161418209Y-46759573D01*
X161418216Y-46759577D01*
X161570943Y-46800500D01*
X161570945Y-46800500D01*
X161729055Y-46800500D01*
X161729057Y-46800500D01*
X161881784Y-46759577D01*
X162018716Y-46680520D01*
X162130520Y-46568716D01*
X162209577Y-46431784D01*
X162250500Y-46279057D01*
X162250500Y-46120943D01*
X162209577Y-45968216D01*
X162156682Y-45876598D01*
X162130524Y-45831290D01*
X162130518Y-45831282D01*
X162018717Y-45719481D01*
X162018709Y-45719475D01*
X161881790Y-45640426D01*
X161881786Y-45640424D01*
X161881784Y-45640423D01*
X161729057Y-45599500D01*
X161729056Y-45599500D01*
X161631899Y-45599500D01*
X161564860Y-45579815D01*
X161544218Y-45563181D01*
X158780563Y-42799526D01*
X158780562Y-42799525D01*
X158694938Y-42750090D01*
X158647186Y-42737295D01*
X158647184Y-42737294D01*
X158647182Y-42737293D01*
X158599436Y-42724500D01*
X158599435Y-42724500D01*
X158175098Y-42724500D01*
X158108059Y-42704815D01*
X158087417Y-42688181D01*
X158018717Y-42619481D01*
X158018709Y-42619475D01*
X157881790Y-42540426D01*
X157881786Y-42540424D01*
X157881784Y-42540423D01*
X157729057Y-42499500D01*
X157570943Y-42499500D01*
X157418216Y-42540423D01*
X157418209Y-42540426D01*
X157281290Y-42619475D01*
X157281282Y-42619481D01*
X157169481Y-42731282D01*
X157169475Y-42731290D01*
X157090426Y-42868209D01*
X157090423Y-42868216D01*
X157049500Y-43020943D01*
X143306726Y-43020943D01*
X143298909Y-40570943D01*
X161099500Y-40570943D01*
X161099500Y-40729057D01*
X161117598Y-40796597D01*
X161140423Y-40881783D01*
X161140426Y-40881790D01*
X161219475Y-41018709D01*
X161219479Y-41018714D01*
X161219480Y-41018716D01*
X161331284Y-41130520D01*
X161331286Y-41130521D01*
X161331290Y-41130524D01*
X161468209Y-41209573D01*
X161468216Y-41209577D01*
X161620943Y-41250500D01*
X161620945Y-41250500D01*
X161779055Y-41250500D01*
X161779057Y-41250500D01*
X161931784Y-41209577D01*
X162068716Y-41130520D01*
X162137417Y-41061819D01*
X162198740Y-41028334D01*
X162225098Y-41025500D01*
X165249435Y-41025500D01*
X165249436Y-41025500D01*
X165297186Y-41012705D01*
X165344938Y-40999910D01*
X165430562Y-40950475D01*
X165500475Y-40880562D01*
X169200474Y-37180563D01*
X169202651Y-37176793D01*
X169249910Y-37094938D01*
X169251079Y-37090574D01*
X169262986Y-37046142D01*
X169269242Y-37022789D01*
X169275500Y-36999436D01*
X169275500Y-36900564D01*
X169275500Y-36124098D01*
X169295185Y-36057059D01*
X169347989Y-36011304D01*
X169417147Y-36001360D01*
X169480703Y-36030385D01*
X169487181Y-36036417D01*
X169581284Y-36130520D01*
X169581286Y-36130521D01*
X169581290Y-36130524D01*
X169718209Y-36209573D01*
X169718216Y-36209577D01*
X169870943Y-36250500D01*
X169870945Y-36250500D01*
X170029055Y-36250500D01*
X170029057Y-36250500D01*
X170181784Y-36209577D01*
X170318716Y-36130520D01*
X170412417Y-36036819D01*
X170473740Y-36003334D01*
X170500098Y-36000500D01*
X172150069Y-36000500D01*
X172217108Y-36020185D01*
X172225557Y-36026125D01*
X172231281Y-36030517D01*
X172231284Y-36030520D01*
X172231287Y-36030521D01*
X172231290Y-36030524D01*
X172368209Y-36109573D01*
X172368216Y-36109577D01*
X172520943Y-36150500D01*
X172520945Y-36150500D01*
X172679055Y-36150500D01*
X172679057Y-36150500D01*
X172831784Y-36109577D01*
X172968716Y-36030520D01*
X173080520Y-35918716D01*
X173137622Y-35819810D01*
X173188187Y-35771597D01*
X173256794Y-35758373D01*
X173321659Y-35784341D01*
X173362188Y-35841254D01*
X173365513Y-35911045D01*
X173364783Y-35913904D01*
X173349500Y-35970941D01*
X173349500Y-35970943D01*
X173349500Y-36129057D01*
X173382041Y-36250500D01*
X173390423Y-36281783D01*
X173390426Y-36281790D01*
X173469475Y-36418709D01*
X173469479Y-36418714D01*
X173469480Y-36418716D01*
X173581284Y-36530520D01*
X173581286Y-36530521D01*
X173581290Y-36530524D01*
X173718209Y-36609573D01*
X173718216Y-36609577D01*
X173870943Y-36650500D01*
X173870945Y-36650500D01*
X174029055Y-36650500D01*
X174029057Y-36650500D01*
X174181784Y-36609577D01*
X174318716Y-36530520D01*
X174430520Y-36418716D01*
X174509577Y-36281784D01*
X174550500Y-36129057D01*
X174550500Y-35970943D01*
X174509577Y-35818216D01*
X174509573Y-35818209D01*
X174430524Y-35681290D01*
X174430518Y-35681282D01*
X174318717Y-35569481D01*
X174318712Y-35569477D01*
X174206143Y-35504486D01*
X174180462Y-35484780D01*
X173320363Y-34624681D01*
X173286878Y-34563358D01*
X173291862Y-34493666D01*
X173333734Y-34437733D01*
X173399198Y-34413316D01*
X173408044Y-34413000D01*
X178165956Y-34413000D01*
X178232995Y-34432685D01*
X178253637Y-34449319D01*
X179433375Y-35629057D01*
X180442138Y-36637819D01*
X180475623Y-36699142D01*
X180470639Y-36768834D01*
X180428767Y-36824767D01*
X180363303Y-36849184D01*
X180354457Y-36849500D01*
X180320943Y-36849500D01*
X180168216Y-36890423D01*
X180168209Y-36890426D01*
X180031290Y-36969475D01*
X180031282Y-36969481D01*
X179919481Y-37081282D01*
X179919479Y-37081285D01*
X179887025Y-37137499D01*
X179836458Y-37185715D01*
X179779637Y-37199500D01*
X179050098Y-37199500D01*
X178983059Y-37179815D01*
X178962417Y-37163181D01*
X178868717Y-37069481D01*
X178868709Y-37069475D01*
X178731790Y-36990426D01*
X178731786Y-36990424D01*
X178731784Y-36990423D01*
X178579057Y-36949500D01*
X178420943Y-36949500D01*
X178268216Y-36990423D01*
X178268209Y-36990426D01*
X178131290Y-37069475D01*
X178131282Y-37069481D01*
X178019481Y-37181282D01*
X178019475Y-37181290D01*
X177940426Y-37318209D01*
X177940423Y-37318216D01*
X177899500Y-37470943D01*
X177899500Y-37629057D01*
X177926878Y-37731231D01*
X177940423Y-37781783D01*
X177940426Y-37781790D01*
X178019475Y-37918709D01*
X178019479Y-37918714D01*
X178019480Y-37918716D01*
X178131284Y-38030520D01*
X178131286Y-38030521D01*
X178131290Y-38030524D01*
X178234307Y-38090000D01*
X178268216Y-38109577D01*
X178420943Y-38150500D01*
X178420945Y-38150500D01*
X178579055Y-38150500D01*
X178579057Y-38150500D01*
X178731784Y-38109577D01*
X178868716Y-38030520D01*
X178962417Y-37936819D01*
X179023740Y-37903334D01*
X179050098Y-37900500D01*
X179950069Y-37900500D01*
X180017108Y-37920185D01*
X180025557Y-37926125D01*
X180031281Y-37930517D01*
X180031284Y-37930520D01*
X180031287Y-37930521D01*
X180031290Y-37930524D01*
X180168209Y-38009573D01*
X180168216Y-38009577D01*
X180320943Y-38050500D01*
X180320945Y-38050500D01*
X180479055Y-38050500D01*
X180479057Y-38050500D01*
X180631784Y-38009577D01*
X180768716Y-37930520D01*
X180880520Y-37818716D01*
X180959577Y-37681784D01*
X180965312Y-37660377D01*
X181001676Y-37600718D01*
X181064523Y-37570188D01*
X181117175Y-37572695D01*
X181220943Y-37600500D01*
X181220946Y-37600500D01*
X181379055Y-37600500D01*
X181379057Y-37600500D01*
X181531784Y-37559577D01*
X181668716Y-37480520D01*
X181780520Y-37368716D01*
X181859577Y-37231784D01*
X181900500Y-37079057D01*
X181900500Y-36920943D01*
X181859577Y-36768216D01*
X181822149Y-36703389D01*
X191249500Y-36703389D01*
X191249500Y-36876611D01*
X191256522Y-36920943D01*
X191268953Y-36999436D01*
X191276598Y-37047701D01*
X191330127Y-37212445D01*
X191408768Y-37366788D01*
X191510586Y-37506928D01*
X191633072Y-37629414D01*
X191773212Y-37731232D01*
X191927555Y-37809873D01*
X192092299Y-37863402D01*
X192263389Y-37890500D01*
X192263390Y-37890500D01*
X192436610Y-37890500D01*
X192436611Y-37890500D01*
X192607701Y-37863402D01*
X192772445Y-37809873D01*
X192926788Y-37731232D01*
X193066928Y-37629414D01*
X193189414Y-37506928D01*
X193291232Y-37366788D01*
X193369873Y-37212445D01*
X193423402Y-37047701D01*
X193450500Y-36876611D01*
X193450500Y-36703389D01*
X193423402Y-36532299D01*
X193369873Y-36367555D01*
X193291232Y-36213212D01*
X193189414Y-36073072D01*
X193066928Y-35950586D01*
X192926788Y-35848768D01*
X192772445Y-35770127D01*
X192607701Y-35716598D01*
X192607699Y-35716597D01*
X192607698Y-35716597D01*
X192476271Y-35695781D01*
X192436611Y-35689500D01*
X192263389Y-35689500D01*
X192223728Y-35695781D01*
X192092302Y-35716597D01*
X191927552Y-35770128D01*
X191773211Y-35848768D01*
X191693256Y-35906859D01*
X191633072Y-35950586D01*
X191633070Y-35950588D01*
X191633069Y-35950588D01*
X191510588Y-36073069D01*
X191510588Y-36073070D01*
X191510586Y-36073072D01*
X191473513Y-36124098D01*
X191408768Y-36213211D01*
X191330128Y-36367552D01*
X191276597Y-36532302D01*
X191260920Y-36631284D01*
X191249500Y-36703389D01*
X181822149Y-36703389D01*
X181780520Y-36631284D01*
X181668716Y-36519480D01*
X181668714Y-36519479D01*
X181668709Y-36519475D01*
X181531790Y-36440426D01*
X181531786Y-36440424D01*
X181531784Y-36440423D01*
X181379057Y-36399500D01*
X181246543Y-36399500D01*
X181179504Y-36379815D01*
X181158862Y-36363181D01*
X179886107Y-35090426D01*
X178577712Y-33782030D01*
X178577711Y-33782029D01*
X178577708Y-33782027D01*
X178497790Y-33735887D01*
X178497789Y-33735886D01*
X178497788Y-33735886D01*
X178408644Y-33712000D01*
X178408643Y-33712000D01*
X167702382Y-33712000D01*
X167640382Y-33695387D01*
X167631786Y-33690424D01*
X167631785Y-33690423D01*
X167631784Y-33690423D01*
X167479057Y-33649500D01*
X167320943Y-33649500D01*
X167168216Y-33690423D01*
X167168209Y-33690426D01*
X167031290Y-33769475D01*
X167031282Y-33769481D01*
X166919481Y-33881282D01*
X166919475Y-33881290D01*
X166840426Y-34018209D01*
X166840423Y-34018216D01*
X166799500Y-34170943D01*
X166799500Y-34329057D01*
X166838606Y-34475000D01*
X166840423Y-34481783D01*
X166840426Y-34481790D01*
X166919475Y-34618709D01*
X166919479Y-34618714D01*
X166919480Y-34618716D01*
X167031284Y-34730520D01*
X167031286Y-34730521D01*
X167031290Y-34730524D01*
X167101299Y-34770943D01*
X167168216Y-34809577D01*
X167320943Y-34850500D01*
X167320945Y-34850500D01*
X167479055Y-34850500D01*
X167479057Y-34850500D01*
X167631784Y-34809577D01*
X167768716Y-34730520D01*
X167880520Y-34618716D01*
X167959577Y-34481784D01*
X167959576Y-34481784D01*
X167963494Y-34475000D01*
X168014060Y-34426785D01*
X168070881Y-34413000D01*
X170044130Y-34413000D01*
X170111169Y-34432685D01*
X170156924Y-34485489D01*
X170166868Y-34554647D01*
X170151518Y-34598999D01*
X170140423Y-34618215D01*
X170140423Y-34618216D01*
X170099500Y-34770943D01*
X170099500Y-34925500D01*
X170079815Y-34992539D01*
X170027011Y-35038294D01*
X169975500Y-35049500D01*
X169870943Y-35049500D01*
X169718216Y-35090423D01*
X169718209Y-35090426D01*
X169581290Y-35169475D01*
X169574839Y-35174426D01*
X169573830Y-35173111D01*
X169520917Y-35201998D01*
X169451226Y-35197006D01*
X169395297Y-35155129D01*
X169387183Y-35142825D01*
X169380522Y-35131287D01*
X169380518Y-35131282D01*
X169268717Y-35019481D01*
X169268709Y-35019475D01*
X169131790Y-34940426D01*
X169131786Y-34940424D01*
X169131784Y-34940423D01*
X168979057Y-34899500D01*
X168820943Y-34899500D01*
X168668216Y-34940423D01*
X168668209Y-34940426D01*
X168531290Y-35019475D01*
X168531282Y-35019481D01*
X168419481Y-35131282D01*
X168419475Y-35131290D01*
X168340426Y-35268209D01*
X168340423Y-35268216D01*
X168299500Y-35420943D01*
X168299500Y-35579057D01*
X168312898Y-35629057D01*
X168340423Y-35731783D01*
X168340426Y-35731790D01*
X168419475Y-35868709D01*
X168419481Y-35868717D01*
X168488181Y-35937417D01*
X168521666Y-35998740D01*
X168524500Y-36025098D01*
X168524500Y-36743101D01*
X168504815Y-36810140D01*
X168488181Y-36830782D01*
X165080782Y-40238181D01*
X165019459Y-40271666D01*
X164993101Y-40274500D01*
X162225098Y-40274500D01*
X162158059Y-40254815D01*
X162137417Y-40238181D01*
X162068717Y-40169481D01*
X162068709Y-40169475D01*
X161931790Y-40090426D01*
X161931786Y-40090424D01*
X161931784Y-40090423D01*
X161779057Y-40049500D01*
X161620943Y-40049500D01*
X161468216Y-40090423D01*
X161468209Y-40090426D01*
X161331290Y-40169475D01*
X161331282Y-40169481D01*
X161219481Y-40281282D01*
X161219475Y-40281290D01*
X161140426Y-40418209D01*
X161140423Y-40418216D01*
X161099500Y-40570943D01*
X143298909Y-40570943D01*
X143292249Y-38483753D01*
X144850000Y-38483753D01*
X144850000Y-38696246D01*
X144883242Y-38906127D01*
X144883242Y-38906130D01*
X144948904Y-39108217D01*
X145045375Y-39297550D01*
X145084728Y-39351716D01*
X145717036Y-38719407D01*
X145734075Y-38782993D01*
X145799901Y-38897007D01*
X145892993Y-38990099D01*
X146007007Y-39055925D01*
X146070590Y-39072962D01*
X145438282Y-39705269D01*
X145438282Y-39705270D01*
X145492449Y-39744624D01*
X145681782Y-39841095D01*
X145883870Y-39906757D01*
X146093754Y-39940000D01*
X146306246Y-39940000D01*
X146516127Y-39906757D01*
X146516130Y-39906757D01*
X146718217Y-39841095D01*
X146907554Y-39744622D01*
X146961716Y-39705270D01*
X146961717Y-39705270D01*
X146329408Y-39072962D01*
X146392993Y-39055925D01*
X146507007Y-38990099D01*
X146600099Y-38897007D01*
X146665925Y-38782993D01*
X146682962Y-38719408D01*
X147315270Y-39351717D01*
X147315270Y-39351716D01*
X147354622Y-39297554D01*
X147451095Y-39108217D01*
X147516757Y-38906130D01*
X147516757Y-38906127D01*
X147550000Y-38696246D01*
X147550000Y-38483753D01*
X147516757Y-38273872D01*
X147516757Y-38273869D01*
X147451095Y-38071782D01*
X147354624Y-37882449D01*
X147315270Y-37828282D01*
X147315269Y-37828282D01*
X146682962Y-38460590D01*
X146665925Y-38397007D01*
X146600099Y-38282993D01*
X146507007Y-38189901D01*
X146392993Y-38124075D01*
X146329409Y-38107037D01*
X146961716Y-37474728D01*
X146907550Y-37435375D01*
X146808655Y-37384985D01*
X146757859Y-37337010D01*
X146741064Y-37269189D01*
X146763602Y-37203054D01*
X146818317Y-37159603D01*
X146864950Y-37150500D01*
X147074676Y-37150500D01*
X147074677Y-37150499D01*
X147147740Y-37135966D01*
X147230601Y-37080601D01*
X147285966Y-36997740D01*
X147300500Y-36924674D01*
X147300500Y-35175326D01*
X147300500Y-35175323D01*
X147300499Y-35175321D01*
X147285967Y-35102264D01*
X147285966Y-35102260D01*
X147270525Y-35079151D01*
X147230601Y-35019399D01*
X147147740Y-34964034D01*
X147147739Y-34964033D01*
X147147735Y-34964032D01*
X147074677Y-34949500D01*
X147074674Y-34949500D01*
X145325326Y-34949500D01*
X145325323Y-34949500D01*
X145252264Y-34964032D01*
X145252260Y-34964033D01*
X145169399Y-35019399D01*
X145114033Y-35102260D01*
X145114032Y-35102264D01*
X145099500Y-35175321D01*
X145099500Y-36924678D01*
X145114032Y-36997735D01*
X145114033Y-36997739D01*
X145114034Y-36997740D01*
X145169399Y-37080601D01*
X145252260Y-37135966D01*
X145252264Y-37135967D01*
X145325321Y-37150499D01*
X145325324Y-37150500D01*
X145535051Y-37150500D01*
X145602090Y-37170185D01*
X145647845Y-37222989D01*
X145657789Y-37292147D01*
X145628764Y-37355703D01*
X145591346Y-37384985D01*
X145492439Y-37435380D01*
X145438282Y-37474727D01*
X145438282Y-37474728D01*
X146070591Y-38107037D01*
X146007007Y-38124075D01*
X145892993Y-38189901D01*
X145799901Y-38282993D01*
X145734075Y-38397007D01*
X145717037Y-38460591D01*
X145084728Y-37828282D01*
X145084727Y-37828282D01*
X145045380Y-37882439D01*
X144948904Y-38071782D01*
X144883242Y-38273869D01*
X144883242Y-38273872D01*
X144850000Y-38483753D01*
X143292249Y-38483753D01*
X143292235Y-38479277D01*
X143281675Y-35169630D01*
X143277053Y-33720943D01*
X161849500Y-33720943D01*
X161849500Y-33879057D01*
X161886788Y-34018216D01*
X161890423Y-34031783D01*
X161890426Y-34031790D01*
X161969475Y-34168709D01*
X161969479Y-34168714D01*
X161969480Y-34168716D01*
X162081284Y-34280520D01*
X162081286Y-34280521D01*
X162081290Y-34280524D01*
X162165353Y-34329057D01*
X162218216Y-34359577D01*
X162370943Y-34400500D01*
X162370945Y-34400500D01*
X162529055Y-34400500D01*
X162529057Y-34400500D01*
X162681784Y-34359577D01*
X162818716Y-34280520D01*
X162887417Y-34211819D01*
X162948740Y-34178334D01*
X162975098Y-34175500D01*
X163674902Y-34175500D01*
X163741941Y-34195185D01*
X163762583Y-34211819D01*
X163831284Y-34280520D01*
X163831286Y-34280521D01*
X163831290Y-34280524D01*
X163915353Y-34329057D01*
X163968216Y-34359577D01*
X164120943Y-34400500D01*
X164120945Y-34400500D01*
X164279055Y-34400500D01*
X164279057Y-34400500D01*
X164431784Y-34359577D01*
X164568716Y-34280520D01*
X164680520Y-34168716D01*
X164759577Y-34031784D01*
X164800500Y-33879057D01*
X164800500Y-33720943D01*
X164759577Y-33568216D01*
X164759573Y-33568209D01*
X164680524Y-33431290D01*
X164680518Y-33431282D01*
X164568717Y-33319481D01*
X164568709Y-33319475D01*
X164431790Y-33240426D01*
X164431786Y-33240424D01*
X164431784Y-33240423D01*
X164279057Y-33199500D01*
X164120943Y-33199500D01*
X163968216Y-33240423D01*
X163968209Y-33240426D01*
X163831290Y-33319475D01*
X163831282Y-33319481D01*
X163762583Y-33388181D01*
X163701260Y-33421666D01*
X163674902Y-33424500D01*
X162975098Y-33424500D01*
X162908059Y-33404815D01*
X162887417Y-33388181D01*
X162818717Y-33319481D01*
X162818709Y-33319475D01*
X162681790Y-33240426D01*
X162681786Y-33240424D01*
X162681784Y-33240423D01*
X162529057Y-33199500D01*
X162370943Y-33199500D01*
X162218216Y-33240423D01*
X162218209Y-33240426D01*
X162081290Y-33319475D01*
X162081282Y-33319481D01*
X161969481Y-33431282D01*
X161969475Y-33431290D01*
X161890426Y-33568209D01*
X161890423Y-33568216D01*
X161849500Y-33720943D01*
X143277053Y-33720943D01*
X143277028Y-33713212D01*
X143271715Y-32048321D01*
X143270782Y-31756054D01*
X143267987Y-30879947D01*
X143264793Y-29878711D01*
X146149500Y-29878711D01*
X146149500Y-30121288D01*
X146181161Y-30361785D01*
X146243947Y-30596104D01*
X146336773Y-30820205D01*
X146336776Y-30820212D01*
X146458064Y-31030289D01*
X146458066Y-31030292D01*
X146458067Y-31030293D01*
X146605733Y-31222736D01*
X146605739Y-31222743D01*
X146777256Y-31394260D01*
X146777262Y-31394265D01*
X146969711Y-31541936D01*
X147179788Y-31663224D01*
X147403900Y-31756054D01*
X147638211Y-31818838D01*
X147818586Y-31842584D01*
X147878711Y-31850500D01*
X147878712Y-31850500D01*
X148121289Y-31850500D01*
X148169388Y-31844167D01*
X148361789Y-31818838D01*
X148596100Y-31756054D01*
X148820212Y-31663224D01*
X149030289Y-31541936D01*
X149155490Y-31445866D01*
X157449000Y-31445866D01*
X157449000Y-31599287D01*
X158199000Y-31599287D01*
X158199000Y-32099287D01*
X157449000Y-32099287D01*
X157449000Y-32252707D01*
X157489348Y-32455553D01*
X157489350Y-32455561D01*
X157568500Y-32646645D01*
X157568505Y-32646655D01*
X157683410Y-32818622D01*
X157683413Y-32818626D01*
X157829660Y-32964873D01*
X157829664Y-32964876D01*
X158001631Y-33079781D01*
X158001641Y-33079786D01*
X158192723Y-33158935D01*
X158192725Y-33158936D01*
X158249000Y-33170129D01*
X158249000Y-32316275D01*
X158258940Y-32333492D01*
X158314795Y-32389347D01*
X158383204Y-32428843D01*
X158459504Y-32449287D01*
X158538496Y-32449287D01*
X158614796Y-32428843D01*
X158683205Y-32389347D01*
X158739060Y-32333492D01*
X158749000Y-32316275D01*
X158749000Y-33170129D01*
X158805274Y-33158936D01*
X158805276Y-33158935D01*
X158996358Y-33079786D01*
X158996368Y-33079781D01*
X159168335Y-32964876D01*
X159168339Y-32964873D01*
X159314586Y-32818626D01*
X159314589Y-32818622D01*
X159429494Y-32646655D01*
X159429499Y-32646645D01*
X159508649Y-32455561D01*
X159508651Y-32455553D01*
X159548999Y-32252707D01*
X159549000Y-32252704D01*
X159549000Y-32099287D01*
X158799000Y-32099287D01*
X158799000Y-31599287D01*
X159549000Y-31599287D01*
X159549000Y-31445870D01*
X159548999Y-31445866D01*
X166089000Y-31445866D01*
X166089000Y-31599287D01*
X166839000Y-31599287D01*
X166839000Y-32099287D01*
X166089000Y-32099287D01*
X166089000Y-32252707D01*
X166129348Y-32455553D01*
X166129350Y-32455561D01*
X166208500Y-32646645D01*
X166208505Y-32646655D01*
X166323410Y-32818622D01*
X166323413Y-32818626D01*
X166469660Y-32964873D01*
X166469664Y-32964876D01*
X166641631Y-33079781D01*
X166641641Y-33079786D01*
X166832723Y-33158935D01*
X166832725Y-33158936D01*
X166889000Y-33170129D01*
X166889000Y-32316275D01*
X166898940Y-32333492D01*
X166954795Y-32389347D01*
X167023204Y-32428843D01*
X167099504Y-32449287D01*
X167178496Y-32449287D01*
X167254796Y-32428843D01*
X167323205Y-32389347D01*
X167379060Y-32333492D01*
X167389000Y-32316275D01*
X167389000Y-33170129D01*
X167445274Y-33158936D01*
X167445276Y-33158935D01*
X167636358Y-33079786D01*
X167636368Y-33079781D01*
X167808335Y-32964876D01*
X167808339Y-32964873D01*
X167954586Y-32818626D01*
X167954589Y-32818622D01*
X168069494Y-32646655D01*
X168069499Y-32646645D01*
X168148649Y-32455561D01*
X168148651Y-32455553D01*
X168188999Y-32252707D01*
X168189000Y-32252704D01*
X168189000Y-32099287D01*
X167439000Y-32099287D01*
X167439000Y-31599287D01*
X168189000Y-31599287D01*
X168189000Y-31445870D01*
X168188999Y-31445866D01*
X168148651Y-31243020D01*
X168148649Y-31243012D01*
X168069499Y-31051928D01*
X168069494Y-31051918D01*
X167954589Y-30879951D01*
X167954586Y-30879947D01*
X167808339Y-30733700D01*
X167808335Y-30733697D01*
X167636368Y-30618792D01*
X167636358Y-30618787D01*
X167445272Y-30539636D01*
X167445267Y-30539634D01*
X167389000Y-30528442D01*
X167389000Y-31382298D01*
X167379060Y-31365082D01*
X167323205Y-31309227D01*
X167254796Y-31269731D01*
X167178496Y-31249287D01*
X167099504Y-31249287D01*
X167023204Y-31269731D01*
X166954795Y-31309227D01*
X166898940Y-31365082D01*
X166889000Y-31382298D01*
X166889000Y-30528443D01*
X166888999Y-30528442D01*
X166832732Y-30539634D01*
X166832727Y-30539636D01*
X166641641Y-30618787D01*
X166641631Y-30618792D01*
X166469664Y-30733697D01*
X166469660Y-30733700D01*
X166323413Y-30879947D01*
X166323410Y-30879951D01*
X166208505Y-31051918D01*
X166208500Y-31051928D01*
X166129350Y-31243012D01*
X166129348Y-31243020D01*
X166089000Y-31445866D01*
X159548999Y-31445866D01*
X159508651Y-31243020D01*
X159508649Y-31243012D01*
X159429499Y-31051928D01*
X159429494Y-31051918D01*
X159314589Y-30879951D01*
X159314586Y-30879947D01*
X159168339Y-30733700D01*
X159168335Y-30733697D01*
X158996368Y-30618792D01*
X158996358Y-30618787D01*
X158805272Y-30539636D01*
X158805267Y-30539634D01*
X158749000Y-30528442D01*
X158749000Y-31382298D01*
X158739060Y-31365082D01*
X158683205Y-31309227D01*
X158614796Y-31269731D01*
X158538496Y-31249287D01*
X158459504Y-31249287D01*
X158383204Y-31269731D01*
X158314795Y-31309227D01*
X158258940Y-31365082D01*
X158249000Y-31382298D01*
X158249000Y-30528443D01*
X158248999Y-30528442D01*
X158192732Y-30539634D01*
X158192727Y-30539636D01*
X158001641Y-30618787D01*
X158001631Y-30618792D01*
X157829664Y-30733697D01*
X157829660Y-30733700D01*
X157683413Y-30879947D01*
X157683410Y-30879951D01*
X157568505Y-31051918D01*
X157568500Y-31051928D01*
X157489350Y-31243012D01*
X157489348Y-31243020D01*
X157449000Y-31445866D01*
X149155490Y-31445866D01*
X149222738Y-31394265D01*
X149222743Y-31394260D01*
X149264906Y-31352098D01*
X149394260Y-31222743D01*
X149394265Y-31222738D01*
X149541936Y-31030289D01*
X149663224Y-30820212D01*
X149756054Y-30596100D01*
X149818838Y-30361789D01*
X149850500Y-30121288D01*
X149850500Y-29878712D01*
X149850500Y-29878711D01*
X188149500Y-29878711D01*
X188149500Y-30121288D01*
X188181161Y-30361785D01*
X188243947Y-30596104D01*
X188336773Y-30820205D01*
X188336776Y-30820212D01*
X188458064Y-31030289D01*
X188458066Y-31030292D01*
X188458067Y-31030293D01*
X188605733Y-31222736D01*
X188605739Y-31222743D01*
X188777256Y-31394260D01*
X188777262Y-31394265D01*
X188969711Y-31541936D01*
X189179788Y-31663224D01*
X189403900Y-31756054D01*
X189638211Y-31818838D01*
X189818586Y-31842584D01*
X189878711Y-31850500D01*
X189878712Y-31850500D01*
X190121289Y-31850500D01*
X190169388Y-31844167D01*
X190361789Y-31818838D01*
X190596100Y-31756054D01*
X190820212Y-31663224D01*
X191030289Y-31541936D01*
X191222738Y-31394265D01*
X191394265Y-31222738D01*
X191541936Y-31030289D01*
X191663224Y-30820212D01*
X191756054Y-30596100D01*
X191818838Y-30361789D01*
X191850500Y-30121288D01*
X191850500Y-29878712D01*
X191818838Y-29638211D01*
X191756054Y-29403900D01*
X191663224Y-29179788D01*
X191541936Y-28969711D01*
X191394265Y-28777262D01*
X191394260Y-28777256D01*
X191222743Y-28605739D01*
X191222736Y-28605733D01*
X191030293Y-28458067D01*
X191030292Y-28458066D01*
X191030289Y-28458064D01*
X190820212Y-28336776D01*
X190820205Y-28336773D01*
X190596104Y-28243947D01*
X190361785Y-28181161D01*
X190121289Y-28149500D01*
X190121288Y-28149500D01*
X189878712Y-28149500D01*
X189878711Y-28149500D01*
X189638214Y-28181161D01*
X189403895Y-28243947D01*
X189179794Y-28336773D01*
X189179785Y-28336777D01*
X188969706Y-28458067D01*
X188777263Y-28605733D01*
X188777256Y-28605739D01*
X188605739Y-28777256D01*
X188605733Y-28777263D01*
X188458067Y-28969706D01*
X188336777Y-29179785D01*
X188336773Y-29179794D01*
X188243947Y-29403895D01*
X188181161Y-29638214D01*
X188149500Y-29878711D01*
X149850500Y-29878711D01*
X149818838Y-29638211D01*
X149756054Y-29403900D01*
X149663224Y-29179788D01*
X149541936Y-28969711D01*
X149394265Y-28777262D01*
X149394260Y-28777256D01*
X149222743Y-28605739D01*
X149222736Y-28605733D01*
X149030293Y-28458067D01*
X149030292Y-28458066D01*
X149030289Y-28458064D01*
X148820212Y-28336776D01*
X148820205Y-28336773D01*
X148596104Y-28243947D01*
X148361785Y-28181161D01*
X148121289Y-28149500D01*
X148121288Y-28149500D01*
X147878712Y-28149500D01*
X147878711Y-28149500D01*
X147638214Y-28181161D01*
X147403895Y-28243947D01*
X147179794Y-28336773D01*
X147179785Y-28336777D01*
X146969706Y-28458067D01*
X146777263Y-28605733D01*
X146777256Y-28605739D01*
X146605739Y-28777256D01*
X146605733Y-28777263D01*
X146458067Y-28969706D01*
X146336777Y-29179785D01*
X146336773Y-29179794D01*
X146243947Y-29403895D01*
X146181161Y-29638214D01*
X146149500Y-29878711D01*
X143264793Y-29878711D01*
X143264781Y-29875049D01*
X143257668Y-27645866D01*
X157449000Y-27645866D01*
X157449000Y-27799287D01*
X158199000Y-27799287D01*
X158199000Y-28299287D01*
X157449000Y-28299287D01*
X157449000Y-28452707D01*
X157489348Y-28655553D01*
X157489350Y-28655561D01*
X157568500Y-28846645D01*
X157568505Y-28846655D01*
X157683410Y-29018622D01*
X157683413Y-29018626D01*
X157829660Y-29164873D01*
X157829664Y-29164876D01*
X158001631Y-29279781D01*
X158001641Y-29279786D01*
X158192723Y-29358935D01*
X158192725Y-29358936D01*
X158249000Y-29370129D01*
X158249000Y-28516275D01*
X158258940Y-28533492D01*
X158314795Y-28589347D01*
X158383204Y-28628843D01*
X158459504Y-28649287D01*
X158538496Y-28649287D01*
X158614796Y-28628843D01*
X158683205Y-28589347D01*
X158739060Y-28533492D01*
X158749000Y-28516275D01*
X158749000Y-29370129D01*
X158805274Y-29358936D01*
X158805276Y-29358935D01*
X158996358Y-29279786D01*
X158996368Y-29279781D01*
X159168335Y-29164876D01*
X159168339Y-29164873D01*
X159314586Y-29018626D01*
X159314589Y-29018622D01*
X159429494Y-28846655D01*
X159429499Y-28846645D01*
X159508649Y-28655561D01*
X159508651Y-28655553D01*
X159548999Y-28452707D01*
X159549000Y-28452704D01*
X159549000Y-28299287D01*
X158799000Y-28299287D01*
X158799000Y-27799287D01*
X159549000Y-27799287D01*
X159549000Y-27645870D01*
X159548999Y-27645866D01*
X166089000Y-27645866D01*
X166089000Y-27799287D01*
X166839000Y-27799287D01*
X166839000Y-28299287D01*
X166089000Y-28299287D01*
X166089000Y-28452707D01*
X166129348Y-28655553D01*
X166129350Y-28655561D01*
X166208500Y-28846645D01*
X166208505Y-28846655D01*
X166323410Y-29018622D01*
X166323413Y-29018626D01*
X166469660Y-29164873D01*
X166469664Y-29164876D01*
X166641631Y-29279781D01*
X166641641Y-29279786D01*
X166832723Y-29358935D01*
X166832725Y-29358936D01*
X166889000Y-29370129D01*
X166889000Y-28516275D01*
X166898940Y-28533492D01*
X166954795Y-28589347D01*
X167023204Y-28628843D01*
X167099504Y-28649287D01*
X167178496Y-28649287D01*
X167254796Y-28628843D01*
X167323205Y-28589347D01*
X167379060Y-28533492D01*
X167389000Y-28516275D01*
X167389000Y-29370129D01*
X167445274Y-29358936D01*
X167445276Y-29358935D01*
X167636358Y-29279786D01*
X167636368Y-29279781D01*
X167808335Y-29164876D01*
X167808339Y-29164873D01*
X167954586Y-29018626D01*
X167954589Y-29018622D01*
X168069494Y-28846655D01*
X168069499Y-28846645D01*
X168148649Y-28655561D01*
X168148651Y-28655553D01*
X168188999Y-28452707D01*
X168189000Y-28452704D01*
X168189000Y-28299287D01*
X167439000Y-28299287D01*
X167439000Y-27799287D01*
X168189000Y-27799287D01*
X168189000Y-27645870D01*
X168188999Y-27645866D01*
X168148651Y-27443020D01*
X168148649Y-27443012D01*
X168069499Y-27251928D01*
X168069494Y-27251918D01*
X167954589Y-27079951D01*
X167954586Y-27079947D01*
X167808339Y-26933700D01*
X167808335Y-26933697D01*
X167636368Y-26818792D01*
X167636358Y-26818787D01*
X167445272Y-26739636D01*
X167445267Y-26739634D01*
X167389000Y-26728442D01*
X167389000Y-27582298D01*
X167379060Y-27565082D01*
X167323205Y-27509227D01*
X167254796Y-27469731D01*
X167178496Y-27449287D01*
X167099504Y-27449287D01*
X167023204Y-27469731D01*
X166954795Y-27509227D01*
X166898940Y-27565082D01*
X166889000Y-27582298D01*
X166889000Y-26728443D01*
X166888999Y-26728442D01*
X166832732Y-26739634D01*
X166832727Y-26739636D01*
X166641641Y-26818787D01*
X166641631Y-26818792D01*
X166469664Y-26933697D01*
X166469660Y-26933700D01*
X166323413Y-27079947D01*
X166323410Y-27079951D01*
X166208505Y-27251918D01*
X166208500Y-27251928D01*
X166129350Y-27443012D01*
X166129348Y-27443020D01*
X166089000Y-27645866D01*
X159548999Y-27645866D01*
X159508651Y-27443020D01*
X159508649Y-27443012D01*
X159429499Y-27251928D01*
X159429494Y-27251918D01*
X159314589Y-27079951D01*
X159314586Y-27079947D01*
X159168339Y-26933700D01*
X159168335Y-26933697D01*
X158996368Y-26818792D01*
X158996358Y-26818787D01*
X158805272Y-26739636D01*
X158805267Y-26739634D01*
X158749000Y-26728442D01*
X158749000Y-27582298D01*
X158739060Y-27565082D01*
X158683205Y-27509227D01*
X158614796Y-27469731D01*
X158538496Y-27449287D01*
X158459504Y-27449287D01*
X158383204Y-27469731D01*
X158314795Y-27509227D01*
X158258940Y-27565082D01*
X158249000Y-27582298D01*
X158249000Y-26728443D01*
X158248999Y-26728442D01*
X158192732Y-26739634D01*
X158192727Y-26739636D01*
X158001641Y-26818787D01*
X158001631Y-26818792D01*
X157829664Y-26933697D01*
X157829660Y-26933700D01*
X157683413Y-27079947D01*
X157683410Y-27079951D01*
X157568505Y-27251918D01*
X157568500Y-27251928D01*
X157489350Y-27443012D01*
X157489348Y-27443020D01*
X157449000Y-27645866D01*
X143257668Y-27645866D01*
X143257650Y-27640175D01*
X143251698Y-25774896D01*
X143271168Y-25707794D01*
X143323826Y-25661871D01*
X143375697Y-25650500D01*
X194725500Y-25650500D01*
X194792539Y-25670185D01*
G37*
%TD.AperFunction*%
%TD*%
M02*
